<svg width="97" height="96" viewBox="0 0 97 96" fill="none" xmlns="http://www.w3.org/2000/svg">
<g id="list">
<path id="Vector" d="M75.9699 18.9365V84.6522C75.9699 86.501 74.4712 87.9999 72.6222 87.9999H24.1289C22.2801 87.9999 20.7812 86.5012 20.7812 84.6522V18.9365C20.7812 17.0877 22.28 15.5889 24.1289 15.5889H72.6224C74.4712 15.5889 75.9699 17.0877 75.9699 18.9365Z" fill="#66D5F2"/>
<path id="Vector_2" opacity="0.08" d="M75.9636 18.9385V84.6523C75.9636 86.5019 74.4655 88 72.616 88H68.6992C70.5488 88 72.0469 86.5019 72.0469 84.6523V18.9385C72.0469 17.0889 70.5488 15.5908 68.6992 15.5908H72.616C74.4655 15.591 75.9636 17.0891 75.9636 18.9385Z" fill="black"/>
<path id="Vector_3" d="M72.6225 18.936H24.1289V84.6519H72.6225V18.936Z" fill="#F2F0F0"/>
<path id="Vector_4" d="M62.3998 13.9588H55.9891C54.8677 13.9588 53.8801 13.214 53.5787 12.126L53.5119 11.8917C52.8717 9.62575 50.812 8 48.3733 8C45.9797 8 43.8875 9.59019 43.2347 11.8917L43.1678 12.126C42.8664 13.214 41.879 13.9588 40.7574 13.9588H34.3467C32.9575 13.9588 31.8359 15.0802 31.8359 16.4696V19.6833H64.9104V16.4696C64.9106 15.0804 63.789 13.9588 62.3998 13.9588ZM48.3733 14.6859C47.2347 14.6859 46.3239 13.7643 46.3239 12.6365C46.3239 11.4979 47.2347 10.5872 48.3733 10.5872C49.5119 10.5872 50.4228 11.4979 50.4228 12.6365C50.4228 13.7643 49.5119 14.6859 48.3733 14.6859Z" fill="#FFCE29"/>
<path id="Vector_5" opacity="0.08" d="M62.402 13.959H60.3516C61.7408 13.959 62.8623 15.0804 62.8623 16.4697V19.6835H64.9127V16.4697C64.9127 15.0805 63.7912 13.959 62.402 13.959Z" fill="black"/>
<path id="Vector_6" d="M64.9172 19.6826L65.5163 20.5078C65.8713 20.9967 65.522 21.6818 64.918 21.6818H31.8306C31.2265 21.6818 30.8773 20.9967 31.2323 20.5078L31.8314 19.6826H64.9172Z" fill="#F2B816"/>
<g id="Group">
<path id="Vector_7" d="M33.5861 27.8008C30.7624 27.8008 28.4648 30.0979 28.4648 32.9221C28.4648 35.7463 30.7624 38.0434 33.5861 38.0434C36.4144 38.0434 38.7156 35.7463 38.7156 32.9221C38.7156 30.0979 36.4144 27.8008 33.5861 27.8008Z" fill="#E5E3E5"/>
<path id="Vector_8" d="M38.9012 32.9261C38.9012 35.852 36.5156 38.2307 33.5897 38.2307C30.6639 38.2307 28.2852 35.852 28.2852 32.9261C28.2852 30.0003 30.6637 27.6216 33.5897 27.6216C36.5156 27.6216 38.9012 30.0003 38.9012 32.9261Z" fill="#E5E3E5"/>
<path id="Vector_9" d="M32.6177 35.5641C32.3735 35.5641 32.1391 35.467 31.9665 35.2942L30.473 33.8002C30.1132 33.4404 30.1132 32.8576 30.473 32.4979C30.8328 32.1381 31.4156 32.1381 31.7753 32.4979L32.6175 33.3407L35.4071 30.5506C35.7669 30.1908 36.3497 30.1908 36.7094 30.5506C37.069 30.9104 37.0692 31.4933 36.7094 31.8529L33.2687 35.2941C33.0962 35.4669 32.8619 35.5641 32.6177 35.5641Z" fill="#F96464"/>
<path id="Vector_10" d="M67.546 31.6863H41.8976C41.389 31.6863 40.9766 31.2743 40.9766 30.7653C40.9766 30.2562 41.389 29.8442 41.8976 29.8442H67.546C68.0551 29.8442 68.467 30.2562 68.467 30.7653C68.467 31.2743 68.0551 31.6863 67.546 31.6863ZM56.2762 36.008H41.8976C41.389 36.008 40.9766 35.596 40.9766 35.0869C40.9766 34.5778 41.389 34.1659 41.8976 34.1659H56.2762C56.7853 34.1659 57.1972 34.5778 57.1972 35.0869C57.1972 35.596 56.7853 36.008 56.2762 36.008Z" fill="#E5E3E5"/>
<g id="Group_2">
<path id="Vector_11" d="M33.5861 42.0293C30.7624 42.0293 28.4648 44.3264 28.4648 47.1506C28.4648 49.9748 30.7624 52.2719 33.5861 52.2719C36.4144 52.2719 38.7156 49.9748 38.7156 47.1506C38.7156 44.3264 36.4144 42.0293 33.5861 42.0293Z" fill="#E5E3E5"/>
<path id="Vector_12" d="M38.9012 47.1542C38.9012 50.08 36.5156 52.4587 33.5897 52.4587C30.6639 52.4587 28.2852 50.08 28.2852 47.1542C28.2852 44.2283 30.6637 41.8496 33.5897 41.8496C36.5156 41.8496 38.9012 44.2283 38.9012 47.1542Z" fill="#E5E3E5"/>
<path id="Vector_13" d="M32.6138 49.7922C32.3696 49.7922 32.1352 49.695 31.9626 49.5223L30.4691 48.0283C30.1093 47.6685 30.1093 47.0856 30.4691 46.726C30.8289 46.3663 31.4117 46.3662 31.7714 46.726L32.6136 47.5687L35.4032 44.7786C35.763 44.4188 36.3458 44.4188 36.7055 44.7786C37.0651 45.1384 37.0653 45.7213 36.7055 46.0809L33.2647 49.5221C33.0923 49.6949 32.858 49.7922 32.6138 49.7922Z" fill="#F96464"/>
<path id="Vector_14" d="M67.5421 45.9143H41.8937C41.3851 45.9143 40.9727 45.5024 40.9727 44.9933C40.9727 44.4842 41.3851 44.0723 41.8937 44.0723H67.5421C68.0512 44.0723 68.4631 44.4842 68.4631 44.9933C68.4631 45.5024 68.0512 45.9143 67.5421 45.9143ZM56.2723 50.236H41.8937C41.3851 50.236 40.9727 49.824 40.9727 49.315C40.9727 48.8059 41.3851 48.3939 41.8937 48.3939H56.2723C56.7814 48.3939 57.1933 48.8059 57.1933 49.315C57.1933 49.824 56.7814 50.236 56.2723 50.236Z" fill="#E5E3E5"/>
</g>
<g id="Group_3">
<path id="Vector_15" d="M33.5861 56.2583C30.7624 56.2583 28.4648 58.5554 28.4648 61.3796C28.4648 64.2038 30.7624 66.5009 33.5861 66.5009C36.4144 66.5009 38.7156 64.2038 38.7156 61.3796C38.7156 58.5554 36.4144 56.2583 33.5861 56.2583Z" fill="#E5E3E5"/>
<path id="Vector_16" d="M38.9012 61.3832C38.9012 64.309 36.5156 66.6877 33.5897 66.6877C30.6639 66.6877 28.2852 64.309 28.2852 61.3832C28.2852 58.4573 30.6637 56.0786 33.5897 56.0786C36.5156 56.0786 38.9012 58.4573 38.9012 61.3832Z" fill="#E5E3E5"/>
<path id="Vector_17" d="M32.6138 64.0212C32.3696 64.0212 32.1352 63.924 31.9626 63.7513L30.4691 62.2573C30.1093 61.8975 30.1093 61.3146 30.4691 60.955C30.8289 60.5953 31.4117 60.5952 31.7714 60.955L32.6136 61.7977L35.4032 59.0076C35.763 58.6478 36.3458 58.6478 36.7055 59.0076C37.0651 59.3674 37.0653 59.9503 36.7055 60.3099L33.2647 63.7511C33.0923 63.924 32.858 64.0212 32.6138 64.0212Z" fill="#F96464"/>
<path id="Vector_18" d="M67.5421 60.1433H41.8937C41.3851 60.1433 40.9727 59.7314 40.9727 59.2223C40.9727 58.7132 41.3851 58.3013 41.8937 58.3013H67.5421C68.0512 58.3013 68.4631 58.7132 68.4631 59.2223C68.4631 59.7314 68.0512 60.1433 67.5421 60.1433ZM56.2723 64.465H41.8937C41.3851 64.465 40.9727 64.053 40.9727 63.544C40.9727 63.0349 41.3851 62.6229 41.8937 62.6229H56.2723C56.7814 62.6229 57.1933 63.0349 57.1933 63.544C57.1933 64.053 56.7814 64.465 56.2723 64.465Z" fill="#E5E3E5"/>
</g>
<g id="Group_4">
<path id="Vector_19" d="M33.5861 70.4868C30.7624 70.4868 28.4648 72.7839 28.4648 75.6081C28.4648 78.4323 30.7624 80.7294 33.5861 80.7294C36.4144 80.7294 38.7156 78.4323 38.7156 75.6081C38.7156 72.7839 36.4144 70.4868 33.5861 70.4868Z" fill="#E5E3E5"/>
<path id="Vector_20" d="M38.9012 75.6117C38.9012 78.5375 36.5156 80.9162 33.5897 80.9162C30.6639 80.9162 28.2852 78.5375 28.2852 75.6117C28.2852 72.6858 30.6637 70.3071 33.5897 70.3071C36.5156 70.3073 38.9012 72.6858 38.9012 75.6117Z" fill="#E5E3E5"/>
<path id="Vector_21" d="M32.6138 78.2497C32.3696 78.2497 32.1352 78.1526 31.9626 77.9798L30.4691 76.4858C30.1093 76.126 30.1093 75.5431 30.4691 75.1835C30.8289 74.8238 31.4117 74.8237 31.7714 75.1835L32.6136 76.0262L35.4032 73.2362C35.763 72.8764 36.3458 72.8764 36.7055 73.2362C37.0653 73.596 37.0653 74.1788 36.7055 74.5384L33.2647 77.9796C33.0923 78.1526 32.858 78.2497 32.6138 78.2497Z" fill="#F96464"/>
<path id="Vector_22" d="M67.5421 74.3719H41.8937C41.3851 74.3719 40.9727 73.9599 40.9727 73.4508C40.9727 72.9417 41.3851 72.5298 41.8937 72.5298H67.5421C68.0512 72.5298 68.4631 72.9417 68.4631 73.4508C68.4631 73.9599 68.0512 74.3719 67.5421 74.3719ZM56.2723 78.6937H41.8937C41.3851 78.6937 40.9727 78.2817 40.9727 77.7726C40.9727 77.2636 41.3851 76.8516 41.8937 76.8516H56.2723C56.7814 76.8516 57.1933 77.2636 57.1933 77.7726C57.1933 78.2817 56.7814 78.6937 56.2723 78.6937Z" fill="#E5E3E5"/>
</g>
</g>
</g>
</svg>
