<svg width="97" height="96" viewBox="0 0 97 96" fill="none" xmlns="http://www.w3.org/2000/svg">
<g id="ecology">
<path id="Vector" fillRule="evenodd" clipRule="evenodd" d="M35.7121 32.1853C35.6257 32.0233 35.5285 31.8721 35.4313 31.7209C31.7917 26.1482 22.4714 25.7378 22.4714 25.7378C22.4714 25.7378 19.1018 34.3777 22.7414 39.9721C26.3809 45.5664 35.7013 45.966 35.7013 45.966C35.7013 45.966 44.9785 45.5556 48.6612 39.9721C52.344 34.3885 48.9312 25.7378 48.9312 25.7378C48.9312 25.7378 39.6541 26.1482 35.9713 31.7209C35.8957 31.9261 35.7661 32.0233 35.7121 32.1853Z" fill="#91CB7C"/>
<path id="Vector_2" fillRule="evenodd" clipRule="evenodd" d="M22.5151 25.7373C22.5151 25.7373 31.7922 26.1477 35.475 31.7204C39.1578 37.2932 35.7126 45.9655 35.7126 45.9655C35.7126 45.9655 26.4355 45.5551 22.7527 39.9716C19.0699 34.388 22.5151 25.7373 22.5151 25.7373Z" fill="#D0EEC5"/>
<path id="Vector_3" fillRule="evenodd" clipRule="evenodd" d="M67.0352 66.4848V52.6069H62.1752L57.2072 50.123C54.8108 48.9212 52.1169 48.4409 49.4528 48.7406C45.8219 49.1442 42.468 50.875 40.0353 53.6005L37.8753 56.0197L30.7689 55.3069C29.7579 55.2057 28.7403 55.419 27.855 55.9177C26.9697 56.4164 26.2599 57.1762 25.8225 58.0933L20.3038 56.0737C19.8479 55.9052 19.3579 55.8503 18.876 55.9138C18.3942 55.9772 17.935 56.1571 17.5384 56.4379C17.1417 56.7187 16.8193 57.0919 16.5993 57.5252C16.3792 57.9585 16.2681 58.4389 16.2754 58.9249V60.0049L38.7393 69.7248C40.2807 70.3919 41.9955 70.5471 43.6317 70.1676L59.4752 66.4848H67.0352Z" fill="#F6D0A0"/>
<path id="Vector_4" fillRule="evenodd" clipRule="evenodd" d="M24.9153 60.3284C24.9153 60.3284 26.2869 57.0884 25.8225 58.0928L20.3038 56.0732C19.8479 55.9047 19.3579 55.8498 18.876 55.9133C18.3942 55.9768 17.935 56.1567 17.5384 56.4374C17.1417 56.7182 16.8193 57.0914 16.5993 57.5247C16.3792 57.958 16.2681 58.4385 16.2754 58.9244V60.0044L38.7393 69.7243C40.2807 70.3914 41.9955 70.5466 43.6317 70.1671L59.4752 66.4843H67.0352V60.3608L24.9153 60.3284Z" fill="#F09276"/>
<path id="Vector_5" d="M67.0343 49.562H81.0742V71.1618H67.0343V49.562Z" fill="#768EC6"/>
<path id="Vector_6" d="M67.0343 49.562H81.0742V60.3619H67.0343V49.562Z" fill="#C1CDEA"/>
<path id="Vector_7" d="M16.9314 55.5444C17.4673 55.1734 18.084 54.9358 18.7302 54.8513C19.3763 54.7668 20.0334 54.8378 20.6466 55.0584L25.3662 56.7647C25.9734 55.8899 26.8028 55.1926 27.769 54.7446C28.7352 54.2966 29.8033 54.1142 30.8634 54.216L37.4297 54.864L39.2225 52.8768C41.8358 49.9556 45.4355 48.1019 49.3313 47.6712C52.2072 47.3666 55.11 47.8991 57.6905 49.2048L62.4316 51.5808H65.9524V49.5612C65.9524 49.2748 66.0662 49.0001 66.2687 48.7976C66.4713 48.595 66.746 48.4812 67.0324 48.4812H81.0723C81.3588 48.4812 81.6335 48.595 81.836 48.7976C82.0386 49.0001 82.1523 49.2748 82.1523 49.5612V71.161C82.1523 71.4474 82.0386 71.7221 81.836 71.9247C81.6335 72.1272 81.3588 72.241 81.0723 72.241H67.0324C66.746 72.241 66.4713 72.1272 66.2687 71.9247C66.0662 71.7221 65.9524 71.4474 65.9524 71.161V67.5646H59.602L43.8773 71.3122C43.2123 71.4715 42.5307 71.5512 41.8469 71.5498C40.6274 71.548 39.4214 71.2943 38.3045 70.8046L15.8406 61.0847C15.6475 61.0004 15.4832 60.8614 15.368 60.6848C15.2529 60.5083 15.1919 60.3019 15.1926 60.0911V58.9247C15.1847 58.2622 15.339 57.6077 15.6421 57.0185C15.9451 56.4293 16.3878 55.9232 16.9314 55.5444ZM68.1124 70.081H79.9924V50.6412H68.1124V70.081ZM17.3526 59.2811L39.1685 68.7742C40.4962 69.3475 41.9737 69.4763 43.3805 69.1414L59.224 65.4047C59.3065 65.3934 59.39 65.3934 59.4724 65.4047H65.9524V53.6868H62.1724C61.9998 53.6725 61.8331 53.617 61.6864 53.5248L56.7185 51.0408C54.507 49.9387 52.025 49.4963 49.5689 49.7664C46.2018 50.14 43.0928 51.7484 40.8425 54.2808L38.6825 56.6892C38.5687 56.8171 38.4261 56.9161 38.2665 56.9781C38.1069 57.04 37.9349 57.0632 37.7645 57.0455L30.6582 56.3436C29.8272 56.2616 28.992 56.4509 28.2776 56.8831C27.5631 57.3152 27.0078 57.9671 26.6946 58.7411L26.511 59.2163H33.8442C34.1306 59.2163 34.4053 59.3301 34.6078 59.5326C34.8104 59.7352 34.9242 60.0099 34.9242 60.2963C34.9242 60.5827 34.8104 60.8574 34.6078 61.06C34.4053 61.2625 34.1306 61.3763 33.8442 61.3763H24.9126C24.7396 61.3773 24.5689 61.3368 24.4148 61.2581C24.2607 61.1794 24.1278 61.0648 24.0273 60.9241C23.9267 60.7833 23.8614 60.6204 23.837 60.4491C23.8125 60.2779 23.8295 60.1032 23.8866 59.9399L24.3726 58.7303L19.8906 57.0887C19.6002 56.9853 19.289 56.9541 18.9838 56.9977C18.6786 57.0414 18.3886 57.1586 18.1388 57.3393C17.889 57.52 17.6869 57.7587 17.55 58.0349C17.413 58.3111 17.3453 58.6165 17.3526 58.9247V59.2811ZM35.7126 30.305C39.9137 25.1211 48.4889 24.6675 48.8669 24.6567C49.0971 24.6414 49.3262 24.7003 49.5206 24.8246C49.7149 24.949 49.8643 25.1324 49.9469 25.3479C50.0873 25.7151 53.4677 34.5926 49.5581 40.5649C46.8041 44.7985 40.6157 46.7964 35.7342 47.0448C35.4642 46.9908 25.8306 46.5804 21.9102 40.5649C17.9898 34.5494 21.381 25.7151 21.5214 25.3479C21.604 25.1324 21.7534 24.949 21.9477 24.8246C22.1421 24.7003 22.3712 24.6414 22.6014 24.6567C22.9362 24.6675 31.5114 25.1211 35.7126 30.305ZM47.7329 39.3877C50.4329 35.2514 48.8129 29.0306 48.1649 26.8814C46.0049 27.1298 39.6869 28.1666 36.9545 32.2814C37.8944 34.3449 38.3206 36.6053 38.1965 38.8693C39.802 38.0533 41.1566 36.8181 42.1169 35.2946C42.1954 35.1758 42.2965 35.0738 42.4146 34.9943C42.5326 34.9148 42.6652 34.8594 42.8047 34.8313C42.9442 34.8032 43.0878 34.8029 43.2274 34.8306C43.367 34.8582 43.4998 34.9131 43.6181 34.9922C43.8549 35.1505 44.0195 35.396 44.0761 35.6751C44.1327 35.9542 44.0768 36.2444 43.9205 36.4825C42.4938 38.6847 40.3902 40.3638 37.9265 41.2669C37.7599 42.4297 37.5182 43.5805 37.2029 44.7121C39.9245 44.3341 45.2921 43.1245 47.7329 39.3877ZM23.2602 26.8814C22.5798 29.0414 20.9922 35.2514 23.6922 39.3877C25.8522 42.7789 30.5502 44.0965 33.4122 44.5933C31.3199 41.6981 29.5491 38.5838 28.131 35.3054C28.0221 35.0404 28.023 34.7431 28.1334 34.4788C28.2438 34.2145 28.4546 34.0048 28.7196 33.896C28.9845 33.7871 29.2819 33.788 29.5462 33.8984C29.8105 34.0088 30.0201 34.2196 30.129 34.4846C31.523 37.6953 33.2689 40.7415 35.3346 43.5673C36.0473 40.8241 36.8357 35.8238 34.5462 32.3138C31.8246 28.1774 25.4958 27.1298 23.2602 26.8814Z" fill="#25292C"/>
</g>
</svg>
