<svg width="97" height="96" viewBox="0 0 97 96" fill="none" xmlns="http://www.w3.org/2000/svg">
<g id="ozone-layer">
<g id="36. Ozon">
<path id="Vector" d="M70.2532 51.1472C70.2532 57.088 67.8932 62.7855 63.6924 66.9863C59.4916 71.1871 53.7941 73.5471 47.8532 73.5471C26.7653 73.5471 17.4533 47.0032 33.7093 33.8032C36.9922 31.13 40.9655 29.4418 45.1687 28.9344C49.3719 28.427 53.6328 29.1212 57.4576 30.9364C61.2824 32.7517 64.5144 35.6137 66.7791 39.1908C69.0437 42.7679 70.2483 46.9135 70.2532 51.1472Z" fill="#2B8AFC"/>
<path id="Vector_2" d="M70.26 51.1491C70.26 79.2449 28.6602 75.005 28.6602 47.9491C28.6602 19.7892 70.26 23.9492 70.26 51.1491Z" fill="#2B8AFC"/>
<path id="Vector_3" d="M48.8265 34.588C46.8745 37.516 44.0266 34.588 42.0106 35.564C39.9946 36.54 42.4426 38.764 42.9866 41.404C43.9626 46.284 39.0826 44.332 37.1306 45.308C34.6666 46.524 36.6826 50.8919 34.2186 52.1239C30.2026 54.1559 27.5466 49.692 26.4266 45.308C25.7066 43.26 32.5066 28.844 47.7225 28.748C48.2185 28.748 50.3305 32.316 48.8265 34.588Z" fill="#9DCC6B"/>
<path id="Vector_4" d="M47.2305 31.3868C45.2785 34.3148 42.4305 31.3868 40.4145 32.3628C38.3985 33.3388 40.8465 35.5628 41.3905 38.2028C42.3665 43.0827 37.4865 41.1308 35.5346 42.1068C33.0706 43.3227 35.0866 47.6907 32.6226 48.9227C32.1877 49.1443 31.7016 49.2455 31.2145 49.2158C30.7274 49.1862 30.2571 49.0269 29.8523 48.7543C29.4476 48.4817 29.123 48.1059 28.9124 47.6657C28.7018 47.2255 28.6128 46.7369 28.6546 46.2507C29.1026 40.3948 32.2066 35.0508 33.9026 33.5788C37.826 30.4898 42.6691 28.8004 47.6625 28.7788C47.8561 29.6714 47.7016 30.6043 47.2305 31.3868Z" fill="#B5E08C"/>
<path id="Vector_5" d="M40.0604 55.9476C41.6477 56.4689 43.0194 57.4978 43.9644 58.8755C44.9244 60.8275 47.9164 58.8755 48.7644 60.8275C49.6124 62.7795 48.2044 63.9475 46.2524 64.2995C45.5465 64.4549 44.9139 64.8447 44.4578 65.4054C44.0017 65.9661 43.7488 66.6647 43.7404 67.3875C43.6444 68.2675 42.1404 69.2595 40.9884 65.7875C40.0124 62.8595 36.9884 62.5875 36.1884 60.9875C35.3884 59.3875 36.1724 55.0356 40.0604 55.9476Z" fill="#9DCC6B"/>
<path id="Vector_6" d="M46.2526 64.3006C45.5545 64.4711 44.9313 64.8651 44.4778 65.4225C44.0243 65.98 43.7655 66.6704 43.7406 67.3886C43.6446 68.3006 42.1406 69.1966 40.9886 65.7886C40.0126 62.8606 36.9886 62.5886 36.1886 60.9886C35.8031 60.1868 35.7169 59.2736 35.9458 58.4138C36.1747 57.5541 36.7034 56.8046 37.4366 56.3006C39.6446 55.1166 43.1006 57.2926 43.9806 59.0366C44.8606 60.7806 47.9326 59.0366 48.7806 60.9406C48.8126 61.2286 50.3806 63.4046 46.2526 64.3006ZM64.4126 50.8927C63.7246 52.9566 65.3886 57.7086 63.4366 60.6366C62.3326 62.2366 59.6446 63.3566 58.6366 62.2366C58.2124 61.5617 57.9782 60.7849 57.9585 59.988C57.9388 59.1911 58.1343 58.4037 58.5246 57.7086C59.3246 55.6926 59.4846 52.9086 56.5726 51.8686C53.6606 50.8287 50.7326 52.8446 49.7566 47.9807C49.1486 44.9567 52.1086 43.6767 53.6446 42.1247C56.5726 39.2127 53.6446 38.2367 54.6206 35.3087C55.2126 33.5487 57.5646 32.4927 59.3406 31.9487C61.9524 33.5195 64.2163 35.6068 65.9935 38.0828C67.7708 40.5589 69.024 43.3715 69.6766 46.3487C68.5219 46.6786 67.4529 47.2559 66.5439 48.0406C65.6348 48.8253 64.9076 49.7985 64.4126 50.8927Z" fill="#9DCC6B"/>
<path id="Vector_7" d="M69.7203 46.3493C68.5532 46.6802 67.4728 47.2628 66.5551 48.0562C65.6374 48.8495 64.9046 49.8343 64.4083 50.9413C63.8163 52.7172 64.9683 56.4932 64.0563 59.3732C61.2084 60.3012 60.6484 57.3252 61.7683 54.5732C62.5683 52.5572 62.7283 49.7733 59.8164 48.7333C56.9044 47.6933 53.9764 49.7093 53.0004 44.8453C52.5044 42.3493 53.8644 42.5573 54.7444 40.7973C54.7444 40.6373 55.9604 39.9493 56.8884 38.9893C59.6564 36.2373 57.1924 35.2133 57.7524 32.5893C58.2714 32.3463 58.8059 32.1379 59.3524 31.9653C61.9685 33.5311 64.2374 35.6144 66.0202 38.0878C67.8029 40.5611 69.062 43.3723 69.7203 46.3493Z" fill="#B5E08C"/>
<path id="Vector_8" d="M47.8593 83.1482C41.5303 83.1482 35.3435 81.2714 30.0811 77.7552C24.8187 74.239 20.7172 69.2413 18.2952 63.3941C15.8732 57.5469 15.2395 51.1128 16.4743 44.9055C17.709 38.6981 20.7567 32.9963 25.2319 28.521C29.7072 24.0457 35.4091 20.998 41.6164 19.7633C47.8238 18.5286 54.2579 19.1623 60.1051 21.5843C65.9524 24.0063 70.9501 28.1078 74.4662 33.3701C77.9824 38.6325 79.8592 44.8193 79.8592 51.1483C79.8592 59.6352 76.4878 67.7745 70.4867 73.7756C64.4855 79.7768 56.3462 83.1482 47.8593 83.1482ZM47.8593 22.3484C42.1632 22.3484 36.595 24.0375 31.8589 27.2021C27.1228 30.3667 23.4314 34.8646 21.2516 40.1271C19.0718 45.3896 18.5015 51.1803 19.6128 56.7669C20.724 62.3535 23.4669 67.4852 27.4947 71.5129C31.5224 75.5406 36.6541 78.2836 42.2407 79.3948C47.8274 80.5061 53.6181 79.9357 58.8806 77.7559C64.143 75.5761 68.641 71.8848 71.8056 67.1487C74.9701 62.4126 76.6592 56.8444 76.6592 51.1483C76.6592 43.5101 73.6249 36.1848 68.2239 30.7837C62.8229 25.3827 55.4975 22.3484 47.8593 22.3484Z" fill="#2B8AFC"/>
<path id="Vector_9" d="M46.2589 64.2997C44.9949 64.5557 43.8589 66.3317 42.5949 62.5557C41.4269 59.0517 37.4749 59.6437 37.3789 56.1557C38.215 55.7441 39.1774 55.6696 40.0669 55.9477C43.7149 57.1637 43.5869 58.9877 44.6749 59.6117C45.7629 60.2357 46.7389 59.7237 47.7309 59.9477C49.2029 60.3637 50.5309 63.3717 46.2589 64.2997Z" fill="#B5E08C"/>
<path id="Vector_10" d="M71.2514 45.8697C63.2354 17.1178 23.8595 23.7418 23.8595 51.1497C23.8472 54.5329 24.5504 57.8805 25.9229 60.9729C27.2954 64.0653 29.3062 66.8325 31.8234 69.0931C34.3406 71.3537 37.3074 73.0565 40.529 74.0899C43.7506 75.1233 47.1543 75.4638 50.5167 75.0892C53.8792 74.7146 57.1245 73.6333 60.0397 71.9162C62.9548 70.1991 65.474 67.8851 67.432 65.1259C69.3899 62.3668 70.7424 59.2248 71.4006 55.9062C72.0589 52.5876 72.008 49.1673 71.2514 45.8697ZM67.8274 45.3577C59.1714 49.5177 64.6274 55.9816 62.1154 59.7576C61.5646 60.4873 60.7482 60.9702 59.8434 61.1016C58.8194 59.5016 61.8274 56.4616 60.1954 52.9736C59.0914 50.5737 56.7234 50.0137 54.1154 49.9177C52.3075 49.9177 51.8115 49.8377 51.3795 47.6617C50.7235 44.4617 58.1154 43.8537 56.3074 37.7417C55.8114 36.1417 55.8914 34.9257 59.1714 33.7257C63.3585 36.4393 66.4306 40.5677 67.8274 45.3577ZM47.0435 30.3497C47.5235 31.1657 48.1955 32.6217 47.5075 33.6617C46.3555 35.3737 43.9395 32.7657 41.2995 34.0937C38.6595 35.4217 39.8755 37.9977 40.5475 39.3897C43.4275 45.4057 39.7155 42.1897 36.4355 43.8217C33.1555 45.4537 34.6435 50.1257 33.4595 50.6857C30.6115 52.1256 28.7715 48.1577 27.9555 44.9737C29.2314 40.8598 31.753 37.2434 35.1721 34.6239C38.5912 32.0044 42.7393 30.5109 47.0435 30.3497ZM47.8595 71.9496C45.1131 71.9497 42.3939 71.4059 39.8588 70.3496C37.3237 69.2933 35.0229 67.7455 33.0891 65.7953C31.1553 63.8452 29.6269 61.5314 28.592 58.9875C27.5571 56.4436 27.0363 53.7199 27.0595 50.9737C29.2515 54.1736 32.4195 54.8136 34.9155 53.5496C36.9635 52.5416 37.1395 50.3497 37.2675 48.8457C37.4595 46.5257 37.5075 46.6217 39.4915 46.5577C43.3795 46.4297 45.2995 44.9577 44.5475 41.1017C44.1399 39.675 43.6044 38.2881 42.9475 36.9577C44.2915 36.9577 47.8275 38.9737 50.1635 35.4857C50.6179 34.7566 50.8964 33.9318 50.9769 33.0765C51.0574 32.2212 50.9378 31.3588 50.6275 30.5577C52.3582 30.7789 54.0525 31.2253 55.6674 31.8857C54.4978 32.5143 53.6022 33.5536 53.1531 34.8032C52.7041 36.0528 52.7334 37.4244 53.2355 38.6537C53.6355 39.9657 53.5235 40.2537 51.4755 41.8537C49.8755 43.0857 47.5875 44.9257 48.2755 48.2537C49.2035 52.9096 52.1155 53.0536 54.0354 53.0536C61.6994 53.3256 53.7795 58.8296 57.5074 63.2136C59.3314 65.3736 63.2514 63.8056 64.8034 61.4536C66.3554 59.1016 66.1154 56.3336 65.9554 54.0296C65.7954 51.7257 65.5074 50.3657 68.5154 48.5577C68.8833 51.4865 68.6235 54.4601 67.7534 57.2808C66.8833 60.1015 65.4228 62.7047 63.4689 64.9173C61.515 67.13 59.1126 68.9014 56.4212 70.1139C53.7299 71.3264 50.8113 71.9521 47.8595 71.9496Z" fill="#13277E"/>
<path id="Vector_11" d="M45.3896 58.2208C44.2648 56.4641 42.57 55.1478 40.5896 54.4928C39.6457 54.1886 38.6322 54.1752 37.6806 54.4545C36.7291 54.7337 35.8835 55.2927 35.2538 56.0588C34.624 56.8248 34.2392 57.7626 34.1493 58.7502C34.0594 59.7378 34.2685 60.7296 34.7496 61.5968C35.3415 62.6018 36.2072 63.4176 37.2456 63.9487C40.2856 65.8527 38.8456 65.9327 40.6856 68.6687C40.9843 69.1107 41.4114 69.4504 41.9092 69.6421C42.407 69.8338 42.9516 69.8682 43.4696 69.7407C46.1736 69.0847 44.6696 66.3007 46.6696 65.8847C50.5096 65.0367 51.4696 62.6848 50.3176 60.2368C49.1656 57.7888 45.9176 58.5568 45.3896 58.2208ZM42.6376 65.5487C41.1336 61.5488 38.1416 61.2928 37.5976 60.2208C37.0536 59.1488 37.4056 57.5488 38.8936 57.5488C39.6171 57.645 40.313 57.8893 40.9379 58.2665C41.5628 58.6436 42.1033 59.1455 42.5256 59.7408C43.7896 62.2688 46.8296 61.3408 47.3256 61.6288C48.1736 63.2767 44.3016 61.6768 42.6376 65.5487Z" fill="#13277E"/>
<path id="Vector_12" d="M79.8554 51.147C79.8554 44.818 77.9786 38.6312 74.4624 33.3688C70.9462 28.1065 65.9485 24.005 60.1013 21.583C54.2541 19.161 47.82 18.5273 41.6126 19.762C35.4052 20.9967 29.7034 24.0444 25.2281 28.5197C20.7528 32.9949 17.7051 38.6968 16.4704 44.9041C15.2357 51.1115 15.8694 57.5456 18.2914 63.3928C20.7134 69.24 24.8149 74.2377 30.0773 77.7539C35.3396 81.2701 41.5265 83.1469 47.8554 83.1469C56.3424 83.1469 64.4817 79.7755 70.4828 73.7743C76.484 67.7732 79.8554 59.6339 79.8554 51.147ZM47.8554 79.9469C42.1594 79.9469 36.5912 78.2578 31.8551 75.0932C27.1189 71.9287 23.4276 67.4307 21.2478 62.1682C19.068 56.9057 18.4977 51.115 19.6089 45.5284C20.7202 39.9418 23.4631 34.8101 27.4908 30.7824C31.5186 26.7547 36.6502 24.0117 42.2369 22.9005C47.8235 21.7892 53.6142 22.3596 58.8767 24.5394C64.1392 26.7192 68.6371 30.4105 71.8017 35.1466C74.9663 39.8828 76.6554 45.4509 76.6554 51.147C76.6554 58.7852 73.6211 66.1106 68.2201 71.5116C62.819 76.9126 55.4937 79.9469 47.8554 79.9469ZM28.3835 21.8191C28.7378 21.5836 28.9841 21.217 29.0681 20.7999C29.1521 20.3828 29.067 19.9495 28.8315 19.5951C28.596 19.2408 28.2294 18.9945 27.8123 18.9105C27.3952 18.8265 26.9618 18.9116 26.6075 19.1471C24.7195 20.4271 22.2555 21.7551 23.5835 23.4351C24.9115 25.1151 26.5915 23.0031 28.3835 21.8191ZM13.9675 36.7471C14.3496 36.9284 14.788 36.9511 15.1867 36.8102C15.5855 36.6693 15.9122 36.3762 16.0955 35.9951C17.4395 33.1631 18.0315 32.9871 17.6955 31.9951C17.617 31.6883 17.4491 31.4118 17.2133 31.2004C16.9774 30.9891 16.6842 30.8526 16.3706 30.808C16.0571 30.7635 15.7374 30.813 15.4521 30.9502C15.1667 31.0875 14.9285 31.3063 14.7675 31.5791C13.7435 33.4191 12.0315 35.7711 13.9675 36.7471ZM39.5515 16.8911C39.9835 16.8911 40.7035 16.6031 43.0235 16.2831C43.4478 16.2259 43.832 16.0023 44.0916 15.6618C44.3511 15.3212 44.4647 14.8915 44.4075 14.4671C44.3502 14.0428 44.1267 13.6586 43.7861 13.399C43.4455 13.1395 43.0158 13.0259 42.5915 13.0832C39.3915 13.5472 38.6555 13.7072 38.2075 14.4111C38.0482 14.6529 37.9576 14.9334 37.9452 15.2226C37.9328 15.5118 37.9991 15.799 38.137 16.0535C38.275 16.308 38.4794 16.5204 38.7284 16.6679C38.9775 16.8154 39.262 16.8925 39.5515 16.8911ZM13.8875 41.851C13.9817 41.447 13.9152 41.0222 13.7021 40.6663C13.4891 40.3103 13.1461 40.051 12.7455 39.9431C12.345 39.8352 11.9181 39.887 11.5551 40.0878C11.192 40.2885 10.9211 40.6224 10.7995 41.019C10.7054 41.4231 10.7719 41.8479 10.985 42.2038C11.198 42.5598 11.541 42.8191 11.9416 42.927C12.3421 43.0349 12.769 42.983 13.132 42.7823C13.4951 42.5816 13.7659 42.2477 13.8875 41.851ZM20.0795 28.6031C20.408 28.6064 20.7295 28.5086 21.0004 28.3229C21.2713 28.1371 21.4785 27.8725 21.5939 27.565C21.7092 27.2574 21.7271 26.9218 21.6451 26.6038C21.5631 26.2857 21.3852 26.0006 21.1355 25.7871C20.8151 25.5093 20.3974 25.3702 19.9744 25.4002C19.5514 25.4302 19.1576 25.6269 18.8795 25.9471C18.6766 26.1781 18.5445 26.4627 18.4991 26.7668C18.4537 27.0709 18.4969 27.3817 18.6235 27.6619C18.7501 27.9421 18.9547 28.1799 19.213 28.3468C19.4712 28.5137 19.772 28.6027 20.0795 28.6031ZM34.7675 16.6991C34.5977 16.3087 34.2799 16.0018 33.8838 15.8457C33.4877 15.6897 33.0459 15.6974 32.6555 15.8671C32.2651 16.0369 31.9581 16.3547 31.8021 16.7508C31.6461 17.1469 31.6538 17.5887 31.8235 17.9791C31.9932 18.3695 32.3111 18.6765 32.7072 18.8325C33.1033 18.9886 33.5451 18.9809 33.9355 18.8111C34.3259 18.6414 34.6329 18.3235 34.7889 17.9274C34.9449 17.5314 34.9372 17.0895 34.7675 16.6991ZM51.0554 14.4431C51.0617 14.233 51.0266 14.0237 50.952 13.8272C50.8774 13.6307 50.7649 13.4508 50.6208 13.2977C50.3297 12.9887 49.9278 12.8079 49.5034 12.7952C49.0791 12.7824 48.6671 12.9388 48.358 13.2298C48.049 13.5209 47.8682 13.9228 47.8554 14.3471C47.8427 14.7715 47.9991 15.1835 48.2901 15.4926C48.5812 15.8016 48.9831 15.9824 49.4074 15.9951C49.8318 16.0079 50.2438 15.8515 50.5529 15.5605C50.8619 15.2694 51.0427 14.8675 51.0554 14.4431ZM78.8474 28.4591C78.7234 28.2889 78.5671 28.1448 78.3875 28.035C78.2078 27.9252 78.0083 27.8519 77.8003 27.8192C77.5923 27.7865 77.3799 27.7951 77.1752 27.8445C76.9705 27.8939 76.7776 27.9831 76.6074 28.1071C76.4372 28.2311 76.2931 28.3873 76.1833 28.567C76.0735 28.7467 76.0001 28.9462 75.9675 29.1542C75.9348 29.3622 75.9434 29.5746 75.9928 29.7793C76.0422 29.9839 76.1314 30.1769 76.2554 30.3471C76.5057 30.6908 76.8824 30.921 77.3025 30.987C77.7226 31.053 78.1517 30.9494 78.4954 30.6991C78.8391 30.4487 79.0693 30.0721 79.1353 29.652C79.2013 29.2319 79.0977 28.8028 78.8474 28.4591ZM80.7674 38.651C80.918 39.0478 81.2201 39.3685 81.6072 39.5425C81.9942 39.7165 82.4346 39.7297 82.8314 39.579C83.2281 39.4284 83.5488 39.1263 83.7228 38.7392C83.8969 38.3522 83.91 37.9118 83.7594 37.5151C83.3434 36.4111 82.8794 35.3551 82.3994 34.3151C82.3101 34.1229 82.1835 33.9504 82.0271 33.8076C81.8706 33.6647 81.6873 33.5544 81.4879 33.4829C81.2884 33.4115 81.0768 33.3804 80.8652 33.3914C80.6536 33.4024 80.4463 33.4553 80.2554 33.5471C78.4154 34.5231 79.8554 36.2031 80.7674 38.651ZM82.4634 44.747C82.5397 45.1714 82.7816 45.548 83.1356 45.794C83.4897 46.0401 83.927 46.1354 84.3514 46.059C84.7757 45.9826 85.1523 45.7408 85.3984 45.3867C85.6444 45.0327 85.7397 44.5954 85.6634 44.171C85.6255 43.9609 85.5467 43.7603 85.4313 43.5807C85.316 43.401 85.1664 43.2458 84.9911 43.124C84.637 42.878 84.1997 42.7826 83.7754 42.859C83.351 42.9354 82.9744 43.1772 82.7283 43.5313C82.4823 43.8854 82.387 44.3227 82.4634 44.747Z" fill="#13277E"/>
</g>
</g>
</svg>
