<svg width="97" height="96" viewBox="0 0 97 96" fill="none" xmlns="http://www.w3.org/2000/svg">
<g id="brush">
<g id="Group">
<path id="Vector" d="M48.7484 14.3999C30.1956 14.3999 15.1484 29.4485 15.1484 47.9999C15.1484 66.5541 30.1956 81.5999 48.7484 81.5999C67.3012 81.5999 82.3484 66.5541 82.3484 47.9999C82.3484 29.4485 67.3012 14.3999 48.7484 14.3999ZM48.7484 16.4999C66.142 16.4999 80.2484 30.6077 80.2484 47.9999C80.2484 65.3935 66.142 79.4999 48.7484 79.4999C31.3548 79.4999 17.2484 65.3935 17.2484 47.9999C17.2484 30.6077 31.3548 16.4999 48.7484 16.4999Z" fill="#2B8AFC"/>
<path id="Vector_2" d="M48.7516 20.3491C33.4846 20.3491 21.1016 32.7335 21.1016 47.9991C21.1016 63.2675 33.4846 75.6491 48.7516 75.6491C64.0186 75.6491 76.4016 63.2675 76.4016 47.9991C76.4016 32.7335 64.0186 20.3491 48.7516 20.3491Z" fill="#2B8AFC"/>
<path id="Vector_3" d="M48.7516 20.3491C33.4846 20.3491 21.1016 32.7335 21.1016 47.9991C21.0977 51.634 21.8128 55.2338 23.2059 58.5911C24.599 61.9485 26.6426 64.9971 29.2188 67.5614L68.3138 28.4677C65.7495 25.8915 62.701 23.848 59.3436 22.4548C55.9863 21.0617 52.3865 20.3452 48.7516 20.3491Z" fill="#13277E"/>
<path id="Vector_4" d="M61.6258 29.2383C60.872 29.2364 60.1253 29.3835 59.4286 29.6711C58.7319 29.9587 58.0988 30.3811 57.5658 30.9141C56.1364 32.3477 55.7052 34.4141 56.1882 36.3531L48.7682 43.7731C48.4582 44.0872 48.089 44.3366 47.6819 44.5068C47.2747 44.677 46.8379 44.7646 46.3966 44.7646C45.9553 44.7646 45.5185 44.677 45.1113 44.5068C44.7042 44.3366 44.335 44.0872 44.025 43.7731L40.812 40.5587C40.532 40.2787 40.0784 40.2787 39.7984 40.5587L25.5786 54.7743C25.5116 54.841 25.4584 54.9203 25.4221 55.0077C25.3859 55.095 25.3672 55.1886 25.3672 55.2832C25.3672 55.3778 25.3859 55.4714 25.4221 55.5587C25.4584 55.6461 25.5116 55.7254 25.5786 55.7921L40.812 71.0241C41.092 71.3041 41.547 71.3041 41.827 71.0241L56.0426 56.8071C56.3226 56.5271 56.3226 56.0735 56.0426 55.7935L52.8268 52.5777C52.5127 52.2675 52.2633 51.898 52.0932 51.4907C51.9231 51.0833 51.8357 50.6463 51.8359 50.2048C51.8362 49.7634 51.9242 49.3264 52.0948 48.9192C52.2653 48.5121 52.5151 48.1429 52.8296 47.8331L60.251 40.4145C62.19 40.8975 64.2564 40.4705 65.69 39.0397H65.6928C66.7666 37.9613 67.3694 36.5015 67.3694 34.9797C67.3694 33.4579 66.7666 31.9981 65.6928 30.9197C65.6247 30.8521 65.5438 30.7987 65.4548 30.7629H65.4464C64.3586 29.7829 63.0034 29.2481 61.6258 29.2481V29.2383ZM61.6258 30.6579V30.6607C62.7276 30.6607 63.8308 31.0807 64.675 31.9263H64.6778C65.3674 32.618 65.8014 33.5236 65.9083 34.4945C66.0153 35.4653 65.7889 36.4437 65.2664 37.2689C64.7439 38.0942 63.9563 38.7172 63.0329 39.0356C62.1096 39.3541 61.1054 39.3491 60.1852 39.0215C60.0571 38.976 59.9187 38.9677 59.7862 38.9977C59.6536 39.0277 59.5322 39.0947 59.4362 39.1909L51.816 46.8125C50.9188 47.711 50.4147 48.9288 50.4142 50.1985C50.4136 51.4683 50.9168 52.6864 51.8132 53.5857L54.5194 56.2919L52.4852 58.3261L38.2696 44.1077L40.3038 42.0777L43.0114 44.7839C43.9099 45.681 45.1277 46.1848 46.3973 46.1848C47.667 46.1848 48.8847 45.681 49.7832 44.7839L57.4048 37.1595C57.5008 37.0633 57.5675 36.9419 57.5973 36.8093C57.627 36.6767 57.6185 36.5385 57.5728 36.4105C57.2993 35.6436 57.2491 34.8148 57.428 34.0205C57.6069 33.2262 58.0077 32.499 58.5836 31.9235C58.9824 31.5226 59.4564 31.2045 59.9785 30.9873C60.5005 30.7701 61.0604 30.6582 61.6258 30.6579ZM61.6258 32.1097C60.8894 32.1097 60.1558 32.3883 59.5972 32.9455C59.0613 33.4852 58.7606 34.2149 58.7606 34.9755C58.7606 35.7361 59.0613 36.4658 59.5972 37.0055C60.1369 37.5414 60.8666 37.8421 61.6272 37.8421C62.3878 37.8421 63.1175 37.5414 63.6572 37.0055C64.1931 36.4658 64.4938 35.7361 64.4938 34.9755C64.4938 34.2149 64.1931 33.4852 63.6572 32.9455C63.3904 32.6796 63.0737 32.4689 62.7254 32.3255C62.3771 32.1821 62.0025 32.1088 61.6258 32.1097ZM61.6258 33.5335C61.9926 33.5335 62.3608 33.6777 62.6436 33.9605C62.7782 34.0932 62.885 34.2514 62.9579 34.4257C63.0309 34.6001 63.0684 34.7872 63.0684 34.9762C63.0684 35.1652 63.0309 35.3523 62.9579 35.5267C62.885 35.701 62.7782 35.8592 62.6436 35.9919C62.5109 36.1265 62.3527 36.2333 62.1784 36.3062C62.004 36.3792 61.8169 36.4167 61.6279 36.4167C61.4389 36.4167 61.2518 36.3792 61.0774 36.3062C60.9031 36.2333 60.7449 36.1265 60.6122 35.9919C60.4776 35.8592 60.3708 35.701 60.2979 35.5267C60.2249 35.3523 60.1874 35.1652 60.1874 34.9762C60.1874 34.7872 60.2249 34.6001 60.2979 34.4257C60.3708 34.2514 60.4776 34.0932 60.6122 33.9605C60.895 33.6777 61.2604 33.5335 61.6258 33.5335ZM37.2546 45.1283L51.4716 59.3439L41.3216 69.4995L40.3038 68.4817L47.5194 61.2717C47.586 61.205 47.6389 61.1257 47.6749 61.0386C47.711 60.9514 47.7295 60.858 47.7294 60.7637C47.7293 60.6694 47.7107 60.576 47.6746 60.4889C47.6384 60.4018 47.5854 60.3226 47.5187 60.256C47.452 60.1894 47.3728 60.1365 47.2856 60.1005C47.1984 60.0644 47.105 60.0459 47.0107 60.046C46.9164 60.0461 46.823 60.0647 46.7359 60.1009C46.6488 60.137 46.5696 60.19 46.503 60.2567L39.2888 67.4667L37.2588 65.4367L39.5926 63.1057C39.6632 63.0399 39.7199 62.9605 39.7592 62.8723C39.7984 62.7841 39.8195 62.6889 39.8212 62.5924C39.8228 62.4959 39.805 62.4 39.7687 62.3105C39.7325 62.2211 39.6786 62.1398 39.6102 62.0717C39.5418 62.0035 39.4604 61.9498 39.3709 61.9138C39.2813 61.8778 39.1854 61.8602 39.0889 61.8621C38.9923 61.864 38.8972 61.8854 38.8091 61.9249C38.721 61.9644 38.6418 62.0213 38.5762 62.0921L36.2438 64.4217L32.1768 60.3561C32.2068 60.3327 32.2349 60.3069 32.2608 60.2791L39.8306 52.7135C39.9652 52.5787 40.0407 52.396 40.0406 52.2055C40.0405 52.015 39.9647 51.8324 39.8299 51.6978C39.6951 51.5632 39.5124 51.4877 39.3219 51.4878C39.1314 51.4879 38.9488 51.5637 38.8142 51.6985L31.2472 59.2641C31.2197 59.2914 31.1944 59.3209 31.1716 59.3523L30.1398 58.3177C30.1834 58.2895 30.2237 58.2566 30.2602 58.2197L34.7668 53.7131C34.8392 53.6478 34.8975 53.5685 34.9383 53.4799C34.979 53.3914 35.0013 53.2955 35.0038 53.198C35.0063 53.1006 34.9889 53.0036 34.9527 52.9131C34.9165 52.8226 34.8623 52.7404 34.7933 52.6715C34.7243 52.6027 34.6421 52.5486 34.5515 52.5125C34.4609 52.4764 34.364 52.4592 34.2666 52.4618C34.1691 52.4644 34.0732 52.4868 33.9847 52.5277C33.8962 52.5686 33.817 52.627 33.7518 52.6995L29.2466 57.2061C29.2098 57.2421 29.1769 57.282 29.1486 57.3251L27.1018 55.2811L37.2546 45.1283Z" fill="#ECF0FF"/>
</g>
</g>
</svg>
