<svg width="97" height="96" viewBox="0 0 97 96" fill="none" xmlns="http://www.w3.org/2000/svg">
<g id="Face with medical mask">
<path id="Shape" d="M48.25 88C64.6845 88 76.0528 81.2007 82.3585 70.813C81.9253 69.6477 81.4328 67.6915 81.4328 67.6915C81.4328 67.6915 84.0457 65.9131 85.1405 65.2075C87.2136 59.9954 88.25 54.1603 88.25 48C88.25 46.3371 88.1745 44.698 88.0235 43.0884C87.2745 42.411 85.6298 40.889 85.6298 40.889C85.6298 40.889 86.6608 38.3114 87.1066 37.2181C83.3609 20.364 70.4117 8 48.25 8C26.0798 8 13.1293 20.3734 9.38914 37.2375C9.7498 38.2439 10.1476 40.4139 10.1476 40.4139C10.1476 40.4139 9.17113 42.168 8.48014 43.0503C8.32671 44.6721 8.25 46.324 8.25 48C8.25 54.1663 9.2884 60.0066 11.3655 65.2226C12.5366 65.8857 14.9905 67.7398 14.9905 67.7398C14.9905 67.7398 14.4725 69.5394 14.157 70.8386C20.4658 81.2118 31.8289 88 48.25 88Z" fill="#FFB02E"/>
<g id="Shape_2">
<path d="M32.3071 48.6444C38.9444 48.6444 44.3251 43.2638 44.3251 36.6264C44.3251 29.989 38.9444 24.6084 32.3071 24.6084C25.6697 24.6084 20.2891 29.989 20.2891 36.6264C20.2891 43.2638 25.6697 48.6444 32.3071 48.6444Z" fill="white"/>
<path d="M64.1644 48.8635C70.8623 48.8635 76.292 43.4338 76.292 36.736C76.292 30.0381 70.8623 24.6084 64.1644 24.6084C57.4665 24.6084 52.0369 30.0381 52.0369 36.736C52.0369 43.4338 57.4665 48.8635 64.1644 48.8635Z" fill="white"/>
</g>
<g id="Shape_3">
<path d="M33.9666 45.1457C38.7009 45.1457 42.5388 41.3078 42.5388 36.5736C42.5388 31.8393 38.7009 28.0015 33.9666 28.0015C29.2324 28.0015 25.3945 31.8393 25.3945 36.5736C25.3945 41.3078 29.2324 45.1457 33.9666 45.1457Z" fill="#402A32"/>
<path d="M62.5403 45.1457C67.2746 45.1457 71.1125 41.3078 71.1125 36.5736C71.1125 31.8393 67.2746 28.0015 62.5403 28.0015C57.8061 28.0015 53.9682 31.8393 53.9682 36.5736C53.9682 41.3078 57.8061 45.1457 62.5403 45.1457Z" fill="#402A32"/>
</g>
<path id="Shape_4" d="M25.3991 52.5419L8.47656 43.1405C8.66739 41.0836 8.98144 39.0749 9.41873 37.1265L28.0151 47.4578C28.4466 47.1938 28.9214 46.9875 29.4316 46.8511C34.18 45.5816 42.1884 43.7167 48.2581 43.7167C54.3278 43.7167 62.3362 45.5816 67.0846 46.8511C67.5948 46.9875 68.0695 47.1937 68.501 47.4578L87.0918 37.1296C87.5289 39.0781 87.8429 41.0869 88.0336 43.1438L71.1171 52.5419L69.5156 54.52L71.1171 56.4981V65.1471H85.1692C84.3767 67.1491 83.4315 69.0597 82.3335 70.8618H71.0527C70.7635 72.7678 69.5186 74.4103 67.6756 75.1025C63.1728 76.7938 55.0554 79.4338 48.2581 79.4338C41.4608 79.4338 33.3434 76.7938 28.8406 75.1025C26.9976 74.4103 25.7527 72.7678 25.4635 70.8618H14.1763C13.0783 69.0597 12.1331 67.1491 11.3406 65.1471H25.3991V56.4099L26.9176 54.4759L25.3991 52.5419Z" fill="#F4F4F4"/>
<g id="Shape_5">
<path d="M71.1125 50.8608H25.3945V56.5756H71.1125V50.8608Z" fill="#AEDDFF"/>
<path d="M71.1125 65.1477H25.3945V70.8624H71.1125V65.1477Z" fill="#AEDDFF"/>
</g>
</g>
</svg>
