<svg width="97" height="96" viewBox="0 0 97 96" fill="none" xmlns="http://www.w3.org/2000/svg">
<g id="Window">
<path id="Rectangle 312" d="M16.75 25.5C16.75 20.5294 20.7794 16.5 25.75 16.5H70.75C75.7206 16.5 79.75 20.5294 79.75 25.5V70.5C79.75 75.4706 75.7206 79.5 70.75 79.5H25.75C20.7794 79.5 16.75 75.4706 16.75 70.5V25.5Z" fill="#D3D3D3"/>
<g id="Intersect">
<path d="M45.6664 50.5827L30.2459 57.0032L24.4844 71.7647C25.0951 72.3754 25.9389 72.7532 26.8709 72.7532H44.8709C45.4922 72.7532 45.9959 72.2495 45.9959 71.6282V51.3782C45.9959 51.0675 45.8699 50.7863 45.6664 50.5827Z" fill="#83CBFF"/>
<path d="M51.6209 72.7532H69.6209C71.4848 72.7532 72.9959 71.2421 72.9959 69.3782V51.3782C72.9959 50.7569 72.4922 50.2532 71.8709 50.2532H51.6209C50.9995 50.2532 50.4959 50.7569 50.4959 51.3782V71.6282C50.4959 72.2495 50.9995 72.7532 51.6209 72.7532Z" fill="#83CBFF"/>
<path d="M72.9959 44.6282V26.6282C72.9959 25.6962 72.6181 24.8525 72.0073 24.2417L54.9959 30.0032L50.8254 45.4237C51.0289 45.6273 51.3102 45.7532 51.6209 45.7532H71.8709C72.4922 45.7532 72.9959 45.2495 72.9959 44.6282Z" fill="#83CBFF"/>
</g>
<g id="Subtract">
<path d="M23.5 26.625C23.5 24.761 25.011 23.25 26.875 23.25H44.875C45.4963 23.25 46 23.7537 46 24.375V44.625C46 45.2463 45.4963 45.75 44.875 45.75H24.625C24.0037 45.75 23.5 45.2463 23.5 44.625V26.625Z" fill="#00A6ED"/>
<path d="M23.5 51.375C23.5 50.7537 24.0037 50.25 24.625 50.25H44.875C45.1857 50.25 45.4669 50.3759 45.6705 50.5795L24.4885 71.7615C23.8778 71.1507 23.5 70.307 23.5 69.375V51.375Z" fill="#00A6ED"/>
<path d="M72.0115 24.2385C71.4007 23.6278 70.557 23.25 69.625 23.25H51.625C51.0037 23.25 50.5 23.7537 50.5 24.375V44.625C50.5 44.9357 50.6259 45.2169 50.8295 45.4205L72.0115 24.2385Z" fill="#00A6ED"/>
</g>
</g>
</svg>
