<svg width="49" height="48" viewBox="0 0 49 48" fill="none" xmlns="http://www.w3.org/2000/svg">
<path d="M15.7422 40.1094H39.8247" stroke="#13277E" stroke-width="2.25" stroke-linecap="round" stroke-linejoin="round"/>
<path d="M16.6531 35.4809H38.8081C40.0933 35.4807 41.34 35.0421 42.3423 34.2375C43.3446 33.433 44.0424 32.3107 44.3206 31.0559L46.5706 20.9609H8.89062L11.1406 31.0559C11.4188 32.3107 12.1167 33.433 13.119 34.2375C14.1212 35.0421 15.3679 35.4807 16.6531 35.4809Z" fill="#2B8AFC" stroke="#13277E" stroke-width="2.25" stroke-linecap="round" stroke-linejoin="round"/>
<path d="M29.9845 4.93495C29.982 4.71752 30.0268 4.50216 30.1159 4.30378C30.2049 4.1054 30.336 3.92874 30.5001 3.78606C30.6642 3.64338 30.8573 3.53808 31.0662 3.47745C31.275 3.41682 31.4945 3.40232 31.7095 3.43495C35.8701 4.11927 39.6511 6.26278 42.375 9.48142C45.0988 12.7 46.5876 16.7834 46.5745 21H29.9845V4.93495Z" fill="#2B8AFC" stroke="#13277E" stroke-width="2.25" stroke-linecap="round" stroke-linejoin="round"/>
<path d="M2.43359 10.5588H6.01859C6.193 10.5549 6.36331 10.6119 6.5002 10.7201C6.63709 10.8282 6.732 10.9807 6.76859 11.1513L8.89109 20.9988" stroke="#13277E" stroke-width="2.25" stroke-linecap="round" stroke-linejoin="round"/>
<path d="M15.6583 44.5744C18.1684 44.5744 20.2033 42.5395 20.2033 40.0294C20.2033 37.5192 18.1684 35.4844 15.6583 35.4844C13.1481 35.4844 11.1133 37.5192 11.1133 40.0294C11.1133 42.5395 13.1481 44.5744 15.6583 44.5744Z" fill="#FFFAF0" stroke="#13277E" stroke-width="2.25" stroke-linecap="round" stroke-linejoin="round"/>
<path d="M39.6583 44.5744C42.1684 44.5744 44.2033 42.5395 44.2033 40.0294C44.2033 37.5192 42.1684 35.4844 39.6583 35.4844C37.1481 35.4844 35.1133 37.5192 35.1133 40.0294C35.1133 42.5395 37.1481 44.5744 39.6583 44.5744Z" fill="#FFFAF0" stroke="#13277E" stroke-width="2.25" stroke-linecap="round" stroke-linejoin="round"/>
</svg>
