<svg width="49" height="48" viewBox="0 0 49 48" fill="none" xmlns="http://www.w3.org/2000/svg">
<path d="M39.5 41.25C39.3011 41.25 39.1103 41.171 38.9697 41.0303C38.829 40.8897 38.75 40.6989 38.75 40.5V34.5C38.75 34.3011 38.829 34.1103 38.9697 33.9697C39.1103 33.829 39.3011 33.75 39.5 33.75C39.6989 33.75 39.8897 33.829 40.0303 33.9697C40.171 34.1103 40.25 34.3011 40.25 34.5V40.5C40.25 40.6989 40.171 40.8897 40.0303 41.0303C39.8897 41.171 39.6989 41.25 39.5 41.25ZM39.5 32.25C39.3011 32.25 39.1103 32.171 38.9697 32.0303C38.829 31.8897 38.75 31.6989 38.75 31.5V25.5C38.75 25.3011 38.829 25.1103 38.9697 24.9697C39.1103 24.829 39.3011 24.75 39.5 24.75C39.6989 24.75 39.8897 24.829 40.0303 24.9697C40.171 25.1103 40.25 25.3011 40.25 25.5V31.5C40.25 31.6989 40.171 31.8897 40.0303 32.0303C39.8897 32.171 39.6989 32.25 39.5 32.25ZM33.5 41.25C33.3011 41.25 33.1103 41.171 32.9697 41.0303C32.829 40.8897 32.75 40.6989 32.75 40.5V34.5C32.75 34.3011 32.829 34.1103 32.9697 33.9697C33.1103 33.829 33.3011 33.75 33.5 33.75C33.6989 33.75 33.8897 33.829 34.0303 33.9697C34.171 34.1103 34.25 34.3011 34.25 34.5V40.5C34.25 40.6989 34.171 40.8897 34.0303 41.0303C33.8897 41.171 33.6989 41.25 33.5 41.25ZM33.5 32.25C33.3011 32.25 33.1103 32.171 32.9697 32.0303C32.829 31.8897 32.75 31.6989 32.75 31.5V25.5C32.75 25.3011 32.829 25.1103 32.9697 24.9697C33.1103 24.829 33.3011 24.75 33.5 24.75C33.6989 24.75 33.8897 24.829 34.0303 24.9697C34.171 25.1103 34.25 25.3011 34.25 25.5V31.5C34.25 31.6989 34.171 31.8897 34.0303 32.0303C33.8897 32.171 33.6989 32.25 33.5 32.25ZM27.5 41.25C27.3011 41.25 27.1103 41.171 26.9697 41.0303C26.829 40.8897 26.75 40.6989 26.75 40.5V34.5C26.75 34.3011 26.829 34.1103 26.9697 33.9697C27.1103 33.829 27.3011 33.75 27.5 33.75C27.6989 33.75 27.8897 33.829 28.0303 33.9697C28.171 34.1103 28.25 34.3011 28.25 34.5V40.5C28.25 40.6989 28.171 40.8897 28.0303 41.0303C27.8897 41.171 27.6989 41.25 27.5 41.25ZM27.5 32.25C27.3011 32.25 27.1103 32.171 26.9697 32.0303C26.829 31.8897 26.75 31.6989 26.75 31.5V25.5C26.75 25.3011 26.829 25.1103 26.9697 24.9697C27.1103 24.829 27.3011 24.75 27.5 24.75C27.6989 24.75 27.8897 24.829 28.0303 24.9697C28.171 25.1103 28.25 25.3011 28.25 25.5V31.5C28.25 31.6989 28.171 31.8897 28.0303 32.0303C27.8897 32.171 27.6989 32.25 27.5 32.25ZM21.5 41.25C21.3011 41.25 21.1103 41.171 20.9697 41.0303C20.829 40.8897 20.75 40.6989 20.75 40.5V34.5C20.75 34.3011 20.829 34.1103 20.9697 33.9697C21.1103 33.829 21.3011 33.75 21.5 33.75C21.6989 33.75 21.8897 33.829 22.0303 33.9697C22.171 34.1103 22.25 34.3011 22.25 34.5V40.5C22.25 40.6989 22.171 40.8897 22.0303 41.0303C21.8897 41.171 21.6989 41.25 21.5 41.25ZM21.5 32.25C21.3011 32.25 21.1103 32.171 20.9697 32.0303C20.829 31.8897 20.75 31.6989 20.75 31.5V25.5C20.75 25.3011 20.829 25.1103 20.9697 24.9697C21.1103 24.829 21.3011 24.75 21.5 24.75C21.6989 24.75 21.8897 24.829 22.0303 24.9697C22.171 25.1103 22.25 25.3011 22.25 25.5V31.5C22.25 31.6989 22.171 31.8897 22.0303 32.0303C21.8897 32.171 21.6989 32.25 21.5 32.25ZM15.5 41.25C15.3011 41.25 15.1103 41.171 14.9697 41.0303C14.829 40.8897 14.75 40.6989 14.75 40.5V34.5C14.75 34.3011 14.829 34.1103 14.9697 33.9697C15.1103 33.829 15.3011 33.75 15.5 33.75C15.6989 33.75 15.8897 33.829 16.0303 33.9697C16.171 34.1103 16.25 34.3011 16.25 34.5V40.5C16.25 40.6989 16.171 40.8897 16.0303 41.0303C15.8897 41.171 15.6989 41.25 15.5 41.25ZM15.5 32.25C15.3011 32.25 15.1103 32.171 14.9697 32.0303C14.829 31.8897 14.75 31.6989 14.75 31.5V25.5C14.75 25.3011 14.829 25.1103 14.9697 24.9697C15.1103 24.829 15.3011 24.75 15.5 24.75C15.6989 24.75 15.8897 24.829 16.0303 24.9697C16.171 25.1103 16.25 25.3011 16.25 25.5V31.5C16.25 31.6989 16.171 31.8897 16.0303 32.0303C15.8897 32.171 15.6989 32.25 15.5 32.25ZM9.5 41.25C9.30109 41.25 9.11032 41.171 8.96967 41.0303C8.82902 40.8897 8.75 40.6989 8.75 40.5V34.5C8.75 34.3011 8.82902 34.1103 8.96967 33.9697C9.11032 33.829 9.30109 33.75 9.5 33.75C9.69891 33.75 9.88968 33.829 10.0303 33.9697C10.171 34.1103 10.25 34.3011 10.25 34.5V40.5C10.25 40.6989 10.171 40.8897 10.0303 41.0303C9.88968 41.171 9.69891 41.25 9.5 41.25ZM9.5 32.25C9.30109 32.25 9.11032 32.171 8.96967 32.0303C8.82902 31.8897 8.75 31.6989 8.75 31.5V25.5C8.75 25.3011 8.82902 25.1103 8.96967 24.9697C9.11032 24.829 9.30109 24.75 9.5 24.75C9.69891 24.75 9.88968 24.829 10.0303 24.9697C10.171 25.1103 10.25 25.3011 10.25 25.5V31.5C10.25 31.6989 10.171 31.8897 10.0303 32.0303C9.88968 32.171 9.69891 32.25 9.5 32.25Z" fill="#B4CDE1"/>
<path d="M32 3.75V4.5C32 5.29565 31.6839 6.05871 31.1213 6.62132C30.5587 7.18393 29.7956 7.5 29 7.5H24.5V6.75C24.5 5.95435 24.8161 5.19129 25.3787 4.62868C25.9413 4.06607 26.7044 3.75 27.5 3.75H32ZM24.5 6.75V7.5H20C19.2044 7.5 18.4413 7.18393 17.8787 6.62132C17.3161 6.05871 17 5.29565 17 4.5V3.75H21.5C22.2956 3.75 23.0587 4.06607 23.6213 4.62868C24.1839 5.19129 24.5 5.95435 24.5 6.75ZM33.5 10.5C33.5 11.6935 33.0259 12.8381 32.182 13.682C31.3381 14.5259 30.1935 15 29 15H24.5C24.5 13.8065 24.9741 12.6619 25.818 11.818C26.6619 10.9741 27.8065 10.5 29 10.5H33.5ZM24.5 15H20C18.8065 15 17.6619 14.5259 16.818 13.682C15.9741 12.8381 15.5 11.6935 15.5 10.5H20C21.1935 10.5 22.3381 10.9741 23.182 11.818C24.0259 12.6619 24.5 13.8065 24.5 15Z" fill="#0074FF"/>
<path d="M45.5 40.5V43.5C45.5 43.8978 45.342 44.2794 45.0607 44.5607C44.7794 44.842 44.3978 45 44 45H5C4.60218 45 4.22064 44.842 3.93934 44.5607C3.65804 44.2794 3.5 43.8978 3.5 43.5V40.5H45.5Z" fill="#647499"/>
<path d="M45.4992 40.5V43.5H9.49922C8.56952 43.4989 7.66297 43.2099 6.90418 42.6728C6.1454 42.1356 5.57162 41.3765 5.26172 40.5H45.4992Z" fill="#96A1C3"/>
<path d="M24.5 19.5C24.3011 19.5 24.1103 19.421 23.9697 19.2803C23.829 19.1397 23.75 18.9489 23.75 18.75V7.5C23.75 7.30109 23.829 7.11032 23.9697 6.96967C24.1103 6.82902 24.3011 6.75 24.5 6.75C24.6989 6.75 24.8897 6.82902 25.0303 6.96967C25.171 7.11032 25.25 7.30109 25.25 7.5V18.75C25.25 18.9489 25.171 19.1397 25.0303 19.2803C24.8897 19.421 24.6989 19.5 24.5 19.5Z" fill="#B4CDE1"/>
<path d="M9.5 35.25C9.05499 35.25 8.61998 35.118 8.24997 34.8708C7.87996 34.6236 7.59157 34.2722 7.42127 33.861C7.25097 33.4499 7.20642 32.9975 7.29323 32.561C7.38005 32.1246 7.59434 31.7237 7.90901 31.409C8.22368 31.0943 8.62459 30.8801 9.06105 30.7932C9.49751 30.7064 9.94991 30.751 10.361 30.9213C10.7722 31.0916 11.1236 31.38 11.3708 31.75C11.618 32.12 11.75 32.555 11.75 33C11.75 33.5967 11.5129 34.169 11.091 34.591C10.669 35.0129 10.0967 35.25 9.5 35.25ZM9.5 32.25C9.35167 32.25 9.20666 32.294 9.08332 32.3764C8.95999 32.4588 8.86386 32.5759 8.80709 32.713C8.75033 32.85 8.73547 33.0008 8.76441 33.1463C8.79335 33.2918 8.86478 33.4254 8.96967 33.5303C9.07456 33.6352 9.2082 33.7067 9.35368 33.7356C9.49917 33.7645 9.64997 33.7497 9.78701 33.6929C9.92406 33.6361 10.0412 33.54 10.1236 33.4167C10.206 33.2933 10.25 33.1483 10.25 33C10.25 32.8011 10.171 32.6103 10.0303 32.4697C9.88968 32.329 9.69891 32.25 9.5 32.25Z" fill="url(#paint0_linear_8440_27336)"/>
<path d="M15.5 35.25C15.055 35.25 14.62 35.118 14.25 34.8708C13.88 34.6236 13.5916 34.2722 13.4213 33.861C13.251 33.4499 13.2064 32.9975 13.2932 32.561C13.3801 32.1246 13.5943 31.7237 13.909 31.409C14.2237 31.0943 14.6246 30.8801 15.061 30.7932C15.4975 30.7064 15.9499 30.751 16.361 30.9213C16.7722 31.0916 17.1236 31.38 17.3708 31.75C17.618 32.12 17.75 32.555 17.75 33C17.75 33.5967 17.5129 34.169 17.091 34.591C16.669 35.0129 16.0967 35.25 15.5 35.25ZM15.5 32.25C15.3517 32.25 15.2067 32.294 15.0833 32.3764C14.96 32.4588 14.8639 32.5759 14.8071 32.713C14.7503 32.85 14.7355 33.0008 14.7644 33.1463C14.7934 33.2918 14.8648 33.4254 14.9697 33.5303C15.0746 33.6352 15.2082 33.7067 15.3537 33.7356C15.4992 33.7645 15.65 33.7497 15.787 33.6929C15.9241 33.6361 16.0412 33.54 16.1236 33.4167C16.206 33.2933 16.25 33.1483 16.25 33C16.25 32.8011 16.171 32.6103 16.0303 32.4697C15.8897 32.329 15.6989 32.25 15.5 32.25Z" fill="url(#paint1_linear_8440_27336)"/>
<path d="M21.5 35.25C21.055 35.25 20.62 35.118 20.25 34.8708C19.88 34.6236 19.5916 34.2722 19.4213 33.861C19.251 33.4499 19.2064 32.9975 19.2932 32.561C19.3801 32.1246 19.5943 31.7237 19.909 31.409C20.2237 31.0943 20.6246 30.8801 21.061 30.7932C21.4975 30.7064 21.9499 30.751 22.361 30.9213C22.7722 31.0916 23.1236 31.38 23.3708 31.75C23.618 32.12 23.75 32.555 23.75 33C23.75 33.5967 23.5129 34.169 23.091 34.591C22.669 35.0129 22.0967 35.25 21.5 35.25ZM21.5 32.25C21.3517 32.25 21.2067 32.294 21.0833 32.3764C20.96 32.4588 20.8639 32.5759 20.8071 32.713C20.7503 32.85 20.7355 33.0008 20.7644 33.1463C20.7934 33.2918 20.8648 33.4254 20.9697 33.5303C21.0746 33.6352 21.2082 33.7067 21.3537 33.7356C21.4992 33.7645 21.65 33.7497 21.787 33.6929C21.9241 33.6361 22.0412 33.54 22.1236 33.4167C22.206 33.2933 22.25 33.1483 22.25 33C22.25 32.8011 22.171 32.6103 22.0303 32.4697C21.8897 32.329 21.6989 32.25 21.5 32.25Z" fill="url(#paint2_linear_8440_27336)"/>
<path d="M27.5 35.25C27.055 35.25 26.62 35.118 26.25 34.8708C25.88 34.6236 25.5916 34.2722 25.4213 33.861C25.251 33.4499 25.2064 32.9975 25.2932 32.561C25.3801 32.1246 25.5943 31.7237 25.909 31.409C26.2237 31.0943 26.6246 30.8801 27.061 30.7932C27.4975 30.7064 27.9499 30.751 28.361 30.9213C28.7722 31.0916 29.1236 31.38 29.3708 31.75C29.618 32.12 29.75 32.555 29.75 33C29.75 33.5967 29.5129 34.169 29.091 34.591C28.669 35.0129 28.0967 35.25 27.5 35.25ZM27.5 32.25C27.3517 32.25 27.2067 32.294 27.0833 32.3764C26.96 32.4588 26.8639 32.5759 26.8071 32.713C26.7503 32.85 26.7355 33.0008 26.7644 33.1463C26.7934 33.2918 26.8648 33.4254 26.9697 33.5303C27.0746 33.6352 27.2082 33.7067 27.3537 33.7356C27.4992 33.7645 27.65 33.7497 27.787 33.6929C27.9241 33.6361 28.0412 33.54 28.1236 33.4167C28.206 33.2933 28.25 33.1483 28.25 33C28.25 32.8011 28.171 32.6103 28.0303 32.4697C27.8897 32.329 27.6989 32.25 27.5 32.25Z" fill="url(#paint3_linear_8440_27336)"/>
<path d="M33.5 35.25C33.055 35.25 32.62 35.118 32.25 34.8708C31.88 34.6236 31.5916 34.2722 31.4213 33.861C31.251 33.4499 31.2064 32.9975 31.2932 32.561C31.3801 32.1246 31.5943 31.7237 31.909 31.409C32.2237 31.0943 32.6246 30.8801 33.061 30.7932C33.4975 30.7064 33.9499 30.751 34.361 30.9213C34.7722 31.0916 35.1236 31.38 35.3708 31.75C35.618 32.12 35.75 32.555 35.75 33C35.75 33.5967 35.5129 34.169 35.091 34.591C34.669 35.0129 34.0967 35.25 33.5 35.25ZM33.5 32.25C33.3517 32.25 33.2067 32.294 33.0833 32.3764C32.96 32.4588 32.8639 32.5759 32.8071 32.713C32.7503 32.85 32.7355 33.0008 32.7644 33.1463C32.7934 33.2918 32.8648 33.4254 32.9697 33.5303C33.0746 33.6352 33.2082 33.7067 33.3537 33.7356C33.4992 33.7645 33.65 33.7497 33.787 33.6929C33.9241 33.6361 34.0412 33.54 34.1236 33.4167C34.206 33.2933 34.25 33.1483 34.25 33C34.25 32.8011 34.171 32.6103 34.0303 32.4697C33.8897 32.329 33.6989 32.25 33.5 32.25Z" fill="url(#paint4_linear_8440_27336)"/>
<path d="M39.5 35.25C39.055 35.25 38.62 35.118 38.25 34.8708C37.88 34.6236 37.5916 34.2722 37.4213 33.861C37.251 33.4499 37.2064 32.9975 37.2932 32.561C37.3801 32.1246 37.5943 31.7237 37.909 31.409C38.2237 31.0943 38.6246 30.8801 39.061 30.7932C39.4975 30.7064 39.9499 30.751 40.361 30.9213C40.7722 31.0916 41.1236 31.38 41.3708 31.75C41.618 32.12 41.75 32.555 41.75 33C41.75 33.5967 41.5129 34.169 41.091 34.591C40.669 35.0129 40.0967 35.25 39.5 35.25ZM39.5 32.25C39.3517 32.25 39.2067 32.294 39.0833 32.3764C38.96 32.4588 38.8639 32.5759 38.8071 32.713C38.7503 32.85 38.7355 33.0008 38.7644 33.1463C38.7934 33.2918 38.8648 33.4254 38.9697 33.5303C39.0746 33.6352 39.2082 33.7067 39.3537 33.7356C39.4992 33.7645 39.65 33.7497 39.787 33.6929C39.9241 33.6361 40.0412 33.54 40.1236 33.4167C40.206 33.2933 40.25 33.1483 40.25 33C40.25 32.8011 40.171 32.6103 40.0303 32.4697C39.8897 32.329 39.6989 32.25 39.5 32.25Z" fill="url(#paint5_linear_8440_27336)"/>
<path d="M30.1686 18.9379L28.8411 24.0004L28.4436 25.5004H20.5536L18.8286 18.9379C18.7994 18.8251 18.7969 18.707 18.8213 18.5931C18.8457 18.4792 18.8962 18.3725 18.969 18.2815C19.0418 18.1905 19.1348 18.1177 19.2406 18.0689C19.3464 18.0201 19.4621 17.9967 19.5786 18.0004H29.4486C29.5625 18.0013 29.6748 18.0282 29.7768 18.079C29.8788 18.1298 29.9678 18.2032 30.0372 18.2935C30.1066 18.3839 30.1545 18.4889 30.1773 18.6005C30.2001 18.7122 30.1971 18.8276 30.1686 18.9379Z" fill="#96A1C3"/>
<path d="M30.1705 18.9375L28.843 24H24.718C23.9556 24.0002 23.2146 23.7479 22.6108 23.2825C22.007 22.8171 21.5744 22.1648 21.3805 21.4275L20.4805 18H29.4805C29.5918 18.0053 29.7006 18.0355 29.7989 18.0881C29.8972 18.1408 29.9824 18.2148 30.0485 18.3046C30.1146 18.3944 30.1599 18.4978 30.181 18.6073C30.2021 18.7168 30.1985 18.8296 30.1705 18.9375Z" fill="#CCD3EB"/>
<path d="M42.5 26.25H6.5C6.30109 26.25 6.11032 26.171 5.96967 26.0303C5.82902 25.8897 5.75 25.6989 5.75 25.5C5.75 25.3011 5.82902 25.1103 5.96967 24.9697C6.11032 24.829 6.30109 24.75 6.5 24.75H42.5C42.6989 24.75 42.8897 24.829 43.0303 24.9697C43.171 25.1103 43.25 25.3011 43.25 25.5C43.25 25.6989 43.171 25.8897 43.0303 26.0303C42.8897 26.171 42.6989 26.25 42.5 26.25Z" fill="#B4CDE1"/>
<path d="M45.5 39.75H40.25V35.115C40.6844 34.9573 41.0597 34.6698 41.3249 34.2914C41.5901 33.913 41.7324 33.4621 41.7324 33C41.7324 32.5379 41.5901 32.087 41.3249 31.7086C41.0597 31.3302 40.6844 31.0427 40.25 30.885V26.25H42.5C42.6989 26.25 42.8897 26.171 43.0303 26.0303C43.171 25.8897 43.25 25.6989 43.25 25.5C43.25 25.3011 43.171 25.1103 43.0303 24.9697C42.8897 24.829 42.6989 24.75 42.5 24.75H29.42L30.92 19.1325C30.979 18.9089 30.9855 18.6747 30.939 18.4482C30.8925 18.2216 30.7942 18.0089 30.6519 17.8267C30.5095 17.6444 30.327 17.4975 30.1185 17.3975C29.91 17.2975 29.6812 17.247 29.45 17.25H25.25V15.75H29C30.3924 15.75 31.7277 15.1969 32.7123 14.2123C33.6969 13.2277 34.25 11.8924 34.25 10.5C34.25 10.3011 34.171 10.1103 34.0303 9.96967C33.8897 9.82902 33.6989 9.75 33.5 9.75H29C28.3011 9.75088 27.6093 9.89131 26.9654 10.1631C26.3215 10.4348 25.7383 10.8324 25.25 11.3325V7.5H29C29.9946 7.5 30.9484 7.10491 31.6516 6.40165C32.3549 5.69839 32.75 4.74456 32.75 3.75V3C32.75 2.80109 32.671 2.61032 32.5303 2.46967C32.3897 2.32902 32.1989 2.25 32 2.25H27.5C26.9178 2.25 26.3437 2.38554 25.8229 2.6459C25.3022 2.90625 24.8493 3.28426 24.5 3.75C24.1507 3.28426 23.6978 2.90625 23.1771 2.6459C22.6563 2.38554 22.0822 2.25 21.5 2.25H17C16.8011 2.25 16.6103 2.32902 16.4697 2.46967C16.329 2.61032 16.25 2.80109 16.25 3V3.75C16.25 4.74456 16.6451 5.69839 17.3483 6.40165C18.0516 7.10491 19.0054 7.5 20 7.5H23.75V11.3325C23.2617 10.8324 22.6785 10.4348 22.0346 10.1631C21.3907 9.89131 20.6989 9.75088 20 9.75H15.5C15.3011 9.75 15.1103 9.82902 14.9697 9.96967C14.829 10.1103 14.75 10.3011 14.75 10.5C14.75 11.8924 15.3031 13.2277 16.2877 14.2123C17.2723 15.1969 18.6076 15.75 20 15.75H23.75V17.25H19.55C19.3207 17.2504 19.0945 17.3035 18.8888 17.405C18.6832 17.5065 18.5036 17.6539 18.3638 17.8357C18.224 18.0175 18.1278 18.2289 18.0825 18.4537C18.0372 18.6785 18.044 18.9107 18.1025 19.1325L19.6025 24.75H6.5C6.30109 24.75 6.11032 24.829 5.96967 24.9697C5.82902 25.1103 5.75 25.3011 5.75 25.5C5.75 25.6989 5.82902 25.8897 5.96967 26.0303C6.11032 26.171 6.30109 26.25 6.5 26.25H8.75V30.885C8.31564 31.0427 7.94035 31.3302 7.67513 31.7086C7.40992 32.087 7.26764 32.5379 7.26764 33C7.26764 33.4621 7.40992 33.913 7.67513 34.2914C7.94035 34.6698 8.31564 34.9573 8.75 35.115V39.75H3.5C3.30109 39.75 3.11032 39.829 2.96967 39.9697C2.82902 40.1103 2.75 40.3011 2.75 40.5V43.5C2.75 44.0967 2.98705 44.669 3.40901 45.091C3.83097 45.5129 4.40326 45.75 5 45.75H30.5C30.6989 45.75 30.8897 45.671 31.0303 45.5303C31.171 45.3897 31.25 45.1989 31.25 45C31.25 44.8011 31.171 44.6103 31.0303 44.4697C30.8897 44.329 30.6989 44.25 30.5 44.25H5C4.80109 44.25 4.61032 44.171 4.46967 44.0303C4.32902 43.8897 4.25 43.6989 4.25 43.5V41.25H44.75V43.5C44.75 43.6989 44.671 43.8897 44.5303 44.0303C44.3897 44.171 44.1989 44.25 44 44.25H37.25C37.0511 44.25 36.8603 44.329 36.7197 44.4697C36.579 44.6103 36.5 44.8011 36.5 45C36.5 45.1989 36.579 45.3897 36.7197 45.5303C36.8603 45.671 37.0511 45.75 37.25 45.75H44C44.5967 45.75 45.169 45.5129 45.591 45.091C46.0129 44.669 46.25 44.0967 46.25 43.5V40.5C46.25 40.3011 46.171 40.1103 46.0303 39.9697C45.8897 39.829 45.6989 39.75 45.5 39.75ZM29 11.25H32.675C32.5021 12.097 32.0419 12.8583 31.3722 13.405C30.7025 13.9517 29.8645 14.2502 29 14.25H25.325C25.4979 13.403 25.9581 12.6417 26.6278 12.095C27.2975 11.5483 28.1355 11.2498 29 11.25ZM20 14.25C19.1355 14.2502 18.2975 13.9517 17.6278 13.405C16.9581 12.8583 16.4979 12.097 16.325 11.25H20C20.8645 11.2498 21.7025 11.5483 22.3722 12.095C23.0419 12.6417 23.5021 13.403 23.675 14.25H20ZM27.5 3.75H31.25C31.25 4.34674 31.0129 4.91903 30.591 5.34099C30.169 5.76295 29.5967 6 29 6H25.25C25.25 5.40326 25.4871 4.83097 25.909 4.40901C26.331 3.98705 26.9033 3.75 27.5 3.75ZM17.75 3.75H21.5C22.0967 3.75 22.669 3.98705 23.091 4.40901C23.5129 4.83097 23.75 5.40326 23.75 6H20C19.4033 6 18.831 5.76295 18.409 5.34099C17.9871 4.91903 17.75 4.34674 17.75 3.75ZM39.5 33.75C39.3517 33.75 39.2067 33.706 39.0833 33.6236C38.96 33.5412 38.8639 33.4241 38.8071 33.287C38.7503 33.15 38.7355 32.9992 38.7644 32.8537C38.7934 32.7082 38.8648 32.5746 38.9697 32.4697C39.0746 32.3648 39.2082 32.2934 39.3537 32.2644C39.4992 32.2355 39.65 32.2503 39.787 32.3071C39.9241 32.3639 40.0412 32.46 40.1236 32.5833C40.206 32.7067 40.25 32.8517 40.25 33C40.25 33.1989 40.171 33.3897 40.0303 33.5303C39.8897 33.671 39.6989 33.75 39.5 33.75ZM38.75 30.885C38.3156 31.0427 37.9403 31.3302 37.6751 31.7086C37.4099 32.087 37.2676 32.5379 37.2676 33C37.2676 33.4621 37.4099 33.913 37.6751 34.2914C37.9403 34.6698 38.3156 34.9573 38.75 35.115V39.75H34.25V35.115C34.6844 34.9573 35.0597 34.6698 35.3249 34.2914C35.5901 33.913 35.7324 33.4621 35.7324 33C35.7324 32.5379 35.5901 32.087 35.3249 31.7086C35.0597 31.3302 34.6844 31.0427 34.25 30.885V26.25H38.75V30.885ZM15.5 32.25C15.6483 32.25 15.7933 32.294 15.9167 32.3764C16.04 32.4588 16.1361 32.5759 16.1929 32.713C16.2497 32.85 16.2645 33.0008 16.2356 33.1463C16.2066 33.2918 16.1352 33.4254 16.0303 33.5303C15.9254 33.6352 15.7918 33.7066 15.6463 33.7356C15.5008 33.7645 15.35 33.7497 15.213 33.6929C15.0759 33.6361 14.9588 33.54 14.8764 33.4167C14.794 33.2933 14.75 33.1483 14.75 33C14.75 32.8011 14.829 32.6103 14.9697 32.4697C15.1103 32.329 15.3011 32.25 15.5 32.25ZM16.25 35.115C16.6844 34.9573 17.0597 34.6698 17.3249 34.2914C17.5901 33.913 17.7324 33.4621 17.7324 33C17.7324 32.5379 17.5901 32.087 17.3249 31.7086C17.0597 31.3302 16.6844 31.0427 16.25 30.885V26.25H20.75V30.885C20.3156 31.0427 19.9403 31.3302 19.6751 31.7086C19.4099 32.087 19.2676 32.5379 19.2676 33C19.2676 33.4621 19.4099 33.913 19.6751 34.2914C19.9403 34.6698 20.3156 34.9573 20.75 35.115V39.75H16.25V35.115ZM21.5 33.75C21.3517 33.75 21.2067 33.706 21.0833 33.6236C20.96 33.5412 20.8639 33.4241 20.8071 33.287C20.7503 33.15 20.7355 32.9992 20.7644 32.8537C20.7934 32.7082 20.8648 32.5746 20.9697 32.4697C21.0746 32.3648 21.2082 32.2934 21.3537 32.2644C21.4992 32.2355 21.65 32.2503 21.787 32.3071C21.9241 32.3639 22.0412 32.46 22.1236 32.5833C22.206 32.7067 22.25 32.8517 22.25 33C22.25 33.1989 22.171 33.3897 22.0303 33.5303C21.8897 33.671 21.6989 33.75 21.5 33.75ZM22.25 35.115C22.6844 34.9573 23.0597 34.6698 23.3249 34.2914C23.5901 33.913 23.7324 33.4621 23.7324 33C23.7324 32.5379 23.5901 32.087 23.3249 31.7086C23.0597 31.3302 22.6844 31.0427 22.25 30.885V26.25H26.75V30.885C26.3156 31.0427 25.9403 31.3302 25.6751 31.7086C25.4099 32.087 25.2676 32.5379 25.2676 33C25.2676 33.4621 25.4099 33.913 25.6751 34.2914C25.9403 34.6698 26.3156 34.9573 26.75 35.115V39.75H22.25V35.115ZM27.5 33.75C27.3517 33.75 27.2067 33.706 27.0833 33.6236C26.96 33.5412 26.8639 33.4241 26.8071 33.287C26.7503 33.15 26.7355 32.9992 26.7644 32.8537C26.7934 32.7082 26.8648 32.5746 26.9697 32.4697C27.0746 32.3648 27.2082 32.2934 27.3537 32.2644C27.4992 32.2355 27.65 32.2503 27.787 32.3071C27.9241 32.3639 28.0412 32.46 28.1236 32.5833C28.206 32.7067 28.25 32.8517 28.25 33C28.25 33.1989 28.171 33.3897 28.0303 33.5303C27.8897 33.671 27.6989 33.75 27.5 33.75ZM28.25 35.115C28.6844 34.9573 29.0597 34.6698 29.3249 34.2914C29.5901 33.913 29.7324 33.4621 29.7324 33C29.7324 32.5379 29.5901 32.087 29.3249 31.7086C29.0597 31.3302 28.6844 31.0427 28.25 30.885V26.25H32.75V30.885C32.3156 31.0427 31.9403 31.3302 31.6751 31.7086C31.4099 32.087 31.2676 32.5379 31.2676 33C31.2676 33.4621 31.4099 33.913 31.6751 34.2914C31.9403 34.6698 32.3156 34.9573 32.75 35.115V39.75H28.25V35.115ZM33.5 33.75C33.3517 33.75 33.2067 33.706 33.0833 33.6236C32.96 33.5412 32.8639 33.4241 32.8071 33.287C32.7503 33.15 32.7355 32.9992 32.7644 32.8537C32.7934 32.7082 32.8648 32.5746 32.9697 32.4697C33.0746 32.3648 33.2082 32.2934 33.3537 32.2644C33.4992 32.2355 33.65 32.2503 33.787 32.3071C33.9241 32.3639 34.0412 32.46 34.1236 32.5833C34.206 32.7067 34.25 32.8517 34.25 33C34.25 33.1989 34.171 33.3897 34.0303 33.5303C33.8897 33.671 33.6989 33.75 33.5 33.75ZM19.55 18.75H29.45L27.8675 24.75H21.1175L19.55 18.75ZM9.5 32.25C9.64834 32.25 9.79334 32.294 9.91668 32.3764C10.04 32.4588 10.1361 32.5759 10.1929 32.713C10.2497 32.85 10.2645 33.0008 10.2356 33.1463C10.2067 33.2918 10.1352 33.4254 10.0303 33.5303C9.92544 33.6352 9.7918 33.7066 9.64632 33.7356C9.50083 33.7645 9.35003 33.7497 9.21299 33.6929C9.07594 33.6361 8.95881 33.54 8.8764 33.4167C8.79399 33.2933 8.75 33.1483 8.75 33C8.75 32.8011 8.82902 32.6103 8.96967 32.4697C9.11032 32.329 9.30109 32.25 9.5 32.25ZM10.25 35.115C10.6844 34.9573 11.0597 34.6698 11.3249 34.2914C11.5901 33.913 11.7324 33.4621 11.7324 33C11.7324 32.5379 11.5901 32.087 11.3249 31.7086C11.0597 31.3302 10.6844 31.0427 10.25 30.885V26.25H14.75V30.885C14.3156 31.0427 13.9403 31.3302 13.6751 31.7086C13.4099 32.087 13.2676 32.5379 13.2676 33C13.2676 33.4621 13.4099 33.913 13.6751 34.2914C13.9403 34.6698 14.3156 34.9573 14.75 35.115V39.75H10.25V35.115Z" fill="#033C59"/>
<path d="M34.25 44.25H33.5C33.3011 44.25 33.1103 44.329 32.9697 44.4697C32.829 44.6103 32.75 44.8011 32.75 45C32.75 45.1989 32.829 45.3897 32.9697 45.5303C33.1103 45.671 33.3011 45.75 33.5 45.75H34.25C34.4489 45.75 34.6397 45.671 34.7803 45.5303C34.921 45.3897 35 45.1989 35 45C35 44.8011 34.921 44.6103 34.7803 44.4697C34.6397 44.329 34.4489 44.25 34.25 44.25Z" fill="#033C59"/>
<path d="M9.5 33.75C9.91421 33.75 10.25 33.4142 10.25 33C10.25 32.5858 9.91421 32.25 9.5 32.25C9.08579 32.25 8.75 32.5858 8.75 33C8.75 33.4142 9.08579 33.75 9.5 33.75Z" fill="#0074FF"/>
<path d="M15.5 33.75C15.9142 33.75 16.25 33.4142 16.25 33C16.25 32.5858 15.9142 32.25 15.5 32.25C15.0858 32.25 14.75 32.5858 14.75 33C14.75 33.4142 15.0858 33.75 15.5 33.75Z" fill="#0074FF"/>
<path d="M21.5 33.75C21.9142 33.75 22.25 33.4142 22.25 33C22.25 32.5858 21.9142 32.25 21.5 32.25C21.0858 32.25 20.75 32.5858 20.75 33C20.75 33.4142 21.0858 33.75 21.5 33.75Z" fill="#0074FF"/>
<path d="M27.5 33.75C27.9142 33.75 28.25 33.4142 28.25 33C28.25 32.5858 27.9142 32.25 27.5 32.25C27.0858 32.25 26.75 32.5858 26.75 33C26.75 33.4142 27.0858 33.75 27.5 33.75Z" fill="#0074FF"/>
<path d="M33.5 33.75C33.9142 33.75 34.25 33.4142 34.25 33C34.25 32.5858 33.9142 32.25 33.5 32.25C33.0858 32.25 32.75 32.5858 32.75 33C32.75 33.4142 33.0858 33.75 33.5 33.75Z" fill="#0074FF"/>
<path d="M39.5 33.75C39.9142 33.75 40.25 33.4142 40.25 33C40.25 32.5858 39.9142 32.25 39.5 32.25C39.0858 32.25 38.75 32.5858 38.75 33C38.75 33.4142 39.0858 33.75 39.5 33.75Z" fill="#0074FF"/>
<defs>
<linearGradient id="paint0_linear_8440_27336" x1="7.91" y1="34.59" x2="11.09" y2="31.41" gradientUnits="userSpaceOnUse">
<stop stop-color="#54A5FF"/>
<stop offset="1" stop-color="#8AD3FE"/>
</linearGradient>
<linearGradient id="paint1_linear_8440_27336" x1="13.91" y1="34.59" x2="17.09" y2="31.41" gradientUnits="userSpaceOnUse">
<stop stop-color="#54A5FF"/>
<stop offset="1" stop-color="#8AD3FE"/>
</linearGradient>
<linearGradient id="paint2_linear_8440_27336" x1="19.91" y1="34.59" x2="23.09" y2="31.41" gradientUnits="userSpaceOnUse">
<stop stop-color="#54A5FF"/>
<stop offset="1" stop-color="#8AD3FE"/>
</linearGradient>
<linearGradient id="paint3_linear_8440_27336" x1="25.91" y1="34.59" x2="29.09" y2="31.41" gradientUnits="userSpaceOnUse">
<stop stop-color="#54A5FF"/>
<stop offset="1" stop-color="#8AD3FE"/>
</linearGradient>
<linearGradient id="paint4_linear_8440_27336" x1="31.91" y1="34.59" x2="35.09" y2="31.41" gradientUnits="userSpaceOnUse">
<stop stop-color="#54A5FF"/>
<stop offset="1" stop-color="#8AD3FE"/>
</linearGradient>
<linearGradient id="paint5_linear_8440_27336" x1="37.91" y1="34.59" x2="41.09" y2="31.41" gradientUnits="userSpaceOnUse">
<stop stop-color="#54A5FF"/>
<stop offset="1" stop-color="#8AD3FE"/>
</linearGradient>
</defs>
</svg>
