<svg width="48" height="49" viewBox="0 0 48 49" fill="none" xmlns="http://www.w3.org/2000/svg">
<g clipPath="url(#clip0_8440_27567)">
<path d="M21.991 7.32209V14.2539C21.991 15.0833 21.3186 15.7557 20.4892 15.7557H18.0643C17.2349 15.7557 16.5625 15.0833 16.5625 14.2539V7.32209C16.5625 6.49269 17.2349 5.82031 18.0643 5.82031H20.4892C21.3187 5.82041 21.991 6.49278 21.991 7.32209Z" fill="#FA8AA2"/>
<path opacity="0.1" d="M19.6496 15.7605H18.0647C17.2378 15.7605 16.5586 15.0911 16.5586 14.2544V7.32438C16.5586 6.4975 17.2378 5.82812 18.0647 5.82812H19.6496C18.8228 5.82812 18.1534 6.4975 18.1534 7.32438V14.2544C18.1533 15.0911 18.8227 15.7605 19.6496 15.7605Z" fill="#232323"/>
<path d="M47.625 28.3787C47.625 29.2868 46.8888 30.0231 45.9806 30.0231H2.01938C1.11131 30.0231 0.375 29.2869 0.375 28.3787C0.375 27.4707 1.11122 26.7344 2.01938 26.7344H45.9806C46.8888 26.7345 47.625 27.4706 47.625 28.3787Z" fill="#13277E"/>
<path opacity="0.1" d="M47.6249 28.3783C47.6249 28.6834 47.5461 28.959 47.3887 29.2052C47.1229 28.713 46.5913 28.3783 45.981 28.3783H2.01891C1.40859 28.3783 0.877125 28.713 0.61125 29.2052C0.453844 28.9591 0.375 28.6834 0.375 28.3783C0.375 27.4726 1.11328 26.7344 2.01891 26.7344H45.981C46.8865 26.7344 47.6249 27.4727 47.6249 28.3783Z" fill="#232323"/>
<path d="M37.451 45.1211H10.5547V45.7602C10.5547 46.8474 11.4361 47.7289 12.5234 47.7289H35.4824C36.5697 47.7289 37.4512 46.8475 37.4512 45.7602V45.1211H37.451Z" fill="#13277E"/>
<path d="M45.5978 30.0234C43.9846 31.8159 43.0919 34.1421 43.0919 36.5536V39.2971C43.0919 42.5148 40.4834 45.1234 37.2657 45.1234H10.7305C7.51278 45.1234 4.90419 42.5149 4.90419 39.2971V36.5536C4.90419 34.1422 4.0115 31.8159 2.39844 30.0234H45.5978Z" fill="#FEFEFE"/>
<path opacity="0.1" d="M42.8988 36.4766C42.2434 38.9718 39.9747 40.8191 37.2679 40.8191H10.7292C8.02238 40.8191 5.75372 38.9718 5.09831 36.4766H4.89844C4.89863 36.5001 4.90163 36.5233 4.90163 36.5469V39.2932C4.90163 42.5121 7.51022 45.1208 10.7292 45.1208H37.2679C40.4868 45.1208 43.0955 42.5122 43.0955 39.2932V36.5469C43.0955 36.5232 43.0985 36.5001 43.0988 36.4766H42.8988Z" fill="#232323"/>
<path d="M37.5671 15.278C37.5371 15.341 37.495 15.3974 37.4432 15.4441C37.3913 15.4908 37.3308 15.5268 37.265 15.5501C37.1993 15.5734 37.1296 15.5835 37.0599 15.5799C36.9903 15.5762 36.922 15.5589 36.859 15.5289L30.5956 12.5427C30.5326 12.5126 30.4762 12.4705 30.4295 12.4187C30.3828 12.3669 30.3468 12.3063 30.3235 12.2406C30.3002 12.1748 30.29 12.1051 30.2937 12.0355C30.2973 11.9658 30.3147 11.8975 30.3447 11.8346C31.2955 9.84012 33.6832 8.99412 35.6778 9.94512C37.672 10.8959 38.518 13.2836 37.5671 15.278Z" fill="#37D0F9"/>
<path opacity="0.1" d="M37.4773 11.665C37.4184 11.6257 37.3592 11.5962 37.3002 11.5665C36.7391 11.3007 36.1485 11.1728 35.5776 11.1728C34.1502 11.1728 32.7819 11.9307 32.0732 13.2499L30.5966 12.5412C30.3309 12.4132 30.2226 12.0982 30.3505 11.8324C31.0298 10.3952 32.4669 9.55859 33.9632 9.55859C34.544 9.55859 35.1248 9.67672 35.676 9.9425C36.4732 10.3262 37.0934 10.9365 37.4773 11.665Z" fill="#232323"/>
<path d="M16.8859 26.7305V38.2332C16.8859 39.1077 16.1771 39.8165 15.3026 39.8165H9.18481C8.31031 39.8165 7.60156 39.1076 7.60156 38.2332V26.7305H16.8859Z" fill="#FACB00"/>
<path opacity="0.1" d="M7.60156 26.7344H16.8842V29.4414H7.60156V26.7344Z" fill="#232323"/>
<path d="M13.4753 8.55813V14.6466C13.4753 15.2597 12.9782 15.7567 12.3652 15.7567H6.46166C5.84862 15.7567 5.35156 15.2597 5.35156 14.6466V8.55813C5.35156 7.04397 6.57903 5.81641 8.09328 5.81641H10.7337C12.2479 5.81641 13.4753 7.04378 13.4753 8.55813Z" fill="#72B505"/>
<path opacity="0.1" d="M13.4768 8.56281V14.6463C13.4768 15.2566 12.9846 15.7586 12.3644 15.7586H10.1496C10.7599 15.7586 11.2619 15.2566 11.2619 14.6463V8.56281C11.2619 7.04678 10.0315 5.81641 8.51562 5.81641H10.7404C12.2463 5.81631 13.4768 7.04687 13.4768 8.56281Z" fill="#232323"/>
<path d="M20.4019 4.24863V5.82353H18.1484V4.24863C18.1484 4.08634 18.2129 3.9307 18.3277 3.81594C18.4424 3.70119 18.5981 3.63672 18.7603 3.63672H19.7899C19.8703 3.63669 19.9499 3.6525 20.0241 3.68325C20.0984 3.71399 20.1658 3.75906 20.2227 3.81588C20.2795 3.87271 20.3246 3.94017 20.3553 4.01442C20.3861 4.08867 20.4019 4.16826 20.4019 4.24863Z" fill="#13277E"/>
<path d="M47.625 47.3546H37.1932C37.5829 46.9358 37.8233 46.3766 37.8233 45.7608V45.4687C40.983 45.1864 43.4688 42.5275 43.4688 39.2956V36.5522C43.4688 34.2835 44.2905 32.1063 45.7767 30.3969H45.9806C47.0938 30.3969 47.9999 29.4911 47.9999 28.3776C47.9999 27.2642 47.0939 26.3583 45.9806 26.3583H42.4185V11.1018C42.4185 9.0985 40.7886 7.46875 38.7854 7.46875C37.4132 7.46875 36.1614 8.25391 35.5411 9.481C33.428 8.65862 30.9992 9.59341 30.008 11.6723C29.7922 12.1238 29.9836 12.6646 30.4357 12.8805L36.6993 15.8666C37.1529 16.0834 37.6926 15.8889 37.9071 15.4389C38.8873 13.3835 38.1242 10.9518 36.2144 9.80687C36.7057 8.84022 37.6981 8.21894 38.7851 8.21894C40.3748 8.21894 41.6683 9.51241 41.6683 11.1021V26.3586C1.85344 26.3558 7.12397 26.3586 2.01909 26.3586C0.905813 26.3584 0 27.2642 0 28.3777C0 29.4912 0.905813 30.397 2.01928 30.397H2.22337C3.70959 32.1063 4.53103 34.2833 4.53103 36.5522V39.2957C4.53103 42.5274 7.01709 45.1864 10.1767 45.4688V45.7609C10.1767 46.3767 10.4171 46.936 10.8068 47.3547H0.375C0.275544 47.3547 0.180161 47.3942 0.109835 47.4645C0.0395088 47.5349 0 47.6302 0 47.7297C0 47.8291 0.0395088 47.9245 0.109835 47.9949C0.180161 48.0652 0.275544 48.1047 0.375 48.1047H47.6248C47.8321 48.1047 47.9998 47.9368 47.9998 47.7297C47.9998 47.6804 47.9902 47.6317 47.9713 47.5862C47.9525 47.5407 47.9249 47.4993 47.8901 47.4645C47.8553 47.4297 47.814 47.402 47.7685 47.3832C47.723 47.3643 47.6742 47.3546 47.625 47.3546ZM37.2304 15.1157C37.2304 15.1158 37.23 15.116 37.23 15.116C37.2213 15.1345 37.2089 15.1511 37.1937 15.1649C37.1785 15.1786 37.1608 15.1892 37.1415 15.196C37.1222 15.2029 37.1017 15.2058 37.0813 15.2047C37.0608 15.2036 37.0408 15.1984 37.0223 15.1895L30.7583 12.2033C30.721 12.1855 30.6923 12.1535 30.6785 12.1145C30.6647 12.0755 30.6669 12.0325 30.6847 11.9952C31.5983 10.0794 33.9461 9.41959 35.5773 10.3149C37.3478 11.1986 38.0819 13.3297 37.2304 15.1157ZM45.9806 27.1083C46.6805 27.1083 47.2499 27.6779 47.2499 28.3776C47.2499 29.0775 46.6804 29.6469 45.9806 29.6469H17.2588V27.1083H45.9806ZM16.5088 27.106V38.2338C16.5088 38.9001 15.9668 39.4422 15.3005 39.4422H9.18262C8.51634 39.4422 7.97428 38.9002 7.97428 38.2338V27.106H16.5088ZM2.01938 29.6469C1.31953 29.6469 0.750094 29.0774 0.750094 28.3776C0.750094 27.6778 1.31963 27.1083 2.01938 27.1083H7.22428V29.6469H2.01938ZM10.7324 44.7468C7.72659 44.7468 5.28113 42.3016 5.28113 39.2956V36.5522C5.28113 34.3161 4.54688 32.1597 3.19866 30.3969H7.22428V38.2337C7.22428 39.3136 8.10281 40.192 9.18253 40.192H15.3004C16.3802 40.192 17.2586 39.3135 17.2586 38.2337V30.3969H44.8013C43.4493 32.1639 42.7173 34.3272 42.7187 36.5522V39.2956C42.7187 42.3014 40.2735 44.7468 37.2676 44.7468H10.7324ZM37.0732 45.7608C37.0732 46.6396 36.3584 47.3546 35.4795 47.3546H12.5206C11.6419 47.3546 10.9268 46.6396 10.9268 45.7608V45.4968H37.0734V45.7608H37.0732Z" fill="#232323"/>
<path d="M31.283 14.1616C31.2385 14.1403 31.1903 14.128 31.1411 14.1254C31.0919 14.1228 31.0427 14.13 30.9962 14.1464C30.9498 14.1629 30.9071 14.1884 30.8705 14.2214C30.8339 14.2544 30.8042 14.2943 30.7831 14.3388L30.5301 14.8697C30.5077 14.9142 30.4944 14.9628 30.491 15.0126C30.4876 15.0624 30.4942 15.1123 30.5104 15.1595C30.5265 15.2067 30.552 15.2502 30.5852 15.2875C30.6184 15.3247 30.6587 15.355 30.7037 15.3764C30.7487 15.3979 30.7976 15.4102 30.8474 15.4125C30.8973 15.4149 30.9471 15.4072 30.9939 15.3901C31.0408 15.3729 31.0837 15.3466 31.1203 15.3126C31.1568 15.2786 31.1862 15.2377 31.2068 15.1922L31.4598 14.6614C31.5026 14.5717 31.508 14.4686 31.4749 14.3749C31.4417 14.2811 31.3727 14.2044 31.283 14.1616ZM29.7114 17.4574C29.7559 17.4786 29.8041 17.4908 29.8533 17.4934C29.9025 17.496 29.9517 17.4888 29.9981 17.4723C30.0445 17.4559 30.0872 17.4304 30.1238 17.3975C30.1604 17.3645 30.1901 17.3246 30.2113 17.2802L30.4643 16.7493C30.4868 16.7048 30.5 16.6562 30.5034 16.6064C30.5068 16.5566 30.5002 16.5067 30.484 16.4595C30.4679 16.4123 30.4424 16.3688 30.4092 16.3315C30.376 16.2943 30.3357 16.264 30.2907 16.2425C30.2457 16.2211 30.1968 16.2088 30.147 16.2065C30.0971 16.2041 30.0473 16.2118 30.0005 16.2289C29.9536 16.2461 29.9107 16.2724 29.8741 16.3064C29.8376 16.3403 29.8082 16.3813 29.7877 16.4267L29.5346 16.9576C29.5134 17.002 29.5011 17.0502 29.4985 17.0993C29.4959 17.1485 29.503 17.1977 29.5195 17.2441C29.5359 17.2906 29.5613 17.3333 29.5942 17.3699C29.6272 17.4065 29.667 17.4362 29.7114 17.4574ZM28.7157 19.5451C28.8055 19.5879 28.9085 19.5933 29.0023 19.5602C29.096 19.527 29.1727 19.458 29.2156 19.3682L29.469 18.8374C29.4903 18.793 29.5025 18.7448 29.5052 18.6957C29.5078 18.6465 29.5007 18.5973 29.4842 18.5508C29.4678 18.5044 29.4424 18.4617 29.4094 18.4251C29.3765 18.3885 29.3366 18.3587 29.2922 18.3376C29.2478 18.3163 29.1996 18.304 29.1504 18.3013C29.1012 18.2987 29.052 18.3058 29.0056 18.3222C28.9591 18.3387 28.9164 18.3641 28.8798 18.3971C28.8432 18.43 28.8135 18.4699 28.7923 18.5144L28.5389 19.0452C28.5177 19.0896 28.5054 19.1378 28.5028 19.187C28.5001 19.2361 28.5072 19.2854 28.5237 19.3318C28.5401 19.3782 28.5655 19.4209 28.5985 19.4575C28.6314 19.4941 28.6713 19.5239 28.7157 19.5451ZM27.7205 21.6332C27.7649 21.6543 27.8131 21.6666 27.8623 21.6691C27.9115 21.6717 27.9607 21.6645 28.0071 21.6481C28.0535 21.6316 28.0963 21.6061 28.1329 21.5732C28.1694 21.5402 28.1992 21.5003 28.2203 21.4559L28.4734 20.9251C28.4946 20.8806 28.5068 20.8325 28.5094 20.7833C28.512 20.7341 28.5049 20.6849 28.4885 20.6385C28.4721 20.5921 28.4467 20.5494 28.4138 20.5128C28.3808 20.4762 28.341 20.4464 28.2966 20.4252C28.2521 20.4039 28.2039 20.3916 28.1547 20.389C28.1055 20.3864 28.0562 20.3935 28.0098 20.41C27.9634 20.4265 27.9206 20.4519 27.8841 20.485C27.8475 20.518 27.8178 20.5579 27.7967 20.6025L27.5437 21.1333C27.5224 21.1777 27.5101 21.2259 27.5075 21.2751C27.5049 21.3242 27.512 21.3734 27.5284 21.4199C27.5448 21.4663 27.5703 21.509 27.6032 21.5456C27.6362 21.5822 27.676 21.612 27.7205 21.6332ZM32.7316 16.1334C32.6872 16.1121 32.6389 16.0998 32.5897 16.0972C32.5405 16.0946 32.4913 16.1017 32.4448 16.1182C32.3984 16.1347 32.3556 16.1602 32.3191 16.1932C32.2825 16.2262 32.2528 16.2662 32.2317 16.3107L31.9787 16.8415C31.9563 16.8861 31.943 16.9347 31.9396 16.9845C31.9362 17.0342 31.9428 17.0842 31.959 17.1314C31.9752 17.1786 32.0006 17.2221 32.0338 17.2593C32.067 17.2966 32.1073 17.3268 32.1523 17.3483C32.1974 17.3698 32.2462 17.382 32.2961 17.3844C32.3459 17.3867 32.3957 17.3791 32.4426 17.3619C32.4894 17.3448 32.5324 17.3184 32.5689 17.2845C32.6055 17.2505 32.6348 17.2096 32.6554 17.1641L32.9084 16.6333C32.9296 16.5889 32.9419 16.5407 32.9445 16.4915C32.9471 16.4423 32.94 16.3931 32.9236 16.3467C32.9072 16.3003 32.8817 16.2576 32.8488 16.221C32.8159 16.1844 32.776 16.1546 32.7316 16.1334ZM31.7363 18.2215C31.6918 18.2002 31.6436 18.188 31.5945 18.1853C31.5453 18.1827 31.4961 18.1898 31.4497 18.2063C31.4032 18.2227 31.3605 18.2481 31.3239 18.2811C31.2873 18.314 31.2576 18.3539 31.2364 18.3983L30.983 18.9291C30.9617 18.9735 30.9494 19.0217 30.9468 19.0709C30.9442 19.1201 30.9513 19.1693 30.9677 19.2157C30.9842 19.2621 31.0096 19.3049 31.0425 19.3415C31.0755 19.3781 31.1153 19.4078 31.1598 19.429C31.2495 19.4718 31.3526 19.4772 31.4463 19.4441C31.5401 19.4109 31.6168 19.3419 31.6597 19.2522L31.9131 18.7214C31.9343 18.677 31.9466 18.6288 31.9492 18.5796C31.9519 18.5304 31.9448 18.4812 31.9283 18.4348C31.9119 18.3883 31.8865 18.3456 31.8535 18.309C31.8206 18.2724 31.7807 18.2427 31.7363 18.2215ZM30.7405 20.3093C30.6961 20.2881 30.6479 20.2758 30.5987 20.2732C30.5495 20.2706 30.5002 20.2778 30.4538 20.2942C30.4074 20.3107 30.3646 20.3362 30.3281 20.3692C30.2915 20.4022 30.2618 20.4421 30.2407 20.4866L29.9876 21.0174C29.9652 21.062 29.9519 21.1106 29.9485 21.1604C29.9452 21.2101 29.9518 21.2601 29.9679 21.3073C29.9841 21.3545 30.0095 21.398 30.0427 21.4352C30.0759 21.4725 30.1162 21.5027 30.1613 21.5242C30.2063 21.5457 30.2552 21.5579 30.305 21.5603C30.3548 21.5626 30.4047 21.555 30.4515 21.5378C30.4984 21.5207 30.5413 21.4943 30.5779 21.4604C30.6144 21.4264 30.6438 21.3855 30.6643 21.34L30.9173 20.8092C30.9386 20.7648 30.9509 20.7166 30.9535 20.6674C30.9561 20.6182 30.949 20.569 30.9325 20.5226C30.9161 20.4762 30.8907 20.4334 30.8578 20.3968C30.8248 20.3602 30.785 20.3305 30.7405 20.3093ZM34.5997 17.2254C34.6441 17.2466 34.6923 17.2588 34.7415 17.2614C34.7907 17.2639 34.8399 17.2568 34.8863 17.2403C34.9327 17.2238 34.9755 17.1984 35.012 17.1654C35.0486 17.1324 35.0784 17.0926 35.0995 17.0481L35.3526 16.5173C35.375 16.4727 35.3883 16.4241 35.3916 16.3744C35.395 16.3246 35.3884 16.2746 35.3723 16.2274C35.3561 16.1802 35.3307 16.1367 35.2975 16.0995C35.2643 16.0622 35.224 16.032 35.1789 16.0105C35.1339 15.989 35.085 15.9768 35.0352 15.9744C34.9853 15.9721 34.9355 15.9797 34.8887 15.9969C34.8418 16.014 34.7989 16.0404 34.7623 16.0743C34.7258 16.1083 34.6964 16.1492 34.6759 16.1947L34.4228 16.7255C34.4016 16.77 34.3893 16.8181 34.3867 16.8673C34.3841 16.9165 34.3912 16.9657 34.4076 17.0121C34.4241 17.0585 34.4495 17.1013 34.4824 17.1379C34.5154 17.1745 34.5552 17.2042 34.5997 17.2254ZM34.1799 18.1054C34.1355 18.0841 34.0873 18.0718 34.0381 18.0692C33.9889 18.0666 33.9396 18.0738 33.8932 18.0902C33.8467 18.1067 33.804 18.1322 33.7674 18.1652C33.7309 18.1983 33.7012 18.2382 33.6801 18.2827L33.427 18.8135C33.4046 18.8581 33.3913 18.9067 33.388 18.9565C33.3846 19.0063 33.3912 19.0562 33.4073 19.1034C33.4235 19.1506 33.4489 19.1941 33.4821 19.2314C33.5153 19.2686 33.5556 19.2989 33.6007 19.3203C33.6457 19.3418 33.6946 19.3541 33.7444 19.3564C33.7943 19.3587 33.8441 19.3511 33.8909 19.334C33.9378 19.3168 33.9807 19.2905 34.0173 19.2565C34.0538 19.2225 34.0832 19.1816 34.1037 19.1361L34.3568 18.6053C34.378 18.5609 34.3903 18.5127 34.3929 18.4635C34.3955 18.4144 34.3884 18.3652 34.372 18.3187C34.3555 18.2723 34.3301 18.2296 34.2972 18.193C34.2642 18.1564 34.2244 18.1266 34.1799 18.1054ZM33.1846 20.1932C33.1401 20.172 33.0919 20.1597 33.0427 20.1571C32.9935 20.1545 32.9443 20.1616 32.8978 20.1781C32.8514 20.1946 32.8087 20.22 32.7721 20.2531C32.7355 20.2861 32.7058 20.326 32.6847 20.3705L32.4317 20.9013C32.4093 20.9459 32.396 20.9945 32.3926 21.0443C32.3892 21.0941 32.3958 21.144 32.412 21.1912C32.4282 21.2384 32.4536 21.2819 32.4868 21.3192C32.52 21.3564 32.5603 21.3867 32.6053 21.4081C32.6504 21.4296 32.6992 21.4419 32.7491 21.4442C32.7989 21.4466 32.8487 21.4389 32.8956 21.4218C32.9424 21.4046 32.9854 21.3783 33.0219 21.3443C33.0585 21.3103 33.0879 21.2694 33.1084 21.2239L33.3614 20.6931C33.3826 20.6487 33.3949 20.6005 33.3975 20.5513C33.4001 20.5022 33.393 20.453 33.3766 20.4065C33.3602 20.3601 33.3347 20.3174 33.3018 20.2808C33.2689 20.2442 33.229 20.2144 33.1846 20.1932ZM32.1892 22.2812C32.1448 22.26 32.0966 22.2477 32.0474 22.2452C31.9982 22.2426 31.949 22.2498 31.9026 22.2662C31.8562 22.2827 31.8134 22.3081 31.7768 22.3411C31.7403 22.3741 31.7105 22.414 31.6894 22.4584L31.4363 22.9892C31.4139 23.0338 31.4006 23.0824 31.3973 23.1322C31.3939 23.182 31.4005 23.2319 31.4166 23.2791C31.4328 23.3263 31.4582 23.3698 31.4914 23.4071C31.5246 23.4443 31.5649 23.4746 31.61 23.496C31.655 23.5175 31.7039 23.5298 31.7537 23.5321C31.8036 23.5345 31.8534 23.5268 31.9002 23.5097C31.9471 23.4925 31.99 23.4662 32.0266 23.4322C32.0631 23.3982 32.0925 23.3573 32.113 23.3118L32.3661 22.781C32.3873 22.7366 32.3996 22.6884 32.4022 22.6393C32.4048 22.5901 32.3976 22.5409 32.3812 22.4945C32.3648 22.448 32.3394 22.4053 32.3065 22.3687C32.2735 22.3321 32.2337 22.3024 32.1892 22.2812ZM2.46084 16.1323H24.8884C25.0957 16.1323 25.2634 15.9644 25.2634 15.7573C25.2634 15.5502 25.0957 15.3823 24.8884 15.3823H21.982C22.2205 15.0676 22.3675 14.6799 22.3675 14.2554V7.32362C22.3675 6.38791 21.6771 5.61662 20.78 5.47619V4.24703C20.78 3.70281 20.3372 3.26012 19.7931 3.26012H18.7636C18.2194 3.26012 17.7767 3.70291 17.7767 4.24703V5.47637C16.8797 5.61672 16.1891 6.388 16.1891 7.32381V14.2556C16.1891 14.6801 16.3361 15.0676 16.5746 15.3825H13.6526C13.778 15.1648 13.8551 14.916 13.8551 14.6473V8.55878C13.8551 6.96747 12.6554 5.65309 11.1135 5.467V4.14278C11.1135 3.65509 10.7169 3.25853 10.2292 3.25853H9.79322V1.64453H11.2672L12.4672 2.33284C12.5535 2.38225 12.6559 2.39537 12.7519 2.36934C12.8479 2.34331 12.9296 2.28025 12.9791 2.194C13.0285 2.10768 13.0417 2.00528 13.0156 1.90929C12.9896 1.8133 12.9265 1.73156 12.8403 1.68203L11.5536 0.944125C11.4967 0.911653 11.4324 0.89456 11.3669 0.894531H8.37731C8.27786 0.894531 8.18247 0.93404 8.11215 1.00437C8.04182 1.07469 8.00231 1.17008 8.00231 1.26953C8.00231 1.36899 8.04182 1.46437 8.11215 1.5347C8.18247 1.60502 8.27786 1.64453 8.37731 1.64453H9.04313V3.25862H8.59013C8.47323 3.25859 8.35748 3.28175 8.24959 3.32674C8.1417 3.37174 8.04381 3.43769 7.96157 3.52077C7.87934 3.60385 7.8144 3.70241 7.77051 3.81076C7.72661 3.9191 7.70465 4.03508 7.70587 4.15197L7.71928 5.46747C6.17953 5.65516 4.98169 6.96869 4.98169 8.55878V14.6473C4.98169 14.916 5.05884 15.1648 5.18419 15.3825H2.46084C2.36141 15.3825 2.26605 15.422 2.19574 15.4923C2.12544 15.5626 2.08594 15.6579 2.08594 15.7574C2.08594 15.8568 2.12544 15.9522 2.19574 16.0225C2.26605 16.0928 2.36141 16.1323 2.46084 16.1323ZM18.5269 4.24703C18.5269 4.18419 18.5519 4.12394 18.5963 4.0795C18.6408 4.03507 18.701 4.01008 18.7639 4.01003H19.7933C19.8562 4.01008 19.9164 4.03507 19.9609 4.0795C20.0053 4.12394 20.0303 4.18419 20.0303 4.24703V5.44703H18.527V4.24703H18.5269ZM16.9394 7.32362C16.9394 6.70244 17.4447 6.19694 18.0661 6.19694H20.4909C21.1121 6.19694 21.6178 6.70225 21.6178 7.32362V14.2554C21.6178 14.8766 21.1123 15.3823 20.4909 15.3823H18.0661C17.4449 15.3823 16.9394 14.8768 16.9394 14.2554V7.32362ZM8.5905 4.00853H10.2294C10.3034 4.00853 10.3636 4.06872 10.3636 4.14269V5.44206H8.46947L8.45634 4.14419C8.45616 4.12645 8.45949 4.10885 8.46615 4.0924C8.47281 4.07596 8.48266 4.061 8.49513 4.04838C8.50761 4.03577 8.52246 4.02575 8.53883 4.01891C8.5552 4.01207 8.57276 4.00854 8.5905 4.00853ZM5.73169 8.55878C5.73169 7.25378 6.79331 6.19216 8.09831 6.19216H10.7387C12.0437 6.19216 13.1053 7.25378 13.1053 8.55878V14.6473C13.1053 15.0527 12.7755 15.3825 12.3703 15.3825H6.46659C6.06141 15.3825 5.73159 15.0527 5.73159 14.6473L5.73169 8.55878Z" fill="#232323"/>
<path d="M19.2734 13.5745C19.3729 13.5745 19.4683 13.535 19.5386 13.4647C19.6089 13.3944 19.6484 13.299 19.6484 13.1995V8.37891C19.6484 8.27945 19.6089 8.18407 19.5386 8.11374C19.4683 8.04342 19.3729 8.00391 19.2734 8.00391C19.174 8.00391 19.0786 8.04342 19.0083 8.11374C18.9379 8.18407 18.8984 8.27945 18.8984 8.37891V13.1995C18.8985 13.299 18.938 13.3943 19.0083 13.4647C19.0786 13.535 19.174 13.5745 19.2734 13.5745Z" fill="#232323"/>
</g>
<defs>
<clipPath id="clip0_8440_27567">
<rect width="48" height="48" fill="white" transform="translate(0 0.5)"/>
</clipPath>
</defs>
</svg>
