<svg width="48" height="48" viewBox="0 0 48 48" fill="none" xmlns="http://www.w3.org/2000/svg">
<path d="M47.212 27.6975C47.242 28.1325 46.897 28.5 46.462 28.5H1.53697C1.10197 28.5 0.756975 28.1325 0.786975 27.6975C0.936975 25.7625 1.66447 21 5.24948 21H42.7495C46.3345 21 47.062 25.7625 47.212 27.6975Z" fill="#543F46"/>
<path d="M47.212 27.6975C47.242 28.1325 46.897 28.5 46.462 28.5H1.53697C1.10197 28.5 0.756975 28.1325 0.786975 27.6975C0.831975 27.135 0.921975 26.3475 1.11697 25.5H42.712C43.147 25.5 43.492 25.1325 43.462 24.6975C43.3945 23.8125 43.207 22.3425 42.6745 21H42.7495C46.3345 21 47.062 25.7625 47.212 27.6975Z" fill="#3F3136"/>
<path d="M45.75 28.5V41.25C45.75 42.075 45.075 42.75 44.25 42.75H3.75C2.925 42.75 2.25 42.075 2.25 41.25V28.5H45.75Z" fill="#9A5740"/>
<path d="M45.75 28.5V41.25C45.75 42.075 45.075 42.75 44.25 42.75H3.75C2.925 42.75 2.25 42.075 2.25 41.25V39H39C40.6575 39 42 37.6575 42 36V28.5H45.75Z" fill="#734130"/>
<path d="M42 12V21H39.75C39.75 21 39.75 16.5 36 16.5C32.25 16.5 33 16.5 29.25 16.5C25.5 16.5 25.5 21 25.5 21H22.5C22.5 21 22.5 16.5 18.75 16.5C15 16.5 15.75 16.5 12 16.5C8.25 16.5 8.25 21 8.25 21H6V12H42Z" fill="#9A5740"/>
<path d="M42 12V21H39.75C39.75 21 39.75 16.5 36 16.5C32.25 16.5 33 16.5 29.25 16.5C25.5 16.5 25.5 21 25.5 21H22.5C22.5 21 22.5 16.5 18.75 16.5C15 16.5 15.75 16.5 12 16.5C8.25 16.5 8.25 21 8.25 21H6V15H38.5575C39.2175 15 39.75 14.4675 39.75 13.8075V12H42Z" fill="#734130"/>
<path d="M42 12H6L8.8725 9.1275C9.435 8.565 10.2 8.25 10.995 8.25H37.005C37.8 8.25 38.565 8.565 39.1275 9.1275L42 12Z" fill="#3F3136"/>
<path d="M39.75 21H25.5C25.5 21 25.5 16.5 29.25 16.5C33 16.5 32.25 16.5 36 16.5C39.75 16.5 39.75 21 39.75 21Z" fill="#F8F4E8"/>
<path d="M39.75 20.9989H25.5C25.5 20.9989 25.5 20.3239 25.7175 19.4989H35.265C36.0825 19.4989 36.75 18.8314 36.75 18.0139V16.5664C39.75 17.1214 39.75 20.9989 39.75 20.9989Z" fill="#D6D4CE"/>
<path d="M35.25 33.75H12.75V36.75H35.25V33.75Z" fill="#543F46"/>
<path d="M22.5 21H8.25C8.25 21 8.25 16.5 12 16.5C15.75 16.5 15 16.5 18.75 16.5C22.5 16.5 22.5 21 22.5 21Z" fill="#F8F4E8"/>
<path d="M22.5 20.9989H8.25C8.25 20.9989 8.25 20.3239 8.4675 19.4989H18.015C18.8325 19.4989 19.5 18.8314 19.5 18.0139V16.5664C22.5 17.1214 22.5 20.9989 22.5 20.9989Z" fill="#D6D4CE"/>
<path d="M4.5 33.4443V31.1873C4.5 30.9458 4.69575 30.75 4.93725 30.75H7.19428C7.58391 30.75 7.779 31.221 7.50347 31.4965L5.24644 33.7536C4.971 34.029 4.5 33.8339 4.5 33.4443Z" fill="#734130"/>
<path d="M12.75 24.75H6.75C6.33544 24.75 6 24.4142 6 24C6 23.5858 6.33544 23.25 6.75 23.25H12.75C13.1646 23.25 13.5 23.5858 13.5 24C13.5 24.4142 13.1646 24.75 12.75 24.75ZM18 24.75H16.5C16.0854 24.75 15.75 24.4142 15.75 24C15.75 23.5858 16.0854 23.25 16.5 23.25H18C18.4146 23.25 18.75 23.5858 18.75 24C18.75 24.4142 18.4146 24.75 18 24.75Z" fill="#988C90"/>
</svg>
