<svg width="48" height="48" viewBox="0 0 48 48" fill="none" xmlns="http://www.w3.org/2000/svg">
        <path d="M7.7145 6.75H32.274H36.726H45.75V45.75H7.5" fill="#EA9206"/>
        <path d="M12 42.75H39.75C39.75 41.9543 40.0661 41.1913 40.6287 40.6287C41.1913 40.0661 41.9544 39.75 42.75 39.75V12.75C41.9544 12.75 41.1913 12.4339 40.6287 11.8713C40.0661 11.3087 39.75 10.5456 39.75 9.75H12.75L12 42.75Z" fill="#C63C53"/>
        <path d="M12.75 12.75C16.3304 12.75 19.7642 14.1723 22.2959 16.7041C24.8277 19.2358 26.25 22.6696 26.25 26.25C26.25 29.8304 24.8277 33.2642 22.2959 35.7959C19.7642 38.3277 16.3304 39.75 12.75 39.75" fill="#F4A634"/>
        <path d="M12.75 15.75C15.5348 15.75 18.2055 16.8562 20.1746 18.8254C22.1438 20.7945 23.25 23.4652 23.25 26.25C23.25 29.0348 22.1438 31.7055 20.1746 33.6746C18.2055 35.6438 15.5348 36.75 12.75 36.75" fill="#EA9206"/>
        <path d="M12.75 18.75C14.7391 18.75 16.6468 19.5402 18.0533 20.9467C19.4598 22.3532 20.25 24.2609 20.25 26.25C20.25 28.2391 19.4598 30.1468 18.0533 31.5533C16.6468 32.9598 14.7391 33.75 12.75 33.75V18.75Z" fill="#F4A634"/>
        <path d="M12.75 21.75C13.9435 21.75 15.0881 22.2241 15.932 23.068C16.7759 23.9119 17.25 25.0565 17.25 26.25C17.25 27.4435 16.7759 28.5881 15.932 29.432C15.0881 30.2759 13.9435 30.75 12.75 30.75" fill="#EA9206"/>
        <path d="M36.75 9.75H29.25V42.75H36.75V9.75Z" fill="#C63C53"/>
        <path d="M37.5 43.5H28.5V9H37.5V43.5ZM30 42H36V10.5H30V42Z" fill="#EA9206"/>
        <path d="M36.3635 42.641L28.8635 38.141C28.7526 38.0743 28.6609 37.9801 28.5972 37.8674C28.5335 37.7548 28.5 37.6276 28.5 37.4982C28.5 37.3688 28.5335 37.2416 28.5972 37.129C28.6609 37.0164 28.7526 36.9221 28.8635 36.8555L35.2925 32.9982L28.8635 29.141C28.7526 29.0743 28.6609 28.9801 28.5972 28.8674C28.5335 28.7548 28.5 28.6276 28.5 28.4982C28.5 28.3688 28.5335 28.2416 28.5972 28.129C28.6609 28.0164 28.7526 27.9221 28.8635 27.8555L35.2925 23.9982L28.8635 20.141C28.7526 20.0743 28.6609 19.9801 28.5972 19.8674C28.5335 19.7548 28.5 19.6276 28.5 19.4982C28.5 19.3688 28.5335 19.2416 28.5972 19.129C28.6609 19.0164 28.7526 18.9221 28.8635 18.8555L35.2925 14.9982L28.8635 11.141L29.636 9.85547L37.136 14.3555C37.2469 14.4221 37.3387 14.5164 37.4024 14.629C37.4661 14.7416 37.4995 14.8688 37.4995 14.9982C37.4995 15.1276 37.4661 15.2548 37.4024 15.3674C37.3387 15.4801 37.2469 15.5743 37.136 15.641L30.707 19.4982L37.136 23.3555C37.2469 23.4221 37.3387 23.5164 37.4024 23.629C37.4661 23.7416 37.4995 23.8688 37.4995 23.9982C37.4995 24.1276 37.4661 24.2548 37.4024 24.3674C37.3387 24.4801 37.2469 24.5743 37.136 24.641L30.707 28.4982L37.136 32.3555C37.2469 32.4221 37.3387 32.5164 37.4024 32.629C37.4661 32.7416 37.4995 32.8688 37.4995 32.9982C37.4995 33.1276 37.4661 33.2548 37.4024 33.3674C37.3387 33.4801 37.2469 33.5743 37.136 33.641L30.707 37.4982L37.136 41.3555L36.3635 42.641Z" fill="#EA9206"/>
        <path d="M12.75 7.5V40.5H2.25V7.5C2.25 6.10761 2.80312 4.77226 3.78769 3.78769C4.77226 2.80312 6.10761 2.25 7.5 2.25C8.89239 2.25 10.2277 2.80312 11.2123 3.78769C12.1969 4.77226 12.75 6.10761 12.75 7.5Z" fill="#DD4759"/>
        <path d="M7.5 45.75C10.3995 45.75 12.75 43.3995 12.75 40.5C12.75 37.6005 10.3995 35.25 7.5 35.25C4.60051 35.25 2.25 37.6005 2.25 40.5C2.25 43.3995 4.60051 45.75 7.5 45.75Z" fill="#FFA500"/>
        <path d="M7.5 42.75C8.74264 42.75 9.75 41.7426 9.75 40.5C9.75 39.2574 8.74264 38.25 7.5 38.25C6.25736 38.25 5.25 39.2574 5.25 40.5C5.25 41.7426 6.25736 42.75 7.5 42.75Z" fill="#CC424C"/>
        <path d="M12.75 7.5V10.875C12.7544 15.0813 11.8131 19.2348 9.99557 23.0282C8.17806 26.8216 5.53093 30.1578 2.25 32.79V7.5C2.25 6.10761 2.80312 4.77226 3.78769 3.78769C4.77226 2.80312 6.10761 2.25 7.5 2.25C8.89239 2.25 10.2277 2.80312 11.2123 3.78769C12.1969 4.77226 12.75 6.10761 12.75 7.5Z" fill="#E8526B"/>
        <path d="M23 40C22.4067 40 21.8266 40.1759 21.3333 40.5056C20.8399 40.8352 20.4554 41.3038 20.2284 41.8519C20.0013 42.4001 19.9419 43.0033 20.0576 43.5853C20.1734 44.1672 20.4591 44.7018 20.8787 45.1213C21.2982 45.5409 21.8328 45.8266 22.4147 45.9424C22.9967 46.0581 23.5999 45.9987 24.1481 45.7716C24.6962 45.5446 25.1648 45.1601 25.4944 44.6667C25.8241 44.1734 26 43.5933 26 43C26 42.2044 25.6839 41.4413 25.1213 40.8787C24.5587 40.3161 23.7957 40 23 40ZM23 44.5C22.7033 44.5 22.4133 44.412 22.1666 44.2472C21.92 44.0824 21.7277 43.8481 21.6142 43.574C21.5007 43.2999 21.4709 42.9983 21.5288 42.7074C21.5867 42.4164 21.7296 42.1491 21.9393 41.9393C22.1491 41.7296 22.4164 41.5867 22.7074 41.5288C22.9983 41.4709 23.2999 41.5006 23.574 41.6142C23.8481 41.7277 24.0824 41.92 24.2472 42.1666C24.412 42.4133 24.5 42.7033 24.5 43C24.5 43.3978 24.342 43.7794 24.0607 44.0607C23.7794 44.342 23.3978 44.5 23 44.5Z" fill="black"/>
        <path d="M61.25 8.49975H52.226V9.99975H60.5V47.4997H26.9555C27.4446 47.0694 27.8609 46.5629 28.1885 45.9997H55.25C55.4489 45.9997 55.6397 45.9207 55.7803 45.7801C55.921 45.6394 56 45.4487 56 45.2497C56 44.653 56.2371 44.0807 56.659 43.6588C57.081 43.2368 57.6533 42.9997 58.25 42.9997C58.4489 42.9997 58.6397 42.9207 58.7803 42.7801C58.921 42.6394 59 42.4487 59 42.2497V15.2497C59 15.0508 58.921 14.8601 58.7803 14.7194C58.6397 14.5788 58.4489 14.4997 58.25 14.4997C57.6533 14.4997 57.081 14.2627 56.659 13.8407C56.2371 13.4188 56 12.8465 56 12.2497C56 12.0508 55.921 11.8601 55.7803 11.7194C55.6397 11.5788 55.4489 11.4997 55.25 11.4997H29V9.99975H47.774V8.49975H28.8028C28.4384 7.08597 27.5707 5.85371 26.3625 5.03408C25.1543 4.21446 23.6886 3.86379 22.2403 4.04786C20.7919 4.23193 19.4605 4.93808 18.4958 6.03386C17.531 7.12965 16.9992 8.53977 17 9.99975V42.9997C17.0018 44.5905 17.6345 46.1156 18.7593 47.2404C19.8842 48.3652 21.4093 48.998 23 48.9997H61.25C61.4489 48.9997 61.6397 48.9207 61.7803 48.7801C61.921 48.6394 62 48.4487 62 48.2497V9.24975C62 9.05084 61.921 8.86007 61.7803 8.71942C61.6397 8.57877 61.4489 8.49975 61.25 8.49975ZM33.5 28.7497C33.4976 27.4886 33.0417 26.2704 32.2155 25.3176C31.3894 24.3648 30.2481 23.7408 29 23.5597V22.044C30.6457 22.2334 32.1644 23.0213 33.2668 24.2579C34.3692 25.4944 34.9784 27.0932 34.9784 28.7497C34.9784 30.4063 34.3692 32.0051 33.2668 33.2416C32.1644 34.4782 30.6457 35.2661 29 35.4555V33.9397C30.2481 33.7587 31.3894 33.1347 32.2155 32.1819C33.0417 31.2291 33.4976 30.0109 33.5 28.7497ZM29 32.4247V25.0747C29.8477 25.2469 30.6099 25.7068 31.1573 26.3766C31.7047 27.0463 32.0038 27.8847 32.0038 28.7497C32.0038 29.6148 31.7047 30.4532 31.1573 31.1229C30.6099 31.7927 29.8477 32.2526 29 32.4247ZM36.5 28.7497C36.4973 26.6927 35.7269 24.7108 34.3397 23.192C32.9525 21.6731 31.0483 20.7267 29 20.538V19.038C31.4491 19.2233 33.7378 20.3269 35.4077 22.128C37.0777 23.929 38.0055 26.2944 38.0055 28.7505C38.0055 31.2066 37.0777 33.572 35.4077 35.373C33.7378 37.1741 31.4491 38.2777 29 38.463V36.963C31.0486 36.7743 32.953 35.8277 34.3402 34.3085C35.7274 32.7893 36.4977 30.807 36.5 28.7497ZM39.5 28.7497C39.4956 25.8985 38.4091 23.1552 36.4601 21.0741C34.5111 18.9929 31.8448 17.7291 29 17.538V16.038C32.2475 16.2214 35.3017 17.6406 37.5359 20.0046C39.7701 22.3685 41.0149 25.4978 41.0149 28.7505C41.0149 32.0032 39.7701 35.1325 37.5359 37.4964C35.3017 39.8604 32.2475 41.2796 29 41.463V39.963C31.8451 39.7718 34.5116 38.5078 36.4606 36.4264C38.4097 34.3449 39.496 31.6013 39.5 28.7497ZM51.5 34.1752L46.2073 30.9997L51.5 27.8242V34.1752ZM45.5 29.6752V23.3242L50.7927 26.4997L45.5 29.6752ZM45.5 32.3242L50.7927 35.4997L45.5 38.6752V32.3242ZM51.5 36.8242V43.1752L46.2073 39.9997L51.5 36.8242ZM51.5 25.1752L46.2073 21.9997L51.5 18.8242V25.1752ZM45.5 20.6752V14.3242L50.7927 17.4997L45.5 20.6752ZM45.5 41.3242L50.792 44.4997H45.5V41.3242ZM57.5 15.9247V41.5747C56.7799 41.7229 56.119 42.0789 55.5991 42.5988C55.0792 43.1187 54.7232 43.7796 54.575 44.4997H53V12.9997H54.575C54.7232 13.7199 55.0792 14.3808 55.5991 14.9007C56.119 15.4205 56.7799 15.7766 57.5 15.9247ZM51.5 16.176L46.208 12.9997H51.5V16.176ZM44 12.9997V44.4997H28.8028C28.9319 44.0101 28.9982 43.5061 29 42.9997V42.9615C32.6457 42.778 36.0814 41.2005 38.5968 38.5552C41.1123 35.91 42.515 32.3993 42.515 28.749C42.515 25.0987 41.1123 21.588 38.5968 18.9428C36.0814 16.2975 32.6457 14.72 29 14.5365V12.9997H44ZM18.5 9.99975C18.5 8.80627 18.9741 7.66168 19.818 6.81777C20.6619 5.97385 21.8065 5.49975 23 5.49975C24.1935 5.49975 25.3381 5.97385 26.182 6.81777C27.0259 7.66168 27.5 8.80627 27.5 9.99975V39.0443C26.9392 38.4021 26.2475 37.8875 25.4713 37.5348C24.6952 37.1822 23.8525 36.9997 23 36.9997C22.1475 36.9997 21.3048 37.1822 20.5287 37.5348C19.7525 37.8875 19.0608 38.4021 18.5 39.0443V9.99975ZM18.5 42.9997C18.5 42.1097 18.7639 41.2397 19.2584 40.4997C19.7529 39.7597 20.4557 39.1829 21.2779 38.8423C22.1002 38.5017 23.005 38.4126 23.8779 38.5862C24.7508 38.7598 25.5526 39.1884 26.182 39.8178C26.8113 40.4471 27.2399 41.2489 27.4135 42.1218C27.5872 42.9948 27.4981 43.8996 27.1575 44.7218C26.8169 45.5441 26.2401 46.2469 25.5001 46.7414C24.76 47.2358 23.89 47.4997 23 47.4997C21.8069 47.4986 20.663 47.0241 19.8193 46.1804C18.9757 45.3368 18.5012 44.1929 18.5 42.9997Z" fill="black"/>
</svg>
