<svg width="48" height="48" viewBox="0 0 48 48" fill="none" xmlns="http://www.w3.org/2000/svg">
        <path d="M7.7145 6.75H32.274H36.726H45.75V45.75H7.5" fill="#EA9206"/>
        <path d="M12 42.75H39.75C39.75 41.9543 40.0661 41.1913 40.6287 40.6287C41.1913 40.0661 41.9544 39.75 42.75 39.75V12.75C41.9544 12.75 41.1913 12.4339 40.6287 11.8713C40.0661 11.3087 39.75 10.5456 39.75 9.75H12.75L12 42.75Z" fill="#C63C53"/>
        <path d="M12.75 12.75C16.3304 12.75 19.7642 14.1723 22.2959 16.7041C24.8277 19.2358 26.25 22.6696 26.25 26.25C26.25 29.8304 24.8277 33.2642 22.2959 35.7959C19.7642 38.3277 16.3304 39.75 12.75 39.75" fill="#F4A634"/>
        <path d="M12.75 15.75C15.5348 15.75 18.2055 16.8562 20.1746 18.8254C22.1438 20.7945 23.25 23.4652 23.25 26.25C23.25 29.0348 22.1438 31.7055 20.1746 33.6746C18.2055 35.6438 15.5348 36.75 12.75 36.75" fill="#EA9206"/>
        <path d="M12.75 18.75C14.7391 18.75 16.6468 19.5402 18.0533 20.9467C19.4598 22.3532 20.25 24.2609 20.25 26.25C20.25 28.2391 19.4598 30.1468 18.0533 31.5533C16.6468 32.9598 14.7391 33.75 12.75 33.75V18.75Z" fill="#F4A634"/>
        <path d="M12.75 21.75C13.9435 21.75 15.0881 22.2241 15.932 23.068C16.7759 23.9119 17.25 25.0565 17.25 26.25C17.25 27.4435 16.7759 28.5881 15.932 29.432C15.0881 30.2759 13.9435 30.75 12.75 30.75" fill="#EA9206"/>
        <path d="M36.75 9.75H29.25V42.75H36.75V9.75Z" fill="#C63C53"/>
        <path d="M37.5 43.5H28.5V9H37.5V43.5ZM30 42H36V10.5H30V42Z" fill="#EA9206"/>
        <path d="M36.3635 42.641L28.8635 38.141C28.7526 38.0743 28.6609 37.9801 28.5972 37.8674C28.5335 37.7548 28.5 37.6276 28.5 37.4982C28.5 37.3688 28.5335 37.2416 28.5972 37.129C28.6609 37.0164 28.7526 36.9221 28.8635 36.8555L35.2925 32.9982L28.8635 29.141C28.7526 29.0743 28.6609 28.9801 28.5972 28.8674C28.5335 28.7548 28.5 28.6276 28.5 28.4982C28.5 28.3688 28.5335 28.2416 28.5972 28.129C28.6609 28.0164 28.7526 27.9221 28.8635 27.8555L35.2925 23.9982L28.8635 20.141C28.7526 20.0743 28.6609 19.9801 28.5972 19.8674C28.5335 19.7548 28.5 19.6276 28.5 19.4982C28.5 19.3688 28.5335 19.2416 28.5972 19.129C28.6609 19.0164 28.7526 18.9221 28.8635 18.8555L35.2925 14.9982L28.8635 11.141L29.636 9.85547L37.136 14.3555C37.2469 14.4221 37.3387 14.5164 37.4024 14.629C37.4661 14.7416 37.4995 14.8688 37.4995 14.9982C37.4995 15.1276 37.4661 15.2548 37.4024 15.3674C37.3387 15.4801 37.2469 15.5743 37.136 15.641L30.707 19.4982L37.136 23.3555C37.2469 23.4221 37.3387 23.5164 37.4024 23.629C37.4661 23.7416 37.4995 23.8688 37.4995 23.9982C37.4995 24.1276 37.4661 24.2548 37.4024 24.3674C37.3387 24.4801 37.2469 24.5743 37.136 24.641L30.707 28.4982L37.136 32.3555C37.2469 32.4221 37.3387 32.5164 37.4024 32.629C37.4661 32.7416 37.4995 32.8688 37.4995 32.9982C37.4995 33.1276 37.4661 33.2548 37.4024 33.3674C37.3387 33.4801 37.2469 33.5743 37.136 33.641L30.707 37.4982L37.136 41.3555L36.3635 42.641Z" fill="#EA9206"/>
        <path d="M12.75 7.5V40.5H2.25V7.5C2.25 6.10761 2.80312 4.77226 3.78769 3.78769C4.77226 2.80312 6.10761 2.25 7.5 2.25C8.89239 2.25 10.2277 2.80312 11.2123 3.78769C12.1969 4.77226 12.75 6.10761 12.75 7.5Z" fill="#DD4759"/>
        <path d="M7.5 45.75C10.3995 45.75 12.75 43.3995 12.75 40.5C12.75 37.6005 10.3995 35.25 7.5 35.25C4.60051 35.25 2.25 37.6005 2.25 40.5C2.25 43.3995 4.60051 45.75 7.5 45.75Z" fill="#FFA500"/>
        <path d="M7.5 42.75C8.74264 42.75 9.75 41.7426 9.75 40.5C9.75 39.2574 8.74264 38.25 7.5 38.25C6.25736 38.25 5.25 39.2574 5.25 40.5C5.25 41.7426 6.25736 42.75 7.5 42.75Z" fill="#CC424C"/>
        <path d="M12.75 7.5V10.875C12.7544 15.0813 11.8131 19.2348 9.99557 23.0282C8.17806 26.8216 5.53093 30.1578 2.25 32.79V7.5C2.25 6.10761 2.80312 4.77226 3.78769 3.78769C4.77226 2.80312 6.10761 2.25 7.5 2.25C8.89239 2.25 10.2277 2.80312 11.2123 3.78769C12.1969 4.77226 12.75 6.10761 12.75 7.5Z" fill="#E8526B"/>
</svg>
