<svg width="48" height="48" viewBox="0 0 48 48" fill="none" xmlns="http://www.w3.org/2000/svg">
<g clip-path="url(#clip0_8659_21316)">
<path d="M18.1484 13.293C17.6313 13.293 17.1353 13.4984 16.7696 13.8641C16.4039 14.2298 16.1984 14.7258 16.1984 15.243V23.7742C16.1984 24.2914 16.4039 24.7874 16.7696 25.1531C17.1353 25.5188 17.6313 25.7242 18.1484 25.7242C18.6656 25.7242 19.1616 25.5188 19.5273 25.1531C19.893 24.7874 20.0984 24.2914 20.0984 23.7742V15.243C20.0984 14.7258 19.893 14.2298 19.5273 13.8641C19.1616 13.4984 18.6656 13.293 18.1484 13.293ZM29.8484 14.0242C29.3313 14.0242 28.8353 14.2297 28.4696 14.5954C28.1039 14.9611 27.8984 15.457 27.8984 15.9742V23.7742C27.8984 24.2914 28.1039 24.7874 28.4696 25.1531C28.8353 25.5188 29.3313 25.7242 29.8484 25.7242C30.3656 25.7242 30.8616 25.5188 31.2273 25.1531C31.593 24.7874 31.7984 24.2914 31.7984 23.7742V15.9742C31.7984 15.457 31.593 14.9611 31.2273 14.5954C30.8616 14.2297 30.3656 14.0242 29.8484 14.0242ZM10.3484 31.5742C9.83127 31.5742 9.33528 31.7797 8.96958 32.1454C8.60388 32.5111 8.39844 33.007 8.39844 33.5242V47.1742C8.39844 47.6914 8.60388 48.1874 8.96958 48.5531C9.33528 48.9188 9.83127 49.1242 10.3484 49.1242C10.8656 49.1242 11.3616 48.9188 11.7273 48.5531C12.093 48.1874 12.2984 47.6914 12.2984 47.1742V33.5242C12.2984 33.007 12.093 32.5111 11.7273 32.1454C11.3616 31.7797 10.8656 31.5742 10.3484 31.5742ZM37.6484 31.5742C37.1313 31.5742 36.6353 31.7797 36.2696 32.1454C35.9039 32.5111 35.6984 33.007 35.6984 33.5242V47.1742C35.6984 47.6914 35.9039 48.1874 36.2696 48.5531C36.6353 48.9188 37.1313 49.1242 37.6484 49.1242C38.1656 49.1242 38.6616 48.9188 39.0273 48.5531C39.393 48.1874 39.5984 47.6914 39.5984 47.1742V33.5242C39.5984 33.007 39.393 32.5111 39.0273 32.1454C38.6616 31.7797 38.1656 31.5742 37.6484 31.5742ZM29.8484 31.5742C29.3313 31.5742 28.8353 31.7797 28.4696 32.1454C28.1039 32.5111 27.8984 33.007 27.8984 33.5242V41.3242C27.8984 41.8414 28.1039 42.3374 28.4696 42.7031C28.8353 43.0688 29.3313 43.2742 29.8484 43.2742C30.3656 43.2742 30.8616 43.0688 31.2273 42.7031C31.593 42.3374 31.7984 41.8414 31.7984 41.3242V33.5242C31.7984 33.007 31.593 32.5111 31.2273 32.1454C30.8616 31.7797 30.3656 31.5742 29.8484 31.5742ZM18.1484 31.5742C17.6313 31.5742 17.1353 31.7797 16.7696 32.1454C16.4039 32.5111 16.1984 33.007 16.1984 33.5242V41.3242C16.1984 41.8414 16.4039 42.3374 16.7696 42.7031C17.1353 43.0688 17.6313 43.2742 18.1484 43.2742C18.6656 43.2742 19.1616 43.0688 19.5273 42.7031C19.893 42.3374 20.0984 41.8414 20.0984 41.3242V33.5242C20.0984 33.007 19.893 32.5111 19.5273 32.1454C19.1616 31.7797 18.6656 31.5742 18.1484 31.5742Z" fill="#13104C"/>
<path d="M33.7516 0.375H14.2516C12.0977 0.375 10.3516 2.12109 10.3516 4.275V12.075C10.3516 14.2289 12.0977 15.975 14.2516 15.975H33.7516C35.9055 15.975 37.6516 14.2289 37.6516 12.075V4.275C37.6516 2.12109 35.9055 0.375 33.7516 0.375Z" fill="#4C46C8"/>
<path d="M40.3392 30.1273L37.9992 24.2773C37.7125 23.5516 37.2135 22.9293 36.5674 22.4917C35.9214 22.054 35.1584 21.8214 34.3781 21.8242H13.6184C12.8381 21.8217 12.0753 22.0544 11.4293 22.492C10.7833 22.9296 10.2842 23.5518 9.99724 24.2773L7.65724 30.1273C7.42086 30.719 7.33304 31.3596 7.40146 31.9931C7.46989 32.6265 7.69248 33.2336 8.04976 33.7612C8.40704 34.2887 8.88814 34.7207 9.45097 35.0193C10.0138 35.318 10.6412 35.4742 11.2784 35.4742H36.7181C37.3552 35.4742 37.9827 35.318 38.5455 35.0193C39.1083 34.7207 39.5894 34.2887 39.9467 33.7612C40.304 33.2336 40.5266 32.6265 40.595 31.9931C40.6634 31.3596 40.5756 30.719 40.3392 30.1273Z" fill="#4C46C8"/>
</g>
<defs>
<clipPath id="clip0_8659_21316">
<rect width="48" height="48" fill="white"/>
</clipPath>
</defs>
</svg>
