<svg width="48" height="48" viewBox="0 0 48 48" fill="none" xmlns="http://www.w3.org/2000/svg">
    <rect width="3.6" height="10.2" transform="translate(6.21484 13.1992)" fill="#2B8AFC"/>
    <path d="M6.21484 9.60156H41.6148C41.9462 9.60156 42.2148 9.87019 42.2148 10.2016H6.21484V9.60156Z" fill="#343657"/>
    <path d="M28.4141 37.1992H42.2141V37.7992C42.2141 38.1306 41.9454 38.3992 41.6141 38.3992H29.6141C28.9513 38.3992 28.4141 37.862 28.4141 37.1992Z" fill="#353456"/>
    <rect width="9.56066" height="3.06885" transform="translate(29.4258 34.3867)" fill="#2B8AFC"/>
    <rect width="9.6" height="21.6" transform="translate(29.6133 13.1992)" fill="#2B8AFC"/>
    <rect width="25.4951" height="1.53443" transform="translate(41.7031 11.9609) rotate(90)" fill="#13277E"/>
    <g clip-path="url(#clip0_11020_100627)">
        <rect width="19.2" height="10.2" transform="translate(10.4141 13.1992)" fill="#2B8AFC"/>
        <rect width="31.9869" height="0.826227" transform="translate(37.3242 23.9375) rotate(-180)" fill="#343657"/>
    </g>
    <rect width="11.5672" height="1.06229" transform="translate(10.875 12) rotate(90)" fill="#353456"/>
    <rect width="36" height="1.8" transform="translate(6.21484 10.1992)" fill="#13277E"/>
    <path d="M5.61328 10.2016C5.61328 9.87019 5.88191 9.60156 6.21328 9.60156H6.67558V24.0016C6.08889 24.0016 5.61328 23.526 5.61328 22.9393V10.2016Z" fill="#333458"/>
    <path d="M41.7011 9.60156C42.1574 9.60156 42.5273 9.97148 42.5273 10.4278L42.5273 37.5753C42.5273 38.0316 42.1574 38.4016 41.7011 38.4016L41.7011 9.60156Z" fill="#343657"/>
    <path d="M29.6133 22.8008L29.6133 38.4008C28.9505 38.4008 28.4133 37.8635 28.4133 37.2008L28.4133 22.8008L29.6133 22.8008Z" fill="#343657"/>
    <rect width="26.4" height="1.182" transform="translate(40.168 12) rotate(90)" fill="#343657"/>
    <rect width="33.6" height="1.2" transform="translate(39.8125 13.1992) rotate(-180)" fill="#343657"/>
    <rect width="11.5672" height="0.944262" transform="translate(28.5977 30.6797)" fill="#353456"/>
    <rect width="11.5672" height="0.944262" transform="translate(28.4141 22.8008)" fill="#353456"/>
    <path d="M29.0156 24L6.81563 24C6.48425 24 6.21563 23.7314 6.21563 23.4L6.21563 22.8L29.0156 22.8L29.0156 24Z" fill="#343657"/>
    <defs>
        <clipPath id="clip0_11020_100627">
            <rect width="19.2" height="10.2" fill="white" transform="translate(10.4141 13.1992)"/>
        </clipPath>
    </defs>
</svg>
