<svg width="49" height="48" viewBox="0 0 49 48" fill="none" xmlns="http://www.w3.org/2000/svg">
<path d="M18.5 43.5H12.5C11.5721 43.4989 10.6825 43.1298 10.0264 42.4736C9.37024 41.8175 9.00113 40.9279 9 40V37C9 36.6022 9.15804 36.2206 9.43934 35.9393C9.72064 35.658 10.1022 35.5 10.5 35.5C10.8978 35.5 11.2794 35.658 11.5607 35.9393C11.842 36.2206 12 36.6022 12 37V40C12.0003 40.1325 12.053 40.2596 12.1467 40.3533C12.2404 40.447 12.3675 40.4997 12.5 40.5H18.5C18.8978 40.5 19.2794 40.658 19.5607 40.9393C19.842 41.2206 20 41.6022 20 42C20 42.3978 19.842 42.7794 19.5607 43.0607C19.2794 43.342 18.8978 43.5 18.5 43.5ZM36.5 43.5H30.5C30.1022 43.5 29.7206 43.342 29.4393 43.0607C29.158 42.7794 29 42.3978 29 42C29 41.6022 29.158 41.2206 29.4393 40.9393C29.7206 40.658 30.1022 40.5 30.5 40.5H36.5C36.6325 40.4997 36.7596 40.447 36.8533 40.3533C36.947 40.2596 36.9997 40.1325 37 40V37C37 36.6022 37.158 36.2206 37.4393 35.9393C37.7206 35.658 38.1022 35.5 38.5 35.5C38.8978 35.5 39.2794 35.658 39.5607 35.9393C39.842 36.2206 40 36.6022 40 37V40C39.9989 40.9279 39.6298 41.8175 38.9736 42.4736C38.3175 43.1298 37.4279 43.4989 36.5 43.5Z" fill="#FFE082"/>
<path d="M24.4969 20.5C24.0991 20.4999 23.7177 20.3418 23.4364 20.0605C23.1551 19.7792 22.997 19.3978 22.9969 19V15.71C23.0043 15.6129 22.9851 15.5156 22.9414 15.4285C22.8977 15.3415 22.8312 15.268 22.7489 15.2158C21.7891 14.8942 20.9367 14.314 20.2855 13.5391C19.6343 12.7641 19.2095 11.8245 19.058 10.8236C18.9066 9.82279 19.0342 8.79956 19.4269 7.86659C19.8196 6.93362 20.4621 6.12711 21.2837 5.53585C22.1053 4.9446 23.0741 4.59153 24.0835 4.51553C25.0929 4.43953 26.1037 4.64354 27.0046 5.10509C27.9055 5.56665 28.6615 6.26786 29.1895 7.1315C29.7174 7.99515 29.9969 8.98774 29.9969 9.99998C29.9969 10.3978 29.8389 10.7793 29.5576 11.0606C29.2763 11.3419 28.8948 11.5 28.4969 11.5C28.0991 11.5 27.7176 11.3419 27.4363 11.0606C27.155 10.7793 26.9969 10.3978 26.9969 9.99998C26.9966 9.54 26.8694 9.08902 26.6293 8.69669C26.3892 8.30435 26.0455 7.98587 25.636 7.77629C25.2265 7.56672 24.7672 7.47417 24.3085 7.50884C23.8498 7.54351 23.4096 7.70405 23.0363 7.97279C22.663 8.24153 22.3711 8.60806 22.1927 9.03203C22.0142 9.456 21.9563 9.92098 22.0251 10.3758C22.0939 10.8306 22.2869 11.2576 22.5827 11.6098C22.8786 11.962 23.2659 12.2257 23.702 12.372C24.3864 12.6173 24.9762 13.0716 25.3881 13.6707C25.7999 14.2697 26.0129 14.9832 25.9969 15.71V19C25.9968 19.3978 25.8388 19.7792 25.5575 20.0605C25.2762 20.3418 24.8947 20.4999 24.4969 20.5Z" fill="#1B1464"/>
<path d="M38.8425 38.5H10.155C9.06737 38.4997 8.00427 38.1769 7.10005 37.5726C6.19583 36.9682 5.49108 36.1093 5.07489 35.1045C4.65871 34.0996 4.54976 32.994 4.76182 31.9272C4.97388 30.8605 5.49744 29.8806 6.26631 29.1113L16.5593 18.8184C17.405 17.9773 18.5482 17.5036 19.7409 17.5H29.2565C30.4493 17.5036 31.5924 17.9773 32.4382 18.8184L42.7311 29.1113C43.5 29.8806 44.0236 30.8605 44.2356 31.9272C44.4477 32.994 44.3387 34.0996 43.9226 35.1044C43.5064 36.1093 42.8016 36.9682 41.8974 37.5725C40.9932 38.1769 39.9301 38.4997 38.8425 38.5ZM19.7409 20.5C19.3433 20.5012 18.9623 20.6591 18.6804 20.9395L8.38741 31.2324C8.03802 31.5821 7.80012 32.0275 7.70378 32.5124C7.60744 32.9972 7.65699 33.4997 7.84615 33.9564C8.03531 34.4132 8.3556 34.8035 8.76655 35.0783C9.1775 35.353 9.66066 35.4998 10.155 35.5H38.8425C39.3368 35.4998 39.82 35.353 40.2309 35.0783C40.6419 34.8035 40.9622 34.4131 41.1513 33.9564C41.3405 33.4997 41.39 32.9972 41.2937 32.5124C41.1973 32.0275 40.9594 31.5821 40.61 31.2324L30.3171 20.9395C30.0352 20.6591 29.6541 20.5012 29.2565 20.5H19.7409Z" fill="#1B1464"/>
</svg>
