<svg width="47" height="46" viewBox="0 0 47 46" fill="none" xmlns="http://www.w3.org/2000/svg">
<path opacity="0.15" d="M33.1992 45.8984C39.5505 45.8984 44.6992 45.2269 44.6992 44.3984C44.6992 43.57 39.5505 42.8984 33.1992 42.8984C26.8479 42.8984 21.6992 43.57 21.6992 44.3984C21.6992 45.2269 26.8479 45.8984 33.1992 45.8984Z" fill="#45413C"/>
<path d="M16.6992 22.5L13.0992 24.1C12.5992 24.3 12.1992 24.8 12.1992 25.4C12.1992 26.2 12.7992 26.9 13.5992 26.9C14.1992 26.9 14.6992 26.6 14.9992 26.1L16.7992 22.6C16.8992 22.6 16.7992 22.5 16.6992 22.5Z" fill="#2B8AFC" stroke="#45413C" stroke-miterlimit="10" stroke-linecap="round" stroke-linejoin="round"/>
<path d="M9.2 29.8009L6 32.0009C5.5 32.3009 5.3 32.9009 5.4 33.5009C5.5 34.301 6.3 34.901 7.1 34.701C7.7 34.601 8.1 34.201 8.3 33.701L9.4 30.0009C9.3 29.8009 9.2 29.7009 9.2 29.8009Z" fill="#2B8AFC" stroke="#45413C" stroke-miterlimit="10" stroke-linecap="round" stroke-linejoin="round"/>
<path d="M13.7996 17.5L9.99957 18.3C9.39957 18.4 8.99957 18.8 8.89957 19.4C8.69957 20.2 9.19957 21 9.99957 21.2C10.5996 21.3 11.0996 21.1 11.4996 20.7L13.9996 17.7C13.8996 17.6 13.8996 17.5 13.7996 17.5Z" fill="#2B8AFC" stroke="#45413C" stroke-miterlimit="10" stroke-linecap="round" stroke-linejoin="round"/>
<path d="M5.19922 23.1992L1.59922 24.6992C1.09922 24.8992 0.699219 25.3992 0.699219 25.9992C0.699219 26.7992 1.29922 27.4992 2.09922 27.5992C2.69922 27.5992 3.19922 27.2992 3.49922 26.7992L5.29922 23.3992C5.29922 23.2992 5.29922 23.1992 5.19922 23.1992Z" fill="#2B8AFC" stroke="#45413C" stroke-miterlimit="10" stroke-linecap="round" stroke-linejoin="round"/>
<path d="M21.3008 26.6L18.0008 28.7C17.5008 29 17.3008 29.6 17.3008 30.1C17.4008 30.9 18.1008 31.5 19.0008 31.4C19.6008 31.3 20.0008 30.9 20.2008 30.4L21.4008 26.7C21.4008 26.6 21.4008 26.5 21.3008 26.6Z" fill="#2B8AFC" stroke="#45413C" stroke-miterlimit="10" stroke-linecap="round" stroke-linejoin="round"/>
<path d="M15.3996 35.3999L12.5996 38.0999C12.1996 38.4999 11.9996 39.0999 12.1996 39.5999C12.4996 40.3999 13.2996 40.7999 14.0996 40.4999C14.5996 40.2999 14.9996 39.7999 15.0996 39.2999L15.4996 35.3999C15.5996 35.3999 15.4996 35.2999 15.3996 35.3999Z" fill="#2B8AFC" stroke="#45413C" stroke-miterlimit="10" stroke-linecap="round" stroke-linejoin="round"/>
<path d="M26.5988 28.7984L23.7988 31.4984C23.3988 31.8984 23.1988 32.4984 23.3988 32.9984C23.6988 33.7984 24.4988 34.1984 25.2988 33.8984C25.7988 33.6984 26.1988 33.1984 26.2988 32.6984L26.7988 28.7984C26.6988 28.7984 26.5988 28.6984 26.5988 28.7984Z" fill="#2B8AFC" stroke="#45413C" stroke-miterlimit="10" stroke-linecap="round" stroke-linejoin="round"/>
<path d="M22.6006 38.8999L20.2006 41.9999C19.8006 42.4999 19.8006 43.0999 20.1006 43.5999C20.5006 44.2999 21.4006 44.5999 22.1006 44.1999C22.6006 43.8999 22.9006 43.3999 22.9006 42.7999L22.8006 38.8999C22.8006 38.8999 22.7006 38.7999 22.6006 38.8999Z" fill="#2B8AFC" stroke="#45413C" stroke-miterlimit="10" stroke-linecap="round" stroke-linejoin="round"/>
<path d="M36.5 10.2008C36.8 9.90078 36.8 9.50078 36.5 9.20078L33.7 6.40078C33.4 6.10078 33 6.10078 32.7 6.40078C31.9 7.20078 30.8 7.70078 29.7 7.70078H19L35.5 24.2008L35.3 13.4008C35.3 12.2008 35.7 11.0008 36.5 10.2008Z" fill="#C0DCEB"/>
<path d="M30.7 9.60078C32 9.50078 33.2 8.90078 34.2 7.90078C34.4 7.70078 34.6 7.60078 34.9 7.60078L33.7 6.40078C33.4 6.10078 33 6.10078 32.7 6.40078C31.9 7.20078 30.8 7.70078 29.7 7.70078H19L21.8 10.5008L30.7 9.60078Z" fill="#DAEDF7"/>
<path d="M36.5 10.2008C36.8 9.90078 36.8 9.50078 36.5 9.20078L33.7 6.40078C33.4 6.10078 33 6.10078 32.7 6.40078C31.9 7.20078 30.8 7.70078 29.7 7.70078H19L35.5 24.2008L35.3 13.4008C35.3 12.2008 35.7 11.0008 36.5 10.2008Z" stroke="#45413C" stroke-miterlimit="10" stroke-linecap="round" stroke-linejoin="round"/>
<path d="M33.7023 26.4977L16.6023 9.39766C16.5023 9.29766 16.5023 8.99766 16.6023 8.89766L18.2023 7.29766C18.3023 7.19766 18.6023 7.19766 18.7023 7.29766L35.8023 24.3977C35.9023 24.4977 35.9023 24.7977 35.8023 24.8977L34.2023 26.4977C34.1023 26.5977 33.8023 26.5977 33.7023 26.4977Z" fill="#E8F4FA"/>
<path d="M23.3023 11.9992L18.7023 7.39922C18.6023 7.29922 18.3023 7.29922 18.2023 7.39922L16.6023 8.99922C16.5023 9.09922 16.5023 9.39922 16.6023 9.49922L21.2023 14.0992L23.3023 11.9992Z" fill="#F9F9F9"/>
<path d="M33.7023 26.4977L16.6023 9.39766C16.5023 9.29766 16.5023 8.99766 16.6023 8.89766L18.2023 7.29766C18.3023 7.19766 18.6023 7.19766 18.7023 7.29766L35.8023 24.3977C35.9023 24.4977 35.9023 24.7977 35.8023 24.8977L34.2023 26.4977C34.1023 26.5977 33.8023 26.5977 33.7023 26.4977Z" stroke="#45413C" stroke-miterlimit="10" stroke-linecap="round" stroke-linejoin="round"/>
<path d="M31.4008 26.6984L16.4008 11.6984C16.1008 11.3984 16.1008 10.9984 16.4008 10.6984L17.2008 9.89844L33.2008 25.8984L32.4008 26.6984C32.1008 26.9984 31.6008 26.9984 31.4008 26.6984Z" fill="#ADC4D9"/>
<path d="M18.1008 12.5C17.9008 12.7 17.8008 13.1 18.0008 13.4L16.4008 11.8C16.1008 11.5 16.1008 11.1 16.4008 10.8L17.2008 10L19.0008 11.8L18.1008 12.5Z" fill="#C0DCEB"/>
<path d="M31.4008 26.6984L16.4008 11.6984C16.1008 11.3984 16.1008 10.9984 16.4008 10.6984L17.2008 9.89844L33.2008 25.8984L32.4008 26.6984C32.1008 26.9984 31.6008 26.9984 31.4008 26.6984Z" stroke="#45413C" stroke-miterlimit="10" stroke-linecap="round" stroke-linejoin="round"/>
<path d="M46.3023 3.49922V2.09922C46.3023 1.59922 45.9023 1.19922 45.4023 1.19922H42.3023C40.4023 1.19922 38.6023 1.89922 37.3023 3.29922L33.9023 6.69922L36.2023 8.99922L39.5023 5.59922C40.3023 4.79922 41.3023 4.39922 42.4023 4.39922H45.3023C45.9023 4.39922 46.3023 3.99922 46.3023 3.49922Z" fill="#E8F4FA"/>
<path d="M37.3023 4.79922C38.6023 3.49922 40.4023 2.69922 42.3023 2.69922H45.4023C45.9023 2.69922 46.3023 3.09922 46.3023 3.49922V2.09922C46.3023 1.59922 45.9023 1.19922 45.4023 1.19922H42.3023C40.4023 1.19922 38.6023 1.89922 37.3023 3.29922L33.9023 6.69922L34.7023 7.49922L37.3023 4.79922Z" fill="#F9F9F9"/>
<path d="M46.3023 3.49922V2.09922C46.3023 1.59922 45.9023 1.19922 45.4023 1.19922H42.3023C40.4023 1.19922 38.6023 1.89922 37.3023 3.29922L33.9023 6.69922L36.2023 8.99922L39.5023 5.59922C40.3023 4.79922 41.3023 4.39922 42.4023 4.39922H45.3023C45.9023 4.39922 46.3023 3.99922 46.3023 3.49922Z" stroke="#45413C" stroke-miterlimit="10" stroke-linecap="round" stroke-linejoin="round"/>
</svg>
