<svg width="69" height="48" viewBox="0 0 69 48" fill="none" xmlns="http://www.w3.org/2000/svg">
<path d="M40.2583 22.9141H7.74219V35.9205H40.2583V22.9141Z" fill="#29678C"/>
<path d="M40.2583 26.7078H40.0312C39.7817 26.7078 39.5386 26.6293 39.3362 26.4834C39.1338 26.3375 38.9824 26.1316 38.9035 25.8949C38.8246 25.6582 38.6732 25.4524 38.4708 25.3065C38.2684 25.1606 38.0252 25.0821 37.7757 25.082H37.3216C37.0721 25.0821 36.8289 25.1606 36.6265 25.3065C36.4241 25.4524 36.2727 25.6582 36.1938 25.8949C36.1149 26.1316 35.9635 26.3375 35.7611 26.4834C35.5587 26.6293 35.3155 26.7078 35.066 26.7078H34.6119C34.3624 26.7078 34.1192 26.6293 33.9168 26.4834C33.7144 26.3375 33.563 26.1316 33.4841 25.8949C33.4052 25.6582 33.2538 25.4524 33.0514 25.3065C32.849 25.1606 32.6059 25.0821 32.3564 25.082H31.9022C31.6527 25.0821 31.4095 25.1606 31.2071 25.3065C31.0047 25.4524 30.8534 25.6582 30.7744 25.8949C30.6955 26.1316 30.5441 26.3375 30.3417 26.4834C30.1393 26.6293 29.8962 26.7078 29.6467 26.7078H29.1925C28.943 26.7078 28.6999 26.6293 28.4975 26.4834C28.2951 26.3375 28.1437 26.1316 28.0648 25.8949C27.9858 25.6582 27.8345 25.4524 27.6321 25.3065C27.4297 25.1606 27.1865 25.0821 26.937 25.082H26.4829C26.2334 25.0821 25.9902 25.1606 25.7878 25.3065C25.5854 25.4524 25.434 25.6582 25.3551 25.8949C25.2762 26.1316 25.1248 26.3375 24.9224 26.4834C24.72 26.6293 24.4768 26.7078 24.2273 26.7078H23.7732C23.5237 26.7078 23.2805 26.6293 23.0781 26.4834C22.8757 26.3375 22.7243 26.1316 22.6454 25.8949C22.5665 25.6582 22.4151 25.4524 22.2127 25.3065C22.0103 25.1606 21.7671 25.0821 21.5176 25.082H21.0635C20.814 25.0821 20.5708 25.1606 20.3684 25.3065C20.166 25.4524 20.0147 25.6582 19.9357 25.8949C19.8568 26.1316 19.7054 26.3375 19.503 26.4834C19.3006 26.6293 19.0575 26.7078 18.808 26.7078H18.3538C18.1043 26.7078 17.8612 26.6293 17.6588 26.4834C17.4564 26.3375 17.305 26.1316 17.2261 25.8949C17.1471 25.6582 16.9958 25.4524 16.7934 25.3065C16.591 25.1606 16.3478 25.0821 16.0983 25.082H15.6441C15.3946 25.0821 15.1515 25.1606 14.9491 25.3065C14.7467 25.4524 14.5953 25.6582 14.5164 25.8949C14.4375 26.1316 14.2861 26.3375 14.0837 26.4834C13.8813 26.6293 13.6381 26.7078 13.3886 26.7078H12.9345C12.685 26.7078 12.4418 26.6293 12.2394 26.4834C12.037 26.3375 11.8856 26.1316 11.8067 25.8949C11.7278 25.6582 11.5764 25.4524 11.374 25.3065C11.1716 25.1606 10.9284 25.0821 10.6789 25.082H10.2248C9.97529 25.0821 9.73213 25.1606 9.52973 25.3065C9.32733 25.4524 9.17595 25.6582 9.09703 25.8949C9.0181 26.1316 8.86673 26.3375 8.66433 26.4834C8.46193 26.6293 8.21876 26.7078 7.96926 26.7078H7.74219V35.9207H40.2583V26.7078Z" fill="#3582C0"/>
<path d="M40.2583 29.9617H40.0312C39.7817 29.9617 39.5386 29.8832 39.3362 29.7373C39.1338 29.5914 38.9824 29.3855 38.9035 29.1488C38.8246 28.9122 38.6732 28.7063 38.4708 28.5604C38.2684 28.4145 38.0252 28.336 37.7757 28.3359H37.3216C37.0721 28.336 36.8289 28.4145 36.6265 28.5604C36.4241 28.7063 36.2727 28.9122 36.1938 29.1488C36.1149 29.3855 35.9635 29.5914 35.7611 29.7373C35.5587 29.8832 35.3155 29.9617 35.066 29.9617H34.6119C34.3624 29.9617 34.1192 29.8832 33.9168 29.7373C33.7144 29.5914 33.563 29.3855 33.4841 29.1488C33.4052 28.9122 33.2538 28.7063 33.0514 28.5604C32.849 28.4145 32.6059 28.336 32.3564 28.3359H31.9022C31.6527 28.336 31.4095 28.4145 31.2071 28.5604C31.0047 28.7063 30.8534 28.9122 30.7744 29.1488C30.6955 29.3855 30.5441 29.5914 30.3417 29.7373C30.1393 29.8832 29.8962 29.9617 29.6467 29.9617H29.1925C28.943 29.9617 28.6999 29.8832 28.4975 29.7373C28.2951 29.5914 28.1437 29.3855 28.0648 29.1488C27.9858 28.9122 27.8345 28.7063 27.6321 28.5604C27.4297 28.4145 27.1865 28.336 26.937 28.3359H26.4829C26.2334 28.336 25.9902 28.4145 25.7878 28.5604C25.5854 28.7063 25.434 28.9122 25.3551 29.1488C25.2762 29.3855 25.1248 29.5914 24.9224 29.7373C24.72 29.8832 24.4768 29.9617 24.2273 29.9617H23.7732C23.5237 29.9617 23.2805 29.8832 23.0781 29.7373C22.8757 29.5914 22.7243 29.3855 22.6454 29.1488C22.5665 28.9122 22.4151 28.7063 22.2127 28.5604C22.0103 28.4145 21.7671 28.336 21.5176 28.3359H21.0635C20.814 28.336 20.5708 28.4145 20.3684 28.5604C20.166 28.7063 20.0147 28.9122 19.9357 29.1488C19.8568 29.3855 19.7054 29.5914 19.503 29.7373C19.3006 29.8832 19.0575 29.9617 18.808 29.9617H18.3538C18.1043 29.9617 17.8612 29.8832 17.6588 29.7373C17.4564 29.5914 17.305 29.3855 17.2261 29.1488C17.1471 28.9122 16.9958 28.7063 16.7934 28.5604C16.591 28.4145 16.3478 28.336 16.0983 28.3359H15.6441C15.3946 28.336 15.1515 28.4145 14.9491 28.5604C14.7467 28.7063 14.5953 28.9122 14.5164 29.1488C14.4375 29.3855 14.2861 29.5914 14.0837 29.7373C13.8813 29.8832 13.6381 29.9617 13.3886 29.9617H12.9345C12.685 29.9617 12.4418 29.8832 12.2394 29.7373C12.037 29.5914 11.8856 29.3855 11.8067 29.1488C11.7278 28.9122 11.5764 28.7063 11.374 28.5604C11.1716 28.4145 10.9284 28.336 10.6789 28.3359H10.2248C9.97529 28.336 9.73213 28.4145 9.52973 28.5604C9.32733 28.7063 9.17595 28.9122 9.09703 29.1488C9.0181 29.3855 8.86673 29.5914 8.66433 29.7373C8.46193 29.8832 8.21876 29.9617 7.96926 29.9617H7.74219V35.923H40.2583V29.9617Z" fill="#2B8AFC"/>
<path d="M40.2583 18.582H7.74219V20.7498H40.2583V18.582Z" fill="#29678C"/>
<path d="M7.74219 18.5809L12.6196 7.74219H35.3809L40.2583 18.5809" fill="#3582C0"/>
<path d="M13.2364 8L8 19H40L34.7636 8H13.2364Z" fill="#2B8AFC"/>
<path d="M15.8729 9.36719H14.7891V10.4511H15.8729V9.36719Z" fill="#29678C"/>
<path d="M24.5448 9.36719H23.4609V10.4511H24.5448V9.36719Z" fill="#29678C"/>
<path d="M24.5448 11.5352H23.4609V12.619H24.5448V11.5352Z" fill="#29678C"/>
<path d="M24.5448 13.7031H23.4609V14.787H24.5448V13.7031Z" fill="#29678C"/>
<path d="M24.5448 15.8711H23.4609V16.955H24.5448V15.8711Z" fill="#29678C"/>
<path d="M20.2089 9.36719H19.125V10.4511H20.2089V9.36719Z" fill="#29678C"/>
<path d="M14.787 11.5352H13.7031V12.619H14.787V11.5352Z" fill="#29678C"/>
<path d="M19.662 11.5352H18.5781V12.619H19.662V11.5352Z" fill="#29678C"/>
<path d="M13.7011 13.7031H12.6172V14.787H13.7011V13.7031Z" fill="#29678C"/>
<path d="M19.1229 13.7031H18.0391V14.787H19.1229V13.7031Z" fill="#29678C"/>
<path d="M12.619 15.8711H11.5352V16.955H12.619V15.8711Z" fill="#29678C"/>
<path d="M18.58 15.8711H17.4961V16.955H18.58V15.8711Z" fill="#29678C"/>
<path d="M33.2128 9.36719H32.1289V10.4511H33.2128V9.36719Z" fill="#29678C"/>
<path d="M28.8768 9.36719H27.793V10.4511H28.8768V9.36719Z" fill="#29678C"/>
<path d="M34.2987 11.5352H33.2148V12.619H34.2987V11.5352Z" fill="#29678C"/>
<path d="M29.4198 11.5352H28.3359V12.619H29.4198V11.5352Z" fill="#29678C"/>
<path d="M35.3807 13.7031H34.2969V14.787H35.3807V13.7031Z" fill="#29678C"/>
<path d="M29.9589 13.7031H28.875V14.787H29.9589V13.7031Z" fill="#29678C"/>
<path d="M36.4628 15.8711H35.3789V16.955H36.4628V15.8711Z" fill="#29678C"/>
<path d="M30.5057 15.8711H29.4219V16.955H30.5057V15.8711Z" fill="#29678C"/>
<path d="M40.2596 18.582H10.4531V20.7498H40.2596V18.582Z" fill="#317AB0"/>
<path d="M40.2583 38.0898H7.74219V40.2576H40.2583V38.0898Z" fill="#29678C"/>
<path d="M40.2583 33.2117H40.0312C39.7817 33.2117 39.5386 33.1332 39.3362 32.9873C39.1338 32.8414 38.9824 32.6355 38.9035 32.3988C38.8246 32.1622 38.6732 31.9563 38.4708 31.8104C38.2684 31.6645 38.0252 31.586 37.7757 31.5859H37.3216C37.0721 31.586 36.8289 31.6645 36.6265 31.8104C36.4241 31.9563 36.2727 32.1622 36.1938 32.3988C36.1149 32.6355 35.9635 32.8414 35.7611 32.9873C35.5587 33.1332 35.3155 33.2117 35.066 33.2117H34.6119C34.3624 33.2117 34.1192 33.1332 33.9168 32.9873C33.7144 32.8414 33.563 32.6355 33.4841 32.3988C33.4052 32.1622 33.2538 31.9563 33.0514 31.8104C32.849 31.6645 32.6059 31.586 32.3564 31.5859H31.9022C31.6527 31.586 31.4095 31.6645 31.2071 31.8104C31.0047 31.9563 30.8534 32.1622 30.7744 32.3988C30.6955 32.6355 30.5441 32.8414 30.3417 32.9873C30.1393 33.1332 29.8962 33.2117 29.6467 33.2117H29.1925C28.943 33.2117 28.6999 33.1332 28.4975 32.9873C28.2951 32.8414 28.1437 32.6355 28.0648 32.3988C27.9858 32.1622 27.8345 31.9563 27.6321 31.8104C27.4297 31.6645 27.1865 31.586 26.937 31.5859H26.4829C26.2334 31.586 25.9902 31.6645 25.7878 31.8104C25.5854 31.9563 25.434 32.1622 25.3551 32.3988C25.2762 32.6355 25.1248 32.8414 24.9224 32.9873C24.72 33.1332 24.4768 33.2117 24.2273 33.2117H23.7732C23.5237 33.2117 23.2805 33.1332 23.0781 32.9873C22.8757 32.8414 22.7243 32.6355 22.6454 32.3988C22.5665 32.1622 22.4151 31.9563 22.2127 31.8104C22.0103 31.6645 21.7671 31.586 21.5176 31.5859H21.0635C20.814 31.586 20.5708 31.6645 20.3684 31.8104C20.166 31.9563 20.0147 32.1622 19.9357 32.3988C19.8568 32.6355 19.7054 32.8414 19.503 32.9873C19.3006 33.1332 19.0575 33.2117 18.808 33.2117H18.3538C18.1043 33.2117 17.8612 33.1332 17.6588 32.9873C17.4564 32.8414 17.305 32.6355 17.2261 32.3988C17.1471 32.1622 16.9958 31.9563 16.7934 31.8104C16.591 31.6645 16.3478 31.586 16.0983 31.5859H15.6441C15.3946 31.586 15.1515 31.6645 14.9491 31.8104C14.7467 31.9563 14.5953 32.1622 14.5164 32.3988C14.4375 32.6355 14.2861 32.8414 14.0837 32.9873C13.8813 33.1332 13.6381 33.2117 13.3886 33.2117H12.9345C12.685 33.2117 12.4418 33.1332 12.2394 32.9873C12.037 32.8414 11.8856 32.6355 11.8067 32.3988C11.7278 32.1622 11.5764 31.9563 11.374 31.8104C11.1716 31.6645 10.9284 31.586 10.6789 31.5859H10.2248C9.97529 31.586 9.73213 31.6645 9.52973 31.8104C9.32733 31.9563 9.17595 32.1622 9.09703 32.3988C9.0181 32.6355 8.86673 32.8414 8.66433 32.9873C8.46193 33.1332 8.21876 33.2117 7.96926 33.2117H7.74219V35.9214H40.2583V33.2117Z" fill="#53BDED"/>
<path d="M9.912 39.1737H40.2604V38.0898H8.82812C8.82812 38.3773 8.94232 38.653 9.14558 38.8563C9.34885 39.0595 9.62454 39.1737 9.912 39.1737Z" fill="#317AB0"/>
<path d="M7.74272 37.5476H40.2588C40.4026 37.5476 40.5404 37.6047 40.6421 37.7063C40.7437 37.808 40.8008 37.9458 40.8008 38.0895V40.2573C40.8008 40.401 40.7437 40.5389 40.6421 40.6405C40.5404 40.7421 40.4026 40.7992 40.2588 40.7992H7.74272C7.59899 40.7992 7.46114 40.7421 7.35951 40.6405C7.25788 40.5389 7.20078 40.401 7.20078 40.2573V38.0895C7.20078 37.9458 7.25788 37.808 7.35951 37.7063C7.46114 37.6047 7.59899 37.5476 7.74272 37.5476ZM8.28465 39.7153H39.7169V38.6315H8.28465V39.7153ZM12.1259 7.51896C12.1687 7.42371 12.2381 7.34286 12.3258 7.28613C12.4135 7.22941 12.5157 7.19923 12.6201 7.19922H35.3814C35.4859 7.19923 35.5881 7.22941 35.6757 7.28613C35.7634 7.34286 35.8329 7.42371 35.8757 7.51896L40.7531 18.3577C40.7845 18.4275 40.8008 18.5033 40.8008 18.5799V20.7476C40.8008 20.8913 40.7437 21.0292 40.6421 21.1308C40.5404 21.2324 40.4026 21.2895 40.2588 21.2895H7.74272C7.59899 21.2895 7.46114 21.2324 7.35951 21.1308C7.25788 21.0292 7.20078 20.8913 7.20078 20.7476V18.5799C7.2008 18.5033 7.21705 18.4275 7.24847 18.3577L12.1259 7.51896ZM35.0313 8.28309H12.9702L8.58055 18.0379H39.4205L35.0313 8.28309ZM39.7169 20.2057V19.1218H8.28465V20.2057H39.7169Z" fill="#232323"/>
<path d="M15.8729 9.36719H14.7891V10.4511H15.8729V9.36719Z" fill="#232323"/>
<path d="M24.5448 9.36719H23.4609V10.4511H24.5448V9.36719Z" fill="#232323"/>
<path d="M24.5448 11.5352H23.4609V12.619H24.5448V11.5352Z" fill="#232323"/>
<path d="M24.5448 13.7031H23.4609V14.787H24.5448V13.7031Z" fill="#232323"/>
<path d="M24.5448 15.8711H23.4609V16.955H24.5448V15.8711Z" fill="#232323"/>
<path d="M20.2089 9.36719H19.125V10.4511H20.2089V9.36719Z" fill="#232323"/>
<path d="M14.787 11.5352H13.7031V12.619H14.787V11.5352Z" fill="#232323"/>
<path d="M19.662 11.5352H18.5781V12.619H19.662V11.5352Z" fill="#232323"/>
<path d="M13.7011 13.7031H12.6172V14.787H13.7011V13.7031Z" fill="#232323"/>
<path d="M19.1229 13.7031H18.0391V14.787H19.1229V13.7031Z" fill="#232323"/>
<path d="M12.619 15.8711H11.5352V16.955H12.619V15.8711Z" fill="#232323"/>
<path d="M18.58 15.8711H17.4961V16.955H18.58V15.8711Z" fill="#232323"/>
<path d="M33.2128 9.36719H32.1289V10.4511H33.2128V9.36719Z" fill="#232323"/>
<path d="M28.8768 9.36719H27.793V10.4511H28.8768V9.36719Z" fill="#232323"/>
<path d="M34.2987 11.5352H33.2148V12.619H34.2987V11.5352Z" fill="#232323"/>
<path d="M29.4198 11.5352H28.3359V12.619H29.4198V11.5352Z" fill="#232323"/>
<path d="M35.3807 13.7031H34.2969V14.787H35.3807V13.7031Z" fill="#232323"/>
<path d="M29.9589 13.7031H28.875V14.787H29.9589V13.7031Z" fill="#232323"/>
<path d="M36.4628 15.8711H35.3789V16.955H36.4628V15.8711Z" fill="#232323"/>
<path d="M30.5057 15.8711H29.4219V16.955H30.5057V15.8711Z" fill="#232323"/>
<path d="M40.2573 22.375H7.74115C7.59742 22.375 7.45958 22.4321 7.35795 22.5337C7.25632 22.6354 7.19922 22.7732 7.19922 22.9169V35.9234C7.19922 36.0671 7.25632 36.205 7.35795 36.3066C7.45958 36.4082 7.59742 36.4653 7.74115 36.4653H40.2573C40.401 36.4653 40.5389 36.4082 40.6405 36.3066C40.7421 36.205 40.7992 36.0671 40.7992 35.9234V22.9169C40.7992 22.7732 40.7421 22.6354 40.6405 22.5337C40.5389 22.4321 40.401 22.375 40.2573 22.375ZM8.28309 27.221C8.58713 27.1652 8.87065 27.0289 9.10408 26.8262C9.33752 26.6236 9.51233 26.362 9.61029 26.0688C9.65311 25.94 9.73543 25.828 9.84555 25.7486C9.95567 25.6692 10.088 25.6265 10.2238 25.6266H10.6779C10.8137 25.6265 10.946 25.6692 11.0561 25.7486C11.1662 25.828 11.2486 25.94 11.2914 26.0688C11.4061 26.4136 11.6265 26.7134 11.9212 26.9259C12.216 27.1383 12.5701 27.2526 12.9334 27.2524H13.3876C13.7509 27.2526 14.1051 27.1383 14.3998 26.9259C14.6945 26.7134 14.9149 26.4136 15.0296 26.0688C15.0725 25.94 15.1548 25.828 15.2649 25.7486C15.375 25.6692 15.5074 25.6265 15.6431 25.6266H16.0973C16.233 25.6265 16.3653 25.6692 16.4755 25.7486C16.5856 25.828 16.6679 25.94 16.7107 26.0688C16.8255 26.4136 17.0458 26.7134 17.3406 26.9259C17.6353 27.1383 17.9895 27.2526 18.3528 27.2524H18.8069C19.1703 27.2526 19.5244 27.1383 19.8192 26.9259C20.1139 26.7134 20.3343 26.4136 20.449 26.0688C20.4918 25.94 20.5741 25.828 20.6843 25.7486C20.7944 25.6692 20.9267 25.6265 21.0625 25.6266H21.5166C21.6524 25.6265 21.7847 25.6692 21.8948 25.7486C22.0049 25.828 22.0873 25.94 22.1301 26.0688C22.2448 26.4136 22.4652 26.7134 22.7599 26.9259C23.0547 27.1383 23.4088 27.2526 23.7721 27.2524H24.2263C24.5896 27.2526 24.9438 27.1383 25.2385 26.9259C25.5333 26.7134 25.7536 26.4136 25.8684 26.0688C25.9112 25.94 25.9935 25.828 26.1036 25.7486C26.2137 25.6692 26.3461 25.6265 26.4818 25.6266H26.936C27.0717 25.6265 27.2041 25.6692 27.3142 25.7486C27.4243 25.828 27.5066 25.94 27.5494 26.0688C27.6642 26.4136 27.8845 26.7134 28.1793 26.9259C28.474 27.1383 28.8282 27.2526 29.1915 27.2524H29.6456C30.009 27.2526 30.3631 27.1383 30.6579 26.9259C30.9526 26.7134 31.173 26.4136 31.2877 26.0688C31.3305 25.94 31.4128 25.828 31.523 25.7486C31.6331 25.6692 31.7654 25.6265 31.9012 25.6266H32.3553C32.4911 25.6265 32.6234 25.6692 32.7335 25.7486C32.8437 25.828 32.926 25.94 32.9688 26.0688C33.0835 26.4136 33.3039 26.7134 33.5986 26.9259C33.8934 27.1383 34.2475 27.2526 34.6109 27.2524H35.065C35.4283 27.2526 35.7825 27.1383 36.0772 26.9259C36.372 26.7134 36.5923 26.4136 36.7071 26.0688C36.7499 25.94 36.8322 25.828 36.9423 25.7486C37.0524 25.6692 37.1848 25.6265 37.3205 25.6266H37.7747C37.9104 25.6265 38.0428 25.6692 38.1529 25.7486C38.263 25.828 38.3453 25.94 38.3881 26.0688C38.4861 26.362 38.6609 26.6236 38.8944 26.8262C39.1278 27.0289 39.4113 27.1652 39.7153 27.221V29.3302C39.5754 29.254 39.469 29.1284 39.4167 28.9779C39.302 28.6332 39.0816 28.3333 38.7869 28.1209C38.4922 27.9085 38.138 27.7942 37.7747 27.7944H37.3205C36.9572 27.7942 36.6031 27.9085 36.3083 28.1209C36.0136 28.3333 35.7932 28.6332 35.6785 28.9779C35.6356 29.1068 35.5533 29.2188 35.4432 29.2982C35.3331 29.3776 35.2007 29.4203 35.065 29.4202H34.6109C34.4751 29.4203 34.3428 29.3776 34.2326 29.2982C34.1225 29.2188 34.0402 29.1068 33.9974 28.9779C33.8827 28.6332 33.6623 28.3333 33.3675 28.1209C33.0728 27.9085 32.7186 27.7942 32.3553 27.7944H31.9012C31.5379 27.7942 31.1837 27.9085 30.889 28.1209C30.5942 28.3333 30.3738 28.6332 30.2591 28.9779C30.2163 29.1068 30.134 29.2188 30.0239 29.2982C29.9137 29.3776 29.7814 29.4203 29.6456 29.4202H29.1915C29.0557 29.4203 28.9234 29.3776 28.8133 29.2982C28.7032 29.2188 28.6209 29.1068 28.578 28.9779C28.4633 28.6332 28.2429 28.3333 27.9482 28.1209C27.6534 27.9085 27.2993 27.7942 26.936 27.7944H26.4818C26.1185 27.7942 25.7643 27.9085 25.4696 28.1209C25.1749 28.3333 24.9545 28.6332 24.8398 28.9779C24.7969 29.1068 24.7146 29.2188 24.6045 29.2982C24.4944 29.3776 24.362 29.4203 24.2263 29.4202H23.7721C23.6364 29.4203 23.5041 29.3776 23.3939 29.2982C23.2838 29.2188 23.2015 29.1068 23.1587 28.9779C23.0439 28.6332 22.8236 28.3333 22.5288 28.1209C22.2341 27.9085 21.8799 27.7942 21.5166 27.7944H21.0625C20.6991 27.7942 20.345 27.9085 20.0502 28.1209C19.7555 28.3333 19.5351 28.6332 19.4204 28.9779C19.3776 29.1068 19.2953 29.2188 19.1851 29.2982C19.075 29.3776 18.9427 29.4203 18.8069 29.4202H18.3528C18.217 29.4203 18.0847 29.3776 17.9746 29.2982C17.8645 29.2188 17.7821 29.1068 17.7393 28.9779C17.6246 28.6332 17.4042 28.3333 17.1095 28.1209C16.8147 27.9085 16.4606 27.7942 16.0973 27.7944H15.6431C15.2798 27.7942 14.9256 27.9085 14.6309 28.1209C14.3362 28.3333 14.1158 28.6332 14.0011 28.9779C13.9582 29.1068 13.8759 29.2188 13.7658 29.2982C13.6557 29.3776 13.5233 29.4203 13.3876 29.4202H12.9334C12.7977 29.4203 12.6654 29.3776 12.5552 29.2982C12.4451 29.2188 12.3628 29.1068 12.32 28.9779C12.2052 28.6332 11.9849 28.3333 11.6901 28.1209C11.3954 27.9085 11.0412 27.7942 10.6779 27.7944H10.2238C9.86043 27.7942 9.50628 27.9085 9.21154 28.1209C8.9168 28.3333 8.69643 28.6332 8.5817 28.9779C8.52947 29.1284 8.42299 29.254 8.28309 29.3302V27.221ZM8.28309 30.4726C8.58713 30.4168 8.87065 30.2805 9.10408 30.0778C9.33752 29.8752 9.51233 29.6136 9.61029 29.3204C9.65311 29.1916 9.73543 29.0796 9.84555 29.0002C9.95567 28.9208 10.088 28.8781 10.2238 28.8782H10.6779C10.8137 28.8781 10.946 28.9208 11.0561 29.0002C11.1662 29.0796 11.2486 29.1916 11.2914 29.3204C11.4061 29.6652 11.6265 29.965 11.9212 30.1775C12.216 30.3899 12.5701 30.5042 12.9334 30.504H13.3876C13.7509 30.5042 14.1051 30.3899 14.3998 30.1775C14.6945 29.965 14.9149 29.6652 15.0296 29.3204C15.0725 29.1916 15.1548 29.0796 15.2649 29.0002C15.375 28.9208 15.5074 28.8781 15.6431 28.8782H16.0973C16.233 28.8781 16.3653 28.9208 16.4755 29.0002C16.5856 29.0796 16.6679 29.1916 16.7107 29.3204C16.8255 29.6652 17.0458 29.965 17.3406 30.1775C17.6353 30.3899 17.9895 30.5042 18.3528 30.504H18.8069C19.1703 30.5042 19.5244 30.3899 19.8192 30.1775C20.1139 29.965 20.3343 29.6652 20.449 29.3204C20.4918 29.1916 20.5741 29.0796 20.6843 29.0002C20.7944 28.9208 20.9267 28.8781 21.0625 28.8782H21.5166C21.6524 28.8781 21.7847 28.9208 21.8948 29.0002C22.0049 29.0796 22.0873 29.1916 22.1301 29.3204C22.2448 29.6652 22.4652 29.965 22.7599 30.1775C23.0547 30.3899 23.4088 30.5042 23.7721 30.504H24.2263C24.5896 30.5042 24.9438 30.3899 25.2385 30.1775C25.5333 29.965 25.7536 29.6652 25.8684 29.3204C25.9112 29.1916 25.9935 29.0796 26.1036 29.0002C26.2137 28.9208 26.3461 28.8781 26.4818 28.8782H26.936C27.0717 28.8781 27.2041 28.9208 27.3142 29.0002C27.4243 29.0796 27.5066 29.1916 27.5494 29.3204C27.6642 29.6652 27.8845 29.965 28.1793 30.1775C28.474 30.3899 28.8282 30.5042 29.1915 30.504H29.6456C30.009 30.5042 30.3631 30.3899 30.6579 30.1775C30.9526 29.965 31.173 29.6652 31.2877 29.3204C31.3305 29.1916 31.4128 29.0796 31.523 29.0002C31.6331 28.9208 31.7654 28.8781 31.9012 28.8782H32.3553C32.4911 28.8781 32.6234 28.9208 32.7335 29.0002C32.8437 29.0796 32.926 29.1916 32.9688 29.3204C33.0835 29.6652 33.3039 29.965 33.5986 30.1775C33.8934 30.3899 34.2475 30.5042 34.6109 30.504H35.065C35.4283 30.5042 35.7825 30.3899 36.0772 30.1775C36.372 29.965 36.5923 29.6652 36.7071 29.3204C36.7499 29.1916 36.8322 29.0796 36.9423 29.0002C37.0524 28.9208 37.1848 28.8781 37.3205 28.8782H37.7747C37.9104 28.8781 38.0428 28.9208 38.1529 29.0002C38.263 29.0796 38.3453 29.1916 38.3881 29.3204C38.4861 29.6136 38.6609 29.8752 38.8944 30.0778C39.1278 30.2805 39.4113 30.4168 39.7153 30.4726V32.5818C39.5754 32.5056 39.469 32.38 39.4167 32.2296C39.302 31.8848 39.0816 31.585 38.7869 31.3725C38.4922 31.1601 38.138 31.0458 37.7747 31.046H37.3205C36.9572 31.0458 36.6031 31.1601 36.3083 31.3725C36.0136 31.585 35.7932 31.8848 35.6785 32.2296C35.6356 32.3584 35.5533 32.4704 35.4432 32.5498C35.3331 32.6292 35.2007 32.6719 35.065 32.6718H34.6109C34.4751 32.6719 34.3428 32.6292 34.2326 32.5498C34.1225 32.4704 34.0402 32.3584 33.9974 32.2296C33.8827 31.8848 33.6623 31.585 33.3675 31.3725C33.0728 31.1601 32.7186 31.0458 32.3553 31.046H31.9012C31.5379 31.0458 31.1837 31.1601 30.889 31.3725C30.5942 31.585 30.3738 31.8848 30.2591 32.2296C30.2163 32.3584 30.134 32.4704 30.0239 32.5498C29.9137 32.6292 29.7814 32.6719 29.6456 32.6718H29.1915C29.0557 32.6719 28.9234 32.6292 28.8133 32.5498C28.7032 32.4704 28.6209 32.3584 28.578 32.2296C28.4633 31.8848 28.2429 31.585 27.9482 31.3725C27.6534 31.1601 27.2993 31.0458 26.936 31.046H26.4818C26.1185 31.0458 25.7643 31.1601 25.4696 31.3725C25.1749 31.585 24.9545 31.8848 24.8398 32.2296C24.7969 32.3584 24.7146 32.4704 24.6045 32.5498C24.4944 32.6292 24.362 32.6719 24.2263 32.6718H23.7721C23.6364 32.6719 23.5041 32.6292 23.3939 32.5498C23.2838 32.4704 23.2015 32.3584 23.1587 32.2296C23.0439 31.8848 22.8236 31.585 22.5288 31.3725C22.2341 31.1601 21.8799 31.0458 21.5166 31.046H21.0625C20.6991 31.0458 20.345 31.1601 20.0502 31.3725C19.7555 31.585 19.5351 31.8848 19.4204 32.2296C19.3776 32.3584 19.2953 32.4704 19.1851 32.5498C19.075 32.6292 18.9427 32.6719 18.8069 32.6718H18.3528C18.217 32.6719 18.0847 32.6292 17.9746 32.5498C17.8645 32.4704 17.7821 32.3584 17.7393 32.2296C17.6246 31.8848 17.4042 31.585 17.1095 31.3725C16.8147 31.1601 16.4606 31.0458 16.0973 31.046H15.6431C15.2798 31.0458 14.9256 31.1601 14.6309 31.3725C14.3362 31.585 14.1158 31.8848 14.0011 32.2296C13.9582 32.3584 13.8759 32.4704 13.7658 32.5498C13.6557 32.6292 13.5233 32.6719 13.3876 32.6718H12.9334C12.7977 32.6719 12.6654 32.6292 12.5552 32.5498C12.4451 32.4704 12.3628 32.3584 12.32 32.2296C12.2052 31.8848 11.9849 31.585 11.6901 31.3725C11.3954 31.1601 11.0412 31.0458 10.6779 31.046H10.2238C9.86043 31.0458 9.50628 31.1601 9.21154 31.3725C8.9168 31.585 8.69643 31.8848 8.5817 32.2296C8.52947 32.38 8.42299 32.5056 8.28309 32.5818V30.4726ZM39.7153 23.4589V26.0786C39.5754 26.0024 39.469 25.8768 39.4167 25.7263C39.302 25.3816 39.0816 25.0817 38.7869 24.8693C38.4922 24.6568 38.138 24.5426 37.7747 24.5427H37.3205C36.9572 24.5426 36.6031 24.6568 36.3083 24.8693C36.0136 25.0817 35.7932 25.3816 35.6785 25.7263C35.6356 25.8552 35.5533 25.9672 35.4432 26.0466C35.3331 26.126 35.2007 26.1686 35.065 26.1685H34.6109C34.4751 26.1686 34.3428 26.126 34.2326 26.0466C34.1225 25.9672 34.0402 25.8552 33.9974 25.7263C33.8827 25.3816 33.6623 25.0817 33.3675 24.8693C33.0728 24.6568 32.7186 24.5426 32.3553 24.5427H31.9012C31.5379 24.5426 31.1837 24.6568 30.889 24.8693C30.5942 25.0817 30.3738 25.3816 30.2591 25.7263C30.2163 25.8552 30.134 25.9672 30.0239 26.0466C29.9137 26.126 29.7814 26.1686 29.6456 26.1685H29.1915C29.0557 26.1686 28.9234 26.126 28.8133 26.0466C28.7032 25.9672 28.6209 25.8552 28.578 25.7263C28.4633 25.3816 28.2429 25.0817 27.9482 24.8693C27.6534 24.6568 27.2993 24.5426 26.936 24.5427H26.4818C26.1185 24.5426 25.7643 24.6568 25.4696 24.8693C25.1749 25.0817 24.9545 25.3816 24.8398 25.7263C24.7969 25.8552 24.7146 25.9672 24.6045 26.0466C24.4944 26.126 24.362 26.1686 24.2263 26.1685H23.7721C23.6364 26.1686 23.5041 26.126 23.3939 26.0466C23.2838 25.9672 23.2015 25.8552 23.1587 25.7263C23.0439 25.3816 22.8236 25.0817 22.5288 24.8693C22.2341 24.6568 21.8799 24.5426 21.5166 24.5427H21.0625C20.6991 24.5426 20.345 24.6568 20.0502 24.8693C19.7555 25.0817 19.5351 25.3816 19.4204 25.7263C19.3776 25.8552 19.2953 25.9672 19.1851 26.0466C19.075 26.126 18.9427 26.1686 18.8069 26.1685H18.3528C18.217 26.1686 18.0847 26.126 17.9746 26.0466C17.8645 25.9672 17.7821 25.8552 17.7393 25.7263C17.6246 25.3816 17.4042 25.0817 17.1095 24.8693C16.8147 24.6568 16.4606 24.5426 16.0973 24.5427H15.6431C15.2798 24.5426 14.9256 24.6568 14.6309 24.8693C14.3362 25.0817 14.1158 25.3816 14.0011 25.7263C13.9582 25.8552 13.8759 25.9672 13.7658 26.0466C13.6557 26.126 13.5233 26.1686 13.3876 26.1685H12.9334C12.7977 26.1686 12.6654 26.126 12.5552 26.0466C12.4451 25.9672 12.3628 25.8552 12.32 25.7263C12.2052 25.3816 11.9849 25.0817 11.6901 24.8693C11.3954 24.6568 11.0412 24.5426 10.6779 24.5427H10.2238C9.86043 24.5426 9.50628 24.6568 9.21154 24.8693C8.9168 25.0817 8.69643 25.3816 8.5817 25.7263C8.52947 25.8768 8.42299 26.0024 8.28309 26.0786V23.4589H39.7153ZM8.28309 35.3815V33.7242C8.58713 33.6684 8.87065 33.5321 9.10408 33.3294C9.33752 33.1268 9.51233 32.8652 9.61029 32.5721C9.65311 32.4432 9.73543 32.3312 9.84555 32.2518C9.95567 32.1724 10.088 32.1297 10.2238 32.1298H10.6779C10.8137 32.1297 10.946 32.1724 11.0561 32.2518C11.1662 32.3312 11.2486 32.4432 11.2914 32.5721C11.4061 32.9168 11.6265 33.2167 11.9212 33.4291C12.216 33.6415 12.5701 33.7558 12.9334 33.7556H13.3876C13.7509 33.7558 14.1051 33.6415 14.3998 33.4291C14.6945 33.2167 14.9149 32.9168 15.0296 32.5721C15.0725 32.4432 15.1548 32.3312 15.2649 32.2518C15.375 32.1724 15.5074 32.1297 15.6431 32.1298H16.0973C16.233 32.1297 16.3653 32.1724 16.4755 32.2518C16.5856 32.3312 16.6679 32.4432 16.7107 32.5721C16.8255 32.9168 17.0458 33.2167 17.3406 33.4291C17.6353 33.6415 17.9895 33.7558 18.3528 33.7556H18.8069C19.1703 33.7558 19.5244 33.6415 19.8192 33.4291C20.1139 33.2167 20.3343 32.9168 20.449 32.5721C20.4918 32.4432 20.5741 32.3312 20.6843 32.2518C20.7944 32.1724 20.9267 32.1297 21.0625 32.1298H21.5166C21.6524 32.1297 21.7847 32.1724 21.8948 32.2518C22.0049 32.3312 22.0873 32.4432 22.1301 32.5721C22.2448 32.9168 22.4652 33.2167 22.7599 33.4291C23.0547 33.6415 23.4088 33.7558 23.7721 33.7556H24.2263C24.5896 33.7558 24.9438 33.6415 25.2385 33.4291C25.5333 33.2167 25.7536 32.9168 25.8684 32.5721C25.9112 32.4432 25.9935 32.3312 26.1036 32.2518C26.2137 32.1724 26.3461 32.1297 26.4818 32.1298H26.936C27.0717 32.1297 27.2041 32.1724 27.3142 32.2518C27.4243 32.3312 27.5066 32.4432 27.5494 32.5721C27.6642 32.9168 27.8845 33.2167 28.1793 33.4291C28.474 33.6415 28.8282 33.7558 29.1915 33.7556H29.6456C30.009 33.7558 30.3631 33.6415 30.6579 33.4291C30.9526 33.2167 31.173 32.9168 31.2877 32.5721C31.3305 32.4432 31.4128 32.3312 31.523 32.2518C31.6331 32.1724 31.7654 32.1297 31.9012 32.1298H32.3553C32.4911 32.1297 32.6234 32.1724 32.7335 32.2518C32.8437 32.3312 32.926 32.4432 32.9688 32.5721C33.0835 32.9168 33.3039 33.2167 33.5986 33.4291C33.8934 33.6415 34.2475 33.7558 34.6109 33.7556H35.065C35.4283 33.7558 35.7825 33.6415 36.0772 33.4291C36.372 33.2167 36.5923 32.9168 36.7071 32.5721C36.7499 32.4432 36.8322 32.3312 36.9423 32.2518C37.0524 32.1724 37.1848 32.1297 37.3205 32.1298H37.7747C37.9104 32.1297 38.0428 32.1724 38.1529 32.2518C38.263 32.3312 38.3453 32.4432 38.3881 32.5721C38.4861 32.8652 38.6609 33.1268 38.8944 33.3294C39.1278 33.5321 39.4113 33.6684 39.7153 33.7242V35.3815H8.28309Z" fill="#232323"/>
<path d="M61.2583 22.9141H28.7422V35.9205H61.2583V22.9141Z" fill="#29678C"/>
<path d="M61.2583 26.7078H61.0312C60.7817 26.7078 60.5386 26.6293 60.3362 26.4834C60.1338 26.3375 59.9824 26.1316 59.9035 25.8949C59.8246 25.6582 59.6732 25.4524 59.4708 25.3065C59.2684 25.1606 59.0252 25.0821 58.7757 25.082H58.3216C58.0721 25.0821 57.8289 25.1606 57.6265 25.3065C57.4241 25.4524 57.2727 25.6582 57.1938 25.8949C57.1149 26.1316 56.9635 26.3375 56.7611 26.4834C56.5587 26.6293 56.3155 26.7078 56.066 26.7078H55.6119C55.3624 26.7078 55.1192 26.6293 54.9168 26.4834C54.7144 26.3375 54.563 26.1316 54.4841 25.8949C54.4052 25.6582 54.2538 25.4524 54.0514 25.3065C53.849 25.1606 53.6059 25.0821 53.3564 25.082H52.9022C52.6527 25.0821 52.4095 25.1606 52.2071 25.3065C52.0047 25.4524 51.8534 25.6582 51.7744 25.8949C51.6955 26.1316 51.5441 26.3375 51.3417 26.4834C51.1393 26.6293 50.8962 26.7078 50.6467 26.7078H50.1925C49.943 26.7078 49.6999 26.6293 49.4975 26.4834C49.2951 26.3375 49.1437 26.1316 49.0648 25.8949C48.9858 25.6582 48.8345 25.4524 48.6321 25.3065C48.4297 25.1606 48.1865 25.0821 47.937 25.082H47.4829C47.2334 25.0821 46.9902 25.1606 46.7878 25.3065C46.5854 25.4524 46.434 25.6582 46.3551 25.8949C46.2762 26.1316 46.1248 26.3375 45.9224 26.4834C45.72 26.6293 45.4768 26.7078 45.2273 26.7078H44.7732C44.5237 26.7078 44.2805 26.6293 44.0781 26.4834C43.8757 26.3375 43.7243 26.1316 43.6454 25.8949C43.5665 25.6582 43.4151 25.4524 43.2127 25.3065C43.0103 25.1606 42.7671 25.0821 42.5176 25.082H42.0635C41.814 25.0821 41.5708 25.1606 41.3684 25.3065C41.166 25.4524 41.0147 25.6582 40.9357 25.8949C40.8568 26.1316 40.7054 26.3375 40.503 26.4834C40.3006 26.6293 40.0575 26.7078 39.808 26.7078H39.3538C39.1043 26.7078 38.8612 26.6293 38.6588 26.4834C38.4564 26.3375 38.305 26.1316 38.2261 25.8949C38.1471 25.6582 37.9958 25.4524 37.7934 25.3065C37.591 25.1606 37.3478 25.0821 37.0983 25.082H36.6441C36.3946 25.0821 36.1515 25.1606 35.9491 25.3065C35.7467 25.4524 35.5953 25.6582 35.5164 25.8949C35.4375 26.1316 35.2861 26.3375 35.0837 26.4834C34.8813 26.6293 34.6381 26.7078 34.3886 26.7078H33.9345C33.685 26.7078 33.4418 26.6293 33.2394 26.4834C33.037 26.3375 32.8856 26.1316 32.8067 25.8949C32.7278 25.6582 32.5764 25.4524 32.374 25.3065C32.1716 25.1606 31.9284 25.0821 31.6789 25.082H31.2248C30.9753 25.0821 30.7321 25.1606 30.5297 25.3065C30.3273 25.4524 30.1759 25.6582 30.097 25.8949C30.0181 26.1316 29.8667 26.3375 29.6643 26.4834C29.4619 26.6293 29.2188 26.7078 28.9693 26.7078H28.7422V35.9207H61.2583V26.7078Z" fill="#3582C0"/>
<path d="M61.2583 29.9617H61.0312C60.7817 29.9617 60.5386 29.8832 60.3362 29.7373C60.1338 29.5914 59.9824 29.3855 59.9035 29.1488C59.8246 28.9122 59.6732 28.7063 59.4708 28.5604C59.2684 28.4145 59.0252 28.336 58.7757 28.3359H58.3216C58.0721 28.336 57.8289 28.4145 57.6265 28.5604C57.4241 28.7063 57.2727 28.9122 57.1938 29.1488C57.1149 29.3855 56.9635 29.5914 56.7611 29.7373C56.5587 29.8832 56.3155 29.9617 56.066 29.9617H55.6119C55.3624 29.9617 55.1192 29.8832 54.9168 29.7373C54.7144 29.5914 54.563 29.3855 54.4841 29.1488C54.4052 28.9122 54.2538 28.7063 54.0514 28.5604C53.849 28.4145 53.6059 28.336 53.3564 28.3359H52.9022C52.6527 28.336 52.4095 28.4145 52.2071 28.5604C52.0047 28.7063 51.8534 28.9122 51.7744 29.1488C51.6955 29.3855 51.5441 29.5914 51.3417 29.7373C51.1393 29.8832 50.8962 29.9617 50.6467 29.9617H50.1925C49.943 29.9617 49.6999 29.8832 49.4975 29.7373C49.2951 29.5914 49.1437 29.3855 49.0648 29.1488C48.9858 28.9122 48.8345 28.7063 48.6321 28.5604C48.4297 28.4145 48.1865 28.336 47.937 28.3359H47.4829C47.2334 28.336 46.9902 28.4145 46.7878 28.5604C46.5854 28.7063 46.434 28.9122 46.3551 29.1488C46.2762 29.3855 46.1248 29.5914 45.9224 29.7373C45.72 29.8832 45.4768 29.9617 45.2273 29.9617H44.7732C44.5237 29.9617 44.2805 29.8832 44.0781 29.7373C43.8757 29.5914 43.7243 29.3855 43.6454 29.1488C43.5665 28.9122 43.4151 28.7063 43.2127 28.5604C43.0103 28.4145 42.7671 28.336 42.5176 28.3359H42.0635C41.814 28.336 41.5708 28.4145 41.3684 28.5604C41.166 28.7063 41.0147 28.9122 40.9357 29.1488C40.8568 29.3855 40.7054 29.5914 40.503 29.7373C40.3006 29.8832 40.0575 29.9617 39.808 29.9617H39.3538C39.1043 29.9617 38.8612 29.8832 38.6588 29.7373C38.4564 29.5914 38.305 29.3855 38.2261 29.1488C38.1471 28.9122 37.9958 28.7063 37.7934 28.5604C37.591 28.4145 37.3478 28.336 37.0983 28.3359H36.6441C36.3946 28.336 36.1515 28.4145 35.9491 28.5604C35.7467 28.7063 35.5953 28.9122 35.5164 29.1488C35.4375 29.3855 35.2861 29.5914 35.0837 29.7373C34.8813 29.8832 34.6381 29.9617 34.3886 29.9617H33.9345C33.685 29.9617 33.4418 29.8832 33.2394 29.7373C33.037 29.5914 32.8856 29.3855 32.8067 29.1488C32.7278 28.9122 32.5764 28.7063 32.374 28.5604C32.1716 28.4145 31.9284 28.336 31.6789 28.3359H31.2248C30.9753 28.336 30.7321 28.4145 30.5297 28.5604C30.3273 28.7063 30.1759 28.9122 30.097 29.1488C30.0181 29.3855 29.8667 29.5914 29.6643 29.7373C29.4619 29.8832 29.2188 29.9617 28.9693 29.9617H28.7422V35.923H61.2583V29.9617Z" fill="#2B8AFC"/>
<path d="M61.2583 18.582H28.7422V20.7498H61.2583V18.582Z" fill="#29678C"/>
<path d="M28.7422 18.5809L33.6196 7.74219H56.3809L61.2583 18.5809" fill="#3582C0"/>
<path d="M33.4 8L28 19H61L55.6 8H33.4Z" fill="#2B8AFC"/>
<path d="M36.8729 9.36719H35.7891V10.4511H36.8729V9.36719Z" fill="#29678C"/>
<path d="M45.5448 9.36719H44.4609V10.4511H45.5448V9.36719Z" fill="#29678C"/>
<path d="M45.5448 11.5352H44.4609V12.619H45.5448V11.5352Z" fill="#29678C"/>
<path d="M45.5448 13.7031H44.4609V14.787H45.5448V13.7031Z" fill="#29678C"/>
<path d="M45.5448 15.8711H44.4609V16.955H45.5448V15.8711Z" fill="#29678C"/>
<path d="M41.2089 9.36719H40.125V10.4511H41.2089V9.36719Z" fill="#29678C"/>
<path d="M35.787 11.5352H34.7031V12.619H35.787V11.5352Z" fill="#29678C"/>
<path d="M40.662 11.5352H39.5781V12.619H40.662V11.5352Z" fill="#29678C"/>
<path d="M34.7011 13.7031H33.6172V14.787H34.7011V13.7031Z" fill="#29678C"/>
<path d="M40.1229 13.7031H39.0391V14.787H40.1229V13.7031Z" fill="#29678C"/>
<path d="M33.619 15.8711H32.5352V16.955H33.619V15.8711Z" fill="#29678C"/>
<path d="M39.58 15.8711H38.4961V16.955H39.58V15.8711Z" fill="#29678C"/>
<path d="M54.2128 9.36719H53.1289V10.4511H54.2128V9.36719Z" fill="#29678C"/>
<path d="M49.8768 9.36719H48.793V10.4511H49.8768V9.36719Z" fill="#29678C"/>
<path d="M55.2987 11.5352H54.2148V12.619H55.2987V11.5352Z" fill="#29678C"/>
<path d="M50.4198 11.5352H49.3359V12.619H50.4198V11.5352Z" fill="#29678C"/>
<path d="M56.3807 13.7031H55.2969V14.787H56.3807V13.7031Z" fill="#29678C"/>
<path d="M50.9589 13.7031H49.875V14.787H50.9589V13.7031Z" fill="#29678C"/>
<path d="M57.4628 15.8711H56.3789V16.955H57.4628V15.8711Z" fill="#29678C"/>
<path d="M51.5057 15.8711H50.4219V16.955H51.5057V15.8711Z" fill="#29678C"/>
<path d="M61.2596 18.582H31.4531V20.7498H61.2596V18.582Z" fill="#317AB0"/>
<path d="M61.2583 38.0898H28.7422V40.2576H61.2583V38.0898Z" fill="#29678C"/>
<path d="M61.2583 33.2117H61.0312C60.7817 33.2117 60.5386 33.1332 60.3362 32.9873C60.1338 32.8414 59.9824 32.6355 59.9035 32.3988C59.8246 32.1622 59.6732 31.9563 59.4708 31.8104C59.2684 31.6645 59.0252 31.586 58.7757 31.5859H58.3216C58.0721 31.586 57.8289 31.6645 57.6265 31.8104C57.4241 31.9563 57.2727 32.1622 57.1938 32.3988C57.1149 32.6355 56.9635 32.8414 56.7611 32.9873C56.5587 33.1332 56.3155 33.2117 56.066 33.2117H55.6119C55.3624 33.2117 55.1192 33.1332 54.9168 32.9873C54.7144 32.8414 54.563 32.6355 54.4841 32.3988C54.4052 32.1622 54.2538 31.9563 54.0514 31.8104C53.849 31.6645 53.6059 31.586 53.3564 31.5859H52.9022C52.6527 31.586 52.4095 31.6645 52.2071 31.8104C52.0047 31.9563 51.8534 32.1622 51.7744 32.3988C51.6955 32.6355 51.5441 32.8414 51.3417 32.9873C51.1393 33.1332 50.8962 33.2117 50.6467 33.2117H50.1925C49.943 33.2117 49.6999 33.1332 49.4975 32.9873C49.2951 32.8414 49.1437 32.6355 49.0648 32.3988C48.9858 32.1622 48.8345 31.9563 48.6321 31.8104C48.4297 31.6645 48.1865 31.586 47.937 31.5859H47.4829C47.2334 31.586 46.9902 31.6645 46.7878 31.8104C46.5854 31.9563 46.434 32.1622 46.3551 32.3988C46.2762 32.6355 46.1248 32.8414 45.9224 32.9873C45.72 33.1332 45.4768 33.2117 45.2273 33.2117H44.7732C44.5237 33.2117 44.2805 33.1332 44.0781 32.9873C43.8757 32.8414 43.7243 32.6355 43.6454 32.3988C43.5665 32.1622 43.4151 31.9563 43.2127 31.8104C43.0103 31.6645 42.7671 31.586 42.5176 31.5859H42.0635C41.814 31.586 41.5708 31.6645 41.3684 31.8104C41.166 31.9563 41.0147 32.1622 40.9357 32.3988C40.8568 32.6355 40.7054 32.8414 40.503 32.9873C40.3006 33.1332 40.0575 33.2117 39.808 33.2117H39.3538C39.1043 33.2117 38.8612 33.1332 38.6588 32.9873C38.4564 32.8414 38.305 32.6355 38.2261 32.3988C38.1471 32.1622 37.9958 31.9563 37.7934 31.8104C37.591 31.6645 37.3478 31.586 37.0983 31.5859H36.6441C36.3946 31.586 36.1515 31.6645 35.9491 31.8104C35.7467 31.9563 35.5953 32.1622 35.5164 32.3988C35.4375 32.6355 35.2861 32.8414 35.0837 32.9873C34.8813 33.1332 34.6381 33.2117 34.3886 33.2117H33.9345C33.685 33.2117 33.4418 33.1332 33.2394 32.9873C33.037 32.8414 32.8856 32.6355 32.8067 32.3988C32.7278 32.1622 32.5764 31.9563 32.374 31.8104C32.1716 31.6645 31.9284 31.586 31.6789 31.5859H31.2248C30.9753 31.586 30.7321 31.6645 30.5297 31.8104C30.3273 31.9563 30.1759 32.1622 30.097 32.3988C30.0181 32.6355 29.8667 32.8414 29.6643 32.9873C29.4619 33.1332 29.2188 33.2117 28.9693 33.2117H28.7422V35.9214H61.2583V33.2117Z" fill="#53BDED"/>
<path d="M30.912 39.1737H61.2604V38.0898H29.8281C29.8281 38.3773 29.9423 38.653 30.1456 38.8563C30.3488 39.0595 30.6245 39.1737 30.912 39.1737Z" fill="#317AB0"/>
<path d="M28.7427 37.5476H61.2588C61.4026 37.5476 61.5404 37.6047 61.6421 37.7063C61.7437 37.808 61.8008 37.9458 61.8008 38.0895V40.2573C61.8008 40.401 61.7437 40.5389 61.6421 40.6405C61.5404 40.7421 61.4026 40.7992 61.2588 40.7992H28.7427C28.599 40.7992 28.4611 40.7421 28.3595 40.6405C28.2579 40.5389 28.2008 40.401 28.2008 40.2573V38.0895C28.2008 37.9458 28.2579 37.808 28.3595 37.7063C28.4611 37.6047 28.599 37.5476 28.7427 37.5476ZM29.2847 39.7153H60.7169V38.6315H29.2847V39.7153ZM33.1259 7.51896C33.1687 7.42371 33.2381 7.34286 33.3258 7.28613C33.4135 7.22941 33.5157 7.19923 33.6201 7.19922H56.3814C56.4859 7.19923 56.5881 7.22941 56.6757 7.28613C56.7634 7.34286 56.8329 7.42371 56.8757 7.51896L61.7531 18.3577C61.7845 18.4275 61.8008 18.5033 61.8008 18.5799V20.7476C61.8008 20.8913 61.7437 21.0292 61.6421 21.1308C61.5404 21.2324 61.4026 21.2895 61.2588 21.2895H28.7427C28.599 21.2895 28.4611 21.2324 28.3595 21.1308C28.2579 21.0292 28.2008 20.8913 28.2008 20.7476V18.5799C28.2008 18.5033 28.2171 18.4275 28.2485 18.3577L33.1259 7.51896ZM56.0313 8.28309L32.9098 7.99927L30.6872 12.9383L28.3924 18.0379H60.4205L56.0313 8.28309ZM60.7169 20.2057V19.1218H29.2847V20.2057H60.7169Z" fill="#232323"/>
<path d="M36.8729 9.36719H35.7891V10.4511H36.8729V9.36719Z" fill="#232323"/>
<path d="M45.5448 9.36719H44.4609V10.4511H45.5448V9.36719Z" fill="#232323"/>
<path d="M45.5448 11.5352H44.4609V12.619H45.5448V11.5352Z" fill="#232323"/>
<path d="M45.5448 13.7031H44.4609V14.787H45.5448V13.7031Z" fill="#232323"/>
<path d="M45.5448 15.8711H44.4609V16.955H45.5448V15.8711Z" fill="#232323"/>
<path d="M41.2089 9.36719H40.125V10.4511H41.2089V9.36719Z" fill="#232323"/>
<path d="M35.787 11.5352H34.7031V12.619H35.787V11.5352Z" fill="#232323"/>
<path d="M40.662 11.5352H39.5781V12.619H40.662V11.5352Z" fill="#232323"/>
<path d="M34.7011 13.7031H33.6172V14.787H34.7011V13.7031Z" fill="#232323"/>
<path d="M40.1229 13.7031H39.0391V14.787H40.1229V13.7031Z" fill="#232323"/>
<path d="M33.619 15.8711H32.5352V16.955H33.619V15.8711Z" fill="#232323"/>
<path d="M39.58 15.8711H38.4961V16.955H39.58V15.8711Z" fill="#232323"/>
<path d="M54.2128 9.36719H53.1289V10.4511H54.2128V9.36719Z" fill="#232323"/>
<path d="M49.8768 9.36719H48.793V10.4511H49.8768V9.36719Z" fill="#232323"/>
<path d="M55.2987 11.5352H54.2148V12.619H55.2987V11.5352Z" fill="#232323"/>
<path d="M50.4198 11.5352H49.3359V12.619H50.4198V11.5352Z" fill="#232323"/>
<path d="M56.3807 13.7031H55.2969V14.787H56.3807V13.7031Z" fill="#232323"/>
<path d="M50.9589 13.7031H49.875V14.787H50.9589V13.7031Z" fill="#232323"/>
<path d="M57.4628 15.8711H56.3789V16.955H57.4628V15.8711Z" fill="#232323"/>
<path d="M51.5057 15.8711H50.4219V16.955H51.5057V15.8711Z" fill="#232323"/>
<path d="M61.258 22.375H28.7419C28.5981 22.375 28.4603 22.4321 28.3586 22.5337C28.257 22.6354 29.2838 23.5243 29.2838 23.668L29.2831 36.0012C29.2831 36.145 28.257 36.205 28.3586 36.3066C28.4603 36.4082 28.5981 36.4653 28.7419 36.4653H61.258C61.4017 36.4653 61.5396 36.4082 61.6412 36.3066C61.7428 36.205 61.7999 36.0671 61.7999 35.9234V22.9169C61.7999 22.7732 61.7428 22.6354 61.6412 22.5337C61.5396 22.4321 61.4017 22.375 61.258 22.375ZM29.2838 27.221C29.5878 27.1652 29.8713 27.0289 30.1048 26.8262C30.3382 26.6236 30.513 26.362 30.611 26.0688C30.6538 25.94 30.7361 25.828 30.8462 25.7486C30.9564 25.6692 31.0887 25.6265 31.2245 25.6266H31.6786C31.8144 25.6265 31.9467 25.6692 32.0568 25.7486C32.1669 25.828 32.2493 25.94 32.2921 26.0688C32.4068 26.4136 32.6272 26.7134 32.9219 26.9259C33.2167 27.1383 33.5708 27.2526 33.9341 27.2524H34.3883C34.7516 27.2526 35.1058 27.1383 35.4005 26.9259C35.6952 26.7134 35.9156 26.4136 36.0303 26.0688C36.0732 25.94 36.1555 25.828 36.2656 25.7486C36.3757 25.6692 36.5081 25.6265 36.6438 25.6266H37.098C37.2337 25.6265 37.366 25.6692 37.4762 25.7486C37.5863 25.828 37.6686 25.94 37.7114 26.0688C37.8262 26.4136 38.0465 26.7134 38.3413 26.9259C38.636 27.1383 38.9902 27.2526 39.3535 27.2524H39.8076C40.171 27.2526 40.5251 27.1383 40.8199 26.9259C41.1146 26.7134 41.335 26.4136 41.4497 26.0688C41.4925 25.94 41.5748 25.828 41.685 25.7486C41.7951 25.6692 41.9274 25.6265 42.0632 25.6266H42.5173C42.6531 25.6265 42.7854 25.6692 42.8955 25.7486C43.0056 25.828 43.088 25.94 43.1308 26.0688C43.2455 26.4136 43.4659 26.7134 43.7606 26.9259C44.0554 27.1383 44.4095 27.2526 44.7728 27.2524H45.227C45.5903 27.2526 45.9445 27.1383 46.2392 26.9259C46.534 26.7134 46.7543 26.4136 46.8691 26.0688C46.9119 25.94 46.9942 25.828 47.1043 25.7486C47.2144 25.6692 47.3468 25.6265 47.4825 25.6266H47.9367C48.0724 25.6265 48.2048 25.6692 48.3149 25.7486C48.425 25.828 48.5073 25.94 48.5501 26.0688C48.6649 26.4136 48.8852 26.7134 49.18 26.9259C49.4747 27.1383 49.8289 27.2526 50.1922 27.2524H50.6463C51.0097 27.2526 51.3638 27.1383 51.6586 26.9259C51.9533 26.7134 52.1737 26.4136 52.2884 26.0688C52.3312 25.94 52.4135 25.828 52.5237 25.7486C52.6338 25.6692 52.7661 25.6265 52.9019 25.6266H53.356C53.4918 25.6265 53.6241 25.6692 53.7342 25.7486C53.8444 25.828 53.9267 25.94 53.9695 26.0688C54.0842 26.4136 54.3046 26.7134 54.5993 26.9259C54.8941 27.1383 55.2482 27.2526 55.6116 27.2524H56.0657C56.429 27.2526 56.7832 27.1383 57.0779 26.9259C57.3727 26.7134 57.593 26.4136 57.7078 26.0688C57.7506 25.94 57.8329 25.828 57.943 25.7486C58.0531 25.6692 58.1855 25.6265 58.3212 25.6266H58.7754C58.9111 25.6265 59.0435 25.6692 59.1536 25.7486C59.2637 25.828 59.346 25.94 59.3888 26.0688C59.4868 26.362 59.6616 26.6236 59.895 26.8262C60.1285 27.0289 60.412 27.1652 60.716 27.221V29.3302C60.5761 29.254 60.4697 29.1284 60.4174 28.9779C60.3027 28.6332 60.0823 28.3333 59.7876 28.1209C59.4929 27.9085 59.1387 27.7942 58.7754 27.7944H58.3212C57.9579 27.7942 57.6038 27.9085 57.309 28.1209C57.0143 28.3333 56.7939 28.6332 56.6792 28.9779C56.6363 29.1068 56.554 29.2188 56.4439 29.2982C56.3338 29.3776 56.2014 29.4203 56.0657 29.4202H55.6116C55.4758 29.4203 55.3435 29.3776 55.2333 29.2982C55.1232 29.2188 55.0409 29.1068 54.9981 28.9779C54.8833 28.6332 54.663 28.3333 54.3682 28.1209C54.0735 27.9085 53.7193 27.7942 53.356 27.7944H52.9019C52.5385 27.7942 52.1844 27.9085 51.8897 28.1209C51.5949 28.3333 51.3745 28.6332 51.2598 28.9779C51.217 29.1068 51.1347 29.2188 51.0245 29.2982C50.9144 29.3776 50.7821 29.4203 50.6463 29.4202H50.1922C50.0564 29.4203 49.9241 29.3776 49.814 29.2982C49.7039 29.2188 49.6216 29.1068 49.5787 28.9779C49.464 28.6332 49.2436 28.3333 48.9489 28.1209C48.6541 27.9085 48.3 27.7942 47.9367 27.7944H47.4825C47.1192 27.7942 46.765 27.9085 46.4703 28.1209C46.1756 28.3333 45.9552 28.6332 45.8405 28.9779C45.7976 29.1068 45.7153 29.2188 45.6052 29.2982C45.4951 29.3776 45.3627 29.4203 45.227 29.4202H44.7728C44.6371 29.4203 44.5048 29.3776 44.3946 29.2982C44.2845 29.2188 44.2022 29.1068 44.1594 28.9779C44.0446 28.6332 43.8243 28.3333 43.5295 28.1209C43.2348 27.9085 42.8806 27.7942 42.5173 27.7944H42.0632C41.6998 27.7942 41.3457 27.9085 41.0509 28.1209C40.7562 28.3333 40.5358 28.6332 40.4211 28.9779C40.3783 29.1068 40.296 29.2188 40.1858 29.2982C40.0757 29.3776 39.9434 29.4203 39.8076 29.4202H39.3535C39.2177 29.4203 39.0854 29.3776 38.9753 29.2982C38.8652 29.2188 38.7828 29.1068 38.74 28.9779C38.6253 28.6332 38.4049 28.3333 38.1102 28.1209C37.8154 27.9085 37.4613 27.7942 37.098 27.7944H36.6438C36.2805 27.7942 35.9263 27.9085 35.6316 28.1209C35.3369 28.3333 35.1165 28.6332 35.0017 28.9779C34.9589 29.1068 34.8766 29.2188 34.7665 29.2982C34.6564 29.3776 34.524 29.4203 34.3883 29.4202H33.9341C33.7984 29.4203 33.666 29.3776 33.5559 29.2982C33.4458 29.2188 33.3635 29.1068 33.3207 28.9779C33.2059 28.6332 32.9856 28.3333 32.6908 28.1209C32.3961 27.9085 32.0419 27.7942 31.6786 27.7944H31.2245C30.8611 27.7942 30.507 27.9085 30.2122 28.1209C29.9175 28.3333 29.6971 28.6332 29.5824 28.9779C29.5302 29.1284 29.4237 29.254 29.2838 29.3302V27.221ZM29.2838 30.4726C29.5878 30.4168 29.8713 30.2805 30.1048 30.0778C30.3382 29.8752 30.513 29.6136 30.611 29.3204C30.6538 29.1916 30.7361 29.0796 30.8462 29.0002C30.9564 28.9208 31.0887 28.8781 31.2245 28.8782H31.6786C31.8144 28.8781 31.9467 28.9208 32.0568 29.0002C32.1669 29.0796 32.2493 29.1916 32.2921 29.3204C32.4068 29.6652 32.6272 29.965 32.9219 30.1775C33.2167 30.3899 33.5708 30.5042 33.9341 30.504H34.3883C34.7516 30.5042 35.1058 30.3899 35.4005 30.1775C35.6952 29.965 35.9156 29.6652 36.0303 29.3204C36.0732 29.1916 36.1555 29.0796 36.2656 29.0002C36.3757 28.9208 36.5081 28.8781 36.6438 28.8782H37.098C37.2337 28.8781 37.366 28.9208 37.4762 29.0002C37.5863 29.0796 37.6686 29.1916 37.7114 29.3204C37.8262 29.6652 38.0465 29.965 38.3413 30.1775C38.636 30.3899 38.9902 30.5042 39.3535 30.504H39.8076C40.171 30.5042 40.5251 30.3899 40.8199 30.1775C41.1146 29.965 41.335 29.6652 41.4497 29.3204C41.4925 29.1916 41.5748 29.0796 41.685 29.0002C41.7951 28.9208 41.9274 28.8781 42.0632 28.8782H42.5173C42.6531 28.8781 42.7854 28.9208 42.8955 29.0002C43.0056 29.0796 43.088 29.1916 43.1308 29.3204C43.2455 29.6652 43.4659 29.965 43.7606 30.1775C44.0554 30.3899 44.4095 30.5042 44.7728 30.504H45.227C45.5903 30.5042 45.9445 30.3899 46.2392 30.1775C46.534 29.965 46.7543 29.6652 46.8691 29.3204C46.9119 29.1916 46.9942 29.0796 47.1043 29.0002C47.2144 28.9208 47.3468 28.8781 47.4825 28.8782H47.9367C48.0724 28.8781 48.2048 28.9208 48.3149 29.0002C48.425 29.0796 48.5073 29.1916 48.5501 29.3204C48.6649 29.6652 48.8852 29.965 49.18 30.1775C49.4747 30.3899 49.8289 30.5042 50.1922 30.504H50.6463C51.0097 30.5042 51.3638 30.3899 51.6586 30.1775C51.9533 29.965 52.1737 29.6652 52.2884 29.3204C52.3312 29.1916 52.4135 29.0796 52.5237 29.0002C52.6338 28.9208 52.7661 28.8781 52.9019 28.8782H53.356C53.4918 28.8781 53.6241 28.9208 53.7342 29.0002C53.8444 29.0796 53.9267 29.1916 53.9695 29.3204C54.0842 29.6652 54.3046 29.965 54.5993 30.1775C54.8941 30.3899 55.2482 30.5042 55.6116 30.504H56.0657C56.429 30.5042 56.7832 30.3899 57.0779 30.1775C57.3727 29.965 57.593 29.6652 57.7078 29.3204C57.7506 29.1916 57.8329 29.0796 57.943 29.0002C58.0531 28.9208 58.1855 28.8781 58.3212 28.8782H58.7754C58.9111 28.8781 59.0435 28.9208 59.1536 29.0002C59.2637 29.0796 59.346 29.1916 59.3888 29.3204C59.4868 29.6136 59.6616 29.8752 59.895 30.0778C60.1285 30.2805 60.412 30.4168 60.716 30.4726V32.5818C60.5761 32.5056 60.4697 32.38 60.4174 32.2296C60.3027 31.8848 60.0823 31.585 59.7876 31.3725C59.4929 31.1601 59.1387 31.0458 58.7754 31.046H58.3212C57.9579 31.0458 57.6038 31.1601 57.309 31.3725C57.0143 31.585 56.7939 31.8848 56.6792 32.2296C56.6363 32.3584 56.554 32.4704 56.4439 32.5498C56.3338 32.6292 56.2014 32.6719 56.0657 32.6718H55.6116C55.4758 32.6719 55.3435 32.6292 55.2333 32.5498C55.1232 32.4704 55.0409 32.3584 54.9981 32.2296C54.8833 31.8848 54.663 31.585 54.3682 31.3725C54.0735 31.1601 53.7193 31.0458 53.356 31.046H52.9019C52.5385 31.0458 52.1844 31.1601 51.8897 31.3725C51.5949 31.585 51.3745 31.8848 51.2598 32.2296C51.217 32.3584 51.1347 32.4704 51.0245 32.5498C50.9144 32.6292 50.7821 32.6719 50.6463 32.6718H50.1922C50.0564 32.6719 49.9241 32.6292 49.814 32.5498C49.7039 32.4704 49.6216 32.3584 49.5787 32.2296C49.464 31.8848 49.2436 31.585 48.9489 31.3725C48.6541 31.1601 48.3 31.0458 47.9367 31.046H47.4825C47.1192 31.0458 46.765 31.1601 46.4703 31.3725C46.1756 31.585 45.9552 31.8848 45.8405 32.2296C45.7976 32.3584 45.7153 32.4704 45.6052 32.5498C45.4951 32.6292 45.3627 32.6719 45.227 32.6718H44.7728C44.6371 32.6719 44.5048 32.6292 44.3946 32.5498C44.2845 32.4704 44.2022 32.3584 44.1594 32.2296C44.0446 31.8848 43.8243 31.585 43.5295 31.3725C43.2348 31.1601 42.8806 31.0458 42.5173 31.046H42.0632C41.6998 31.0458 41.3457 31.1601 41.0509 31.3725C40.7562 31.585 40.5358 31.8848 40.4211 32.2296C40.3783 32.3584 40.296 32.4704 40.1858 32.5498C40.0757 32.6292 39.9434 32.6719 39.8076 32.6718H39.3535C39.2177 32.6719 39.0854 32.6292 38.9753 32.5498C38.8652 32.4704 38.7828 32.3584 38.74 32.2296C38.6253 31.8848 38.4049 31.585 38.1102 31.3725C37.8154 31.1601 37.4613 31.0458 37.098 31.046H36.6438C36.2805 31.0458 35.9263 31.1601 35.6316 31.3725C35.3369 31.585 35.1165 31.8848 35.0017 32.2296C34.9589 32.3584 34.8766 32.4704 34.7665 32.5498C34.6564 32.6292 34.524 32.6719 34.3883 32.6718H33.9341C33.7984 32.6719 33.666 32.6292 33.5559 32.5498C33.4458 32.4704 33.3635 32.3584 33.3207 32.2296C33.2059 31.8848 32.9856 31.585 32.6908 31.3725C32.3961 31.1601 32.0419 31.0458 31.6786 31.046H31.2245C30.8611 31.0458 30.507 31.1601 30.2122 31.3725C29.9175 31.585 29.6971 31.8848 29.5824 32.2296C29.5302 32.38 29.4237 32.5056 29.2838 32.5818V30.4726ZM60.716 23.4589V26.0786C60.5761 26.0024 60.4697 25.8768 60.4174 25.7263C60.3027 25.3816 60.0823 25.0817 59.7876 24.8693C59.4929 24.6568 59.1387 24.5426 58.7754 24.5427H58.3212C57.9579 24.5426 57.6038 24.6568 57.309 24.8693C57.0143 25.0817 56.7939 25.3816 56.6792 25.7263C56.6363 25.8551 56.554 25.9672 56.4439 26.0466C56.3338 26.126 56.2014 26.1686 56.0657 26.1685H55.6116C55.4758 26.1686 55.3435 26.126 55.2333 26.0466C55.1232 25.9672 55.0409 25.8551 54.9981 25.7263C54.8833 25.3816 54.663 25.0817 54.3682 24.8693C54.0735 24.6568 53.7193 24.5426 53.356 24.5427H52.9019C52.5385 24.5426 52.1844 24.6568 51.8897 24.8693C51.5949 25.0817 51.3745 25.3816 51.2598 25.7263C51.217 25.8551 51.1347 25.9672 51.0245 26.0466C50.9144 26.126 50.7821 26.1686 50.6463 26.1685H50.1922C50.0564 26.1686 49.9241 26.126 49.814 26.0466C49.7039 25.9672 49.6216 25.8551 49.5787 25.7263C49.464 25.3816 49.2436 25.0817 48.9489 24.8693C48.6541 24.6568 48.3 24.5426 47.9367 24.5427H47.4825C47.1192 24.5426 46.765 24.6568 46.4703 24.8693C46.1756 25.0817 45.9552 25.3816 45.8405 25.7263C45.7976 25.8551 45.7153 25.9672 45.6052 26.0466C45.4951 26.126 45.3627 26.1686 45.227 26.1685H44.7728C44.6371 26.1686 44.5048 26.126 44.3946 26.0466C44.2845 25.9672 44.2022 25.8551 44.1594 25.7263C44.0446 25.3816 43.8243 25.0817 43.5295 24.8693C43.2348 24.6568 42.8806 24.5426 42.5173 24.5427H42.0632C41.6998 24.5426 41.3457 24.6568 41.0509 24.8693C40.7562 25.0817 40.5358 25.3816 40.4211 25.7263C40.3783 25.8551 40.296 25.9672 40.1858 26.0466C40.0757 26.126 39.9434 26.1686 39.8076 26.1685H39.3535C39.2177 26.1686 39.0854 26.126 38.9753 26.0466C38.8652 25.9672 38.7828 25.8551 38.74 25.7263C38.6253 25.3816 38.4049 25.0817 38.1102 24.8693C37.8154 24.6568 37.4613 24.5426 37.098 24.5427H36.6438C36.2805 24.5426 35.9263 24.6568 35.6316 24.8693C35.3369 25.0817 35.1165 25.3816 35.0017 25.7263C34.9589 25.8551 34.8766 25.9672 34.7665 26.0466C34.6564 26.126 34.524 26.1686 34.3883 26.1685H33.9341C33.7984 26.1686 33.666 26.126 33.5559 26.0466C33.4458 25.9672 33.3635 25.8551 33.3207 25.7263C33.2059 25.3816 32.9856 25.0817 32.6908 24.8693C32.3961 24.6568 32.0419 24.5426 31.6786 24.5427H31.2245C30.8611 24.5426 30.507 24.6568 30.2122 24.8693C29.9175 25.0817 29.6971 25.3816 29.5824 25.7263C29.5302 25.8768 29.4237 26.0024 29.2838 26.0786V24.7687V23.4589H60.716ZM29.2838 35.3815V33.7242C29.5878 33.6684 29.8713 33.5321 30.1048 33.3294C30.3382 33.1268 30.513 32.8652 30.611 32.5721C30.6538 32.4432 30.7361 32.3312 30.8462 32.2518C30.9564 32.1724 31.0887 32.1297 31.2245 32.1298H31.6786C31.8144 32.1297 31.9467 32.1724 32.0568 32.2518C32.1669 32.3312 32.2493 32.4432 32.2921 32.5721C32.4068 32.9168 32.6272 33.2167 32.9219 33.4291C33.2167 33.6415 33.5708 33.7558 33.9341 33.7556H34.3883C34.7516 33.7558 35.1058 33.6415 35.4005 33.4291C35.6952 33.2167 35.9156 32.9168 36.0303 32.5721C36.0732 32.4432 36.1555 32.3312 36.2656 32.2518C36.3757 32.1724 36.5081 32.1297 36.6438 32.1298H37.098C37.2337 32.1297 37.366 32.1724 37.4762 32.2518C37.5863 32.3312 37.6686 32.4432 37.7114 32.5721C37.8262 32.9168 38.0465 33.2167 38.3413 33.4291C38.636 33.6415 38.9902 33.7558 39.3535 33.7556H39.8076C40.171 33.7558 40.5251 33.6415 40.8199 33.4291C41.1146 33.2167 41.335 32.9168 41.4497 32.5721C41.4925 32.4432 41.5748 32.3312 41.685 32.2518C41.7951 32.1724 41.9274 32.1297 42.0632 32.1298H42.5173C42.6531 32.1297 42.7854 32.1724 42.8955 32.2518C43.0056 32.3312 43.088 32.4432 43.1308 32.5721C43.2455 32.9168 43.4659 33.2167 43.7606 33.4291C44.0554 33.6415 44.4095 33.7558 44.7728 33.7556H45.227C45.5903 33.7558 45.9445 33.6415 46.2392 33.4291C46.534 33.2167 46.7543 32.9168 46.8691 32.5721C46.9119 32.4432 46.9942 32.3312 47.1043 32.2518C47.2144 32.1724 47.3468 32.1297 47.4825 32.1298H47.9367C48.0724 32.1297 48.2048 32.1724 48.3149 32.2518C48.425 32.3312 48.5073 32.4432 48.5501 32.5721C48.6649 32.9168 48.8852 33.2167 49.18 33.4291C49.4747 33.6415 49.8289 33.7558 50.1922 33.7556H50.6463C51.0097 33.7558 51.3638 33.6415 51.6586 33.4291C51.9533 33.2167 52.1737 32.9168 52.2884 32.5721C52.3312 32.4432 52.4135 32.3312 52.5237 32.2518C52.6338 32.1724 52.7661 32.1297 52.9019 32.1298H53.356C53.4918 32.1297 53.6241 32.1724 53.7342 32.2518C53.8444 32.3312 53.9267 32.4432 53.9695 32.5721C54.0842 32.9168 54.3046 33.2167 54.5993 33.4291C54.8941 33.6415 55.2482 33.7558 55.6116 33.7556H56.0657C56.429 33.7558 56.7832 33.6415 57.0779 33.4291C57.3727 33.2167 57.593 32.9168 57.7078 32.5721C57.7506 32.4432 57.8329 32.3312 57.943 32.2518C58.0531 32.1724 58.1855 32.1297 58.3212 32.1298H58.7754C58.9111 32.1297 59.0435 32.1724 59.1536 32.2518C59.2637 32.3312 59.346 32.4432 59.3888 32.5721C59.4868 32.8652 59.6616 33.1268 59.895 33.3294C60.1285 33.5321 60.412 33.6684 60.716 33.7242V35.3815H29.2838Z" fill="#232323"/>
</svg>
