<svg width="49" height="48" viewBox="0 0 49 48" fill="none" xmlns="http://www.w3.org/2000/svg">
<path d="M40.7583 22.9141H8.24219V35.9205H40.7583V22.9141Z" fill="#29678C"/>
<path d="M40.7583 26.7078H40.5312C40.2817 26.7078 40.0386 26.6293 39.8362 26.4834C39.6338 26.3375 39.4824 26.1316 39.4035 25.8949C39.3246 25.6582 39.1732 25.4524 38.9708 25.3065C38.7684 25.1606 38.5252 25.0821 38.2757 25.082H37.8216C37.5721 25.0821 37.3289 25.1606 37.1265 25.3065C36.9241 25.4524 36.7727 25.6582 36.6938 25.8949C36.6149 26.1316 36.4635 26.3375 36.2611 26.4834C36.0587 26.6293 35.8155 26.7078 35.566 26.7078H35.1119C34.8624 26.7078 34.6192 26.6293 34.4168 26.4834C34.2144 26.3375 34.063 26.1316 33.9841 25.8949C33.9052 25.6582 33.7538 25.4524 33.5514 25.3065C33.349 25.1606 33.1059 25.0821 32.8564 25.082H32.4022C32.1527 25.0821 31.9095 25.1606 31.7071 25.3065C31.5047 25.4524 31.3534 25.6582 31.2744 25.8949C31.1955 26.1316 31.0441 26.3375 30.8417 26.4834C30.6393 26.6293 30.3962 26.7078 30.1467 26.7078H29.6925C29.443 26.7078 29.1999 26.6293 28.9975 26.4834C28.7951 26.3375 28.6437 26.1316 28.5648 25.8949C28.4858 25.6582 28.3345 25.4524 28.1321 25.3065C27.9297 25.1606 27.6865 25.0821 27.437 25.082H26.9829C26.7334 25.0821 26.4902 25.1606 26.2878 25.3065C26.0854 25.4524 25.934 25.6582 25.8551 25.8949C25.7762 26.1316 25.6248 26.3375 25.4224 26.4834C25.22 26.6293 24.9768 26.7078 24.7273 26.7078H24.2732C24.0237 26.7078 23.7805 26.6293 23.5781 26.4834C23.3757 26.3375 23.2243 26.1316 23.1454 25.8949C23.0665 25.6582 22.9151 25.4524 22.7127 25.3065C22.5103 25.1606 22.2671 25.0821 22.0176 25.082H21.5635C21.314 25.0821 21.0708 25.1606 20.8684 25.3065C20.666 25.4524 20.5147 25.6582 20.4357 25.8949C20.3568 26.1316 20.2054 26.3375 20.003 26.4834C19.8006 26.6293 19.5575 26.7078 19.308 26.7078H18.8538C18.6043 26.7078 18.3612 26.6293 18.1588 26.4834C17.9564 26.3375 17.805 26.1316 17.7261 25.8949C17.6471 25.6582 17.4958 25.4524 17.2934 25.3065C17.091 25.1606 16.8478 25.0821 16.5983 25.082H16.1441C15.8946 25.0821 15.6515 25.1606 15.4491 25.3065C15.2467 25.4524 15.0953 25.6582 15.0164 25.8949C14.9375 26.1316 14.7861 26.3375 14.5837 26.4834C14.3813 26.6293 14.1381 26.7078 13.8886 26.7078H13.4345C13.185 26.7078 12.9418 26.6293 12.7394 26.4834C12.537 26.3375 12.3856 26.1316 12.3067 25.8949C12.2278 25.6582 12.0764 25.4524 11.874 25.3065C11.6716 25.1606 11.4284 25.0821 11.1789 25.082H10.7248C10.4753 25.0821 10.2321 25.1606 10.0297 25.3065C9.82733 25.4524 9.67595 25.6582 9.59703 25.8949C9.5181 26.1316 9.36673 26.3375 9.16433 26.4834C8.96193 26.6293 8.71876 26.7078 8.46926 26.7078H8.24219V35.9207H40.7583V26.7078Z" fill="#3582C0"/>
<path d="M40.7583 29.9617H40.5312C40.2817 29.9617 40.0386 29.8832 39.8362 29.7373C39.6338 29.5914 39.4824 29.3855 39.4035 29.1488C39.3246 28.9122 39.1732 28.7063 38.9708 28.5604C38.7684 28.4145 38.5252 28.336 38.2757 28.3359H37.8216C37.5721 28.336 37.3289 28.4145 37.1265 28.5604C36.9241 28.7063 36.7727 28.9122 36.6938 29.1488C36.6149 29.3855 36.4635 29.5914 36.2611 29.7373C36.0587 29.8832 35.8155 29.9617 35.566 29.9617H35.1119C34.8624 29.9617 34.6192 29.8832 34.4168 29.7373C34.2144 29.5914 34.063 29.3855 33.9841 29.1488C33.9052 28.9122 33.7538 28.7063 33.5514 28.5604C33.349 28.4145 33.1059 28.336 32.8564 28.3359H32.4022C32.1527 28.336 31.9095 28.4145 31.7071 28.5604C31.5047 28.7063 31.3534 28.9122 31.2744 29.1488C31.1955 29.3855 31.0441 29.5914 30.8417 29.7373C30.6393 29.8832 30.3962 29.9617 30.1467 29.9617H29.6925C29.443 29.9617 29.1999 29.8832 28.9975 29.7373C28.7951 29.5914 28.6437 29.3855 28.5648 29.1488C28.4858 28.9122 28.3345 28.7063 28.1321 28.5604C27.9297 28.4145 27.6865 28.336 27.437 28.3359H26.9829C26.7334 28.336 26.4902 28.4145 26.2878 28.5604C26.0854 28.7063 25.934 28.9122 25.8551 29.1488C25.7762 29.3855 25.6248 29.5914 25.4224 29.7373C25.22 29.8832 24.9768 29.9617 24.7273 29.9617H24.2732C24.0237 29.9617 23.7805 29.8832 23.5781 29.7373C23.3757 29.5914 23.2243 29.3855 23.1454 29.1488C23.0665 28.9122 22.9151 28.7063 22.7127 28.5604C22.5103 28.4145 22.2671 28.336 22.0176 28.3359H21.5635C21.314 28.336 21.0708 28.4145 20.8684 28.5604C20.666 28.7063 20.5147 28.9122 20.4357 29.1488C20.3568 29.3855 20.2054 29.5914 20.003 29.7373C19.8006 29.8832 19.5575 29.9617 19.308 29.9617H18.8538C18.6043 29.9617 18.3612 29.8832 18.1588 29.7373C17.9564 29.5914 17.805 29.3855 17.7261 29.1488C17.6471 28.9122 17.4958 28.7063 17.2934 28.5604C17.091 28.4145 16.8478 28.336 16.5983 28.3359H16.1441C15.8946 28.336 15.6515 28.4145 15.4491 28.5604C15.2467 28.7063 15.0953 28.9122 15.0164 29.1488C14.9375 29.3855 14.7861 29.5914 14.5837 29.7373C14.3813 29.8832 14.1381 29.9617 13.8886 29.9617H13.4345C13.185 29.9617 12.9418 29.8832 12.7394 29.7373C12.537 29.5914 12.3856 29.3855 12.3067 29.1488C12.2278 28.9122 12.0764 28.7063 11.874 28.5604C11.6716 28.4145 11.4284 28.336 11.1789 28.3359H10.7248C10.4753 28.336 10.2321 28.4145 10.0297 28.5604C9.82733 28.7063 9.67595 28.9122 9.59703 29.1488C9.5181 29.3855 9.36673 29.5914 9.16433 29.7373C8.96193 29.8832 8.71876 29.9617 8.46926 29.9617H8.24219V35.923H40.7583V29.9617Z" fill="#2B8AFC"/>
<path d="M40.7583 18.582H8.24219V20.7498H40.7583V18.582Z" fill="#29678C"/>
<path d="M8.24219 18.5809L13.1196 7.74219H35.8809L40.7583 18.5809" fill="#3582C0"/>
<path d="M15.8305 7.74219L10.9531 18.5809H40.7596L35.8822 7.74219H15.8305Z" fill="#2B8AFC"/>
<path d="M16.3729 9.36719H15.2891V10.4511H16.3729V9.36719Z" fill="#29678C"/>
<path d="M25.0448 9.36719H23.9609V10.4511H25.0448V9.36719Z" fill="#29678C"/>
<path d="M25.0448 11.5352H23.9609V12.619H25.0448V11.5352Z" fill="#29678C"/>
<path d="M25.0448 13.7031H23.9609V14.787H25.0448V13.7031Z" fill="#29678C"/>
<path d="M25.0448 15.8711H23.9609V16.955H25.0448V15.8711Z" fill="#29678C"/>
<path d="M20.7089 9.36719H19.625V10.4511H20.7089V9.36719Z" fill="#29678C"/>
<path d="M15.287 11.5352H14.2031V12.619H15.287V11.5352Z" fill="#29678C"/>
<path d="M20.162 11.5352H19.0781V12.619H20.162V11.5352Z" fill="#29678C"/>
<path d="M14.2011 13.7031H13.1172V14.787H14.2011V13.7031Z" fill="#29678C"/>
<path d="M19.6229 13.7031H18.5391V14.787H19.6229V13.7031Z" fill="#29678C"/>
<path d="M13.119 15.8711H12.0352V16.955H13.119V15.8711Z" fill="#29678C"/>
<path d="M19.08 15.8711H17.9961V16.955H19.08V15.8711Z" fill="#29678C"/>
<path d="M33.7128 9.36719H32.6289V10.4511H33.7128V9.36719Z" fill="#29678C"/>
<path d="M29.3768 9.36719H28.293V10.4511H29.3768V9.36719Z" fill="#29678C"/>
<path d="M34.7987 11.5352H33.7148V12.619H34.7987V11.5352Z" fill="#29678C"/>
<path d="M29.9198 11.5352H28.8359V12.619H29.9198V11.5352Z" fill="#29678C"/>
<path d="M35.8807 13.7031H34.7969V14.787H35.8807V13.7031Z" fill="#29678C"/>
<path d="M30.4589 13.7031H29.375V14.787H30.4589V13.7031Z" fill="#29678C"/>
<path d="M36.9628 15.8711H35.8789V16.955H36.9628V15.8711Z" fill="#29678C"/>
<path d="M31.0057 15.8711H29.9219V16.955H31.0057V15.8711Z" fill="#29678C"/>
<path d="M40.7596 18.582H10.9531V20.7498H40.7596V18.582Z" fill="#317AB0"/>
<path d="M40.7583 38.0898H8.24219V40.2576H40.7583V38.0898Z" fill="#29678C"/>
<path d="M40.7583 33.2117H40.5312C40.2817 33.2117 40.0386 33.1332 39.8362 32.9873C39.6338 32.8414 39.4824 32.6355 39.4035 32.3988C39.3246 32.1622 39.1732 31.9563 38.9708 31.8104C38.7684 31.6645 38.5252 31.586 38.2757 31.5859H37.8216C37.5721 31.586 37.3289 31.6645 37.1265 31.8104C36.9241 31.9563 36.7727 32.1622 36.6938 32.3988C36.6149 32.6355 36.4635 32.8414 36.2611 32.9873C36.0587 33.1332 35.8155 33.2117 35.566 33.2117H35.1119C34.8624 33.2117 34.6192 33.1332 34.4168 32.9873C34.2144 32.8414 34.063 32.6355 33.9841 32.3988C33.9052 32.1622 33.7538 31.9563 33.5514 31.8104C33.349 31.6645 33.1059 31.586 32.8564 31.5859H32.4022C32.1527 31.586 31.9095 31.6645 31.7071 31.8104C31.5047 31.9563 31.3534 32.1622 31.2744 32.3988C31.1955 32.6355 31.0441 32.8414 30.8417 32.9873C30.6393 33.1332 30.3962 33.2117 30.1467 33.2117H29.6925C29.443 33.2117 29.1999 33.1332 28.9975 32.9873C28.7951 32.8414 28.6437 32.6355 28.5648 32.3988C28.4858 32.1622 28.3345 31.9563 28.1321 31.8104C27.9297 31.6645 27.6865 31.586 27.437 31.5859H26.9829C26.7334 31.586 26.4902 31.6645 26.2878 31.8104C26.0854 31.9563 25.934 32.1622 25.8551 32.3988C25.7762 32.6355 25.6248 32.8414 25.4224 32.9873C25.22 33.1332 24.9768 33.2117 24.7273 33.2117H24.2732C24.0237 33.2117 23.7805 33.1332 23.5781 32.9873C23.3757 32.8414 23.2243 32.6355 23.1454 32.3988C23.0665 32.1622 22.9151 31.9563 22.7127 31.8104C22.5103 31.6645 22.2671 31.586 22.0176 31.5859H21.5635C21.314 31.586 21.0708 31.6645 20.8684 31.8104C20.666 31.9563 20.5147 32.1622 20.4357 32.3988C20.3568 32.6355 20.2054 32.8414 20.003 32.9873C19.8006 33.1332 19.5575 33.2117 19.308 33.2117H18.8538C18.6043 33.2117 18.3612 33.1332 18.1588 32.9873C17.9564 32.8414 17.805 32.6355 17.7261 32.3988C17.6471 32.1622 17.4958 31.9563 17.2934 31.8104C17.091 31.6645 16.8478 31.586 16.5983 31.5859H16.1441C15.8946 31.586 15.6515 31.6645 15.4491 31.8104C15.2467 31.9563 15.0953 32.1622 15.0164 32.3988C14.9375 32.6355 14.7861 32.8414 14.5837 32.9873C14.3813 33.1332 14.1381 33.2117 13.8886 33.2117H13.4345C13.185 33.2117 12.9418 33.1332 12.7394 32.9873C12.537 32.8414 12.3856 32.6355 12.3067 32.3988C12.2278 32.1622 12.0764 31.9563 11.874 31.8104C11.6716 31.6645 11.4284 31.586 11.1789 31.5859H10.7248C10.4753 31.586 10.2321 31.6645 10.0297 31.8104C9.82733 31.9563 9.67595 32.1622 9.59703 32.3988C9.5181 32.6355 9.36673 32.8414 9.16433 32.9873C8.96193 33.1332 8.71876 33.2117 8.46926 33.2117H8.24219V35.9214H40.7583V33.2117Z" fill="#53BDED"/>
<path d="M10.412 39.1737H40.7604V38.0898H9.32812C9.32812 38.3773 9.44232 38.653 9.64558 38.8563C9.84885 39.0595 10.1245 39.1737 10.412 39.1737Z" fill="#317AB0"/>
<path d="M40.7573 37.5476H8.24115C8.09742 37.5476 7.95958 37.6047 7.85795 37.7063C7.75632 37.808 7.69922 37.9458 7.69922 38.0895V40.2573C7.69922 40.401 7.75632 40.5389 7.85795 40.6405C7.95958 40.7421 8.09742 40.7992 8.24115 40.7992H40.7573C40.901 40.7992 41.0389 40.7421 41.1405 40.6405C41.2421 40.5389 41.2992 40.401 41.2992 40.2573V38.0895C41.2992 37.9458 41.2421 37.808 41.1405 37.7063C41.0389 37.6047 40.901 37.5476 40.7573 37.5476ZM40.2153 39.7153H8.78309V38.6315H40.2153V39.7153ZM36.3741 7.51896C36.3313 7.42371 36.2619 7.34286 36.1742 7.28613C36.0865 7.22941 35.9843 7.19923 35.8799 7.19922H13.1186C13.0141 7.19923 12.9119 7.22941 12.8243 7.28613C12.7366 7.34286 12.6671 7.42371 12.6243 7.51896L7.74691 18.3577C7.71549 18.4275 7.69923 18.5033 7.69922 18.5799V20.7476C7.69922 20.8913 7.75632 21.0292 7.85795 21.1308C7.95958 21.2324 8.09742 21.2895 8.24115 21.2895H40.7573C40.901 21.2895 41.0389 21.2324 41.1405 21.1308C41.2421 21.0292 41.2992 20.8913 41.2992 20.7476V18.5799C41.2992 18.5033 41.2829 18.4275 41.2515 18.3577L36.3741 7.51896ZM13.4687 8.28309H35.5298L39.9194 18.0379H9.07953L13.4687 8.28309ZM8.78309 20.2057V19.1218H40.2153V20.2057H8.78309Z" fill="#232323"/>
<path d="M16.3729 9.36719H15.2891V10.4511H16.3729V9.36719Z" fill="#232323"/>
<path d="M25.0448 9.36719H23.9609V10.4511H25.0448V9.36719Z" fill="#232323"/>
<path d="M25.0448 11.5352H23.9609V12.619H25.0448V11.5352Z" fill="#232323"/>
<path d="M25.0448 13.7031H23.9609V14.787H25.0448V13.7031Z" fill="#232323"/>
<path d="M25.0448 15.8711H23.9609V16.955H25.0448V15.8711Z" fill="#232323"/>
<path d="M20.7089 9.36719H19.625V10.4511H20.7089V9.36719Z" fill="#232323"/>
<path d="M15.287 11.5352H14.2031V12.619H15.287V11.5352Z" fill="#232323"/>
<path d="M20.162 11.5352H19.0781V12.619H20.162V11.5352Z" fill="#232323"/>
<path d="M14.2011 13.7031H13.1172V14.787H14.2011V13.7031Z" fill="#232323"/>
<path d="M19.6229 13.7031H18.5391V14.787H19.6229V13.7031Z" fill="#232323"/>
<path d="M13.119 15.8711H12.0352V16.955H13.119V15.8711Z" fill="#232323"/>
<path d="M19.08 15.8711H17.9961V16.955H19.08V15.8711Z" fill="#232323"/>
<path d="M33.7128 9.36719H32.6289V10.4511H33.7128V9.36719Z" fill="#232323"/>
<path d="M29.3768 9.36719H28.293V10.4511H29.3768V9.36719Z" fill="#232323"/>
<path d="M34.7987 11.5352H33.7148V12.619H34.7987V11.5352Z" fill="#232323"/>
<path d="M29.9198 11.5352H28.8359V12.619H29.9198V11.5352Z" fill="#232323"/>
<path d="M35.8807 13.7031H34.7969V14.787H35.8807V13.7031Z" fill="#232323"/>
<path d="M30.4589 13.7031H29.375V14.787H30.4589V13.7031Z" fill="#232323"/>
<path d="M36.9628 15.8711H35.8789V16.955H36.9628V15.8711Z" fill="#232323"/>
<path d="M31.0057 15.8711H29.9219V16.955H31.0057V15.8711Z" fill="#232323"/>
<path d="M40.7573 22.375H8.24115C8.09742 22.375 7.95958 22.4321 7.85795 22.5337C7.75632 22.6354 7.69922 22.7732 7.69922 22.9169V35.9234C7.69922 36.0671 7.75632 36.205 7.85795 36.3066C7.95958 36.4082 8.09742 36.4653 8.24115 36.4653H40.7573C40.901 36.4653 41.0389 36.4082 41.1405 36.3066C41.2421 36.205 41.2992 36.0671 41.2992 35.9234V22.9169C41.2992 22.7732 41.2421 22.6354 41.1405 22.5337C41.0389 22.4321 40.901 22.375 40.7573 22.375ZM8.78309 27.221C9.08713 27.1652 9.37065 27.0289 9.60408 26.8262C9.83752 26.6236 10.0123 26.362 10.1103 26.0688C10.1531 25.94 10.2354 25.828 10.3456 25.7486C10.4557 25.6692 10.588 25.6265 10.7238 25.6266H11.1779C11.3137 25.6265 11.446 25.6692 11.5561 25.7486C11.6662 25.828 11.7486 25.94 11.7914 26.0688C11.9061 26.4136 12.1265 26.7134 12.4212 26.9259C12.716 27.1383 13.0701 27.2526 13.4334 27.2524H13.8876C14.2509 27.2526 14.6051 27.1383 14.8998 26.9259C15.1945 26.7134 15.4149 26.4136 15.5296 26.0688C15.5725 25.94 15.6548 25.828 15.7649 25.7486C15.875 25.6692 16.0074 25.6265 16.1431 25.6266H16.5973C16.733 25.6265 16.8653 25.6692 16.9755 25.7486C17.0856 25.828 17.1679 25.94 17.2107 26.0688C17.3255 26.4136 17.5458 26.7134 17.8406 26.9259C18.1353 27.1383 18.4895 27.2526 18.8528 27.2524H19.3069C19.6703 27.2526 20.0244 27.1383 20.3192 26.9259C20.6139 26.7134 20.8343 26.4136 20.949 26.0688C20.9918 25.94 21.0741 25.828 21.1843 25.7486C21.2944 25.6692 21.4267 25.6265 21.5625 25.6266H22.0166C22.1524 25.6265 22.2847 25.6692 22.3948 25.7486C22.5049 25.828 22.5873 25.94 22.6301 26.0688C22.7448 26.4136 22.9652 26.7134 23.2599 26.9259C23.5547 27.1383 23.9088 27.2526 24.2721 27.2524H24.7263C25.0896 27.2526 25.4438 27.1383 25.7385 26.9259C26.0333 26.7134 26.2536 26.4136 26.3684 26.0688C26.4112 25.94 26.4935 25.828 26.6036 25.7486C26.7137 25.6692 26.8461 25.6265 26.9818 25.6266H27.436C27.5717 25.6265 27.7041 25.6692 27.8142 25.7486C27.9243 25.828 28.0066 25.94 28.0494 26.0688C28.1642 26.4136 28.3845 26.7134 28.6793 26.9259C28.974 27.1383 29.3282 27.2526 29.6915 27.2524H30.1456C30.509 27.2526 30.8631 27.1383 31.1579 26.9259C31.4526 26.7134 31.673 26.4136 31.7877 26.0688C31.8305 25.94 31.9128 25.828 32.023 25.7486C32.1331 25.6692 32.2654 25.6265 32.4012 25.6266H32.8553C32.9911 25.6265 33.1234 25.6692 33.2335 25.7486C33.3437 25.828 33.426 25.94 33.4688 26.0688C33.5835 26.4136 33.8039 26.7134 34.0986 26.9259C34.3934 27.1383 34.7475 27.2526 35.1109 27.2524H35.565C35.9283 27.2526 36.2825 27.1383 36.5772 26.9259C36.872 26.7134 37.0923 26.4136 37.2071 26.0688C37.2499 25.94 37.3322 25.828 37.4423 25.7486C37.5524 25.6692 37.6848 25.6265 37.8205 25.6266H38.2747C38.4104 25.6265 38.5428 25.6692 38.6529 25.7486C38.763 25.828 38.8453 25.94 38.8881 26.0688C38.9861 26.362 39.1609 26.6236 39.3944 26.8262C39.6278 27.0289 39.9113 27.1652 40.2153 27.221V29.3302C40.0754 29.254 39.969 29.1284 39.9167 28.9779C39.802 28.6332 39.5816 28.3333 39.2869 28.1209C38.9922 27.9085 38.638 27.7942 38.2747 27.7944H37.8205C37.4572 27.7942 37.1031 27.9085 36.8083 28.1209C36.5136 28.3333 36.2932 28.6332 36.1785 28.9779C36.1356 29.1068 36.0533 29.2188 35.9432 29.2982C35.8331 29.3776 35.7007 29.4203 35.565 29.4202H35.1109C34.9751 29.4203 34.8428 29.3776 34.7326 29.2982C34.6225 29.2188 34.5402 29.1068 34.4974 28.9779C34.3827 28.6332 34.1623 28.3333 33.8675 28.1209C33.5728 27.9085 33.2186 27.7942 32.8553 27.7944H32.4012C32.0379 27.7942 31.6837 27.9085 31.389 28.1209C31.0942 28.3333 30.8738 28.6332 30.7591 28.9779C30.7163 29.1068 30.634 29.2188 30.5239 29.2982C30.4137 29.3776 30.2814 29.4203 30.1456 29.4202H29.6915C29.5557 29.4203 29.4234 29.3776 29.3133 29.2982C29.2032 29.2188 29.1209 29.1068 29.078 28.9779C28.9633 28.6332 28.7429 28.3333 28.4482 28.1209C28.1534 27.9085 27.7993 27.7942 27.436 27.7944H26.9818C26.6185 27.7942 26.2643 27.9085 25.9696 28.1209C25.6749 28.3333 25.4545 28.6332 25.3398 28.9779C25.2969 29.1068 25.2146 29.2188 25.1045 29.2982C24.9944 29.3776 24.862 29.4203 24.7263 29.4202H24.2721C24.1364 29.4203 24.0041 29.3776 23.8939 29.2982C23.7838 29.2188 23.7015 29.1068 23.6587 28.9779C23.5439 28.6332 23.3236 28.3333 23.0288 28.1209C22.7341 27.9085 22.3799 27.7942 22.0166 27.7944H21.5625C21.1991 27.7942 20.845 27.9085 20.5502 28.1209C20.2555 28.3333 20.0351 28.6332 19.9204 28.9779C19.8776 29.1068 19.7953 29.2188 19.6851 29.2982C19.575 29.3776 19.4427 29.4203 19.3069 29.4202H18.8528C18.717 29.4203 18.5847 29.3776 18.4746 29.2982C18.3645 29.2188 18.2821 29.1068 18.2393 28.9779C18.1246 28.6332 17.9042 28.3333 17.6095 28.1209C17.3147 27.9085 16.9606 27.7942 16.5973 27.7944H16.1431C15.7798 27.7942 15.4256 27.9085 15.1309 28.1209C14.8362 28.3333 14.6158 28.6332 14.5011 28.9779C14.4582 29.1068 14.3759 29.2188 14.2658 29.2982C14.1557 29.3776 14.0233 29.4203 13.8876 29.4202H13.4334C13.2977 29.4203 13.1654 29.3776 13.0552 29.2982C12.9451 29.2188 12.8628 29.1068 12.82 28.9779C12.7052 28.6332 12.4849 28.3333 12.1901 28.1209C11.8954 27.9085 11.5412 27.7942 11.1779 27.7944H10.7238C10.3604 27.7942 10.0063 27.9085 9.71154 28.1209C9.4168 28.3333 9.19643 28.6332 9.0817 28.9779C9.02947 29.1284 8.92299 29.254 8.78309 29.3302V27.221ZM8.78309 30.4726C9.08713 30.4168 9.37065 30.2805 9.60408 30.0778C9.83752 29.8752 10.0123 29.6136 10.1103 29.3204C10.1531 29.1916 10.2354 29.0796 10.3456 29.0002C10.4557 28.9208 10.588 28.8781 10.7238 28.8782H11.1779C11.3137 28.8781 11.446 28.9208 11.5561 29.0002C11.6662 29.0796 11.7486 29.1916 11.7914 29.3204C11.9061 29.6652 12.1265 29.965 12.4212 30.1775C12.716 30.3899 13.0701 30.5042 13.4334 30.504H13.8876C14.2509 30.5042 14.6051 30.3899 14.8998 30.1775C15.1945 29.965 15.4149 29.6652 15.5296 29.3204C15.5725 29.1916 15.6548 29.0796 15.7649 29.0002C15.875 28.9208 16.0074 28.8781 16.1431 28.8782H16.5973C16.733 28.8781 16.8653 28.9208 16.9755 29.0002C17.0856 29.0796 17.1679 29.1916 17.2107 29.3204C17.3255 29.6652 17.5458 29.965 17.8406 30.1775C18.1353 30.3899 18.4895 30.5042 18.8528 30.504H19.3069C19.6703 30.5042 20.0244 30.3899 20.3192 30.1775C20.6139 29.965 20.8343 29.6652 20.949 29.3204C20.9918 29.1916 21.0741 29.0796 21.1843 29.0002C21.2944 28.9208 21.4267 28.8781 21.5625 28.8782H22.0166C22.1524 28.8781 22.2847 28.9208 22.3948 29.0002C22.5049 29.0796 22.5873 29.1916 22.6301 29.3204C22.7448 29.6652 22.9652 29.965 23.2599 30.1775C23.5547 30.3899 23.9088 30.5042 24.2721 30.504H24.7263C25.0896 30.5042 25.4438 30.3899 25.7385 30.1775C26.0333 29.965 26.2536 29.6652 26.3684 29.3204C26.4112 29.1916 26.4935 29.0796 26.6036 29.0002C26.7137 28.9208 26.8461 28.8781 26.9818 28.8782H27.436C27.5717 28.8781 27.7041 28.9208 27.8142 29.0002C27.9243 29.0796 28.0066 29.1916 28.0494 29.3204C28.1642 29.6652 28.3845 29.965 28.6793 30.1775C28.974 30.3899 29.3282 30.5042 29.6915 30.504H30.1456C30.509 30.5042 30.8631 30.3899 31.1579 30.1775C31.4526 29.965 31.673 29.6652 31.7877 29.3204C31.8305 29.1916 31.9128 29.0796 32.023 29.0002C32.1331 28.9208 32.2654 28.8781 32.4012 28.8782H32.8553C32.9911 28.8781 33.1234 28.9208 33.2335 29.0002C33.3437 29.0796 33.426 29.1916 33.4688 29.3204C33.5835 29.6652 33.8039 29.965 34.0986 30.1775C34.3934 30.3899 34.7475 30.5042 35.1109 30.504H35.565C35.9283 30.5042 36.2825 30.3899 36.5772 30.1775C36.872 29.965 37.0923 29.6652 37.2071 29.3204C37.2499 29.1916 37.3322 29.0796 37.4423 29.0002C37.5524 28.9208 37.6848 28.8781 37.8205 28.8782H38.2747C38.4104 28.8781 38.5428 28.9208 38.6529 29.0002C38.763 29.0796 38.8453 29.1916 38.8881 29.3204C38.9861 29.6136 39.1609 29.8752 39.3944 30.0778C39.6278 30.2805 39.9113 30.4168 40.2153 30.4726V32.5818C40.0754 32.5056 39.969 32.38 39.9167 32.2296C39.802 31.8848 39.5816 31.585 39.2869 31.3725C38.9922 31.1601 38.638 31.0458 38.2747 31.046H37.8205C37.4572 31.0458 37.1031 31.1601 36.8083 31.3725C36.5136 31.585 36.2932 31.8848 36.1785 32.2296C36.1356 32.3584 36.0533 32.4704 35.9432 32.5498C35.8331 32.6292 35.7007 32.6719 35.565 32.6718H35.1109C34.9751 32.6719 34.8428 32.6292 34.7326 32.5498C34.6225 32.4704 34.5402 32.3584 34.4974 32.2296C34.3827 31.8848 34.1623 31.585 33.8675 31.3725C33.5728 31.1601 33.2186 31.0458 32.8553 31.046H32.4012C32.0379 31.0458 31.6837 31.1601 31.389 31.3725C31.0942 31.585 30.8738 31.8848 30.7591 32.2296C30.7163 32.3584 30.634 32.4704 30.5239 32.5498C30.4137 32.6292 30.2814 32.6719 30.1456 32.6718H29.6915C29.5557 32.6719 29.4234 32.6292 29.3133 32.5498C29.2032 32.4704 29.1209 32.3584 29.078 32.2296C28.9633 31.8848 28.7429 31.585 28.4482 31.3725C28.1534 31.1601 27.7993 31.0458 27.436 31.046H26.9818C26.6185 31.0458 26.2643 31.1601 25.9696 31.3725C25.6749 31.585 25.4545 31.8848 25.3398 32.2296C25.2969 32.3584 25.2146 32.4704 25.1045 32.5498C24.9944 32.6292 24.862 32.6719 24.7263 32.6718H24.2721C24.1364 32.6719 24.0041 32.6292 23.8939 32.5498C23.7838 32.4704 23.7015 32.3584 23.6587 32.2296C23.5439 31.8848 23.3236 31.585 23.0288 31.3725C22.7341 31.1601 22.3799 31.0458 22.0166 31.046H21.5625C21.1991 31.0458 20.845 31.1601 20.5502 31.3725C20.2555 31.585 20.0351 31.8848 19.9204 32.2296C19.8776 32.3584 19.7953 32.4704 19.6851 32.5498C19.575 32.6292 19.4427 32.6719 19.3069 32.6718H18.8528C18.717 32.6719 18.5847 32.6292 18.4746 32.5498C18.3645 32.4704 18.2821 32.3584 18.2393 32.2296C18.1246 31.8848 17.9042 31.585 17.6095 31.3725C17.3147 31.1601 16.9606 31.0458 16.5973 31.046H16.1431C15.7798 31.0458 15.4256 31.1601 15.1309 31.3725C14.8362 31.585 14.6158 31.8848 14.5011 32.2296C14.4582 32.3584 14.3759 32.4704 14.2658 32.5498C14.1557 32.6292 14.0233 32.6719 13.8876 32.6718H13.4334C13.2977 32.6719 13.1654 32.6292 13.0552 32.5498C12.9451 32.4704 12.8628 32.3584 12.82 32.2296C12.7052 31.8848 12.4849 31.585 12.1901 31.3725C11.8954 31.1601 11.5412 31.0458 11.1779 31.046H10.7238C10.3604 31.0458 10.0063 31.1601 9.71154 31.3725C9.4168 31.585 9.19643 31.8848 9.0817 32.2296C9.02947 32.38 8.92299 32.5056 8.78309 32.5818V30.4726ZM40.2153 23.4589V26.0786C40.0754 26.0024 39.969 25.8768 39.9167 25.7263C39.802 25.3816 39.5816 25.0817 39.2869 24.8693C38.9922 24.6568 38.638 24.5426 38.2747 24.5427H37.8205C37.4572 24.5426 37.1031 24.6568 36.8083 24.8693C36.5136 25.0817 36.2932 25.3816 36.1785 25.7263C36.1356 25.8552 36.0533 25.9672 35.9432 26.0466C35.8331 26.126 35.7007 26.1686 35.565 26.1685H35.1109C34.9751 26.1686 34.8428 26.126 34.7326 26.0466C34.6225 25.9672 34.5402 25.8552 34.4974 25.7263C34.3827 25.3816 34.1623 25.0817 33.8675 24.8693C33.5728 24.6568 33.2186 24.5426 32.8553 24.5427H32.4012C32.0379 24.5426 31.6837 24.6568 31.389 24.8693C31.0942 25.0817 30.8738 25.3816 30.7591 25.7263C30.7163 25.8552 30.634 25.9672 30.5239 26.0466C30.4137 26.126 30.2814 26.1686 30.1456 26.1685H29.6915C29.5557 26.1686 29.4234 26.126 29.3133 26.0466C29.2032 25.9672 29.1209 25.8552 29.078 25.7263C28.9633 25.3816 28.7429 25.0817 28.4482 24.8693C28.1534 24.6568 27.7993 24.5426 27.436 24.5427H26.9818C26.6185 24.5426 26.2643 24.6568 25.9696 24.8693C25.6749 25.0817 25.4545 25.3816 25.3398 25.7263C25.2969 25.8552 25.2146 25.9672 25.1045 26.0466C24.9944 26.126 24.862 26.1686 24.7263 26.1685H24.2721C24.1364 26.1686 24.0041 26.126 23.8939 26.0466C23.7838 25.9672 23.7015 25.8552 23.6587 25.7263C23.5439 25.3816 23.3236 25.0817 23.0288 24.8693C22.7341 24.6568 22.3799 24.5426 22.0166 24.5427H21.5625C21.1991 24.5426 20.845 24.6568 20.5502 24.8693C20.2555 25.0817 20.0351 25.3816 19.9204 25.7263C19.8776 25.8552 19.7953 25.9672 19.6851 26.0466C19.575 26.126 19.4427 26.1686 19.3069 26.1685H18.8528C18.717 26.1686 18.5847 26.126 18.4746 26.0466C18.3645 25.9672 18.2821 25.8552 18.2393 25.7263C18.1246 25.3816 17.9042 25.0817 17.6095 24.8693C17.3147 24.6568 16.9606 24.5426 16.5973 24.5427H16.1431C15.7798 24.5426 15.4256 24.6568 15.1309 24.8693C14.8362 25.0817 14.6158 25.3816 14.5011 25.7263C14.4582 25.8552 14.3759 25.9672 14.2658 26.0466C14.1557 26.126 14.0233 26.1686 13.8876 26.1685H13.4334C13.2977 26.1686 13.1654 26.126 13.0552 26.0466C12.9451 25.9672 12.8628 25.8552 12.82 25.7263C12.7052 25.3816 12.4849 25.0817 12.1901 24.8693C11.8954 24.6568 11.5412 24.5426 11.1779 24.5427H10.7238C10.3604 24.5426 10.0063 24.6568 9.71154 24.8693C9.4168 25.0817 9.19643 25.3816 9.0817 25.7263C9.02947 25.8768 8.92299 26.0024 8.78309 26.0786V23.4589H40.2153ZM8.78309 35.3815V33.7242C9.08713 33.6684 9.37065 33.5321 9.60408 33.3294C9.83752 33.1268 10.0123 32.8652 10.1103 32.5721C10.1531 32.4432 10.2354 32.3312 10.3456 32.2518C10.4557 32.1724 10.588 32.1297 10.7238 32.1298H11.1779C11.3137 32.1297 11.446 32.1724 11.5561 32.2518C11.6662 32.3312 11.7486 32.4432 11.7914 32.5721C11.9061 32.9168 12.1265 33.2167 12.4212 33.4291C12.716 33.6415 13.0701 33.7558 13.4334 33.7556H13.8876C14.2509 33.7558 14.6051 33.6415 14.8998 33.4291C15.1945 33.2167 15.4149 32.9168 15.5296 32.5721C15.5725 32.4432 15.6548 32.3312 15.7649 32.2518C15.875 32.1724 16.0074 32.1297 16.1431 32.1298H16.5973C16.733 32.1297 16.8653 32.1724 16.9755 32.2518C17.0856 32.3312 17.1679 32.4432 17.2107 32.5721C17.3255 32.9168 17.5458 33.2167 17.8406 33.4291C18.1353 33.6415 18.4895 33.7558 18.8528 33.7556H19.3069C19.6703 33.7558 20.0244 33.6415 20.3192 33.4291C20.6139 33.2167 20.8343 32.9168 20.949 32.5721C20.9918 32.4432 21.0741 32.3312 21.1843 32.2518C21.2944 32.1724 21.4267 32.1297 21.5625 32.1298H22.0166C22.1524 32.1297 22.2847 32.1724 22.3948 32.2518C22.5049 32.3312 22.5873 32.4432 22.6301 32.5721C22.7448 32.9168 22.9652 33.2167 23.2599 33.4291C23.5547 33.6415 23.9088 33.7558 24.2721 33.7556H24.7263C25.0896 33.7558 25.4438 33.6415 25.7385 33.4291C26.0333 33.2167 26.2536 32.9168 26.3684 32.5721C26.4112 32.4432 26.4935 32.3312 26.6036 32.2518C26.7137 32.1724 26.8461 32.1297 26.9818 32.1298H27.436C27.5717 32.1297 27.7041 32.1724 27.8142 32.2518C27.9243 32.3312 28.0066 32.4432 28.0494 32.5721C28.1642 32.9168 28.3845 33.2167 28.6793 33.4291C28.974 33.6415 29.3282 33.7558 29.6915 33.7556H30.1456C30.509 33.7558 30.8631 33.6415 31.1579 33.4291C31.4526 33.2167 31.673 32.9168 31.7877 32.5721C31.8305 32.4432 31.9128 32.3312 32.023 32.2518C32.1331 32.1724 32.2654 32.1297 32.4012 32.1298H32.8553C32.9911 32.1297 33.1234 32.1724 33.2335 32.2518C33.3437 32.3312 33.426 32.4432 33.4688 32.5721C33.5835 32.9168 33.8039 33.2167 34.0986 33.4291C34.3934 33.6415 34.7475 33.7558 35.1109 33.7556H35.565C35.9283 33.7558 36.2825 33.6415 36.5772 33.4291C36.872 33.2167 37.0923 32.9168 37.2071 32.5721C37.2499 32.4432 37.3322 32.3312 37.4423 32.2518C37.5524 32.1724 37.6848 32.1297 37.8205 32.1298H38.2747C38.4104 32.1297 38.5428 32.1724 38.6529 32.2518C38.763 32.3312 38.8453 32.4432 38.8881 32.5721C38.9861 32.8652 39.1609 33.1268 39.3944 33.3294C39.6278 33.5321 39.9113 33.6684 40.2153 33.7242V35.3815H8.78309Z" fill="#232323"/>
</svg>
