<svg width="48" height="49" viewBox="0 0 48 49" fill="none" xmlns="http://www.w3.org/2000/svg">
<path d="M9.75 26.783C9.75041 32.2201 8.8001 37.6153 6.942 42.725C6.81543 43.0734 6.75046 43.4411 6.75 43.8118C6.75 44.6573 7.0859 45.4683 7.68382 46.0662C8.28173 46.6641 9.09267 47 9.93825 47C10.3088 46.999 10.6753 46.9224 11.0153 46.775C14.1394 45.4377 17.5026 44.7487 20.901 44.75H27.099C30.4974 44.7487 33.8606 45.4377 36.9847 46.775C37.3247 46.9224 37.6912 46.999 38.0618 47C38.9073 47 39.7183 46.6641 40.3162 46.0662C40.9141 45.4683 41.25 44.6573 41.25 43.8118C41.2499 43.4401 41.1849 43.0713 41.058 42.722L41.0317 42.647C39.1916 37.5871 38.2501 32.2444 38.25 26.8602V22.1398C38.2498 16.7546 39.1912 11.4109 41.0317 6.35C41.1759 5.9528 41.2497 5.53354 41.25 5.111C41.25 4.70246 41.1695 4.29792 41.0132 3.92047C40.8568 3.54303 40.6277 3.20007 40.3388 2.91119C40.0499 2.62231 39.707 2.39315 39.3295 2.23681C38.9521 2.08047 38.5475 2 38.139 2C37.7177 1.99997 37.3008 2.08544 36.9135 2.25125C33.8365 3.56988 30.5238 4.24987 27.1763 4.25H20.8237C17.4762 4.24987 14.1635 3.56988 11.0865 2.25125L11.0115 2.22125C10.6724 2.07564 10.3073 2.00037 9.93825 2C9.09267 2 8.28173 2.3359 7.68382 2.93382C7.0859 3.53173 6.75 4.34267 6.75 5.18825C6.75046 5.5589 6.81543 5.92663 6.942 6.275C8.8001 11.3847 9.75041 16.7799 9.75 22.217V26.783Z" fill="#914027"/>
<path d="M11.6085 26.5505C11.6084 31.2774 10.7822 35.968 9.16725 40.4105C9.05644 40.714 8.99983 41.0346 9 41.3577C9 42.0937 9.29237 42.7996 9.81278 43.32C10.3332 43.8404 11.039 44.1327 11.775 44.1327C12.097 44.1327 12.4157 44.0674 12.7118 43.9408C15.4278 42.7762 18.3523 42.1758 21.3075 42.176H26.697C29.6522 42.1758 32.5767 42.7762 35.2927 43.9408C35.5888 44.0674 35.9075 44.1327 36.2295 44.1327C36.9655 44.1327 37.6713 43.8404 38.1917 43.32C38.7121 42.7996 39.0045 42.0937 39.0045 41.3577C39.0047 41.0346 38.9481 40.714 38.8372 40.4105L38.8147 40.3475C37.2145 35.9469 36.3959 31.3005 36.396 26.618V22.5125C36.3959 17.83 37.2145 13.1836 38.8147 8.783C38.9386 8.43722 39.0013 8.07253 39 7.70525C39 6.98777 38.715 6.29968 38.2077 5.79235C37.7003 5.28502 37.0122 5 36.2948 5C35.9283 4.99992 35.5657 5.07444 35.229 5.219C32.5534 6.36531 29.673 6.9565 26.7622 6.95675H21.2377C18.327 6.9565 15.4466 6.36531 12.771 5.219L12.7095 5.192C12.4141 5.06564 12.0963 5.00033 11.775 5C11.039 5 10.3332 5.29237 9.81278 5.81278C9.29237 6.33319 9 7.03902 9 7.775C8.99989 8.0981 9.0565 8.41872 9.16725 8.72225C10.7822 13.1648 11.6084 17.8553 11.6085 22.5823V26.5505Z" fill="#B7533E"/>
<path d="M35.25 7.25H12.75V41.75H35.25V7.25Z" fill="#D7E0EF"/>
<path d="M35.25 7.25H30.216L12.75 24.9845V30.2345L35.25 7.38875V7.25Z" fill="#95AFD1"/>
<path d="M35.2509 21.0977L14.9102 41.7512H23.1602L35.2509 29.4744V21.0977Z" fill="#95AFD1"/>
</svg>
