<svg width="48" height="48" viewBox="0 0 48 48" fill="none" xmlns="http://www.w3.org/2000/svg">
<path d="M38.5349 23.8577C38.5349 23.8577 38.713 25.9835 35.9766 25.9835V29.1782C35.9766 29.1782 40.5742 28.195 40.5742 23.8008C39.3804 23.8008 38.5349 23.8577 38.5349 23.8577Z" fill="#3EE2D7"/>
<path d="M35.9766 20.961C35.9766 22.5294 37.248 23.8008 38.8163 23.8008H40.5742C42.1425 23.8008 43.4139 22.5294 43.4139 20.961C43.4139 19.3926 42.1425 18.1211 40.5742 18.1211H38.8163C37.2479 18.1211 35.9766 19.3925 35.9766 20.961Z" fill="#2187F1"/>
<path d="M9.47666 23.8577C9.47666 23.8577 9.29853 25.9835 12.0352 25.9835V29.1782C12.0352 29.1782 7.4375 28.195 7.4375 23.8008C8.63103 23.8008 9.47666 23.8577 9.47666 23.8577Z" fill="#3EE2D7"/>
<path d="M27.0773 39.1171C27.0773 40.2562 26.1539 41.1795 25.0149 41.1795H22.9959C21.857 41.1795 20.9336 40.2562 20.9336 39.1171C20.9336 37.9781 21.857 37.0547 22.9959 37.0547H25.0149C26.1539 37.0547 27.0773 37.978 27.0773 39.1171Z" fill="#004AF1"/>
<path d="M15.168 47.0665C16.7558 47.0665 18.043 45.7793 18.043 44.1914C18.043 42.6036 16.7558 41.3164 15.168 41.3164C13.5802 41.3164 12.293 42.6036 12.293 44.1914C12.293 45.7793 13.5802 47.0665 15.168 47.0665Z" fill="#2187F1"/>
<path d="M28.7315 30.6825C28.7315 32.384 27.3522 33.7634 25.6507 33.7634H22.3661C20.6647 33.7634 19.2852 32.384 19.2852 30.6825C19.2852 28.981 20.6647 27.6016 22.3661 27.6016H25.6507C27.3522 27.6016 28.7315 28.981 28.7315 30.6825Z" fill="#3EE2D7"/>
<path d="M36.6147 13.0784C36.6147 17.7366 32.8386 21.5127 28.1804 21.5127H19.8328C15.1746 21.5127 11.3984 17.7366 11.3984 13.0784V9.46166C11.3984 4.8035 15.1746 1.02734 19.8328 1.02734H28.1804C32.8386 1.02734 36.6147 4.8035 36.6147 9.46166V13.0784ZM36.4201 27.5817C36.4201 29.2952 35.0311 30.6843 33.3175 30.6843H14.6956C12.9822 30.6843 11.5931 29.2952 11.5931 27.5817C11.5931 25.8682 12.9821 24.4791 14.6956 24.4791H33.3176C35.0311 24.4792 36.4201 25.8682 36.4201 27.5817Z" fill="#2187F1"/>
<path d="M22.6758 21.5117H25.3378V24.4439H22.6758V21.5117Z" fill="#3EE2D7"/>
<path d="M22.6758 33.7656H25.3378V37.058H22.6758V33.7656Z" fill="#2187F1"/>
<path d="M21.4255 41.628C21.4255 41.628 18.4727 44.1886 14.9124 44.1886C11.352 44.1886 11.4883 39.1172 14.9124 39.1172H23.5575L21.4255 41.628Z" fill="#3EE2D7"/>
<path d="M32.7696 47.0665C34.3574 47.0665 35.6446 45.7793 35.6446 44.1914C35.6446 42.6036 34.3574 41.3164 32.7696 41.3164C31.1817 41.3164 29.8945 42.6036 29.8945 44.1914C29.8945 45.7793 31.1817 47.0665 32.7696 47.0665Z" fill="#2187F1"/>
<path d="M26.5149 41.628C26.5149 41.628 29.4676 44.1886 33.028 44.1886C36.5883 44.1886 36.452 39.1172 33.028 39.1172H24.3828L26.5149 41.628Z" fill="#3EE2D7"/>
<path d="M12.0352 20.961C12.0352 22.5294 10.7638 23.8008 9.19534 23.8008H7.43753C5.86919 23.8008 4.59766 22.5294 4.59766 20.961C4.59766 19.3926 5.86909 18.1211 7.43753 18.1211H9.19534C10.7637 18.1211 12.0352 19.3925 12.0352 20.961ZM25.9123 45.1594C25.9123 46.2122 25.0589 47.0657 24.0061 47.0657C22.9533 47.0657 22.0999 46.2122 22.0999 45.1594V43.2217C22.0999 42.169 22.9534 41.3156 24.0061 41.3156C25.0589 41.3156 25.9123 42.169 25.9123 43.2217V45.1594Z" fill="#2187F1"/>
<path d="M23.98 44.8385C25.5534 44.8385 27.1661 44.3385 26.5629 41.628C25.9597 38.9175 25.2499 39.1206 23.98 39.1206H24.0053C22.7355 39.1206 22.0258 38.9175 21.4225 41.628C20.8192 44.3385 22.4319 44.8385 24.0053 44.8385H23.98Z" fill="#3EE2D7"/>
</svg>
