<svg width="49" height="48" viewBox="0 0 49 48" fill="none" xmlns="http://www.w3.org/2000/svg">
<path d="M47.4999 14.2812L47.5009 44.1497L46.1386 44.9417L46.1367 15.0732L47.4999 14.2812Z" fill="#13277E"/>
<path d="M46.1372 15.0719L46.1391 44.9403L24.4306 32.4075L24.4297 2.53906L46.1372 15.0719Z" fill="#2B8AFC"/>
<path d="M24.4297 2.53906L24.4306 32.4075L2.86424 44.9403L2.86328 15.0719L24.4297 2.53906Z" fill="#2B8AFC"/>
<path d="M2.86121 15.0733L2.86217 44.9418L1.49705 44.1536L1.49609 14.2852L2.86121 15.0733Z" fill="#13277E"/>
<path d="M47.4983 14.2819L46.1351 15.0739L24.4276 2.5411L2.86121 15.0739L1.49609 14.2857L24.4257 0.960938L47.4983 14.2819Z" fill="#13277E"/>
<path d="M22.2734 25.0691C22.6781 24.8356 23.0078 25.0235 23.0092 25.4884L23.0252 31.6777L7.41838 40.6882L7.40235 34.4989C7.401 34.034 7.72865 33.4664 8.13329 33.2329L11.8675 31.0769C12.2763 30.8408 12.6019 31.0313 12.6032 31.4961C12.6019 31.0312 12.9295 30.4637 13.3342 30.2301L17.0684 28.0741C17.473 27.8406 17.8028 28.0285 17.8041 28.4934C17.8028 28.0284 18.1304 27.4609 18.5351 27.2273L22.2734 25.0691Z" fill="#4F4D4D"/>
<path d="M5.97657 33.6709C5.97522 33.206 6.30287 32.6385 6.70761 32.4048L10.4417 30.2489C10.6469 30.1304 10.8311 30.1195 10.964 30.1966L11.2275 30.3497C11.33 29.9686 11.593 29.5842 11.9084 29.4021L15.6425 27.2462C15.8461 27.1287 16.0307 27.1178 16.1642 27.1953L16.428 27.3487C16.5301 26.967 16.7933 26.5818 17.1091 26.3994L20.8474 24.241C21.0511 24.1235 21.2357 24.1127 21.3691 24.1902L22.797 25.0199L22.7956 25.0197C22.7528 24.995 22.6978 24.9951 22.6457 24.9891C22.6165 24.9858 22.5932 24.9697 22.5616 24.9725C22.4775 24.98 22.3848 25.0127 22.2882 25.0664C22.2837 25.0689 22.2799 25.0682 22.2753 25.0708L18.537 27.2291C18.4358 27.2875 18.3394 27.3669 18.2519 27.4601C18.1643 27.5534 18.0854 27.6608 18.0193 27.7753C17.887 28.0046 17.8053 28.2626 17.806 28.4951C17.8046 28.034 17.4795 27.8475 17.0793 28.0727L17.0782 28.0722C17.0755 28.0737 17.073 28.0743 17.0702 28.0758L13.3361 30.2317C13.0327 30.4069 12.7725 30.77 12.6619 31.1367C12.625 31.259 12.6048 31.3815 12.6052 31.4977C12.6038 31.0365 12.2827 30.8477 11.8784 31.0753L11.8774 31.0748C11.8746 31.0763 11.8721 31.0769 11.8694 31.0784L8.13522 33.2343C8.03404 33.2927 7.93775 33.372 7.8502 33.4653C7.675 33.6519 7.53484 33.8948 7.46111 34.1392C7.42425 34.2615 7.40399 34.3841 7.40437 34.5002L7.41906 40.156L5.9926 39.327L5.97657 33.6709Z" fill="#929393"/>
<path d="M29.1781 36.8506L23.0408 33.2842L23.0273 28.5859L29.1656 32.1523L29.1781 36.8506Z" fill="#929393"/>
<path d="M25.1181 26.3875C24.8953 26.258 24.5868 26.276 24.2466 26.4725C23.5707 26.8627 23.0251 27.8097 23.0274 28.5865L29.1656 32.1536C29.1634 31.3769 29.709 30.43 30.3849 30.0396C30.725 29.8432 31.0336 29.8252 31.2564 29.9547L25.1181 26.3875Z" fill="#929393"/>
<path d="M30.3835 30.0388C31.0594 29.6486 31.6103 29.9625 31.6125 30.7393C31.6148 31.516 31.0675 32.464 30.3914 32.8542L30.4007 36.1448L29.1774 36.8511L29.1641 32.1528C29.162 31.3761 29.7075 30.4292 30.3835 30.0388Z" fill="#3D3D3D"/>
<path d="M6.95312 41.2617L6.95792 42.9638L12.7563 46.3334L12.7515 44.6313L6.95312 41.2617Z" fill="#BFBFBF"/>
<path d="M12.75 44.6304L12.7548 46.3324L29.1775 36.8505L29.1737 35.1484L12.75 44.6304Z" fill="#3D3D3D"/>
<path d="M6.95312 41.2593L12.7515 44.6289L29.1752 35.1469L23.3758 31.7773L6.95312 41.2593Z" fill="#3D3D3D"/>
<path d="M23.8281 36.3511L23.8324 38.1076C24.0784 38.1292 24.3331 38.086 24.523 37.9781L28.9853 35.4017C29.145 35.3067 29.2227 35.1902 29.2227 35.0694L29.2183 33.3086C29.2183 33.4295 29.1407 33.5502 28.981 33.6409L24.5143 36.2217C24.3287 36.3296 24.0741 36.3727 23.8281 36.3511Z" fill="#3D3D3D"/>
<path d="M18.4453 39.4605L18.4496 41.217C18.6956 41.2386 18.9503 41.1954 19.1402 41.0875L23.6068 38.5067C23.7623 38.4161 23.8399 38.2996 23.8399 38.1787L23.8356 36.418C23.8356 36.5388 23.758 36.6596 23.5983 36.7502L19.1315 39.3267C18.946 39.4346 18.6914 39.4777 18.4453 39.4605Z" fill="#3D3D3D"/>
<path d="M12.6481 36.6153C12.8355 36.5071 13.0912 36.4642 13.3355 36.4849C13.3005 36.3433 13.3755 36.1953 13.5629 36.0871L18.0294 33.5084C18.2168 33.4002 18.4724 33.3573 18.7168 33.3779C18.6818 33.2363 18.7568 33.0884 18.9442 32.9802L23.4107 30.4014C23.7248 30.2201 24.2356 30.2201 24.5505 30.4031L28.9852 32.9803C29.3 33.1633 29.2984 33.4591 28.9843 33.6405L24.5178 36.2192C24.3304 36.3274 24.0747 36.3703 23.8304 36.3497C23.8653 36.4913 23.7904 36.6392 23.603 36.7474L19.1365 39.3262C18.9491 39.4344 18.6934 39.4773 18.4491 39.4566C18.4841 39.5982 18.409 39.7462 18.2217 39.8544L13.7552 42.4331C13.4411 42.6145 12.9303 42.6145 12.6154 42.4315L8.18067 39.8543C7.86589 39.6713 7.86752 39.3754 8.18163 39.1941L12.6481 36.6153ZM23.6038 36.0872C23.7927 36.1969 24.1003 36.1969 24.2904 36.0872L28.7569 33.5085C28.9443 33.4003 28.9453 33.2221 28.7564 33.1124L24.3217 30.5352C24.1328 30.4254 23.8252 30.4254 23.6378 30.5335L19.1713 33.1123C18.9812 33.222 18.9802 33.4002 19.1691 33.51L23.6038 36.0872ZM12.8441 42.2994C13.0329 42.4091 13.3406 42.4091 13.5279 42.301L17.9944 39.7223C18.1844 39.6125 18.1827 39.4359 17.9939 39.3262L13.5592 36.749C13.3702 36.6392 13.0654 36.6376 12.8754 36.7473L8.40886 39.3261C8.22147 39.4343 8.22051 39.6124 8.40934 39.7222L12.8441 42.2994ZM18.2253 39.1924C18.4142 39.3022 18.7191 39.3038 18.9091 39.1941L23.3756 36.6153C23.563 36.5071 23.564 36.3289 23.3752 36.2192L18.9404 33.642C18.7515 33.5323 18.4439 33.5323 18.2566 33.6404L13.7901 36.2191C13.6001 36.3289 13.6018 36.5055 13.7906 36.6152L18.2253 39.1924Z" fill="#4F4D4D"/>
<path d="M19.169 33.1127C18.9789 33.2225 18.9779 33.4006 19.1668 33.5105L23.6015 36.0877C23.7905 36.1974 24.0981 36.1974 24.2881 36.0877L28.7546 33.5089C28.942 33.4007 28.943 33.2226 28.7541 33.1128L24.3194 30.5356C24.1305 30.4259 23.8229 30.4259 23.6356 30.534L19.169 33.1127ZM13.7877 36.2197C13.5977 36.3294 13.5994 36.5061 13.7882 36.6158L18.2229 39.193C18.4119 39.3027 18.7167 39.3044 18.9068 39.1946L23.3733 36.6159C23.5606 36.5077 23.5616 36.3295 23.3728 36.2198L18.9381 33.6426C18.7491 33.5328 18.4415 33.5328 18.2542 33.6409L13.7877 36.2197ZM8.40647 39.3265C8.21908 39.4347 8.21812 39.6129 8.40695 39.7226L12.8417 42.2998C13.0306 42.4096 13.3382 42.4096 13.5255 42.3015L17.992 39.7227C18.1821 39.613 18.1803 39.4364 17.9915 39.3266L13.5568 36.7494C13.3678 36.6397 13.063 36.6381 12.873 36.7478L8.40647 39.3265Z" fill="#686868"/>
<path d="M7.94531 39.5277L7.94963 41.2842C7.95395 41.405 8.03162 41.5215 8.18694 41.6122L12.6234 44.193C12.9385 44.3742 13.4476 44.3742 13.7627 44.193L18.2294 41.6122C18.3847 41.5216 18.4624 41.405 18.4624 41.2842L18.4581 39.5234C18.4581 39.6443 18.3804 39.7651 18.2208 39.8557L13.7584 42.4321C13.4433 42.6134 12.9298 42.6134 12.6148 42.4321L8.18262 39.8557C8.02298 39.7651 7.94531 39.6442 7.94531 39.5277Z" fill="#3D3D3D"/>
<path d="M11.5307 47.0409L5.39241 43.4735L5.38281 40.1836L11.5211 43.75L11.5307 47.0409Z" fill="#4F4D4D"/>
<path d="M6.24877 37.282C6.02595 37.1525 5.7175 37.1706 5.37728 37.367C4.70134 37.7572 4.15405 38.7052 4.15626 39.482C4.15731 39.8678 4.29382 40.1395 4.51386 40.2673L10.6521 43.8345C10.4321 43.7066 10.2956 43.4351 10.2945 43.0491C10.2923 42.2724 10.8396 41.3244 11.5155 40.9342C11.8556 40.7377 12.1642 40.7197 12.387 40.8492L6.24877 37.282Z" fill="#929393"/>
<path d="M11.5101 40.9334C12.186 40.5431 12.737 40.857 12.7392 41.6338L12.7525 46.3321L11.5275 47.0394L11.5182 43.7489C10.8422 44.1391 10.2913 43.8252 10.2891 43.0484C10.2869 42.2716 10.8342 41.3236 11.5101 40.9334Z" fill="#3D3D3D"/>
<path d="M24.3765 12.8844L20.5039 10.6342L20.8572 10.4297L24.7289 12.6799L24.3765 12.8844Z" fill="#686868"/>
<path d="M24.4217 16.9381L20.55 14.6888L20.5039 10.6328L24.3765 12.8831L24.4217 16.9381Z" fill="#3D3D3D"/>
<path d="M24.7234 12.6797L24.7695 16.7347L24.4143 16.9392L24.3711 12.8842L24.7234 12.6797Z" fill="#4F4D4D"/>
<path d="M16.5774 21.0616L12.6875 18.8037L20.524 14.2734L24.3966 16.5237L16.5774 21.0616Z" fill="#FDC281"/>
<path d="M16.5781 21.0614L16.58 21.4674L24.3973 16.9314V16.5234L16.5781 21.0614Z" fill="#CC8B4F"/>
<path d="M17.3516 15.5812L20.5637 17.4474L23.4917 15.7569L20.2796 13.8906L17.3516 15.5812Z" fill="#F9F9F9"/>
<path d="M17.3516 15.582L17.3525 16.3731L20.5647 18.2393L20.5637 17.4483L17.3516 15.582Z" fill="#B0AFB0"/>
<path d="M20.5625 17.4484L20.5635 18.2394L23.4915 16.5489L23.4905 15.7578L20.5625 17.4484Z" fill="#D7D7D7"/>
<path d="M16.5338 17.4123L12.6641 15.1621L20.5005 10.6328L24.3732 12.8831L16.5338 17.4123Z" fill="#FDC281"/>
<path d="M16.5352 17.4131L16.5371 17.8191L24.3745 13.2899V12.8828L16.5352 17.4131Z" fill="#CC8B4F"/>
<path d="M16.1803 17.6188L12.3086 15.3685L12.6619 15.1641L16.5336 17.4143L16.1803 17.6188Z" fill="#686868"/>
<path d="M16.2264 21.6734L12.3547 19.4232L12.3086 15.3672L16.1803 17.6174L16.2264 21.6734Z" fill="#3D3D3D"/>
<path d="M16.533 17.4141L16.579 21.4701L16.2238 21.6745L16.1797 17.6185L16.533 17.4141Z" fill="#4F4D4D"/>
<path d="M44.711 20.7617L44.7091 21.546L40.8672 23.779L40.8691 22.9937L44.711 20.7617Z" fill="#CC8B4F"/>
<path d="M40.8663 22.9933L40.8644 23.7785L27.3438 15.9718L27.3457 15.1875L40.8663 22.9933Z" fill="#D89C60"/>
<path d="M44.7102 20.7598L40.8683 22.9918L27.3477 15.1861L31.1896 12.9531L44.7102 20.7598Z" fill="#FDC281"/>
<path d="M28.8984 11.6957L28.91 15.4195L30.9336 14.2512L30.9221 10.5273L28.8984 11.6957Z" fill="#BC2B3B"/>
<path d="M28.8984 11.9379L29.4092 12.2335L31.4328 11.0652L30.9221 10.7695L28.8984 11.9379Z" fill="#F9F9F9"/>
<path d="M28.8984 11.6953L28.91 15.4192L29.4197 15.7158L29.4092 11.991L28.8984 11.6953Z" fill="#C5C4C4"/>
<path d="M29.4102 11.9925L29.4207 15.7173L31.4444 14.549L31.4338 10.8242L29.4102 11.9925Z" fill="#888888"/>
<path d="M29.4062 12.1891L29.4178 15.9139L31.6123 14.6467L31.6008 10.9219L29.4062 12.1891Z" fill="#BC2B3B"/>
<path d="M28.5586 11.6953L28.5692 15.4192L29.4188 15.9136L29.4072 12.1888L28.5586 11.6953Z" fill="#DD454D"/>
<path d="M30.7532 10.4297L28.5586 11.6969L29.4072 12.1903L31.6018 10.9231L31.4328 10.8242L29.4092 11.9926L28.8984 11.6969L30.9221 10.5286L30.7532 10.4297Z" fill="#EF5A5A"/>
<path d="M30.2422 12.4964L30.2537 16.2203L32.2774 15.052L32.2659 11.3281L30.2422 12.4964Z" fill="#BC2B3B"/>
<path d="M30.2422 12.7386L30.7519 13.0343L32.7756 11.866L32.2659 11.5703L30.2422 12.7386Z" fill="#F9F9F9"/>
<path d="M30.2422 12.4961L30.2537 16.2199L30.7635 16.5166L30.7519 12.7918L30.2422 12.4961Z" fill="#C5C4C4"/>
<path d="M30.7539 12.7933L30.7654 16.5181L32.7891 15.3498L32.7776 11.625L30.7539 12.7933Z" fill="#888888"/>
<path d="M30.7539 12.9899L30.7654 16.7137L32.96 15.4475L32.9485 11.7227L30.7539 12.9899Z" fill="#BC2B3B"/>
<path d="M29.9023 12.4961L29.9139 16.2199L30.7635 16.7134L30.7519 12.9895L29.9023 12.4961Z" fill="#DD454D"/>
<path d="M32.0969 11.2305L29.9023 12.4977L30.7519 12.9911L32.9465 11.7239L32.7766 11.625L30.7529 12.7933L30.2431 12.4977L32.2668 11.3293L32.0969 11.2305Z" fill="#EF5A5A"/>
<path d="M31.5898 13.2933L31.6014 17.0172L33.6241 15.8488L33.6135 12.125L31.5898 13.2933Z" fill="#BC2B3B"/>
<path d="M31.5898 13.5355L32.0996 13.8312L34.1233 12.6629L33.6135 12.3672L31.5898 13.5355Z" fill="#F9F9F9"/>
<path d="M31.5898 13.293L31.6014 17.0168L32.1111 17.3134L32.0996 13.5886L31.5898 13.293Z" fill="#C5C4C4"/>
<path d="M32.1016 13.5902L32.1131 17.315L34.1368 16.1467L34.1252 12.4219L32.1016 13.5902Z" fill="#888888"/>
<path d="M32.1016 13.7867L32.1131 17.5115L34.3067 16.2443L34.2961 12.5195L32.1016 13.7867Z" fill="#BC2B3B"/>
<path d="M31.25 13.293L31.2615 17.0168L32.1111 17.5112L32.0996 13.7864L31.25 13.293Z" fill="#DD454D"/>
<path d="M33.4446 12.0273L31.25 13.2945L32.0996 13.788L34.2942 12.5208L34.1242 12.4219L32.1006 13.5902L31.5908 13.2945L33.6145 12.1262L33.4446 12.0273Z" fill="#EF5A5A"/>
<path d="M32.9375 14.0931L32.949 17.8179L34.9727 16.6496L34.9612 12.9258L32.9375 14.0931Z" fill="#BC2B3B"/>
<path d="M32.9375 14.3363L33.4482 14.632L35.4719 13.4636L34.9612 13.168L32.9375 14.3363Z" fill="#F9F9F9"/>
<path d="M32.9375 14.0938L32.949 17.8186L33.4588 18.1152L33.4482 14.3904L32.9375 14.0938Z" fill="#C5C4C4"/>
<path d="M33.4492 14.391L33.4598 18.1158L35.4835 16.9475L35.4729 13.2227L33.4492 14.391Z" fill="#888888"/>
<path d="M33.4492 14.5875L33.4598 18.3114L35.6543 17.0451L35.6428 13.3203L33.4492 14.5875Z" fill="#BC2B3B"/>
<path d="M32.5977 14.0938L32.6092 17.8186L33.4578 18.312L33.4473 14.5881L32.5977 14.0938Z" fill="#DD454D"/>
<path d="M34.7922 12.8281L32.5977 14.0944L33.4473 14.5888L35.6409 13.3216L35.4719 13.2227L33.4482 14.391L32.9375 14.0944L34.9612 12.927L34.7922 12.8281Z" fill="#EF5A5A"/>
<path d="M35.0508 15.9581L35.0604 19.0109L36.7193 18.0528L36.7097 15L35.0508 15.9581Z" fill="#589441"/>
<path d="M35.0508 16.1534L35.4693 16.3963L37.1282 15.4382L36.7097 15.1953L35.0508 16.1534Z" fill="#F9F9F9"/>
<path d="M35.0508 15.957L35.0604 19.0098L35.4789 19.2527L35.4693 16.1999L35.0508 15.957Z" fill="#C5C4C4"/>
<path d="M35.4727 16.2003L35.4823 19.2531L37.1402 18.295L37.1315 15.2422L35.4727 16.2003Z" fill="#888888"/>
<path d="M35.4688 16.359L35.4784 19.4128L37.2764 18.3741L37.2678 15.3203L35.4688 16.359Z" fill="#589441"/>
<path d="M34.7734 15.957L34.7821 19.0098L35.479 19.415L35.4694 16.3612L34.7734 15.957Z" fill="#80BC41"/>
<path d="M36.5715 14.918L34.7734 15.9567L35.4694 16.3608L37.2685 15.3221L37.1293 15.2415L35.4704 16.1996L35.0518 15.9567L36.7107 14.9986L36.5715 14.918Z" fill="#A9C838"/>
<path d="M37 16.4379L37.0115 20.1627L39.0352 18.9943L39.0237 15.2695L37 16.4379Z" fill="#3D3D3D"/>
<path d="M37 16.68L37.5098 16.9767L39.5334 15.8084L39.0237 15.5117L37 16.68Z" fill="#F9F9F9"/>
<path d="M37 16.4375L37.0115 20.1623L37.5213 20.458L37.5098 16.7341L37 16.4375Z" fill="#C5C4C4"/>
<path d="M37.5117 16.7347L37.5232 20.4586L39.5469 19.2902L39.5354 15.5664L37.5117 16.7347Z" fill="#888888"/>
<path d="M37.5078 16.9313L37.5193 20.6561L39.7139 19.3889L39.7024 15.6641L37.5078 16.9313Z" fill="#3D3D3D"/>
<path d="M36.6602 16.4375L36.6717 20.1623L37.5213 20.6557L37.5098 16.9309L36.6602 16.4375Z" fill="#686868"/>
<path d="M38.8547 15.1719L36.6602 16.4391L37.5098 16.9325L39.7043 15.6653L39.5344 15.5674L37.5107 16.7357L37.001 16.4391L39.0246 15.2708L38.8547 15.1719Z" fill="#929393"/>
<path d="M38.3477 17.2386L38.3592 20.9634L40.3819 19.7951L40.3713 16.0703L38.3477 17.2386Z" fill="#3D3D3D"/>
<path d="M38.3477 17.4808L38.8574 17.7775L40.8811 16.6091L40.3713 16.3125L38.3477 17.4808Z" fill="#F9F9F9"/>
<path d="M38.3477 17.2383L38.3592 20.9631L38.8689 21.2588L38.8574 17.5349L38.3477 17.2383Z" fill="#C5C4C4"/>
<path d="M38.8594 17.5355L38.8709 21.2593L40.8946 20.091L40.8831 16.3672L38.8594 17.5355Z" fill="#888888"/>
<path d="M38.8594 17.732L38.8709 21.4568L41.0655 20.1896L41.0539 16.4648L38.8594 17.732Z" fill="#3D3D3D"/>
<path d="M38.0078 17.2383L38.0193 20.9631L38.8689 21.4565L38.8574 17.7317L38.0078 17.2383Z" fill="#686868"/>
<path d="M40.2024 15.9727L38.0078 17.2399L38.8574 17.7333L41.052 16.4661L40.8821 16.3682L38.8584 17.5365L38.3486 17.2399L40.3723 16.0715L40.2024 15.9727Z" fill="#929393"/>
<path d="M39.6914 18.0355L39.7029 21.7603L41.7266 20.592L41.7151 16.8672L39.6914 18.0355Z" fill="#3D3D3D"/>
<path d="M39.6914 18.2777L40.2021 18.5743L42.2258 17.406L41.7151 17.1094L39.6914 18.2777Z" fill="#F9F9F9"/>
<path d="M39.6914 18.0352L39.7029 21.76L40.2127 22.0556L40.2021 18.3318L39.6914 18.0352Z" fill="#C5C4C4"/>
<path d="M40.207 18.3324L40.2176 22.0562L42.2413 20.8879L42.2307 17.1641L40.207 18.3324Z" fill="#888888"/>
<path d="M40.207 18.5289L40.2176 22.2537L42.4121 20.9865L42.4016 17.2617L40.207 18.5289Z" fill="#3D3D3D"/>
<path d="M39.3555 18.0352L39.367 21.76L40.2156 22.2534L40.2051 18.5286L39.3555 18.0352Z" fill="#686868"/>
<path d="M41.55 16.7695L39.3555 18.0367L40.2051 18.5302L42.3996 17.263L42.2297 17.1651L40.206 18.3334L39.6953 18.0367L41.719 16.8684L41.55 16.7695Z" fill="#929393"/>
<path d="M26.1575 32.9712L23.8074 31.6055C23.8484 31.6294 23.8741 31.6797 23.8743 31.7521C23.8745 31.824 23.8492 31.9038 23.8085 31.9749C23.7673 32.0462 23.7108 32.1082 23.6478 32.1446L25.9979 33.5103C26.0608 33.4739 26.1174 33.4119 26.1586 33.3406C26.1993 33.2695 26.2247 33.1897 26.2244 33.1178C26.2242 33.0454 26.1985 32.9951 26.1575 32.9712ZM22.0586 33.0891C22.0586 33.0964 22.0613 33.1017 22.0659 33.1044L24.416 34.4702C24.4113 34.4675 24.4087 34.4622 24.4087 34.4548C24.4087 34.4402 24.4193 34.4215 24.4327 34.4141L24.4766 34.3881L25.9979 33.5103L23.6478 32.1446L22.1266 33.0223L22.0826 33.0484C22.0693 33.0557 22.0586 33.0744 22.0586 33.0891Z" fill="#EF5A5A"/>
<path d="M24.4022 33.821L22.1289 32.5L22.1299 33.0222L24.4031 34.3442L24.4022 33.821Z" fill="#D7D7D7"/>
<path d="M25.9996 32.9911L23.6495 31.625L22.1289 32.5034L24.479 33.8695L25.9996 32.9911Z" fill="#704E2C"/>
<path d="M25.9983 32.9361L25.9511 32.9634L23.6484 31.6252C23.7114 31.5888 23.7681 31.585 23.8096 31.6086L26.0514 32.9114C26.0342 32.9175 26.0166 32.9256 25.9983 32.9361Z" fill="#704E2C"/>
<path d="M24.3984 33.8236L24.3999 34.3462L25.9207 33.4681C25.9837 33.4317 26.0402 33.3697 26.0814 33.2983C26.1221 33.2273 26.1476 33.1474 26.1473 33.0755C26.1471 33.0031 26.1214 32.9528 26.0804 32.9289C26.0389 32.9053 25.9822 32.9091 25.9192 32.9455L24.3984 33.8236Z" fill="#F9F9F9"/>
<path d="M22.0586 32.5139C22.0586 32.5212 22.0613 32.5266 22.0652 32.5292L24.4153 33.895C24.4113 33.8923 24.4087 33.8871 24.4087 33.8797C24.4087 33.8643 24.4193 33.8457 24.432 33.8383L25.9972 32.9346C26.0739 32.8907 26.1425 32.8866 26.1925 32.9154L23.8425 31.5496C23.7924 31.5209 23.7237 31.5249 23.6471 31.5689L22.0819 32.4725C22.0692 32.4806 22.0586 32.4985 22.0586 32.5139Z" fill="#EF5A5A"/>
<path d="M24.4301 33.8397C24.4169 33.8472 24.4062 33.8657 24.4062 33.8808C24.4062 33.896 24.417 33.9021 24.4302 33.8945L24.4744 33.8689L25.9952 32.9908C26.0582 32.9544 26.115 32.9506 26.1564 32.9742C26.1974 32.9981 26.2231 33.0484 26.2233 33.1208C26.2235 33.1927 26.1982 33.2726 26.1575 33.3436C26.1163 33.415 26.0598 33.477 25.9968 33.5134L24.4759 34.3915L24.4317 34.417C24.4185 34.4246 24.4079 34.443 24.4079 34.4577C24.4079 34.4729 24.4186 34.4789 24.4318 34.4713L25.997 33.5677C26.1486 33.4801 26.2712 33.2678 26.2707 33.0935C26.2702 32.9189 26.1467 32.8486 25.9951 32.936L24.4301 33.8397Z" fill="#BC2B3B"/>
<path d="M23.6486 31.5689C23.7253 31.5249 23.7939 31.5209 23.844 31.5496L26.194 32.9154C26.144 32.8866 26.0753 32.8907 25.9987 32.9346L25.8384 33.0272L23.4883 31.6614L23.6486 31.5689Z" fill="#3D3D3D"/>
</svg>
