<svg width="48" height="48" viewBox="0 0 48 48" fill="none" xmlns="http://www.w3.org/2000/svg">
<g clipPath="url(#clip0_8659_21301)">
<path d="M7.88289 36.306V6.1455C7.87874 5.3397 8.03392 4.54103 8.33951 3.79541C8.64509 3.04978 9.09506 2.37193 9.66353 1.80081C10.232 1.22969 10.9078 0.776581 11.6519 0.467532C12.3961 0.158484 13.1941 -0.000405312 13.9999 7.76445e-07H34.3999C35.2057 -0.000405312 36.0037 0.158484 36.7478 0.467532C37.492 0.776581 38.1678 1.22969 38.7363 1.80081C39.3047 2.37193 39.7547 3.04978 40.0603 3.79541C40.3659 4.54103 40.521 5.3397 40.5169 6.1455V36.306H7.88289Z" fill="#2B8AFC"/>
<path d="M43.5353 31.0977V43.0752C43.5353 44.0712 42.6533 44.8677 41.5148 44.8677H6.86034C5.75034 44.8677 4.83984 44.0727 4.83984 43.0752V31.1532L43.5353 31.0977Z" fill="#2B8AFC"/>
<path d="M5.29449 29.3912C4.12432 29.1632 3.08484 28.4983 2.38721 27.5315C1.68958 26.5647 1.38613 25.3687 1.53849 24.1862C1.87899 21.7382 4.04199 19.9457 6.51849 20.1167C7.71122 20.1961 8.82951 20.7247 9.64791 21.5959C10.4663 22.4672 10.9239 23.6164 10.9285 24.8117V44.3867L5.29449 29.3912Z" fill="#2B8AFC"/>
<path d="M10.1602 30.7305H37.8442V35.283H10.1602V30.7305Z" fill="#13277E"/>
<path d="M7.79688 44.7266H10.9259V47.8286H7.79837L7.79688 44.7266ZM37.3319 44.8691H40.4609V47.9996H37.3304L37.3319 44.8691Z" fill="#34485C"/>
<path d="M16.3331 7.56879C16.3352 7.776 16.2556 7.9757 16.1116 8.12473C15.9676 8.27377 15.7708 8.36018 15.5636 8.36529C15.4591 8.36548 15.3556 8.34507 15.2589 8.3052C15.1623 8.26534 15.0745 8.20681 15.0005 8.13297C14.9265 8.05913 14.8678 7.97142 14.8278 7.87487C14.7877 7.77832 14.7671 7.67481 14.7671 7.57029C14.7671 7.14279 15.1091 6.80079 15.5636 6.80079C15.6646 6.80039 15.7646 6.81998 15.858 6.85844C15.9514 6.89689 16.0362 6.95345 16.1076 7.02484C16.179 7.09624 16.2355 7.18106 16.274 7.27442C16.3124 7.36777 16.332 7.46782 16.3316 7.56879H16.3331ZM24.8966 7.56879C24.8968 7.67344 24.8764 7.7771 24.8364 7.87383C24.7964 7.97055 24.7378 8.05844 24.6638 8.13244C24.5898 8.20644 24.5019 8.2651 24.4052 8.30506C24.3084 8.34502 24.2048 8.36549 24.1001 8.36529C23.8935 8.35979 23.6973 8.27342 23.5536 8.12475C23.41 7.97609 23.3305 7.77699 23.3321 7.57029C23.3315 7.4692 23.351 7.36899 23.3893 7.27546C23.4277 7.18193 23.4842 7.09693 23.5556 7.02537C23.6271 6.95382 23.712 6.89713 23.8054 6.85858C23.8989 6.82003 23.999 6.80039 24.1001 6.80079C24.5546 6.80079 24.8951 7.14279 24.8951 7.56879H24.8966ZM33.4616 7.56879C33.457 7.77885 33.3714 7.979 33.2227 8.12743C33.074 8.27586 32.8737 8.36108 32.6636 8.36529C32.457 8.35979 32.2608 8.27342 32.1171 8.12475C31.9735 7.97609 31.894 7.77699 31.8956 7.57029C31.895 7.4692 31.9145 7.36899 31.9528 7.27546C31.9912 7.18193 32.0477 7.09693 32.1191 7.02537C32.1906 6.95382 32.2754 6.89713 32.3689 6.85858C32.4624 6.82003 32.5625 6.80039 32.6636 6.80079C33.0911 6.80079 33.4616 7.14279 33.4616 7.56879ZM16.3301 13.8013C16.3307 13.9024 16.3113 14.0026 16.2729 14.0961C16.2345 14.1896 16.178 14.2746 16.1066 14.3462C16.0352 14.4178 15.9503 14.4744 15.8568 14.513C15.7634 14.5515 15.6632 14.5712 15.5621 14.5708C15.4589 14.574 15.3561 14.5565 15.2598 14.5193C15.1635 14.4821 15.0756 14.426 15.0014 14.3542C14.9271 14.2825 14.868 14.1966 14.8275 14.1016C14.787 14.0067 14.766 13.9045 14.7656 13.8013C14.7656 13.3753 15.1076 13.0333 15.5621 13.0333C15.6631 13.0329 15.7631 13.0525 15.8565 13.0909C15.9499 13.1294 16.0347 13.186 16.1061 13.2573C16.1775 13.3287 16.234 13.4136 16.2725 13.5069C16.3109 13.6003 16.3305 13.7003 16.3301 13.8013ZM24.8951 13.8013C24.895 13.9046 24.8741 14.0068 24.8337 14.1019C24.7932 14.197 24.7341 14.2829 24.6598 14.3547C24.5855 14.4265 24.4976 14.4826 24.4012 14.5197C24.3048 14.5568 24.2019 14.5742 24.0986 14.5708C23.9975 14.5712 23.8974 14.5515 23.8039 14.513C23.7104 14.4744 23.6256 14.4178 23.5541 14.3462C23.4827 14.2746 23.4262 14.1896 23.3878 14.0961C23.3495 14.0026 23.33 13.9024 23.3306 13.8013C23.3302 13.7003 23.3498 13.6003 23.3883 13.5069C23.4267 13.4136 23.4833 13.3287 23.5547 13.2573C23.6261 13.186 23.7109 13.1294 23.8043 13.0909C23.8976 13.0525 23.9977 13.0329 24.0986 13.0333C24.5531 13.0333 24.8951 13.3753 24.8951 13.8013ZM33.4601 13.8013C33.455 14.0087 33.3684 14.2058 33.219 14.3498C33.0697 14.4938 32.8696 14.5732 32.6621 14.5708C32.561 14.5712 32.4609 14.5515 32.3674 14.513C32.274 14.4744 32.1891 14.4178 32.1176 14.3462C32.0462 14.2746 31.9897 14.1896 31.9513 14.0961C31.913 14.0026 31.8935 13.9024 31.8941 13.8013C31.8937 13.7003 31.9133 13.6003 31.9518 13.5069C31.9902 13.4136 32.0468 13.3287 32.1182 13.2573C32.1896 13.186 32.2744 13.1294 32.3678 13.0909C32.4611 13.0525 32.5612 13.0329 32.6621 13.0333C33.0896 13.0333 33.4586 13.3753 33.4586 13.8013H33.4601ZM16.3301 20.0053C16.3318 20.212 16.2522 20.4111 16.1086 20.5598C15.965 20.7084 15.7688 20.7948 15.5621 20.8003C15.4576 20.8005 15.3541 20.7801 15.2574 20.7402C15.1608 20.7003 15.073 20.6418 14.999 20.568C14.925 20.4941 14.8663 20.4064 14.8263 20.3099C14.7862 20.2133 14.7656 20.1098 14.7656 20.0053C14.7656 19.5778 15.1076 19.2373 15.5621 19.2373C15.6631 19.2369 15.7631 19.2565 15.8565 19.2949C15.9499 19.3334 16.0347 19.39 16.1061 19.4613C16.1775 19.5327 16.234 19.6176 16.2725 19.7109C16.3109 19.8043 16.3305 19.9043 16.3301 20.0053ZM24.8951 20.0053C24.8951 20.1098 24.8745 20.2133 24.8345 20.3099C24.7944 20.4064 24.7357 20.4941 24.6617 20.568C24.5878 20.6418 24.4999 20.7003 24.4033 20.7402C24.3067 20.7801 24.2032 20.8005 24.0986 20.8003C23.892 20.7948 23.6958 20.7084 23.5521 20.5598C23.4085 20.4111 23.329 20.212 23.3306 20.0053C23.3302 19.9043 23.3498 19.8043 23.3883 19.7109C23.4267 19.6176 23.4833 19.5327 23.5547 19.4613C23.6261 19.39 23.7109 19.3334 23.8043 19.2949C23.8976 19.2565 23.9977 19.2369 24.0986 19.2373C24.5531 19.2373 24.8951 19.5778 24.8951 20.0053ZM33.4601 20.0053C33.4551 20.2151 33.3694 20.4149 33.2207 20.563C33.072 20.7111 32.8719 20.7961 32.6621 20.8003C32.4555 20.7948 32.2593 20.7084 32.1156 20.5598C31.972 20.4111 31.8925 20.212 31.8941 20.0053C31.8937 19.9043 31.9133 19.8043 31.9518 19.7109C31.9902 19.6176 32.0468 19.5327 32.1182 19.4613C32.1896 19.39 32.2744 19.3334 32.3678 19.2949C32.4611 19.2565 32.5612 19.2369 32.6621 19.2373C33.0896 19.2373 33.4586 19.5778 33.4586 20.0053H33.4601ZM16.3301 26.2363C16.3305 26.3373 16.3109 26.4373 16.2725 26.5307C16.234 26.624 16.1775 26.7088 16.1061 26.7802C16.0347 26.8516 15.9499 26.9082 15.8565 26.9466C15.7631 26.9851 15.6631 27.0047 15.5621 27.0043C15.4591 27.0075 15.3564 26.99 15.2602 26.9529C15.164 26.9158 15.0761 26.8598 15.0019 26.7883C14.9277 26.7167 14.8685 26.631 14.8279 26.5362C14.7874 26.4414 14.7662 26.3394 14.7656 26.2363C14.7656 25.8088 15.1076 25.4683 15.5621 25.4683C15.6631 25.4679 15.7631 25.4875 15.8565 25.5259C15.9499 25.5644 16.0347 25.621 16.1061 25.6923C16.1775 25.7637 16.234 25.8486 16.2725 25.9419C16.3109 26.0353 16.3305 26.1353 16.3301 26.2363ZM24.8951 26.2363C24.8948 26.3395 24.8737 26.4415 24.8332 26.5364C24.7927 26.6313 24.7336 26.7171 24.6593 26.7887C24.585 26.8603 24.4971 26.9163 24.4008 26.9534C24.3045 26.9904 24.2017 27.0077 24.0986 27.0043C23.9977 27.0047 23.8976 26.9851 23.8043 26.9466C23.7109 26.9082 23.6261 26.8516 23.5547 26.7802C23.4833 26.7088 23.4267 26.624 23.3883 26.5307C23.3498 26.4373 23.3302 26.3373 23.3306 26.2363C23.3302 26.1353 23.3498 26.0353 23.3883 25.9419C23.4267 25.8486 23.4833 25.7637 23.5547 25.6923C23.6261 25.621 23.7109 25.5644 23.8043 25.5259C23.8976 25.4875 23.9977 25.4679 24.0986 25.4683C24.5531 25.4683 24.8951 25.8088 24.8951 26.2363ZM33.4601 26.2363C33.4546 26.4434 33.3678 26.6401 33.2185 26.7838C33.0692 26.9275 32.8693 27.0067 32.6621 27.0043C32.5612 27.0047 32.4611 26.9851 32.3678 26.9466C32.2744 26.9082 32.1896 26.8516 32.1182 26.7802C32.0468 26.7088 31.9902 26.624 31.9518 26.5307C31.9133 26.4373 31.8937 26.3373 31.8941 26.2363C31.8937 26.1353 31.9133 26.0353 31.9518 25.9419C31.9902 25.8486 32.0468 25.7637 32.1182 25.6923C32.1896 25.621 32.2744 25.5644 32.3678 25.5259C32.4611 25.4875 32.5612 25.4679 32.6621 25.4683C33.0896 25.4683 33.4586 25.8088 33.4586 26.2363H33.4601ZM20.2286 10.6993C20.2227 10.9061 20.136 11.1023 19.9871 11.2459C19.8382 11.3894 19.639 11.4689 19.4321 11.4673C19.3312 11.4677 19.2311 11.4481 19.1378 11.4096C19.0444 11.3712 18.9596 11.3146 18.8882 11.2432C18.8168 11.1718 18.7602 11.087 18.7218 10.9937C18.6833 10.9003 18.6637 10.8003 18.6641 10.6993C18.6641 10.2733 19.0046 9.90279 19.4321 9.90279C19.8581 9.90279 20.2271 10.2733 20.2271 10.6993H20.2286ZM29.5616 10.6993C29.562 10.8004 29.5424 10.9006 29.5038 10.994C29.4653 11.0875 29.4086 11.1724 29.337 11.2438C29.2655 11.3152 29.1805 11.3717 29.087 11.4101C28.9934 11.4484 28.8932 11.4679 28.7921 11.4673C28.6892 11.4703 28.5867 11.4527 28.4906 11.4155C28.3946 11.3783 28.307 11.3223 28.2329 11.2507C28.1588 11.1792 28.0998 11.0935 28.0593 10.9988C28.0188 10.9041 27.9977 10.8023 27.9971 10.6993C27.9969 10.5948 28.0173 10.4912 28.0572 10.3946C28.0971 10.298 28.1556 10.2101 28.2294 10.1362C28.3033 10.0622 28.391 10.0035 28.4875 9.96345C28.5841 9.9234 28.6876 9.90279 28.7921 9.90279C29.2196 9.90279 29.5616 10.2733 29.5616 10.6993ZM20.2286 16.9018C20.2231 17.1087 20.1365 17.3051 19.9876 17.4488C19.8386 17.5925 19.6391 17.6718 19.4321 17.6698C19.3312 17.6702 19.2311 17.6506 19.1378 17.6121C19.0444 17.5737 18.9596 17.5171 18.8882 17.4457C18.8168 17.3743 18.7602 17.2895 18.7218 17.1962C18.6833 17.1028 18.6637 17.0028 18.6641 16.9018C18.6637 16.8008 18.6833 16.7008 18.7218 16.6074C18.7602 16.5141 18.8168 16.4292 18.8882 16.3578C18.9596 16.2865 19.0444 16.2299 19.1378 16.1914C19.2311 16.153 19.3312 16.1334 19.4321 16.1338C19.8581 16.1338 20.2271 16.4758 20.2271 16.9018H20.2286ZM29.5616 16.9018C29.562 17.0029 29.5424 17.1031 29.5038 17.1965C29.4653 17.29 29.4086 17.3749 29.337 17.4463C29.2655 17.5177 29.1805 17.5742 29.087 17.6126C28.9934 17.6509 28.8932 17.6704 28.7921 17.6698C28.6892 17.6728 28.5867 17.6552 28.4906 17.618C28.3946 17.5808 28.307 17.5248 28.2329 17.4532C28.1588 17.3817 28.0998 17.296 28.0593 17.2013C28.0188 17.1066 27.9977 17.0048 27.9971 16.9018C27.9971 16.4758 28.3376 16.1338 28.7921 16.1338C28.8932 16.1332 28.9934 16.1526 29.087 16.191C29.1805 16.2294 29.2655 16.2859 29.337 16.3573C29.4086 16.4287 29.4653 16.5136 29.5038 16.6071C29.5424 16.7005 29.562 16.8007 29.5616 16.9018ZM20.2286 23.1328C20.2227 23.3396 20.136 23.5358 19.9871 23.6794C19.8382 23.823 19.639 23.9024 19.4321 23.9008C19.3312 23.9012 19.2311 23.8816 19.1378 23.8431C19.0444 23.8047 18.9596 23.7481 18.8882 23.6767C18.8168 23.6053 18.7602 23.5205 18.7218 23.4272C18.6833 23.3338 18.6637 23.2338 18.6641 23.1328C18.6641 22.7068 19.0046 22.3378 19.4321 22.3378C19.8581 22.3378 20.2271 22.7068 20.2271 23.1328H20.2286ZM29.5616 23.1328C29.562 23.2339 29.5424 23.3341 29.5038 23.4275C29.4653 23.521 29.4086 23.6059 29.337 23.6773C29.2655 23.7487 29.1805 23.8052 29.087 23.8436C28.9934 23.8819 28.8932 23.9014 28.7921 23.9008C28.6892 23.9038 28.5867 23.8862 28.4906 23.849C28.3946 23.8118 28.307 23.7558 28.2329 23.6842C28.1588 23.6127 28.0998 23.527 28.0593 23.4323C28.0188 23.3376 27.9977 23.2358 27.9971 23.1328C27.9971 22.9219 28.0809 22.7197 28.23 22.5706C28.3791 22.4215 28.5813 22.3378 28.7921 22.3378C29.2196 22.3378 29.5616 22.7068 29.5616 23.1328Z" fill="#13277E"/>
<path d="M10.9259 29.0222V44.8697H6.80094C5.71944 44.8697 4.83594 43.9592 4.83594 42.8222V29.0792L10.9259 29.0222ZM43.1069 29.3912C44.2715 29.1563 45.3037 28.4885 45.9954 27.5226C46.6871 26.5567 46.987 25.3645 46.8344 24.1862C46.4924 21.7382 44.3294 19.9457 41.8544 20.1167C40.6646 20.1971 39.5499 20.7269 38.7363 21.5987C37.9226 22.4706 37.471 23.6192 37.4729 24.8117V44.3867L43.1069 29.3912Z" fill="#2B8AFC"/>
<path d="M37.4727 29.0234V44.8709H41.5692C42.6792 44.8709 43.5342 43.9604 43.5342 42.8234V29.0804L37.4727 29.0234Z" fill="#2B8AFC"/>
<path d="M7.88281 19.6031V20.3981C8.66601 20.7294 9.33445 21.2838 9.80494 21.9922C10.2754 22.7005 10.5272 23.5317 10.5288 24.3821V35.2796H11.2968V24.3821C11.2968 22.1921 9.87331 20.2856 7.88281 19.6031ZM40.5168 19.6031V20.3981C39.7269 20.723 39.0511 21.2751 38.575 21.9842C38.099 22.6934 37.844 23.5279 37.8423 24.3821V35.2796H37.1028V24.3821C37.1028 22.1921 38.4978 20.2856 40.5168 19.6031Z" fill="#13277E"/>
</g>
<defs>
<clipPath id="clip0_8659_21301">
<rect width="48" height="48" fill="white"/>
</clipPath>
</defs>
</svg>
