<svg width="48" height="48" viewBox="0 0 48 48" fill="none" xmlns="http://www.w3.org/2000/svg">
    <path d="M30 15H18V26.25H30V15Z" fill="#00665A"/>
    <path d="M42 15H30V26.25H42V15Z" fill="#00594F"/>
    <path d="M18 15H6V26.25H18V15Z" fill="#00594F"/>
    <path d="M39.75 32.25H8.25V35.25H39.75V32.25Z" fill="#898890"/>
    <path d="M39.75 26.25V32.25H8.25V26.25H18H30H39.75Z" fill="#B39A7C"/>
    <path d="M27 10.5H21C19.3431 10.5 18 11.8431 18 13.5V16.5C18 18.1569 19.3431 19.5 21 19.5H27C28.6569 19.5 30 18.1569 30 16.5V13.5C30 11.8431 28.6569 10.5 27 10.5Z" fill="#00DDC2"/>
    <path d="M39 10.5H33C31.3431 10.5 30 11.8431 30 13.5V16.5C30 18.1569 31.3431 19.5 33 19.5H39C40.6569 19.5 42 18.1569 42 16.5V13.5C42 11.8431 40.6569 10.5 39 10.5Z" fill="#00DDC2"/>
    <path d="M15 10.5H9C7.34315 10.5 6 11.8431 6 13.5V16.5C6 18.1569 7.34315 19.5 9 19.5H15C16.6569 19.5 18 18.1569 18 16.5V13.5C18 11.8431 16.6569 10.5 15 10.5Z" fill="#00DDC2"/>
    <path d="M9.675 20.985C9.81924 21.6831 9.76183 22.4079 9.5095 23.0745C9.25717 23.7412 8.82032 24.3224 8.25 24.75V37.5C8.25 37.6989 8.17098 37.8897 8.03033 38.0303C7.88968 38.171 7.69891 38.25 7.5 38.25H4.5C4.30109 38.25 4.11032 38.171 3.96967 38.0303C3.82902 37.8897 3.75 37.6989 3.75 37.5V24.75C3.12035 24.2778 2.65525 23.6194 2.42057 22.8681C2.1859 22.1169 2.19355 21.3108 2.44244 20.5642C2.69133 19.8175 3.16884 19.1681 3.80734 18.7079C4.44583 18.2477 5.21294 18 6 18C6.5833 17.9996 7.1587 18.1349 7.68068 18.3953C8.20266 18.6556 8.65691 19.0338 9.0075 19.5C9.33573 19.9404 9.56356 20.4472 9.675 20.985ZM45.675 20.985C45.8192 21.6831 45.7618 22.4079 45.5095 23.0745C45.2572 23.7412 44.8203 24.3224 44.25 24.75V37.5C44.25 37.6989 44.171 37.8897 44.0303 38.0303C43.8897 38.171 43.6989 38.25 43.5 38.25H40.5C40.3011 38.25 40.1103 38.171 39.9697 38.0303C39.829 37.8897 39.75 37.6989 39.75 37.5V24.75C39.2847 24.4003 38.907 23.9473 38.6467 23.4267C38.3864 22.9061 38.2506 22.3321 38.25 21.75C38.2471 20.9369 38.5134 20.1458 39.0075 19.5C39.3551 19.0343 39.8066 18.6561 40.3261 18.3957C40.8457 18.1353 41.4188 17.9998 42 18C42.2519 17.9993 42.5032 18.0245 42.75 18.075C43.4692 18.2197 44.1301 18.5727 44.6502 19.0901C45.1703 19.6075 45.5267 20.2665 45.675 20.985Z" fill="#A78966"/>
    <path d="M46.4085 20.8358C46.2297 19.9714 45.8007 19.1788 45.1749 18.5564C44.5491 17.9341 43.7541 17.5095 42.8888 17.3355C42.8423 17.3265 42.7965 17.3243 42.75 17.3168V13.5C42.7488 12.5058 42.3533 11.5527 41.6503 10.8497C40.9473 10.1467 39.9942 9.75119 39 9.75H33C32.4157 9.75164 31.8399 9.8903 31.3189 10.1548C30.7978 10.4194 30.3461 10.8025 30 11.2733C29.6539 10.8025 29.2022 10.4194 28.6812 10.1548C28.1601 9.8903 27.5843 9.75164 27 9.75H21C20.4157 9.75164 19.8399 9.8903 19.3189 10.1548C18.7978 10.4194 18.3461 10.8025 18 11.2733C17.6539 10.8025 17.2022 10.4194 16.6812 10.1548C16.1601 9.8903 15.5843 9.75164 15 9.75H9C8.00581 9.75119 7.05267 10.1467 6.34967 10.8497C5.64667 11.5527 5.2512 12.5058 5.25 13.5V17.3198C4.20122 17.4938 3.2484 18.0349 2.56154 18.8463C1.87468 19.6578 1.49846 20.6869 1.5 21.75C1.5019 22.3827 1.63637 23.008 1.89472 23.5856C2.15308 24.1631 2.5296 24.6801 3 25.1033V37.5C3 37.8978 3.15804 38.2794 3.43934 38.5607C3.72065 38.842 4.10218 39 4.5 39H7.5C7.89783 39 8.27936 38.842 8.56067 38.5607C8.84197 38.2794 9 37.8978 9 37.5V36H39V37.5C39 37.8978 39.158 38.2794 39.4393 38.5607C39.7206 38.842 40.1022 39 40.5 39H43.5C43.8978 39 44.2794 38.842 44.5607 38.5607C44.842 38.2794 45 37.8978 45 37.5V25.104C45.5895 24.5794 46.0302 23.9085 46.2775 23.159C46.5248 22.4096 46.57 21.6082 46.4085 20.8358ZM33 11.25H39C39.5967 11.25 40.169 11.4871 40.591 11.909C41.013 12.331 41.25 12.9033 41.25 13.5V17.3198C40.2443 17.4788 39.3259 17.9848 38.6543 18.75H33C32.4033 18.75 31.831 18.5129 31.409 18.091C30.9871 17.669 30.75 17.0967 30.75 16.5V13.5C30.75 12.9033 30.9871 12.331 31.409 11.909C31.831 11.4871 32.4033 11.25 33 11.25ZM39 25.1033V25.5H30.75V19.4805C31.3953 19.9769 32.1859 20.2472 33 20.25H37.758C37.4601 21.0909 37.4192 22.0014 37.6403 22.8657C37.8615 23.7299 38.3348 24.5088 39 25.1033ZM10.4085 20.8358C10.3672 20.6368 10.3118 20.4411 10.2428 20.25H15C15.8141 20.2472 16.6047 19.9769 17.25 19.4805V25.5H9V25.104C9.58954 24.5794 10.0302 23.9085 10.2775 23.159C10.5248 22.4096 10.57 21.6082 10.4085 20.8358ZM29.25 25.5H18.75V19.4805C19.3953 19.9769 20.1859 20.2472 21 20.25H27C27.8141 20.2472 28.6047 19.9769 29.25 19.4805V25.5ZM9 27H39V31.5H9V27ZM21 11.25H27C27.5967 11.25 28.169 11.4871 28.591 11.909C29.013 12.331 29.25 12.9033 29.25 13.5V16.5C29.25 17.0967 29.013 17.669 28.591 18.091C28.169 18.5129 27.5967 18.75 27 18.75H21C20.4033 18.75 19.831 18.5129 19.409 18.091C18.9871 17.669 18.75 17.0967 18.75 16.5V13.5C18.75 12.9033 18.9871 12.331 19.409 11.909C19.831 11.4871 20.4033 11.25 21 11.25ZM9 11.25H15C15.5967 11.25 16.169 11.4871 16.591 11.909C17.013 12.331 17.25 12.9033 17.25 13.5V16.5C17.25 17.0967 17.013 17.669 16.591 18.091C16.169 18.5129 15.5967 18.75 15 18.75H9.34275C8.70052 18.024 7.83891 17.5273 6.88875 17.3355C6.84226 17.325 6.7965 17.325 6.75 17.3168V13.5C6.75 12.9033 6.98706 12.331 7.40901 11.909C7.83097 11.4871 8.40327 11.25 9 11.25ZM7.5 37.5H4.5V24.75C4.5 24.6336 4.4729 24.5187 4.42083 24.4146C4.36875 24.3104 4.29315 24.2199 4.2 24.15C3.83662 23.8776 3.53983 23.5262 3.33201 23.1224C3.12419 22.7186 3.01077 22.2728 3.00029 21.8188C2.98982 21.3648 3.08257 20.9143 3.27155 20.5013C3.46054 20.0883 3.74081 19.7236 4.09125 19.4347C4.6252 18.9898 5.29895 18.7473 5.994 18.75C6.19893 18.7502 6.40336 18.7701 6.6045 18.8092C7.17097 18.9253 7.69183 19.2026 8.10439 19.6077C8.51695 20.0129 8.80364 20.5286 8.92995 21.0929C9.05626 21.6572 9.01681 22.2459 8.81634 22.7883C8.61587 23.3306 8.26294 23.8035 7.8 24.15C7.70686 24.2199 7.63126 24.3104 7.57918 24.4146C7.52711 24.5187 7.5 24.6336 7.5 24.75V37.5ZM9 34.5V33H39V34.5H9ZM43.8 24.15C43.7069 24.2199 43.6313 24.3104 43.5792 24.4146C43.5271 24.5187 43.5 24.6336 43.5 24.75V37.5H40.5V24.75C40.5 24.6336 40.4729 24.5187 40.4208 24.4146C40.3688 24.3104 40.2932 24.2199 40.2 24.15C39.8366 23.8776 39.5398 23.5262 39.332 23.1224C39.1242 22.7186 39.0108 22.2728 39.0003 21.8188C38.9898 21.3648 39.0826 20.9143 39.2716 20.5013C39.4605 20.0883 39.7408 19.7236 40.0913 19.4347C40.6252 18.9898 41.299 18.7473 41.994 18.75C42.1989 18.7502 42.4034 18.7701 42.6045 18.8092C43.171 18.9253 43.6918 19.2026 44.1044 19.6077C44.517 20.0129 44.8036 20.5286 44.93 21.0929C45.0563 21.6572 45.0168 22.2459 44.8163 22.7883C44.6159 23.3306 44.2629 23.8035 43.8 24.15Z" fill="black"/>
    <path d="M24.75 12.75H23.25V14.25H24.75V12.75Z" fill="black"/>
    <path d="M24.75 15.75H23.25V17.25H24.75V15.75Z" fill="black"/>
    <path d="M23.25 14.25H21.75V15.75H23.25V14.25Z" fill="black"/>
    <path d="M26.25 14.25H24.75V15.75H26.25V14.25Z" fill="black"/>
    <path d="M12.75 12.75H11.25V14.25H12.75V12.75Z" fill="black"/>
    <path d="M12.75 15.75H11.25V17.25H12.75V15.75Z" fill="black"/>
    <path d="M11.25 14.25H9.75V15.75H11.25V14.25Z" fill="black"/>
    <path d="M14.25 14.25H12.75V15.75H14.25V14.25Z" fill="black"/>
    <path d="M36.75 12.75H35.25V14.25H36.75V12.75Z" fill="black"/>
    <path d="M36.75 15.75H35.25V17.25H36.75V15.75Z" fill="black"/>
    <path d="M35.25 14.25H33.75V15.75H35.25V14.25Z" fill="black"/>
    <path d="M38.25 14.25H36.75V15.75H38.25V14.25Z" fill="black"/>
</svg>
