<svg width="48" height="48" viewBox="0 0 48 48" fill="none" xmlns="http://www.w3.org/2000/svg">
    <path d="M5.02344 23.796V12.4492C5.02344 10.5795 6.52869 9.07422 8.39844 9.07422H13.7984C15.6682 9.07422 17.1734 10.5795 17.1734 12.4492V23.796M17.1734 23.7285V12.4492C17.1734 10.5795 18.6787 9.07422 20.5484 9.07422H25.9484C27.8182 9.07422 29.3234 10.5795 29.3234 12.4492V23.7285M29.3234 25.3309V12.4492C29.3234 10.5795 30.8287 9.07422 32.6984 9.07422H38.0984C39.9682 9.07422 41.4734 10.5795 41.4734 12.4492V25.3309" fill="#2B8AFC"/>
    <path fill-rule="evenodd" clip-rule="evenodd" d="M7.72656 27.3125V28.6625H38.7765V27.3125H7.72656Z" fill="black"/>
    <path d="M44.1742 25.4258V32.4134C44.1742 33.6959 43.1469 34.7273 41.8711 34.7273H4.626C4.3227 34.7273 4.0224 34.6673 3.74234 34.5509C3.46229 34.4345 3.208 34.2638 2.99411 34.0488C2.78021 33.8338 2.61092 33.5786 2.49596 33.298C2.381 33.0173 2.32265 32.7167 2.32425 32.4134V25.4271" fill="#2B8AFC"/>
    <path d="M5.02344 34.7266H7.72344V37.4266H5.02344V34.7266ZM38.7734 34.7266H41.4734V37.4266H38.7734V34.7266Z" fill="#13277E"/>
    <path fill-rule="evenodd" clip-rule="evenodd" d="M8.38954 11.1017C8.21075 11.1048 8.04052 11.1787 7.91625 11.3073C7.79197 11.4359 7.72376 11.6086 7.72665 11.7874V13.1158C7.72665 13.2948 7.79774 13.4664 7.92432 13.593C8.05091 13.7196 8.22263 13.7908 8.40165 13.7908C8.58067 13.7908 8.75239 13.7196 8.87898 13.593C9.00557 13.4664 9.07665 13.2948 9.07665 13.1158V11.7874C9.07811 11.6969 9.06141 11.6071 9.02746 11.5232C8.99351 11.4393 8.94304 11.3632 8.87906 11.2992C8.81509 11.2353 8.73889 11.1847 8.65502 11.1508C8.57116 11.1168 8.48 11.1002 8.38954 11.1017Z" fill="#13277E"/>
    <path fill-rule="evenodd" clip-rule="evenodd" d="M7.73359 11.7767C7.55457 11.7767 7.38293 11.8477 7.25635 11.9742C7.12976 12.1008 7.05859 12.2726 7.05859 12.4517C7.05859 12.6307 7.12976 12.8023 7.25635 12.9289C7.38293 13.0555 7.55457 13.1267 7.73359 13.1267H9.062C9.24103 13.1267 9.41275 13.0555 9.53933 12.9289C9.66592 12.8023 9.737 12.6307 9.737 12.4517C9.737 12.2726 9.66592 12.1008 9.53933 11.9742C9.41275 11.8477 9.24103 11.7767 9.062 11.7767H7.73359ZM13.787 11.1017C13.6984 11.1031 13.6109 11.1218 13.5295 11.157C13.4482 11.1923 13.3745 11.2431 13.3128 11.3068C13.2511 11.3705 13.2026 11.4459 13.17 11.5283C13.1374 11.6107 13.1214 11.6987 13.1228 11.7874V13.1158C13.1228 13.2948 13.1939 13.4664 13.3205 13.593C13.4471 13.7196 13.6188 13.7908 13.7978 13.7908C13.9768 13.7908 14.1485 13.7196 14.2751 13.593C14.4017 13.4664 14.4728 13.2948 14.4728 13.1158V11.7874C14.4743 11.6969 14.4576 11.6071 14.4236 11.5232C14.3897 11.4393 14.3392 11.3632 14.2752 11.2992C14.2112 11.2353 14.135 11.1847 14.0512 11.1508C13.9673 11.1168 13.8775 11.1002 13.787 11.1017Z" fill="#13277E"/>
    <path fill-rule="evenodd" clip-rule="evenodd" d="M13.1367 11.7734C12.9576 11.7734 12.786 11.8444 12.6594 11.971C12.5328 12.0976 12.4617 12.2694 12.4617 12.4484C12.4617 12.6275 12.5328 12.7991 12.6594 12.9257C12.786 13.0523 12.9576 13.1234 13.1367 13.1234H14.4651C14.6441 13.1234 14.8158 13.0523 14.9424 12.9257C15.069 12.7991 15.1401 12.6275 15.1401 12.4484C15.1401 12.2694 15.069 12.0976 14.9424 11.971C14.8158 11.8444 14.6441 11.7734 14.4651 11.7734H13.1367ZM11.0901 15.1484C11.0014 15.1498 10.9139 15.1686 10.8326 15.2038C10.7512 15.239 10.6776 15.2899 10.6159 15.3536C10.5542 15.4173 10.5057 15.4926 10.4731 15.5751C10.4405 15.6575 10.4244 15.7455 10.4259 15.8341V17.1626C10.4259 17.3416 10.497 17.5132 10.6235 17.6398C10.7501 17.7664 10.9218 17.8376 11.1009 17.8376C11.2799 17.8376 11.4516 17.7664 11.5782 17.6398C11.7048 17.5132 11.7759 17.3416 11.7759 17.1626V15.8341C11.7773 15.7437 11.7606 15.6538 11.7267 15.57C11.6927 15.4861 11.6423 15.41 11.5783 15.346C11.5143 15.2821 11.4381 15.2315 11.3542 15.1975C11.2704 15.1636 11.1805 15.147 11.0901 15.1484Z" fill="#13277E"/>
    <path fill-rule="evenodd" clip-rule="evenodd" d="M10.4328 15.8242C10.2538 15.8242 10.0822 15.8952 9.95557 16.0218C9.82898 16.1484 9.75781 16.3202 9.75781 16.4992C9.75781 16.6782 9.82898 16.8499 9.95557 16.9765C10.0822 17.1031 10.2538 17.1742 10.4328 17.1742H11.7612C11.9402 17.1742 12.112 17.1031 12.2386 16.9765C12.3651 16.8499 12.4362 16.6782 12.4362 16.4992C12.4362 16.3202 12.3651 16.1484 12.2386 16.0218C12.112 15.8952 11.9402 15.8242 11.7612 15.8242H10.4328ZM13.7862 19.1992C13.6976 19.2006 13.6101 19.2194 13.5287 19.2546C13.4474 19.2898 13.3737 19.3407 13.312 19.4044C13.2503 19.4681 13.2018 19.5434 13.1692 19.6259C13.1366 19.7083 13.1206 19.7963 13.122 19.8849V21.2133C13.122 21.3924 13.1931 21.564 13.3197 21.6906C13.4463 21.8172 13.618 21.8883 13.797 21.8883C13.976 21.8883 14.1478 21.8172 14.2743 21.6906C14.4009 21.564 14.472 21.3924 14.472 21.2133V19.8849C14.4735 19.7945 14.4568 19.7046 14.4228 19.6208C14.3889 19.5369 14.3384 19.4608 14.2744 19.3968C14.2105 19.3328 14.1343 19.2823 14.0504 19.2483C13.9665 19.2144 13.8767 19.1978 13.7862 19.1992Z" fill="#13277E"/>
    <path fill-rule="evenodd" clip-rule="evenodd" d="M13.1374 19.8743C12.9584 19.8743 12.7868 19.9453 12.6602 20.0719C12.5336 20.1985 12.4624 20.3703 12.4624 20.5493C12.4624 20.7283 12.5336 20.9 12.6602 21.0266C12.7868 21.1531 12.9584 21.2243 13.1374 21.2243H14.4659C14.6449 21.2243 14.8166 21.1531 14.9432 21.0266C15.0698 20.9 15.1409 20.7283 15.1409 20.5493C15.1409 20.3703 15.0698 20.1985 14.9432 20.0719C14.8166 19.9453 14.6449 19.8743 14.4659 19.8743H13.1374ZM8.39086 19.1993C8.30221 19.2007 8.21472 19.2194 8.13336 19.2547C8.05201 19.2899 7.97834 19.3408 7.91666 19.4045C7.85498 19.4682 7.80647 19.5435 7.77386 19.626C7.74126 19.7084 7.72522 19.7964 7.72665 19.885V21.2134C7.72665 21.3925 7.79773 21.5641 7.92432 21.6907C8.05091 21.8173 8.22263 21.8884 8.40165 21.8884C8.58067 21.8884 8.75239 21.8173 8.87898 21.6907C9.00557 21.5641 9.07665 21.3925 9.07665 21.2134V19.885C9.07811 19.7946 9.06141 19.7047 9.02746 19.6209C8.99351 19.537 8.94304 19.4609 8.87906 19.3969C8.81509 19.3329 8.73889 19.2824 8.65502 19.2484C8.57116 19.2145 8.48132 19.1978 8.39086 19.1993Z" fill="#13277E"/>
    <path fill-rule="evenodd" clip-rule="evenodd" d="M7.73359 19.875C7.55457 19.875 7.38293 19.946 7.25635 20.0726C7.12976 20.1992 7.05859 20.371 7.05859 20.55C7.05859 20.729 7.12976 20.9007 7.25635 21.0272C7.38293 21.1538 7.55457 21.225 7.73359 21.225H9.062C9.24102 21.225 9.41275 21.1538 9.53933 21.0272C9.66592 20.9007 9.737 20.729 9.737 20.55C9.737 20.371 9.66592 20.1992 9.53933 20.0726C9.41275 19.946 9.24102 19.875 9.062 19.875H7.73359Z" fill="#13277E"/>
    <path d="M5.02344 14.4766V17.1766C5.77404 17.1766 6.37344 17.7691 6.37344 18.602V23.7969H9.07343V18.602C9.07343 16.3597 7.26444 14.4766 5.02344 14.4766Z" fill="#13277E"/>
    <path fill-rule="evenodd" clip-rule="evenodd" d="M20.538 11.1017C20.3592 11.1048 20.189 11.1787 20.0647 11.3073C19.9404 11.4359 19.8722 11.6086 19.8751 11.7874V13.1158C19.8751 13.2948 19.9462 13.4664 20.0728 13.593C20.1993 13.7196 20.3711 13.7908 20.5501 13.7908C20.7291 13.7908 20.9008 13.7196 21.0274 13.593C21.154 13.4664 21.2251 13.2948 21.2251 13.1158V11.7874C21.2265 11.6969 21.2098 11.6071 21.1759 11.5232C21.1419 11.4393 21.0915 11.3632 21.0275 11.2992C20.9635 11.2353 20.8873 11.1847 20.8035 11.1508C20.7196 11.1168 20.6284 11.1002 20.538 11.1017Z" fill="#13277E"/>
    <path fill-rule="evenodd" clip-rule="evenodd" d="M19.8859 11.7767C19.7069 11.7767 19.5353 11.8477 19.4087 11.9742C19.2821 12.1008 19.2109 12.2726 19.2109 12.4517C19.2109 12.6307 19.2821 12.8023 19.4087 12.9289C19.5353 13.0555 19.7069 13.1267 19.8859 13.1267H21.2143C21.3934 13.1267 21.5651 13.0555 21.6917 12.9289C21.8183 12.8023 21.8893 12.6307 21.8893 12.4517C21.8893 12.2726 21.8183 12.1008 21.6917 11.9742C21.5651 11.8477 21.3934 11.7767 21.2143 11.7767H19.8859ZM25.9393 11.1017C25.8507 11.1031 25.7632 11.1218 25.6819 11.157C25.6005 11.1923 25.5268 11.2431 25.4651 11.3068C25.4035 11.3705 25.355 11.4459 25.3224 11.5283C25.2897 11.6107 25.2737 11.6987 25.2751 11.7874V13.1158C25.2751 13.2948 25.3462 13.4664 25.4728 13.593C25.5994 13.7196 25.7711 13.7908 25.9501 13.7908C26.1292 13.7908 26.3009 13.7196 26.4275 13.593C26.5541 13.4664 26.6251 13.2948 26.6251 13.1158V11.7874C26.6266 11.6969 26.6099 11.6071 26.5759 11.5232C26.542 11.4393 26.4915 11.3632 26.4275 11.2992C26.3636 11.2353 26.2874 11.1847 26.2035 11.1508C26.1196 11.1168 26.0298 11.1002 25.9393 11.1017Z" fill="#13277E"/>
    <path fill-rule="evenodd" clip-rule="evenodd" d="M25.2851 11.7734C25.1061 11.7734 24.9344 11.8444 24.8079 11.971C24.6813 12.0976 24.6101 12.2694 24.6101 12.4484C24.6101 12.6275 24.6813 12.7991 24.8079 12.9257C24.9344 13.0523 25.1061 13.1234 25.2851 13.1234H26.6135C26.7925 13.1234 26.9643 13.0523 27.0908 12.9257C27.2174 12.7991 27.2885 12.6275 27.2885 12.4484C27.2885 12.2694 27.2174 12.0976 27.0908 11.971C26.9643 11.8444 26.7925 11.7734 26.6135 11.7734H25.2851ZM23.2385 15.1484C23.1499 15.1498 23.0624 15.1686 22.981 15.2038C22.8997 15.239 22.826 15.2899 22.7643 15.3536C22.7026 15.4173 22.6541 15.4926 22.6215 15.5751C22.5889 15.6575 22.5729 15.7455 22.5743 15.8341V17.1626C22.5743 17.3416 22.6454 17.5132 22.772 17.6398C22.8986 17.7664 23.0703 17.8376 23.2493 17.8376C23.4283 17.8376 23.6 17.7664 23.7266 17.6398C23.8532 17.5132 23.9243 17.3416 23.9243 17.1626V15.8341C23.9258 15.7437 23.9091 15.6538 23.8751 15.57C23.8412 15.4861 23.7907 15.41 23.7267 15.346C23.6627 15.2821 23.5865 15.2315 23.5027 15.1975C23.4188 15.1636 23.329 15.147 23.2385 15.1484Z" fill="#13277E"/>
    <path fill-rule="evenodd" clip-rule="evenodd" d="M22.5852 15.8242C22.4061 15.8242 22.2345 15.8952 22.1079 16.0218C21.9813 16.1484 21.9102 16.3202 21.9102 16.4992C21.9102 16.6782 21.9813 16.8499 22.1079 16.9765C22.2345 17.1031 22.4061 17.1742 22.5852 17.1742H23.9136C24.0926 17.1742 24.2643 17.1031 24.3909 16.9765C24.5175 16.8499 24.5886 16.6782 24.5886 16.4992C24.5886 16.3202 24.5175 16.1484 24.3909 16.0218C24.2643 15.8952 24.0926 15.8242 23.9136 15.8242H22.5852ZM25.9386 19.1992C25.8499 19.2006 25.7624 19.2194 25.6811 19.2546C25.5997 19.2898 25.526 19.3407 25.4644 19.4044C25.4027 19.4681 25.3542 19.5434 25.3216 19.6259C25.289 19.7083 25.2729 19.7963 25.2744 19.8849V21.2133C25.2744 21.3924 25.3454 21.564 25.472 21.6906C25.5986 21.8172 25.7703 21.8883 25.9494 21.8883C26.1284 21.8883 26.3001 21.8172 26.4267 21.6906C26.5533 21.564 26.6244 21.3924 26.6244 21.2133V19.8849C26.6258 19.7945 26.6091 19.7046 26.5752 19.6208C26.5412 19.5369 26.4907 19.4608 26.4268 19.3968C26.3628 19.3328 26.2866 19.2823 26.2027 19.2483C26.1189 19.2144 26.029 19.1978 25.9386 19.1992Z" fill="#13277E"/>
    <path fill-rule="evenodd" clip-rule="evenodd" d="M25.2859 19.8743C25.1069 19.8743 24.9352 19.9453 24.8086 20.0719C24.682 20.1985 24.6109 20.3703 24.6109 20.5493C24.6109 20.7283 24.682 20.9 24.8086 21.0266C24.9352 21.1531 25.1069 21.2243 25.2859 21.2243H26.6143C26.7933 21.2243 26.965 21.1531 27.0916 21.0266C27.2182 20.9 27.2893 20.7283 27.2893 20.5493C27.2893 20.3703 27.2182 20.1985 27.0916 20.0719C26.965 19.9453 26.7933 19.8743 26.6143 19.8743H25.2859ZM20.5393 19.1993C20.4506 19.2007 20.3632 19.2194 20.2818 19.2547C20.2004 19.2899 20.1268 19.3408 20.0651 19.4045C20.0034 19.4682 19.9549 19.5435 19.9223 19.626C19.8897 19.7084 19.8737 19.7964 19.8751 19.885V21.2134C19.8751 21.3925 19.9462 21.5641 20.0728 21.6907C20.1993 21.8173 20.3711 21.8884 20.5501 21.8884C20.7291 21.8884 20.9008 21.8173 21.0274 21.6907C21.154 21.5641 21.2251 21.3925 21.2251 21.2134V19.885C21.2265 19.7946 21.2098 19.7047 21.1759 19.6209C21.1419 19.537 21.0915 19.4609 21.0275 19.3969C20.9635 19.3329 20.8873 19.2824 20.8035 19.2484C20.7196 19.2145 20.6298 19.1978 20.5393 19.1993Z" fill="#13277E"/>
    <path fill-rule="evenodd" clip-rule="evenodd" d="M19.8859 19.8766C19.7069 19.8766 19.5353 19.9477 19.4087 20.0742C19.2821 20.2008 19.2109 20.3726 19.2109 20.5517C19.2109 20.7307 19.2821 20.9023 19.4087 21.0289C19.5353 21.1555 19.7069 21.2267 19.8859 21.2267H21.2143C21.3934 21.2267 21.5651 21.1555 21.6917 21.0289C21.8183 20.9023 21.8893 20.7307 21.8893 20.5517C21.8893 20.3726 21.8183 20.2008 21.6917 20.0742C21.5651 19.9477 21.3934 19.8766 21.2143 19.8766H19.8859ZM32.6893 11.1017C32.6007 11.1031 32.5132 11.1218 32.4318 11.157C32.3505 11.1923 32.2768 11.2431 32.2151 11.3068C32.1535 11.3705 32.105 11.4459 32.0723 11.5283C32.0397 11.6107 32.0237 11.6987 32.0251 11.7874V13.1158C32.0251 13.2948 32.0962 13.4664 32.2228 13.593C32.3494 13.7196 32.5211 13.7908 32.7001 13.7908C32.8792 13.7908 33.0509 13.7196 33.1775 13.593C33.304 13.4664 33.3751 13.2948 33.3751 13.1158V11.7874C33.3766 11.6969 33.3599 11.6071 33.3259 11.5232C33.292 11.4393 33.2415 11.3632 33.1775 11.2992C33.1136 11.2353 33.0374 11.1847 32.9535 11.1508C32.8696 11.1168 32.7798 11.1002 32.6893 11.1017Z" fill="#13277E"/>
    <path fill-rule="evenodd" clip-rule="evenodd" d="M32.0344 11.7767C31.8554 11.7767 31.6837 11.8477 31.5571 11.9742C31.4305 12.1008 31.3594 12.2726 31.3594 12.4517C31.3594 12.6307 31.4305 12.8023 31.5571 12.9289C31.6837 13.0555 31.8554 13.1267 32.0344 13.1267H33.3628C33.5418 13.1267 33.7135 13.0555 33.8401 12.9289C33.9667 12.8023 34.0378 12.6307 34.0378 12.4517C34.0378 12.2726 33.9667 12.1008 33.8401 11.9742C33.7135 11.8477 33.5418 11.7767 33.3628 11.7767H32.0344ZM38.0878 11.1017C37.9991 11.1031 37.9116 11.1218 37.8303 11.157C37.7489 11.1923 37.6753 11.2431 37.6136 11.3068C37.5519 11.3705 37.5034 11.4459 37.4708 11.5283C37.4382 11.6107 37.4221 11.6987 37.4236 11.7874V13.1158C37.4236 13.2948 37.4947 13.4664 37.6212 13.593C37.7478 13.7196 37.9196 13.7908 38.0986 13.7908C38.2776 13.7908 38.4493 13.7196 38.5759 13.593C38.7025 13.4664 38.7736 13.2948 38.7736 13.1158V11.7874C38.775 11.6969 38.7583 11.6071 38.7244 11.5232C38.6904 11.4393 38.64 11.3632 38.576 11.2992C38.512 11.2353 38.4358 11.1847 38.3519 11.1508C38.2681 11.1168 38.1782 11.1002 38.0878 11.1017Z" fill="#13277E"/>
    <path fill-rule="evenodd" clip-rule="evenodd" d="M37.4374 11.7734C37.2584 11.7734 37.0868 11.8444 36.9602 11.971C36.8336 12.0976 36.7624 12.2694 36.7624 12.4484C36.7624 12.6275 36.8336 12.7991 36.9602 12.9257C37.0868 13.0523 37.2584 13.1234 37.4374 13.1234H38.7659C38.9449 13.1234 39.1166 13.0523 39.2432 12.9257C39.3698 12.7991 39.4409 12.6275 39.4409 12.4484C39.4409 12.2694 39.3698 12.0976 39.2432 11.971C39.1166 11.8444 38.9449 11.7734 38.7659 11.7734H37.4374ZM35.3909 15.1484C35.3022 15.1498 35.2147 15.1686 35.1334 15.2038C35.052 15.239 34.9783 15.2899 34.9167 15.3536C34.855 15.4173 34.8065 15.4926 34.7739 15.5751C34.7413 15.6575 34.7252 15.7455 34.7267 15.8341V17.1626C34.7267 17.3416 34.7977 17.5132 34.9243 17.6398C35.0509 17.7664 35.2226 17.8376 35.4016 17.8376C35.5807 17.8376 35.7524 17.7664 35.879 17.6398C36.0056 17.5132 36.0766 17.3416 36.0766 17.1626V15.8341C36.0781 15.7437 36.0614 15.6538 36.0275 15.57C35.9935 15.4861 35.943 15.41 35.8791 15.346C35.8151 15.2821 35.7389 15.2315 35.655 15.1975C35.5712 15.1636 35.4813 15.147 35.3909 15.1484Z" fill="#13277E"/>
    <path fill-rule="evenodd" clip-rule="evenodd" d="M34.7336 15.8242C34.5546 15.8242 34.3829 15.8952 34.2563 16.0218C34.1298 16.1484 34.0586 16.3202 34.0586 16.4992C34.0586 16.6782 34.1298 16.8499 34.2563 16.9765C34.3829 17.1031 34.5546 17.1742 34.7336 17.1742H36.062C36.241 17.1742 36.4127 17.1031 36.5393 16.9765C36.6659 16.8499 36.737 16.6782 36.737 16.4992C36.737 16.3202 36.6659 16.1484 36.5393 16.0218C36.4127 15.8952 36.241 15.8242 36.062 15.8242H34.7336ZM38.087 19.1992C37.9984 19.2006 37.9109 19.2194 37.8295 19.2546C37.7482 19.2898 37.6745 19.3407 37.6128 19.4044C37.5511 19.4681 37.5026 19.5434 37.47 19.6259C37.4374 19.7083 37.4214 19.7963 37.4228 19.8849V21.2133C37.4228 21.3924 37.4939 21.564 37.6205 21.6906C37.7471 21.8172 37.9188 21.8883 38.0978 21.8883C38.2768 21.8883 38.4485 21.8172 38.5751 21.6906C38.7017 21.564 38.7728 21.3924 38.7728 21.2133V19.8849C38.7743 19.7945 38.7576 19.7046 38.7236 19.6208C38.6897 19.5369 38.6392 19.4608 38.5752 19.3968C38.5112 19.3328 38.435 19.2823 38.3512 19.2483C38.2673 19.2144 38.1775 19.1978 38.087 19.1992Z" fill="#13277E"/>
    <path fill-rule="evenodd" clip-rule="evenodd" d="M37.4343 19.8743C37.2553 19.8743 37.0837 19.9453 36.9571 20.0719C36.8305 20.1985 36.7593 20.3703 36.7593 20.5493C36.7593 20.7283 36.8305 20.9 36.9571 21.0266C37.0837 21.1531 37.2553 21.2243 37.4343 21.2243H38.7627C38.9417 21.2243 39.1135 21.1531 39.2401 21.0266C39.3666 20.9 39.4377 20.7283 39.4377 20.5493C39.4377 20.3703 39.3666 20.1985 39.2401 20.0719C39.1135 19.9453 38.9417 19.8743 38.7627 19.8743H37.4343ZM32.6877 19.1993C32.5991 19.2007 32.5116 19.2194 32.4302 19.2547C32.3489 19.2899 32.2752 19.3408 32.2135 19.4045C32.1519 19.4682 32.1033 19.5435 32.0707 19.626C32.0381 19.7084 32.0221 19.7964 32.0235 19.885V21.2134C32.0235 21.3925 32.0946 21.5641 32.2212 21.6907C32.3478 21.8173 32.5195 21.8884 32.6985 21.8884C32.8775 21.8884 33.0493 21.8173 33.1759 21.6907C33.3024 21.5641 33.3735 21.3925 33.3735 21.2134V19.885C33.375 19.7946 33.3583 19.7047 33.3243 19.6209C33.2904 19.537 33.2399 19.4609 33.1759 19.3969C33.112 19.3329 33.0358 19.2824 32.9519 19.2484C32.868 19.2145 32.7782 19.1978 32.6877 19.1993Z" fill="#13277E"/>
    <path fill-rule="evenodd" clip-rule="evenodd" d="M32.0344 19.875C31.8554 19.875 31.6837 19.946 31.5571 20.0726C31.4305 20.1992 31.3594 20.371 31.3594 20.55C31.3594 20.729 31.4305 20.9007 31.5571 21.0272C31.6837 21.1538 31.8554 21.225 32.0344 21.225H33.3628C33.5418 21.225 33.7135 21.1538 33.8401 21.0272C33.9667 20.9007 34.0378 20.729 34.0378 20.55C34.0378 20.371 33.9667 20.1992 33.8401 20.0726C33.7135 19.946 33.5418 19.875 33.3628 19.875H32.0344Z" fill="#13277E"/>
    <path d="M2.32422 28.3185V18.6012C2.32422 17.0622 3.52842 15.8242 5.02422 15.8242C6.52002 15.8242 7.72421 17.0622 7.72421 18.6012V34.7242" fill="#2B8AFC"/>
    <path d="M41.4758 14.4766C39.2348 14.4766 37.4258 16.3612 37.4258 18.6035V25.3333H40.1258V18.6035C40.1258 17.7706 40.7252 17.1779 41.4758 17.1779V14.4766Z" fill="#13277E"/>
    <path d="M38.7765 34.7242V18.6012C38.7765 17.0622 39.9807 15.8242 41.4765 15.8242C42.9723 15.8242 44.1765 17.0622 44.1765 18.6012V28.3185M7.72656 23.2492H38.7765V27.2992H7.72656V23.2492Z" fill="#2B8AFC"/>
    <path d="M7.72423 23.25H38.7742V24.6H7.72423V23.25ZM2.32424 31.0624V32.4124C2.32424 33.6936 3.35024 34.7264 4.62599 34.7264H41.8725C43.1469 34.7264 44.1742 33.6923 44.1742 32.4111V31.0611C44.1742 32.3423 43.1482 33.3764 41.8725 33.3764H4.62599C4.32279 33.376 4.02265 33.3158 3.74275 33.1993C3.46286 33.0827 3.20872 32.9121 2.99489 32.6971C2.78107 32.4821 2.61176 32.2271 2.49668 31.9466C2.38159 31.6661 2.32299 31.3656 2.32424 31.0624Z" fill="#13277E"/>
</svg>
