<svg width="60" height="60" viewBox="0 0 60 60" fill="none" xmlns="http://www.w3.org/2000/svg">
    <path d="M41.251 15.7461H18.751C17.0941 15.7461 15.751 17.0892 15.751 18.7461V41.2461C15.751 42.9029 17.0941 44.2461 18.751 44.2461H41.251C42.9078 44.2461 44.251 42.9029 44.251 41.2461V18.7461C44.251 17.0892 42.9078 15.7461 41.251 15.7461Z" fill="#76D1FF"/>
    <path d="M41.2515 15.7461L35.259 15.7497C36.451 15.7517 37.5936 16.2266 38.4359 17.0702C39.2782 17.9138 39.7513 19.0571 39.7515 20.2492V39.7461C39.7515 40.9396 39.2774 42.0842 38.4334 42.9281C37.5895 43.772 36.4449 44.2461 35.2515 44.2461H41.2515C41.6455 44.2462 42.0356 44.1687 42.3996 44.018C42.7637 43.8672 43.0944 43.6463 43.373 43.3677C43.6516 43.0891 43.8726 42.7583 44.0233 42.3943C44.174 42.0302 44.2516 41.6401 44.2515 41.2461V18.7461C44.2516 18.3521 44.174 17.9619 44.0233 17.5979C43.8726 17.2339 43.6516 16.9031 43.373 16.6245C43.0944 16.3459 42.7637 16.125 42.3996 15.9742C42.0356 15.8235 41.6455 15.746 41.2515 15.7461Z" fill="#5AC0E0"/>
    <path d="M30.0015 39.7461C35.3862 39.7461 39.7515 35.3809 39.7515 29.9961C39.7515 24.6113 35.3862 20.2461 30.0015 20.2461C24.6167 20.2461 20.2515 24.6113 20.2515 29.9961C20.2515 35.3809 24.6167 39.7461 30.0015 39.7461Z" fill="#777777"/>
    <path d="M30.0021 33.0647C31.6962 33.0647 33.0696 31.6913 33.0696 29.9972C33.0696 28.3031 31.6962 26.9297 30.0021 26.9297C28.3079 26.9297 26.9346 28.3031 26.9346 29.9972C26.9346 31.6913 28.3079 33.0647 30.0021 33.0647Z" fill="#3A3A3A"/>
    <path d="M41.251 15.7461H18.751C17.0941 15.7461 15.751 17.0892 15.751 18.7461V41.2461C15.751 42.9029 17.0941 44.2461 18.751 44.2461H41.251C42.9078 44.2461 44.251 42.9029 44.251 41.2461V18.7461C44.251 17.0892 42.9078 15.7461 41.251 15.7461Z" stroke="black" stroke-width="3" stroke-linecap="round" stroke-linejoin="round"/>
    <path d="M30.0015 39.7461C35.3862 39.7461 39.7515 35.3809 39.7515 29.9961C39.7515 24.6113 35.3862 20.2461 30.0015 20.2461C24.6167 20.2461 20.2515 24.6113 20.2515 29.9961C20.2515 35.3809 24.6167 39.7461 30.0015 39.7461Z" stroke="black" stroke-width="3" stroke-linecap="round" stroke-linejoin="round"/>
    <path d="M30.0021 33.0647C31.6962 33.0647 33.0696 31.6913 33.0696 29.9972C33.0696 28.3031 31.6962 26.9297 30.0021 26.9297C28.3079 26.9297 26.9346 28.3031 26.9346 29.9972C26.9346 31.6913 28.3079 33.0647 30.0021 33.0647Z" stroke="black" stroke-width="3" stroke-linecap="round" stroke-linejoin="round"/>
    <path d="M55.501 31.4961H53.251" stroke="black" stroke-width="3" stroke-linecap="round" stroke-linejoin="round"/>
    <path d="M48.752 26.9961H43.502" stroke="black" stroke-width="3" stroke-linecap="round" stroke-linejoin="round"/>
    <path d="M53.2529 28.5C54.0814 28.5 54.7529 27.8284 54.7529 27C54.7529 26.1716 54.0814 25.5 53.2529 25.5C52.4245 25.5 51.7529 26.1716 51.7529 27C51.7529 27.8284 52.4245 28.5 53.2529 28.5Z" fill="black"/>
    <path d="M48.752 33C49.5804 33 50.252 32.3284 50.252 31.5C50.252 30.6716 49.5804 30 48.752 30C47.9235 30 47.252 30.6716 47.252 31.5C47.252 32.3284 47.9235 33 48.752 33Z" fill="black"/>
    <path d="M55.5015 37.4961C56.3299 37.4961 57.0015 36.8245 57.0015 35.9961C57.0015 35.1677 56.3299 34.4961 55.5015 34.4961C54.673 34.4961 54.0015 35.1677 54.0015 35.9961C54.0015 36.8245 54.673 37.4961 55.5015 37.4961Z" fill="black"/>
    <path d="M56.252 24C57.0804 24 57.752 23.3284 57.752 22.5C57.752 21.6716 57.0804 21 56.252 21C55.4235 21 54.752 21.6716 54.752 22.5C54.752 23.3284 55.4235 24 56.252 24Z" fill="black"/>
    <path d="M41.25 22.5H51.75" stroke="black" stroke-width="3" stroke-linecap="round" stroke-linejoin="round"/>
    <path d="M51.0015 36H42.7515" stroke="black" stroke-width="3" stroke-linecap="round" stroke-linejoin="round"/>
    <path d="M11.25 27.7461H3.75" stroke="black" stroke-width="3" stroke-linecap="round" stroke-linejoin="round"/>
    <path d="M11.25 36.75H7.5" stroke="black" stroke-width="3" stroke-linecap="round" stroke-linejoin="round"/>
    <path d="M14.252 23.2461H6.00195" stroke="black" stroke-width="3" stroke-linecap="round" stroke-linejoin="round"/>
    <path d="M14.25 32.25H11.25" stroke="black" stroke-width="3" stroke-linecap="round" stroke-linejoin="round"/>
    <path d="M6.75098 32.25H4.50098" stroke="black" stroke-width="3" stroke-linecap="round" stroke-linejoin="round"/>
    <path d="M32.1694 27.8328L32.2284 27.823C33.424 27.6237 34.5101 27.0068 35.2935 26.0819C36.0769 25.1571 36.5069 23.9844 36.5069 22.7723M30.0006 26.9344L30.0354 26.8858C30.7399 25.8995 31.0716 24.6952 30.9717 23.4873C30.8717 22.2794 30.3465 21.1461 29.4894 20.2891M27.8318 27.8328L27.822 27.7738C27.6227 26.5782 27.0058 25.4921 26.081 24.7086C25.1561 23.9252 23.9834 23.4952 22.7713 23.4952M26.9335 30.0016L26.8848 29.9668C25.8985 29.2623 24.6943 28.9305 23.4863 29.0305C22.2784 29.1305 21.1451 29.6557 20.2881 30.5128M27.8318 32.1703L27.7728 32.1802C26.5772 32.3794 25.4911 32.9964 24.7077 33.9212C23.9242 34.846 23.4943 36.0188 23.4943 37.2308M30.0006 33.0691L29.9658 33.1177C29.2613 34.104 28.9295 35.3083 29.0295 36.5162C29.1295 37.7241 29.6547 38.8574 30.5118 39.7144M32.1694 32.1703L32.1792 32.2294C32.3785 33.4249 32.9954 34.511 33.9202 35.2945C34.845 36.0779 36.0178 36.5079 37.2298 36.5079M33.0681 30.0016L33.1168 30.0364C34.103 30.7409 35.3073 31.0726 36.5152 30.9726C37.7231 30.8727 38.8564 30.3474 39.7135 29.4904" stroke="black" stroke-width="3" stroke-linejoin="round"/>
</svg>
