<svg width="64" height="64" viewBox="0 0 64 64" fill="none" xmlns="http://www.w3.org/2000/svg">
<path d="M44.0008 16.7969H20.0008C18.2335 16.7969 16.8008 18.2296 16.8008 19.9969V43.9969C16.8008 45.7642 18.2335 47.1969 20.0008 47.1969H44.0008C45.7681 47.1969 47.2008 45.7642 47.2008 43.9969V19.9969C47.2008 18.2296 45.7681 16.7969 44.0008 16.7969Z" fill="#76D1FF"/>
<path d="M44.0016 16.7969L37.6096 16.8007C38.8811 16.8028 40.0999 17.3094 40.9983 18.2092C41.8967 19.1091 42.4014 20.3286 42.4016 21.6002V42.3969C42.4016 43.6699 41.8959 44.8908 40.9957 45.791C40.0955 46.6912 38.8746 47.1969 37.6016 47.1969H44.0016C44.4218 47.197 44.838 47.1143 45.2263 46.9535C45.6146 46.7928 45.9674 46.557 46.2646 46.2599C46.5617 45.9627 46.7974 45.6099 46.9582 45.2216C47.119 44.8333 47.2017 44.4171 47.2016 43.9969V19.9969C47.2017 19.5766 47.119 19.1604 46.9582 18.7722C46.7974 18.3839 46.5617 18.031 46.2646 17.7339C45.9674 17.4367 45.6146 17.201 45.2263 17.0402C44.838 16.8795 44.4218 16.7968 44.0016 16.7969Z" fill="#5AC0E0"/>
<path d="M32.0016 42.3977C37.7453 42.3977 42.4016 37.7414 42.4016 31.9977C42.4016 26.2539 37.7453 21.5977 32.0016 21.5977C26.2578 21.5977 21.6016 26.2539 21.6016 31.9977C21.6016 37.7414 26.2578 42.3977 32.0016 42.3977Z" fill="#777777"/>
<path d="M32.0025 35.2706C33.8095 35.2706 35.2745 33.8056 35.2745 31.9986C35.2745 30.1915 33.8095 28.7266 32.0025 28.7266C30.1954 28.7266 28.7305 30.1915 28.7305 31.9986C28.7305 33.8056 30.1954 35.2706 32.0025 35.2706Z" fill="#3A3A3A"/>
<path d="M44.0008 16.7969H20.0008C18.2335 16.7969 16.8008 18.2296 16.8008 19.9969V43.9969C16.8008 45.7642 18.2335 47.1969 20.0008 47.1969H44.0008C45.7681 47.1969 47.2008 45.7642 47.2008 43.9969V19.9969C47.2008 18.2296 45.7681 16.7969 44.0008 16.7969Z" stroke="black" stroke-width="3.2" stroke-linecap="round" stroke-linejoin="round"/>
<path d="M32.0016 42.3977C37.7453 42.3977 42.4016 37.7414 42.4016 31.9977C42.4016 26.2539 37.7453 21.5977 32.0016 21.5977C26.2578 21.5977 21.6016 26.2539 21.6016 31.9977C21.6016 37.7414 26.2578 42.3977 32.0016 42.3977Z" stroke="black" stroke-width="3.2" stroke-linecap="round" stroke-linejoin="round"/>
<path d="M32.0025 35.2706C33.8095 35.2706 35.2745 33.8056 35.2745 31.9986C35.2745 30.1915 33.8095 28.7266 32.0025 28.7266C30.1954 28.7266 28.7305 30.1915 28.7305 31.9986C28.7305 33.8056 30.1954 35.2706 32.0025 35.2706Z" stroke="black" stroke-width="3.2" stroke-linecap="round" stroke-linejoin="round"/>
<path d="M59.2008 33.5977H56.8008" stroke="black" stroke-width="3.2" stroke-linecap="round" stroke-linejoin="round"/>
<path d="M52.0023 28.7969H46.4023" stroke="black" stroke-width="3.2" stroke-linecap="round" stroke-linejoin="round"/>
<path d="M56.8031 30.3992C57.6868 30.3992 58.4031 29.6829 58.4031 28.7992C58.4031 27.9156 57.6868 27.1992 56.8031 27.1992C55.9195 27.1992 55.2031 27.9156 55.2031 28.7992C55.2031 29.6829 55.9195 30.3992 56.8031 30.3992Z" fill="black"/>
<path d="M52.0023 35.2C52.886 35.2 53.6023 34.4837 53.6023 33.6C53.6023 32.7163 52.886 32 52.0023 32C51.1187 32 50.4023 32.7163 50.4023 33.6C50.4023 34.4837 51.1187 35.2 52.0023 35.2Z" fill="black"/>
<path d="M59.2016 39.9969C60.0852 39.9969 60.8016 39.2805 60.8016 38.3969C60.8016 37.5132 60.0852 36.7969 59.2016 36.7969C58.3179 36.7969 57.6016 37.5132 57.6016 38.3969C57.6016 39.2805 58.3179 39.9969 59.2016 39.9969Z" fill="black"/>
<path d="M60.0023 25.5984C60.886 25.5984 61.6023 24.8821 61.6023 23.9984C61.6023 23.1148 60.886 22.3984 60.0023 22.3984C59.1187 22.3984 58.4023 23.1148 58.4023 23.9984C58.4023 24.8821 59.1187 25.5984 60.0023 25.5984Z" fill="black"/>
<path d="M44 24H55.2" stroke="black" stroke-width="3.2" stroke-linecap="round" stroke-linejoin="round"/>
<path d="M54.4016 38.3984H45.6016" stroke="black" stroke-width="3.2" stroke-linecap="round" stroke-linejoin="round"/>
<path d="M12 29.5977H4" stroke="black" stroke-width="3.2" stroke-linecap="round" stroke-linejoin="round"/>
<path d="M12 39.1992H8" stroke="black" stroke-width="3.2" stroke-linecap="round" stroke-linejoin="round"/>
<path d="M15.2023 24.7969H6.40234" stroke="black" stroke-width="3.2" stroke-linecap="round" stroke-linejoin="round"/>
<path d="M15.2 34.3984H12" stroke="black" stroke-width="3.2" stroke-linecap="round" stroke-linejoin="round"/>
<path d="M7.20078 34.3984H4.80078" stroke="black" stroke-width="3.2" stroke-linecap="round" stroke-linejoin="round"/>
<path d="M34.314 29.6873L34.3769 29.6768C35.6522 29.4642 36.8107 28.8062 37.6464 27.8197C38.4821 26.8332 38.9407 25.5823 38.9407 24.2894M32.0006 28.729L32.0377 28.6771C32.7892 27.6251 33.1431 26.3406 33.0364 25.0521C32.9298 23.7636 32.3695 22.5548 31.4553 21.6406M29.6873 29.6873L29.6768 29.6243C29.4642 28.349 28.8062 27.1905 27.8197 26.3548C26.8332 25.5192 25.5823 25.0605 24.2894 25.0605M28.729 32.0006L28.6771 31.9635C27.6251 31.212 26.3406 30.8582 25.0521 30.9648C23.7636 31.0714 22.5548 31.6317 21.6406 32.5459M29.6873 34.314L29.6243 34.3245C28.349 34.537 27.1905 35.1951 26.3548 36.1815C25.5192 37.168 25.0605 38.419 25.0605 39.7118M32.0006 35.2726L31.9635 35.3245C31.212 36.3766 30.8582 37.6611 30.9648 38.9495C31.0714 40.238 31.6317 41.4468 32.5459 42.361M34.314 34.314L34.3245 34.3769C34.537 35.6522 35.1951 36.8107 36.1815 37.6464C37.168 38.4821 38.419 38.9407 39.7118 38.9407M35.2726 32.0006L35.3245 32.0377C36.3766 32.7892 37.6611 33.1431 38.9495 33.0364C40.238 32.9298 41.4468 32.3695 42.361 31.4553" stroke="black" stroke-width="3.2" stroke-linejoin="round"/>
</svg>
