<svg width="64" height="64" viewBox="0 0 64 64" fill="none" xmlns="http://www.w3.org/2000/svg">
<g id="car-keys" clipPath="url(#clip0_8235_93295)">
<path id="Vector" d="M17.2111 64.0019L17.4611 63.7919L21.0211 60.7719V58.9519L19.0011 57.2619L21.0211 55.5819V54.3619L18.1011 52.6719L21.0211 50.9819V49.7619L19.1911 48.0919L21.0211 46.4019V45.1819L18.1011 43.4919L21.0211 41.8119V40.5919L19.0011 38.8819L21.0211 37.1919V35.7119C25.5511 34.1419 28.8111 29.8319 28.8111 24.7719C28.8155 22.9886 28.4059 21.2286 27.6146 19.6304C26.8234 18.0322 25.672 16.6395 24.2511 15.5619C22.3011 14.0619 19.8611 13.1719 17.2111 13.1719C14.3911 13.1719 11.7911 14.1819 9.78112 15.8619C9.65112 15.9619 9.52113 16.0719 9.39113 16.1919C9.38113 16.1919 9.37112 16.2019 9.36112 16.2219C9.28112 16.2919 9.20112 16.3719 9.12112 16.4519C9.00112 16.5719 8.89112 16.6919 8.79112 16.8119C6.74946 18.9624 5.61426 21.8165 5.62112 24.7819C5.62112 29.8519 8.87112 34.1419 13.4011 35.7219V60.7719L16.9611 63.7819L17.2111 64.0019Z" fill="#FFD15C"/>
<path id="Vector_2" d="M17.2098 24.7716C18.1131 24.7498 18.972 24.3758 19.6032 23.7293C20.2343 23.0828 20.5876 22.2151 20.5876 21.3116C20.5876 20.4081 20.2343 19.5404 19.6032 18.8939C18.972 18.2473 18.1131 17.8733 17.2098 17.8516C16.3066 17.8733 15.4476 18.2473 14.8165 18.8939C14.1853 19.5404 13.832 20.4081 13.832 21.3116C13.832 22.2151 14.1853 23.0828 14.8165 23.7293C15.4476 24.3758 16.3066 24.7498 17.2098 24.7716Z" fill="#F8B64C"/>
<path id="Vector_3" d="M17.2111 23.6488C18.5011 23.6488 19.5511 22.5988 19.5511 21.3088C19.5511 20.0188 18.5011 18.9688 17.2111 18.9688C15.9211 18.9688 14.8711 20.0188 14.8711 21.3088C14.8711 22.6088 15.9111 23.6488 17.2111 23.6488Z" fill="white"/>
<path id="Vector_4" d="M17.2092 64.0014L17.4592 63.7914V31.9414H16.9492V63.7814L17.2092 64.0014Z" fill="#F8B64C"/>
<path id="Vector_5" d="M9.2813 13.1605C9.2813 14.0905 9.4413 14.9905 9.7813 15.8605C9.4313 16.1505 9.0913 16.4705 8.7913 16.8005L8.7613 16.7205C8.2756 15.5967 8.02708 14.3847 8.0313 13.1605C8.0313 8.23047 12.0413 4.23047 16.9613 4.23047C18.2813 4.23047 19.5413 4.52047 20.6713 5.04047C21.2013 5.28047 21.7013 5.58047 22.1713 5.92047C23.6796 7.00687 24.8149 8.53334 25.4213 10.2905C24.9513 10.3705 24.4813 10.3405 24.0413 10.2105C23.555 9.07053 22.8043 8.06275 21.8513 7.27047C21.3513 6.86047 20.8113 6.52047 20.2313 6.24047C19.2413 5.77047 18.1413 5.51047 16.9713 5.51047C12.7213 5.49047 9.2813 8.94047 9.2813 13.1605ZM25.8913 13.1605C25.8913 14.2505 25.6913 15.3305 25.3013 16.3605C25.2913 16.3905 25.2813 16.4105 25.2713 16.4305C24.4264 18.5587 22.8032 20.2855 20.7313 21.2605C20.3413 21.4405 19.9613 21.5905 19.6013 21.6905C19.5713 21.7005 19.5513 21.7105 19.5213 21.7105C18.7113 21.9705 17.8513 22.1005 16.9613 22.1005C16.2713 22.1005 15.5813 22.0305 14.9413 21.8705C14.9213 21.8105 14.9113 21.7405 14.9013 21.6705C14.8813 21.5505 14.8713 21.4305 14.8713 21.3005C14.8713 21.1105 14.8913 20.9205 14.9413 20.7405C14.9613 20.6905 14.9713 20.6205 14.9913 20.5605C15.6213 20.7305 16.2913 20.8205 16.9613 20.8205C17.7913 20.8205 18.6013 20.6805 19.3913 20.4205H19.4013C19.7513 20.3005 20.0813 20.1705 20.4013 20.0005C22.1913 19.1105 23.5913 17.5005 24.2413 15.5905C24.2513 15.5705 24.2613 15.5505 24.2613 15.5305C24.6276 14.4021 24.7302 13.2047 24.5613 12.0305C24.6713 12.0405 24.7913 12.0405 24.9013 12.0405C25.2013 12.0405 25.5113 12.0105 25.8113 11.9505C25.8613 12.3605 25.8913 12.7605 25.8913 13.1605Z" fill="#DAD6D2"/>
<path id="Vector_6" d="M47.9691 11.9391C47.9391 12.2791 47.8691 12.6291 47.7591 12.9791C47.6491 13.3291 47.4891 13.6691 47.3091 13.9691C47.5191 14.3791 47.6391 14.8391 47.6391 15.3291V23.5591C47.6391 25.2391 46.2691 26.6091 44.5891 26.6091C42.9091 26.6091 41.5391 25.2391 41.5391 23.5591V15.3291C41.5391 14.9491 41.6091 14.5891 41.7391 14.2491C41.9578 13.6701 42.3477 13.1715 42.8568 12.8196C43.3659 12.4677 43.9702 12.2791 44.5891 12.2791C45.1091 12.2791 45.5991 12.4091 46.0291 12.6491C46.0591 12.5791 46.0791 12.5191 46.0991 12.4491C46.1991 12.1491 46.2391 11.8291 46.2391 11.5291C46.2391 11.2891 46.2091 11.0391 46.1491 10.8091C45.6591 10.6391 45.1291 10.5391 44.5791 10.5391C43.3088 10.5396 42.0908 11.0444 41.1926 11.9426C40.2944 12.8408 39.7896 14.0588 39.7891 15.3291V23.5591C39.7891 26.1991 41.9391 28.3491 44.5791 28.3491C47.2191 28.3491 49.3691 26.1991 49.3691 23.5591V15.3291C49.3791 14.0091 48.8491 12.8091 47.9691 11.9391Z" fill="#505050"/>
<path id="Vector_7" d="M44.6598 6.96104L37.5198 4.68104L36.8198 4.45104C36.4598 4.34104 36.0898 4.27104 35.7298 4.24104C33.5698 4.07104 31.4798 5.41104 30.7998 7.56104C30.6798 7.93104 30.6098 8.30104 30.5898 8.66104L32.4698 8.07104C32.8898 6.79104 34.0798 5.97104 35.3698 5.97104C35.4298 5.97104 35.4898 5.97104 35.5498 5.98104C35.7998 5.99104 36.0498 6.04104 36.2998 6.12104L37.2398 6.42104L44.1398 8.63104C45.1898 8.97104 45.9298 9.82104 46.1698 10.821C46.1698 10.841 46.1798 10.871 46.1898 10.891C46.1998 10.941 46.2098 11.001 46.2198 11.061L46.2498 11.271V11.321C46.2498 11.391 46.2598 11.471 46.2598 11.541C46.2598 11.841 46.2098 12.161 46.1198 12.461C46.0998 12.531 46.0698 12.591 46.0498 12.661C45.7661 13.3796 45.2198 13.9633 44.5215 14.2939C43.8233 14.6244 43.0254 14.6771 42.2898 14.441L41.7598 14.271C41.6298 14.611 41.5598 14.971 41.5598 15.351V16.041L41.7598 16.101C42.2398 16.261 42.7398 16.331 43.2098 16.331C44.2198 16.331 45.1998 16.001 46.0098 15.421C46.5398 15.041 46.9898 14.561 47.3298 13.981C47.3998 13.881 47.4498 13.771 47.4998 13.651C47.5498 13.561 47.5898 13.481 47.6298 13.381L47.6598 13.321C47.6998 13.211 47.7398 13.101 47.7798 12.981C47.8098 12.881 47.8398 12.781 47.8598 12.681C47.8698 12.641 47.8798 12.601 47.8898 12.551C47.9098 12.461 47.9298 12.371 47.9398 12.281C47.9598 12.171 47.9698 12.051 47.9798 11.941C48.0685 10.8583 47.7888 9.77736 47.1862 8.87345C46.5836 7.96954 45.6934 7.29566 44.6598 6.96104ZM32.4498 9.91104L30.7898 10.431C31.0139 11.169 31.414 11.8413 31.9558 12.3901C32.4977 12.9389 33.1648 13.3476 33.8998 13.581L39.7998 15.471V15.331C39.7998 14.771 39.8998 14.231 40.0798 13.721L34.4298 11.921C33.4398 11.611 32.7298 10.841 32.4498 9.91104Z" fill="#666666"/>
<path id="Vector_8" d="M36.29 6.11989L37.23 6.41989C36.9821 7.11157 36.5779 7.7367 36.0489 8.24664C35.5199 8.75657 34.8803 9.13754 34.18 9.35989L32.45 9.90989L30.79 10.4299L26.34 11.8399C25.86 11.9899 25.37 12.0599 24.9 12.0599C22.87 12.0599 20.97 10.7599 20.33 8.71989C20.07 7.89989 20.03 7.03989 20.22 6.22989C20.8 6.49989 21.35 6.84989 21.84 7.25989C21.84 7.57989 21.89 7.89989 21.98 8.20989C22.3 9.20989 23.09 9.92989 24.03 10.2099C24.1 10.2399 24.16 10.2499 24.23 10.2599C24.29 10.2799 24.35 10.2899 24.41 10.2999C24.47 10.3099 24.52 10.3199 24.58 10.3199C24.68 10.3299 24.78 10.3399 24.88 10.3399C24.97 10.3399 25.05 10.3399 25.14 10.3299C25.22 10.3299 25.31 10.3099 25.39 10.2999H25.4C25.54 10.2799 25.67 10.2399 25.8 10.1999L30.58 8.67989L32.46 8.08989L33.65 7.70989C34.0707 7.57695 34.4575 7.35433 34.7838 7.05738C35.1101 6.76043 35.3681 6.39622 35.54 5.98989C35.79 5.98989 36.04 6.03989 36.29 6.11989ZM22.16 5.90989C21.69 5.56989 21.19 5.26989 20.66 5.02989C21.2422 3.91626 22.2418 3.07852 23.44 2.69989L31.29 0.209888C32.51 -0.170112 33.81 -0.0601118 34.94 0.529888C36.08 1.11989 36.91 2.10989 37.3 3.32989C37.44 3.76989 37.51 4.21989 37.52 4.66989L36.82 4.43989C36.46 4.32989 36.09 4.25989 35.73 4.22989C35.7095 4.10444 35.6794 3.98074 35.64 3.85989C35.3948 3.0889 34.8541 2.44652 34.1362 2.07351C33.4183 1.7005 32.5818 1.62728 31.81 1.86989L23.96 4.34989C23.18 4.58989 22.55 5.12989 22.17 5.84989C22.18 5.87989 22.17 5.89989 22.16 5.90989Z" fill="#505050"/>
<path id="Vector_9" d="M57.7408 31.0893L49.3808 22.7893L47.6408 21.0593L46.4308 19.8593C45.9414 19.3739 45.28 19.1016 44.5908 19.1016C43.9015 19.1016 43.2402 19.3739 42.7508 19.8593L41.5408 21.0593V23.5593C41.5408 23.9493 41.6108 24.3193 41.7508 24.6593C42.0344 24.1555 42.4468 23.7362 42.9459 23.4444C43.445 23.1526 44.0127 22.9988 44.5908 22.9988C45.1689 22.9988 45.7366 23.1526 46.2357 23.4444C46.7347 23.7362 47.1472 24.1555 47.4308 24.6593C47.7008 25.1293 47.8608 25.6793 47.8608 26.2693C47.8608 26.5893 47.8108 26.8993 47.7208 27.1893C47.5205 27.8643 47.1077 28.4567 46.5438 28.8783C45.9799 29.2999 45.2949 29.5282 44.5908 29.5293C43.8867 29.5282 43.2017 29.2999 42.6378 28.8783C42.0738 28.4567 41.661 27.8643 41.4608 27.1893C40.9414 26.7396 40.5245 26.1837 40.2382 25.5593C39.9518 24.9348 39.8027 24.2562 39.8008 23.5693V22.7893L31.4408 31.0893C31.0308 31.4993 30.8008 32.0593 30.8008 32.6393V61.2093C30.8008 62.1693 31.5808 62.9493 32.5408 62.9493H56.6408C57.6008 62.9493 58.3808 62.1693 58.3808 61.2093V32.6393C58.3908 32.0593 58.1608 31.4993 57.7408 31.0893Z" fill="#3AB7FC"/>
<path id="Vector_10" d="M35.3086 38.8984H53.8786V58.8184H35.3086V38.8984Z" fill="white"/>
</g>
<defs>
<clipPath id="clip0_8235_93295">
<rect width="64" height="64" fill="white"/>
</clipPath>
</defs>
</svg>
