<svg width="60" height="60" viewBox="0 0 60 60" fill="none" xmlns="http://www.w3.org/2000/svg">
<path d="M41.7188 57.1875H7.03125C5.7368 57.1875 4.6875 56.1382 4.6875 54.8438V8.90625C4.6875 7.6118 5.7368 6.5625 7.03125 6.5625H41.7188C43.0132 6.5625 44.0625 7.6118 44.0625 8.90625V54.8438C44.0625 56.1382 43.0132 57.1875 41.7188 57.1875Z" fill="#E3BF64"/>
<path d="M40.3125 10.3125H8.4375V53.4375H40.3125V10.3125Z" fill="#EFFAFF"/>
<path d="M31.7075 12.1875H17.0425C15.3967 12.1875 14.0625 10.8533 14.0625 9.20754V3.98438C14.0625 3.33715 14.5871 2.8125 15.2344 2.8125H33.5156C34.1629 2.8125 34.6875 3.33715 34.6875 3.98438V9.20754C34.6875 10.8533 33.3533 12.1875 31.7075 12.1875Z" fill="#529BDE"/>
<path d="M24.375 6.5625C25.4105 6.5625 26.25 5.72303 26.25 4.6875C26.25 3.65197 25.4105 2.8125 24.375 2.8125C23.3395 2.8125 22.5 3.65197 22.5 4.6875C22.5 5.72303 23.3395 6.5625 24.375 6.5625Z" fill="#284B6C"/>
<path d="M16.875 20.625H13.125C12.6073 20.625 12.1875 20.2052 12.1875 19.6875V15.9375C12.1875 15.4198 12.6073 15 13.125 15H16.875C17.3927 15 17.8125 15.4198 17.8125 15.9375V19.6875C17.8125 20.2052 17.3927 20.625 16.875 20.625ZM14.0625 18.75H15.9375V16.875H14.0625V18.75Z" fill="#E0625C"/>
<path d="M28.125 16.875H20.625C20.1073 16.875 19.6875 16.4552 19.6875 15.9375C19.6875 15.4198 20.1073 15 20.625 15H28.125C28.6427 15 29.0625 15.4198 29.0625 15.9375C29.0625 16.4552 28.6427 16.875 28.125 16.875ZM36.5625 20.625H20.625C20.1073 20.625 19.6875 20.2052 19.6875 19.6875C19.6875 19.1698 20.1073 18.75 20.625 18.75H36.5625C37.0802 18.75 37.5 19.1698 37.5 19.6875C37.5 20.2052 37.0802 20.625 36.5625 20.625Z" fill="#294D6E"/>
<path d="M16.875 28.125H13.125C12.6073 28.125 12.1875 27.7052 12.1875 27.1875V23.4375C12.1875 22.9198 12.6073 22.5 13.125 22.5H16.875C17.3927 22.5 17.8125 22.9198 17.8125 23.4375V27.1875C17.8125 27.7052 17.3927 28.125 16.875 28.125ZM14.0625 26.25H15.9375V24.375H14.0625V26.25Z" fill="#E0625C"/>
<path d="M28.125 24.375H20.625C20.1073 24.375 19.6875 23.9552 19.6875 23.4375C19.6875 22.9198 20.1073 22.5 20.625 22.5H28.125C28.6427 22.5 29.0625 22.9198 29.0625 23.4375C29.0625 23.9552 28.6427 24.375 28.125 24.375ZM36.5625 28.125H20.625C20.1073 28.125 19.6875 27.7052 19.6875 27.1875C19.6875 26.6698 20.1073 26.25 20.625 26.25H36.5625C37.0802 26.25 37.5 26.6698 37.5 27.1875C37.5 27.7052 37.0802 28.125 36.5625 28.125Z" fill="#294D6E"/>
<path d="M16.875 35.625H13.125C12.6073 35.625 12.1875 35.2052 12.1875 34.6875V30.9375C12.1875 30.4198 12.6073 30 13.125 30H16.875C17.3927 30 17.8125 30.4198 17.8125 30.9375V34.6875C17.8125 35.2052 17.3927 35.625 16.875 35.625ZM14.0625 33.75H15.9375V31.875H14.0625V33.75Z" fill="#E0625C"/>
<path d="M28.125 31.875H20.625C20.1073 31.875 19.6875 31.4552 19.6875 30.9375C19.6875 30.4198 20.1073 30 20.625 30H28.125C28.6427 30 29.0625 30.4198 29.0625 30.9375C29.0625 31.4552 28.6427 31.875 28.125 31.875ZM36.5625 35.625H20.625C20.1073 35.625 19.6875 35.2052 19.6875 34.6875C19.6875 34.1698 20.1073 33.75 20.625 33.75H36.5625C37.0802 33.75 37.5 34.1698 37.5 34.6875C37.5 35.2052 37.0802 35.625 36.5625 35.625Z" fill="#294D6E"/>
<path d="M16.875 43.125H13.125C12.6073 43.125 12.1875 42.7052 12.1875 42.1875V38.4375C12.1875 37.9198 12.6073 37.5 13.125 37.5H16.875C17.3927 37.5 17.8125 37.9198 17.8125 38.4375V42.1875C17.8125 42.7052 17.3927 43.125 16.875 43.125ZM14.0625 41.25H15.9375V39.375H14.0625V41.25Z" fill="#E0625C"/>
<path d="M28.125 39.375H20.625C20.1073 39.375 19.6875 38.9552 19.6875 38.4375C19.6875 37.9198 20.1073 37.5 20.625 37.5H28.125C28.6427 37.5 29.0625 37.9198 29.0625 38.4375C29.0625 38.9552 28.6427 39.375 28.125 39.375ZM30.1632 43.125H20.625C20.1073 43.125 19.6875 42.7052 19.6875 42.1875C19.6875 41.6698 20.1073 41.25 20.625 41.25H30.1632C30.681 41.25 31.1007 41.6698 31.1007 42.1875C31.1007 42.7052 30.681 43.125 30.1632 43.125Z" fill="#294D6E"/>
<path d="M33.0664 42.1277C33.0652 40.4298 33.7385 38.8011 34.9381 37.5997L52.2751 20.2376C53.0068 19.5048 54.194 19.504 54.9267 20.2357C55.6595 20.9675 55.6603 22.1546 54.9286 22.8873L37.5917 40.2494C36.3921 41.4508 34.7642 42.1265 33.0664 42.1277Z" fill="#529BDE"/>
<path d="M52.2786 25.5409L49.625 22.8912L52.2747 20.2376C53.0064 19.5048 54.1937 19.504 54.9263 20.2357C55.6591 20.9675 55.6599 22.1546 54.9282 22.8873L52.2786 25.5409Z" fill="#E0625C"/>
<path d="M46.3212 36.4254C46.0241 36.4254 45.7321 36.2846 45.55 36.0221C45.2549 35.5966 45.3607 35.0125 45.7862 34.7174L50.5477 31.4159C51.2746 30.9119 51.7367 30.1176 51.8155 29.2364C51.8944 28.3553 51.5806 27.4915 50.9546 26.8666C50.5882 26.5007 50.5878 25.907 50.9536 25.5408C51.3195 25.1742 51.913 25.1739 52.2795 25.5398C53.3 26.5587 53.8116 27.9671 53.6832 29.4035C53.5546 30.8399 52.8013 32.1351 51.6161 32.9567L46.8546 36.2582C46.6916 36.3712 46.5055 36.4254 46.3212 36.4254Z" fill="#E0625C"/>
<path d="M53.6013 25.5411L49.6211 21.5664L46.9713 24.2199L50.9515 28.1946L53.6013 25.5411Z" fill="#294D6E"/>
<path d="M16.875 15H13.125C12.6073 15 12.1875 15.4198 12.1875 15.9375V19.6875C12.1875 20.2052 12.6073 20.625 13.125 20.625H16.875C17.3927 20.625 17.8125 20.2052 17.8125 19.6875V15.9375C17.8125 15.4198 17.3927 15 16.875 15ZM15.9375 18.75H14.0625V16.875H15.9375V18.75ZM20.625 16.875H28.125C28.6427 16.875 29.0625 16.4552 29.0625 15.9375C29.0625 15.4198 28.6427 15 28.125 15H20.625C20.1073 15 19.6875 15.4198 19.6875 15.9375C19.6875 16.4552 20.1073 16.875 20.625 16.875ZM20.625 20.625H36.5625C37.0802 20.625 37.5 20.2052 37.5 19.6875C37.5 19.1698 37.0802 18.75 36.5625 18.75H20.625C20.1073 18.75 19.6875 19.1698 19.6875 19.6875C19.6875 20.2052 20.1073 20.625 20.625 20.625ZM16.875 22.5H13.125C12.6073 22.5 12.1875 22.9198 12.1875 23.4375V27.1875C12.1875 27.7052 12.6073 28.125 13.125 28.125H16.875C17.3927 28.125 17.8125 27.7052 17.8125 27.1875V23.4375C17.8125 22.9198 17.3927 22.5 16.875 22.5ZM15.9375 26.25H14.0625V24.375H15.9375V26.25ZM20.625 24.375H28.125C28.6427 24.375 29.0625 23.9552 29.0625 23.4375C29.0625 22.9198 28.6427 22.5 28.125 22.5H20.625C20.1073 22.5 19.6875 22.9198 19.6875 23.4375C19.6875 23.9552 20.1073 24.375 20.625 24.375ZM36.5625 26.25H20.625C20.1073 26.25 19.6875 26.6698 19.6875 27.1875C19.6875 27.7052 20.1073 28.125 20.625 28.125H36.5625C37.0802 28.125 37.5 27.7052 37.5 27.1875C37.5 26.6698 37.0802 26.25 36.5625 26.25ZM16.875 30H13.125C12.6073 30 12.1875 30.4198 12.1875 30.9375V34.6875C12.1875 35.2052 12.6073 35.625 13.125 35.625H16.875C17.3927 35.625 17.8125 35.2052 17.8125 34.6875V30.9375C17.8125 30.4198 17.3927 30 16.875 30ZM15.9375 33.75H14.0625V31.875H15.9375V33.75ZM28.125 30H20.625C20.1073 30 19.6875 30.4198 19.6875 30.9375C19.6875 31.4552 20.1073 31.875 20.625 31.875H28.125C28.6427 31.875 29.0625 31.4552 29.0625 30.9375C29.0625 30.4198 28.6427 30 28.125 30ZM16.875 37.5H13.125C12.6073 37.5 12.1875 37.9198 12.1875 38.4375V42.1875C12.1875 42.7052 12.6073 43.125 13.125 43.125H16.875C17.3927 43.125 17.8125 42.7052 17.8125 42.1875V38.4375C17.8125 37.9198 17.3927 37.5 16.875 37.5ZM15.9375 41.25H14.0625V39.375H15.9375V41.25ZM20.625 39.375H28.125C28.6427 39.375 29.0625 38.9552 29.0625 38.4375C29.0625 37.9198 28.6427 37.5 28.125 37.5H20.625C20.1073 37.5 19.6875 37.9198 19.6875 38.4375C19.6875 38.9552 20.1073 39.375 20.625 39.375ZM19.6875 42.1875C19.6875 42.7052 20.1073 43.125 20.625 43.125H30.1632C30.681 43.125 31.1007 42.7052 31.1007 42.1875C31.1007 41.6698 30.681 41.25 30.1632 41.25H20.625C20.1073 41.25 19.6875 41.6698 19.6875 42.1875Z" fill="black"/>
<path d="M56.4132 21.5604C56.4128 20.8092 56.1197 20.103 55.588 19.5722C54.4907 18.4765 52.7064 18.4777 51.6105 19.5751L50.2857 20.9019C49.9194 20.5362 49.3257 20.5363 48.96 20.903L46.3103 23.5564C46.1345 23.7325 46.0359 23.9709 46.0362 24.2196C46.0364 24.4683 46.1353 24.7066 46.3112 24.8823L45 26.1953V8.90625C45 7.09699 43.528 5.625 41.7188 5.625H35.625V3.98438C35.625 2.82129 34.6787 1.875 33.5156 1.875H15.2344C14.0713 1.875 13.125 2.82129 13.125 3.98438V5.625H7.03125C5.22199 5.625 3.75 7.09699 3.75 8.90625V54.8438C3.75 56.653 5.22199 58.125 7.03125 58.125H41.7188C43.528 58.125 45 56.653 45 54.8438V34.1559L50.2914 28.857C50.4672 29.0325 50.7054 29.1311 50.9538 29.1311C51.2025 29.1308 51.4416 29.0319 51.6172 28.8559L51.8081 28.6648C51.8277 28.8534 51.831 29.0449 51.8138 29.2376C51.735 30.1187 51.2728 30.913 50.5459 31.417L45.7845 34.7186C45.3589 35.0136 45.2532 35.5977 45.5482 36.0232C45.7303 36.2857 46.0223 36.4266 46.3194 36.4266C46.5038 36.4266 46.69 36.3723 46.8529 36.2593L51.6143 32.9578C52.7994 32.1361 53.5528 30.8411 53.6814 29.4047C53.7516 28.6191 53.6291 27.8425 53.3378 27.133L54.267 26.2024C54.6328 25.8361 54.6323 25.2425 54.266 24.8767L55.5908 23.5499C56.1217 23.0182 56.4137 22.3118 56.4132 21.5604ZM49.6241 22.8912L52.2777 25.5409L50.9528 26.8677L48.2992 24.218L49.6241 22.8912ZM41.7188 7.5C42.4942 7.5 43.125 8.13082 43.125 8.90625V28.0731L41.25 29.9508V10.3125C41.25 9.79477 40.8302 9.375 40.3125 9.375H35.6208C35.6231 9.31945 35.625 9.26367 35.625 9.20754V7.5H41.7188ZM37.2027 34.0039C37.0351 33.8469 36.8104 33.75 36.5625 33.75H20.625C20.1073 33.75 19.6875 34.1698 19.6875 34.6875C19.6875 35.2052 20.1073 35.625 20.625 35.625H35.584L34.2736 36.9373C32.8884 38.3244 32.1264 40.1679 32.1278 42.1283C32.1279 42.3769 32.2269 42.6154 32.4028 42.791C32.5786 42.9666 32.8168 43.0651 33.0653 43.0651C35.0257 43.0636 36.8688 42.2989 38.254 40.9117L39.375 39.789V52.5H9.375V11.25H13.7011C14.3905 12.3737 15.6302 13.125 17.0425 13.125H31.7077C33.1199 13.125 34.3596 12.3737 35.049 11.25H39.375V31.8285L37.2027 34.0039ZM25.3125 4.6875C25.3125 5.20441 24.8919 5.625 24.375 5.625C23.8581 5.625 23.4375 5.20441 23.4375 4.6875C23.4375 4.17059 23.8581 3.75 24.375 3.75C24.8919 3.75 25.3125 4.17059 25.3125 4.6875ZM15 3.98438C15 3.85512 15.1051 3.75 15.2344 3.75H21.7238C21.6197 4.04344 21.5625 4.35891 21.5625 4.6875C21.5625 6.23824 22.8241 7.5 24.375 7.5C25.9259 7.5 27.1875 6.23824 27.1875 4.6875C27.1875 4.35891 27.1303 4.04344 27.0262 3.75H33.5156C33.6449 3.75 33.75 3.85512 33.75 3.98438V9.20754C33.75 10.3338 32.8338 11.25 31.7075 11.25H17.0425C15.9162 11.25 15 10.3338 15 9.20754V3.98438ZM43.125 54.8438C43.125 55.6192 42.4942 56.25 41.7188 56.25H7.03125C6.25582 56.25 5.625 55.6192 5.625 54.8438V8.90625C5.625 8.13082 6.25582 7.5 7.03125 7.5H13.125V9.20754C13.125 9.26367 13.1269 9.31934 13.1292 9.375H8.4375C7.91977 9.375 7.5 9.79477 7.5 10.3125V53.4375C7.5 53.9552 7.91977 54.375 8.4375 54.375H40.3125C40.8302 54.375 41.25 53.9552 41.25 53.4375V37.9113L43.125 36.0336V54.8438ZM36.9272 39.587C36.144 40.3712 35.1645 40.8882 34.0993 41.0923C34.3017 40.0267 34.8172 39.0465 35.6005 38.2622L47.6379 26.2073L48.9647 27.5323L36.9272 39.587ZM54.264 22.225L52.9392 23.5516L51.6124 22.2267L52.9373 20.8999C53.1202 20.7169 53.3604 20.6254 53.6007 20.6254C53.8406 20.6254 54.0805 20.7165 54.2632 20.899C54.4404 21.0759 54.5381 21.3114 54.5382 21.5617C54.5384 21.812 54.441 22.0478 54.264 22.225Z" fill="black"/>
</svg>
