<svg width="60" height="60" viewBox="0 0 60 60" fill="none" xmlns="http://www.w3.org/2000/svg">
    <path d="M50.1169 15.75L36.5625 7.5V1.875H29.0625V7.5C27.6329 8.3579 26.4498 9.57133 25.6284 11.0222C24.8069 12.473 24.3751 14.1118 24.375 15.7791V54.375C24.375 55.3696 24.7701 56.3234 25.4734 57.0266C26.1766 57.7299 27.1304 58.125 28.125 58.125H54.375C55.3696 58.125 56.3234 57.7299 57.0266 57.0266C57.7299 56.3234 58.125 55.3696 58.125 54.375V30C58.1253 27.1372 57.3888 24.3225 55.9863 21.8267C54.5837 19.331 52.5624 17.2383 50.1169 15.75ZM54.375 36.5625H50.625C50.0306 36.5625 49.442 36.4455 48.8928 36.218C48.3437 35.9906 47.8447 35.6572 47.4244 35.2369L41.6381 29.4506C41.2178 29.0303 40.8844 28.5313 40.657 27.9822C40.4295 27.433 40.3125 26.8444 40.3125 26.25V19.7813C40.3131 19.2611 40.4533 18.7505 40.7184 18.303C40.9836 17.8555 41.3641 17.4873 41.82 17.237C42.276 16.9866 42.7909 16.8632 43.3108 16.8797C43.8307 16.8962 44.3367 17.0519 44.7759 17.3306L48.0478 19.4128C49.9866 20.6467 51.5828 22.3496 52.6887 24.3641C53.7947 26.3786 54.3747 28.6394 54.375 30.9375V36.5625Z" fill="#A27EDC"/>
    <path d="M28.125 15.9375V40.3125H58.125V30C58.1253 27.1372 57.3888 24.3225 55.9863 21.8267C54.5837 19.331 52.5624 17.2383 50.1169 15.75L36.5625 7.5V1.875H32.8125V8.4375C29.9063 10.1822 28.125 12.5466 28.125 15.9375ZM40.3125 19.7813C40.3131 19.2611 40.4533 18.7505 40.7184 18.303C40.9836 17.8555 41.3641 17.4873 41.82 17.237C42.276 16.9866 42.7909 16.8632 43.3108 16.8797C43.8307 16.8962 44.3367 17.0519 44.7759 17.3306L48.0478 19.4128C49.9866 20.6467 51.5828 22.3496 52.6887 24.3641C53.7947 26.3786 54.3747 28.6394 54.375 30.9375V36.5625H50.625C50.0306 36.5625 49.442 36.4455 48.8928 36.218C48.3437 35.9906 47.8447 35.6572 47.4244 35.2369L41.6381 29.4506C41.2178 29.0303 40.8844 28.5313 40.657 27.9822C40.4295 27.433 40.3125 26.8444 40.3125 26.25V19.7813Z" fill="#AD91E2"/>
    <path d="M58.125 40.3125H24.375V53.4375H58.125V40.3125Z" fill="#E5796E"/>
    <path d="M58.1252 53.4375H28.6455C28.9718 54.0061 29.4421 54.4787 30.009 54.8079C30.576 55.137 31.2196 55.3111 31.8752 55.3125H57.993C58.0767 55.0069 58.1212 54.6918 58.1252 54.375V53.4375Z" fill="#AD91E2"/>
    <path d="M28.125 51.5625C28.1284 52.2227 28.308 52.87 28.6453 53.4375H58.125V40.3125H28.125V51.5625Z" fill="#F99893"/>
    <path d="M20.625 25.3125H11.25V29.0625H20.625V25.3125Z" fill="#B1E0C2"/>
    <path d="M13.125 25.3125L10.3125 18.75H4.6875V15H16.875L24.375 20.625L18.75 22.5V25.3125H13.125Z" fill="#F4CD60"/>
    <path d="M5.625 18.75C5.625 19.9143 5.35391 21.0627 4.8332 22.1041C4.3125 23.1455 3.55647 24.0514 2.625 24.75L1.875 25.3125H2.8125C4.55298 25.3125 6.22218 24.6211 7.45289 23.3904C8.6836 22.1597 9.375 20.4905 9.375 18.75H5.625ZM13.125 29.0625V31.185C13.1249 31.3923 13.0671 31.5954 12.9582 31.7717C12.8492 31.948 12.6934 32.0906 12.5081 32.1834C12.13 32.3723 11.812 32.6628 11.5898 33.0223C11.3675 33.3818 11.2499 33.7961 11.25 34.2188C11.2499 34.6414 11.3675 35.0557 11.5898 35.4152C11.812 35.7747 12.13 36.0652 12.5081 36.2541C12.6934 36.3469 12.8492 36.4895 12.9582 36.6658C13.0671 36.8421 13.1249 37.0452 13.125 37.2525C13.1252 37.6139 13.0316 37.9692 12.8535 38.2837C12.6754 38.5982 12.4188 38.8611 12.1088 39.0469L10.8487 39.8034C10.1134 40.2449 9.5049 40.8692 9.08236 41.6155C8.65982 42.3618 8.43766 43.2048 8.4375 44.0625V58.125H24.375V42.6422C24.375 40.1202 23.8783 37.6229 22.9132 35.2929C21.948 32.9629 20.5334 30.8458 18.75 29.0625H13.125Z" fill="#66AE85"/>
    <path d="M24.375 44.0625H8.4375V54.375H24.375V44.0625Z" fill="#DDB44E"/>
    <path d="M14.9616 29.0625H20.625V25.3125H14.8716C14.9986 26.5583 15.0287 27.8121 14.9616 29.0625Z" fill="#92CCA9"/>
    <path d="M14.8717 25.3125H18.7501V22.5L24.3751 20.625L16.8751 15H11.9673L13.6313 19.7147C14.2651 21.5249 14.6814 23.404 14.8717 25.3125Z" fill="#F4D37D"/>
    <path d="M14.4373 33.015C14.1988 34.0889 14.3813 35.2133 14.9473 36.1566C15.4814 37.0481 15.6741 38.1031 15.4897 39.1259C15.3052 40.1487 14.7561 41.0699 13.9442 41.7188C13.1949 42.3208 12.6495 43.1392 12.3823 44.0625H24.3748V42.6422C24.375 40.1202 23.8783 37.6228 22.9131 35.2928C21.948 32.9628 20.5333 30.8457 18.7498 29.0625H14.9614C14.8964 30.3922 14.7212 31.7143 14.4373 33.015Z" fill="#79BC94"/>
    <path d="M12.1875 45.375V50.8125C12.1875 51.7573 12.5628 52.6635 13.2309 53.3316C13.899 53.9997 14.8052 54.375 15.75 54.375H24.375V44.0625H12.3825C12.2553 44.4885 12.1896 44.9304 12.1875 45.375Z" fill="#F4CD60"/>
    <path d="M17.8125 50.625C20.9191 50.625 23.4375 49.7855 23.4375 48.75C23.4375 47.7145 20.9191 46.875 17.8125 46.875C14.7059 46.875 12.1875 47.7145 12.1875 48.75C12.1875 49.7855 14.7059 50.625 17.8125 50.625Z" fill="#FFE3A6"/>
    <path d="M13.2412 15C13.6865 16.2581 15.435 17.5903 17.7543 18.2934C19.0454 18.7137 20.4137 18.8418 21.7603 18.6684L16.875 15H13.2412Z" fill="#FFE3A6"/>
    <path d="M20.596 31.2422C20.2456 31.4758 19.9925 31.8293 19.8842 32.2364C19.776 32.6434 19.8201 33.076 20.0082 33.4528L21.242 35.9222C21.4529 36.3433 21.5626 36.8078 21.5626 37.2787C21.5628 38.0156 21.832 38.727 22.3197 39.2794C22.8074 39.8318 23.4799 40.1872 24.211 40.2787C23.8035 37.0057 22.5584 33.8932 20.596 31.2422Z" fill="#9DCEAA"/>
    <path d="M32.8125 25.3125C34.8836 25.3125 36.5625 22.7941 36.5625 19.6875C36.5625 16.5809 34.8836 14.0625 32.8125 14.0625C30.7414 14.0625 29.0625 16.5809 29.0625 19.6875C29.0625 22.7941 30.7414 25.3125 32.8125 25.3125Z" fill="#EF9F5E"/>
    <path d="M37.9583 11.7102C38.2743 12.0262 38.6513 12.2747 39.0664 12.4405L44.8714 14.7627C46.1198 15.2588 47.4985 15.3225 48.7873 14.9436L37.3226 7.96484C37.0284 8.57825 36.9316 9.26776 37.0454 9.93849C37.1592 10.6092 37.4782 11.2282 37.9583 11.7102Z" fill="#CABDF2"/>
    <path d="M36.5625 1.875H29.0625V7.5H36.5625V1.875Z" fill="#66AE85"/>
    <path d="M36.5625 1.875H31.875V7.5H36.5625V1.875Z" fill="#79BC94"/>
    <path d="M34.2188 24.8996C35.5132 24.8996 36.5625 22.5659 36.5625 19.6871C36.5625 16.8083 35.5132 14.4746 34.2188 14.4746C32.9243 14.4746 31.875 16.8083 31.875 19.6871C31.875 22.5659 32.9243 24.8996 34.2188 24.8996Z" fill="#F7AF79"/>
    <path d="M54.375 36.562H50.625C50.0306 36.5621 49.442 36.445 48.8928 36.2175C48.3437 35.9901 47.8447 35.6567 47.4244 35.2364L41.6381 29.4502C41.2178 29.0298 40.8844 28.5309 40.657 27.9817C40.4295 27.4325 40.3125 26.8439 40.3125 26.2495V19.7808C40.315 19.3461 40.4156 18.9177 40.6069 18.5273C39.9396 18.9803 39.3931 19.5895 39.015 20.3019C38.6369 21.0143 38.4387 21.8083 38.4375 22.6148V27.0117C38.4375 27.6619 38.5656 28.3057 38.8144 28.9063C39.0633 29.5069 39.428 30.0527 39.8878 30.5123L45.4078 36.0314C45.8729 36.4969 46.4252 36.8662 47.0331 37.1182C47.641 37.3701 48.2926 37.4997 48.9506 37.4995H55.3125L54.375 36.0933V36.562Z" fill="#A27EDC"/>
</svg>
