<svg width="60" height="60" viewBox="0 0 60 60" fill="none" xmlns="http://www.w3.org/2000/svg">
<g id="vacuum-cleaner" clipPath="url(#clip0_8534_29842)">
<path id="Vector" d="M58.5627 45.9367V9.49609C58.5627 8.75017 58.2664 8.0348 57.739 7.50736C57.2115 6.97991 56.4961 6.68359 55.7502 6.68359C51.1488 6.68375 46.6357 7.94707 42.7029 10.3359C38.77 12.7246 35.5685 16.1472 33.4471 20.2305C30.0687 26.6466 28.3113 33.7918 28.3283 41.043C28.3201 43.6264 28.5429 46.2054 28.994 48.7492C29.1858 49.8352 29.7545 50.8187 30.5998 51.5269C31.4451 52.235 32.5131 52.6225 33.6158 52.6211H51.8408C53.6171 52.6211 55.3212 51.9181 56.5807 50.6656C57.8402 49.4131 58.5528 47.713 58.5627 45.9367Z" fill="#2B8AFC" stroke="#13277E" stroke-width="2.8125" stroke-linecap="round" stroke-linejoin="round"/>
<path id="Vector_2" d="M50.268 55.8641C55.5958 55.8641 59.9148 51.545 59.9148 46.2172C59.9148 40.8894 55.5958 36.5703 50.268 36.5703C44.9401 36.5703 40.6211 40.8894 40.6211 46.2172C40.6211 51.545 44.9401 55.8641 50.268 55.8641Z" fill="#FFFAF0" stroke="#13277E" stroke-width="2.8125" stroke-linecap="round" stroke-linejoin="round"/>
<path id="Vector_3" d="M50.268 50.3836C52.5669 50.3836 54.4305 48.52 54.4305 46.2211C54.4305 43.9222 52.5669 42.0586 50.268 42.0586C47.9691 42.0586 46.1055 43.9222 46.1055 46.2211C46.1055 48.52 47.9691 50.3836 50.268 50.3836Z" fill="#EFD3B4" stroke="#13277E" stroke-width="2.8125" stroke-linecap="round" stroke-linejoin="round"/>
<path id="Vector_4" d="M9.42578 50.4953V10.3141C9.42578 8.65812 10.0836 7.06999 11.2545 5.89906C12.4255 4.72813 14.0136 4.07031 15.6695 4.07031C17.3263 4.07031 18.9154 4.72783 20.0878 5.89849C21.2603 7.06916 21.9202 8.65726 21.9227 10.3141V28.5109C21.9226 29.5085 22.2408 30.48 22.8309 31.2843C23.421 32.0885 24.2523 32.6836 25.2039 32.9828L28.8602 34.1547" stroke="#13277E" stroke-width="2.8125" stroke-linecap="round" stroke-linejoin="round"/>
<path id="Vector_5" d="M16.882 50.4961H1.95703C0.921497 50.4961 0.0820312 51.3356 0.0820312 52.3711V54.068C0.0820312 55.1035 0.921497 55.943 1.95703 55.943H16.882C17.9176 55.943 18.757 55.1035 18.757 54.068V52.3711C18.757 51.3356 17.9176 50.4961 16.882 50.4961Z" fill="#FFFAF0" stroke="#13277E" stroke-width="2.8125" stroke-linecap="round" stroke-linejoin="round"/>
</g>
<defs>
<clipPath id="clip0_8534_29842">
<rect width="60" height="60" fill="white"/>
</clipPath>
</defs>
</svg>
