<svg width="97" height="96" viewBox="0 0 97 96" fill="none" xmlns="http://www.w3.org/2000/svg">
<path d="M51.5 82.5H66.5V85.125C66.5 85.6223 66.3025 86.0992 65.9508 86.4508C65.5992 86.8025 65.1223 87 64.625 87H53.375C52.8777 87 52.4008 86.8025 52.0492 86.4508C51.6975 86.0992 51.5 85.6223 51.5 85.125V82.5Z" fill="#FED672"/>
<path d="M51.5 82.5V81.0743C51.5 80.2074 51.8004 79.3672 52.35 78.6968C52.8996 78.0264 53.6645 77.5671 54.5146 77.3971L59 76.5V72H66.5V82.5H51.5Z" fill="#FA5D3F"/>
<path d="M68 70.5H57.5V73.5H68V70.5Z" fill="#FED672"/>
<path d="M74 49.5V57H23V51.75C23.0007 51.1535 23.238 50.5816 23.6598 50.1598C24.0816 49.738 24.6535 49.5007 25.25 49.5H60.5V46.5H27.5V39H24.5V46.5535C23.2511 46.7354 22.1094 47.3605 21.2832 48.3145C20.457 49.2686 20.0016 50.488 20 51.75V87C20 87.3978 20.158 87.7794 20.4393 88.0607C20.7206 88.342 21.1022 88.5 21.5 88.5H75.5C75.8978 88.5 76.2794 88.342 76.5607 88.0607C76.842 87.7794 77 87.3978 77 87V49.5H74ZM23 85.5V60H74V85.5H23Z" fill="#2B8AFC"/>
<path d="M21.5 6H12.5V9H21.5V6Z" fill="#2B8AFC"/>
<path d="M86 5.99999H73.493C73.0673 5.10238 72.3956 4.344 71.5561 3.81295C70.7165 3.2819 69.7434 3 68.75 3C67.7566 3 66.7835 3.2819 65.9439 3.81295C65.1044 4.344 64.4327 5.10238 64.007 5.99999H42.5V8.99999H66.5V8.24999C66.5 7.69377 66.7061 7.15726 67.0784 6.74401C67.4507 6.33075 67.9629 6.07004 68.5161 6.01217C69.0693 5.95431 69.6243 6.10339 70.0741 6.43066C70.5238 6.75792 70.8364 7.24018 70.9516 7.78436L68.3287 11.0629C68.1159 11.3289 68 11.6594 68 12V18H71V12.5262L73.6713 9.18704C73.7185 9.128 73.7612 9.06547 73.799 8.99999H86V5.99999Z" fill="#2B8AFC"/>
<path d="M80.8223 19.1315C80.6251 18.5018 80.2648 17.9356 79.7779 17.4902C79.6179 17.191 79.3796 16.9408 79.0885 16.7664C78.7974 16.592 78.4644 16.5 78.125 16.5H60.875C60.5356 16.4999 60.2026 16.592 59.9115 16.7664C59.6204 16.9408 59.382 17.191 59.222 17.4902C58.7351 17.9356 58.3748 18.5018 58.1776 19.1315L51.5 40.5H59V51H80V40.5H87.5L80.8223 19.1315Z" fill="#FED672"/>
<path d="M75.5 43.5H71V46.5H75.5V43.5Z" fill="#F29A49"/>
<path d="M71.2393 22.0652L69.5 22.5L67.7607 22.0652C66.5437 21.7609 65.4634 21.0586 64.6913 20.0698C63.9193 19.0811 63.5 17.8626 63.5 16.6081V16.5H75.5V16.6081C75.5 17.8626 75.0807 19.0811 74.3087 20.0698C73.5366 21.0586 72.4563 21.7609 71.2393 22.0652Z" fill="#F29A49"/>
<path d="M14 10.5H8C7.20435 10.5 6.44129 10.1839 5.87868 9.62132C5.31607 9.05871 5 8.29565 5 7.5C5 6.70435 5.31607 5.94129 5.87868 5.37868C6.44129 4.81607 7.20435 4.5 8 4.5L14 4.5V10.5Z" fill="#F29A49"/>
<path d="M10.25 40.5L8.39394 43.8939L5 45.75L8.39394 47.6061L10.25 51L12.1061 47.6061L15.5 45.75L12.1061 43.8939L10.25 40.5Z" fill="#FED672"/>
<path d="M86.75 67.5L84.8939 70.8939L81.5 72.75L84.8939 74.6061L86.75 78L88.6061 74.6061L92 72.75L88.6061 70.8939L86.75 67.5Z" fill="#FED672"/>
<path d="M83 4.5H89C89.7956 4.5 90.5587 4.81607 91.1213 5.37868C91.6839 5.94129 92 6.70435 92 7.5C92 8.29565 91.6839 9.05871 91.1213 9.62132C90.5587 10.1839 89.7956 10.5 89 10.5H83V4.5Z" fill="#F29A49"/>
<path d="M77.75 93C76.7554 93 75.8016 92.6049 75.0983 91.9017C74.3951 91.1984 74 90.2446 74 89.25V85.5H77.75C78.7446 85.5 79.6984 85.8951 80.4017 86.5983C81.1049 87.3016 81.5 88.2554 81.5 89.25C81.5 90.2446 81.1049 91.1984 80.4017 91.9017C79.6984 92.6049 78.7446 93 77.75 93Z" fill="#F29A49"/>
<path d="M19.25 85.5H23V89.25C23 90.2446 22.6049 91.1984 21.9017 91.9017C21.1984 92.6049 20.2446 93 19.25 93C18.2554 93 17.3016 92.6049 16.5983 91.9017C15.8951 91.1984 15.5 90.2446 15.5 89.25C15.5 88.2554 15.8951 87.3016 16.5983 86.5983C17.3016 85.8951 18.2554 85.5 19.25 85.5Z" fill="#F29A49"/>
<path d="M21.875 4.5H43.625C44.1223 4.5 44.5992 4.69754 44.9508 5.04917C45.3025 5.40081 45.5 5.87772 45.5 6.375V40.5H20V6.375C20 5.87772 20.1975 5.40081 20.5492 5.04917C20.9008 4.69754 21.3777 4.5 21.875 4.5Z" fill="#79D8EB"/>
<path d="M45.5 28.5H20V34.5H45.5V28.5Z" fill="#FED672"/>
<path d="M29.375 55.5H43.625C44.1223 55.5 44.5992 55.6975 44.9508 56.0492C45.3025 56.4008 45.5 56.8777 45.5 57.375V79.5H27.5V57.375C27.5 56.8777 27.6975 56.4008 28.0492 56.0492C28.4008 55.6975 28.8777 55.5 29.375 55.5Z" fill="#F29A49"/>
<path d="M45.5 73.5H27.5V79.5H45.5V73.5Z" fill="#FED672"/>
<path d="M33.5 60H30.5V69H33.5V60Z" fill="#FED672"/>
</svg>
