<svg width="97" height="96" viewBox="0 0 97 96" fill="none" xmlns="http://www.w3.org/2000/svg">
<g id="clean-dishes">
<g id="&#60;Group&#62;">
<g id="&#60;Group&#62;_2">
<path id="&#60;Group&#62;_3" d="M84.9781 51.3656C85.7918 52.1791 86.7836 52.7921 87.875 53.1562C86.7835 53.5202 85.7917 54.1333 84.9781 54.9469C84.1645 55.7605 83.5515 56.7523 83.1875 57.8438C82.8234 56.7523 82.2103 55.7606 81.3968 54.947C80.5832 54.1334 79.5914 53.5203 78.5 53.1562C79.5915 52.7923 80.5833 52.1792 81.3969 51.3656C82.2105 50.552 82.8235 49.5602 83.1875 48.4688C83.5502 49.5608 84.1634 50.5529 84.9781 51.3656Z" fill="#FEDB41"/>
<path id="&#60;Group&#62;_4" d="M75.3256 60.9141C75.3255 64.7833 73.9961 68.5351 71.56 71.5413C69.1239 74.5474 65.729 76.6253 61.9437 77.4272L61.0775 77.5641C61.6173 76.6992 61.9026 75.6998 61.9006 74.6803H56.4294C57.5358 74.6805 58.6163 74.3452 59.5282 73.7185C60.4401 73.0918 61.1405 72.2033 61.5369 71.1703C63.6251 70.3877 65.4246 68.9863 66.6951 67.1536C67.9656 65.3209 68.6465 63.1441 68.6469 60.9141C68.6469 54.8691 64.4956 49.9697 58.4506 49.9697C56.455 49.941 54.5059 50.5725 52.9062 51.7659C54.6159 49.5386 55.7743 46.9384 56.2869 44.1778C58.6658 43.8709 61.0828 44.0745 63.3768 44.7751C65.6708 45.4757 67.7892 46.6572 69.5907 48.2409C71.3922 49.8245 72.8355 51.7739 73.8244 53.9592C74.8133 56.1445 75.3251 58.5154 75.3256 60.9141Z" fill="#2B8AFC"/>
<path id="&#60;Group&#62;_5" d="M68.6464 60.9141C68.6461 63.1441 67.9652 65.3209 66.6947 67.1536C65.4242 68.9863 63.6246 70.3877 61.5364 71.1703C61.7773 70.5439 61.9007 69.8784 61.9002 69.2072H56.4289C57.1474 69.2073 57.859 69.0659 58.5228 68.791C59.1867 68.5161 59.7899 68.1131 60.298 67.605C60.8061 67.0969 61.2091 66.4937 61.484 65.8299C61.7589 65.166 61.9003 64.4545 61.9002 63.7359H56.4289C57.1475 63.7359 57.8591 63.5942 58.523 63.3191C59.1869 63.044 59.7901 62.6409 60.2982 62.1326C60.8062 61.6244 61.2092 61.021 61.4841 60.3571C61.7589 59.6931 61.9003 58.9814 61.9002 58.2628H42.3008C46.5795 57.5559 50.3258 55.1372 52.9058 51.7659C54.5054 50.5724 56.4546 49.941 58.4502 49.9697C64.4952 49.9697 68.6464 54.8691 68.6464 60.9141Z" fill="#FEDB41"/>
<path id="&#60;Group&#62;_6" d="M42.2987 58.2598H61.898C61.8982 58.9784 61.7568 59.69 61.482 60.354C61.2071 61.018 60.8041 61.6213 60.2961 62.1296C59.788 62.6378 59.1848 63.041 58.5209 63.3161C57.857 63.5912 57.1454 63.7328 56.4268 63.7329H22.9712C21.5196 63.7328 20.1276 63.1561 19.1012 62.1297C18.0748 61.1034 17.4981 59.7113 17.498 58.2598H37.0974C38.8195 58.5448 40.5766 58.5448 42.2987 58.2598Z" fill="#00CEB4"/>
<path id="&#60;Group&#62;_7" d="M56.4268 63.7324H61.898C61.8982 64.451 61.7568 65.1625 61.4819 65.8264C61.207 66.4902 60.804 67.0934 60.2959 67.6015C59.7878 68.1096 59.1846 68.5126 58.5207 68.7875C57.8569 69.0624 57.1453 69.2038 56.4268 69.2037H22.9712C21.52 69.2036 20.1282 68.6272 19.1019 67.6012C18.0755 66.5752 17.4986 65.1836 17.498 63.7324H56.4268Z" fill="#00EFD1"/>
<path id="&#60;Group&#62;_8" d="M61.5343 71.1682C61.1379 72.2012 60.4375 73.0897 59.5256 73.7164C58.6137 74.343 57.5332 74.6784 56.4268 74.6782H22.9712C21.5196 74.6781 20.1276 74.1014 19.1012 73.0751C18.0748 72.0487 17.4981 70.6566 17.498 69.2051H61.898C61.8985 69.8763 61.7752 70.5418 61.5343 71.1682Z" fill="#00CEB4"/>
<path id="&#60;Group&#62;_9" d="M61.0749 77.5615C60.5856 78.3539 59.9015 79.0079 59.0879 79.4611C58.2743 79.9144 57.3582 80.1518 56.4268 80.1509H22.9712C21.5196 80.1508 20.1276 79.5741 19.1012 78.5477C18.0748 77.5213 17.4981 76.1293 17.498 74.6777H61.8981C61.9 75.6972 61.6147 76.6966 61.0749 77.5615Z" fill="#00EFD1"/>
<path id="&#60;Group&#62;_10" d="M56.2855 44.1778C55.7729 46.9384 54.6145 49.5386 52.9048 51.7659C50.3248 55.1372 46.5786 57.5559 42.2998 58.2628H37.0986C29.0136 56.9259 22.8242 49.4747 22.8242 41.0391C22.8242 36.5635 24.6021 32.2713 27.7668 29.1066C30.9315 25.942 35.2237 24.1641 39.6992 24.1641C44.1747 24.1641 48.467 25.942 51.6316 29.1066C54.7963 32.2713 56.5742 36.5635 56.5742 41.0391C56.5739 42.0919 56.4773 43.1426 56.2855 44.1778ZM50.6455 41.0391C50.6455 38.1362 49.4923 35.3522 47.4397 33.2996C45.387 31.2469 42.603 30.0938 39.7002 30.0938C36.7973 30.0938 34.0133 31.2469 31.9607 33.2996C29.908 35.3522 28.7548 38.1362 28.7548 41.0391C28.7548 47.0841 33.6542 51.4228 39.6992 51.4228C45.7442 51.4228 50.6455 47.0841 50.6455 41.0391Z" fill="#2B8AFC"/>
<path id="&#60;Group&#62;_11" d="M39.6983 30.0938C41.1356 30.0936 42.559 30.3766 43.8869 30.9266C45.2149 31.4765 46.4216 32.2826 47.4381 33.2989C48.4545 34.3152 49.2608 35.5217 49.811 36.8496C50.3612 38.1775 50.6444 39.6008 50.6445 41.0381C50.6445 47.0831 45.7433 51.4219 39.6983 51.4219C33.6533 51.4219 28.7539 47.0831 28.7539 41.0381C28.7538 39.6009 29.0368 38.1777 29.5868 36.8498C30.1368 35.5219 30.9429 34.3154 31.9592 33.2991C32.9755 32.2828 34.1821 31.4766 35.5099 30.9266C36.8378 30.3767 38.261 30.0937 39.6983 30.0938Z" fill="#FEDB41"/>
<path id="&#60;Group&#62;_12" d="M37.0977 58.2598H42.2989C40.5769 58.5448 38.8197 58.5448 37.0977 58.2598Z" fill="#2B8AFC"/>
<path id="&#60;Group&#62;_13" d="M24.14 19.2037C25.0832 20.1481 26.2337 20.8595 27.5 21.2812C26.234 21.7038 25.0837 22.415 24.14 23.3588C23.1963 24.3025 22.485 25.4528 22.0625 26.7187C21.6405 25.4525 20.9295 24.3018 19.9857 23.358C19.0419 22.4142 17.8913 21.7032 16.625 21.2812C17.891 20.8587 19.0413 20.1475 19.985 19.2037C20.9287 18.26 21.64 17.1097 22.0625 15.8438C22.4843 17.1101 23.1956 18.2605 24.14 19.2037ZM14.3075 50.0362C14.9581 50.6875 15.7516 51.178 16.625 51.4688C15.7518 51.7599 14.9584 52.2504 14.3075 52.9012C13.6566 53.5521 13.1662 54.3456 12.875 55.2188C12.5836 54.3457 12.0931 53.5523 11.4423 52.9015C10.7914 52.2506 9.99809 51.7601 9.125 51.4688C9.9982 51.1776 10.7916 50.6871 11.4425 50.0362C12.0934 49.3854 12.5838 48.5919 12.875 47.7188C13.1672 48.5915 13.6575 49.3847 14.3075 50.0362Z" fill="#FEDB41"/>
</g>
<g id="&#60;Group&#62;_14">
<path id="&#60;Compound Path&#62;" d="M27.9151 20.0361C26.8426 19.678 25.868 19.0754 25.0684 18.2759C24.2688 17.4764 23.6661 16.5019 23.3079 15.4294C23.2209 15.1679 23.0538 14.9404 22.8302 14.7792C22.6067 14.618 22.3381 14.5312 22.0625 14.5312C21.7869 14.5312 21.5183 14.618 21.2948 14.7792C21.0712 14.9404 20.9041 15.1679 20.8171 15.4294C20.459 16.5019 19.8563 17.4765 19.0567 18.276C18.2571 19.0756 17.2825 19.6782 16.2099 20.0363C15.9485 20.1234 15.7212 20.2905 15.5601 20.514C15.399 20.7374 15.3123 21.006 15.3123 21.2814C15.3123 21.5569 15.399 21.8254 15.5601 22.0489C15.7212 22.2724 15.9485 22.4395 16.2099 22.5266C17.2815 22.8864 18.2552 23.4896 19.0545 24.289C19.8538 25.0883 20.457 26.062 20.8168 27.1337C20.9038 27.3952 21.0709 27.6227 21.2944 27.7839C21.5179 27.9451 21.7865 28.0318 22.0621 28.0318C22.3377 28.0318 22.6063 27.9451 22.8299 27.7839C23.0534 27.6227 23.2205 27.3952 23.3075 27.1337C23.6657 26.0611 24.2684 25.0866 25.068 24.287C25.8676 23.4874 26.8422 22.8848 27.9148 22.5266C28.1761 22.4395 28.4033 22.2724 28.5644 22.0489C28.7254 21.8254 28.812 21.557 28.812 21.2815C28.812 21.0061 28.7254 20.7376 28.5644 20.5142C28.4033 20.2907 28.1761 20.1236 27.9148 20.0364L27.9151 20.0361ZM23.2119 22.4306C22.7874 22.8558 22.4023 23.3185 22.0614 23.8133C21.3767 22.8241 20.5193 21.9666 19.5301 21.282C20.5211 20.5996 21.379 19.7417 22.0614 18.7508C22.7433 19.7416 23.6006 20.5994 24.5909 21.282C24.0973 21.6221 23.6356 22.0066 23.2119 22.4306ZM88.2907 51.9113C87.3925 51.6119 86.5763 51.1075 85.9068 50.4381C85.2373 49.7686 84.7328 48.9525 84.4333 48.0544C84.3464 47.7926 84.1793 47.5648 83.9557 47.4034C83.7321 47.242 83.4633 47.1551 83.1875 47.1551C82.9117 47.1551 82.6429 47.242 82.4193 47.4034C82.1957 47.5648 82.0286 47.7926 81.9418 48.0544C81.6421 48.9524 81.1375 49.7683 80.468 50.4377C79.7985 51.107 78.9824 51.6113 78.0843 51.9107C77.8232 51.9979 77.596 52.1651 77.4351 52.3885C77.2742 52.6119 77.1876 52.8803 77.1876 53.1556C77.1876 53.4309 77.2742 53.6993 77.4351 53.9227C77.596 54.1461 77.8232 54.3133 78.0843 54.4005C78.9838 54.7114 79.7997 55.2252 80.4687 55.9021C81.1376 56.579 81.6418 57.4008 81.9421 58.3039C82.0269 58.5706 82.1921 58.8045 82.4151 58.9735C82.638 59.1426 82.9079 59.2385 83.1875 59.2481C83.4672 59.2385 83.737 59.1425 83.9599 58.9734C84.1828 58.8042 84.3479 58.5702 84.4325 58.3035C84.7289 57.3998 85.2318 56.5776 85.9015 55.9022C86.5711 55.2268 87.389 54.7168 88.2901 54.4127C88.5516 54.3241 88.7787 54.1558 88.9396 53.9315C89.1004 53.7071 89.1869 53.438 89.1869 53.162C89.1869 52.8859 89.1004 52.6168 88.9396 52.3925C88.7787 52.1681 88.5516 51.9998 88.2901 51.9113H88.2907ZM84.0511 54.0169C83.7372 54.3305 83.4477 54.6678 83.1853 55.0256C82.6596 54.3126 82.0295 53.6828 81.3163 53.1574C82.0318 52.6336 82.6629 52.0033 83.1875 51.2884C83.7115 52.0025 84.3418 52.6321 85.0563 53.1555C84.6998 53.4166 84.3638 53.7046 84.0511 54.0169ZM11.63 55.6802C11.7149 55.9466 11.8801 56.1803 12.103 56.3491C12.3259 56.5179 12.5955 56.6136 12.875 56.6231C13.1542 56.6136 13.4237 56.5179 13.6465 56.3494C13.8693 56.1808 14.0345 55.9474 14.1196 55.6813C14.3477 54.9948 14.7293 54.3693 15.2354 53.8524C15.7419 53.3428 16.3592 52.9571 17.0394 52.7256C17.3011 52.6375 17.5285 52.4696 17.6897 52.2454C17.8508 52.0211 17.9375 51.752 17.9375 51.4759C17.9375 51.1998 17.8508 50.9306 17.6897 50.7064C17.5285 50.4822 17.3011 50.3142 17.0394 50.2262C16.3594 49.9987 15.7416 49.6161 15.2349 49.1087C14.7282 48.6013 14.3464 47.983 14.1198 47.3027C14.0325 47.0417 13.8653 46.8148 13.642 46.6541C13.4186 46.4933 13.1504 46.4068 12.8752 46.4068C12.6 46.4068 12.3318 46.4933 12.1084 46.6541C11.8851 46.8148 11.7179 47.0417 11.6306 47.3027C11.404 47.9828 11.0222 48.6008 10.5155 49.1078C10.0088 49.6148 9.39096 49.9968 8.711 50.2238C8.44962 50.3106 8.22219 50.4776 8.06093 50.7009C7.89968 50.9242 7.81276 51.1926 7.8125 51.468C7.81193 51.7464 7.89796 52.0181 8.05867 52.2455C8.21939 52.4728 8.44684 52.6445 8.7095 52.7368C9.3898 52.9699 10.0072 53.3567 10.5137 53.8672C11.0202 54.3777 11.4022 54.9981 11.63 55.6802ZM12.3719 50.9629C12.5493 50.785 12.7172 50.598 12.875 50.4026C13.191 50.795 13.548 51.1524 13.94 51.4688C13.5475 51.7861 13.1898 52.1444 12.8731 52.5375C12.5555 52.1463 12.1983 51.7891 11.8072 51.4714C12.0042 51.3119 12.1928 51.1422 12.3719 50.9629ZM48.3301 49.4584C49.4865 48.3839 50.4062 47.0802 51.0304 45.6304C51.6547 44.1806 51.9698 42.6166 51.9556 41.0381C51.9556 37.7872 50.6642 34.6693 48.3654 32.3706C46.0666 30.0718 42.9488 28.7803 39.6978 28.7803C36.4468 28.7803 33.329 30.0718 31.0302 32.3706C28.7314 34.6693 27.44 37.7872 27.44 41.0381C27.4258 42.6165 27.7408 44.1804 28.3648 45.6302C28.9888 47.08 29.9083 48.3838 31.0644 49.4584C33.3378 51.5709 36.4034 52.7344 39.6969 52.7344C42.9903 52.7344 46.0563 51.5709 48.3301 49.4584ZM30.065 41.0381C30.065 38.4834 31.0799 36.0332 32.8864 34.2267C34.6929 32.4202 37.143 31.4053 39.6978 31.4053C42.2526 31.4053 44.7027 32.4202 46.5092 34.2267C48.3157 36.0332 49.3306 38.4834 49.3306 41.0381C49.3306 46.2096 45.1889 50.1094 39.6969 50.1094C34.2048 50.1094 30.065 46.2096 30.065 41.0381Z" fill="#083863"/>
<path id="&#60;Compound Path&#62;_2" d="M39.6983 22.8516C29.6695 22.8516 21.5108 31.0348 21.5108 41.0634C21.5195 44.229 22.3151 47.3427 23.8259 50.1244C25.3368 52.9061 27.5156 55.2685 30.1662 56.9991H17.4983C17.327 56.9971 17.157 57.0291 16.998 57.0931C16.8391 57.1572 16.6945 57.2521 16.5725 57.3724C16.4504 57.4927 16.3534 57.636 16.2871 57.7939C16.2207 57.9519 16.1863 58.1215 16.1858 58.2928C16.1722 59.7968 16.6759 61.2598 17.6125 62.4366H17.4983C17.3269 62.4347 17.1567 62.4668 16.9977 62.531C16.8387 62.5953 16.6941 62.6903 16.572 62.8108C16.45 62.9313 16.353 63.0747 16.2867 63.2329C16.2205 63.391 16.1862 63.5607 16.1858 63.7322C16.1726 65.2355 16.6762 66.6978 17.6125 67.8741H17.4983C17.327 67.8721 17.157 67.9041 16.998 67.9681C16.8391 68.0322 16.6945 68.1271 16.5725 68.2474C16.4504 68.3677 16.3534 68.511 16.2871 68.6689C16.2207 68.8269 16.1863 68.9965 16.1858 69.1678C16.1722 70.6718 16.6759 72.1348 17.6125 73.3116H17.4983C17.1473 73.318 16.813 73.4621 16.5674 73.713C16.3218 73.9638 16.1848 74.3012 16.1858 74.6522C16.187 75.54 16.3638 76.4187 16.7061 77.2379C17.0483 78.057 17.5492 78.8004 18.1799 79.4252C18.8106 80.0499 19.5586 80.5438 20.381 80.8783C21.2033 81.2127 22.0837 81.3812 22.9714 81.3741H56.4271C57.4723 81.3862 58.5058 81.1531 59.4446 80.6934C60.3834 80.2338 61.2013 79.5604 61.8327 78.7273L62.1456 78.7007C62.1676 78.6971 62.1895 78.7046 62.2111 78.7007C66.6103 77.7718 70.5095 75.246 73.1557 71.611C75.8019 67.9759 77.0076 63.4893 76.5398 59.0174C76.0721 54.5456 73.9642 50.4056 70.6231 47.3967C67.282 44.3878 62.9446 42.7235 58.4483 42.7251C58.2346 42.7251 58.0206 42.7303 57.8071 42.7378C57.8592 42.1716 57.8858 41.604 57.8858 41.0387C57.8804 36.2168 55.9624 31.5939 52.5528 28.1843C49.1431 24.7748 44.5202 22.8569 39.6983 22.8516ZM63.16 68.838C63.0826 68.5623 62.9176 68.3192 62.6901 68.1454C62.4625 67.9715 62.1847 67.8763 61.8983 67.8741H61.7808C62.7119 66.6948 63.216 65.2348 63.2108 63.7322C63.2105 63.5607 63.1762 63.391 63.1099 63.2329C63.0436 63.0747 62.9466 62.9313 62.8246 62.8108C62.7026 62.6903 62.5579 62.5953 62.3989 62.531C62.2399 62.4668 62.0698 62.4347 61.8983 62.4366H61.7802C62.712 61.2569 63.2163 59.7961 63.2108 58.2928C63.2103 58.1215 63.1759 57.9519 63.1096 57.7939C63.0432 57.636 62.9462 57.4927 62.8242 57.3724C62.7021 57.2521 62.5575 57.1572 62.3986 57.0931C62.2397 57.0291 62.0697 56.9971 61.8983 56.9991H49.2123C50.9669 55.8469 52.5202 54.4141 53.8099 52.758C55.1588 51.7846 56.7851 51.2714 58.4483 51.2944C60.9869 51.2944 63.1971 52.2474 64.8406 54.0621C66.4471 55.8364 67.3321 58.2637 67.3321 60.912C67.3267 62.4715 66.9445 64.0066 66.2181 65.3867C65.4917 66.7667 64.4425 67.9507 63.16 68.838ZM27.9389 51.4995C25.4959 48.5643 24.1512 44.8701 24.1358 41.0513C24.1346 36.9238 25.773 32.965 28.6907 30.0456C31.6084 27.1262 35.5663 25.4854 39.6937 25.4842C43.8212 25.4829 47.78 27.1214 50.6994 30.0391C53.6188 32.9567 55.2596 36.9146 55.2608 41.0421C55.2602 42.0148 55.1708 42.9855 54.9936 43.9419C54.5266 46.4422 53.489 48.801 51.9616 50.8348C51.3896 51.2662 50.8492 51.738 50.3446 52.2465C50.1275 52.4714 49.994 52.7638 49.9662 53.0751C47.7891 55.0876 45.0899 56.4473 42.1769 56.9991H37.219C33.6543 56.2491 30.3616 54.4208 27.9389 51.4995ZM20.0294 61.2354C19.5805 60.7777 19.2364 60.2279 19.021 59.6241H37.0053C37.8916 59.6241 38.7966 59.8378 39.6983 59.8378C40.6 59.8378 41.5054 59.6241 42.3914 59.6241H60.3738C60.1015 60.4522 59.5717 61.1717 58.8617 61.6777C58.1518 62.1836 57.2988 62.4495 56.4271 62.4366H22.9714C22.4259 62.4412 21.8849 62.3375 21.3799 62.1313C20.8748 61.9251 20.4157 61.6206 20.0294 61.2354ZM20.0294 66.6729C19.5805 66.2152 19.2366 65.6654 19.0214 65.0616H60.3736C60.1013 65.8897 59.5716 66.6092 58.8616 67.1152C58.1517 67.6211 57.2987 67.887 56.4271 67.8741H22.9714C22.4259 67.8786 21.8849 67.7747 21.3799 67.5684C20.8748 67.3621 20.4158 67.0574 20.0296 66.6722L20.0294 66.6729ZM20.0294 72.1114C19.5804 71.6533 19.2363 71.1031 19.021 70.4989H60.0978C59.8821 70.8739 59.7891 71.1427 59.8604 71.5132C59.4765 72.0686 58.9634 72.5224 58.3654 72.8356C57.7673 73.1489 57.1022 73.3122 56.4271 73.3116H22.9714C22.426 73.3164 21.885 73.2128 21.38 73.0068C20.8749 72.8008 20.4158 72.4965 20.0294 72.1116V72.1114ZM56.4271 78.7491H22.9714C22.426 78.7539 21.885 78.6503 21.38 78.4443C20.8749 78.2383 20.4158 77.934 20.0294 77.5491C19.564 77.0835 19.2231 76.6866 19.021 75.9366H60.3736C60.3403 76.0772 60.2905 76.2133 60.2251 76.3421L60.2204 76.3569L60.2215 76.3714C60.1451 76.5284 60.0574 76.6797 59.959 76.824C59.5862 77.4222 59.0651 77.9138 58.4462 78.2511C57.8274 78.5884 57.1318 78.7599 56.4271 78.7491ZM74.0108 60.9141C74 64.2226 72.9399 67.4424 70.9831 70.1103C69.0263 72.7782 66.2737 74.7566 63.1212 75.7609C63.1798 75.3942 63.2097 75.0235 63.2108 74.6522C63.2119 74.3012 63.0748 73.9638 62.8292 73.713C62.5837 73.4621 62.2493 73.318 61.8983 73.3116H61.7791C62.0631 72.9529 62.3109 72.567 62.5188 72.1594C64.7206 71.2112 66.5975 69.6405 67.9189 67.6402C69.2403 65.64 69.9487 63.2973 69.9571 60.9C69.9571 53.9124 65.0093 48.6501 58.4483 48.6501C57.6776 48.6491 56.9089 48.7285 56.1546 48.8869C56.6716 47.7628 57.0778 46.591 57.3674 45.3881C57.7263 45.3634 58.0874 45.3506 58.4483 45.3506C62.5744 45.3556 66.53 46.9969 69.4475 49.9146C72.365 52.8322 74.0061 56.788 74.0108 60.9141Z" fill="#083863"/>
</g>
</g>
</g>
</svg>
