<svg width="59" height="48" viewBox="0 0 59 48" fill="none" xmlns="http://www.w3.org/2000/svg">
    <path d="M55.5291 26.4474C56.1147 27.0315 56.8284 27.4718 57.6138 27.7333C56.8283 27.9947 56.1146 28.4349 55.5291 29.0191C54.9436 29.6034 54.5024 30.3156 54.2405 31.0994C53.9785 30.3156 53.5373 29.6034 52.9518 29.0192C52.3663 28.435 51.6526 27.9947 50.8672 27.7333C51.6527 27.4719 52.3664 27.0317 52.9519 26.4474C53.5374 25.8632 53.9785 25.151 54.2405 24.3672C54.5015 25.1514 54.9428 25.8638 55.5291 26.4474Z" fill="#F9C630"/>
    <path d="M48.5869 33.3054C48.5868 36.0839 47.6302 38.7781 45.8771 40.9368C44.124 43.0955 41.6809 44.5876 38.9568 45.1634L38.3335 45.2617C38.7219 44.6407 38.9272 43.923 38.9258 43.1909H34.9885C35.7847 43.1911 36.5623 42.9502 37.2185 42.5002C37.8747 42.0502 38.3788 41.4122 38.664 40.6704C40.1668 40.1084 41.4618 39.1021 42.3761 37.786C43.2904 36.4699 43.7804 34.9068 43.7806 33.3054C43.7806 28.9645 40.7933 25.4463 36.4431 25.4463C35.007 25.4256 33.6043 25.8791 32.4531 26.7362C33.6834 25.1367 34.5171 23.2695 34.8859 21.2871C36.5979 21.0667 38.3372 21.213 39.9881 21.7161C41.639 22.2192 43.1634 23.0676 44.4599 24.2048C45.7563 25.342 46.7949 26.7419 47.5066 28.3111C48.2182 29.8804 48.5865 31.583 48.5869 33.3054Z" fill="#2B8AFC"/>
    <path d="M43.7757 33.309C43.7754 34.9104 43.2854 36.4736 42.3711 37.7896C41.4568 39.1057 40.1618 40.112 38.6591 40.674C38.8324 40.2242 38.9212 39.7463 38.9208 39.2643H34.9835C35.5006 39.2644 36.0126 39.1629 36.4904 38.9654C36.9681 38.768 37.4022 38.4786 37.7679 38.1138C38.1335 37.7489 38.4235 37.3158 38.6213 36.8391C38.8192 36.3623 38.9209 35.8514 38.9208 35.3354H34.9835C35.5007 35.3354 36.0128 35.2336 36.4905 35.0361C36.9683 34.8385 37.4024 34.549 37.768 34.1841C38.1336 33.8191 38.4236 33.3858 38.6214 32.909C38.8192 32.4322 38.921 31.9212 38.9208 31.4052H24.8164C27.8956 30.8976 30.5915 29.1607 32.4482 26.7398C33.5993 25.8827 35.002 25.4293 36.4381 25.4499C40.7883 25.4499 43.7757 28.9681 43.7757 33.309Z" fill="#F9C630"/>
    <path d="M24.8201 31.3984H38.9245C38.9246 31.9145 38.8229 32.4255 38.6251 32.9023C38.4273 33.3791 38.1373 33.8124 37.7717 34.1773C37.406 34.5423 36.972 34.8318 36.4942 35.0294C36.0164 35.2269 35.5044 35.3286 34.9872 35.3287H10.9113C9.86674 35.3286 8.86497 34.9145 8.12634 34.1775C7.38772 33.4404 6.97273 32.4408 6.97266 31.3984H21.0771C22.3163 31.6031 23.5808 31.6031 24.8201 31.3984Z" fill="#00CEB4"/>
    <path d="M34.9872 35.3281H38.9245C38.9246 35.8441 38.8229 36.355 38.625 36.8318C38.4272 37.3085 38.1372 37.7417 37.7715 38.1065C37.4059 38.4714 36.9718 38.7608 36.4941 38.9582C36.0163 39.1556 35.5043 39.2571 34.9872 39.257H10.9113C9.86697 39.2569 8.86541 38.843 8.12682 38.1063C7.38823 37.3695 6.97309 36.3702 6.97266 35.3281H34.9872Z" fill="#00EFD1"/>
    <path d="M38.6627 40.6675C38.3775 41.4093 37.8735 42.0474 37.2172 42.4974C36.561 42.9474 35.7834 43.1882 34.9872 43.1881H10.9113C9.86674 43.188 8.86497 42.7739 8.12634 42.0368C7.38772 41.2998 6.97273 40.3002 6.97266 39.2578H38.9245C38.9249 39.7398 38.8361 40.2177 38.6627 40.6675Z" fill="#00CEB4"/>
    <path d="M38.3322 45.2583C37.98 45.8274 37.4877 46.297 36.9022 46.6225C36.3167 46.9479 35.6574 47.1184 34.9872 47.1177H10.9113C9.86674 47.1177 8.86497 46.7036 8.12634 45.9665C7.38772 45.2295 6.97273 44.2298 6.97266 43.1875H38.9245C38.9259 43.9196 38.7206 44.6373 38.3322 45.2583Z" fill="#00EFD1"/>
    <path d="M34.8846 21.2859C34.5158 23.2683 33.6821 25.1355 32.4518 26.7349C30.5951 29.1558 27.8992 30.8927 24.8201 31.4003H21.077C15.2588 30.4403 10.8047 25.0896 10.8047 19.032C10.8047 15.8181 12.0841 12.7359 14.3615 10.4633C16.639 8.19077 19.7278 6.91406 22.9486 6.91406C26.1693 6.91406 29.2581 8.19077 31.5356 10.4633C33.813 12.7359 35.0924 15.8181 35.0924 19.032C35.0922 19.788 35.0227 20.5425 34.8846 21.2859ZM30.8259 19.032C30.8259 16.9474 29.996 14.9482 28.5189 13.4742C27.0417 12.0002 25.0382 11.1722 22.9492 11.1722C20.8602 11.1722 18.8568 12.0002 17.3796 13.4742C15.9024 14.9482 15.0726 16.9474 15.0726 19.032C15.0726 23.3729 18.5984 26.4885 22.9486 26.4885C27.2988 26.4885 30.8259 23.3729 30.8259 19.032Z" fill="#2B8AFC"/>
    <path d="M22.9463 11.1758C23.9807 11.1757 25.0049 11.3789 25.9606 11.7738C26.9163 12.1687 27.7846 12.7476 28.5161 13.4774C29.2476 14.2072 29.8279 15.0736 30.2238 16.0271C30.6197 16.9807 30.8235 18.0028 30.8236 19.0349C30.8236 23.3758 27.2965 26.4915 22.9463 26.4915C18.5961 26.4915 15.0703 23.3758 15.0703 19.0349C15.0702 18.0028 15.2739 16.9808 15.6697 16.0273C16.0655 15.0737 16.6456 14.2073 17.377 13.4775C18.1083 12.7477 18.9766 12.1688 19.9322 11.7739C20.8878 11.3789 21.912 11.1757 22.9463 11.1758Z" fill="#F9C630"/>
    <path d="M21.0742 31.3984H24.8172C23.578 31.6036 22.3135 31.6036 21.0742 31.3984Z" fill="#2B8AFC"/>
    <path d="M11.7507 3.35421C12.4294 4.03236 13.2573 4.54317 14.1686 4.84606C13.2576 5.14949 12.4298 5.66023 11.7507 6.33791C11.0715 7.01559 10.5597 7.84163 10.2556 8.75072C9.95196 7.8414 9.44026 7.01515 8.76107 6.33741C8.08188 5.65967 7.25385 5.14907 6.34259 4.84606C7.25362 4.54264 8.08143 4.03189 8.76056 3.35421C9.4397 2.67653 9.95154 1.85049 10.2556 0.941406C10.5591 1.85074 11.0711 2.6769 11.7507 3.35421ZM4.67483 25.495C5.14299 25.9626 5.71405 26.3149 6.34259 26.5236C5.7142 26.7327 5.14322 27.0849 4.67483 27.5523C4.20644 28.0197 3.8535 28.5895 3.64395 29.2165C3.43426 28.5895 3.08127 28.0198 2.6129 27.5525C2.14453 27.0851 1.57362 26.7329 0.945312 26.5236C1.5737 26.3145 2.14468 25.9624 2.61307 25.495C3.08146 25.0276 3.4344 24.4578 3.64395 23.8308C3.85422 24.4575 4.20706 25.0271 4.67483 25.495Z" fill="#F9C630"/>
    <path d="M14.4666 3.953C13.6947 3.69588 12.9934 3.26317 12.418 2.68904C11.8425 2.11492 11.4088 1.41512 11.151 0.64495C11.0884 0.457168 10.9682 0.293817 10.8073 0.178057C10.6464 0.0622965 10.4532 0 10.2548 0C10.0565 0 9.8632 0.0622965 9.70234 0.178057C9.54148 0.293817 9.42122 0.457168 9.35861 0.64495C9.10086 1.41514 8.66714 2.11497 8.09171 2.68912C7.51628 3.26327 6.81493 3.69601 6.04306 3.95314C5.85497 4.01568 5.69138 4.13569 5.57545 4.29617C5.45952 4.45666 5.39713 4.64947 5.39713 4.8473C5.39713 5.04513 5.45952 5.23795 5.57545 5.39843C5.69138 5.55891 5.85497 5.67893 6.04306 5.74147C6.81426 5.99982 7.51496 6.43299 8.09017 7.007C8.66539 7.58101 9.09947 8.28023 9.35834 9.04979C9.42095 9.23757 9.54121 9.40092 9.70207 9.51668C9.86293 9.63244 10.0562 9.69474 10.2546 9.69474C10.4529 9.69474 10.6462 9.63244 10.807 9.51668C10.9679 9.40092 11.0882 9.23757 11.1508 9.04979C11.4085 8.27959 11.8423 7.57976 12.4177 7.00559C12.9931 6.43142 13.6945 5.99865 14.4663 5.74147C14.6544 5.6789 14.8179 5.55888 14.9338 5.39841C15.0497 5.23795 15.112 5.04516 15.112 4.84737C15.112 4.64958 15.0497 4.45679 14.9338 4.29633C14.8179 4.13586 14.6544 4.01584 14.4663 3.95327L14.4666 3.953ZM11.082 5.67253C10.7765 5.97782 10.4993 6.31014 10.254 6.66539C9.76132 5.9551 9.14425 5.33934 8.43243 4.84771C9.14558 4.35766 9.76292 3.74164 10.254 3.03002C10.7447 3.74154 11.3617 4.35756 12.0744 4.84771C11.7191 5.09193 11.3869 5.36802 11.082 5.67253ZM57.915 26.8425C57.2687 26.6275 56.6813 26.2653 56.1995 25.7846C55.7177 25.3039 55.3546 24.7179 55.1391 24.0729C55.0766 23.8849 54.9564 23.7214 54.7954 23.6054C54.6345 23.4895 54.4411 23.4271 54.2426 23.4271C54.0441 23.4271 53.8507 23.4895 53.6898 23.6054C53.5289 23.7214 53.4086 23.8849 53.3461 24.0729C53.1305 24.7177 52.7674 25.3037 52.2856 25.7843C51.8038 26.2649 51.2165 26.6271 50.5702 26.8421C50.3822 26.9047 50.2188 27.0248 50.103 27.1852C49.9872 27.3456 49.9248 27.5383 49.9248 27.7361C49.9248 27.9338 49.9872 28.1265 50.103 28.2869C50.2188 28.4474 50.3822 28.5674 50.5702 28.63C51.2175 28.8533 51.8046 29.2222 52.286 29.7083C52.7674 30.1944 53.1303 30.7845 53.3464 31.433C53.4074 31.6245 53.5263 31.7925 53.6867 31.9139C53.8472 32.0353 54.0414 32.1042 54.2426 32.1111C54.4439 32.1042 54.638 32.0353 54.7985 31.9138C54.9589 31.7923 55.0777 31.6243 55.1386 31.4328C55.3518 30.7838 55.7138 30.1934 56.1957 29.7084C56.6776 29.2234 57.2661 28.8571 57.9146 28.6388C58.1028 28.5752 58.2662 28.4543 58.382 28.2932C58.4977 28.1321 58.56 27.9389 58.56 27.7406C58.56 27.5424 58.4977 27.3492 58.382 27.1881C58.2662 27.027 58.1028 26.9061 57.9146 26.8425H57.915ZM54.8641 28.3545C54.6382 28.5798 54.4298 28.8219 54.241 29.0789C53.8627 28.5669 53.4093 28.1146 52.896 27.7373C53.4109 27.3612 53.8651 26.9086 54.2426 26.3952C54.6197 26.908 55.0733 27.3602 55.5875 27.736C55.3309 27.9235 55.0891 28.1303 54.8641 28.3545ZM2.74721 29.549C2.80828 29.7403 2.92717 29.9081 3.08758 30.0293C3.24799 30.1505 3.44205 30.2193 3.64316 30.2261C3.84411 30.2192 4.03801 30.1506 4.19835 30.0295C4.35868 29.9084 4.4776 29.7409 4.53884 29.5498C4.703 29.0568 4.97761 28.6076 5.34182 28.2365C5.70625 27.8705 6.15055 27.5935 6.64 27.4273C6.82833 27.364 6.99202 27.2434 7.10798 27.0824C7.22394 26.9214 7.28631 26.7281 7.28631 26.5299C7.28631 26.3316 7.22394 26.1383 7.10798 25.9773C6.99202 25.8163 6.82833 25.6957 6.64 25.6325C6.15063 25.4691 5.70606 25.1943 5.34141 24.83C4.97677 24.4656 4.70205 24.0216 4.53897 23.5331C4.47611 23.3457 4.35582 23.1828 4.19509 23.0673C4.03436 22.9519 3.84133 22.8898 3.6433 22.8898C3.44526 22.8898 3.25223 22.9519 3.09151 23.0673C2.93078 23.1828 2.81048 23.3457 2.74762 23.5331C2.58457 24.0215 2.30984 24.4652 1.94517 24.8293C1.58051 25.1934 1.13592 25.4678 0.646595 25.6307C0.458493 25.6931 0.294829 25.813 0.178783 25.9733C0.0627365 26.1337 0.000190284 26.3264 2.07859e-06 26.5242C-0.000413504 26.7241 0.0614975 26.9192 0.177156 27.0825C0.292815 27.2457 0.456495 27.369 0.645516 27.4353C1.13509 27.6027 1.57939 27.8805 1.94389 28.2471C2.3084 28.6137 2.58329 29.0592 2.74721 29.549ZM3.28114 26.1615C3.40877 26.0338 3.52961 25.8995 3.64316 25.7592C3.87054 26.0409 4.12747 26.2976 4.40957 26.5247C4.12709 26.7527 3.86972 27.0099 3.64181 27.2922C3.41325 27.0113 3.15619 26.7548 2.87473 26.5266C3.01654 26.4121 3.1522 26.2902 3.28114 26.1615ZM29.158 25.0811C29.9901 24.3095 30.652 23.3733 31.1012 22.3322C31.5504 21.2911 31.7772 20.168 31.767 19.0345C31.767 16.7 30.8376 14.4611 29.1833 12.8104C27.5291 11.1596 25.2854 10.2322 22.9458 10.2322C20.6063 10.2322 18.3626 11.1596 16.7083 12.8104C15.054 14.4611 14.1247 16.7 14.1247 19.0345C14.1144 20.1679 14.3411 21.291 14.7902 22.3321C15.2393 23.3732 15.9009 24.3094 16.7329 25.0811C18.3689 26.5981 20.5751 27.4336 22.9452 27.4336C25.3152 27.4336 27.5216 26.5981 29.158 25.0811ZM16.0137 19.0345C16.0137 17.2 16.7441 15.4405 18.0441 14.1433C19.3441 12.846 21.1073 12.1172 22.9458 12.1172C24.7843 12.1172 26.5476 12.846 27.8476 14.1433C29.1476 15.4405 29.878 17.2 29.878 19.0345C29.878 22.7481 26.8975 25.5486 22.9452 25.5486C18.9929 25.5486 16.0137 22.7481 16.0137 19.0345Z" fill="#083863"/>
    <path d="M22.948 5.97266C15.7309 5.97266 9.8596 11.849 9.8596 19.0506C9.86585 21.3237 10.4384 23.5597 11.5256 25.5572C12.6129 27.5547 14.1808 29.2512 16.0883 30.4939H6.97206C6.84876 30.4925 6.72641 30.5154 6.61205 30.5615C6.49769 30.6075 6.3936 30.6756 6.30578 30.762C6.21797 30.8484 6.14817 30.9513 6.10041 31.0647C6.05265 31.1781 6.02789 31.2999 6.02754 31.4229C6.0177 32.5029 6.38019 33.5535 7.05424 34.3986H6.97206C6.84867 34.3972 6.72623 34.4203 6.61182 34.4664C6.49741 34.5125 6.39328 34.5808 6.30547 34.6673C6.21765 34.7538 6.14787 34.8568 6.10017 34.9704C6.05247 35.0839 6.02778 35.2058 6.02754 35.3289C6.01799 36.4085 6.38046 37.4585 7.05424 38.3032H6.97206C6.84876 38.3018 6.72641 38.3248 6.61205 38.3708C6.49769 38.4168 6.3936 38.485 6.30578 38.5713C6.21797 38.6577 6.14817 38.7606 6.10041 38.874C6.05265 38.9875 6.02789 39.1092 6.02754 39.2323C6.0177 40.3123 6.38019 41.3628 7.05424 42.2079H6.97206C6.71949 42.2125 6.47886 42.316 6.30214 42.4961C6.12542 42.6762 6.02679 42.9185 6.02754 43.1706C6.02841 43.8081 6.15564 44.4391 6.40192 45.0273C6.6482 45.6156 7.00865 46.1494 7.46253 46.598C7.9164 47.0467 8.45473 47.4013 9.04652 47.6415C9.63831 47.8817 10.2719 48.0027 10.9107 47.9975H34.9866C35.7388 48.0063 36.4825 47.8389 37.1581 47.5088C37.8337 47.1787 38.4223 46.6951 38.8767 46.0969L39.1019 46.0778C39.1177 46.0752 39.1335 46.0806 39.149 46.0778C42.3149 45.4108 45.1208 43.597 47.0251 40.9867C48.9295 38.3763 49.7971 35.1545 49.4605 31.9433C49.1239 28.7321 47.607 25.7591 45.2026 23.5985C42.7982 21.4378 39.6768 20.2427 36.4412 20.2438C36.2874 20.2438 36.1334 20.2475 35.9797 20.2529C36.0172 19.8463 36.0364 19.4387 36.0364 19.0328C36.0325 15.5702 34.6522 12.2505 32.1985 9.80212C29.7448 7.35371 26.418 5.97651 22.948 5.97266ZM39.8319 38.9954C39.7761 38.7974 39.6575 38.6229 39.4937 38.4981C39.33 38.3732 39.13 38.3048 38.9239 38.3032H38.8393C39.5094 37.4564 39.8722 36.4079 39.8684 35.3289C39.8682 35.2058 39.8435 35.0839 39.7958 34.9704C39.7481 34.8568 39.6783 34.7538 39.5905 34.6673C39.5027 34.5808 39.3986 34.5125 39.2842 34.4664C39.1698 34.4203 39.0473 34.3972 38.9239 34.3986H38.8389C39.5095 33.5514 39.8724 32.5025 39.8684 31.4229C39.8681 31.2999 39.8433 31.1781 39.7956 31.0647C39.7478 30.9513 39.678 30.8484 39.5902 30.762C39.5024 30.6756 39.3983 30.6075 39.2839 30.5615C39.1696 30.5154 39.0472 30.4925 38.9239 30.4939H29.7946C31.0573 29.6666 32.1751 28.6377 33.1032 27.4484C34.0739 26.7494 35.2443 26.3809 36.4412 26.3974C38.268 26.3974 39.8586 27.0818 41.0413 28.3848C42.1974 29.659 42.8342 31.4021 42.8342 33.3038C42.8304 34.4237 42.5553 35.526 42.0326 36.517C41.5098 37.508 40.7548 38.3583 39.8319 38.9954ZM14.4855 26.5447C12.7274 24.4369 11.7597 21.7841 11.7486 19.0418C11.7478 16.0779 12.9269 13.2351 15.0265 11.1386C17.1262 9.04223 19.9744 7.86399 22.9447 7.86312C25.9149 7.86224 28.7639 9.03881 30.8648 11.134C32.9657 13.2292 34.1465 16.0713 34.1473 19.0352C34.1469 19.7337 34.0826 20.4308 33.9551 21.1176C33.619 22.913 32.8723 24.6069 31.7731 26.0674C31.3615 26.3772 30.9726 26.716 30.6094 27.0811C30.4532 27.2426 30.3572 27.4526 30.3371 27.6761C28.7704 29.1213 26.828 30.0977 24.7317 30.4939H21.1638C18.5985 29.9553 16.2289 28.6424 14.4855 26.5447ZM8.79351 33.536C8.47047 33.2073 8.22287 32.8125 8.06784 32.3789H21.01C21.6478 32.3789 22.2991 32.5324 22.948 32.5324C23.5969 32.5324 24.2485 32.3789 24.886 32.3789H37.8268C37.6308 32.9736 37.2496 33.4903 36.7387 33.8536C36.2278 34.2169 35.6139 34.4078 34.9866 34.3986H10.9107C10.5182 34.4019 10.1288 34.3274 9.76536 34.1793C9.4019 34.0313 9.07155 33.8126 8.79351 33.536ZM8.79351 37.4407C8.47051 37.112 8.223 36.7172 8.06811 36.2836H37.8267C37.6307 36.8783 37.2495 37.3949 36.7386 37.7582C36.2277 38.1216 35.6139 38.3125 34.9866 38.3032H10.9107C10.5181 38.3065 10.1288 38.2319 9.76537 38.0837C9.40193 37.9356 9.07162 37.7168 8.79364 37.4402L8.79351 37.4407ZM8.79351 41.346C8.4704 41.0171 8.2228 40.622 8.06784 40.1881H37.6282C37.473 40.4574 37.4061 40.6505 37.4573 40.9165C37.1811 41.3153 36.8119 41.6412 36.3815 41.8661C35.9511 42.091 35.4724 42.2083 34.9866 42.2079H10.9107C10.5182 42.2113 10.1289 42.137 9.76545 41.989C9.40199 41.8411 9.07161 41.6226 8.79351 41.3462V41.346ZM34.9866 46.1125H10.9107C10.5182 46.116 10.1289 46.0416 9.76545 45.8937C9.40199 45.7458 9.07161 45.5272 8.79351 45.2508C8.45861 44.9165 8.2133 44.6315 8.06784 44.0929H37.8267C37.8027 44.1938 37.7668 44.2916 37.7198 44.3841L37.7164 44.3948L37.7172 44.4051C37.6622 44.5179 37.5991 44.6265 37.5283 44.7301C37.26 45.1597 36.885 45.5127 36.4397 45.7549C35.9943 45.9971 35.4938 46.1203 34.9866 46.1125ZM47.6405 33.3053C47.6327 35.6811 46.8698 37.9933 45.4617 39.9091C44.0535 41.8249 42.0726 43.2455 39.8039 43.9667C39.8461 43.7034 39.8677 43.4372 39.8684 43.1706C39.8692 42.9185 39.7706 42.6762 39.5938 42.4961C39.4171 42.316 39.1765 42.2125 38.9239 42.2079H38.8381C39.0425 41.9503 39.2208 41.6732 39.3704 41.3805C40.9549 40.6996 42.3056 39.5717 43.2566 38.1353C44.2075 36.6989 44.7173 35.0167 44.7233 33.2952C44.7233 28.2774 41.1627 24.4985 36.4412 24.4985C35.8865 24.4978 35.3333 24.5548 34.7906 24.6686C35.1626 23.8614 35.4549 23.0199 35.6633 22.1561C35.9216 22.1383 36.1814 22.1292 36.4412 22.1292C39.4104 22.1327 42.2571 23.3114 44.3566 25.4066C46.4561 27.5017 47.6371 30.3423 47.6405 33.3053Z" fill="#083863"/>
</svg>
