<svg width="97" height="96" viewBox="0 0 97 96" fill="none" xmlns="http://www.w3.org/2000/svg">
<g id="closet">
<path id="Vector" d="M87.6839 80.28V89.1544H9.31641V80.28H13.4283H48.5002H83.572H87.6839Z" fill="#13277E"/>
<path id="Vector_2" d="M87.6839 6.84521V15.7196H83.572H48.5002H13.4283H9.31641V6.84521H87.6839Z" fill="#13277E"/>
<path id="Vector_3" d="M83.5719 58.5V80.28H48.5V58.5H83.5625H83.5719Z" fill="#00EFD1"/>
<path id="Vector_4" d="M83.5719 37.875V58.5H83.5625H48.5V37.875H83.5625H83.5719Z" fill="#00ACEA"/>
<path id="Vector_5" d="M83.5719 15.72V37.875H83.5625H48.5V15.72H83.5719Z" fill="#00EFD1"/>
<path id="Vector_6" d="M48.5016 58.5V80.28H13.4297V15.72H48.5016V58.5ZM43.2497 55.0931V40.9068H38.7478V55.0931H43.2497Z" fill="#00ACEA"/>
<path id="Vector_7" d="M43.248 40.9072H38.7461V55.0935H43.248V40.9072Z" fill="#00EFD1"/>
<path id="Vector_8" d="M9.31625 90.375H87.6838C88.4086 90.375 89 89.8792 89 89.1544V80.28C89.0003 79.9284 88.8626 79.5907 88.6164 79.3396C88.3702 79.0885 88.0353 78.9441 87.6838 78.9375H84.875V17.0625H87.6838C88.0353 17.0559 88.3702 16.9115 88.6164 16.6604C88.8626 16.4093 89.0003 16.0716 89 15.72V6.84562C89 6.12075 88.4086 5.625 87.6838 5.625H9.31625C8.59138 5.625 8 6.12075 8 6.84562V15.72C7.99969 16.0716 8.13745 16.4093 8.38362 16.6604C8.62978 16.9115 8.96469 17.0559 9.31625 17.0625H12.125V78.9375H9.31625C8.96469 78.9441 8.62978 79.0885 8.38362 79.3396C8.13745 79.5907 7.99969 79.9284 8 80.28V89.1544C8 89.8792 8.59138 90.375 9.31625 90.375ZM49.8125 78.9375V59.8125H82.25V78.9375H49.8125ZM82.25 57.1875H49.8125V39.1875H82.25V57.1875ZM82.25 36.5625H49.8125V17.0625H82.25V36.5625ZM10.625 8.25H86.375V14.4375H10.625V8.25ZM14.75 17.0625H47.1875V78.9375H14.75V17.0625ZM10.625 81.5625H86.375V87.75H10.625V81.5625Z" fill="#083863"/>
<path id="Vector_9" d="M44.5625 40.875C44.5625 40.5269 44.4242 40.1931 44.1781 39.9469C43.9319 39.7008 43.5981 39.5625 43.25 39.5625H38.75C38.4019 39.5625 38.0681 39.7008 37.8219 39.9469C37.5758 40.1931 37.4375 40.5269 37.4375 40.875V55.125C37.4375 55.4731 37.5758 55.8069 37.8219 56.0531C38.0681 56.2992 38.4019 56.4375 38.75 56.4375H43.25C43.5981 56.4375 43.9319 56.2992 44.1781 56.0531C44.4242 55.8069 44.5625 55.4731 44.5625 55.125V40.875ZM41.9375 53.8125H40.0625V42.1875H41.9375V53.8125Z" fill="#083863"/>
</g>
</svg>
