<svg width="97" height="96" viewBox="0 0 97 96" fill="none" xmlns="http://www.w3.org/2000/svg">
<path d="M80.6008 27.2998H15.8008V77.6998H80.6008V27.2998Z" fill="#C6D3FF"/>
<path d="M81.4984 27.2999H14.8984C14.0734 27.2999 13.3984 26.6249 13.3984 25.7999V14.3999C13.3984 13.5749 14.0734 12.8999 14.8984 12.8999H81.4984C82.3234 12.8999 82.9984 13.5749 82.9984 14.3999V25.7999C82.9984 26.6249 82.3234 27.2999 81.4984 27.2999ZM81.4984 82.4999H14.8984C14.0734 82.4999 13.3984 81.8249 13.3984 80.9999V79.1999C13.3984 78.3749 14.0734 77.6999 14.8984 77.6999H81.4984C82.3234 77.6999 82.9984 78.3749 82.9984 79.1999V80.9999C82.9984 81.8249 82.3234 82.4999 81.4984 82.4999Z" fill="#5C5C5C"/>
<path d="M78.2 16.5H59V23.7H78.2V16.5Z" fill="#9E6B45"/>
<path d="M48.1984 24.8998C50.8494 24.8998 52.9984 22.7508 52.9984 20.0998C52.9984 17.4488 50.8494 15.2998 48.1984 15.2998C45.5475 15.2998 43.3984 17.4488 43.3984 20.0998C43.3984 22.7508 45.5475 24.8998 48.1984 24.8998Z" fill="#C6D3FF"/>
<path d="M20.5992 22.5002C21.9247 22.5002 22.9992 21.4257 22.9992 20.1002C22.9992 18.7747 21.9247 17.7002 20.5992 17.7002C19.2737 17.7002 18.1992 18.7747 18.1992 20.1002C18.1992 21.4257 19.2737 22.5002 20.5992 22.5002Z" fill="#9E6B45"/>
<path d="M31.4 22.5002C32.7255 22.5002 33.8 21.4257 33.8 20.1002C33.8 18.7747 32.7255 17.7002 31.4 17.7002C30.0745 17.7002 29 18.7747 29 20.1002C29 21.4257 30.0745 22.5002 31.4 22.5002Z" fill="#9E6B45"/>
<path d="M48.1998 21.2995C47.8998 21.2995 47.5848 21.1795 47.3448 20.9545C46.8798 20.4895 46.8798 19.7245 47.3448 19.2595L49.7448 16.8595C50.2098 16.3945 50.9748 16.3945 51.4398 16.8595C51.9048 17.3245 51.9048 18.0895 51.4398 18.5545L49.0398 20.9545C48.8148 21.1795 48.4998 21.2995 48.1998 21.2995Z" fill="#432716"/>
<path d="M58.9984 27.2998H37.3984V34.4998H58.9984V27.2998Z" fill="#432716"/>
<path d="M55.4 34.5H41V39.3H55.4V34.5Z" fill="#9E6B45"/>
<path d="M57.8016 39.2998H38.6016V48.8998H57.8016V39.2998Z" fill="#5C5C5C"/>
<path d="M38.5992 41.7002H30.1992V46.5002H38.5992V41.7002Z" fill="#9E6B45"/>
<path d="M30.1984 47.7H16.9984C15.0034 47.7 13.3984 46.095 13.3984 44.1C13.3984 42.105 15.0034 40.5 16.9984 40.5H30.1984V47.7Z" fill="#5C5C5C"/>
<path d="M43.9992 53.6999C43.0092 53.6999 42.1992 52.8899 42.1992 51.8999V48.8999H45.7992V51.8999C45.7992 52.8899 44.9892 53.6999 43.9992 53.6999ZM52.3992 53.6999C51.4092 53.6999 50.5992 52.8899 50.5992 51.8999V48.8999H54.1992V51.8999C54.1992 52.8899 53.3892 53.6999 52.3992 53.6999ZM60.1992 71.6999H56.5992C55.9392 71.6999 55.3992 71.1599 55.3992 70.4999V63.2999C55.3992 62.6399 55.9392 62.0999 56.5992 62.0999H60.1992C62.8392 62.0999 64.9992 64.2599 64.9992 66.8999C64.9992 69.5399 62.8392 71.6999 60.1992 71.6999ZM57.7992 69.2999H60.1992C61.5192 69.2999 62.5992 68.2199 62.5992 66.8999C62.5992 65.5799 61.5192 64.4999 60.1992 64.4999H57.7992V69.2999Z" fill="#432716"/>
<path d="M48.2016 77.6999C42.9066 77.6999 38.6016 73.3949 38.6016 68.0999V60.8999H57.8016V68.0999C57.8016 73.3949 53.4966 77.6999 48.2016 77.6999Z" fill="#8A5E3C"/>
<path d="M71.0008 34.4998H68.6008V27.2998H63.8008V34.4998V37.7998C63.8008 38.6248 64.4758 39.2998 65.3008 39.2998H68.6008H71.0008V52.4998H75.8008V39.2998V35.9998C75.8008 35.1748 75.1258 34.4998 74.3008 34.4998H71.0008Z" fill="#9E6B45"/>
<path d="M75.8 47.7002H71V52.5002H75.8V47.7002Z" fill="#432716"/>
<path d="M67.4016 59.6998C67.1016 59.6998 66.7866 59.5798 66.5466 59.3548C66.0816 58.8898 66.0816 58.1248 66.5466 57.6598L68.9466 55.2598C69.4116 54.7948 70.1766 54.7948 70.6416 55.2598C71.1066 55.7248 71.1066 56.4898 70.6416 56.9548L68.2416 59.3548C68.0166 59.5798 67.7016 59.6998 67.4016 59.6998ZM73.4016 62.0998C72.7416 62.0998 72.2016 61.5598 72.2016 60.8998V57.2998C72.2016 56.6398 72.7416 56.0998 73.4016 56.0998C74.0616 56.0998 74.6016 56.6398 74.6016 57.2998V60.8998C74.6016 61.5598 74.0616 62.0998 73.4016 62.0998ZM67.4016 53.6998H63.8016C63.1416 53.6998 62.6016 53.1598 62.6016 52.4998C62.6016 51.8398 63.1416 51.2998 63.8016 51.2998H67.4016C68.0616 51.2998 68.6016 51.8398 68.6016 52.4998C68.6016 53.1598 68.0616 53.6998 67.4016 53.6998Z" fill="#432716"/>
<path d="M84.1992 25.8002V14.4002C84.1992 12.9152 82.9842 11.7002 81.4992 11.7002H14.8992C13.4142 11.7002 12.1992 12.9152 12.1992 14.4002V25.8002C12.1992 27.1802 13.2492 28.3352 14.5992 28.4852V39.9452C13.1592 40.7702 12.1992 42.3302 12.1992 44.1002C12.1992 45.8702 13.1592 47.4302 14.5992 48.2552V76.5152C13.2492 76.6652 12.1992 77.8052 12.1992 79.2002V81.0002C12.1992 82.4852 13.4142 83.7002 14.8992 83.7002H81.4992C82.9842 83.7002 84.1992 82.4852 84.1992 81.0002V79.2002C84.1992 77.8202 83.1492 76.6652 81.7992 76.5152V28.4852C83.1492 28.3352 84.1992 27.1802 84.1992 25.8002ZM14.5992 14.4002C14.5992 14.2352 14.7342 14.1002 14.8992 14.1002H48.1992H81.4992C81.6642 14.1002 81.7992 14.2352 81.7992 14.4002V25.8002C81.7992 25.9652 81.6642 26.1002 81.4992 26.1002H80.5992H68.5992H63.7992H58.9992H48.1992H37.3992H15.7992H14.8992C14.7342 26.1002 14.5992 25.9652 14.5992 25.8002V14.4002ZM68.5992 35.7002H74.2992C74.4642 35.7002 74.5992 35.8352 74.5992 36.0002V46.5002H72.1992V39.3002C72.1992 38.6402 71.6592 38.1002 70.9992 38.1002H65.2992C65.1342 38.1002 64.9992 37.9652 64.9992 37.8002V28.5002H67.3992V34.5002C67.3992 35.1602 67.9392 35.7002 68.5992 35.7002ZM72.1992 48.9002H74.5992V51.3002H72.1992V48.9002ZM51.7992 50.1002H52.9992V51.9002C52.9992 52.2302 52.7292 52.5002 52.3992 52.5002C52.0692 52.5002 51.7992 52.2302 51.7992 51.9002V50.1002ZM54.1992 47.7002H50.5992H45.7992H42.1992H39.7992V46.5002V41.7002V40.5002H40.9992H55.3992H56.5992V47.7002H54.1992ZM43.3992 50.1002H44.5992V51.9002C44.5992 52.2302 44.3292 52.5002 43.9992 52.5002C43.6692 52.5002 43.3992 52.2302 43.3992 51.9002V50.1002ZM31.3992 42.9002H37.3992V45.3002H31.3992V42.9002ZM54.1992 38.1002H42.1992V35.7002H54.1992V38.1002ZM55.3992 33.3002H40.9992H38.5992V28.5002H57.7992V33.3002H55.3992ZM16.9992 28.5002H36.1992V34.5002C36.1992 35.1602 36.7392 35.7002 37.3992 35.7002H39.7992V38.1002H38.5992C37.9392 38.1002 37.3992 38.6402 37.3992 39.3002V40.5002H31.3992C31.3992 39.8402 30.8592 39.3002 30.1992 39.3002H16.9992V28.5002ZM16.9992 41.7002H28.9992V46.5002H16.9992C15.6792 46.5002 14.5992 45.4202 14.5992 44.1002C14.5992 42.7802 15.6792 41.7002 16.9992 41.7002ZM30.1992 48.9002C30.8592 48.9002 31.3992 48.3602 31.3992 47.7002H37.3992V48.9002C37.3992 49.5602 37.9392 50.1002 38.5992 50.1002H40.9992V51.9002C40.9992 53.5502 42.3492 54.9002 43.9992 54.9002C45.6492 54.9002 46.9992 53.5502 46.9992 51.9002V50.1002H49.3992V51.9002C49.3992 53.5502 50.7492 54.9002 52.3992 54.9002C54.0492 54.9002 55.3992 53.5502 55.3992 51.9002V50.1002H57.7992C58.4592 50.1002 58.9992 49.5602 58.9992 48.9002V39.3002C58.9992 38.6402 58.4592 38.1002 57.7992 38.1002H56.5992V35.7002H58.9992C59.6592 35.7002 60.1992 35.1602 60.1992 34.5002V28.5002H62.5992V37.8002C62.5992 39.2852 63.8142 40.5002 65.2992 40.5002H69.7992V47.7002V52.5002C69.7992 53.1602 70.3392 53.7002 70.9992 53.7002H75.7992C76.4592 53.7002 76.9992 53.1602 76.9992 52.5002V47.7002V36.0002C76.9992 34.5152 75.7842 33.3002 74.2992 33.3002H69.7992V28.5002H79.3992V76.5002H54.9792C56.5242 75.2552 57.7092 73.6052 58.3842 71.7002H60.1992C61.4742 71.7002 62.6892 71.2052 63.5892 70.2902C64.4892 69.3752 64.9992 68.1752 64.9992 66.9002C64.9992 64.2602 62.8392 62.1002 60.1992 62.1002H58.9992V60.9002C58.9992 60.2402 58.4592 59.7002 57.7992 59.7002H38.5992C37.9392 59.7002 37.3992 60.2402 37.3992 60.9002V68.1002C37.3992 71.4902 38.9742 74.5202 41.4192 76.5002H16.9992V48.9002H30.1992ZM39.7992 68.1002V62.1002H56.5992V68.1002C56.5992 72.7352 52.8342 76.5002 48.1992 76.5002C43.5642 76.5002 39.7992 72.7352 39.7992 68.1002ZM58.9992 64.5002H60.1992C61.5192 64.5002 62.5992 65.5802 62.5992 66.9002C62.5992 67.5452 62.3442 68.1452 61.8942 68.5952C61.4442 69.0452 60.8292 69.3002 60.1992 69.3002H58.9242C58.9692 68.9102 58.9992 68.5052 58.9992 68.1002V64.5002ZM81.7992 81.0002C81.7992 81.1652 81.6642 81.3002 81.4992 81.3002H14.8992C14.7342 81.3002 14.5992 81.1652 14.5992 81.0002V79.2002C14.5992 79.0352 14.7342 78.9002 14.8992 78.9002H15.7992H80.5992H81.4992C81.6642 78.9002 81.7992 79.0352 81.7992 79.2002V81.0002Z" fill="black"/>
<path d="M59 24.9001H78.2C78.86 24.9001 79.4 24.3601 79.4 23.7001V16.5001C79.4 15.8401 78.86 15.3001 78.2 15.3001H59C58.34 15.3001 57.8 15.8401 57.8 16.5001V23.7001C57.8 24.3601 58.34 24.9001 59 24.9001ZM60.2 17.7001H77V22.5001H60.2V17.7001ZM42.2 20.1001C42.2 23.4151 44.885 26.1001 48.2 26.1001C51.515 26.1001 54.2 23.4151 54.2 20.1001C54.2 16.7851 51.515 14.1001 48.2 14.1001C44.885 14.1001 42.2 16.7851 42.2 20.1001ZM48.2 16.5001C48.755 16.5001 49.28 16.6201 49.745 16.8451L47.345 19.2451C46.88 19.7101 46.88 20.4751 47.345 20.9401C47.585 21.1801 47.885 21.2851 48.2 21.2851C48.5 21.2851 48.815 21.1651 49.055 20.9401L51.455 18.5401C51.68 19.0051 51.8 19.5301 51.8 20.0851C51.8 22.0651 50.18 23.6851 48.2 23.6851C46.22 23.6851 44.6 22.0651 44.6 20.0851C44.6 18.1051 46.22 16.5001 48.2 16.5001ZM20.6 23.7001C22.58 23.7001 24.2 22.0801 24.2 20.1001C24.2 18.1201 22.58 16.5001 20.6 16.5001C18.62 16.5001 17 18.1201 17 20.1001C17 22.0801 18.62 23.7001 20.6 23.7001ZM20.6 18.9001C21.26 18.9001 21.8 19.4401 21.8 20.1001C21.8 20.7601 21.26 21.3001 20.6 21.3001C19.94 21.3001 19.4 20.7601 19.4 20.1001C19.4 19.4401 19.94 18.9001 20.6 18.9001ZM31.4 23.7001C33.38 23.7001 35 22.0801 35 20.1001C35 18.1201 33.38 16.5001 31.4 16.5001C29.42 16.5001 27.8 18.1201 27.8 20.1001C27.8 22.0801 29.42 23.7001 31.4 23.7001ZM31.4 18.9001C32.06 18.9001 32.6 19.4401 32.6 20.1001C32.6 20.7601 32.06 21.3001 31.4 21.3001C30.74 21.3001 30.2 20.7601 30.2 20.1001C30.2 19.4401 30.74 18.9001 31.4 18.9001ZM66.545 59.3551C66.785 59.5951 67.085 59.7001 67.4 59.7001C67.7 59.7001 68.015 59.5801 68.255 59.3551L70.655 56.9551C71.12 56.4901 71.12 55.7251 70.655 55.2601C70.19 54.7951 69.425 54.7951 68.96 55.2601L66.56 57.6601C66.08 58.1251 66.08 58.8751 66.545 59.3551ZM73.4 62.1001C74.06 62.1001 74.6 61.5601 74.6 60.9001V57.3001C74.6 56.6401 74.06 56.1001 73.4 56.1001C72.74 56.1001 72.2 56.6401 72.2 57.3001V60.9001C72.2 61.5601 72.74 62.1001 73.4 62.1001ZM63.8 53.7001H67.4C68.06 53.7001 68.6 53.1601 68.6 52.5001C68.6 51.8401 68.06 51.3001 67.4 51.3001H63.8C63.14 51.3001 62.6 51.8401 62.6 52.5001C62.6 53.1601 63.14 53.7001 63.8 53.7001Z" fill="black"/>
</svg>
