<svg width="97" height="96" viewBox="0 0 97 96" fill="none" xmlns="http://www.w3.org/2000/svg">
<g id="cooker-hood">
<path id="Vector" d="M32.002 4.5H65.002V46.5H32.002V4.5ZM47.3455 93C47.0651 93.0005 46.7903 92.9223 46.5522 92.7743C46.314 92.6263 46.1222 92.4145 45.9985 92.163C44.437 88.998 45.994 86.604 47.245 84.6825C48.4435 82.839 49.084 81.7215 48.3145 80.163C48.1384 79.8062 48.1114 79.394 48.2392 79.0172C48.3671 78.6404 48.6394 78.3298 48.9962 78.1538C49.3531 77.9777 49.7652 77.9506 50.142 78.0785C50.5188 78.2063 50.8294 78.4787 51.0055 78.8355C52.567 82.0005 51.01 84.3945 49.759 86.316C48.5605 88.1595 47.92 89.277 48.6895 90.8355C48.8024 91.0641 48.8553 91.3178 48.8429 91.5725C48.8306 91.8272 48.7535 92.0746 48.619 92.2913C48.4845 92.5079 48.2969 92.6867 48.0741 92.8107C47.8513 92.9347 47.6005 92.9999 47.3455 93ZM57.7705 93C57.4901 93.0005 57.2153 92.9223 56.9772 92.7743C56.739 92.6263 56.5472 92.4145 56.4235 92.163C54.862 88.998 56.419 86.604 57.67 84.6825C58.8685 82.839 59.509 81.7215 58.7395 80.163C58.5634 79.8062 58.5364 79.394 58.6642 79.0172C58.7921 78.6404 59.0644 78.3298 59.4212 78.1538C59.7781 77.9777 60.1902 77.9506 60.567 78.0785C60.9438 78.2063 61.2544 78.4787 61.4305 78.8355C62.992 82.0005 61.435 84.3945 60.184 86.316C58.9855 88.1595 58.345 89.277 59.1145 90.8355C59.2274 91.0641 59.2803 91.3178 59.2679 91.5725C59.2556 91.8272 59.1785 92.0746 59.044 92.2913C58.9095 92.5079 58.7219 92.6867 58.4991 92.8107C58.2763 92.9347 58.0255 92.9999 57.7705 93ZM68.194 93C67.9136 93.0005 67.6388 92.9223 67.4007 92.7743C67.1626 92.6263 66.9707 92.4145 66.847 92.163C65.2855 88.998 66.8425 86.604 68.0935 84.6825C69.292 82.839 69.9325 81.7215 69.163 80.163C68.9869 79.8062 68.9599 79.394 69.0877 79.0172C69.2156 78.6404 69.4879 78.3298 69.8447 78.1538C70.2016 77.9777 70.6137 77.9506 70.9905 78.0785C71.3673 78.2063 71.6779 78.4787 71.854 78.8355C73.4155 82.0005 71.8585 84.3945 70.6075 86.316C69.409 88.1595 68.7685 89.277 69.538 90.8355C69.6509 91.0641 69.7038 91.3178 69.6914 91.5725C69.6791 91.8272 69.602 92.0746 69.4675 92.2913C69.333 92.5079 69.1454 92.6867 68.9226 92.8107C68.6998 92.9347 68.449 92.9999 68.194 93ZM26.497 93C26.2166 93.0005 25.9418 92.9223 25.7037 92.7743C25.4655 92.6263 25.2737 92.4145 25.15 92.163C23.5885 88.998 25.1455 86.604 26.3965 84.6825C27.595 82.839 28.2355 81.7215 27.466 80.163C27.2899 79.8062 27.2629 79.394 27.3907 79.0172C27.5186 78.6404 27.7909 78.3298 28.1477 78.1538C28.5046 77.9777 28.9167 77.9506 29.2935 78.0785C29.6703 78.2063 29.9809 78.4787 30.157 78.8355C31.7185 82.0005 30.1615 84.3945 28.9105 86.316C27.712 88.1595 27.0715 89.277 27.841 90.8355C27.9539 91.0641 28.0068 91.3178 27.9944 91.5725C27.9821 91.8272 27.905 92.0746 27.7705 92.2913C27.636 92.5079 27.4484 92.6867 27.2256 92.8107C27.0028 92.9347 26.752 92.9999 26.497 93ZM36.9205 93C36.6401 93.0005 36.3653 92.9223 36.1272 92.7743C35.889 92.6263 35.6972 92.4145 35.5735 92.163C34.012 88.998 35.569 86.604 36.82 84.6825C38.0185 82.839 38.659 81.7215 37.8895 80.163C37.8023 79.9863 37.7508 79.7942 37.7379 79.5976C37.725 79.401 37.7509 79.2038 37.8142 79.0172C37.8775 78.8306 37.9769 78.6583 38.1068 78.5102C38.2367 78.362 38.3945 78.2409 38.5712 78.1538C38.9281 77.9777 39.3402 77.9506 39.717 78.0785C40.0938 78.2063 40.4044 78.4787 40.5805 78.8355C42.142 82.0005 40.585 84.3945 39.334 86.316C38.1355 88.1595 37.495 89.277 38.2645 90.8355C38.3774 91.0641 38.4303 91.3178 38.4179 91.5725C38.4056 91.8272 38.3285 92.0746 38.194 92.2913C38.0595 92.5079 37.8719 92.6867 37.6491 92.8107C37.4263 92.9347 37.1755 92.9999 36.9205 93Z" fill="#CCCCCC"/>
<path id="Vector_2" d="M66.5 13.5H30.5C30.1022 13.5 29.7206 13.342 29.4393 13.0607C29.158 12.7794 29 12.3978 29 12C29 11.6022 29.158 11.2206 29.4393 10.9393C29.7206 10.658 30.1022 10.5 30.5 10.5H66.5C66.8978 10.5 67.2794 10.658 67.5607 10.9393C67.842 11.2206 68 11.6022 68 12C68 12.3978 67.842 12.7794 67.5607 13.0607C67.2794 13.342 66.8978 13.5 66.5 13.5ZM66.5 22.5H30.5C30.1022 22.5 29.7206 22.342 29.4393 22.0607C29.158 21.7794 29 21.3978 29 21C29 20.6022 29.158 20.2206 29.4393 19.9393C29.7206 19.658 30.1022 19.5 30.5 19.5H66.5C66.8978 19.5 67.2794 19.658 67.5607 19.9393C67.842 20.2206 68 20.6022 68 21C68 21.3978 67.842 21.7794 67.5607 22.0607C67.2794 22.342 66.8978 22.5 66.5 22.5ZM66.5 31.5H30.5C30.1022 31.5 29.7206 31.342 29.4393 31.0607C29.158 30.7794 29 30.3978 29 30C29 29.6022 29.158 29.2206 29.4393 28.9393C29.7206 28.658 30.1022 28.5 30.5 28.5H66.5C66.8978 28.5 67.2794 28.658 67.5607 28.9393C67.842 29.2206 68 29.6022 68 30C68 30.3978 67.842 30.7794 67.5607 31.0607C67.2794 31.342 66.8978 31.5 66.5 31.5ZM66.5 40.5H30.5C30.1022 40.5 29.7206 40.342 29.4393 40.0607C29.158 39.7794 29 39.3978 29 39C29 38.6022 29.158 38.2206 29.4393 37.9393C29.7206 37.658 30.1022 37.5 30.5 37.5H66.5C66.8978 37.5 67.2794 37.658 67.5607 37.9393C67.842 38.2206 68 38.6022 68 39C68 39.3978 67.842 39.7794 67.5607 40.0607C67.2794 40.342 66.8978 40.5 66.5 40.5ZM89 73.5H8C7.20435 73.5 6.44129 73.1839 5.87868 72.6213C5.31607 72.0587 5 71.2956 5 70.5V61.5L30.5 46.5H66.5L92 61.5V70.5C92 71.2956 91.6839 72.0587 91.1213 72.6213C90.5587 73.1839 89.7956 73.5 89 73.5Z" fill="#13277E"/>
<path id="Vector_3" d="M5 70.5C5 71.2956 5.31607 72.0587 5.87868 72.6213C6.44129 73.1839 7.20435 73.5 8 73.5H89C89.7956 73.5 90.5587 73.1839 91.1213 72.6213C91.6839 72.0587 92 71.2956 92 70.5V61.5H5V70.5Z" fill="#2B8AFC"/>
<path id="Vector_4" d="M84.5 66H87.5V69H84.5V66ZM78.5 66H81.5V69H78.5V66ZM72.5 66H75.5V69H72.5V66ZM9.5 66H12.5V69H9.5V66ZM45.5 66H63.5V69H45.5V66ZM39.5 66H42.5V69H39.5V66ZM21.5 66H36.5V69H21.5V66Z" fill="#F9F9F9"/>
<path id="Vector_5" d="M66.5 61.5H69.5V73.5H66.5V61.5ZM15.5 61.5H18.5V73.5H15.5V61.5Z" fill="#13277E"/>
</g>
</svg>
