<svg width="97" height="96" viewBox="0 0 97 96" fill="none" xmlns="http://www.w3.org/2000/svg">
<g id="fridge">
<g id="&#60;Group&#62;">
<g id="&#60;Group&#62;_2">
<g id="&#60;Group&#62;_3">
<path id="&#60;Compound Path&#62;" d="M82.25 14.25V81.75C82.25 83.7391 81.4598 85.6468 80.0533 87.0533C78.6468 88.4598 76.7391 89.25 74.75 89.25H41V6.75H74.75C76.7391 6.75 78.6468 7.54018 80.0533 8.9467C81.4598 10.3532 82.25 12.2609 82.25 14.25ZM71.9375 53.25V38.8125H58.8125V53.25H71.9375Z" fill="#2B8AFC"/>
</g>
<g id="&#60;Group&#62;_4">
<path id="&#60;Path&#62;" d="M71.9375 44.4375H58.8125V53.25H71.9375V44.4375Z" fill="#13277E"/>
</g>
<g id="&#60;Group&#62;_5">
<path id="&#60;Path&#62;_2" d="M71.9375 38.8125H58.8125V44.4375H71.9375V38.8125Z" fill="#FEDB41"/>
</g>
<g id="&#60;Group&#62;_6">
<path id="&#60;Path&#62;_3" d="M41 6.75V89.25H22.25C20.2609 89.25 18.3532 88.4598 16.9467 87.0533C15.5402 85.6468 14.75 83.7391 14.75 81.75V14.25C14.75 12.2609 15.5402 10.3532 16.9467 8.9467C18.3532 7.54018 20.2609 6.75 22.25 6.75H41Z" fill="#13277E"/>
</g>
</g>
<g id="&#60;Group&#62;_7">
<g id="&#60;Group&#62;_8">
<path id="&#60;Path&#62;_4" d="M48.5 55.125C48.0027 55.125 47.5258 54.9275 47.1742 54.5758C46.8225 54.2242 46.625 53.7473 46.625 53.25V38.8125C46.625 38.3152 46.8225 37.8383 47.1742 37.4867C47.5258 37.135 48.0027 36.9375 48.5 36.9375C48.9973 36.9375 49.4742 37.135 49.8258 37.4867C50.1775 37.8383 50.375 38.3152 50.375 38.8125V53.25C50.375 53.7473 50.1775 54.2242 49.8258 54.5758C49.4742 54.9275 48.9973 55.125 48.5 55.125Z" fill="#D4E1F4"/>
</g>
<g id="&#60;Group&#62;_9">
<path id="&#60;Path&#62;_5" d="M33.5 55.125C33.0027 55.125 32.5258 54.9275 32.1742 54.5758C31.8225 54.2242 31.625 53.7473 31.625 53.25V38.8125C31.625 38.3152 31.8225 37.8383 32.1742 37.4867C32.5258 37.135 33.0027 36.9375 33.5 36.9375C33.9973 36.9375 34.4742 37.135 34.8258 37.4867C35.1775 37.8383 35.375 38.3152 35.375 38.8125V53.25C35.375 53.7473 35.1775 54.2242 34.8258 54.5758C34.4742 54.9275 33.9973 55.125 33.5 55.125Z" fill="#D4E1F4"/>
</g>
</g>
</g>
</g>
</svg>
