<svg width="97" height="96" viewBox="0 0 97 96" fill="none" xmlns="http://www.w3.org/2000/svg">
<g id="hoursglass">
<path id="Vector" d="M77.7621 73.2621H77.1221V22.7026H77.7621C81.1221 22.7026 83.8422 19.9826 83.8422 16.4626C83.8422 13.1026 81.1221 10.2227 77.7621 10.2227H19.201C15.841 10.2227 12.9609 12.9426 12.9609 16.4626C12.9609 19.8226 15.681 22.7026 19.201 22.7026H19.8411V73.2621H19.201C15.841 73.2621 12.9609 75.9821 12.9609 79.3421C12.9609 82.7021 15.681 85.582 19.201 85.582H77.7621C81.1221 85.582 83.8422 82.8621 83.8422 79.3421C83.8422 75.9821 81.1221 73.2621 77.7621 73.2621ZM43.3615 44.7824L32.9613 33.9025C32.0013 32.7825 31.3613 31.3425 31.3613 29.9025V22.7026H65.4419V29.7425C65.4419 31.1825 64.8018 32.6225 63.8418 33.7425L53.6017 44.7824C51.8416 46.5424 51.8416 49.4223 53.6017 51.1823L64.0018 62.2222C64.9619 63.3422 65.6019 64.7822 65.6019 66.2222V73.2621H31.5213V66.2222C31.5213 64.7822 32.1613 63.3422 33.1213 62.2222L43.5215 51.3423C45.1215 49.4223 45.1215 46.5424 43.3615 44.7824ZM73.922 73.2621H68.8019V66.2222C68.8019 63.8222 67.8419 61.7422 66.2419 59.9822L55.8417 48.9423C55.3617 48.4623 55.3617 47.5023 55.8417 47.0224L66.2419 35.9824C67.8419 34.2225 68.8019 32.1425 68.8019 29.7425V22.7026H73.922V73.2621ZM23.0411 22.7026H28.1612V29.7425C28.1612 32.1425 29.1212 34.2225 30.7212 35.9824L41.1214 47.0224C41.6014 47.5023 41.6014 48.4623 41.1214 48.9423L30.7212 59.8222C29.1212 61.5822 28.1612 63.6622 28.1612 66.0622V73.1021H23.0411V22.7026Z" fill="#13277E"/>
<path id="Vector_2" d="M47.0427 44.6174L48.4827 47.4974L49.9228 44.4574C50.2428 43.8174 50.7228 43.1774 51.2028 42.5374L60.323 32.9375H36.6425L45.7627 42.5374C46.2427 43.1774 46.7227 43.8174 47.0427 44.6174ZM34.5625 66.2172V70.2172H62.403V66.2172C62.403 65.5772 62.083 64.7772 61.603 64.2972L51.2028 53.4173C50.7228 52.7773 50.2428 52.1373 49.9228 51.4973L48.4827 48.4574L47.0427 51.3373C46.7227 51.9773 46.2427 52.6173 45.7627 53.2573L35.3625 64.1372C34.8825 64.7772 34.5625 65.4172 34.5625 66.2172Z" fill="#2B8AFC"/>
</g>
</svg>
