<svg width="97" height="96" viewBox="0 0 97 96" fill="none" xmlns="http://www.w3.org/2000/svg">
<g id="iron">
<path id="Vector" d="M81.5 18V33H75.5V18H81.5Z" fill="#B2FCFF"/>
<path id="Vector_2" d="M45.5 30H57.5V33H45.5V30Z" fill="#ECFCFF"/>
<path id="Vector_3" d="M81.5 39V66H15.5V63C15.5 56.6348 18.0286 50.5303 22.5294 46.0294C27.0303 41.5286 33.1348 39 39.5 39H81.5Z" fill="#2B8AFC"/>
<path id="Vector_4" d="M12.5 72H84.5V78H12.5V72Z" fill="#B2FCFF"/>
<path id="Vector_5" d="M81.5 33V18H75.5V33H81.5ZM84.5 72H12.5V78H84.5V72ZM39.5 30C39.5 28.4087 40.1321 26.8826 41.2574 25.7574C42.3826 24.6321 43.9087 24 45.5 24H57.5C59.0913 24 60.6174 24.6321 61.7426 25.7574C62.8679 26.8826 63.5 28.4087 63.5 30V33H69.5V18H42.5C41.7044 18 40.9413 17.6839 40.3787 17.1213C39.8161 16.5587 39.5 15.7956 39.5 15C39.5 14.2044 39.8161 13.4413 40.3787 12.8787C40.9413 12.3161 41.7044 12 42.5 12H84.5C85.2956 12 86.0587 12.3161 86.6213 12.8787C87.1839 13.4413 87.5 14.2044 87.5 15V66.84C88.4068 67.3635 89.1609 68.1153 89.6872 69.0205C90.2134 69.9257 90.4937 70.9529 90.5 72V78C90.5 79.5913 89.8679 81.1174 88.7426 82.2426C87.6174 83.3679 86.0913 84 84.5 84H12.5C10.9087 84 9.38258 83.3679 8.25736 82.2426C7.13214 81.1174 6.5 79.5913 6.5 78V69C6.5 68.2044 6.81607 67.4413 7.37868 66.8787C7.94129 66.3161 8.70435 66 9.5 66V63C9.5 55.0435 12.6607 47.4129 18.2868 41.7868C23.9129 36.1607 31.5435 33 39.5 33V30ZM60.5 39H39.5C33.1348 39 27.0303 41.5286 22.5294 46.0294C18.0286 50.5303 15.5 56.6348 15.5 63V66H81.5V39H60.5ZM45.5 30V33H57.5V30H45.5Z" fill="#13277E"/>
</g>
</svg>
