<svg width="96" height="96" viewBox="0 0 96 96" fill="none" xmlns="http://www.w3.org/2000/svg">
    <path d="M89.5622 36.837C89.5622 37.233 89.2382 37.557 88.8422 37.557H49.9622C49.5662 37.557 49.2422 37.233 49.2422 36.837V16.677C49.2422 16.281 49.5662 15.957 49.9622 15.957H88.8422C89.2382 15.957 89.5622 16.281 89.5622 16.677V36.837Z" fill="#2B8AFC"/>
    <path d="M70.1197 15.957H68.6797V37.557H70.1197V15.957Z" fill="#13277E"/>
    <rect x="56.2031" y="32.2812" width="6" height="1.8" rx="0.9" fill="#C6D3FF"/>
    <rect x="76.6016" y="32.2812" width="6" height="1.8" rx="0.9" fill="#C6D3FF"/>
    <path d="M89.5622 36.837C89.5622 37.233 89.2382 37.557 88.8422 37.557H49.9622C49.5662 37.557 49.2422 37.233 49.2422 36.837V16.677C49.2422 16.281 49.5662 15.957 49.9622 15.957H88.8422C89.2382 15.957 89.5622 16.281 89.5622 16.677V36.837Z" fill="#2B8AFC"/>
    <path d="M70.1197 15.957H68.6797V37.557H70.1197V15.957Z" fill="#13277E"/>
    <rect x="56.2031" y="32.2812" width="6" height="1.8" rx="0.9" fill="#C6D3FF"/>
    <rect x="76.6016" y="32.2812" width="6" height="1.8" rx="0.9" fill="#C6D3FF"/>
    <path d="M47.5622 36.837C47.5622 37.233 47.2382 37.557 46.8422 37.557H7.96219C7.56619 37.557 7.24219 37.233 7.24219 36.837V16.677C7.24219 16.281 7.56619 15.957 7.96219 15.957H46.8422C47.2382 15.957 47.5622 16.281 47.5622 16.677V36.837Z" fill="#2B8AFC"/>
    <path d="M28.1197 15.957H26.6797V37.557H28.1197V15.957Z" fill="#13277E"/>
    <rect x="14.2031" y="32.2812" width="6" height="1.8" rx="0.9" fill="#C6D3FF"/>
    <rect x="34.6016" y="32.2812" width="6" height="1.8" rx="0.9" fill="#C6D3FF"/>
    <path d="M90.7575 47.6367H50.4375V74.2767H90.7575V47.6367Z" fill="#2B8AFC"/>
    <path d="M65.565 47.6367H64.125V74.2767H65.565V47.6367Z" fill="#13277E"/>
    <path d="M78.8775 47.6367H77.4375V74.2767H78.8775V47.6367Z" fill="#13277E"/>
    <path d="M64.8427 56.9986H50.4427C50.0452 56.9986 49.7227 56.676 49.7227 56.2786C49.7227 55.8812 50.0452 55.5586 50.4427 55.5586H64.8427C65.2401 55.5586 65.5627 55.8812 65.5627 56.2786C65.5627 56.676 65.2401 56.9986 64.8427 56.9986ZM64.8427 66.3586H50.4427C50.0452 66.3586 49.7227 66.036 49.7227 65.6386C49.7227 65.2412 50.0452 64.9186 50.4427 64.9186H64.8427C65.2401 64.9186 65.5627 65.2412 65.5627 65.6386C65.5627 66.036 65.2401 66.3586 64.8427 66.3586Z" fill="#13277E"/>
    <path d="M51.0422 47.6367H7.24219V74.2767H51.0422V47.6367Z" fill="#2B8AFC"/>
    <path d="M51.1622 47.6378H7.24219V45.4807L8.45975 44.7578H51.1622V47.6378Z" fill="#F9F9F9"/>
    <path d="M90.7575 47.6378H50.4375V44.7578H90.0361L90.7575 45.4778V47.6378Z" fill="#F9F9F9"/>
    <path d="M51.1622 76.4373H8.45975L7.24219 75.7173V74.2773H51.1622V76.4373Z" fill="#F9F9F9"/>
    <path d="M90.0361 76.4373H50.4375V74.2773H90.7575V75.7173L90.0361 76.4373Z" fill="#F9F9F9"/>
    <path d="M20.9166 47.6367H19.4766V74.2767H20.9166V47.6367Z" fill="#13277E"/>
    <path d="M52.1197 47.6367H50.6797V74.2767H52.1197V47.6367Z" fill="#13277E"/>
    <path d="M36.5181 47.6367H35.0781V74.2767H36.5181V47.6367Z" fill="#13277E"/>
    <rect x="40.8398" y="51.957" width="6" height="1.8" rx="0.9" fill="#C6D3FF"/>
    <rect x="55.2422" y="50.7578" width="6" height="1.8" rx="0.9" fill="#C6D3FF"/>
    <rect x="68.4375" y="50.7578" width="6" height="1.8" rx="0.9" fill="#C6D3FF"/>
    <rect x="81.6406" y="50.7578" width="6" height="1.8" rx="0.9" fill="#C6D3FF"/>
    <rect x="55.2422" y="60.3555" width="6" height="1.8" rx="0.9" fill="#C6D3FF"/>
    <rect x="55.2422" y="69.957" width="6" height="1.8" rx="0.9" fill="#C6D3FF"/>
    <rect x="25.2422" y="51.957" width="6" height="1.8" rx="0.9" fill="#C6D3FF"/>
    <rect x="10.8398" y="51.957" width="6" height="1.8" rx="0.9" fill="#C6D3FF"/>
</svg>
