<svg width="97" height="96" viewBox="0 0 97 96" fill="none" xmlns="http://www.w3.org/2000/svg">
<path d="M95.75 56.25H53.75V84H95.75V56.25Z" fill="#13277E"/>
<path d="M69.5 56.25H68V84H69.5V56.25Z" fill="#2B8AFC"/>
<path d="M83.375 56.25H81.875V84H83.375V56.25Z" fill="#2B8AFC"/>
<path d="M68.75 66H53.75C53.336 66 53 65.664 53 65.25C53 64.836 53.336 64.5 53.75 64.5H68.75C69.164 64.5 69.5 64.836 69.5 65.25C69.5 65.664 69.164 66 68.75 66ZM68.75 75.75H53.75C53.336 75.75 53 75.414 53 75C53 74.586 53.336 74.25 53.75 74.25H68.75C69.164 74.25 69.5 74.586 69.5 75C69.5 75.414 69.164 75.75 68.75 75.75Z" fill="#2B8AFC"/>
<path d="M38.75 54.0029H31.25C30.836 54.0029 30.5 53.6669 30.5 53.2529C30.5 52.8389 30.836 52.5029 31.25 52.5029H38.75C39.164 52.5029 39.5 52.8389 39.5 53.2529C39.5 53.6669 39.164 54.0029 38.75 54.0029ZM50.75 54.0029H43.25C42.836 54.0029 42.5 53.6669 42.5 53.2529C42.5 52.8389 42.836 52.5029 43.25 52.5029H50.75C51.164 52.5029 51.5 52.8389 51.5 53.2529C51.5 53.6669 51.164 54.0029 50.75 54.0029Z" fill="#545C66"/>
<path d="M53.75 53.25H28.25V86.25H53.75V53.25Z" fill="#656D78"/>
<path d="M28.25 31.5C28.25 31.9125 27.9125 32.25 27.5 32.25H2C1.5875 32.25 1.25 31.9125 1.25 31.5V10.5C1.25 10.0875 1.5875 9.75 2 9.75H27.5C27.9125 9.75 28.25 10.0875 28.25 10.5V31.5Z" fill="#13277E"/>
<path d="M28.25 56.25H1.25V84H28.25V56.25Z" fill="#13277E"/>
<path d="M95.75 31.5C95.75 31.9125 95.4125 32.25 95 32.25H54.5C54.0875 32.25 53.75 31.9125 53.75 31.5V10.5C53.75 10.0875 54.0875 9.75 54.5 9.75H95C95.4125 9.75 95.75 10.0875 95.75 10.5V31.5Z" fill="#13277E"/>
<path d="M28.25 56.25H1.25V54.003L1.9985 53.25H28.25V56.25Z" fill="#E6E9ED"/>
<path d="M95.75 56.25H53.75V53.25H94.9985L95.75 54V56.25Z" fill="#E6E9ED"/>
<path d="M28.25 86.25H1.9985L1.25 85.5V84H28.25V86.25Z" fill="#E6E9ED"/>
<path d="M94.9985 86.25H53.75V84H95.75V85.5L94.9985 86.25Z" fill="#E6E9ED"/>
<path d="M91.25 50.25H73.25V53.25H91.25V50.25Z" fill="#FFCE54"/>
<path d="M51.5015 83.25C51.5015 83.6625 51.164 84 50.7515 84H31.25C30.8375 84 30.5 83.6625 30.5 83.25V63C30.5 62.5875 30.8375 62.25 31.25 62.25H50.7515C51.164 62.25 51.5015 62.5875 51.5015 63V83.25Z" fill="#5D9CEC"/>
<path d="M44.75 9.75H37.25V21.7485H44.75V9.75Z" fill="#CCD1D9"/>
<path d="M49.25 21.7471H32.75C31.9205 21.7471 31.25 22.4176 31.25 23.2471V25.4986L31.9985 26.2486H50L50.75 25.4986V23.2471C50.75 22.4176 50.0795 21.7471 49.25 21.7471Z" fill="#E6E9ED"/>
<path opacity="0.2" d="M91.25 51.75H73.25V53.25H91.25V51.75Z" fill="#F9F9F9"/>
<path d="M32.7927 57C32.3787 57 32.0352 56.664 32.0352 56.25C32.0352 55.836 32.3637 55.5 32.7777 55.5H32.7942C33.2067 55.5 33.5442 55.836 33.5442 56.25C33.5442 56.664 33.2067 57 32.7927 57ZM49.2927 57C48.8787 57 48.5352 56.664 48.5352 56.25C48.5352 55.836 48.8637 55.5 49.2777 55.5H49.2942C49.7067 55.5 50.0442 55.836 50.0442 56.25C50.0442 56.664 49.7067 57 49.2927 57ZM35.7927 58.5C35.3787 58.5 35.0352 58.164 35.0352 57.75C35.0352 57.336 35.3637 57 35.7777 57H35.7942C36.2067 57 36.5442 57.336 36.5442 57.75C36.5442 58.164 36.2067 58.5 35.7927 58.5ZM46.2927 58.5C45.8787 58.5 45.5352 58.164 45.5352 57.75C45.5352 57.336 45.8637 57 46.2777 57H46.2942C46.7067 57 47.0442 57.336 47.0442 57.75C47.0442 58.164 46.7067 58.5 46.2927 58.5Z" fill="#AAB2BD"/>
<path d="M62.75 61.125H59.75C59.336 61.125 59 60.789 59 60.375C59 59.961 59.336 59.625 59.75 59.625H62.75C63.164 59.625 63.5 59.961 63.5 60.375C63.5 60.789 63.164 61.125 62.75 61.125ZM23 61.125H20C19.586 61.125 19.25 60.789 19.25 60.375C19.25 59.961 19.586 59.625 20 59.625H23C23.414 59.625 23.75 59.961 23.75 60.375C23.75 60.789 23.414 61.125 23 61.125ZM9.5 61.125H6.5C6.086 61.125 5.75 60.789 5.75 60.375C5.75 59.961 6.086 59.625 6.5 59.625H9.5C9.914 59.625 10.25 59.961 10.25 60.375C10.25 60.789 9.914 61.125 9.5 61.125ZM77.1875 61.125H74.1875C73.7735 61.125 73.4375 60.789 73.4375 60.375C73.4375 59.961 73.7735 59.625 74.1875 59.625H77.1875C77.6015 59.625 77.9375 59.961 77.9375 60.375C77.9375 60.789 77.6015 61.125 77.1875 61.125ZM65.375 28.5H62.375C61.961 28.5 61.625 28.164 61.625 27.75C61.625 27.336 61.961 27 62.375 27H65.375C65.789 27 66.125 27.336 66.125 27.75C66.125 28.164 65.789 28.5 65.375 28.5ZM87.125 28.5H84.125C83.711 28.5 83.375 28.164 83.375 27.75C83.375 27.336 83.711 27 84.125 27H87.125C87.539 27 87.875 27.336 87.875 27.75C87.875 28.164 87.539 28.5 87.125 28.5ZM16.25 28.5H13.25C12.836 28.5 12.5 28.164 12.5 27.75C12.5 27.336 12.836 27 13.25 27H16.25C16.664 27 17 27.336 17 27.75C17 28.164 16.664 28.5 16.25 28.5ZM91.0625 61.125H88.0625C87.6485 61.125 87.3125 60.789 87.3125 60.375C87.3125 59.961 87.6485 59.625 88.0625 59.625H91.0625C91.4765 59.625 91.8125 59.961 91.8125 60.375C91.8125 60.789 91.4765 61.125 91.0625 61.125Z" fill="#E6E9ED"/>
<path d="M43.25 58.5H38.75C38.336 58.5 38 58.164 38 57.75C38 57.336 38.336 57 38.75 57H43.25C43.664 57 44 57.336 44 57.75C44 58.164 43.664 58.5 43.25 58.5Z" fill="#545C66"/>
<path d="M47.75 66H34.25C33.836 66 33.5 65.664 33.5 65.25C33.5 64.836 33.836 64.5 34.25 64.5H47.75C48.164 64.5 48.5 64.836 48.5 65.25C48.5 65.664 48.164 66 47.75 66Z" fill="#4A89DC"/>
<path d="M73.25 50.25H91.25" stroke="#3A3847" stroke-width="1.5" stroke-miterlimit="10" stroke-linecap="round" stroke-linejoin="round"/>
<path d="M73.25 50.25V51.75" stroke="#3A3847" stroke-width="1.5" stroke-miterlimit="10" stroke-linecap="round" stroke-linejoin="round"/>
<path d="M91.25 50.25V51.75" stroke="#3A3847" stroke-width="1.5" stroke-miterlimit="10" stroke-linecap="round" stroke-linejoin="round"/>
<path d="M82.25 48.75V44.25" stroke="#3A3847" stroke-width="1.5" stroke-miterlimit="10" stroke-linecap="round" stroke-linejoin="round"/>
<path d="M85.25 50.25V48.75" stroke="#3A3847" stroke-width="1.5" stroke-miterlimit="10" stroke-linecap="round" stroke-linejoin="round"/>
<path d="M79.25 50.25V48.75" stroke="#3A3847" stroke-width="1.5" stroke-miterlimit="10" stroke-linecap="round" stroke-linejoin="round"/>
<path d="M75.5 9.75H74V32.25H75.5V9.75Z" fill="#2B8AFC"/>
<path d="M35.75 32.844C35.336 32.844 35 32.508 35 32.094V29.25C35 28.836 35.336 28.5 35.75 28.5C36.164 28.5 36.5 28.836 36.5 29.25V32.094C36.5 32.5095 36.164 32.844 35.75 32.844ZM46.25 32.844C45.836 32.844 45.5 32.508 45.5 32.094V29.25C45.5 28.836 45.836 28.5 46.25 28.5C46.664 28.5 47 28.836 47 29.25V32.094C47 32.5095 46.664 32.844 46.25 32.844ZM41 35.844C40.586 35.844 40.25 35.508 40.25 35.094V29.25C40.25 28.836 40.586 28.5 41 28.5C41.414 28.5 41.75 28.836 41.75 29.25V35.094C41.75 35.5095 41.414 35.844 41 35.844ZM62.75 70.875H59.75C59.336 70.875 59 70.539 59 70.125C59 69.711 59.336 69.375 59.75 69.375H62.75C63.164 69.375 63.5 69.711 63.5 70.125C63.5 70.539 63.164 70.875 62.75 70.875ZM62.75 80.625H59.75C59.336 80.625 59 80.289 59 79.875C59 79.461 59.336 79.125 59.75 79.125H62.75C63.164 79.125 63.5 79.461 63.5 79.875C63.5 80.289 63.164 80.625 62.75 80.625Z" fill="#E6E9ED"/>
<path d="M15.5 56.25H14V84H15.5V56.25Z" fill="#2B8AFC"/>
<path d="M32 26.25C32.4142 26.25 32.75 25.9142 32.75 25.5C32.75 25.0858 32.4142 24.75 32 24.75C31.5858 24.75 31.25 25.0858 31.25 25.5C31.25 25.9142 31.5858 26.25 32 26.25Z" fill="#E6E9ED"/>
<path d="M50 26.25C50.4142 26.25 50.75 25.9142 50.75 25.5C50.75 25.0858 50.4142 24.75 50 24.75C49.5858 24.75 49.25 25.0858 49.25 25.5C49.25 25.9142 49.5858 26.25 50 26.25Z" fill="#E6E9ED"/>
<path d="M95 54.75C95.4142 54.75 95.75 54.4142 95.75 54C95.75 53.5858 95.4142 53.25 95 53.25C94.5858 53.25 94.25 53.5858 94.25 54C94.25 54.4142 94.5858 54.75 95 54.75Z" fill="#E6E9ED"/>
<path d="M95 86.25C95.4142 86.25 95.75 85.9142 95.75 85.5C95.75 85.0858 95.4142 84.75 95 84.75C94.5858 84.75 94.25 85.0858 94.25 85.5C94.25 85.9142 94.5858 86.25 95 86.25Z" fill="#E6E9ED"/>
<path d="M2 86.25C2.41421 86.25 2.75 85.9142 2.75 85.5C2.75 85.0858 2.41421 84.75 2 84.75C1.58579 84.75 1.25 85.0858 1.25 85.5C1.25 85.9142 1.58579 86.25 2 86.25Z" fill="#E6E9ED"/>
<path d="M2 54.7529C2.41421 54.7529 2.75 54.4171 2.75 54.0029C2.75 53.5887 2.41421 53.2529 2 53.2529C1.58579 53.2529 1.25 53.5887 1.25 54.0029C1.25 54.4171 1.58579 54.7529 2 54.7529Z" fill="#E6E9ED"/>
</svg>
