<svg width="97" height="96" viewBox="0 0 97 96" fill="none" xmlns="http://www.w3.org/2000/svg">
<g id="laundry">
<path id="Vector" d="M79.1419 26.2107V84.3151C79.1421 84.9113 79.0249 85.5016 78.7968 86.0525C78.5688 86.6034 78.2344 87.1039 77.8129 87.5254C77.3913 87.947 76.8908 88.2814 76.3399 88.5094C75.7891 88.7374 75.1987 88.8547 74.6025 88.8545H22.3988C21.8026 88.8547 21.2122 88.7374 20.6613 88.5094C20.1105 88.2814 19.6099 87.947 19.1884 87.5254C18.7668 87.1039 18.4324 86.6034 18.2044 86.0525C17.9764 85.5016 17.8591 84.9113 17.8594 84.3151V26.2107H79.1419ZM69.7444 57.3751C69.7444 53.1735 68.4985 49.0662 66.1642 45.5727C63.8299 42.0792 60.512 39.3563 56.6303 37.7484C52.7485 36.1405 48.4771 35.7198 44.3562 36.5395C40.2353 37.3592 36.45 39.3825 33.479 42.3535C30.508 45.3245 28.4848 49.1097 27.6651 53.2306C26.8454 57.3515 27.2661 61.6229 28.874 65.5047C30.4818 69.3865 33.2047 72.7043 36.6982 75.0386C40.1917 77.3729 44.299 78.6188 48.5006 78.6188C54.1348 78.6188 59.5382 76.3806 63.5222 72.3967C67.5062 68.4127 69.7444 63.0093 69.7444 57.3751Z" fill="#00EFD1"/>
<path id="Vector_2" d="M79.1404 11.6849V26.2105H46.2285V7.14551H74.601C75.1972 7.14526 75.7876 7.26251 76.3385 7.49055C76.8893 7.71858 77.3898 8.05294 77.8114 8.47451C78.233 8.89608 78.5673 9.39659 78.7954 9.94745C79.0234 10.4983 79.1406 11.0887 79.1404 11.6849Z" fill="#F4B844"/>
<path id="Vector_3" d="M60.7396 64.0988C62.214 61.4158 62.7658 58.3227 62.3102 55.2954C61.8546 52.2681 60.4168 49.4744 58.2181 47.3441C56.0194 45.2139 53.1816 43.8652 50.1414 43.5056C47.1012 43.146 44.027 43.7955 41.392 45.3539C38.757 46.9124 36.7071 49.2936 35.5578 52.1311C34.4086 54.9686 34.2235 58.1051 35.0313 61.058C35.839 64.011 37.5947 66.6166 40.0282 68.4741C42.4617 70.3316 45.4382 71.3379 48.4996 71.3382C51.0027 71.346 53.4615 70.6775 55.616 69.4032C57.7705 68.1289 59.5407 66.2962 60.7396 64.0988ZM48.4996 36.1313C52.7012 36.1313 56.8085 37.3773 60.302 39.7116C63.7955 42.0459 66.5184 45.3637 68.1263 49.2455C69.7342 53.1273 70.1549 57.3987 69.3352 61.5195C68.5155 65.6404 66.4922 69.4257 63.5212 72.3967C60.5502 75.3677 56.7649 77.391 52.6441 78.2107C48.5232 79.0303 44.2518 78.6096 40.37 77.0018C36.4882 75.3939 33.1704 72.671 30.8361 69.1775C28.5018 65.684 27.2559 61.5767 27.2559 57.3751C27.2559 51.7409 29.494 46.3375 33.478 42.3535C37.462 38.3695 42.8654 36.1313 48.4996 36.1313Z" fill="#2B8AFC"/>
<path id="Vector_4" d="M60.7731 50.7112C61.8875 52.7675 62.4684 55.0704 62.4625 57.4093C62.4566 59.7481 61.8641 62.0481 60.7394 64.0987C58.9641 64.0942 57.2633 63.3847 56.0111 62.1262C54.759 60.8677 54.058 59.1634 54.0625 57.3881C54.067 55.6128 54.7765 53.912 56.035 52.6598C57.2935 51.4077 58.9978 50.7067 60.7731 50.7112Z" fill="#FEDB41"/>
<path id="Vector_5" d="M48.5004 43.4119C51.0138 43.411 53.4809 44.0888 55.6412 45.3735C57.8015 46.6583 59.5748 48.5024 60.7742 50.7112C59.8951 50.709 59.0243 50.88 58.2113 51.2143C57.3983 51.5487 56.6592 52.0399 56.036 52.6599C55.4129 53.2799 54.918 54.0165 54.5795 54.8278C54.2411 55.6391 54.0657 56.5091 54.0635 57.3881C54.0613 58.2672 54.2323 59.138 54.5666 59.951C54.9009 60.764 55.3921 61.5031 56.0122 62.1263C56.6322 62.7494 57.3688 63.2443 58.1801 63.5828C58.9914 63.9212 59.8614 64.0965 60.7404 64.0987C59.5542 66.2582 57.8179 68.0654 55.7075 69.3369C53.5971 70.6083 51.188 71.2988 48.7245 71.3382C46.261 71.3776 43.831 70.7645 41.681 69.5612C39.5311 68.3579 37.7378 66.6071 36.4832 64.4867C35.2286 62.3663 34.5573 59.9517 34.5376 57.488C34.5178 55.0243 35.1502 52.5992 36.3706 50.4589C37.5911 48.3186 39.356 46.5393 41.4864 45.3017C43.6167 44.064 46.0366 43.412 48.5004 43.4119Z" fill="#00EFD1"/>
<path id="Vector_6" d="M46.23 7.18488V26.2105H17.8594V11.6849C17.8591 11.0887 17.9764 10.4983 18.2044 9.94745C18.4324 9.39659 18.7668 8.89608 19.1884 8.47451C19.6099 8.05294 20.1105 7.71858 20.6613 7.49055C21.2122 7.26251 21.8026 7.14526 22.3988 7.14551H26.2575V17.398L39.4219 17.6249V7.14551H46.23V7.18488Z" fill="#FEDB41"/>
<path id="Vector_7" d="M39.4222 7.18488V17.6249L26.2578 17.398V7.14551H39.4222V7.18488Z" fill="#2B8AFC"/>
<path id="Vector_8" d="M80.75 11.6644C80.75 10.0626 80.1137 8.52649 78.9811 7.39389C77.8485 6.26129 76.3124 5.625 74.7106 5.625H22.4769C20.8751 5.625 19.339 6.26129 18.2064 7.39389C17.0738 8.52649 16.4375 10.0626 16.4375 11.6644V84.3356C16.4375 85.9374 17.0738 87.4735 18.2064 88.6061C19.339 89.7387 20.8751 90.375 22.4769 90.375H74.7106C76.3124 90.375 77.8485 89.7387 78.9811 88.6061C80.1137 87.4735 80.75 85.9374 80.75 84.3356V11.6644ZM77.5625 11.685V24.75H47.75V8.625H74.6019C76.2777 8.625 77.5625 10.0091 77.5625 11.685ZM27.6875 8.625H38V16.0989L27.6875 15.9238V8.625ZM22.3981 8.625H24.6875V17.3981C24.6953 17.795 24.8571 18.1733 25.1386 18.4532C25.4201 18.7331 25.7994 18.8926 26.1963 18.8981L39.3963 19.125H39.4222C39.8272 19.1253 40.2172 18.9715 40.5131 18.6949C40.8104 18.4166 40.9855 18.032 41 17.625V8.625H44.75V24.75H19.4375V11.685C19.4375 10.0091 20.7223 8.625 22.3981 8.625ZM74.6019 87.375H22.3981C20.7223 87.375 19.4375 85.9909 19.4375 84.315V27.75H77.5625V84.315C77.5625 85.9909 76.2777 87.375 74.6019 87.375Z" fill="#13277E"/>
<path id="Vector_9" d="M53.1475 15.1875H71.2075C71.6053 15.1875 71.9869 15.0295 72.2682 14.7482C72.5495 14.4669 72.7075 14.0853 72.7075 13.6875C72.7075 13.2897 72.5495 12.9081 72.2682 12.6268C71.9869 12.3455 71.6053 12.1875 71.2075 12.1875H53.1475C52.7497 12.1875 52.3682 12.3455 52.0869 12.6268C51.8056 12.9081 51.6475 13.2897 51.6475 13.6875C51.6475 14.0853 51.8056 14.4669 52.0869 14.7482C52.3682 15.0295 52.7497 15.1875 53.1475 15.1875ZM71.2075 17.25H53.1475C52.7497 17.25 52.3682 17.408 52.0869 17.6893C51.8056 17.9706 51.6475 18.3522 51.6475 18.75C51.6475 19.1478 51.8056 19.5294 52.0869 19.8107C52.3682 20.092 52.7497 20.25 53.1475 20.25H71.2075C71.6053 20.25 71.9869 20.092 72.2682 19.8107C72.5495 19.5294 72.7075 19.1478 72.7075 18.75C72.7075 18.3522 72.5495 17.9706 72.2682 17.6893C71.9869 17.408 71.6053 17.25 71.2075 17.25ZM61.9994 49.9942C59.3744 45.0088 54.1244 41.9119 48.4538 41.9119C45.3767 41.8982 42.3649 42.799 39.8006 44.5C37.2363 46.201 35.2351 48.6254 34.0511 51.4656C32.8671 54.3059 32.5535 57.4339 33.1503 60.4526C33.747 63.4714 35.2272 66.2448 37.4028 68.4208C39.5785 70.5969 42.3516 72.0776 45.3703 72.6749C48.3889 73.2723 51.5169 72.9593 54.3574 71.7759C57.1979 70.5924 59.6227 68.5917 61.3242 66.0277C63.0257 63.4638 63.927 60.4521 63.914 57.375C63.9416 54.7886 63.2809 52.2413 61.9994 49.9944V49.9942ZM48.4994 69.8381C46.3902 69.8381 44.3156 69.3027 42.4697 68.2822C40.6238 67.2617 39.0672 65.7895 37.9454 64.0033C36.8237 62.2172 36.1736 60.1756 36.056 58.0697C35.9385 55.9638 36.3573 53.8625 37.2732 51.9626C38.1892 50.0627 39.5724 48.4263 41.2932 47.2067C43.014 45.9871 45.0162 45.2242 47.1122 44.9894C49.2083 44.7545 51.3296 45.0555 53.2777 45.8641C55.2257 46.6727 56.9367 47.9624 58.2503 49.6125C56.6062 50.1444 55.1724 51.1826 54.1542 52.5787C53.1359 53.9748 52.5853 55.6572 52.5811 57.3852C52.5769 59.1132 53.1194 60.7982 54.131 62.1992C55.1425 63.6002 56.5713 64.6454 58.2128 65.1851C57.0445 66.6374 55.5654 67.8093 53.8844 68.6145C52.2034 69.4197 50.3633 69.8379 48.4994 69.8381ZM59.8542 62.5153C58.6536 62.2993 57.5675 61.6675 56.7862 60.7307C56.0049 59.7939 55.5784 58.6119 55.5814 57.3921C55.5845 56.1722 56.017 54.9924 56.8029 54.0596C57.5889 53.1267 58.6783 52.5004 59.8799 52.2904C60.598 53.8999 60.9669 55.6432 60.9625 57.4056C60.9581 59.168 60.5803 60.9095 59.8542 62.5153Z" fill="#13277E"/>
<path id="Vector_10" d="M48.4996 34.6313C44.0013 34.6313 39.6041 35.9652 35.8639 38.4644C32.1237 40.9635 29.2086 44.5156 27.4871 48.6714C25.7657 52.8273 25.3153 57.4003 26.1929 61.8122C27.0705 66.224 29.2366 70.2766 32.4174 73.4574C35.5981 76.6381 39.6507 78.8043 44.0625 79.6818C48.4744 80.5594 53.0474 80.109 57.2033 78.3876C61.3592 76.6662 64.9112 73.751 67.4104 70.0108C69.9095 66.2707 71.2434 61.8734 71.2434 57.3751C71.2366 51.3452 68.8382 45.5642 64.5744 41.3003C60.3106 37.0365 54.5296 34.6381 48.4996 34.6313ZM48.4996 77.1188C44.5947 77.1188 40.7774 75.9609 37.5306 73.7914C34.2837 71.622 31.7531 68.5384 30.2588 64.9307C28.7644 61.323 28.3734 57.3532 29.1352 53.5233C29.8971 49.6934 31.7775 46.1754 34.5387 43.4142C37.2999 40.6529 40.8179 38.7725 44.6478 38.0107C48.4777 37.2489 52.4475 37.6399 56.0552 39.1343C59.6629 40.6286 62.7465 43.1592 64.9159 46.4061C67.0854 49.6529 68.2434 53.4702 68.2434 57.3751C68.2374 62.6096 66.1554 67.6281 62.454 71.3295C58.7526 75.0308 53.7342 77.1129 48.4996 77.1188Z" fill="#13277E"/>
</g>
</svg>
