<svg width="97" height="96" viewBox="0 0 97 96" fill="none" xmlns="http://www.w3.org/2000/svg">
<g id="microwave">
<g id="Group">
<path id="Vector" d="M84.5 72H78.5V78H84.5V72Z" fill="#13277E"/>
<path id="Vector_2" d="M21.5 72H15.5V78H21.5V72Z" fill="#13277E"/>
<path id="Vector_3" d="M90.5 21H9.5C7.84315 21 6.5 22.3431 6.5 24V69C6.5 70.6569 7.84315 72 9.5 72H90.5C92.1569 72 93.5 70.6569 93.5 69V24C93.5 22.3431 92.1569 21 90.5 21Z" fill="#13277E"/>
<path id="Vector_4" d="M63.5 27H12.5V63H63.5V27Z" fill="#78C8F0"/>
<path id="Vector_5" d="M87.5 27H69.5V39H87.5V27Z" fill="#2B8AFC"/>
<path id="Vector_6" d="M75.5 66C78.8137 66 81.5 63.3137 81.5 60C81.5 56.6863 78.8137 54 75.5 54C72.1863 54 69.5 56.6863 69.5 60C69.5 63.3137 72.1863 66 75.5 66Z" fill="#2B8AFC"/>
<path id="Vector_7" fillRule="evenodd" clipRule="evenodd" d="M78.5352 54.8374L70.3242 63.0395C70.8394 63.9168 71.5694 64.6488 72.4453 65.1665L80.6563 56.9554C80.1403 56.0803 79.4104 55.3535 78.5352 54.8374Z" fill="#2B8AFC"/>
<path id="Vector_8" d="M57.5 39V51" stroke="#13277E" strokeWidth="3" stroke-linecap="round" stroke-linejoin="round"/>
<path id="Vector_9" d="M69.5 49.5C70.3284 49.5 71 48.8284 71 48C71 47.1716 70.3284 46.5 69.5 46.5C68.6716 46.5 68 47.1716 68 48C68 48.8284 68.6716 49.5 69.5 49.5Z" fill="#2B8AFC"/>
<path id="Vector_10" d="M75.5 49.5C76.3284 49.5 77 48.8284 77 48C77 47.1716 76.3284 46.5 75.5 46.5C74.6716 46.5 74 47.1716 74 48C74 48.8284 74.6716 49.5 75.5 49.5Z" fill="#2B8AFC"/>
<path id="Vector_11" d="M81.5 49.5C82.3284 49.5 83 48.8284 83 48C83 47.1716 82.3284 46.5 81.5 46.5C80.6716 46.5 80 47.1716 80 48C80 48.8284 80.6716 49.5 81.5 49.5Z" fill="#2B8AFC"/>
<path id="Vector_12" d="M87.5 49.5C88.3284 49.5 89 48.8284 89 48C89 47.1716 88.3284 46.5 87.5 46.5C86.6716 46.5 86 47.1716 86 48C86 48.8284 86.6716 49.5 87.5 49.5Z" fill="#2B8AFC"/>
<path id="Vector_13" d="M87.5 58.5C88.3284 58.5 89 57.8284 89 57C89 56.1716 88.3284 55.5 87.5 55.5C86.6716 55.5 86 56.1716 86 57C86 57.8284 86.6716 58.5 87.5 58.5Z" fill="#2B8AFC"/>
<path id="Vector_14" d="M87.5 64.5C88.3284 64.5 89 63.8284 89 63C89 62.1716 88.3284 61.5 87.5 61.5C86.6716 61.5 86 62.1716 86 63C86 63.8284 86.6716 64.5 87.5 64.5Z" fill="#2B8AFC"/>
<path id="Vector_15" d="M6.5 66V69C6.5 70.662 7.838 72 9.5 72H90.5C92.162 72 93.5 70.662 93.5 69V66C93.5 67.662 92.162 69 90.5 69H9.5C7.838 69 6.5 67.662 6.5 66Z" fill="#F8B84E"/>
<path id="Vector_16" d="M84.5 75H78.5V78H84.5V75Z" fill="#13277E"/>
<path id="Vector_17" d="M21.5 75H15.5V78H21.5V75Z" fill="#13277E"/>
<path id="Vector_18" d="M12.5 60V63H63.5V60H12.5Z" fill="#13277E"/>
<path id="Vector_19" d="M87.5 27V39H69.5L87.5 27Z" fill="#2B8AFC"/>
</g>
</g>
</svg>
