<svg width="97" height="96" viewBox="0 0 97 96" fill="none" xmlns="http://www.w3.org/2000/svg">
<g id="oven" clipPath="url(#clip0_5817_35425)">
<path id="Vector" d="M86.9375 84.5625V88.3125C86.9375 91.4194 84.4194 93.9375 81.3125 93.9375H15.6875C12.5806 93.9375 10.0625 91.4194 10.0625 88.3125V84.5625L47.375 80.9062L86.9375 84.5625Z" fill="#13277E"/>
<path id="Vector_2" d="M2.5625 24.5625V77.25C2.5625 81.2888 5.83625 84.5625 9.875 84.5625C27.7396 84.5625 68.8239 84.5625 87.125 84.5625C91.1638 84.5625 94.4375 81.2888 94.4375 77.25V24.5625L48.5 20.0625L2.5625 24.5625Z" fill="#95C7EE"/>
<path id="Vector_3" d="M10.0625 32.0625V77.0625H28.8123L47.9375 72.4688L68.1871 77.0625H86.9375V32.0625H10.0625Z" fill="#E3EFFC"/>
<path id="Vector_4" d="M87.125 2.0625H9.875C5.83625 2.0625 2.5625 5.33625 2.5625 9.375V24.5625H94.4375V9.375C94.4375 5.33625 91.1638 2.0625 87.125 2.0625Z" fill="#13277E"/>
<path id="Vector_5" d="M66.3125 52.6875L47.8438 55.3125L30.6875 52.6875C31.7896 48.2792 35.7472 45.1875 40.2931 45.1875H56.7069C61.25 45.1875 65.21 48.2794 66.3125 52.6875Z" fill="#DD5113"/>
<path id="Vector_6" d="M68.1875 58.6875H28.8125V77.0625H68.1875V58.6875Z" fill="#DD5113"/>
<path id="Vector_7" d="M28.8125 17.0625C30.8836 17.0625 32.5625 15.3836 32.5625 13.3125C32.5625 11.2414 30.8836 9.5625 28.8125 9.5625C26.7414 9.5625 25.0625 11.2414 25.0625 13.3125C25.0625 15.3836 26.7414 17.0625 28.8125 17.0625Z" fill="#86ED7F"/>
<path id="Vector_8" d="M13.8125 17.0625C15.8836 17.0625 17.5625 15.3836 17.5625 13.3125C17.5625 11.2414 15.8836 9.5625 13.8125 9.5625C11.7414 9.5625 10.0625 11.2414 10.0625 13.3125C10.0625 15.3836 11.7414 17.0625 13.8125 17.0625Z" fill="#F2D137"/>
<path id="Vector_9" d="M53.1875 9.5625C55.2594 9.5625 56.9375 11.2406 56.9375 13.3125C56.9375 15.3825 55.2575 17.0625 53.1875 17.0625H43.8125C41.7406 17.0625 40.0625 15.3844 40.0625 13.3125C40.0625 11.2425 41.7425 9.5625 43.8125 9.5625H53.1875Z" fill="#E3EFFC"/>
<path id="Vector_10" d="M68.1875 17.0625C70.2586 17.0625 71.9375 15.3836 71.9375 13.3125C71.9375 11.2414 70.2586 9.5625 68.1875 9.5625C66.1164 9.5625 64.4375 11.2414 64.4375 13.3125C64.4375 15.3836 66.1164 17.0625 68.1875 17.0625Z" fill="#F2D137"/>
<path id="Vector_11" d="M83.1875 17.0625C85.2586 17.0625 86.9375 15.3836 86.9375 13.3125C86.9375 11.2414 85.2586 9.5625 83.1875 9.5625C81.1164 9.5625 79.4375 11.2414 79.4375 13.3125C79.4375 15.3836 81.1164 17.0625 83.1875 17.0625Z" fill="#86ED7F"/>
<path id="Vector_12" d="M68.1875 52.6875C70.2594 52.6875 71.9375 54.3656 71.9375 56.4375C71.9375 58.5075 70.2575 60.1875 68.1875 60.1875H28.8125C26.7406 60.1875 25.0625 58.5094 25.0625 56.4375C25.0625 54.3675 26.7425 52.6875 28.8125 52.6875C31.0289 52.6875 64.9957 52.6875 66.3125 52.6875H68.1875Z" fill="#DB2F0B"/>
<path id="Vector_13" d="M87.125 0.1875H9.875C4.80894 0.1875 0.6875 4.30894 0.6875 9.375V77.25C0.6875 81.7393 3.92506 85.4844 8.1875 86.2794V88.3125C8.1875 92.448 11.552 95.8125 15.6875 95.8125H81.3125C85.448 95.8125 88.8125 92.448 88.8125 88.3125V86.2794C93.0749 85.4844 96.3125 81.7393 96.3125 77.25V9.375C96.3125 4.30894 92.1911 0.1875 87.125 0.1875ZM9.875 3.9375H87.125C90.1231 3.9375 92.5625 6.37688 92.5625 9.375V22.6875H4.4375V9.375C4.4375 6.37688 6.87688 3.9375 9.875 3.9375ZM85.0625 88.3125C85.0625 90.3802 83.3802 92.0625 81.3125 92.0625H15.6875C13.6198 92.0625 11.9375 90.3802 11.9375 88.3125V86.4375H85.0625V88.3125ZM87.125 82.6875C69.2604 82.6875 28.1761 82.6875 9.875 82.6875C6.87688 82.6875 4.4375 80.2481 4.4375 77.25V26.4375H92.5625V77.25C92.5625 80.2481 90.1231 82.6875 87.125 82.6875Z" fill="#232323"/>
<path id="Vector_14" d="M13.8125 18.9375C16.9141 18.9375 19.4375 16.4141 19.4375 13.3125C19.4375 10.2109 16.9141 7.6875 13.8125 7.6875C10.7109 7.6875 8.1875 10.2109 8.1875 13.3125C8.1875 16.4141 10.7109 18.9375 13.8125 18.9375ZM13.8125 11.4375C14.8464 11.4375 15.6875 12.2786 15.6875 13.3125C15.6875 14.3464 14.8464 15.1875 13.8125 15.1875C12.7786 15.1875 11.9375 14.3464 11.9375 13.3125C11.9375 12.2786 12.7786 11.4375 13.8125 11.4375ZM28.8125 18.9375C31.9141 18.9375 34.4375 16.4141 34.4375 13.3125C34.4375 10.2109 31.9141 7.6875 28.8125 7.6875C25.7109 7.6875 23.1875 10.2109 23.1875 13.3125C23.1875 16.4141 25.7109 18.9375 28.8125 18.9375ZM28.8125 11.4375C29.8464 11.4375 30.6875 12.2786 30.6875 13.3125C30.6875 14.3464 29.8464 15.1875 28.8125 15.1875C27.7786 15.1875 26.9375 14.3464 26.9375 13.3125C26.9375 12.2786 27.7786 11.4375 28.8125 11.4375ZM68.1875 18.9375C71.2891 18.9375 73.8125 16.4141 73.8125 13.3125C73.8125 10.2109 71.2891 7.6875 68.1875 7.6875C65.0859 7.6875 62.5625 10.2109 62.5625 13.3125C62.5625 16.4141 65.0859 18.9375 68.1875 18.9375ZM68.1875 11.4375C69.2214 11.4375 70.0625 12.2786 70.0625 13.3125C70.0625 14.3464 69.2214 15.1875 68.1875 15.1875C67.1536 15.1875 66.3125 14.3464 66.3125 13.3125C66.3125 12.2786 67.1536 11.4375 68.1875 11.4375ZM83.1875 18.9375C86.2891 18.9375 88.8125 16.4141 88.8125 13.3125C88.8125 10.2109 86.2891 7.6875 83.1875 7.6875C80.0859 7.6875 77.5625 10.2109 77.5625 13.3125C77.5625 16.4141 80.0859 18.9375 83.1875 18.9375ZM83.1875 11.4375C84.2214 11.4375 85.0625 12.2786 85.0625 13.3125C85.0625 14.3464 84.2214 15.1875 83.1875 15.1875C82.1536 15.1875 81.3125 14.3464 81.3125 13.3125C81.3125 12.2786 82.1536 11.4375 83.1875 11.4375ZM43.8125 18.9375H53.1875C56.2891 18.9375 58.8125 16.4141 58.8125 13.3125C58.8125 10.2109 56.2891 7.6875 53.1875 7.6875H43.8125C40.7109 7.6875 38.1875 10.2109 38.1875 13.3125C38.1875 16.4141 40.7109 18.9375 43.8125 18.9375ZM43.8125 11.4375H53.1875C54.2214 11.4375 55.0625 12.2786 55.0625 13.3125C55.0625 14.3464 54.2214 15.1875 53.1875 15.1875H43.8125C42.7786 15.1875 41.9375 14.3464 41.9375 13.3125C41.9375 12.2786 42.7786 11.4375 43.8125 11.4375ZM86.9375 30.1875H10.0625C9.02713 30.1875 8.1875 31.0271 8.1875 32.0625V77.0625C8.1875 78.0979 9.02713 78.9375 10.0625 78.9375C11.6114 78.9375 84.7623 78.9375 86.9375 78.9375C87.9729 78.9375 88.8125 78.0979 88.8125 77.0625V32.0625C88.8125 31.0271 87.9729 30.1875 86.9375 30.1875ZM28.8125 54.5625C31.1152 54.5625 66.0213 54.5625 68.1875 54.5625C69.2214 54.5625 70.0625 55.4036 70.0625 56.4375C70.0625 57.4714 69.2214 58.3125 68.1875 58.3125H28.8125C27.7786 58.3125 26.9375 57.4714 26.9375 56.4375C26.9375 55.4036 27.7786 54.5625 28.8125 54.5625ZM33.4981 50.8125C34.9359 48.5241 37.4718 47.0625 40.2933 47.0625H56.7065C59.528 47.0625 62.0639 48.5241 63.5017 50.8125H33.4981ZM30.6875 75.1875V62.0625H66.3125V75.1875H30.6875ZM85.0625 75.1875H70.0625V61.74C72.2448 60.966 73.8125 58.8819 73.8125 56.4375C73.8125 53.3359 71.2891 50.8125 68.1875 50.8125H67.6801C65.9398 46.3313 61.6179 43.3125 56.7067 43.3125H40.2935C35.3823 43.3125 31.0604 46.3313 29.3201 50.8125H28.8125C25.7109 50.8125 23.1875 53.3359 23.1875 56.4375C23.1875 58.8818 24.7552 60.966 26.9375 61.74V75.1875H11.9375V33.9375H85.0625V75.1875Z" fill="#232323"/>
</g>
<defs>
<clipPath id="clip0_5817_35425">
<rect width="96" height="96" fill="white" transform="translate(0.5)"/>
</clipPath>
</defs>
</svg>
