<svg width="123" height="96" viewBox="0 0 123 96" fill="none" xmlns="http://www.w3.org/2000/svg">
<g id="pet-toilet-tray" clipPath="url(#clip0_5817_35642)">
<path id="Vector" d="M120.75 58.3125V73.3125C120.751 74.0515 120.606 74.7834 120.324 75.4663C120.042 76.1492 119.627 76.7696 119.105 77.2922C118.582 77.8147 117.962 78.229 117.279 78.5113C116.596 78.7937 115.864 78.9385 115.125 78.9375H53.25C52.511 78.9385 51.7791 78.7937 51.0962 78.5113C50.4133 78.229 49.7929 77.8147 49.2703 77.2922C48.7478 76.7696 48.3335 76.1492 48.0512 75.4663C47.7688 74.7834 47.624 74.0515 47.625 73.3125V58.3125H120.75Z" fill="#2B8AFC"/>
<path id="Vector_2" d="M53.25 47.0625H115.125C115.864 47.0615 116.596 47.2063 117.279 47.4887C117.962 47.771 118.582 48.1853 119.105 48.7078C119.627 49.2304 120.042 49.8508 120.324 50.5337C120.606 51.2166 120.751 51.9485 120.75 52.6875H47.625C47.624 51.9485 47.7688 51.2166 48.0512 50.5337C48.3335 49.8508 48.7478 49.2304 49.2703 48.7078C49.7929 48.1853 50.4133 47.771 51.0962 47.4887C51.7791 47.2063 52.511 47.0615 53.25 47.0625Z" fill="white"/>
<path id="Vector_3" d="M122.625 52.6875V58.3125H120.75H47.625H45.75V52.6875H47.625H120.75H122.625Z" fill="#2B8AFC"/>
<path id="Vector_4" d="M27 20.8125V49.35C24.5303 48.8 21.9697 48.8 19.5 49.35V20.8125C19.5 19.8179 19.8951 18.8641 20.5984 18.1609C21.3016 17.4576 22.2554 17.0625 23.25 17.0625C24.2446 17.0625 25.1984 17.4576 25.9016 18.1609C26.6049 18.8641 27 19.8179 27 20.8125Z" fill="#2B8AFC"/>
<path id="Vector_5" d="M40.125 65.8125V73.3125H6.375V65.8125C6.37553 61.9878 7.67419 58.2765 10.0585 55.2859C12.4428 52.2953 15.7715 50.2025 19.5 49.35C21.9697 48.8 24.5303 48.8 27 49.35C30.7285 50.2025 34.0572 52.2953 36.4415 55.2859C38.8258 58.2765 40.1245 61.9878 40.125 65.8125Z" fill="#D7E9FF"/>
<path id="Vector_6" d="M40.125 73.3125H6.375V78.9375H40.125V73.3125Z" fill="white"/>
<path id="Vector_7" d="M53.25 80.8125C51.2615 80.8105 49.355 80.0197 47.9489 78.6136C46.5428 77.2075 45.752 75.301 45.75 73.3125C45.75 72.8152 45.9475 72.3383 46.2992 71.9867C46.6508 71.635 47.1277 71.4375 47.625 71.4375C48.1223 71.4375 48.5992 71.635 48.9508 71.9867C49.3025 72.3383 49.5 72.8152 49.5 73.3125C49.5013 74.3067 49.8968 75.2597 50.5998 75.9627C51.3028 76.6657 52.2558 77.0612 53.25 77.0625C53.7473 77.0625 54.2242 77.26 54.5758 77.6117C54.9275 77.9633 55.125 78.4402 55.125 78.9375C55.125 79.4348 54.9275 79.9117 54.5758 80.2633C54.2242 80.615 53.7473 80.8125 53.25 80.8125Z" fill="#13277E"/>
<path id="Vector_8" d="M47.625 75.1875C47.3787 75.1876 47.1349 75.1392 46.9073 75.0451C46.6798 74.9509 46.473 74.8128 46.2989 74.6386C46.1247 74.4645 45.9866 74.2577 45.8924 74.0302C45.7983 73.8026 45.7499 73.5588 45.75 73.3125V58.3125C45.75 57.8152 45.9475 57.3383 46.2992 56.9867C46.6508 56.635 47.1277 56.4375 47.625 56.4375C48.1223 56.4375 48.5992 56.635 48.9508 56.9867C49.3025 57.3383 49.5 57.8152 49.5 58.3125V73.3125C49.5001 73.5588 49.4517 73.8026 49.3576 74.0302C49.2634 74.2577 49.1253 74.4645 48.9511 74.6386C48.777 74.8128 48.5702 74.9509 48.3427 75.0451C48.1151 75.1392 47.8713 75.1876 47.625 75.1875ZM115.125 80.8125C114.628 80.8125 114.151 80.615 113.799 80.2633C113.448 79.9117 113.25 79.4348 113.25 78.9375C113.25 78.4402 113.448 77.9633 113.799 77.6117C114.151 77.26 114.628 77.0625 115.125 77.0625C116.119 77.0612 117.072 76.6657 117.775 75.9627C118.478 75.2597 118.874 74.3067 118.875 73.3125C118.875 72.8152 119.073 72.3383 119.424 71.9867C119.776 71.635 120.253 71.4375 120.75 71.4375C121.247 71.4375 121.724 71.635 122.076 71.9867C122.427 72.3383 122.625 72.8152 122.625 73.3125C122.623 75.301 121.832 77.2075 120.426 78.6136C119.02 80.0197 117.114 80.8105 115.125 80.8125Z" fill="#13277E"/>
<path id="Vector_9" d="M120.75 75.1875C120.504 75.1876 120.26 75.1392 120.032 75.0451C119.805 74.9509 119.598 74.8128 119.424 74.6386C119.25 74.4645 119.112 74.2577 119.017 74.0302C118.923 73.8026 118.875 73.5588 118.875 73.3125V58.3125C118.875 57.8152 119.073 57.3383 119.424 56.9867C119.776 56.635 120.253 56.4375 120.75 56.4375C121.247 56.4375 121.724 56.635 122.076 56.9867C122.427 57.3383 122.625 57.8152 122.625 58.3125V73.3125C122.625 73.5588 122.577 73.8026 122.483 74.0302C122.388 74.2577 122.25 74.4645 122.076 74.6386C121.902 74.8128 121.695 74.9509 121.468 75.0451C121.24 75.1392 120.996 75.1876 120.75 75.1875ZM115.125 80.8125H53.25C52.7527 80.8125 52.2758 80.615 51.9242 80.2633C51.5725 79.9117 51.375 79.4348 51.375 78.9375C51.375 78.4402 51.5725 77.9633 51.9242 77.6117C52.2758 77.26 52.7527 77.0625 53.25 77.0625H115.125C115.622 77.0625 116.099 77.26 116.451 77.6117C116.802 77.9633 117 78.4402 117 78.9375C117 79.4348 116.802 79.9117 116.451 80.2633C116.099 80.615 115.622 80.8125 115.125 80.8125Z" fill="#13277E"/>
<path id="Vector_10" d="M122.625 60.1875H45.75C45.5037 60.1876 45.2599 60.1392 45.0323 60.0451C44.8048 59.9509 44.598 59.8128 44.4239 59.6386C44.2497 59.4645 44.1116 59.2577 44.0174 59.0302C43.9233 58.8026 43.8749 58.5588 43.875 58.3125V52.6875C43.8749 52.4412 43.9233 52.1974 44.0174 51.9698C44.1116 51.7423 44.2497 51.5355 44.4239 51.3614C44.598 51.1872 44.8048 51.0491 45.0323 50.9549C45.2599 50.8608 45.5037 50.8124 45.75 50.8125H122.625C122.871 50.8124 123.115 50.8608 123.343 50.9549C123.57 51.0491 123.777 51.1872 123.951 51.3614C124.125 51.5355 124.263 51.7423 124.358 51.9698C124.452 52.1974 124.5 52.4412 124.5 52.6875V58.3125C124.5 58.5588 124.452 58.8026 124.358 59.0302C124.263 59.2577 124.125 59.4645 123.951 59.6386C123.777 59.8128 123.57 59.9509 123.343 60.0451C123.115 60.1392 122.871 60.1876 122.625 60.1875ZM47.625 56.4375H120.75V54.5625H47.625V56.4375ZM40.125 67.6875C39.8787 67.6876 39.6349 67.6392 39.4073 67.5451C39.1798 67.4509 38.973 67.3128 38.7989 67.1386C38.6247 66.9645 38.4866 66.7577 38.3924 66.5302C38.2983 66.3026 38.2499 66.0588 38.25 65.8125C38.25 61.8343 36.6696 58.0189 33.8566 55.2059C31.0436 52.3929 27.2282 50.8125 23.25 50.8125C19.2718 50.8125 15.4564 52.3929 12.6434 55.2059C9.83035 58.0189 8.25 61.8343 8.25 65.8125C8.25 66.3098 8.05246 66.7867 7.70083 67.1383C7.34919 67.49 6.87228 67.6875 6.375 67.6875C5.87772 67.6875 5.40081 67.49 5.04917 67.1383C4.69754 66.7867 4.5 66.3098 4.5 65.8125C4.5 60.8397 6.47544 56.0706 9.99175 52.5542C13.5081 49.0379 18.2772 47.0625 23.25 47.0625C28.2228 47.0625 32.9919 49.0379 36.5083 52.5542C40.0246 56.0706 42 60.8397 42 65.8125C42.0001 66.0588 41.9517 66.3026 41.8576 66.5302C41.7634 66.7577 41.6253 66.9645 41.4511 67.1386C41.277 67.3128 41.0702 67.4509 40.8427 67.5451C40.6151 67.6392 40.3713 67.6876 40.125 67.6875Z" fill="#13277E"/>
<path id="Vector_11" d="M40.125 80.8125C39.8787 80.8126 39.6349 80.7642 39.4073 80.6701C39.1798 80.5759 38.973 80.4378 38.7989 80.2636C38.6247 80.0895 38.4866 79.8827 38.3924 79.6552C38.2983 79.4276 38.2499 79.1838 38.25 78.9375V65.8125C38.25 65.3152 38.4475 64.8383 38.7992 64.4867C39.1508 64.135 39.6277 63.9375 40.125 63.9375C40.6223 63.9375 41.0992 64.135 41.4508 64.4867C41.8025 64.8383 42 65.3152 42 65.8125V78.9375C42.0001 79.1838 41.9517 79.4276 41.8576 79.6552C41.7634 79.8827 41.6253 80.0895 41.4511 80.2636C41.277 80.4378 41.0702 80.5759 40.8427 80.6701C40.6151 80.7642 40.3713 80.8126 40.125 80.8125ZM6.375 80.8125C6.12873 80.8126 5.88485 80.7642 5.6573 80.6701C5.42975 80.5759 5.223 80.4378 5.04886 80.2636C4.87472 80.0895 4.73662 79.8827 4.64244 79.6552C4.54826 79.4276 4.49986 79.1838 4.5 78.9375V65.8125C4.5 65.3152 4.69754 64.8383 5.04918 64.4867C5.40081 64.135 5.87772 63.9375 6.375 63.9375C6.87228 63.9375 7.34919 64.135 7.70083 64.4867C8.05246 64.8383 8.25 65.3152 8.25 65.8125V78.9375C8.25014 79.1838 8.20174 79.4276 8.10756 79.6552C8.01338 79.8827 7.87528 80.0895 7.70114 80.2636C7.527 80.4378 7.32025 80.5759 7.0927 80.6701C6.86515 80.7642 6.62127 80.8126 6.375 80.8125Z" fill="#13277E"/>
<path id="Vector_12" d="M40.125 80.8125H6.375C5.87772 80.8125 5.40081 80.615 5.04917 80.2633C4.69754 79.9117 4.5 79.4348 4.5 78.9375C4.5 78.4402 4.69754 77.9633 5.04917 77.6117C5.40081 77.26 5.87772 77.0625 6.375 77.0625H40.125C40.6223 77.0625 41.0992 77.26 41.4508 77.6117C41.8025 77.9633 42 78.4402 42 78.9375C42 79.4348 41.8025 79.9117 41.4508 80.2633C41.0992 80.615 40.6223 80.8125 40.125 80.8125ZM40.125 75.1875H6.375C5.87772 75.1875 5.40081 74.99 5.04917 74.6383C4.69754 74.2867 4.5 73.8098 4.5 73.3125C4.5 72.8152 4.69754 72.3383 5.04917 71.9867C5.40081 71.635 5.87772 71.4375 6.375 71.4375H40.125C40.6223 71.4375 41.0992 71.635 41.4508 71.9867C41.8025 72.3383 42 72.8152 42 73.3125C42 73.8098 41.8025 74.2867 41.4508 74.6383C41.0992 74.99 40.6223 75.1875 40.125 75.1875ZM27 22.6875C26.7537 22.6876 26.5099 22.6392 26.2823 22.5451C26.0548 22.4509 25.848 22.3128 25.6739 22.1386C25.4997 21.9645 25.3616 21.7577 25.2674 21.5302C25.1733 21.3026 25.1249 21.0588 25.125 20.8125C25.125 20.3152 24.9275 19.8383 24.5758 19.4867C24.2242 19.135 23.7473 18.9375 23.25 18.9375C22.7527 18.9375 22.2758 19.135 21.9242 19.4867C21.5725 19.8383 21.375 20.3152 21.375 20.8125C21.375 21.3098 21.1775 21.7867 20.8258 22.1383C20.4742 22.49 19.9973 22.6875 19.5 22.6875C19.0027 22.6875 18.5258 22.49 18.1742 22.1383C17.8225 21.7867 17.625 21.3098 17.625 20.8125C17.625 19.3207 18.2176 17.8899 19.2725 16.835C20.3274 15.7801 21.7582 15.1875 23.25 15.1875C24.7418 15.1875 26.1726 15.7801 27.2275 16.835C28.2824 17.8899 28.875 19.3207 28.875 20.8125C28.8751 21.0588 28.8267 21.3026 28.7326 21.5302C28.6384 21.7577 28.5003 21.9645 28.3261 22.1386C28.152 22.3128 27.9452 22.4509 27.7177 22.5451C27.4901 22.6392 27.2463 22.6876 27 22.6875Z" fill="#13277E"/>
<path id="Vector_13" d="M27 51.2318C26.7537 51.2319 26.5098 51.1835 26.2823 51.0894C26.0547 50.9952 25.848 50.8571 25.6739 50.683C25.4997 50.5088 25.3616 50.3021 25.2674 50.0745C25.1733 49.847 25.1249 49.6031 25.125 49.3568V20.8125C25.125 20.3152 25.3225 19.8383 25.6742 19.4867C26.0258 19.135 26.5027 18.9375 27 18.9375C27.4973 18.9375 27.9742 19.135 28.3258 19.4867C28.6775 19.8383 28.875 20.3152 28.875 20.8125V49.3568C28.8751 49.6031 28.8267 49.847 28.7326 50.0745C28.6384 50.3021 28.5003 50.5088 28.3261 50.683C28.152 50.8571 27.9453 50.9952 27.7177 51.0894C27.4902 51.1835 27.2463 51.2319 27 51.2318ZM19.5 51.2318C19.2537 51.2319 19.0099 51.1835 18.7823 51.0894C18.5548 50.9952 18.348 50.8571 18.1739 50.683C17.9997 50.5088 17.8616 50.3021 17.7674 50.0745C17.6733 49.847 17.6249 49.6031 17.625 49.3568V20.8125C17.625 20.3152 17.8225 19.8383 18.1742 19.4867C18.5258 19.135 19.0027 18.9375 19.5 18.9375C19.9973 18.9375 20.4742 19.135 20.8258 19.4867C21.1775 19.8383 21.375 20.3152 21.375 20.8125V49.3568C21.3751 49.6031 21.3267 49.847 21.2326 50.0745C21.1384 50.3021 21.0003 50.5088 20.8261 50.683C20.652 50.8571 20.4453 50.9952 20.2177 51.0894C19.9902 51.1835 19.7463 51.2319 19.5 51.2318ZM47.625 54.5625C47.3787 54.5626 47.1349 54.5142 46.9073 54.4201C46.6798 54.3259 46.473 54.1878 46.2989 54.0136C46.1247 53.8395 45.9866 53.6327 45.8924 53.4052C45.7983 53.1776 45.7499 52.9338 45.75 52.6875C45.752 50.699 46.5428 48.7925 47.9489 47.3864C49.355 45.9803 51.2615 45.1895 53.25 45.1875C53.7473 45.1875 54.2242 45.385 54.5758 45.7367C54.9275 46.0883 55.125 46.5652 55.125 47.0625C55.125 47.5598 54.9275 48.0367 54.5758 48.3883C54.2242 48.74 53.7473 48.9375 53.25 48.9375C52.2558 48.9388 51.3028 49.3343 50.5998 50.0373C49.8968 50.7403 49.5013 51.6933 49.5 52.6875C49.5001 52.9338 49.4517 53.1776 49.3576 53.4052C49.2634 53.6327 49.1253 53.8395 48.9511 54.0136C48.777 54.1878 48.5702 54.3259 48.3427 54.4201C48.1151 54.5142 47.8713 54.5626 47.625 54.5625ZM120.75 54.5625C120.504 54.5626 120.26 54.5142 120.032 54.4201C119.805 54.3259 119.598 54.1878 119.424 54.0136C119.25 53.8395 119.112 53.6327 119.017 53.4052C118.923 53.1776 118.875 52.9338 118.875 52.6875C118.874 51.6933 118.478 50.7403 117.775 50.0373C117.072 49.3343 116.119 48.9388 115.125 48.9375C114.628 48.9375 114.151 48.74 113.799 48.3883C113.448 48.0367 113.25 47.5598 113.25 47.0625C113.25 46.5652 113.448 46.0883 113.799 45.7367C114.151 45.385 114.628 45.1875 115.125 45.1875C117.114 45.1895 119.02 45.9803 120.426 47.3864C121.832 48.7925 122.623 50.699 122.625 52.6875C122.625 52.9338 122.577 53.1776 122.483 53.4052C122.388 53.6327 122.25 53.8395 122.076 54.0136C121.902 54.1878 121.695 54.3259 121.468 54.4201C121.24 54.5142 120.996 54.5626 120.75 54.5625Z" fill="#13277E"/>
<path id="Vector_14" d="M115.125 48.9375H53.25C52.7527 48.9375 52.2758 48.74 51.9242 48.3883C51.5725 48.0367 51.375 47.5598 51.375 47.0625C51.375 46.5652 51.5725 46.0883 51.9242 45.7367C52.2758 45.385 52.7527 45.1875 53.25 45.1875H115.125C115.622 45.1875 116.099 45.385 116.451 45.7367C116.802 46.0883 117 46.5652 117 47.0625C117 47.5598 116.802 48.0367 116.451 48.3883C116.099 48.74 115.622 48.9375 115.125 48.9375Z" fill="#13277E"/>
</g>
<defs>
<clipPath id="clip0_5817_35642">
<rect width="122" height="96" fill="white" transform="translate(0.5)"/>
</clipPath>
</defs>
</svg>
