<svg width="93" height="88" viewBox="0 0 93 88" fill="none" xmlns="http://www.w3.org/2000/svg">
<path d="M12.5 32H80.5V80H12.5V32Z" fill="#DAD7E5"/>
<path d="M80.5 32V76H28.5C26.3783 76 24.3434 75.1571 22.8431 73.6569C21.3429 72.1566 20.5 70.1217 20.5 68V32H80.5Z" fill="#EDEBF2"/>
<path d="M80.5 80C80.5 82.1217 79.6571 84.1566 78.1569 85.6569C76.6566 87.1571 74.6217 88 72.5 88H20.5C18.3783 88 16.3434 87.1571 14.8431 85.6569C13.3429 84.1566 12.5 82.1217 12.5 80H80.5Z" fill="#7C7D7D"/>
<path d="M80.5 80C80.4975 81.405 80.125 82.7846 79.42 84H24.5C23.4391 84 22.4217 83.5786 21.6716 82.8284C20.9214 82.0783 20.5 81.0609 20.5 80H80.5Z" fill="#919191"/>
<path d="M82.5 24H10.5C9.39543 24 8.5 24.8954 8.5 26V30C8.5 31.1046 9.39543 32 10.5 32H82.5C83.6046 32 84.5 31.1046 84.5 30V26C84.5 24.8954 83.6046 24 82.5 24Z" fill="#7C7D7D"/>
<path d="M84.5 25.5V28.5C84.5 29.32 83.6 30 82.5 30H26.5C24.9087 30 23.3826 29.3679 22.2574 28.2426C21.1321 27.1174 20.5 25.5913 20.5 24H82.5C83.6 24 84.5 24.68 84.5 25.5Z" fill="#919191"/>
<path d="M12.5006 40.0002V56.0002L1.96055 47.2202C1.50237 46.8552 1.12996 46.3939 0.869659 45.8691C0.609359 45.3443 0.467519 44.7687 0.454165 44.183C0.44081 43.5973 0.556268 43.0158 0.792377 42.4797C1.02849 41.9436 1.37948 41.4658 1.82055 41.0802C3.34055 39.6802 4.14055 40.0002 12.5006 40.0002Z" fill="#7C7D7D"/>
<path d="M12.5003 40.0002V50.0002C2.50031 41.7002 1.96031 41.2802 1.82031 41.0802C3.34031 39.6802 4.14031 40.0002 12.5003 40.0002Z" fill="#919191"/>
<path d="M92.5 44.0004C92.5 46.7004 91.78 46.6004 80.5 56.0004V40.0004C88 40.0004 89.62 39.5804 91.2 41.0604C91.6082 41.4339 91.9346 41.888 92.1583 42.394C92.3821 42.9001 92.4984 43.4471 92.5 44.0004Z" fill="#7C7D7D"/>
<path d="M91.2 41.06C91.06 41.26 90.46 41.7 80.5 50V40C88 40 89.62 39.58 91.2 41.06ZM52.5 4H48.5V8C48.5 8.53043 48.2893 9.03914 47.9142 9.41421C47.5391 9.78929 47.0304 10 46.5 10C45.9696 10 45.4609 9.78929 45.0858 9.41421C44.7107 9.03914 44.5 8.53043 44.5 8V4H40.5C39.9696 4 39.4609 3.78929 39.0858 3.41421C38.7107 3.03914 38.5 2.53043 38.5 2C38.5 1.46957 38.7107 0.960859 39.0858 0.585786C39.4609 0.210714 39.9696 0 40.5 0H52.5C53.0304 0 53.5391 0.210714 53.9142 0.585786C54.2893 0.960859 54.5 1.46957 54.5 2C54.5 2.53043 54.2893 3.03914 53.9142 3.41421C53.5391 3.78929 53.0304 4 52.5 4Z" fill="#919191"/>
<path d="M80.5 23.9995H12.5C12.5029 21.1937 13.2435 18.438 14.6477 16.0088C16.0518 13.5797 18.0701 11.5624 20.5 10.1595C25.4 7.25953 25.9 7.99953 64.5 7.99953C68.7435 7.99953 72.8131 9.68524 75.8137 12.6858C78.8143 15.6864 80.5 19.7561 80.5 23.9995Z" fill="#DAD7E5"/>
<path d="M80 19.9995H26.5C24.9087 19.9995 23.3826 19.3674 22.2574 18.2422C21.1321 17.117 20.5 15.5908 20.5 13.9995V10.1595C25.4 7.25953 25.9 7.99953 64.5 7.99953C68.0485 7.99774 71.4969 9.17564 74.3028 11.3479C77.1087 13.5203 79.1129 16.5637 80 19.9995Z" fill="#EDEBF2"/>
<path d="M60.5002 69.9998H59.9402C59.6359 70.5362 59.2117 70.9951 58.7007 71.3404C58.1897 71.6857 57.6058 71.9082 56.9945 71.9905C56.3833 72.0728 55.7613 72.0126 55.1772 71.8147C54.5931 71.6167 54.0626 71.2864 53.6273 70.8495C53.192 70.4126 52.8636 69.8809 52.6678 69.2961C52.4721 68.7113 52.4142 68.0891 52.4987 67.4781C52.5832 66.8672 52.8078 66.2841 53.155 65.7744C53.5022 65.2646 53.9626 64.8421 54.5002 64.5398C55.4149 64.0308 56.4927 63.9007 57.5023 64.1774C58.5119 64.4541 59.3728 65.1156 59.9002 66.0198H60.5002C60.9936 66.0693 61.4509 66.3003 61.7836 66.6681C62.1162 67.0358 62.3004 67.5139 62.3004 68.0098C62.3004 68.5056 62.1162 68.9838 61.7836 69.3515C61.4509 69.7192 60.9936 69.9503 60.5002 69.9998Z" fill="#7C7D7D"/>
<path d="M60.5028 65.9997H59.9428C59.5686 65.3763 59.0315 64.8668 58.3894 64.5258C57.7473 64.1848 57.0244 64.0253 56.2984 64.0644C55.5724 64.1035 54.8708 64.3397 54.269 64.7476C53.6672 65.1555 53.188 65.7198 52.8828 66.3797C53.7741 65.9554 54.7935 65.8868 55.7336 66.1877C56.6737 66.4887 57.4637 67.1367 57.9428 67.9997H58.5028C59.0332 67.9997 59.542 68.2104 59.917 68.5855C60.2921 68.9605 60.5028 69.4692 60.5028 69.9997C61.0332 69.9997 61.542 69.789 61.917 69.4139C62.2921 69.0388 62.5028 68.5301 62.5028 67.9997C62.5028 67.4692 62.2921 66.9605 61.917 66.5855C61.542 66.2104 61.0332 65.9997 60.5028 65.9997Z" fill="#919191"/>
<path d="M39.3183 70.8202C38.6937 71.4228 37.8901 71.8059 37.0287 71.9117C36.1673 72.0175 35.2949 71.8402 34.543 71.4068C33.7912 70.9733 33.2007 70.307 32.8608 69.5085C32.5208 68.71 32.4497 67.8226 32.6583 66.9802L32.2583 66.5802C31.9306 66.1976 31.7594 65.7055 31.7788 65.2021C31.7983 64.6988 32.0069 64.2213 32.3631 63.8651C32.7193 63.5089 33.1968 63.3002 33.7001 63.2808C34.2035 63.2613 34.6957 63.4326 35.0783 63.7602L35.4783 64.1602C36.3207 63.9516 37.2081 64.0227 38.0066 64.3627C38.8051 64.7027 39.4713 65.2932 39.9048 66.045C40.3383 66.7968 40.5155 67.6693 40.4097 68.5306C40.3039 69.392 39.9208 70.1956 39.3183 70.8202Z" fill="#7C7D7D"/>
<path d="M35.4797 64.1602L35.0797 63.7602C34.7989 63.485 34.4433 63.2986 34.0572 63.2244C33.6711 63.1502 33.2717 63.1914 32.9089 63.343C32.5461 63.4945 32.236 63.7496 32.0174 64.0763C31.7988 64.4031 31.6813 64.7871 31.6797 65.1802C32.0797 65.1802 32.4797 65.1802 33.4797 66.1602C34.2035 65.9829 34.9624 66.0113 35.6709 66.2422C36.3794 66.4731 37.0093 66.8974 37.4896 67.4671C37.9699 68.0368 38.2815 68.7294 38.3893 69.4667C38.4971 70.204 38.3968 70.9568 38.0997 71.6402C38.9599 71.1995 39.6315 70.4622 39.9903 69.5647C40.349 68.6672 40.3706 67.6701 40.0511 66.7579C39.7316 65.8456 39.0925 65.0799 38.2521 64.6024C37.4118 64.1249 36.4269 63.9678 35.4797 64.1602Z" fill="#919191"/>
<path d="M12.5 32H80.5V34H12.5V32Z" fill="#DAD7E5"/>
</svg>
