<svg width="96" height="96" viewBox="0 0 49 48" fill="none" xmlns="http://www.w3.org/2000/svg">
<g clipPath="url(#clip0_3871_21803)">
<path d="M25.7823 14.9028C25.8123 15.0978 25.6773 15.2853 25.4748 15.3153L25.1073 15.3678L15.4323 16.7853L15.2748 16.8078H15.2223C15.0423 16.8078 14.8923 16.6803 14.8623 16.4928C14.8548 16.4253 14.8623 16.3728 14.8773 16.3203L14.9373 16.2228C14.9448 16.2153 14.9448 16.2153 14.9523 16.2078C15.0123 16.1403 15.0798 16.0953 15.1773 16.0878L15.9498 15.9753V15.9678L25.0398 14.6478L25.3848 14.5953C25.5723 14.5728 25.7523 14.7003 25.7823 14.9028ZM25.6248 13.3278V13.3503C25.6098 13.5378 25.4598 13.6803 25.2798 13.6878L24.9423 13.7028L17.2023 13.9953L17.0148 14.0028C17.0073 14.0028 16.9998 14.0028 16.9998 14.0028C16.8048 14.0028 16.6473 13.8528 16.6398 13.6578C16.6398 13.6053 16.6473 13.5528 16.6698 13.5078C16.6848 13.4628 16.7148 13.4253 16.7448 13.3953C16.8048 13.3278 16.8873 13.2903 16.9923 13.2828L17.6898 13.2528L24.8673 12.9828L25.2573 12.9678C25.4448 12.9753 25.5873 13.0803 25.6173 13.2528L25.6248 13.2678V13.3278Z" fill="#232323"/>
<path d="M27.4705 11.8049C27.4555 11.6924 27.388 11.5874 27.283 11.5274C27.178 11.4674 27.0505 11.4674 26.953 11.5199L25.0405 12.4874C24.913 12.5549 24.8305 12.6974 24.8455 12.8474L24.8605 12.9749L24.943 13.7024L25.0405 14.6474L25.123 15.3674L25.138 15.5099C25.153 15.6524 25.258 15.7799 25.408 15.8174L27.4855 16.3874C27.5155 16.3949 27.5455 16.4024 27.583 16.4024C27.673 16.4024 27.748 16.3724 27.8155 16.3124C27.913 16.2299 27.9505 16.1174 27.943 15.9899L27.4705 11.8049ZM25.8205 15.1874L25.6255 13.3499V13.3274L25.618 13.2599L25.6105 13.2449L25.588 13.0199L26.803 12.4049L27.133 15.5474L25.8205 15.1874Z" fill="#232323"/>
<path d="M25.0239 14.6475L15.9414 15.9675L17.1939 13.995L24.9339 13.71L25.0239 14.6475Z" fill="#13277E"/>
<path d="M21.6726 8.2123L13.6851 2.2198C13.1376 1.8073 12.3576 1.9123 11.9526 2.4673L11.8176 2.6398C11.5851 2.9473 11.5176 3.3223 11.6001 3.6673C11.6601 3.9148 11.7876 4.1473 11.9976 4.3198C12.0201 4.3423 12.0426 4.3648 12.0651 4.3798L20.0526 10.3798C20.0751 10.3948 20.0976 10.4098 20.1201 10.4248C20.3226 10.5523 20.5551 10.6273 20.7951 10.6273C20.8176 10.6273 20.8326 10.6273 20.8551 10.6198C20.8926 10.6198 20.9376 10.6198 20.9751 10.6123C21.3051 10.5673 21.5901 10.3948 21.7851 10.1323L21.9201 9.9523C22.3326 9.3973 22.2126 8.6248 21.6726 8.2123ZM21.3351 9.5173L21.2001 9.6973C21.0951 9.8248 20.9451 9.8998 20.7876 9.8998C20.6826 9.8998 20.5776 9.8623 20.4801 9.7948L12.4926 3.7948C12.3801 3.7123 12.3126 3.5923 12.2976 3.4573C12.2751 3.3223 12.3126 3.1873 12.3951 3.0748L12.5301 2.9023C12.6351 2.7673 12.7851 2.6923 12.9426 2.6923C13.0476 2.6923 13.1526 2.7298 13.2501 2.7973L21.2376 8.7973C21.4551 8.9623 21.5001 9.2848 21.3351 9.5173Z" fill="#232323"/>
<path d="M21.3349 9.51738L21.1999 9.69738C21.0949 9.82488 20.9449 9.89988 20.7874 9.89988C20.6824 9.89988 20.5774 9.86238 20.4799 9.79488L12.4924 3.79488C12.3799 3.71238 12.3124 3.59238 12.2974 3.45738C12.2749 3.32238 12.3124 3.18738 12.3949 3.07488L12.5299 2.90238C12.6349 2.76738 12.7849 2.69238 12.9424 2.69238C13.0474 2.69238 13.1524 2.72988 13.2499 2.79738L21.2374 8.79738C21.4549 8.96238 21.4999 9.28488 21.3349 9.51738Z" fill="#13277E"/>
<path d="M11.3023 6.73243C11.2873 6.74743 11.2723 6.76243 11.2573 6.78493C11.2423 6.79993 11.2273 6.80743 11.2123 6.82243C11.0548 6.93493 10.8298 6.90493 10.7098 6.73243C10.6498 6.64993 10.5898 6.58243 10.5298 6.50743C10.3948 6.34993 10.2373 6.20743 10.0798 6.08743C8.68476 5.04493 6.61476 5.44243 5.45226 6.98743C4.29726 8.53243 4.48476 10.6324 5.87226 11.6824C5.89476 11.6974 5.91726 11.7124 5.93976 11.7274C6.02226 11.7874 6.09726 11.8399 6.17976 11.8849C6.35226 11.9899 6.41976 12.2074 6.31476 12.3799C6.29976 12.4099 6.27726 12.4399 6.25476 12.4624C6.17976 12.5299 6.09726 12.5674 5.99976 12.5674C5.93226 12.5674 5.87976 12.5524 5.81976 12.5224C5.69976 12.4474 5.56476 12.3724 5.45226 12.2824C5.44476 12.2749 5.44476 12.2674 5.43726 12.2674C3.72726 10.9849 3.47226 8.41993 4.87476 6.55993C6.27726 4.69243 8.80476 4.23493 10.5148 5.51743C10.6873 5.64493 10.8523 5.80243 11.0098 5.97493C11.1148 6.08743 11.2048 6.19993 11.2948 6.31993C11.3923 6.43993 11.3923 6.60493 11.3023 6.73243Z" fill="#232323"/>
<path d="M11.7072 5.17954L11.0097 5.96704C10.8597 5.79454 10.6872 5.63704 10.5147 5.50954C8.8047 4.22704 6.2772 4.69204 4.8747 6.55204C3.4722 8.41954 3.7272 10.977 5.4372 12.2595C5.4447 12.2595 5.4447 12.267 5.4522 12.2745L4.7922 13.0245C3.8997 12.2745 3.3597 11.202 3.2322 9.97955C3.1122 8.64455 3.5022 7.28705 4.3497 6.15454C5.1897 5.02954 6.3897 4.27954 7.7097 4.02454C9.0147 3.77704 10.2897 4.06204 11.3022 4.81955C11.4447 4.93205 11.5872 5.04454 11.7072 5.17954Z" fill="#13277E"/>
<path d="M12.5234 5.3527C12.5084 5.3902 12.4784 5.4202 12.4484 5.4502C12.4409 5.4577 12.4334 5.4577 12.4259 5.4652C12.2759 5.5777 12.0584 5.56271 11.9309 5.4127C11.8634 5.3302 11.7959 5.2552 11.7059 5.1802C11.5859 5.0527 11.4434 4.9327 11.3009 4.8277C10.2959 4.0627 9.01336 3.7852 7.70836 4.0327C6.38836 4.2802 5.19586 5.0302 4.35586 6.1552C3.50836 7.2877 3.11836 8.64521 3.23836 9.9802C3.35836 11.2027 3.90586 12.2827 4.79836 13.0252C4.86586 13.1002 4.93336 13.1527 5.00836 13.2052L4.83586 13.5352L4.59586 13.8127C4.49836 13.7377 4.40836 13.6702 4.31836 13.5802C3.28336 12.6952 2.65336 11.4577 2.51836 10.0552C2.37586 8.5327 2.81836 7.0027 3.77086 5.7277C4.72336 4.4527 6.08086 3.5977 7.57336 3.3127C9.08086 3.0277 10.5584 3.3577 11.7359 4.2427C11.8934 4.3552 12.0509 4.4902 12.1934 4.6252C12.2984 4.7227 12.3884 4.8202 12.4859 4.9327C12.5834 5.0527 12.5984 5.2177 12.5234 5.3527ZM43.1309 43.8127H34.5734C32.4359 43.8127 30.7034 45.5452 30.7034 47.6827V48.1327C30.7034 48.3352 30.8609 48.4927 31.0634 48.4927H46.6409C46.8359 48.4927 47.0009 48.3352 47.0009 48.1327V47.6827C47.0009 45.5452 45.2609 43.8127 43.1309 43.8127ZM46.2734 47.7727H31.4234V47.6827C31.4234 45.9427 32.8409 44.5327 34.5734 44.5327H43.1309C44.8634 44.5327 46.2809 45.9427 46.2809 47.6827V47.7727H46.2734Z" fill="#232323"/>
<path d="M46.2758 47.69V47.78H31.4258V47.69C31.4258 45.95 32.8433 44.54 34.5758 44.54H43.1333C44.8658 44.54 46.2758 45.95 46.2758 47.69Z" fill="#28343B"/>
<path d="M37.6548 32.527C37.6473 32.5645 37.6323 32.602 37.6173 32.6395C37.6698 32.5795 37.7373 32.5495 37.8198 32.542C37.7598 32.542 37.7073 32.5345 37.6548 32.527ZM38.5398 25.987C38.3598 26.077 38.1423 26.002 38.0523 25.822C38.0223 25.762 37.9923 25.7095 37.9623 25.6645C37.5273 26.5795 37.2423 27.5395 37.0623 28.4395C36.9873 28.777 36.9423 29.122 36.9048 29.437C36.7473 30.652 36.7548 31.702 36.7848 32.317C36.8373 32.332 36.8973 32.347 36.9423 32.3545C37.0473 32.392 37.1523 32.4145 37.2573 32.437C37.3473 32.4595 37.4373 32.4745 37.5273 32.4895C37.5048 32.182 37.4898 31.672 37.5123 31.042C37.5273 30.577 37.5648 30.052 37.6398 29.4745C37.6473 29.437 37.6548 29.392 37.6548 29.362C37.8123 28.252 38.1198 27.0145 38.6823 25.8595C38.6523 25.9045 38.6073 25.9495 38.5398 25.987ZM37.6548 32.527C37.6473 32.5645 37.6323 32.602 37.6173 32.6395C37.6698 32.5795 37.7373 32.5495 37.8198 32.542C37.7598 32.542 37.7073 32.5345 37.6548 32.527ZM38.5398 25.987C38.3598 26.077 38.1423 26.002 38.0523 25.822C38.0223 25.762 37.9923 25.7095 37.9623 25.6645C37.5273 26.5795 37.2423 27.5395 37.0623 28.4395C36.9873 28.777 36.9423 29.122 36.9048 29.437C36.7473 30.652 36.7548 31.702 36.7848 32.317C36.8373 32.332 36.8973 32.347 36.9423 32.3545C37.0473 32.392 37.1523 32.4145 37.2573 32.437C37.3473 32.4595 37.4373 32.4745 37.5273 32.4895C37.5048 32.182 37.4898 31.672 37.5123 31.042C37.5273 30.577 37.5648 30.052 37.6398 29.4745C37.6473 29.437 37.6548 29.392 37.6548 29.362C37.8123 28.252 38.1198 27.0145 38.6823 25.8595C38.6523 25.9045 38.6073 25.9495 38.5398 25.987ZM37.6548 32.527C37.6473 32.5645 37.6323 32.602 37.6173 32.6395C37.6698 32.5795 37.7373 32.5495 37.8198 32.542C37.7598 32.542 37.7073 32.5345 37.6548 32.527ZM38.5398 25.987C38.3598 26.077 38.1423 26.002 38.0523 25.822C38.0223 25.762 37.9923 25.7095 37.9623 25.6645C37.5273 26.5795 37.2423 27.5395 37.0623 28.4395C36.9873 28.777 36.9423 29.122 36.9048 29.437C36.7473 30.652 36.7548 31.702 36.7848 32.317C36.8373 32.332 36.8973 32.347 36.9423 32.3545C37.0473 32.392 37.1523 32.4145 37.2573 32.437C37.3473 32.4595 37.4373 32.4745 37.5273 32.4895C37.5048 32.182 37.4898 31.672 37.5123 31.042C37.5273 30.577 37.5648 30.052 37.6398 29.4745C37.6473 29.437 37.6548 29.392 37.6548 29.362C37.8123 28.252 38.1198 27.0145 38.6823 25.8595C38.6523 25.9045 38.6073 25.9495 38.5398 25.987ZM47.4573 21.277C47.3973 21.172 47.2998 21.112 47.1798 21.1045C43.9098 20.7745 41.3448 21.532 39.5673 23.347C39.0948 23.827 38.7048 24.3445 38.3748 24.8995C38.2248 25.147 38.0898 25.402 37.9698 25.6645C37.5348 26.5795 37.2498 27.5395 37.0698 28.4395C36.9948 28.777 36.9498 29.122 36.9123 29.437C36.7548 30.652 36.7623 31.702 36.7923 32.317C36.8073 32.5045 36.8148 32.6545 36.8223 32.7595V32.7895C36.8223 32.827 36.8298 32.8645 36.8373 32.8945C36.8448 32.977 36.8823 33.0445 36.9348 33.1045C36.9348 33.1045 36.9348 33.112 36.9423 33.112C37.0023 33.1645 37.0623 33.202 37.1448 33.217C37.2573 33.232 37.3773 33.247 37.4898 33.2545C37.7373 33.2845 37.9773 33.292 38.2173 33.292C38.2248 33.292 38.2248 33.292 38.2323 33.292C38.2848 33.292 38.3298 33.292 38.3673 33.2845C38.3973 33.2845 38.4348 33.292 38.4648 33.2845C38.6823 33.2845 38.9073 33.262 39.1248 33.232C39.1248 33.232 39.1323 33.232 39.1398 33.232C39.2373 33.2245 39.3273 33.2095 39.4248 33.187C39.4248 33.187 39.4248 33.187 39.4323 33.187C39.5748 33.1645 39.7173 33.1345 39.8598 33.097C41.2773 32.767 42.5823 32.002 43.7148 30.802C44.7948 29.662 45.5523 28.1695 45.8973 26.4745C46.3623 24.2395 47.4873 21.637 47.4948 21.607C47.5248 21.502 47.5173 21.3745 47.4573 21.277ZM45.1698 26.3245C44.8473 27.8845 44.1648 29.2645 43.1673 30.307C42.1023 31.432 40.9023 32.1445 39.5823 32.422C39.5373 32.422 39.4923 32.4295 39.4548 32.4445C39.1323 32.5045 38.8098 32.542 38.4648 32.5495H38.3748C38.2323 32.5645 38.0673 32.557 37.9173 32.5495C37.8948 32.542 37.8648 32.542 37.8423 32.542H37.8123C37.7523 32.542 37.6998 32.5345 37.6473 32.527C37.6023 32.527 37.5648 32.527 37.5273 32.5195V32.482C37.5048 32.1745 37.4898 31.6645 37.5123 31.0345C37.5273 30.5695 37.5648 30.0445 37.6398 29.467C37.6473 29.4295 37.6548 29.3845 37.6548 29.3545C37.8123 28.2445 38.1198 27.007 38.6823 25.852C38.7048 25.8295 38.7123 25.792 38.7273 25.762C39.0723 25.072 39.5148 24.4195 40.0773 23.857C41.6148 22.297 43.8198 21.607 46.6173 21.787C46.2648 22.6495 45.5373 24.5695 45.1698 26.3245ZM38.5398 25.987C38.3598 26.077 38.1423 26.002 38.0523 25.822C38.0223 25.762 37.9923 25.7095 37.9623 25.6645C37.5273 26.5795 37.2423 27.5395 37.0623 28.4395C36.9873 28.777 36.9423 29.122 36.9048 29.437C36.7473 30.652 36.7548 31.702 36.7848 32.317C36.8373 32.332 36.8973 32.347 36.9423 32.3545C37.0698 31.987 37.2648 31.537 37.5048 31.0345C37.5198 30.5695 37.5573 30.0445 37.6323 29.467C37.6398 29.4295 37.6473 29.3845 37.6473 29.3545C37.8048 28.2445 38.1123 27.007 38.6748 25.852C38.6523 25.9045 38.6073 25.9495 38.5398 25.987ZM38.5398 25.987C38.3598 26.077 38.1423 26.002 38.0523 25.822C38.0223 25.762 37.9923 25.7095 37.9623 25.6645C37.5273 26.5795 37.2423 27.5395 37.0623 28.4395C36.9873 28.777 36.9423 29.122 36.9048 29.437C36.7473 30.652 36.7548 31.702 36.7848 32.317C36.8373 32.332 36.8973 32.347 36.9423 32.3545C37.0473 32.392 37.1523 32.4145 37.2573 32.437C37.3473 32.4595 37.4373 32.4745 37.5273 32.4895C37.5048 32.182 37.4898 31.672 37.5123 31.042C37.5273 30.577 37.5648 30.052 37.6398 29.4745C37.6473 29.437 37.6548 29.392 37.6548 29.362C37.8123 28.252 38.1198 27.0145 38.6823 25.8595C38.6523 25.9045 38.6073 25.9495 38.5398 25.987ZM37.6548 32.527C37.6473 32.5645 37.6323 32.602 37.6173 32.6395C37.6698 32.5795 37.7373 32.5495 37.8198 32.542C37.7598 32.542 37.7073 32.5345 37.6548 32.527ZM38.5398 25.987C38.3598 26.077 38.1423 26.002 38.0523 25.822C38.0223 25.762 37.9923 25.7095 37.9623 25.6645C37.5273 26.5795 37.2423 27.5395 37.0623 28.4395C36.9873 28.777 36.9423 29.122 36.9048 29.437C36.7473 30.652 36.7548 31.702 36.7848 32.317C36.8373 32.332 36.8973 32.347 36.9423 32.3545C37.0473 32.392 37.1523 32.4145 37.2573 32.437C37.3473 32.4595 37.4373 32.4745 37.5273 32.4895C37.5048 32.182 37.4898 31.672 37.5123 31.042C37.5273 30.577 37.5648 30.052 37.6398 29.4745C37.6473 29.437 37.6548 29.392 37.6548 29.362C37.8123 28.252 38.1198 27.0145 38.6823 25.8595C38.6523 25.9045 38.6073 25.9495 38.5398 25.987ZM37.6548 32.527C37.6473 32.5645 37.6323 32.602 37.6173 32.6395C37.6698 32.5795 37.7373 32.5495 37.8198 32.542C37.7598 32.542 37.7073 32.5345 37.6548 32.527Z" fill="#232323"/>
<path d="M46.6239 21.7879C46.2714 22.6504 45.5364 24.5704 45.1764 26.3254C44.8539 27.8854 44.1714 29.2654 43.1739 30.3079C42.1089 31.4329 40.9089 32.1454 39.5889 32.4229C39.5439 32.4229 39.4989 32.4304 39.4614 32.4454C39.1389 32.5054 38.8164 32.5429 38.4714 32.5504H38.3739C38.1414 32.5504 37.9014 32.5354 37.6614 32.4979C37.8339 32.0329 38.0964 31.4329 38.4489 30.7954C39.5289 28.8379 40.9539 27.5104 42.6789 26.8429C42.8664 26.7679 42.9564 26.5579 42.8889 26.3779C42.8139 26.1904 42.6039 26.0929 42.4164 26.1679C40.5339 26.8954 38.9889 28.3279 37.8114 30.4429C37.6989 30.6454 37.6014 30.8404 37.5039 31.0354C37.5189 30.5704 37.5564 30.0454 37.6314 29.4679C37.6389 29.4304 37.6464 29.3854 37.6464 29.3554C37.8039 28.2454 38.1114 27.0079 38.6739 25.8529C38.6964 25.8304 38.7039 25.7929 38.7189 25.7629C39.0639 25.0729 39.5064 24.4204 40.0689 23.8579C41.6214 22.2904 43.8264 21.6004 46.6239 21.7879Z" fill="#2CC66A"/>
<path d="M44.7868 35.0029C43.4068 34.1704 42.1018 33.9079 40.8943 34.2379C39.7018 34.5679 38.8168 35.4229 38.2168 36.2254C38.0668 36.4204 37.9318 36.6154 37.8193 36.8029C37.7143 36.9754 37.6243 37.1404 37.5418 37.2904C37.5193 37.3204 37.5043 37.3504 37.4893 37.3804C37.4593 37.4629 37.4593 37.5379 37.4893 37.6129C37.5043 37.6729 37.5343 37.7254 37.5793 37.7629C37.7143 37.8979 37.9468 37.8979 38.0893 37.7629C38.1268 37.7329 38.1493 37.6879 38.1793 37.6504C38.1943 37.6279 38.2093 37.5979 38.2243 37.5754V37.5679C38.6818 36.7279 39.6418 35.3329 41.0968 34.9429C41.9743 34.6954 42.9568 34.8454 43.9843 35.3854C43.5868 35.7529 42.9568 36.3754 42.4693 37.0204C41.9968 37.6354 41.3968 38.1004 40.7293 38.3554C39.8968 38.6704 39.0943 38.6854 38.3518 38.4079C38.3068 38.4004 38.2693 38.3779 38.2318 38.3629C38.1643 38.3329 38.0968 38.2954 38.0218 38.2654C37.8418 38.1754 37.6243 38.2579 37.5418 38.4454C37.5193 38.4979 37.5043 38.5504 37.5043 38.5954C37.5043 38.6254 37.5118 38.6629 37.5193 38.6929V38.7004C37.5493 38.7979 37.6168 38.8729 37.7143 38.9254C37.8493 38.9929 37.9993 39.0529 38.1118 39.0904C38.1343 39.0979 38.1643 39.1054 38.1868 39.1129C38.2018 39.1204 38.2168 39.1279 38.2318 39.1279C38.6143 39.2629 39.0193 39.3229 39.4393 39.3229C39.9493 39.3229 40.4743 39.2254 40.9993 39.0229C41.7868 38.7154 42.4993 38.1754 43.0543 37.4479C43.7593 36.5329 44.8468 35.5879 44.8543 35.5804C44.9443 35.5054 44.9893 35.3929 44.9743 35.2729C44.9443 35.1679 44.8768 35.0704 44.7868 35.0029Z" fill="#232323"/>
<path d="M38.2114 37.5377V37.5752C38.2039 37.6652 38.1664 37.7402 38.0989 37.8077C37.9639 37.9427 37.7314 37.9427 37.5889 37.8002C37.5589 37.7703 37.5289 37.7177 37.5064 37.6877C37.4989 37.6727 37.4914 37.6652 37.4839 37.6502C36.9439 36.7202 36.0289 35.5577 34.6939 35.2277C33.8239 35.0027 32.8714 35.1602 31.8589 35.6852C32.2564 36.0602 32.8939 36.6827 33.3814 37.3202C33.8464 37.9352 34.4464 38.4002 35.1064 38.6627C35.9464 38.9777 36.7489 38.9927 37.4839 38.7077C37.4914 38.7077 37.4914 38.7077 37.4989 38.7077V38.7002C37.5664 38.6777 37.6264 38.6477 37.6939 38.6178C37.8739 38.5352 38.0914 38.6177 38.1739 38.7977C38.1964 38.8502 38.2114 38.9027 38.2114 38.9477C38.2114 39.0077 38.1964 39.0602 38.1664 39.1127C38.1289 39.1803 38.0689 39.2327 38.0014 39.2702C37.8364 39.3527 37.6639 39.4127 37.4839 39.4652C37.1389 39.5777 36.7714 39.6227 36.4039 39.6227C35.8939 39.6227 35.3839 39.5252 34.8514 39.3302C34.0564 39.0152 33.3514 38.4753 32.7964 37.7477C32.0914 36.8327 31.0114 35.8877 30.9964 35.8802C30.9064 35.8052 30.8689 35.6927 30.8764 35.5727C30.8839 35.4602 30.9514 35.3552 31.0489 35.2877C32.3989 34.4702 33.6814 34.2002 34.8739 34.5077C36.0064 34.8002 36.8689 35.5502 37.4839 36.3527C37.6039 36.4952 37.7089 36.6527 37.8139 36.7952C37.9339 36.9677 38.0464 37.1477 38.1439 37.3202C38.1589 37.3352 38.1664 37.3502 38.1739 37.3652C38.2039 37.4252 38.2114 37.4852 38.2114 37.5377ZM39.5764 32.7977L39.9289 32.8802C39.9289 32.9702 39.8989 33.0377 39.8464 33.0977C39.7864 33.1577 39.7114 33.1952 39.6139 33.2102C39.2689 33.2627 38.9239 33.2927 38.6014 33.2927C38.5489 33.2927 38.5039 33.2927 38.4589 33.2852C38.4289 33.2927 38.3914 33.2852 38.3614 33.2852H38.2114C37.9789 33.2777 37.7314 33.2552 37.4839 33.2177C37.3639 33.2027 37.2364 33.1802 37.1164 33.1577C37.0564 33.1427 36.9964 33.1277 36.9364 33.1127C36.9289 33.1127 36.9289 33.1052 36.9289 33.1052C35.5039 32.7827 34.2064 32.0102 33.0664 30.8027C31.9789 29.6552 31.2214 28.1627 30.8839 26.4752C30.4189 24.2402 29.2939 21.6377 29.2789 21.6077C29.2339 21.4952 29.2414 21.3827 29.3014 21.2777C29.3614 21.1727 29.4589 21.1127 29.5789 21.0977C33.6514 20.7077 36.6814 22.0127 38.3839 24.9002C38.4964 25.0952 38.6089 25.2902 38.7139 25.5002C38.7589 25.5902 38.7664 25.6727 38.7439 25.7627C38.7289 25.7927 38.7214 25.8302 38.6989 25.8527C38.6614 25.9127 38.6164 25.9577 38.5564 25.9877C38.3764 26.0777 38.1589 26.0027 38.0689 25.8227C38.0389 25.7627 38.0089 25.7102 37.9789 25.6652C36.5164 22.8527 33.8914 21.5477 30.1489 21.7877C30.4939 22.6577 31.2364 24.5777 31.5964 26.3327C31.9114 27.8852 32.6014 29.2652 33.5989 30.3152C34.5589 31.3202 35.6314 31.9952 36.7939 32.3252C36.8464 32.3402 36.9064 32.3552 36.9514 32.3627C37.0564 32.4002 37.1614 32.4227 37.2664 32.4452C37.3564 32.4677 37.4464 32.4827 37.5364 32.4977C37.5814 32.5052 37.6339 32.5127 37.6714 32.5127C37.9114 32.5502 38.1514 32.5652 38.3839 32.5652H38.4814C38.6689 32.5727 38.8639 32.5652 39.0589 32.5502C39.1339 32.5427 39.2089 32.5352 39.2839 32.5277C39.3064 32.5277 39.3364 32.5202 39.3589 32.5202C39.3889 32.4902 39.4339 32.4752 39.4714 32.4602C39.5164 32.4452 39.5614 32.4377 39.5989 32.4377C39.6214 32.4377 39.6364 32.4452 39.6589 32.4452C39.8539 32.4902 39.9814 32.6777 39.9439 32.8727L39.5764 32.7977Z" fill="#232323"/>
<path d="M37.4902 37.6498V38.6998C36.7477 38.9848 35.9527 38.9698 35.1127 38.6548C34.4527 38.3923 33.8527 37.9273 33.3877 37.3123C32.9002 36.6823 32.2627 36.0598 31.8652 35.6773C32.8777 35.1523 33.8302 34.9948 34.7002 35.2198C36.0277 35.5573 36.9502 36.7198 37.4902 37.6498Z" fill="#2CC66A"/>
<path d="M43.9693 35.3844C43.5718 35.7519 42.9418 36.3744 42.4543 37.0194C41.9818 37.6344 41.3818 38.0994 40.7143 38.3544C39.8818 38.6694 39.0793 38.6844 38.3368 38.4069C38.2918 38.3994 38.2543 38.3769 38.2168 38.3619V37.5744C38.6743 36.7344 39.6343 35.3394 41.0893 34.9494C41.9593 34.6944 42.9418 34.8519 43.9693 35.3844Z" fill="#28343B"/>
<path d="M38.2102 32.8952V43.6802C38.2102 43.8752 38.0452 44.0402 37.8502 44.0402C37.6477 44.0402 37.4902 43.8752 37.4902 43.6802V32.9177C37.4902 32.8127 37.5427 32.7077 37.6102 32.6402C37.6102 32.6402 37.6177 32.6402 37.6177 32.6327C37.6702 32.5727 37.7377 32.5427 37.8202 32.5352H37.8502C37.8727 32.5352 37.9027 32.5352 37.9252 32.5427C38.0827 32.5802 38.2102 32.7077 38.2102 32.8952Z" fill="#232323"/>
<path d="M42.6889 26.8426C40.9639 27.5101 39.5389 28.8376 38.4589 30.7951C38.1064 31.4326 37.8439 32.0326 37.6714 32.4976C37.6639 32.5051 37.6639 32.5201 37.6564 32.5276C37.6489 32.5651 37.6339 32.6026 37.6189 32.6401C37.6189 32.6476 37.6114 32.6476 37.6114 32.6476C37.5814 32.7376 37.5514 32.8126 37.5289 32.8876C37.5214 32.9176 37.5064 32.9476 37.4839 32.9776C37.4239 33.0826 37.3114 33.1501 37.1764 33.1501C37.0114 33.1501 36.8689 33.0451 36.8314 32.8951C36.8239 32.8651 36.8164 32.8276 36.8164 32.7901V32.7601C36.8164 32.7301 36.8239 32.6926 36.8389 32.6626C36.8689 32.5651 36.9064 32.4676 36.9514 32.3476C37.0789 31.9801 37.2739 31.5301 37.5139 31.0276C37.6114 30.8326 37.7089 30.6376 37.8214 30.4351C38.9989 28.3276 40.5439 26.8876 42.4264 26.1601C42.6139 26.0851 42.8239 26.1826 42.8989 26.3701C42.9589 26.5576 42.8764 26.7676 42.6889 26.8426ZM39.2239 33.2401C39.0814 33.2401 38.9539 33.1576 38.8939 33.0376C38.8189 32.9026 38.8339 32.7226 38.9539 32.6026C39.0964 32.4601 39.3214 32.4601 39.4639 32.6026C39.5314 32.6701 39.5764 32.7826 39.5764 32.8801C39.5839 33.0751 39.4189 33.2401 39.2239 33.2401Z" fill="#232323"/>
<path d="M33.604 24.9449C33.4615 25.0799 33.454 25.3124 33.589 25.4624C33.604 25.4849 35.404 27.3749 36.9115 29.4374C36.754 30.6524 36.7615 31.7024 36.7915 32.3174C35.6215 31.9874 34.549 31.3199 33.5965 30.3074C32.6065 29.2574 31.909 27.8774 31.594 26.3249C31.234 24.5699 30.4915 22.6499 30.1465 21.7799C33.889 21.5399 36.514 22.8449 37.9765 25.6574C37.5415 26.5724 37.2565 27.5324 37.0765 28.4324C35.644 26.5649 34.1365 24.9824 34.114 24.9599C33.9715 24.8174 33.7465 24.8099 33.604 24.9449Z" fill="#28343B"/>
<path d="M37.6555 29.3469C37.6555 29.3844 37.648 29.4294 37.6405 29.4594C37.6105 29.5344 37.5655 29.5869 37.5055 29.6394C37.4455 29.6844 37.3705 29.7069 37.2955 29.7069C37.183 29.7069 37.0705 29.6544 37.003 29.5644C36.973 29.5194 36.9355 29.4744 36.9055 29.4369C35.398 27.3744 33.598 25.4844 33.583 25.4619C33.448 25.3194 33.4555 25.0869 33.598 24.9444C33.7405 24.8094 33.9655 24.8169 34.108 24.9594C34.1305 24.9819 35.638 26.5719 37.0705 28.4319C37.243 28.6644 37.4155 28.8969 37.5955 29.1369C37.6405 29.2044 37.6555 29.2794 37.6555 29.3469ZM35.578 19.3044C35.3905 19.3044 35.233 19.1619 35.218 18.9744C35.0905 17.5569 34.603 16.5219 33.778 15.9069C32.518 14.9694 30.8455 15.2994 30.823 15.2994C30.628 15.3369 30.433 15.2169 30.3955 15.0219C30.358 14.8269 30.478 14.6319 30.673 14.5944C30.7555 14.5794 32.6755 14.1894 34.198 15.3219C35.203 16.0644 35.788 17.2719 35.938 18.9069C35.953 19.1094 35.8105 19.2819 35.608 19.3044C35.6005 19.3044 35.5855 19.3044 35.578 19.3044Z" fill="#232323"/>
<mask id="path-20-inside-1_3871_21803" fill="white">
<path d="M11.7734 3.79688L20.5279 10.4011L12.0967 21.5775C11.0989 22.9002 9.21772 23.1636 7.89502 22.1658L3.93044 19.175C2.60774 18.1772 2.34436 16.2961 3.34217 14.9734L11.7734 3.79688Z"/>
</mask>
<path d="M11.7734 3.79688L20.5279 10.4011L12.0967 21.5775C11.0989 22.9002 9.21772 23.1636 7.89502 22.1658L3.93044 19.175C2.60774 18.1772 2.34436 16.2961 3.34217 14.9734L11.7734 3.79688Z" fill="#13277E"/>
<path d="M11.7734 3.79688L20.5279 10.4011L11.7734 3.79688ZM12.4958 21.8787C11.3317 23.4218 9.13706 23.7291 7.59391 22.565L3.62932 19.5742C2.08617 18.4101 1.7789 16.2154 2.94301 14.6722L3.74133 15.2745C2.90982 16.3767 3.1293 17.9443 4.23155 18.7759L8.19614 21.7666C9.29839 22.5982 10.866 22.3787 11.6975 21.2764L12.4958 21.8787ZM3.62932 19.5742C2.08617 18.4101 1.7789 16.2154 2.94301 14.6722L11.3743 3.49576L12.1726 4.09799L3.74133 15.2745C2.90982 16.3767 3.1293 17.9443 4.23155 18.7759L3.62932 19.5742ZM20.9271 10.7022L12.4958 21.8787C11.3317 23.4218 9.13706 23.7291 7.59391 22.565L8.19614 21.7666C9.29839 22.5982 10.866 22.3787 11.6975 21.2764L20.1288 10.0999L20.9271 10.7022Z" fill="#232323" mask="url(#path-20-inside-1_3871_21803)"/>
</g>
<defs>
<clipPath id="clip0_3871_21803">
<rect width="48" height="48" fill="white" transform="translate(0.5)"/>
</clipPath>
</defs>
</svg>
