<svg width="96" height="96" viewBox="0 0 48 48" fill="none" xmlns="http://www.w3.org/2000/svg">
<path d="M3 9C3 5.68629 5.68629 3 9 3H39C42.3137 3 45 5.68629 45 9V39C45 42.3137 42.3137 45 39 45H9C5.68629 45 3 42.3137 3 39V9Z" fill="#D3D3D3"/>
<path d="M22.2776 25.7218L11.9973 30.0021L8.15625 39.8431C8.56342 40.2503 9.12592 40.5021 9.74724 40.5021H21.7472C22.1615 40.5021 22.4972 40.1663 22.4972 39.7521V26.2521C22.4972 26.045 22.4133 25.8575 22.2776 25.7218Z" fill="#83CBFF"/>
<path d="M26.2472 40.5021H38.2472C39.4899 40.5021 40.4972 39.4948 40.4972 38.2521V26.2521C40.4972 25.8379 40.1615 25.5021 39.7472 25.5021H26.2472C25.833 25.5021 25.4972 25.8379 25.4972 26.2521V39.7521C25.4972 40.1663 25.833 40.5021 26.2472 40.5021Z" fill="#83CBFF"/>
<path d="M40.4972 21.7521V9.75212C40.4972 9.1308 40.2454 8.5683 39.8382 8.16113L28.4973 12.0021L25.7169 22.2825C25.8526 22.4182 26.0401 22.5021 26.2472 22.5021H39.7472C40.1615 22.5021 40.4972 22.1663 40.4972 21.7521Z" fill="#83CBFF"/>
<path d="M7.5 9.75C7.5 8.50736 8.50736 7.5 9.75 7.5H21.75C22.1642 7.5 22.5 7.83579 22.5 8.25V21.75C22.5 22.1642 22.1642 22.5 21.75 22.5H8.25C7.83579 22.5 7.5 22.1642 7.5 21.75V9.75Z" fill="#00A6ED"/>
<path d="M7.5 26.25C7.5 25.8358 7.83579 25.5 8.25 25.5H21.75C21.9571 25.5 22.1446 25.5839 22.2803 25.7197L8.15901 39.841C7.75184 39.4338 7.5 38.8713 7.5 38.25V26.25Z" fill="#00A6ED"/>
<path d="M39.841 8.15901C39.4338 7.75184 38.8713 7.5 38.25 7.5H26.25C25.8358 7.5 25.5 7.83579 25.5 8.25V21.75C25.5 21.9571 25.5839 22.1446 25.7197 22.2803L39.841 8.15901Z" fill="#00A6ED"/>
</svg>
