<svg width="97" height="96" viewBox="0 0 97 96" fill="none" xmlns="http://www.w3.org/2000/svg">
<g id="Bookmark tabs">
<path id="Shape" d="M17.3008 7.5C13.5729 7.5 10.5508 10.5221 10.5508 14.25V76.35C10.5508 80.0779 13.5729 83.1 17.3008 83.1H24.0508V84.45C24.0508 86.6868 25.864 88.5 28.1008 88.5H74.0008C76.2375 88.5 78.0508 86.6868 78.0508 84.45V22.35C78.0508 20.1132 76.2375 18.3 74.0008 18.3H61.6191L52.7962 9.47703C51.5303 8.21116 49.8134 7.5 48.0232 7.5H17.3008Z" fill="#B4ACBC"/>
<path id="Shape_2" d="M13.25 14.2502C13.25 12.0134 15.0632 10.2002 17.3 10.2002H48.0224C49.0965 10.2002 50.1267 10.6269 50.8862 11.3864L66.0638 26.564C66.8233 27.3235 67.25 28.3536 67.25 29.4278V76.3502C67.25 78.5869 65.4367 80.4002 63.2 80.4002H17.3C15.0632 80.4002 13.25 78.5869 13.25 76.3502V14.2502Z" fill="#F3EEF8"/>
<path id="Shape_3" d="M22.6996 34.5C21.954 34.5 21.3496 35.1044 21.3496 35.85C21.3496 36.5956 21.954 37.2 22.6996 37.2H57.7996C58.5452 37.2 59.1496 36.5956 59.1496 35.85C59.1496 35.1044 58.5452 34.5 57.7996 34.5H22.6996ZM22.6996 42.6C21.954 42.6 21.3496 43.2044 21.3496 43.95C21.3496 44.6956 21.954 45.3 22.6996 45.3H57.7996C58.5452 45.3 59.1496 44.6956 59.1496 43.95C59.1496 43.2044 58.5452 42.6 57.7996 42.6H22.6996ZM21.3496 52.05C21.3496 51.3044 21.954 50.7 22.6996 50.7H57.7996C58.5452 50.7 59.1496 51.3044 59.1496 52.05C59.1496 52.7956 58.5452 53.4 57.7996 53.4H22.6996C21.954 53.4 21.3496 52.7956 21.3496 52.05ZM22.6996 58.8C21.954 58.8 21.3496 59.4044 21.3496 60.15C21.3496 60.8956 21.954 61.5 22.6996 61.5H44.2996C45.0452 61.5 45.6496 60.8956 45.6496 60.15C45.6496 59.4044 45.0452 58.8 44.2996 58.8H22.6996Z" fill="#998EA4"/>
<path id="Shape_4" d="M48.3496 10.2129C49.3038 10.2903 50.2039 10.7039 50.8858 11.3858L66.0634 26.5634C66.7453 27.2453 67.1589 28.1454 67.2363 29.0996H52.3996C50.1629 29.0996 48.3496 27.2864 48.3496 25.0496V10.2129Z" fill="#CDC4D6"/>
<path id="Shape_5" d="M65.5239 40.2176C65.7673 40.0124 66.0755 39.8999 66.3938 39.8999H74.0009C74.7464 39.8999 75.3509 40.5043 75.3509 41.2499V46.6499C75.3509 47.3955 74.7464 47.9999 74.0009 47.9999H66.3938C66.0755 47.9999 65.7673 47.8874 65.5239 47.6822L62.3199 44.9822C61.6798 44.4428 61.6798 43.457 62.3199 42.9176L65.5239 40.2176Z" fill="#F70A8D"/>
<path id="Shape_6" d="M73.6235 59.1175C73.867 58.9123 74.1751 58.7998 74.4934 58.7998H82.1005C82.846 58.7998 83.4505 59.4042 83.4505 60.1498V65.5498C83.4505 66.2954 82.846 66.8998 82.1005 66.8998H74.4934C74.1751 66.8998 73.867 66.7873 73.6235 66.5821L70.4195 63.8821C69.7794 63.3427 69.7794 62.3569 70.4195 61.8175L73.6235 59.1175Z" fill="#F9C23C"/>
</g>
</svg>
