<svg width="97" height="96" viewBox="0 0 97 96" fill="none" xmlns="http://www.w3.org/2000/svg">
<g id="Coin">
<path id="Shape" d="M48.4996 87.9001C70.5358 87.9001 88.3996 70.0363 88.3996 48.0001C88.3996 25.9639 70.5358 8.1001 48.4996 8.1001C26.4634 8.1001 8.59961 25.9639 8.59961 48.0001C8.59961 70.0363 26.4634 87.9001 48.4996 87.9001Z" fill="#F9C23C"/>
<path id="Shape_2" opacity="0.53" d="M79.8504 47.9999C79.8504 65.314 65.8145 79.3499 48.5004 79.3499C31.1863 79.3499 17.1504 65.314 17.1504 47.9999C17.1504 30.6858 31.1863 16.6499 48.5004 16.6499C65.8145 16.6499 79.8504 30.6858 79.8504 47.9999ZM66.5124 59.0865C66.3129 58.4595 65.7144 58.032 65.0589 58.032H65.1444V35.916C66.3699 35.118 66.5979 33.1515 65.1159 32.268L49.7544 22.977C49.0704 22.5495 48.2154 22.5495 47.5314 22.977L32.1414 32.268C30.6594 33.1515 30.8874 35.118 32.0844 35.916V58.0605H31.7709C31.0869 58.0605 30.4884 58.5165 30.3174 59.172L29.3199 62.7345C29.0349 63.7035 29.7759 64.6725 30.7734 64.6725H66.2559C67.2534 64.644 67.9944 63.6465 67.6809 62.649L66.5124 59.0865ZM36.8154 36.258V58.032H41.5464V36.258H36.8154ZM46.2489 36.258V58.032H51.0654V36.258H46.2489ZM55.7964 36.258V58.032H60.4134V36.258H55.7964Z" fill="#D3883E"/>
</g>
</svg>
