<svg width="113" height="96" viewBox="0 0 113 96" fill="none" xmlns="http://www.w3.org/2000/svg">
<g id="Component 86" clipPath="url(#clip0_5293_359)">
<path id="Vector" fillRule="evenodd" clipRule="evenodd" d="M34.826 20.1425C34.682 19.8725 34.52 19.6205 34.358 19.3685C28.292 10.0805 12.758 9.39648 12.758 9.39648C12.758 9.39648 7.14201 23.7965 13.208 33.1205C19.274 42.4445 34.808 43.1105 34.808 43.1105C34.808 43.1105 50.27 42.4265 56.408 33.1205C62.5461 23.8145 56.8581 9.39648 56.8581 9.39648C56.8581 9.39648 41.396 10.0805 35.258 19.3685C35.132 19.7105 34.916 19.8725 34.826 20.1425Z" fill="#91CB7C"/>
<path id="Vector_2" fillRule="evenodd" clipRule="evenodd" d="M12.8291 10.5962C12.8291 10.5962 28.2911 11.2802 34.4291 20.5682C40.5671 29.8562 34.8251 44.3102 34.8251 44.3102C34.8251 44.3102 19.3631 43.6262 13.2251 34.3202C7.08705 25.0142 12.8291 10.5962 12.8291 10.5962Z" fill="#D0EEC5"/>
<path id="Vector_3" fillRule="evenodd" clipRule="evenodd" d="M87.0234 78.5106V55.3806H78.9234L70.6434 51.2406C66.6493 49.2376 62.1596 48.4372 57.7194 48.9366C51.6678 49.6093 46.078 52.494 42.0234 57.0366L38.4234 61.0686L26.5794 59.8806C24.8943 59.712 23.1983 60.0675 21.7228 60.8986C20.2474 61.7298 19.0644 62.9961 18.3354 64.5246L9.13737 61.1586C8.37759 60.8778 7.56084 60.7863 6.75777 60.8921C5.9547 60.9978 5.18948 61.2977 4.52832 61.7656C3.86716 62.2336 3.32996 62.8556 2.9632 63.5778C2.59643 64.3 2.41115 65.1007 2.42337 65.9106V67.7106L39.8634 83.9106C42.4325 85.0224 45.2904 85.2811 48.0174 84.6486L74.4234 78.5106H87.0234Z" fill="#F6D0A0"/>
<path id="Vector_4" fillRule="evenodd" clipRule="evenodd" d="M16.8234 68.2498C16.8234 68.2498 19.1094 62.8499 18.3354 64.5239L9.13737 61.1579C8.37759 60.877 7.56084 60.7856 6.75777 60.8913C5.9547 60.9971 5.18948 61.2969 4.52832 61.7649C3.86716 62.2328 3.32996 62.8548 2.9632 63.577C2.59643 64.2992 2.41115 65.0999 2.42337 65.9099V67.7099L39.8634 83.9098C42.4325 85.0217 45.2904 85.2803 48.0174 84.6478L74.4234 78.5098H87.0234V68.3039L16.8234 68.2498Z" fill="#F09276"/>
<path id="Vector_5" d="M87.0238 50.3044H110.424V86.3044H87.0238V50.3044Z" fill="#768EC6"/>
<path id="Vector_6" d="M87.0238 50.3044H110.424V68.3044H87.0238V50.3044Z" fill="#C1CDEA"/>
<path id="Vector_7" d="M3.52055 60.2759C4.41364 59.6577 5.44144 59.2617 6.51843 59.1208C7.59544 58.9799 8.69051 59.0982 9.71255 59.4659L17.5786 62.3099C18.5906 60.8518 19.973 59.6896 21.5833 58.943C23.1936 58.1963 24.9737 57.8922 26.7406 58.0619L37.6846 59.1419L40.6726 55.8299C45.028 50.9612 51.0276 47.8716 57.5206 47.1539C62.3139 46.6461 67.1518 47.5337 71.4526 49.7099L79.3546 53.6699H85.2226V50.3039C85.2226 49.8265 85.4123 49.3687 85.7498 49.0311C86.0874 48.6936 86.5452 48.5039 87.0226 48.5039H110.423C110.9 48.5039 111.358 48.6936 111.695 49.0311C112.033 49.3687 112.223 49.8265 112.223 50.3039V86.3039C112.223 86.7813 112.033 87.2391 111.695 87.5767C111.358 87.9143 110.9 88.1039 110.423 88.1039H87.0226C86.5452 88.1039 86.0874 87.9143 85.7498 87.5767C85.4123 87.2391 85.2226 86.7813 85.2226 86.3039V80.3099H74.6386L48.4306 86.5559C47.3222 86.8214 46.1863 86.9543 45.0466 86.9519C43.0141 86.9488 41.0041 86.526 39.1426 85.7099L1.70255 69.5099C1.38056 69.3694 1.10675 69.1377 0.914841 68.8435C0.722939 68.5492 0.62133 68.2052 0.622551 67.8539V65.9099C0.609291 64.8057 0.86644 63.7149 1.37158 62.7329C1.87672 61.7508 2.61451 60.9073 3.52055 60.2759ZM88.8226 84.5039H108.623V52.1039H88.8226V84.5039ZM4.22256 66.5039L40.5826 82.3259C42.7954 83.2814 45.2578 83.4961 47.6026 82.9379L74.0086 76.7099C74.146 76.6912 74.2853 76.6912 74.4226 76.7099H85.2226V57.1799H78.9226C78.6349 57.1562 78.3571 57.0636 78.1126 56.9099L69.8326 52.7699C66.1468 50.933 62.0101 50.1957 57.9166 50.6459C52.3048 51.2686 47.1231 53.9493 43.3726 58.1699L39.7726 62.1839C39.5829 62.3971 39.3453 62.5622 39.0792 62.6655C38.8132 62.7687 38.5264 62.8073 38.2426 62.7779L26.3986 61.6079C25.0136 61.4713 23.6217 61.7868 22.4309 62.5071C21.2401 63.2274 20.3145 64.3138 19.7926 65.6039L19.4866 66.3959H31.7086C32.186 66.3959 32.6438 66.5856 32.9814 66.9231C33.3189 67.2607 33.5086 67.7185 33.5086 68.1959C33.5086 68.6733 33.3189 69.1311 32.9814 69.4687C32.6438 69.8063 32.186 69.9959 31.7086 69.9959H16.8226C16.5342 69.9976 16.2497 69.9301 15.9929 69.7989C15.7361 69.6678 15.5146 69.4768 15.347 69.2422C15.1794 69.0075 15.0706 68.7361 15.0298 68.4506C14.989 68.1652 15.0174 67.8741 15.1126 67.6019L15.9226 65.5859L8.45255 62.8499C7.96851 62.6775 7.44979 62.6255 6.94113 62.6982C6.43248 62.771 5.94914 62.9663 5.53282 63.2675C5.1165 63.5687 4.77968 63.9666 4.55141 64.4269C4.32314 64.8873 4.21029 65.3962 4.22256 65.9099V66.5039ZM34.8226 18.2099C41.8246 9.56994 56.1166 8.81394 56.7466 8.79594C57.1303 8.77048 57.5121 8.86859 57.8361 9.0759C58.16 9.28321 58.409 9.58882 58.5466 9.94794C58.7806 10.5599 64.4146 25.3559 57.8986 35.3099C53.3086 42.3659 42.9946 45.6959 34.8586 46.1099C34.4086 46.0199 18.3526 45.3359 11.8186 35.3099C5.28455 25.2839 10.9366 10.5599 11.1706 9.94794C11.3082 9.58882 11.5572 9.28321 11.8811 9.0759C12.205 8.86859 12.5868 8.77048 12.9706 8.79594C13.5286 8.81394 27.8206 9.56994 34.8226 18.2099ZM54.8566 33.3479C59.3566 26.4539 56.6566 16.0859 55.5766 12.5039C51.9766 12.9179 41.4466 14.6459 36.8926 21.5039C38.4591 24.9431 39.1693 28.7105 38.9626 32.4839C41.6383 31.1239 43.8961 29.0651 45.4966 26.5259C45.6274 26.3281 45.7959 26.158 45.9927 26.0255C46.1894 25.893 46.4103 25.8007 46.6428 25.7538C46.8753 25.707 47.1148 25.7066 47.3475 25.7526C47.5801 25.7986 47.8014 25.8901 47.9986 26.0219C48.3932 26.2859 48.6675 26.695 48.7619 27.1602C48.8563 27.6254 48.7631 28.1091 48.5026 28.5059C46.1247 32.1763 42.6187 34.9748 38.5126 36.4799C38.2349 38.4179 37.8321 40.336 37.3066 42.2219C41.8426 41.5919 50.7886 39.5759 54.8566 33.3479ZM14.0686 12.5039C12.9346 16.1039 10.2886 26.4539 14.7886 33.3479C18.3886 38.9999 26.2186 41.1959 30.9886 42.0239C27.5015 37.1986 24.5501 32.0081 22.1866 26.5439C22.0052 26.1023 22.0066 25.6068 22.1906 25.1663C22.3745 24.7257 22.726 24.3763 23.1676 24.1949C23.6092 24.0135 24.1047 24.015 24.5452 24.1989C24.9858 24.3829 25.3352 24.7343 25.5166 25.1759C27.84 30.5272 30.7498 35.6042 34.1926 40.3139C35.3806 35.7419 36.6946 27.4079 32.8786 21.5579C28.3426 14.6639 17.7946 12.9179 14.0686 12.5039Z" fill="#25292C"/>
</g>
<defs>
<clipPath id="clip0_5293_359">
<rect width="112" height="96" fill="white" transform="matrix(-1 0 0 1 112.5 0)"/>
</clipPath>
</defs>
</svg>
