<svg width="97" height="96" viewBox="0 0 97 96" fill="none" xmlns="http://www.w3.org/2000/svg">
<g id="Money bag">
<path id="Shape" fillRule="evenodd" clipRule="evenodd" d="M53.0368 8.45378C54.0714 9.64508 55.827 9.86453 57.1123 8.95538C59.6203 7.16843 62.8808 9.86453 61.5954 12.6233L54.0087 21.3072H41.8762L34.2267 12.5293C32.9414 9.73913 36.2018 7.04303 38.7098 8.82998L38.9293 8.98673C40.2146 9.89588 41.9702 9.64508 42.9734 8.45378L45.7009 5.19339C46.8922 3.75129 49.1181 3.75129 50.3094 5.19339L53.0368 8.45378ZM10.9023 64.3817C10.9023 43.8788 27.5179 27.2634 48.0209 27.2634C68.5238 27.2634 85.1394 43.8788 85.1081 64.3817C85.1081 79.5237 72.8188 91.8129 57.6767 91.8129H38.3337C23.1916 91.8129 10.9023 79.5237 10.9023 64.3817Z" fill="#F3C07B"/>
<path id="Shape_2" fillRule="evenodd" clipRule="evenodd" d="M42.6283 21.2446H53.4127C55.3251 21.2446 56.8926 22.8121 56.8926 24.7245C56.8926 26.6368 55.3251 28.2043 53.4127 28.2043H42.6283C40.7159 28.2043 39.1484 26.6368 39.1484 24.7245C39.1484 22.8121 40.7159 21.2446 42.6283 21.2446ZM48.0207 58.4885H48.2401C52.9427 58.6139 56.7047 62.4385 56.7047 67.141C56.7047 71.1538 53.9772 74.5083 50.2779 75.5115V79.0227C50.2779 80.2767 49.2747 81.2798 48.0207 81.2798C46.7667 81.2798 45.7635 80.2767 45.7635 79.0227V75.5115C42.0642 74.5083 39.3367 71.1538 39.3367 67.141C39.3367 65.887 40.3399 64.8838 41.5939 64.8838C42.8479 64.8838 43.8511 65.887 43.8511 67.141C43.8511 69.4609 45.7008 71.3106 47.9894 71.3106C50.2779 71.3106 52.1589 69.4296 52.1589 67.141C52.1589 64.8525 50.2779 62.9715 47.9894 62.9715H47.7699C43.0987 62.8461 39.3367 59.0214 39.3367 54.3189C39.3367 50.3061 42.0642 46.9517 45.7635 45.9485V42.4373C45.7635 41.1833 46.7667 40.1801 48.0207 40.1801C49.2747 40.1801 50.2779 41.1833 50.2779 42.4373V45.9485C53.9772 46.9517 56.7047 50.3061 56.7047 54.3189C56.7047 55.5729 55.7015 56.5761 54.4475 56.5761C53.1935 56.5761 52.1903 55.5729 52.1903 54.3189C52.1903 52.0304 50.3093 50.1494 48.0207 50.1494C45.7322 50.1494 43.8511 52.0304 43.8511 54.3189C43.8511 56.6075 45.7322 58.4885 48.0207 58.4885Z" fill="#2B8AFC"/>
</g>
</svg>
