<svg width="97" height="96" viewBox="0 0 97 96" fill="none" xmlns="http://www.w3.org/2000/svg">
<g clipPath="url(#clip0_8937_14051)">
<path d="M53.6832 12.0933C53.4054 11.8156 53.1277 11.6304 52.7574 11.4453C52.5723 11.3527 52.3872 11.2601 52.1094 11.1676C51.7392 11.075 51.3689 10.9824 50.9986 10.9824H45.9997C43.9632 10.9824 42.2969 12.6487 42.2969 14.6853V15.1481C42.2969 15.4259 42.3894 15.611 42.3894 15.7961C42.482 16.0739 42.5746 16.259 42.6672 16.4441C42.6672 16.5367 42.7597 16.6293 42.8523 16.7219C43.0374 16.907 43.13 17.1847 43.4077 17.3699C44.0557 18.0179 44.9815 18.3881 45.9997 18.3881H47.5734V22.3687H49.4249V18.3881H50.9986C53.0352 18.3881 54.7014 16.7219 54.7014 14.6853C54.7014 13.667 54.3312 12.7413 53.6832 12.0933ZM50.9986 16.5367H45.9997C44.9815 16.5367 44.1483 15.7036 44.1483 14.6853C44.1483 13.667 44.9815 12.8339 45.9997 12.8339H50.9986C52.0169 12.8339 52.85 13.667 52.85 14.6853C52.85 15.7036 52.0169 16.5367 50.9986 16.5367Z" fill="#263A46"/>
<path d="M70.9 19.0373L67.8451 22.4624C67.4748 22.8327 67.5674 23.3881 67.9377 23.7584L74.8805 29.8681C75.2508 30.2384 75.8062 30.1459 76.1765 29.7756L79.2314 26.3504C79.6017 25.9801 79.5091 25.4247 79.1388 25.0544L72.196 18.9447C71.8257 18.5744 71.2702 18.667 70.9 19.0373Z" fill="#2A414E"/>
<path d="M66.3984 29.7724L70.0772 25.6113L72.8516 28.0645L69.1719 32.2256L66.3984 29.7724Z" fill="#F3F3F3"/>
<path d="M26.0984 19.0373L29.1533 22.4624C29.5235 22.8327 29.431 23.3881 29.0607 23.7584L22.1178 29.8681C21.7475 30.2384 21.1921 30.1459 20.8218 29.7756L17.767 26.3504C17.3967 25.9801 17.4893 25.4247 17.8595 25.0544L24.8024 18.9447C25.1727 18.5744 25.7281 18.667 26.0984 19.0373Z" fill="#2A414E"/>
<path d="M24.1953 28.0918L26.9697 25.6387L30.6485 29.7998L27.875 32.2529L24.1953 28.0918Z" fill="#F3F3F3"/>
<path d="M48.5027 85.0406C66.3456 85.0406 80.8102 70.5761 80.8102 52.7332C80.8102 34.8903 66.3456 20.4258 48.5027 20.4258C30.6598 20.4258 16.1953 34.8903 16.1953 52.7332C16.1953 70.5761 30.6598 85.0406 48.5027 85.0406Z" fill="#314D5C"/>
<path d="M48.5008 79.6715C63.3784 79.6715 75.4391 67.6108 75.4391 52.7332C75.4391 37.8556 63.3784 25.7949 48.5008 25.7949C33.6232 25.7949 21.5625 37.8556 21.5625 52.7332C21.5625 67.6108 33.6232 79.6715 48.5008 79.6715Z" fill="#F7F8F9"/>
<path d="M48.4993 35.4219C48.4993 35.4219 44.1484 50.3259 44.1484 52.7327C44.1484 55.1396 46.0924 57.0836 48.4993 57.0836C50.9061 57.0836 52.8501 55.1396 52.8501 52.7327C52.8501 50.4184 48.4993 35.4219 48.4993 35.4219Z" fill="#2B8AFC"/>
<path d="M47.0187 29.2188H49.8884V33.1068H47.0187V29.2188ZM47.5742 72.5422H50.4439V76.4302H47.5742V72.5422ZM61.4997 37.6798L64.249 34.9304L66.2782 36.9605L63.5288 39.7099L61.4997 37.6798ZM31.1983 68.6051L33.9467 65.8557L35.9759 67.8849L33.2265 70.6343L31.1983 68.6051ZM68.4953 51.0656H72.3833V53.9353H68.4953V51.0656ZM25.1719 51.5285H29.0599V54.3982H25.1719V51.5285ZM61.8116 67.5674L63.8399 65.5382L66.5893 68.2876L64.561 70.3168L61.8116 67.5674ZM30.8863 37.2715L32.9155 35.2424L35.6648 37.9917L33.6357 40.0209L30.8863 37.2715Z" fill="#939393"/>
<path d="M48.5006 55.1399C49.8299 55.1399 50.9075 54.0623 50.9075 52.733C50.9075 51.4038 49.8299 50.3262 48.5006 50.3262C47.1713 50.3262 46.0938 51.4038 46.0938 52.733C46.0938 54.0623 47.1713 55.1399 48.5006 55.1399Z" fill="#F7F8F9"/>
</g>
<defs>
<clipPath id="clip0_8937_14051">
<rect width="96" height="96" fill="white" transform="translate(0.5)"/>
</clipPath>
</defs>
</svg>
