<svg width="32" height="32" viewBox="0 0 32 32" fill="none" xmlns="http://www.w3.org/2000/svg">
<g clip-path="url(#clip0_9281_42994)">
<path d="M27.73 5.06514V20.1501C27.73 20.7251 27.265 21.2001 26.685 21.2001H1.05C0.475 21.2001 0 20.7301 0 20.1501V5.06514C0 4.49014 0.47 4.01514 1.05 4.01514H26.685C27.26 4.01514 27.73 4.48514 27.73 5.06514Z" fill="#56A9DA"/>
<path d="M30.9634 27.9852H5.31344C4.73844 27.9852 4.27344 27.5202 4.27344 26.9452V11.8452C4.27344 11.2702 4.73844 10.8052 5.31344 10.8052H30.9634C31.5384 10.8052 32.0034 11.2702 32.0034 11.8452V26.9452C32.0034 27.5202 31.5384 27.9852 30.9634 27.9852Z" fill="#1E517F"/>
<path d="M13.3509 25.3747C14.3257 25.3747 15.1159 24.5845 15.1159 23.6097C15.1159 22.6349 14.3257 21.8447 13.3509 21.8447C12.3762 21.8447 11.5859 22.6349 11.5859 23.6097C11.5859 24.5845 12.3762 25.3747 13.3509 25.3747Z" fill="#FFD15A"/>
<path d="M10.5541 25.3747C11.5288 25.3747 12.3191 24.5845 12.3191 23.6097C12.3191 22.6349 11.5288 21.8447 10.5541 21.8447C9.57928 21.8447 8.78906 22.6349 8.78906 23.6097C8.78906 24.5845 9.57928 25.3747 10.5541 25.3747Z" fill="#DF4666"/>
<path d="M29.71 23.58C29.8347 23.58 29.9542 23.6295 30.0423 23.7177C30.1305 23.8058 30.18 23.9254 30.18 24.05C30.18 24.1747 30.1305 24.2942 30.0423 24.3824C29.9542 24.4705 29.8347 24.52 29.71 24.52H19.64C19.5153 24.52 19.3958 24.4705 19.3077 24.3824C19.2195 24.2942 19.17 24.1747 19.17 24.05C19.17 23.9254 19.2195 23.8058 19.3077 23.7177C19.3958 23.6295 19.5153 23.58 19.64 23.58H29.71ZM29.71 14.525C29.8347 14.525 29.9542 14.5745 30.0423 14.6627C30.1305 14.7508 30.18 14.8704 30.18 14.995C30.18 15.1197 30.1305 15.2392 30.0423 15.3274C29.9542 15.4155 29.8347 15.465 29.71 15.465H6.56C6.43535 15.465 6.3158 15.4155 6.22766 15.3274C6.13952 15.2392 6.09 15.1197 6.09 14.995C6.09 14.8704 6.13952 14.7508 6.22766 14.6627C6.3158 14.5745 6.43535 14.525 6.56 14.525H29.71ZM29.71 16.785C29.8347 16.785 29.9542 16.8345 30.0423 16.9227C30.1305 17.0108 30.18 17.1304 30.18 17.255C30.18 17.3797 30.1305 17.4992 30.0423 17.5874C29.9542 17.6755 29.8347 17.725 29.71 17.725H6.56C6.43535 17.725 6.3158 17.6755 6.22766 17.5874C6.13952 17.4992 6.09 17.3797 6.09 17.255C6.09 17.1304 6.13952 17.0108 6.22766 16.9227C6.3158 16.8345 6.43535 16.785 6.56 16.785H29.71ZM0 6.27002H27.73V9.25502H0V6.27002Z" fill="#F2F2F2"/>
</g>
<defs>
<clipPath id="clip0_9281_42994">
<rect width="32" height="32" fill="white"/>
</clipPath>
</defs>
</svg>
