<svg width="32" height="32" viewBox="0 0 32 32" fill="none" xmlns="http://www.w3.org/2000/svg">
<path d="M16.7591 13.485C16.4491 12.83 15.8591 12.36 15.0941 12.165C14.3691 11.975 13.5591 12.065 12.8241 12.405C11.2841 13.13 10.5341 14.8 11.1541 16.125C11.4641 16.78 12.0541 17.25 12.8191 17.445C13.0691 17.51 13.3341 17.54 13.5941 17.54C14.0941 17.54 14.6091 17.425 15.0891 17.2C15.8191 16.85 16.3991 16.29 16.7191 15.605C17.0541 14.895 17.0691 14.14 16.7591 13.485ZM15.8391 15.195C15.6141 15.675 15.1991 16.075 14.6691 16.325C14.1391 16.57 13.5691 16.64 13.0591 16.505C12.5791 16.385 12.2141 16.105 12.0291 15.71C11.6341 14.875 12.1741 13.785 13.2341 13.285C13.5841 13.12 13.9541 13.04 14.3091 13.04C14.4941 13.04 14.6741 13.06 14.8441 13.105C15.3241 13.23 15.6891 13.51 15.8741 13.9C16.0641 14.29 16.0491 14.75 15.8391 15.195ZM13.0291 9.30004C12.8581 8.93917 12.5511 8.66076 12.1753 8.52581C11.7995 8.39085 11.3855 8.41035 11.0241 8.58004C10.2741 8.94004 9.94906 9.84004 10.3041 10.59C10.4791 10.955 10.7791 11.23 11.1641 11.365C11.3291 11.425 11.5041 11.455 11.6741 11.455C11.8941 11.455 12.1091 11.405 12.3191 11.31C12.6841 11.135 12.9591 10.835 13.0941 10.45C13.2241 10.075 13.2041 9.66504 13.0291 9.30004ZM12.1741 10.13C12.1241 10.265 12.0241 10.37 11.8941 10.435C11.6291 10.56 11.3041 10.445 11.1741 10.18C11.1091 10.05 11.1041 9.90004 11.1541 9.76504C11.2041 9.63004 11.2991 9.52504 11.4291 9.46004C11.5091 9.42504 11.5841 9.41004 11.6641 9.41004C11.8641 9.41004 12.0641 9.52004 12.1491 9.72004C12.2141 9.84004 12.2241 9.99504 12.1741 10.13ZM17.6141 19.02C17.4431 18.6592 17.1361 18.3808 16.7603 18.2458C16.3845 18.1109 15.9705 18.1304 15.6091 18.3C15.2391 18.475 14.9641 18.775 14.8291 19.16C14.6941 19.54 14.7141 19.945 14.8891 20.315C15.1441 20.86 15.6891 21.18 16.2541 21.18C16.4691 21.18 16.6891 21.135 16.8941 21.035C17.0743 20.9507 17.236 20.8316 17.3699 20.6844C17.5038 20.5372 17.6072 20.365 17.6742 20.1776C17.7411 19.9903 17.7703 19.7915 17.7599 19.5928C17.7496 19.3941 17.7 19.1995 17.6141 19.02ZM16.7591 19.845C16.7229 19.9452 16.658 20.0324 16.5725 20.0958C16.4869 20.1591 16.3845 20.1958 16.2782 20.2011C16.1719 20.2065 16.0663 20.1803 15.9749 20.1258C15.8834 20.0713 15.81 19.9911 15.7641 19.895C15.7325 19.8318 15.7144 19.7627 15.711 19.6921C15.7075 19.6216 15.7188 19.551 15.7441 19.485C15.7821 19.3811 15.8507 19.2911 15.9409 19.2269C16.031 19.1627 16.1384 19.1272 16.2491 19.125C16.3357 19.1243 16.4213 19.1446 16.4984 19.1841C16.5756 19.2236 16.642 19.2811 16.6921 19.3518C16.7422 19.4226 16.7745 19.5043 16.7861 19.5902C16.7978 19.6761 16.7885 19.7635 16.7591 19.845Z" fill="#292F64"/>
<path d="M15.435 14.4801L15.43 14.5101L15.4 14.5651C15.38 14.5901 15.365 14.6001 15.35 14.6051L15.11 14.6901C15.115 14.7051 15.12 14.7251 15.12 14.7401C15.13 14.7851 15.135 14.8201 15.14 14.8601C15.145 14.9001 15.145 14.9351 15.145 14.9601C15.1434 14.9926 15.1367 15.0247 15.125 15.0551C15.11 15.0951 15.085 15.1251 15.05 15.1451C15.03 15.1651 14.99 15.1851 14.945 15.2101C14.905 15.2301 14.875 15.2401 14.855 15.2501C14.825 15.2651 14.795 15.2651 14.775 15.2701H14.745L14.68 15.2451C14.655 15.2301 14.64 15.2101 14.625 15.1801C14.61 15.1501 14.61 15.1151 14.61 15.0701C14.615 15.0351 14.615 15.0001 14.615 14.9651C14.6134 14.8559 14.5878 14.7483 14.54 14.6501C14.495 14.5651 14.45 14.5001 14.4 14.4751C14.36 14.4551 14.325 14.4501 14.285 14.4751C14.26 14.4851 14.24 14.5001 14.23 14.5201C14.2181 14.5507 14.2097 14.5826 14.205 14.6151C14.205 14.6551 14.205 14.7001 14.21 14.7551L14.225 14.9401C14.23 15.0001 14.23 15.0651 14.225 15.1351C14.22 15.2101 14.21 15.2751 14.18 15.3451C14.16 15.4151 14.12 15.4751 14.07 15.5351C14.01 15.6001 13.94 15.6451 13.845 15.6901C13.7715 15.7309 13.6898 15.7547 13.6059 15.7599C13.522 15.7651 13.438 15.7515 13.36 15.7201C13.28 15.6901 13.215 15.6451 13.14 15.5901C13.09 15.5451 13.05 15.4951 13.01 15.4351L12.76 15.5251H12.71L12.68 15.5201L12.63 15.4851C12.62 15.4751 12.605 15.4601 12.59 15.4351C12.575 15.4101 12.565 15.3901 12.55 15.3601C12.535 15.3251 12.52 15.2951 12.515 15.2751C12.5061 15.2493 12.501 15.2224 12.5 15.1951V15.1501L12.54 15.0901C12.56 15.0701 12.575 15.0601 12.595 15.0551L12.81 14.9751C12.805 14.9751 12.805 14.9701 12.805 14.9651C12.795 14.9301 12.79 14.8901 12.785 14.8601C12.785 14.8251 12.785 14.7951 12.78 14.7751C12.78 14.7401 12.785 14.7101 12.795 14.6851L12.8 14.6701L12.825 14.6251C12.84 14.6101 12.855 14.5901 12.88 14.5751L12.925 14.5501C12.94 14.5401 12.965 14.5251 12.99 14.5151L13.07 14.4801C13.09 14.4701 13.12 14.4601 13.145 14.4601L13.18 14.4551L13.24 14.4851L13.26 14.5001L13.285 14.5351C13.295 14.5651 13.3 14.6001 13.3 14.6401V14.7351C13.305 14.7801 13.31 14.8201 13.32 14.8651C13.325 14.9051 13.34 14.9451 13.365 15.0001C13.385 15.0451 13.405 15.0801 13.425 15.0951C13.445 15.1201 13.46 15.1351 13.48 15.1451C13.535 15.1501 13.55 15.1451 13.565 15.1401C13.59 15.1251 13.605 15.1101 13.62 15.0901C13.63 15.0651 13.64 15.0301 13.64 15.0001C13.645 14.9501 13.64 14.9051 13.64 14.8501C13.63 14.7901 13.625 14.7301 13.62 14.6651C13.615 14.5985 13.615 14.5317 13.62 14.4651C13.6256 14.3191 13.6782 14.1788 13.77 14.0651C13.825 14.0001 13.895 13.9551 13.99 13.9101C14.075 13.8651 14.175 13.8401 14.265 13.8401C14.365 13.8351 14.455 13.8551 14.535 13.8901C14.615 13.9251 14.7 13.9751 14.775 14.0501C14.83 14.1001 14.875 14.1601 14.92 14.2301L15.195 14.1351H15.245L15.27 14.1401L15.315 14.1701C15.33 14.1851 15.345 14.2051 15.36 14.2201C15.375 14.2451 15.385 14.2701 15.4 14.2951C15.415 14.3351 15.43 14.3651 15.435 14.3851C15.43 14.4251 15.435 14.4551 15.435 14.4801Z" fill="#292F64"/>
<path d="M19.8207 10.885C19.8207 11.105 19.7657 11.31 19.6707 11.505L18.6757 9.405C19.3507 9.685 19.8207 10.25 19.8207 10.885ZM25.9707 31.03H20.3107V29.475H25.9657V31.03H25.9707ZM25.4907 27.32C25.4357 27.445 25.4107 27.59 25.4007 27.76L25.3907 28.5H20.9557C20.7957 27.345 20.6557 26.21 20.6707 25.51C20.6707 25.395 20.6907 25.285 20.7307 25.17L21.4307 23.16C21.4357 23.155 21.4357 23.15 21.4357 23.14L21.7707 22.175C21.8457 21.96 21.8807 21.745 21.8807 21.525V17.78C21.8807 17.59 21.9557 17.42 22.0757 17.295C22.0807 17.29 22.0857 17.28 22.0907 17.275C22.1157 17.245 22.1457 17.225 22.1757 17.2C22.1857 17.19 22.2007 17.185 22.2107 17.175C22.3207 17.1 22.4507 17.065 22.5957 17.065C22.7907 17.065 22.9707 17.14 23.1107 17.28C23.2457 17.41 23.3207 17.59 23.3207 17.78V21.17C23.3207 21.435 23.5407 21.655 23.8057 21.655C24.0707 21.655 24.2907 21.435 24.2907 21.17V19.375L25.6357 19.965C25.6657 19.98 25.6957 20.01 25.7107 20.035L27.1757 23.465C27.2007 23.525 27.2007 23.6 27.1857 23.64L25.4907 27.32ZM26.3807 27.71L28.0607 24.01C28.1757 23.7 28.1657 23.37 28.0407 23.085L26.5757 19.65C26.461 19.4002 26.2605 19.1997 26.0107 19.085L24.6007 18.465C24.4957 18.415 24.3857 18.385 24.2757 18.375V1.455C24.2757 0.655 23.6257 0 22.8257 0H12.5757C11.7707 0 11.1207 0.655 11.1207 1.455V4.105L4.67572 7.145C4.32801 7.31059 4.05985 7.6069 3.92966 7.96935C3.79948 8.3318 3.81783 8.73102 3.98072 9.08L12.0257 26.135C12.1907 26.49 12.4857 26.755 12.8507 26.885C13.0107 26.94 13.1757 26.965 13.3407 26.965C13.5557 26.965 13.7607 26.92 13.9607 26.825L20.1307 23.915L19.8107 24.845C19.7307 25.055 19.6957 25.275 19.6957 25.495C19.6807 26.235 19.8107 27.32 19.9757 28.495H19.8257C19.5607 28.495 19.3407 28.715 19.3407 28.98V31.505C19.3407 31.77 19.5607 31.99 19.8257 31.99H26.4557C26.7257 31.99 26.9407 31.77 26.9407 31.505V28.98C26.9407 28.8514 26.8896 28.728 26.7987 28.6371C26.7077 28.5461 26.5844 28.495 26.4557 28.495H26.3607L26.3657 27.785C26.3657 27.76 26.3757 27.72 26.3807 27.71ZM20.9057 17.785V18.655L15.1607 6.485C15.105 6.36824 15.0056 6.27812 14.8839 6.23414C14.7623 6.19016 14.6282 6.19585 14.5107 6.25C14.0307 6.48 13.4557 6.27 13.2257 5.79C13.1697 5.6743 13.0712 5.58472 12.9507 5.54C12.8908 5.51848 12.8272 5.50917 12.7637 5.5126C12.7002 5.51604 12.6379 5.53215 12.5807 5.56L7.69072 7.87C7.45072 7.98 7.34572 8.27 7.45572 8.515C7.68572 8.995 7.47572 9.575 6.99572 9.8C6.88072 9.86 6.78572 9.955 6.74572 10.075C6.70072 10.195 6.71072 10.33 6.76572 10.45L12.7507 23.125C12.8607 23.365 13.1507 23.47 13.3957 23.36C13.8757 23.13 14.4507 23.34 14.6857 23.82C14.7657 23.995 14.9407 24.1 15.1207 24.1C15.1907 24.1 15.2607 24.085 15.3307 24.05L20.2157 21.74C20.4557 21.63 20.5607 21.34 20.4507 21.095C20.2207 20.615 20.4257 20.045 20.9057 19.81V21.525C20.9057 21.64 20.8857 21.755 20.8457 21.865L20.5807 22.635L13.5507 25.95C13.4934 25.9778 13.431 25.9939 13.3674 25.9974C13.3037 26.0009 13.24 25.9917 13.18 25.9703C13.1199 25.9488 13.0648 25.9157 13.0177 25.8727C12.9706 25.8298 12.9325 25.7778 12.9057 25.72L4.86072 8.67C4.8329 8.61265 4.81677 8.55032 4.8133 8.48667C4.80982 8.42302 4.81906 8.35931 4.84047 8.29927C4.86188 8.23923 4.89503 8.18405 4.938 8.13696C4.98097 8.08987 5.03288 8.05181 5.09072 8.025L14.3607 3.65C14.4775 3.59634 14.6108 3.59091 14.7315 3.63491C14.8523 3.67891 14.9508 3.76878 15.0057 3.885L21.1557 16.92C20.9957 17.17 20.9057 17.465 20.9057 17.785ZM19.4207 21.045L15.2957 22.99C14.9257 22.545 14.3757 22.29 13.8007 22.29C13.6857 22.29 13.5607 22.3 13.4407 22.325L7.82072 10.415C8.36572 9.97 8.61572 9.25 8.48572 8.565L12.6107 6.62C12.8307 6.88 13.1157 7.085 13.4457 7.205C13.7807 7.32 14.1307 7.345 14.4657 7.285L20.0857 19.2C19.5457 19.64 19.2907 20.355 19.4207 21.045ZM17.1607 5.515C17.1607 5.37112 17.2179 5.23313 17.3196 5.13139C17.4214 5.02966 17.5593 4.9725 17.7032 4.9725C17.8471 4.9725 17.9851 5.02966 18.0868 5.13139C18.1886 5.23313 18.2457 5.37112 18.2457 5.515C18.2457 5.65888 18.1886 5.79687 18.0868 5.89861C17.9851 6.00034 17.8471 6.0575 17.7032 6.0575C17.5593 6.0575 17.4214 6.00034 17.3196 5.89861C17.2179 5.79687 17.1607 5.65888 17.1607 5.515ZM21.3757 15.115L20.1457 12.51C20.5657 12.05 20.7957 11.485 20.7957 10.885C20.7957 9.545 19.6507 8.44 18.1457 8.26L17.5557 7.005C17.6057 7.01 17.6507 7.02 17.7057 7.02C18.5407 7.02 19.2207 6.34 19.2207 5.51C19.2207 4.675 18.5407 3.995 17.7057 3.995C17.1857 3.995 16.7257 4.26 16.4557 4.67L15.8907 3.47C15.7807 3.24 15.6157 3.06 15.4257 2.915C15.4257 2.91 15.4257 2.91 15.4307 2.905H19.9907C20.0782 3.23922 20.253 3.54413 20.4973 3.78841C20.7416 4.0327 21.0465 4.20755 21.3807 4.295V15.115H21.3757ZM23.3107 16.265C23.0857 16.16 22.8457 16.1 22.5907 16.1C22.5107 16.1 22.4257 16.11 22.3507 16.125V3.875C22.3507 3.61 22.1307 3.39 21.8657 3.39C21.3307 3.39 20.8957 2.96 20.8957 2.425C20.8957 2.16 20.6757 1.94 20.4107 1.94H14.9957C14.7307 1.94 14.5107 2.16 14.5107 2.425C14.5107 2.5 14.5007 2.57 14.4807 2.645C14.3007 2.655 14.1207 2.695 13.9457 2.775L12.0907 3.65V1.455C12.0907 1.19 12.3107 0.97 12.5757 0.97H22.8307C23.0957 0.97 23.3107 1.19 23.3107 1.455V16.265Z" fill="#292F64"/>
<path d="M25.9725 29.4751V31.0301H20.3125V29.4751H25.9725Z" fill="#2B8AFC"/>
<path d="M25.9725 30.5498V31.0298H20.3125V30.5498H25.9725Z" fill="#2B8AFC"/>
<path d="M27.1691 23.6399L25.4891 27.3199C25.4341 27.4449 25.4091 27.5899 25.3991 27.7599L25.3891 28.4999H20.9541C20.7941 27.3449 20.6541 26.2099 20.6691 25.5099C20.6691 25.3949 20.6891 25.2849 20.7291 25.1699L21.4291 23.1599C21.4341 23.1549 21.4341 23.1499 21.4341 23.1399L21.7691 22.1749C21.8441 21.9599 21.8791 21.7449 21.8791 21.5249V17.7799C21.8791 17.5899 21.9541 17.4199 22.0741 17.2949C22.0791 17.2899 22.0841 17.2799 22.0891 17.2749C22.1141 17.2449 22.1441 17.2249 22.1741 17.1999C22.1841 17.1899 22.1991 17.1849 22.2091 17.1749C22.3191 17.0999 22.4491 17.0649 22.5941 17.0649C22.7891 17.0649 22.9691 17.1399 23.1091 17.2799C23.2441 17.4099 23.3191 17.5899 23.3191 17.7799V21.1699C23.3191 21.4349 23.5391 21.6549 23.8041 21.6549C24.0691 21.6549 24.2891 21.4349 24.2891 21.1699V19.3749L25.6341 19.9649C25.6641 19.9799 25.6941 20.0099 25.7091 20.0349L27.1741 23.4649C27.1841 23.5249 27.1841 23.5999 27.1691 23.6399Z" fill="#FFE4A9"/>
<path d="M22.8741 17.1299C22.8391 17.1449 22.8041 17.1649 22.7741 17.1849C22.7641 17.1949 22.7491 17.1999 22.7391 17.2099C22.7041 17.2349 22.6741 17.2549 22.6541 17.2849C22.6491 17.2899 22.6441 17.2999 22.6391 17.3049C22.5191 17.4299 22.4441 17.5999 22.4441 17.7899V21.5349C22.4441 21.7549 22.4041 21.9699 22.3341 22.1849L21.9991 23.1399C21.9991 23.1499 21.9991 23.1549 21.9941 23.1599L21.2941 25.1699C21.2541 25.2849 21.2341 25.3949 21.2341 25.5099C21.2191 26.2149 21.3591 27.3499 21.5191 28.4999H20.9541C20.7941 27.3449 20.6541 26.2099 20.6691 25.5099C20.6691 25.3949 20.6891 25.2849 20.7291 25.1699L21.4291 23.1599C21.4341 23.1549 21.4341 23.1499 21.4341 23.1399L21.7691 22.1749C21.8441 21.9599 21.8791 21.7449 21.8791 21.5249V17.7799C21.8791 17.5899 21.9541 17.4199 22.0741 17.2949C22.0791 17.2899 22.0841 17.2799 22.0891 17.2749C22.1141 17.2449 22.1441 17.2249 22.1741 17.1999C22.1841 17.1899 22.1991 17.1849 22.2091 17.1749C22.3191 17.0999 22.4491 17.0649 22.5941 17.0649C22.6891 17.0699 22.7891 17.0899 22.8741 17.1299ZM27.1691 23.6399L25.4891 27.3199C25.4341 27.4449 25.4091 27.5899 25.3991 27.7599L25.3891 28.4999H24.6991L24.7091 27.7699C24.7191 27.5999 24.7491 27.4549 24.7991 27.3299L26.5041 23.6899C26.5191 23.6499 26.5191 23.5749 26.4941 23.5149L25.0041 20.1199C24.9855 20.0906 24.9597 20.0665 24.9291 20.0499L24.2741 19.7749V19.3749L24.8391 19.6249L25.6141 19.9649C25.6441 19.9799 25.6741 20.0099 25.6891 20.0349L27.1541 23.4649C27.1841 23.5249 27.1841 23.5999 27.1691 23.6399Z" fill="#EFD298"/>
<path d="M18.2413 5.51521C18.2413 5.81021 18.0013 6.05521 17.6963 6.05521C17.4013 6.05521 17.1562 5.81521 17.1562 5.51521C17.1562 5.21521 17.3963 4.97021 17.6963 4.97021C18.0013 4.97021 18.2413 5.21021 18.2413 5.51521Z" fill="#FFDB7C"/>
<path d="M21.3797 4.30039V15.1104L20.1497 12.5054C20.5697 12.0454 20.7997 11.4804 20.7997 10.8804C20.7997 9.54039 19.6547 8.43539 18.1497 8.25539L17.5597 7.00039C17.6097 7.00539 17.6547 7.01539 17.7097 7.01539C18.5447 7.01539 19.2247 6.33539 19.2247 5.50539C19.2247 4.67039 18.5447 3.99039 17.7097 3.99039C17.1897 3.99039 16.7297 4.25539 16.4597 4.66539L15.8947 3.46539C15.7847 3.23539 15.6197 3.05539 15.4297 2.91039C15.4297 2.90539 15.4297 2.90539 15.4347 2.90039H19.9947C20.0768 3.23746 20.249 3.54585 20.493 3.79248C20.737 4.03911 21.0435 4.21468 21.3797 4.30039Z" fill="#EBEBEC"/>
<path d="M19.8247 10.8853C19.8247 11.1053 19.7697 11.3103 19.6747 11.5053L18.6797 9.40527C19.3547 9.68527 19.8247 10.2503 19.8247 10.8853Z" fill="#53BE9E"/>
<path d="M20.0892 19.1952L14.4692 7.28023C14.1342 7.34523 13.7842 7.32023 13.4492 7.20023C13.1192 7.08023 12.8342 6.87523 12.6142 6.61523L8.48922 8.56024C8.61922 9.25024 8.36922 9.96523 7.82422 10.4102L13.4442 22.3252C13.7846 22.26 14.1363 22.2872 14.4626 22.4042C14.7889 22.5212 15.0778 22.7236 15.2992 22.9902L19.4242 21.0452C19.3602 20.7056 19.3881 20.355 19.505 20.0298C19.6219 19.7045 19.8236 19.4164 20.0892 19.1952ZM10.2992 10.5902C10.1296 10.228 10.1101 9.8134 10.245 9.43685C10.3799 9.0603 10.6582 8.75237 11.0192 8.58023C11.7692 8.22523 12.6742 8.55023 13.0242 9.30023C13.1992 9.66523 13.2192 10.0752 13.0842 10.4552C12.9492 10.8402 12.6742 11.1402 12.3092 11.3152C12.0992 11.4102 11.8842 11.4602 11.6642 11.4602C11.4942 11.4602 11.3192 11.4252 11.1542 11.3702C10.7742 11.2302 10.4742 10.9552 10.2992 10.5902ZM13.5942 17.5402C13.3342 17.5402 13.0692 17.5052 12.8192 17.4452C12.0592 17.2502 11.4642 16.7802 11.1542 16.1252C10.5342 14.8002 11.2792 13.1352 12.8242 12.4052C13.5542 12.0602 14.3642 11.9752 15.0942 12.1652C15.8542 12.3602 16.4492 12.8302 16.7592 13.4852C17.0692 14.1402 17.0542 14.8952 16.7192 15.6102C16.3992 16.2952 15.8242 16.8552 15.0892 17.2052C14.6092 17.4252 14.0942 17.5402 13.5942 17.5402ZM17.6742 20.1752C17.5342 20.5552 17.2642 20.8602 16.8942 21.0302C16.6892 21.1302 16.4692 21.1752 16.2542 21.1752C15.6892 21.1752 15.1442 20.8552 14.8892 20.3102C14.7142 19.9402 14.6942 19.5352 14.8292 19.1552C14.9642 18.7702 15.2392 18.4702 15.6092 18.2952C16.3592 17.9402 17.2642 18.2652 17.6142 19.0152C17.7892 19.3852 17.8092 19.7952 17.6742 20.1752Z" fill="#EBEBEC"/>
<path d="M12.1708 10.1302C12.1208 10.2652 12.0208 10.3702 11.8908 10.4352C11.6258 10.5602 11.3008 10.4452 11.1708 10.1802C11.1058 10.0502 11.1008 9.90016 11.1508 9.76516C11.2008 9.63016 11.2958 9.52516 11.4258 9.46016C11.5058 9.42516 11.5808 9.41016 11.6608 9.41016C11.8608 9.41016 12.0608 9.52016 12.1458 9.72016C12.2108 9.84016 12.2208 9.99516 12.1708 10.1302ZM16.7558 19.8452C16.7197 19.9453 16.6548 20.0325 16.5692 20.0959C16.4837 20.1593 16.3813 20.1959 16.275 20.2012C16.1686 20.2066 16.0631 20.1804 15.9716 20.1259C15.8801 20.0715 15.8068 19.9912 15.7608 19.8952C15.7293 19.8319 15.7112 19.7628 15.7078 19.6923C15.7043 19.6217 15.7156 19.5512 15.7408 19.4852C15.7789 19.3812 15.8475 19.2913 15.9376 19.227C16.0277 19.1628 16.1352 19.1273 16.2458 19.1252C16.3325 19.1244 16.418 19.1447 16.4952 19.1842C16.5723 19.2237 16.6388 19.2812 16.6889 19.352C16.739 19.4227 16.7712 19.5045 16.7829 19.5903C16.7945 19.6762 16.7853 19.7636 16.7558 19.8452Z" fill="#FFDB7C"/>
<path d="M15.8806 13.8952C15.6956 13.5052 15.3306 13.2252 14.8506 13.1002C14.6806 13.0552 14.5006 13.0352 14.3156 13.0352C13.9556 13.0352 13.5906 13.1152 13.2406 13.2802C12.1806 13.7802 11.6406 14.8702 12.0356 15.7052C12.2206 16.1002 12.5856 16.3802 13.0656 16.5002C13.5756 16.6352 14.1456 16.5702 14.6756 16.3202C15.2056 16.0702 15.6206 15.6702 15.8456 15.1902C16.0506 14.7502 16.0656 14.2902 15.8806 13.8952ZM15.4306 14.5052L15.4006 14.5602C15.3806 14.5852 15.3656 14.5952 15.3506 14.6002L15.1106 14.6852C15.1156 14.7002 15.1206 14.7202 15.1206 14.7352C15.1306 14.7802 15.1356 14.8152 15.1406 14.8552C15.1456 14.8952 15.1456 14.9302 15.1456 14.9552C15.1441 14.9877 15.1373 15.0198 15.1256 15.0502C15.1106 15.0902 15.0856 15.1202 15.0506 15.1402C15.0306 15.1602 14.9906 15.1802 14.9456 15.2052C14.9056 15.2252 14.8756 15.2352 14.8556 15.2452C14.8256 15.2602 14.7956 15.2602 14.7756 15.2652H14.7456L14.6806 15.2402C14.6556 15.2252 14.6406 15.2052 14.6256 15.1752C14.6106 15.1452 14.6106 15.1102 14.6106 15.0652C14.6156 15.0302 14.6156 14.9952 14.6156 14.9602C14.6141 14.8509 14.5885 14.7434 14.5406 14.6452C14.4956 14.5602 14.4506 14.4952 14.4006 14.4702C14.3606 14.4502 14.3256 14.4452 14.2856 14.4702C14.2606 14.4802 14.2406 14.4952 14.2306 14.5152C14.2187 14.5458 14.2103 14.5776 14.2056 14.6102C14.2056 14.6502 14.2056 14.6952 14.2106 14.7502L14.2256 14.9352C14.2306 14.9952 14.2306 15.0602 14.2256 15.1302C14.2206 15.2052 14.2106 15.2702 14.1806 15.3402C14.1606 15.4102 14.1206 15.4702 14.0706 15.5302C14.0106 15.5952 13.9406 15.6402 13.8456 15.6852C13.7721 15.7259 13.6904 15.7498 13.6065 15.755C13.5226 15.7601 13.4386 15.7466 13.3606 15.7152C13.2806 15.6852 13.2156 15.6402 13.1406 15.5852C13.0906 15.5402 13.0506 15.4902 13.0106 15.4302L12.7606 15.5202H12.7106L12.6806 15.5152L12.6306 15.4802C12.6206 15.4702 12.6056 15.4552 12.5906 15.4302C12.5756 15.4052 12.5656 15.3852 12.5506 15.3552C12.5356 15.3202 12.5206 15.2902 12.5156 15.2702C12.5067 15.2444 12.5016 15.2174 12.5006 15.1902V15.1502L12.5406 15.0902C12.5606 15.0702 12.5756 15.0602 12.5956 15.0552L12.8106 14.9752C12.8056 14.9752 12.8056 14.9702 12.8056 14.9652C12.7956 14.9302 12.7906 14.8902 12.7856 14.8602C12.7856 14.8252 12.7856 14.7952 12.7806 14.7752C12.7806 14.7402 12.7856 14.7102 12.7956 14.6852L12.8006 14.6702L12.8256 14.6252C12.8406 14.6102 12.8556 14.5902 12.8806 14.5752L12.9256 14.5502C12.9406 14.5402 12.9656 14.5252 12.9906 14.5152L13.0706 14.4802C13.0906 14.4702 13.1206 14.4602 13.1456 14.4602L13.1806 14.4552L13.2406 14.4852L13.2606 14.5002L13.2856 14.5352C13.2956 14.5652 13.3006 14.6002 13.3006 14.6402V14.7352C13.3056 14.7802 13.3106 14.8202 13.3206 14.8652C13.3256 14.9052 13.3406 14.9452 13.3656 15.0002C13.3856 15.0452 13.4056 15.0802 13.4256 15.0952C13.4456 15.1202 13.4606 15.1352 13.4806 15.1452C13.5356 15.1502 13.5506 15.1452 13.5656 15.1402C13.5906 15.1252 13.6056 15.1102 13.6206 15.0902C13.6306 15.0652 13.6406 15.0302 13.6406 15.0002C13.6456 14.9502 13.6406 14.9052 13.6406 14.8502C13.6306 14.7902 13.6256 14.7302 13.6206 14.6652C13.6156 14.5986 13.6156 14.5317 13.6206 14.4652C13.6262 14.3192 13.6789 14.1789 13.7706 14.0652C13.8256 14.0002 13.8956 13.9552 13.9906 13.9102C14.0756 13.8652 14.1756 13.8402 14.2656 13.8402C14.3656 13.8352 14.4556 13.8552 14.5356 13.8902C14.6156 13.9252 14.7006 13.9752 14.7756 14.0502C14.8306 14.1002 14.8756 14.1602 14.9206 14.2302L15.1956 14.1352H15.2456L15.2706 14.1402L15.3156 14.1702C15.3306 14.1852 15.3456 14.2052 15.3606 14.2202C15.3756 14.2452 15.3856 14.2702 15.4006 14.2952C15.4156 14.3352 15.4306 14.3652 15.4356 14.3852C15.4456 14.4152 15.4506 14.4452 15.4506 14.4652L15.4306 14.5052Z" fill="#53BE9E"/>
<path d="M21.1506 16.915C20.9896 17.1766 20.9047 17.4779 20.9056 17.785V18.655L15.1606 6.48504C15.1049 6.36828 15.0055 6.27816 14.8839 6.23418C14.7622 6.1902 14.6281 6.19589 14.5106 6.25004C14.0306 6.48004 13.4556 6.27004 13.2256 5.79004C13.1697 5.67434 13.0711 5.58476 12.9506 5.54004C12.8907 5.51852 12.8272 5.50921 12.7636 5.51264C12.7001 5.51608 12.6379 5.53219 12.5806 5.56004L7.69064 7.87004C7.45064 7.98004 7.34564 8.27004 7.45564 8.51504C7.68564 8.99504 7.47564 9.57504 6.99564 9.80004C6.88064 9.86004 6.78564 9.95504 6.74564 10.075C6.70064 10.195 6.71064 10.33 6.76564 10.45L12.7506 23.125C12.8606 23.365 13.1506 23.47 13.3956 23.36C13.8756 23.13 14.4506 23.34 14.6856 23.82C14.7656 23.995 14.9406 24.1 15.1206 24.1C15.1906 24.1 15.2606 24.085 15.3306 24.05L20.2156 21.74C20.4556 21.63 20.5606 21.34 20.4506 21.095C20.2206 20.615 20.4256 20.045 20.9056 19.81V21.525C20.9056 21.64 20.8856 21.755 20.8456 21.865L20.5806 22.635L13.5506 25.95C13.4933 25.9779 13.431 25.994 13.3673 25.9975C13.3037 26.0009 13.24 25.9917 13.1799 25.9703C13.1199 25.9489 13.0647 25.9157 13.0176 25.8728C12.9705 25.8298 12.9324 25.7779 12.9056 25.72L4.86064 8.67004C4.83281 8.61269 4.81669 8.55036 4.81321 8.48671C4.80974 8.42306 4.81897 8.35935 4.84038 8.29931C4.8618 8.23927 4.89495 8.18409 4.93792 8.137C4.98089 8.08991 5.0328 8.05185 5.09064 8.02504L14.3606 3.65004C14.4774 3.59637 14.6107 3.59095 14.7314 3.63495C14.8522 3.67895 14.9507 3.76882 15.0056 3.88504L21.1506 16.915Z" fill="#53BE9E"/>
<path d="M5.60064 8.91004L13.1656 24.955C13.2706 25.185 13.5456 25.28 13.7706 25.17L20.8306 21.905L20.5806 22.635L13.5506 25.95C13.4933 25.9779 13.431 25.994 13.3673 25.9975C13.3037 26.0009 13.24 25.9917 13.1799 25.9703C13.1199 25.9489 13.0647 25.9157 13.0176 25.8728C12.9705 25.8298 12.9324 25.7779 12.9056 25.72L4.86064 8.67004C4.83281 8.61269 4.81669 8.55036 4.81321 8.48671C4.80974 8.42306 4.81897 8.35935 4.84038 8.29931C4.8618 8.23927 4.89495 8.18409 4.93792 8.137C4.98089 8.08991 5.0328 8.05185 5.09064 8.02504L14.3606 3.65004C14.4774 3.59637 14.6107 3.59095 14.7314 3.63495C14.8522 3.67895 14.9507 3.76882 15.0056 3.88504L21.1556 16.92C21.0256 17.13 20.9406 17.37 20.9156 17.635L14.7306 4.68504C14.7054 4.63085 14.6697 4.58217 14.6256 4.54178C14.5815 4.5014 14.5299 4.47009 14.4737 4.44966C14.4175 4.42923 14.3579 4.42007 14.2982 4.42271C14.2384 4.42535 14.1798 4.43973 14.1256 4.46504L5.81564 8.30504C5.58564 8.41004 5.49064 8.68504 5.60064 8.91004Z" fill="#39A380"/>
<path d="M23.3138 1.45521V16.2652C23.0887 16.1602 22.8487 16.1002 22.5937 16.1002C22.5137 16.1002 22.4287 16.1102 22.3537 16.1252V3.87521C22.3537 3.61021 22.1338 3.39021 21.8688 3.39021C21.3338 3.39021 20.8987 2.96021 20.8987 2.42521C20.8987 2.16021 20.6788 1.94021 20.4138 1.94021H14.9987C14.7337 1.94021 14.5138 2.16021 14.5138 2.42521C14.5138 2.50021 14.5037 2.57021 14.4837 2.64521C14.3037 2.65521 14.1237 2.69521 13.9487 2.77521L12.0938 3.65021V1.45521C12.0938 1.19021 12.3137 0.970215 12.5787 0.970215H22.8337C23.0987 0.970215 23.3138 1.19021 23.3138 1.45521Z" fill="#53BE9E"/>
<path d="M23.3138 1.45521V16.2652C23.1287 16.1802 22.9337 16.1252 22.7287 16.1052V1.89521C22.7287 1.65021 22.5337 1.44021 22.2987 1.44021H13.1137C12.8737 1.44021 12.6788 1.65021 12.6788 1.89521V3.37521L12.0938 3.65021V1.45521C12.0938 1.19021 12.3137 0.970215 12.5787 0.970215H22.8337C23.0987 0.970215 23.3138 1.19021 23.3138 1.45521Z" fill="#39A380"/>
</svg>
