<svg width="28" height="27" viewBox="0 0 28 27" fill="none" xmlns="http://www.w3.org/2000/svg">
<g id="mingcute:check-fill" clipPath="url(#clip0_8558_59419)">
<g id="Group">
<path id="Vector" fill-rule="evenodd" clip-rule="evenodd" d="M24.9898 5.74855C25.3061 6.065 25.4838 6.49414 25.4838 6.94161C25.4838 7.38907 25.3061 7.81822 24.9898 8.13467L12.3414 20.783C12.1742 20.9502 11.9758 21.0829 11.7574 21.1733C11.539 21.2638 11.3049 21.3104 11.0685 21.3104C10.832 21.3104 10.5979 21.2638 10.3795 21.1733C10.1611 21.0829 9.96267 20.9502 9.79552 20.783L3.51127 14.4999C3.35009 14.3443 3.22154 14.158 3.1331 13.9522C3.04466 13.7463 2.9981 13.5249 2.99616 13.3008C2.99421 13.0767 3.03691 12.8545 3.12176 12.6471C3.20661 12.4397 3.33191 12.2513 3.49035 12.0929C3.6488 11.9344 3.83721 11.8091 4.0446 11.7243C4.25198 11.6394 4.47419 11.5967 4.69826 11.5987C4.92232 11.6006 5.14376 11.6472 5.34964 11.7356C5.55552 11.8241 5.74173 11.9526 5.89739 12.1138L11.0679 17.2843L22.6025 5.74855C22.7592 5.59173 22.9453 5.46734 23.1501 5.38246C23.3549 5.29759 23.5744 5.25391 23.7961 5.25391C24.0178 5.25391 24.2374 5.29759 24.4422 5.38246C24.647 5.46734 24.8331 5.59173 24.9898 5.74855Z" fill="#0073FC"/>
</g>
</g>
<defs>
<clipPath id="clip0_8558_59419">
<rect width="27" height="27" fill="white" transform="translate(0.75)"/>
</clipPath>
</defs>
</svg>
