<svg width="49" height="48" viewBox="0 0 49 48" fill="none" xmlns="http://www.w3.org/2000/svg">
<g id="brush">
<g id="Group">
<path id="Vector" d="M24.4992 7.2002C15.2228 7.2002 7.69922 14.7245 7.69922 24.0002C7.69922 33.2773 15.2228 40.8002 24.4992 40.8002C33.7756 40.8002 41.2992 33.2773 41.2992 24.0002C41.2992 14.7245 33.7756 7.2002 24.4992 7.2002ZM24.4992 8.2502C33.196 8.2502 40.2492 15.3041 40.2492 24.0002C40.2492 32.697 33.196 39.7502 24.4992 39.7502C15.8024 39.7502 8.74922 32.697 8.74922 24.0002C8.74922 15.3041 15.8024 8.2502 24.4992 8.2502Z" fill="#2B8AFC"/>
<path id="Vector_2" d="M24.5008 10.1748C16.8673 10.1748 10.6758 16.367 10.6758 23.9998C10.6758 31.634 16.8673 37.8248 24.5008 37.8248C32.1343 37.8248 38.3258 31.634 38.3258 23.9998C38.3258 16.367 32.1343 10.1748 24.5008 10.1748Z" fill="#2B8AFC"/>
<path id="Vector_3" d="M24.5008 10.1748C16.8673 10.1748 10.6758 16.367 10.6758 23.9998C10.6738 25.8173 11.0314 27.6171 11.728 29.2958C12.4245 30.9745 13.4463 32.4988 14.7344 33.7809L34.2819 14.2341C32.9998 12.946 31.4755 11.9242 29.7968 11.2277C28.1181 10.5311 26.3182 10.1728 24.5008 10.1748Z" fill="#13277E"/>
<path id="Vector_4" d="M30.9379 14.6196C30.561 14.6187 30.1877 14.6923 29.8393 14.836C29.4909 14.9798 29.1744 15.191 28.9079 15.4575C28.1932 16.1743 27.9776 17.2075 28.2191 18.177L24.5091 21.887C24.3541 22.0441 24.1695 22.1688 23.9659 22.2539C23.7624 22.339 23.5439 22.3828 23.3233 22.3828C23.1027 22.3828 22.8842 22.339 22.6807 22.2539C22.4771 22.1688 22.2925 22.0441 22.1375 21.887L20.531 20.2798C20.391 20.1398 20.1642 20.1398 20.0242 20.2798L12.9143 27.3876C12.8808 27.421 12.8542 27.4607 12.8361 27.5043C12.8179 27.548 12.8086 27.5948 12.8086 27.6421C12.8086 27.6894 12.8179 27.7362 12.8361 27.7799C12.8542 27.8235 12.8808 27.8632 12.9143 27.8965L20.531 35.5125C20.671 35.6525 20.8985 35.6525 21.0385 35.5125L28.1463 28.404C28.2863 28.264 28.2863 28.0372 28.1463 27.8972L26.5384 26.2893C26.3813 26.1343 26.2567 25.9495 26.1716 25.7458C26.0866 25.5422 26.0428 25.3236 26.043 25.1029C26.0431 24.8822 26.0871 24.6637 26.1724 24.4601C26.2577 24.2565 26.3826 24.0719 26.5398 23.917L30.2505 20.2077C31.22 20.4492 32.2532 20.2357 32.97 19.5203H32.9714C33.5083 18.9812 33.8097 18.2512 33.8097 17.4903C33.8097 16.7294 33.5083 15.9995 32.9714 15.4603C32.9374 15.4265 32.8969 15.3999 32.8524 15.3819H32.8482C32.3043 14.8919 31.6267 14.6245 30.9379 14.6245V14.6196ZM30.9379 15.3294V15.3308C31.4888 15.3308 32.0404 15.5408 32.4625 15.9636H32.4639C32.8087 16.3095 33.0257 16.7623 33.0792 17.2477C33.1327 17.7332 33.0195 18.2223 32.7582 18.635C32.4969 19.0476 32.1031 19.3591 31.6415 19.5183C31.1798 19.6775 30.6777 19.6751 30.2176 19.5112C30.1536 19.4885 30.0844 19.4843 30.0181 19.4993C29.9518 19.5143 29.8911 19.5478 29.8431 19.5959L26.033 23.4067C25.5844 23.856 25.3323 24.4649 25.3321 25.0997C25.3318 25.7346 25.5834 26.3437 26.0316 26.7933L27.3847 28.1464L26.3676 29.1635L19.2598 22.0543L20.2769 21.0393L21.6307 22.3924C22.0799 22.841 22.6888 23.0929 23.3237 23.0929C23.9585 23.0929 24.5674 22.841 25.0166 22.3924L28.8274 18.5802C28.8754 18.5322 28.9088 18.4714 28.9236 18.4052C28.9385 18.3389 28.9343 18.2697 28.9114 18.2057C28.7746 17.8223 28.7495 17.4079 28.839 17.0108C28.9285 16.6136 29.1288 16.25 29.4168 15.9622C29.6162 15.7618 29.8532 15.6027 30.1142 15.4941C30.3753 15.3855 30.6552 15.3296 30.9379 15.3294ZM30.9379 16.0553C30.5697 16.0553 30.2029 16.1946 29.9236 16.4732C29.6557 16.7431 29.5053 17.108 29.5053 17.4882C29.5053 17.8685 29.6557 18.2334 29.9236 18.5032C30.1935 18.7712 30.5583 18.9215 30.9386 18.9215C31.3189 18.9215 31.6837 18.7712 31.9536 18.5032C32.2215 18.2334 32.3719 17.8685 32.3719 17.4882C32.3719 17.108 32.2215 16.7431 31.9536 16.4732C31.8202 16.3403 31.6619 16.235 31.4877 16.1632C31.3135 16.0915 31.1262 16.0549 30.9379 16.0553ZM30.9379 16.7672C31.1213 16.7672 31.3054 16.8393 31.4468 16.9807C31.5141 17.0471 31.5675 17.1262 31.604 17.2133C31.6404 17.3005 31.6592 17.3941 31.6592 17.4886C31.6592 17.5831 31.6404 17.6766 31.604 17.7638C31.5675 17.851 31.5141 17.9301 31.4468 17.9964C31.3804 18.0637 31.3014 18.1171 31.2142 18.1536C31.127 18.1901 31.0335 18.2089 30.939 18.2089C30.8445 18.2089 30.7509 18.1901 30.6637 18.1536C30.5765 18.1171 30.4975 18.0637 30.4311 17.9964C30.3638 17.9301 30.3104 17.851 30.2739 17.7638C30.2375 17.6766 30.2187 17.5831 30.2187 17.4886C30.2187 17.3941 30.2375 17.3005 30.2739 17.2133C30.3104 17.1262 30.3638 17.0471 30.4311 16.9807C30.5725 16.8393 30.7552 16.7672 30.9379 16.7672ZM18.7523 22.5646L25.8608 29.6724L20.7858 34.7502L20.2769 34.2413L23.8847 30.6363C23.918 30.603 23.9444 30.5634 23.9625 30.5198C23.9805 30.4762 23.9897 30.4295 23.9897 30.3823C23.9897 30.3352 23.9804 30.2885 23.9623 30.2449C23.9442 30.2014 23.9177 30.1618 23.8844 30.1285C23.851 30.0952 23.8114 30.0687 23.7678 30.0507C23.7242 30.0327 23.6775 30.0235 23.6304 30.0235C23.5832 30.0235 23.5365 30.0328 23.4929 30.0509C23.4494 30.069 23.4098 30.0955 23.3765 30.1288L19.7694 33.7338L18.7544 32.7188L19.9213 31.5533C19.9566 31.5204 19.9849 31.4808 20.0046 31.4367C20.0242 31.3926 20.0348 31.345 20.0356 31.2967C20.0364 31.2484 20.0275 31.2005 20.0094 31.1558C19.9912 31.111 19.9643 31.0704 19.9301 31.0363C19.8959 31.0022 19.8552 30.9754 19.8104 30.9574C19.7656 30.9394 19.7177 30.9306 19.6694 30.9316C19.6212 30.9325 19.5736 30.9432 19.5296 30.9629C19.4855 30.9827 19.4459 31.0111 19.4131 31.0465L18.2469 32.2113L16.2134 30.1785C16.2284 30.1668 16.2424 30.154 16.2554 30.14L20.0403 26.3572C20.1076 26.2898 20.1454 26.1985 20.1453 26.1032C20.1452 26.008 20.1073 25.9167 20.04 25.8494C19.9726 25.7821 19.8812 25.7443 19.786 25.7444C19.6907 25.7444 19.5994 25.7823 19.5321 25.8497L15.7486 29.6325C15.7348 29.6462 15.7222 29.6609 15.7108 29.6766L15.1949 29.1593C15.2167 29.1452 15.2369 29.1288 15.2551 29.1103L17.5084 26.857C17.5446 26.8244 17.5738 26.7847 17.5941 26.7405C17.6145 26.6962 17.6257 26.6482 17.6269 26.5995C17.6281 26.5508 17.6194 26.5023 17.6014 26.4571C17.5833 26.4118 17.5561 26.3707 17.5217 26.3363C17.4872 26.3018 17.446 26.2748 17.4008 26.2567C17.3555 26.2387 17.307 26.2301 17.2583 26.2314C17.2096 26.2327 17.1616 26.2439 17.1174 26.2643C17.0731 26.2848 17.0335 26.314 17.0009 26.3502L14.7483 28.6035C14.7299 28.6216 14.7135 28.6415 14.6993 28.663L13.6759 27.641L18.7523 22.5646Z" fill="#ECF0FF"/>
</g>
</g>
</svg>
