<svg width="49" height="48" viewBox="0 0 49 48" fill="none" xmlns="http://www.w3.org/2000/svg">
<g id="ecology">
<path id="Vector" fillRule="evenodd" clipRule="evenodd" d="M17.983 16.0924C17.9398 16.0114 17.8912 15.9358 17.8426 15.8602C16.0228 13.0738 11.3626 12.8687 11.3626 12.8687C11.3626 12.8687 9.67784 17.1886 11.4976 19.9858C13.3174 22.783 17.9776 22.9828 17.9776 22.9828C17.9776 22.9828 22.6162 22.7776 24.4576 19.9858C26.299 17.194 24.5926 12.8687 24.5926 12.8687C24.5926 12.8687 19.954 13.0738 18.1126 15.8602C18.0748 15.9628 18.01 16.0114 17.983 16.0924Z" fill="#91CB7C"/>
<path id="Vector_2" fillRule="evenodd" clipRule="evenodd" d="M11.3825 12.8687C11.3825 12.8687 16.0211 13.0738 17.8625 15.8602C19.7039 18.6466 17.9813 22.9828 17.9813 22.9828C17.9813 22.9828 13.3427 22.7776 11.5013 19.9858C9.65995 17.194 11.3825 12.8687 11.3825 12.8687Z" fill="#D0EEC5"/>
<path id="Vector_3" fillRule="evenodd" clipRule="evenodd" d="M33.6426 33.2422V26.3032H31.2126L28.7286 25.0612C27.5304 24.4603 26.1835 24.2202 24.8514 24.37C23.0359 24.5719 21.359 25.4372 20.1426 26.8L19.0626 28.0096L15.5095 27.6532C15.0039 27.6026 14.4951 27.7093 14.0525 27.9586C13.6099 28.208 13.255 28.5878 13.0363 29.0464L10.2769 28.0366C10.049 27.9524 9.80393 27.9249 9.56301 27.9567C9.32209 27.9884 9.09252 28.0783 8.89417 28.2187C8.69583 28.3591 8.53467 28.5457 8.42464 28.7624C8.31461 28.979 8.25903 29.2192 8.26269 29.4622V30.0022L19.4946 34.8621C20.2654 35.1957 21.1227 35.2733 21.9408 35.0835L29.8626 33.2422H33.6426Z" fill="#F6D0A0"/>
<path id="Vector_4" fillRule="evenodd" clipRule="evenodd" d="M12.5827 30.1642C12.5827 30.1642 13.2685 28.5442 13.0363 29.0464L10.2769 28.0366C10.049 27.9524 9.80393 27.9249 9.56301 27.9567C9.32209 27.9884 9.09252 28.0783 8.89417 28.2187C8.69583 28.3591 8.53467 28.5457 8.42464 28.7624C8.31461 28.979 8.25903 29.2192 8.26269 29.4622V30.0022L19.4946 34.8621C20.2654 35.1957 21.1227 35.2733 21.9408 35.0835L29.8626 33.2422H33.6426V30.1804L12.5827 30.1642Z" fill="#F09276"/>
<path id="Vector_5" d="M33.6421 24.7808H40.6621V35.5807H33.6421V24.7808Z" fill="#768EC6"/>
<path id="Vector_6" d="M33.6421 24.7808H40.6621V30.1807H33.6421V24.7808Z" fill="#C1CDEA"/>
<path id="Vector_7" d="M8.59071 27.7722C8.85864 27.5867 9.16697 27.4679 9.49007 27.4257C9.81317 27.3834 10.1417 27.4189 10.4483 27.5292L12.8081 28.3824C13.1117 27.9449 13.5264 27.5963 14.0095 27.3723C14.4926 27.1483 15.0266 27.0571 15.5567 27.108L18.8399 27.432L19.7363 26.4384C21.0429 24.9778 22.8427 24.0509 24.7906 23.8356C26.2286 23.6833 27.68 23.9496 28.9702 24.6024L31.3408 25.7904H33.1012V24.7806C33.1012 24.6374 33.1581 24.5 33.2594 24.3988C33.3606 24.2975 33.498 24.2406 33.6412 24.2406H40.6612C40.8044 24.2406 40.9417 24.2975 41.043 24.3988C41.1443 24.5 41.2012 24.6374 41.2012 24.7806V35.5805C41.2012 35.7237 41.1443 35.8611 41.043 35.9623C40.9417 36.0636 40.8044 36.1205 40.6612 36.1205H33.6412C33.498 36.1205 33.3606 36.0636 33.2594 35.9623C33.1581 35.8611 33.1012 35.7237 33.1012 35.5805V33.7823H29.926L22.0637 35.6561C21.7311 35.7357 21.3904 35.7756 21.0485 35.7749C20.4387 35.774 19.8357 35.6471 19.2773 35.4023L8.04531 30.5424C7.94872 30.5002 7.86658 30.4307 7.80901 30.3424C7.75143 30.2541 7.72095 30.1509 7.72132 30.0456V29.4624C7.71734 29.1311 7.79449 28.8039 7.94603 28.5093C8.09757 28.2146 8.3189 27.9616 8.59071 27.7722ZM34.1812 35.0405H40.1212V25.3206H34.1812V35.0405ZM8.80132 29.6406L19.7093 34.3871C20.3731 34.6738 21.1118 34.7382 21.8153 34.5707L29.737 32.7023C29.7782 32.6967 29.82 32.6967 29.8612 32.7023H33.1012V26.8434H31.2112C31.1249 26.8363 31.0415 26.8085 30.9682 26.7624L28.4842 25.5204C27.3785 24.9693 26.1375 24.7481 24.9094 24.8832C23.2259 25.07 21.6714 25.8742 20.5463 27.1404L19.4663 28.3446C19.4094 28.4085 19.3381 28.458 19.2583 28.489C19.1785 28.52 19.0924 28.5316 19.0073 28.5228L15.4541 28.1718C15.0386 28.1308 14.621 28.2254 14.2638 28.4415C13.9066 28.6576 13.6289 28.9835 13.4723 29.3706L13.3805 29.6082H17.0471C17.1903 29.6082 17.3276 29.6651 17.4289 29.7663C17.5302 29.8676 17.5871 30.0049 17.5871 30.1482C17.5871 30.2914 17.5302 30.4287 17.4289 30.53C17.3276 30.6313 17.1903 30.6881 17.0471 30.6881H12.5813C12.4948 30.6887 12.4094 30.6684 12.3324 30.6291C12.2554 30.5897 12.1889 30.5324 12.1386 30.462C12.0884 30.3916 12.0557 30.3102 12.0435 30.2246C12.0312 30.1389 12.0398 30.0516 12.0683 29.97L12.3113 29.3652L10.0703 28.5444C9.92509 28.4927 9.76948 28.477 9.61688 28.4989C9.46428 28.5207 9.31929 28.5793 9.19439 28.6696C9.0695 28.76 8.96845 28.8794 8.89997 29.0175C8.83149 29.1556 8.79763 29.3083 8.80132 29.4624V29.6406ZM17.9813 15.1525C20.0819 12.5605 24.3694 12.3337 24.5584 12.3283C24.6736 12.3207 24.7881 12.3501 24.8853 12.4123C24.9825 12.4745 25.0572 12.5662 25.0984 12.6739C25.1686 12.8575 26.8588 17.2963 24.904 20.2825C23.5271 22.3992 20.4329 23.3982 17.9921 23.5224C17.8571 23.4954 13.0403 23.2902 11.0801 20.2825C9.11991 17.2747 10.8155 12.8575 10.8857 12.6739C10.927 12.5662 11.0017 12.4745 11.0989 12.4123C11.196 12.3501 11.3106 12.3207 11.4257 12.3283C11.5931 12.3337 15.8807 12.5605 17.9813 15.1525ZM23.9914 19.6939C25.3414 17.6257 24.5314 14.5153 24.2074 13.4407C23.1275 13.5649 19.9685 14.0833 18.6023 16.1407C19.0722 17.1724 19.2853 18.3026 19.2233 19.4347C20.026 19.0267 20.7033 18.409 21.1835 17.6473C21.2227 17.5879 21.2733 17.5369 21.3323 17.4971C21.3913 17.4574 21.4576 17.4297 21.5273 17.4156C21.5971 17.4016 21.6689 17.4015 21.7387 17.4153C21.8085 17.4291 21.8749 17.4565 21.9341 17.4961C22.0524 17.5753 22.1347 17.698 22.1631 17.8376C22.1914 17.9771 22.1634 18.1222 22.0853 18.2413C21.3719 19.3424 20.3201 20.1819 19.0883 20.6334C19.005 21.2149 18.8841 21.7902 18.7265 22.356C20.0873 22.167 22.7711 21.5622 23.9914 19.6939ZM11.7551 13.4407C11.4149 14.5207 10.6211 17.6257 11.9711 19.6939C13.0511 21.3894 15.4001 22.0482 16.8311 22.2966C15.785 20.8491 14.8995 19.2919 14.1905 17.6527C14.1361 17.5202 14.1365 17.3715 14.1917 17.2394C14.2469 17.1072 14.3523 17.0024 14.4848 16.948C14.6173 16.8936 14.7659 16.894 14.8981 16.9492C15.0302 17.0044 15.1351 17.1098 15.1895 17.2423C15.8865 18.8476 16.7594 20.3707 17.7923 21.7836C18.1487 20.4121 18.5429 17.9119 17.3981 16.1569C16.0373 14.0887 12.8729 13.5649 11.7551 13.4407Z" fill="#25292C"/>
</g>
</svg>
