<svg width="49" height="48" viewBox="0 0 49 48" fill="none" xmlns="http://www.w3.org/2000/svg">
<g id="ozone-layer">
<g id="36. Ozon">
<path id="Vector" d="M35.5016 25.5738C35.5016 28.5442 34.3216 31.393 32.2212 33.4934C30.1208 35.5938 27.272 36.7738 24.3016 36.7738C13.7576 36.7738 9.10165 23.5018 17.2296 16.9019C18.8711 15.5652 20.8578 14.7211 22.9594 14.4674C25.0609 14.2138 27.1914 14.5608 29.1038 15.4685C31.0162 16.3761 32.6322 17.8071 33.7645 19.5956C34.8969 21.3842 35.4992 23.457 35.5016 25.5738Z" fill="#2B8AFC"/>
<path id="Vector_2" d="M35.5031 25.5753C35.5031 39.6232 14.7031 37.5032 14.7031 23.9753C14.7031 9.89533 35.5031 11.9753 35.5031 25.5753Z" fill="#2B8AFC"/>
<path id="Vector_3" d="M24.7883 17.2945C23.8123 18.7585 22.3883 17.2945 21.3803 17.7825C20.3723 18.2705 21.5963 19.3825 21.8683 20.7025C22.3563 23.1425 19.9163 22.1665 18.9403 22.6545C17.7083 23.2625 18.7163 25.4465 17.4843 26.0625C15.4763 27.0785 14.1483 24.8465 13.5883 22.6545C13.2283 21.6305 16.6283 14.4225 24.2363 14.3745C24.4843 14.3745 25.5403 16.1585 24.7883 17.2945Z" fill="#9DCC6B"/>
<path id="Vector_4" d="M23.9903 15.6936C23.0143 17.1576 21.5903 15.6936 20.5823 16.1816C19.5743 16.6696 20.7983 17.7816 21.0703 19.1016C21.5583 21.5416 19.1183 20.5656 18.1423 21.0536C16.9103 21.6616 17.9183 23.8456 16.6863 24.4616C16.4689 24.5724 16.2258 24.623 15.9823 24.6082C15.7387 24.5934 15.5036 24.5137 15.3012 24.3774C15.0988 24.2411 14.9365 24.0532 14.8312 23.8331C14.7259 23.613 14.6814 23.3687 14.7023 23.1256C14.9263 20.1976 16.4783 17.5256 17.3263 16.7896C19.288 15.2451 21.7095 14.4004 24.2063 14.3896C24.3031 14.836 24.2258 15.3024 23.9903 15.6936Z" fill="#B5E08C"/>
<path id="Vector_5" d="M20.4052 27.9738C21.1988 28.2345 21.8847 28.7489 22.3572 29.4378C22.8372 30.4138 24.3332 29.4378 24.7572 30.4138C25.1812 31.3898 24.4772 31.9738 23.5012 32.1498C23.1482 32.2274 22.832 32.4223 22.6039 32.7027C22.3758 32.983 22.2494 33.3324 22.2452 33.6938C22.1972 34.1338 21.4452 34.6297 20.8692 32.8938C20.3812 31.4298 18.8692 31.2938 18.4692 30.4938C18.0692 29.6938 18.4612 27.5178 20.4052 27.9738Z" fill="#9DCC6B"/>
<path id="Vector_6" d="M23.5013 32.1505C23.1523 32.2358 22.8406 32.4328 22.6139 32.7115C22.3872 32.9902 22.2577 33.3354 22.2453 33.6945C22.1973 34.1505 21.4453 34.5985 20.8693 32.8945C20.3813 31.4305 18.8693 31.2945 18.4693 30.4945C18.2765 30.0937 18.2335 29.637 18.3479 29.2072C18.4623 28.7773 18.7267 28.4025 19.0933 28.1506C20.1973 27.5586 21.9253 28.6466 22.3653 29.5185C22.8053 30.3905 24.3413 29.5186 24.7653 30.4705C24.7813 30.6145 25.5653 31.7025 23.5013 32.1505ZM32.5813 25.4466C32.2373 26.4786 33.0693 28.8546 32.0933 30.3185C31.5413 31.1185 30.1973 31.6785 29.6933 31.1185C29.4812 30.7811 29.3641 30.3927 29.3542 29.9942C29.3444 29.5958 29.4422 29.2021 29.6373 28.8546C30.0373 27.8466 30.1173 26.4546 28.6613 25.9346C27.2053 25.4146 25.7413 26.4226 25.2533 23.9906C24.9493 22.4786 26.4293 21.8386 27.1973 21.0626C28.6613 19.6066 27.1973 19.1186 27.6853 17.6546C27.9813 16.7746 29.1573 16.2466 30.0453 15.9746C31.3512 16.76 32.4831 17.8037 33.3718 19.0417C34.2604 20.2797 34.887 21.686 35.2133 23.1746C34.6359 23.3395 34.1015 23.6282 33.6469 24.0206C33.1924 24.4129 32.8288 24.8995 32.5813 25.4466Z" fill="#9DCC6B"/>
<path id="Vector_7" d="M35.2352 23.1749C34.6516 23.3404 34.1114 23.6317 33.6525 24.0283C33.1937 24.425 32.8273 24.9174 32.5792 25.4709C32.2832 26.3589 32.8592 28.2469 32.4032 29.6869C30.9792 30.1509 30.6992 28.6629 31.2592 27.2869C31.6592 26.2789 31.7392 24.8869 30.2832 24.3669C28.8272 23.8469 27.3632 24.8549 26.8752 22.4229C26.6272 21.1749 27.3072 21.2789 27.7472 20.3989C27.7472 20.3189 28.3552 19.9749 28.8192 19.4949C30.2032 18.1189 28.9712 17.6069 29.2512 16.2949C29.5107 16.1734 29.7779 16.0692 30.0512 15.9829C31.3592 16.7658 32.4937 17.8075 33.3851 19.0441C34.2765 20.2808 34.906 21.6864 35.2352 23.1749Z" fill="#B5E08C"/>
<path id="Vector_8" d="M24.3047 41.5741C21.1402 41.5741 18.0467 40.6357 15.4156 38.8776C12.7844 37.1195 10.7336 34.6207 9.52262 31.6971C8.31162 28.7735 7.99477 25.5564 8.61213 22.4527C9.22949 19.349 10.7533 16.4981 12.991 14.2605C15.2286 12.0229 18.0795 10.499 21.1832 9.88166C24.2869 9.2643 27.504 9.58115 30.4276 10.7921C33.3512 12.0031 35.85 14.0539 37.6081 16.6851C39.3662 19.3162 40.3046 22.4097 40.3046 25.5742C40.3046 29.8176 38.6189 33.8872 35.6183 36.8878C32.6178 39.8884 28.5481 41.5741 24.3047 41.5741ZM24.3047 11.1742C21.4566 11.1742 18.6725 12.0188 16.3045 13.601C13.9364 15.1833 12.0907 17.4323 11.0008 20.0635C9.91092 22.6948 9.62576 25.5901 10.1814 28.3834C10.737 31.1768 12.1085 33.7426 14.1223 35.7564C16.1362 37.7703 18.702 39.1418 21.4954 39.6974C24.2887 40.253 27.184 39.9679 29.8153 38.878C32.4465 37.7881 34.6955 35.9424 36.2778 33.5743C37.8601 31.2063 38.7046 28.4222 38.7046 25.5742C38.7046 21.7551 37.1875 18.0924 34.487 15.3919C31.7864 12.6914 28.1238 11.1742 24.3047 11.1742Z" fill="#2B8AFC"/>
<path id="Vector_9" d="M23.5025 32.1498C22.8705 32.2778 22.3025 33.1658 21.6705 31.2778C21.0865 29.5258 19.1105 29.8218 19.0625 28.0779C19.4806 27.872 19.9617 27.8348 20.4065 27.9739C22.2305 28.5818 22.1665 29.4938 22.7105 29.8058C23.2545 30.1178 23.7425 29.8618 24.2385 29.9738C24.9745 30.1818 25.6385 31.6858 23.5025 32.1498Z" fill="#B5E08C"/>
<path id="Vector_10" d="M36.0007 22.9351C31.9927 8.55914 12.3048 11.8711 12.3048 25.5751C12.2986 27.2667 12.6502 28.9405 13.3365 30.4867C14.0227 32.0329 15.0281 33.4165 16.2867 34.5468C17.5453 35.6771 19.0287 36.5285 20.6395 37.0452C22.2503 37.5619 23.9521 37.7321 25.6334 37.5448C27.3146 37.3575 28.9372 36.8169 30.3948 35.9583C31.8524 35.0998 33.112 33.9428 34.091 32.5632C35.07 31.1836 35.7462 29.6127 36.0753 27.9533C36.4044 26.294 36.379 24.5839 36.0007 22.9351ZM34.2887 22.6791C29.9607 24.7591 32.6887 27.9911 31.4327 29.8791C31.1573 30.2439 30.7491 30.4853 30.2967 30.5511C29.7847 29.7511 31.2887 28.2311 30.4727 26.4871C29.9207 25.2871 28.7367 25.0071 27.4327 24.9591C26.5287 24.9591 26.2807 24.9191 26.0647 23.8311C25.7367 22.2311 29.4327 21.9271 28.5287 18.8711C28.2807 18.0711 28.3207 17.4631 29.9607 16.8631C32.0543 18.2199 33.5903 20.2841 34.2887 22.6791ZM23.8967 15.1751C24.1367 15.5831 24.4727 16.3111 24.1287 16.8311C23.5527 17.6871 22.3447 16.3831 21.0247 17.0471C19.7047 17.7111 20.3127 18.9991 20.6487 19.6951C22.0887 22.7031 20.2327 21.0951 18.5928 21.9111C16.9528 22.7271 17.6968 25.0631 17.1048 25.3431C15.6808 26.0631 14.7608 24.0791 14.3528 22.4871C14.9907 20.4301 16.2515 18.622 17.9611 17.3122C19.6706 16.0024 21.7446 15.2557 23.8967 15.1751ZM24.3047 35.975C22.9316 35.9751 21.572 35.7032 20.3044 35.175C19.0369 34.6469 17.8864 33.873 16.9196 32.8979C15.9527 31.9228 15.1885 30.7659 14.671 29.494C14.1536 28.222 13.8931 26.8602 13.9048 25.4871C15.0008 27.0871 16.5848 27.4071 17.8328 26.7751C18.8567 26.2711 18.9447 25.1751 19.0087 24.4231C19.1047 23.2631 19.1287 23.3111 20.1207 23.2791C22.0647 23.2151 23.0247 22.4791 22.6487 20.5511C22.445 19.8378 22.1772 19.1443 21.8487 18.4791C22.5207 18.4791 24.2887 19.4871 25.4567 17.7431C25.6839 17.3786 25.8232 16.9661 25.8635 16.5385C25.9037 16.1108 25.8439 15.6797 25.6887 15.2791C26.5541 15.3897 27.4013 15.6129 28.2087 15.9431C27.6239 16.2574 27.1761 16.777 26.9516 17.4018C26.727 18.0267 26.7417 18.7125 26.9927 19.3271C27.1927 19.9831 27.1367 20.1271 26.1127 20.9271C25.3127 21.5431 24.1687 22.4631 24.5127 24.1271C24.9767 26.4551 26.4327 26.5271 27.3927 26.5271C31.2247 26.6631 27.2647 29.4151 29.1287 31.607C30.0407 32.687 32.0007 31.903 32.7767 30.7271C33.5527 29.5511 33.4327 28.1671 33.3527 27.0151C33.2727 25.8631 33.1287 25.1831 34.6327 24.2791C34.8166 25.7435 34.6868 27.2303 34.2517 28.6406C33.8166 30.051 33.0864 31.3526 32.1095 32.4589C31.1325 33.5652 29.9313 34.451 28.5856 35.0572C27.24 35.6634 25.7807 35.9763 24.3047 35.975Z" fill="#13277E"/>
<path id="Vector_11" d="M23.0698 29.1101C22.5074 28.2318 21.66 27.5736 20.6698 27.2461C20.1979 27.094 19.6911 27.0874 19.2153 27.227C18.7395 27.3666 18.3168 27.6461 18.0019 28.0291C17.687 28.4122 17.4946 28.881 17.4496 29.3748C17.4047 29.8686 17.5093 30.3645 17.7498 30.7981C18.0458 31.3006 18.4786 31.7085 18.9978 31.9741C20.5178 32.9261 19.7978 32.9661 20.7178 34.3341C20.8672 34.5551 21.0807 34.725 21.3296 34.8208C21.5785 34.9166 21.8508 34.9339 22.1098 34.8701C23.4618 34.5421 22.7098 33.1501 23.7098 32.9421C25.6298 32.5181 26.1098 31.3421 25.5338 30.1181C24.9578 28.8941 23.3338 29.2781 23.0698 29.1101ZM21.6938 32.7741C20.9418 30.7741 19.4458 30.6461 19.1738 30.1101C18.9018 29.5741 19.0778 28.7741 19.8218 28.7741C20.1836 28.8223 20.5315 28.9444 20.844 29.133C21.1564 29.3216 21.4266 29.5725 21.6378 29.8701C22.2698 31.1341 23.7898 30.6701 24.0378 30.8141C24.4618 31.6381 22.5258 30.8381 21.6938 32.7741Z" fill="#13277E"/>
<path id="Vector_12" d="M40.3027 25.5737C40.3027 22.4093 39.3643 19.3158 37.6062 16.6847C35.8481 14.0535 33.3493 12.0027 30.4256 10.7917C27.502 9.58073 24.285 9.26388 21.1813 9.88124C18.0776 10.4986 15.2267 12.0224 12.989 14.2601C10.7514 16.4977 9.22756 19.3486 8.6102 22.4523C7.99284 25.556 8.30969 28.773 9.52069 31.6967C10.7317 34.6203 12.7824 37.1191 15.4136 38.8772C18.0448 40.6353 21.1382 41.5737 24.3027 41.5737C28.5462 41.5737 32.6158 39.888 35.6164 36.8874C38.617 33.8868 40.3027 29.8172 40.3027 25.5737ZM24.3027 39.9737C21.4547 39.9737 18.6706 39.1291 16.3025 37.5469C13.9345 35.9646 12.0888 33.7156 10.9989 31.0844C9.909 28.4531 9.62383 25.5578 10.1795 22.7645C10.7351 19.9711 12.1065 17.4053 14.1204 15.3914C16.1343 13.3776 18.7001 12.0061 21.4934 11.4505C24.2867 10.8949 27.1821 11.18 29.8133 12.2699C32.4446 13.3598 34.6936 15.2055 36.2759 17.5736C37.8581 19.9416 38.7027 22.7257 38.7027 25.5737C38.7027 29.3928 37.1855 33.0555 34.485 35.756C31.7845 38.4566 28.1218 39.9737 24.3027 39.9737ZM14.5668 10.9098C14.7439 10.792 14.867 10.6087 14.9091 10.4002C14.9511 10.1917 14.9085 9.97497 14.7907 9.79781C14.673 9.62064 14.4897 9.49751 14.2811 9.45551C14.0726 9.4135 13.8559 9.45605 13.6788 9.57381C12.7348 10.2138 11.5028 10.8778 12.1668 11.7178C12.8308 12.5578 13.6708 11.5018 14.5668 10.9098ZM7.35877 18.3738C7.54981 18.4644 7.76898 18.4758 7.96836 18.4053C8.16774 18.3349 8.33112 18.1883 8.42277 17.9978C9.09477 16.5818 9.39076 16.4938 9.22276 15.9978C9.18348 15.8444 9.09956 15.7061 8.98163 15.6005C8.8637 15.4948 8.71708 15.4265 8.56032 15.4042C8.40356 15.382 8.24371 15.4067 8.10103 15.4754C7.95834 15.544 7.83922 15.6534 7.75877 15.7898C7.24677 16.7098 6.39077 17.8858 7.35877 18.3738ZM20.1507 8.44581C20.3667 8.44581 20.7267 8.30181 21.8867 8.14181C22.0989 8.11317 22.291 8.00142 22.4208 7.83113C22.5506 7.66085 22.6074 7.44599 22.5787 7.23382C22.5501 7.02165 22.4383 6.82954 22.268 6.69977C22.0978 6.56999 21.8829 6.51318 21.6707 6.54182C20.0707 6.77382 19.7027 6.85382 19.4787 7.20582C19.3991 7.3267 19.3538 7.46692 19.3476 7.61154C19.3414 7.75615 19.3745 7.89974 19.4435 8.027C19.5125 8.15426 19.6147 8.26042 19.7392 8.33418C19.8638 8.40793 20.006 8.44651 20.1507 8.44581ZM7.31877 20.9258C7.36584 20.7237 7.3326 20.5114 7.22607 20.3334C7.11954 20.1554 6.94804 20.0258 6.74776 19.9718C6.54748 19.9178 6.33407 19.9438 6.15254 20.0441C5.97102 20.1445 5.83557 20.3114 5.77477 20.5098C5.72771 20.7118 5.76095 20.9242 5.86748 21.1022C5.97401 21.2801 6.1455 21.4098 6.34578 21.4637C6.54607 21.5177 6.75948 21.4918 6.941 21.3914C7.12253 21.291 7.25797 21.1241 7.31877 20.9258ZM10.4148 14.3018C10.579 14.3035 10.7397 14.2545 10.8752 14.1617C11.0107 14.0688 11.1143 13.9365 11.1719 13.7827C11.2296 13.629 11.2385 13.4612 11.1975 13.3021C11.1565 13.1431 11.0676 13.0005 10.9428 12.8938C10.7825 12.7549 10.5737 12.6853 10.3622 12.7003C10.1507 12.7153 9.95379 12.8137 9.81476 12.9738C9.71329 13.0893 9.64725 13.2316 9.62455 13.3836C9.60184 13.5357 9.62343 13.6911 9.68673 13.8312C9.75003 13.9713 9.85236 14.0902 9.98148 14.1736C10.1106 14.2571 10.261 14.3016 10.4148 14.3018ZM17.7587 8.34981C17.6739 8.15461 17.5149 8.00112 17.3169 7.92311C17.1189 7.8451 16.8979 7.84895 16.7027 7.93381C16.5075 8.01868 16.3541 8.17762 16.276 8.37566C16.198 8.57369 16.2019 8.79461 16.2867 8.98981C16.3716 9.18501 16.5306 9.3385 16.7286 9.41651C16.9266 9.49453 17.1475 9.49068 17.3427 9.40581C17.5379 9.32094 17.6914 9.162 17.7694 8.96397C17.8475 8.76593 17.8436 8.54501 17.7587 8.34981ZM25.9027 7.22182C25.9059 7.11676 25.8883 7.01211 25.851 6.91385C25.8137 6.81558 25.7574 6.72562 25.6854 6.64911C25.5398 6.49458 25.3389 6.40419 25.1267 6.39782C24.9145 6.39146 24.7085 6.46964 24.554 6.61516C24.3995 6.76069 24.3091 6.96165 24.3027 7.17382C24.2964 7.38599 24.3745 7.592 24.5201 7.74653C24.6656 7.90106 24.8665 7.99145 25.0787 7.99781C25.2909 8.00418 25.4969 7.926 25.6514 7.78047C25.806 7.63494 25.8964 7.43399 25.9027 7.22182ZM39.7987 14.2298C39.7367 14.1447 39.6586 14.0726 39.5687 14.0177C39.4789 13.9628 39.3791 13.9262 39.2751 13.9098C39.1711 13.8935 39.0649 13.8978 38.9626 13.9225C38.8603 13.9472 38.7638 13.9918 38.6787 14.0538C38.5936 14.1158 38.5215 14.1939 38.4666 14.2837C38.4117 14.3736 38.3751 14.4733 38.3587 14.5773C38.3424 14.6813 38.3467 14.7875 38.3714 14.8899C38.3961 14.9922 38.4407 15.0887 38.5027 15.1738C38.6279 15.3456 38.8162 15.4607 39.0262 15.4937C39.2363 15.5267 39.4508 15.475 39.6227 15.3498C39.7945 15.2246 39.9096 15.0363 39.9426 14.8262C39.9756 14.6162 39.9239 14.4016 39.7987 14.2298ZM40.7587 19.3258C40.834 19.5241 40.985 19.6845 41.1786 19.7715C41.3721 19.8585 41.5923 19.8651 41.7907 19.7898C41.9891 19.7144 42.1494 19.5634 42.2364 19.3699C42.3234 19.1763 42.33 18.9562 42.2547 18.7578C42.0467 18.2058 41.8147 17.6778 41.5747 17.1578C41.53 17.0617 41.4668 16.9755 41.3885 16.904C41.3103 16.8326 41.2187 16.7774 41.1189 16.7417C41.0192 16.706 40.9134 16.6904 40.8076 16.6959C40.7018 16.7014 40.5982 16.7279 40.5027 16.7738C39.5827 17.2618 40.3027 18.1018 40.7587 19.3258ZM41.6067 22.3738C41.6449 22.5859 41.7658 22.7742 41.9428 22.8973C42.1198 23.0203 42.3385 23.0679 42.5507 23.0298C42.7628 22.9916 42.9512 22.8706 43.0742 22.6936C43.1972 22.5166 43.2449 22.2979 43.2067 22.0858C43.1878 21.9807 43.1483 21.8804 43.0907 21.7906C43.033 21.7007 42.9582 21.6232 42.8705 21.5623C42.6935 21.4392 42.4748 21.3916 42.2627 21.4298C42.0505 21.4679 41.8622 21.5889 41.7392 21.7659C41.6161 21.9429 41.5685 22.1616 41.6067 22.3738Z" fill="#13277E"/>
</g>
</g>
</svg>
