<svg width="61" height="48" viewBox="0 0 61 48" fill="none" xmlns="http://www.w3.org/2000/svg">
<g id="we-move-to-new-house">
<path id="Vector" d="M10.8511 18.8648C13.0276 18.8648 14.7921 17.1004 14.7921 14.9239C14.7921 12.7473 13.0276 10.9829 10.8511 10.9829C8.67458 10.9829 6.91016 12.7473 6.91016 14.9239C6.91016 17.1004 8.67458 18.8648 10.8511 18.8648Z" fill="#F6F6F6"/>
<path id="Vector_2" d="M52.956 41.3272C52.8403 41.5005 37.9045 41.3272 37.9045 41.3272C37.9045 41.3272 36.6248 38.1573 39.7021 36.852C42.7793 35.5467 43.7849 37.747 43.7849 37.747C43.7849 37.747 43.8153 36.6586 44.9123 36.4382C46.0091 36.2179 45.4608 37.8216 45.4608 37.8216C45.4608 37.8216 46.3139 36.3672 47.6545 36.2181C48.9952 36.069 49.2389 37.5606 48.5382 39.0896C48.5381 39.0896 54.4489 39.0896 52.956 41.3272Z" fill="#E2D7DE"/>
<path id="Vector_3" d="M48.4538 41.3463C48.3669 41.4766 37.1436 41.3463 37.1436 41.3463C37.1436 41.3463 36.182 38.9644 38.4944 37.9836C40.8068 37.0028 41.5624 38.6561 41.5624 38.6561C41.5624 38.6561 41.5853 37.8382 42.4096 37.6727C43.2338 37.5073 42.8218 38.7122 42.8218 38.7122C42.8218 38.7122 43.4629 37.6193 44.4703 37.5073C45.4776 37.3951 45.6608 38.5161 45.1343 39.665C45.134 39.6649 49.5756 39.6649 48.4538 41.3463Z" fill="#D3C9CF"/>
<path id="Vector_4" d="M8.37209 41.3479C8.45657 41.4746 19.3795 41.3479 19.3795 41.3479C19.3795 41.3479 20.3153 39.0296 18.0647 38.0752C15.8142 37.1207 15.079 38.7298 15.079 38.7298C15.079 38.7298 15.0567 37.9338 14.2545 37.7727C13.4524 37.6116 13.8534 38.7844 13.8534 38.7844C13.8534 38.7844 13.2295 37.7207 12.2491 37.6116C11.2686 37.5024 11.0903 38.5933 11.6028 39.7116C11.603 39.7116 7.28025 39.7116 8.37209 41.3479Z" fill="#E2D7DE"/>
<path id="Vector_5" d="M11.668 41.3617C11.7315 41.4569 19.9392 41.3617 19.9392 41.3617C19.9392 41.3617 20.6424 39.6198 18.9513 38.9025C17.2603 38.1852 16.7076 39.3943 16.7076 39.3943C16.7076 39.3943 16.6908 38.7961 16.0881 38.6751C15.4854 38.5542 15.7867 39.4353 15.7867 39.4353C15.7867 39.4353 15.3179 38.6361 14.5811 38.554C13.8443 38.4721 13.7104 39.2918 14.0955 40.1319C14.0958 40.1321 10.8476 40.1321 11.668 41.3617Z" fill="#D3C9CF"/>
<path id="Vector_6" d="M48.76 21.2942C47.775 25.5025 44.978 28.3403 41.574 29.7846C40.3102 30.3228 38.9651 30.6742 37.543 30.8647C35.0852 31.1958 32.4 31.0484 29.5145 30.5649C27.7304 30.2516 25.9835 29.8609 24.3112 29.4142C21.7364 28.7254 19.3385 27.9038 17.255 27.0257C13.8396 25.5243 11.2796 23.8695 10.7115 21.1367C10.1561 18.4711 11.7155 14.9484 15.1587 11.5955C18.5676 8.29449 23.8606 5.16313 29.9848 4.47065C36.086 3.69289 41.6008 5.68361 44.9836 9.06153C48.4244 12.4137 49.7321 17.1532 48.76 21.2942Z" fill="#F6F6F6"/>
<path id="Vector_7" d="M42.6215 13.1013C42.6215 13.1013 41.6191 12.6113 40.9249 13.5402C40.3396 14.3236 41.5943 16.2714 41.2746 16.9533C40.9549 17.6353 40.8271 17.1452 40.4223 17.5713C40.0173 17.9975 40.4223 19.3186 42.1271 18.8073C43.8319 18.2959 42.8943 18.445 44.1729 18.5303C45.4514 18.6156 45.0252 17.1173 45.0252 17.1173C45.0252 17.1173 45.4386 16.6977 45.0933 16.037C44.7481 15.3764 43.7039 15.5469 43.9383 14.6732C44.1729 13.7994 43.4338 12.7178 42.6215 13.1013Z" fill="#33232A"/>
<path id="Vector_8" d="M42.4396 17.1846C44.1622 17.2752 46.7451 26.6603 38.6672 33.1313C35.1144 35.9774 36.7516 22.3233 36.7516 22.3233C36.7516 22.3233 38.8428 16.9953 42.4396 17.1846Z" fill="#3FC9BC"/>
<path id="Vector_9" d="M42.5723 16.0859L42.7534 17.577C42.7534 17.577 42.0315 17.9979 41.4688 17.6746L41.727 16.1019L42.5723 16.0859Z" fill="#FFBF9F"/>
<path id="Vector_10" d="M41.7715 16.9671C41.835 17.0124 41.7931 16.8075 41.8544 16.751C41.9027 16.7065 41.967 16.6959 42.0306 16.7001C42.101 16.7047 42.1688 16.7268 42.2395 16.727C42.3024 16.7271 42.365 16.7156 42.4216 16.6875C42.5093 16.6439 42.5723 16.5676 42.6214 16.4841L42.5731 16.0857L41.7277 16.1019C41.7277 16.102 41.5498 16.8092 41.7715 16.9671Z" fill="#EFAC8F"/>
<path id="Vector_11" d="M43.4313 15.374C43.4059 15.0937 43.051 15.2022 43.051 15.2022C43.051 15.2022 43.4111 14.9111 43.2097 14.2983C43.0083 13.6855 41.3255 13.3561 41.0155 14.1738C40.8735 14.5481 40.6526 15.9001 41.3569 16.3588C42.0611 16.8175 42.1963 16.55 42.5801 16.3137C42.9102 16.1103 42.9385 15.865 42.9385 15.865C42.9385 15.865 43.4753 15.8598 43.4313 15.374Z" fill="#FFBF9F"/>
<path id="Vector_12" d="M40.7205 14.4813C40.7205 14.4813 40.8267 14.5053 40.9722 14.5218C41.0136 14.5264 41.0638 14.127 41.3328 14.071C41.1056 14.2486 41.1774 14.5368 41.2146 14.537C41.4094 14.5381 41.6117 14.5078 41.7163 14.3971C41.7163 14.3971 42.4501 14.7192 42.7557 14.5504C42.6171 15.115 42.7122 15.415 42.8878 15.4298C43.0635 15.4445 43.3602 14.9267 43.3602 14.9267C43.3602 14.9267 43.8304 13.6253 42.4302 13.1546C41.0299 12.6838 40.4059 13.6549 40.7205 14.4813ZM43.2771 15.5037C43.2843 15.5037 43.291 15.4994 43.2938 15.4923C43.3549 15.3362 43.1986 15.2437 43.197 15.2429C43.1883 15.2378 43.1774 15.241 43.1725 15.2494C43.1675 15.2579 43.1704 15.269 43.179 15.2739C43.1845 15.2771 43.3102 15.3522 43.2605 15.4794C43.2568 15.4886 43.2614 15.499 43.2706 15.5026C43.2728 15.5032 43.275 15.5037 43.2771 15.5037Z" fill="#33232A"/>
<path id="Vector_13" d="M42.6166 15.5611C42.6278 15.6275 42.5555 15.695 42.4552 15.7118C42.3548 15.7288 42.2643 15.6886 42.2532 15.6224C42.242 15.5561 42.3144 15.4886 42.4147 15.4717C42.515 15.4547 42.6054 15.4949 42.6166 15.5611ZM42.0595 16.1793C42.0707 16.2457 41.9984 16.3133 41.898 16.3301C41.7977 16.347 41.7072 16.3069 41.6961 16.2406C41.6849 16.1742 41.7572 16.1069 41.8576 16.0899C41.9579 16.0729 42.0483 16.1129 42.0595 16.1793ZM41.4739 15.6203C41.4851 15.6867 41.4128 15.7542 41.3124 15.771C41.2121 15.788 41.1216 15.7478 41.1105 15.6816C41.0993 15.6153 41.1716 15.5478 41.272 15.5309C41.3723 15.5139 41.4627 15.5541 41.4739 15.6203Z" fill="#EFAC8F"/>
<path id="Vector_14" d="M41.7566 15.6513C41.7468 15.6513 41.7374 15.6498 41.7279 15.6473C41.6684 15.63 41.6433 15.563 41.6423 15.5602C41.6393 15.5519 41.6404 15.5426 41.6452 15.5353C41.7458 15.3807 41.7191 15.1721 41.7188 15.17C41.7167 15.1546 41.7274 15.1406 41.7428 15.1385C41.7586 15.1362 41.7722 15.1471 41.7743 15.1625C41.7756 15.1716 41.8026 15.3828 41.7004 15.5526C41.7084 15.5673 41.7234 15.5878 41.7438 15.5935C41.7626 15.5988 41.7858 15.5914 41.8124 15.5711C41.8153 15.5689 41.8187 15.5672 41.8222 15.5663C41.8258 15.5653 41.8295 15.5651 41.8332 15.5656C41.8368 15.5661 41.8403 15.5673 41.8435 15.5692C41.8467 15.571 41.8495 15.5735 41.8518 15.5764C41.854 15.5793 41.8556 15.5827 41.8566 15.5862C41.8575 15.5898 41.8578 15.5935 41.8573 15.5972C41.8568 15.6008 41.8556 15.6043 41.8537 15.6075C41.8519 15.6107 41.8494 15.6135 41.8465 15.6158C41.8153 15.6393 41.7852 15.6513 41.7566 15.6513Z" fill="#33232A"/>
<path id="Vector_15" d="M41.4375 16.0164C41.4375 16.0164 41.7575 16.1613 42.1161 15.9946C42.1973 16.1436 41.7725 16.5314 41.4375 16.0164Z" fill="#EAEFEE"/>
<path id="Vector_16" d="M42.1275 15.0821C42.1275 15.1698 42.1757 15.2404 42.2355 15.2404C42.2954 15.2404 42.3435 15.1697 42.3435 15.0821C42.3435 14.9953 42.2954 14.9239 42.2355 14.9239C42.209 14.9239 42.1846 14.9375 42.1656 14.9613C42.1867 14.9668 42.2016 14.9852 42.2016 15.0069C42.2016 15.0335 42.1805 15.0545 42.1541 15.0545C42.1453 15.0545 42.1371 15.0524 42.1302 15.0477C42.1283 15.0583 42.1275 15.0706 42.1275 15.0821ZM41.9437 14.818C41.9437 14.818 42.4213 14.794 42.4694 14.7469C42.5174 14.6999 42.368 14.6007 42.1574 14.654C41.9469 14.7071 41.8891 14.8164 41.9437 14.818ZM41.2189 15.0821C41.2189 15.1698 41.267 15.2404 41.3269 15.2404C41.3867 15.2404 41.4349 15.1697 41.4349 15.0821C41.4349 14.9953 41.3867 14.9239 41.3269 14.9239C41.3003 14.9239 41.276 14.9375 41.257 14.9613C41.2781 14.9668 41.293 14.9852 41.293 15.0069C41.293 15.0335 41.2718 15.0545 41.2454 15.0545C41.2366 15.0545 41.2285 15.0524 41.2216 15.0477C41.2195 15.0583 41.2189 15.0706 41.2189 15.0821ZM41.035 14.818C41.035 14.818 41.5126 14.794 41.5608 14.7469C41.6088 14.6999 41.4594 14.6007 41.2488 14.654C41.0381 14.7071 40.9803 14.8164 41.035 14.818Z" fill="#33232A"/>
<path id="Vector_17" d="M16.5279 19.3942C16.8516 18.898 18.725 19.8478 18.4674 22.4628C18.3193 23.9662 17.1785 25.183 16.3772 25.3932C15.6231 25.5911 15.2178 24.8503 14.7319 24.0859C14.2028 23.2535 15.6253 20.7777 16.5279 19.3942Z" fill="#2B8AFC"/>
<path id="Vector_18" d="M15.0223 26.4019C15.0223 26.4019 16.6759 25.5295 16.5818 24.7909C16.4877 24.0523 15.4493 23.0035 14.7485 23.4157C14.0477 23.8279 14.4453 25.6847 15.0223 26.4019Z" fill="#F4AF90"/>
<path id="Vector_19" d="M11.5352 20.5516C11.5352 20.5516 13.4748 26.8685 14.7064 26.5269C17.5891 25.7274 12.1548 20.0596 12.1548 20.0596L11.5352 20.5516Z" fill="#FFBF9F"/>
<path id="Vector_20" d="M10.7815 19.6932C10.7951 19.7188 10.8096 19.7406 10.8226 19.7566C10.8253 19.7599 10.8277 19.7628 10.8301 19.7654C10.8896 19.8313 10.9523 19.894 11.0123 19.95C11.1731 20.1012 11.3139 20.2066 11.3139 20.2066C11.3139 20.2066 11.9928 21.6049 12.1067 21.7281C12.2687 21.8084 12.6458 21.2106 12.6458 21.2106C12.6906 21.0596 12.0795 19.9206 12.0075 19.6772C11.9352 19.4337 12.2959 18.7881 12.0712 18.7681C11.945 18.8772 11.7531 19.1943 11.7531 19.1943C11.7531 19.1943 11.2891 17.9698 11.0127 18.0753C10.8896 18.1222 11.1685 18.7239 11.2485 18.965C11.2491 18.9671 11.2499 18.9689 11.2504 18.971C11.2499 18.9705 11.1402 18.933 11.0727 19.0148C11.0395 19.0546 11.0386 19.0898 11.0386 19.0898C11.0386 19.0898 10.9695 19.0897 10.9299 19.1193C10.8901 19.149 10.8461 19.2158 10.8552 19.2377C10.8544 19.238 10.7933 19.2346 10.7583 19.2862C10.7232 19.3375 10.7402 19.4295 10.7402 19.4295L10.7407 19.4292C10.7378 19.4402 10.7351 19.4511 10.7335 19.462C10.7211 19.5452 10.7487 19.631 10.7815 19.6932Z" fill="#FFBF9F"/>
<path id="Vector_21" opacity="0.2" d="M10.7814 19.6932C10.7862 19.6814 10.7931 19.6705 10.8031 19.6617C10.8481 19.6228 10.898 19.6556 10.931 19.6873C10.9502 19.7057 10.9668 19.7284 10.9883 19.7446C11.0067 19.7588 11.0327 19.7665 11.0559 19.7708C11.2534 19.8104 11.542 19.611 11.4686 19.4006C11.4385 19.3144 11.3993 19.2276 11.3574 19.1473C11.3223 19.0801 11.298 19.0289 11.2505 18.9708C11.25 18.9704 11.1403 18.9329 11.0727 19.0147C11.0396 19.0545 11.0387 19.0897 11.0387 19.0897C11.0387 19.0897 10.9695 19.0896 10.93 19.1192C10.8902 19.1489 10.8462 19.2156 10.8553 19.2376C10.8545 19.2379 10.7934 19.2345 10.7583 19.286C10.7233 19.3374 10.7403 19.4294 10.7403 19.4294L10.7407 19.4291C10.7379 19.4401 10.7351 19.451 10.7335 19.4619C10.7211 19.5452 10.7486 19.631 10.7814 19.6932ZM12.1094 18.9776C12.1094 18.9776 12.0833 18.9862 12.0763 18.9504C12.0694 18.9145 12.1187 18.8132 12.1187 18.8132C12.1187 18.8132 12.1671 18.868 12.1094 18.9776Z" fill="white"/>
<path id="Vector_22" opacity="0.1" d="M10.8984 19.6518C11.0229 19.8462 11.1551 19.8505 11.2101 19.8421C11.3346 19.7593 11.4415 19.6593 11.4807 19.5808C11.508 19.5261 11.4887 19.4305 11.4496 19.3286C11.4528 19.3339 11.456 19.339 11.4591 19.3443C11.5101 19.4323 11.5637 19.536 11.5536 19.6411C11.5437 19.7448 11.4648 19.819 11.3725 19.8568C11.2984 19.887 11.2173 19.8985 11.1365 19.9005L11.1364 19.9006H11.1359L11.1133 19.9011C11.1151 19.9001 11.1167 19.8992 11.1184 19.8982C10.9829 19.8737 10.8984 19.6518 10.8984 19.6518Z" fill="#231F20"/>
<path id="Vector_23" d="M11.2046 19.8168C11.1538 19.7639 11.118 19.7184 11.0766 19.6589C11.0348 19.5978 10.9975 19.5325 10.9766 19.4615C11.0023 19.5307 11.0436 19.5923 11.0889 19.6496C11.1346 19.7066 11.2353 19.8051 11.2353 19.8051C11.2586 19.7962 11.3258 19.7394 11.3535 19.7135C11.355 19.7122 11.3562 19.7109 11.3575 19.7096C11.3106 19.6515 11.2662 19.5922 11.2246 19.5307C11.1826 19.4683 11.1425 19.404 11.114 19.3346C11.1471 19.4019 11.1913 19.4627 11.237 19.5218C11.2822 19.5794 11.3302 19.6352 11.3796 19.6887C11.398 19.6706 11.4161 19.6523 11.4314 19.6322C11.474 19.5767 11.4882 19.5384 11.4676 19.4274C11.4607 19.3901 11.4487 19.3536 11.4364 19.3175C11.4249 19.2808 11.4108 19.2451 11.3969 19.209C11.4364 19.2754 11.4686 19.3464 11.4905 19.4216C11.5012 19.4594 11.509 19.4986 11.5063 19.54C11.5049 19.5504 11.5047 19.561 11.5006 19.5711L11.4956 19.5864L11.4887 19.6003C11.4844 19.6099 11.479 19.6184 11.4732 19.6267C11.4678 19.6354 11.4618 19.6435 11.4554 19.6511C11.405 19.7128 11.3441 19.7621 11.2804 19.8066C11.2167 19.8507 11.1466 19.872 11.0522 19.8088C11.111 19.8424 11.1913 19.8266 11.2046 19.8168Z" fill="#E8AD80"/>
<path id="Vector_24" opacity="0.1" d="M11.3164 20.1921C11.4319 20.2303 11.6135 20.1529 11.7719 20.0652C11.8922 19.9986 11.9673 19.8852 12.0127 19.7834C12.0116 19.8086 12.0097 19.8338 12.0057 19.8593C11.9956 19.9254 11.9665 20.2142 11.8028 20.2863C11.547 20.3991 11.3822 20.2082 11.3217 20.202C11.3199 20.1988 11.3182 20.1954 11.3164 20.1921Z" fill="#231F20"/>
<path id="Vector_25" d="M20.6095 30.8547C20.6095 30.8547 16.3795 24.7092 16.3789 20.322C16.3787 19.1489 16.8706 18.874 17.5999 17.9527C19.4765 15.5822 22.9323 20.6035 22.9323 20.6035L20.6095 30.8547Z" fill="#3FC9BC"/>
<path id="Vector_26" d="M17.0535 18.7269C17.1836 18.9242 17.6492 18.8468 18.0937 18.5538C18.5381 18.2609 18.7929 17.8636 18.6628 17.6663C18.5327 17.469 18.0671 17.5465 17.6226 17.8394C17.1783 18.1322 16.9234 18.5297 17.0535 18.7269Z" fill="#00A99D"/>
<path id="Vector_27" d="M17.2727 18.5068C17.2727 18.5068 17.5879 18.5636 17.9353 18.3347C18.2828 18.1057 18.3826 17.7904 18.3826 17.7904C18.3826 17.7904 18.1079 17.4822 17.905 17.2542C17.7828 17.1155 17.6826 17.002 17.667 16.9832L16.7969 17.5566L17.0068 17.9763L17.2727 18.5068Z" fill="#FFBF9F"/>
<path id="Vector_28" d="M17.007 17.9763C17.2393 18.0259 17.4665 18.0147 17.5982 17.9278C17.758 17.8225 17.8726 17.5457 17.905 17.2542C17.7828 17.1155 17.6826 17.002 17.667 16.9832L16.7969 17.5566L17.007 17.9763Z" fill="#EFAC8F"/>
<path id="Vector_29" d="M15.1916 15.2994C15.1916 15.2994 14.8043 15.139 14.9324 14.6022C14.9324 14.6022 14.5831 14.335 14.8123 13.8344C15.0412 13.3338 15.5612 13.5938 15.5612 13.5938C15.5612 13.5938 16.2734 12.3614 17.7097 13.1317C18.2291 13.4101 17.7097 13.6419 17.7097 13.6419C17.7097 13.6419 18.3364 13.6611 18.3265 14.4122C18.319 14.9846 18.0572 15.0597 18.0572 15.0597C18.0572 15.0597 18.1073 15.6358 17.8142 15.7616C17.5207 15.8872 15.1414 16.9749 15.1916 15.2994Z" fill="#33232A"/>
<path id="Vector_30" d="M18.412 15.5482C18.2945 15.3192 18.0812 15.3847 17.9604 15.4472C17.9552 14.9568 17.8971 14.5826 17.8971 14.5826C17.8929 14.5562 17.8846 14.5314 17.8721 14.5077C17.6283 14.0671 15.8464 14.0504 15.4848 14.4565C15.45 14.4939 15.4294 14.5368 15.4224 14.5826C15.4224 14.5826 15.368 14.9586 15.3667 15.4509C15.2472 15.3874 15.028 15.3146 14.9083 15.5482C14.7412 15.8741 15.1168 16.3591 15.434 16.3458C15.5571 17.0656 15.8811 17.7322 16.6596 17.7322C17.4532 17.7322 17.7787 17.0659 17.8985 16.3463C18.2131 16.3469 18.5769 15.8699 18.412 15.5482Z" fill="#FFBF9F"/>
<path id="Vector_31" d="M15.9536 14.6197C17.2641 15.2407 17.8969 14.7 17.9129 14.6965C17.9043 14.6243 17.8979 14.5831 17.8979 14.5831C17.8937 14.5567 17.8854 14.5319 17.8729 14.5082C17.6291 14.0675 15.8472 14.0509 15.4856 14.457C15.4509 14.4944 15.4302 14.5373 15.4232 14.5831C15.4232 14.5831 15.4067 14.7207 15.3945 14.8487C15.5078 14.8675 15.7979 14.8395 15.9536 14.6197Z" fill="#EFAC8F"/>
<path id="Vector_32" d="M16.4102 16.8374C16.5391 16.8031 16.6039 16.8977 16.7329 16.8962C16.8618 16.8975 16.9708 16.7954 17.0998 16.8298C16.9708 16.8642 16.8618 16.9817 16.7329 16.983C16.6038 16.9815 16.5391 16.8716 16.4102 16.8374Z" fill="#33232A"/>
<path id="Vector_33" d="M16.653 17.4595C16.5159 17.4595 16.4357 17.3796 16.4346 17.3785C16.4288 17.3723 16.4256 17.3641 16.4258 17.3555C16.426 17.347 16.4295 17.3389 16.4356 17.3329C16.4417 17.3269 16.4499 17.3236 16.4584 17.3236C16.4669 17.3236 16.4751 17.327 16.4812 17.3329C16.4869 17.3387 16.625 17.4728 16.8586 17.3281C16.874 17.3187 16.894 17.3233 16.9034 17.3387C16.9129 17.3539 16.9082 17.374 16.8929 17.3835C16.801 17.4403 16.7202 17.4595 16.653 17.4595Z" fill="#EFAC8F"/>
<path id="Vector_34" d="M15.8329 14.3736C15.8329 14.3736 16.8858 14.9181 17.9767 14.6989C19.0676 14.4795 16.4153 13.5216 15.7751 13.8394C15.135 14.1571 15.2407 14.8936 15.2407 14.8936C15.2407 14.8936 15.7655 14.7998 15.8329 14.3736ZM16.5978 16.309C16.5546 16.2112 16.6182 16.1002 16.621 16.0955C16.6338 16.0738 16.6617 16.0664 16.6834 16.079C16.7054 16.0917 16.7127 16.1195 16.7001 16.1414C16.6876 16.163 16.662 16.2283 16.6826 16.2744C16.6988 16.3077 16.7406 16.3293 16.8068 16.339C16.8318 16.3427 16.8492 16.3658 16.8454 16.3909C16.8436 16.4029 16.8371 16.4137 16.8274 16.4209C16.8177 16.4282 16.8055 16.4313 16.7935 16.4296C16.6953 16.4154 16.6302 16.3763 16.6001 16.3139C16.5994 16.3122 16.5986 16.3106 16.5978 16.309ZM17.4542 15.7184C17.4542 15.7984 17.3993 15.8629 17.3318 15.8629C17.2642 15.8629 17.2094 15.7982 17.2094 15.7184C17.2094 15.6386 17.2642 15.5736 17.3318 15.5736C17.3506 15.5736 17.3686 15.5786 17.3846 15.5882C17.3607 15.5954 17.3428 15.621 17.3428 15.6517C17.3428 15.6877 17.3678 15.7173 17.3985 15.7173C17.4209 15.7173 17.4406 15.7013 17.4492 15.6784C17.4524 15.6914 17.4542 15.7045 17.4542 15.7184ZM16.1962 15.7C16.1962 15.78 16.1414 15.8445 16.0738 15.8445C16.0065 15.8445 15.9514 15.7798 15.9514 15.7C15.9514 15.6202 16.0063 15.5552 16.0738 15.5552C16.0927 15.5552 16.1106 15.5602 16.1266 15.5698C16.1028 15.577 16.0849 15.6026 16.0849 15.6333C16.0849 15.6693 16.1098 15.6989 16.1406 15.6989C16.1631 15.6989 16.1826 15.6829 16.1913 15.66C16.1945 15.673 16.1962 15.6861 16.1962 15.7ZM18.3132 15.8318C18.322 15.8318 18.3305 15.8266 18.334 15.8178C18.41 15.6235 18.2156 15.5085 18.2135 15.5074C18.211 15.5059 18.2082 15.505 18.2053 15.5046C18.2024 15.5042 18.1994 15.5044 18.1966 15.5052C18.1938 15.5059 18.1912 15.5072 18.1888 15.509C18.1865 15.5108 18.1846 15.513 18.1831 15.5155C18.1817 15.5181 18.1807 15.5209 18.1803 15.5238C18.1799 15.5266 18.1801 15.5296 18.1809 15.5324C18.1817 15.5352 18.183 15.5379 18.1847 15.5402C18.1865 15.5425 18.1887 15.5445 18.1913 15.5459C18.198 15.5498 18.3545 15.6432 18.2926 15.8014C18.2881 15.813 18.2937 15.8258 18.3052 15.8302C18.3078 15.8314 18.3106 15.8318 18.3132 15.8318ZM14.9759 15.8338C14.9671 15.8338 14.9586 15.8285 14.9551 15.8197C14.8791 15.6254 15.0735 15.5106 15.0756 15.5093C15.0807 15.5063 15.0868 15.5055 15.0925 15.5071C15.0982 15.5086 15.103 15.5123 15.106 15.5174C15.1089 15.5226 15.1097 15.5286 15.1082 15.5343C15.1067 15.54 15.1029 15.5449 15.0978 15.5478C15.0911 15.5517 14.9346 15.6451 14.9966 15.8034C15.001 15.8149 14.9954 15.8277 14.9839 15.8322C14.9814 15.8333 14.9786 15.8338 14.9759 15.8338ZM16.3564 15.4261C16.3564 15.4261 15.8911 15.4027 15.8442 15.3568C15.7974 15.311 15.943 15.2144 16.1481 15.2662C16.3534 15.3181 16.4097 15.4245 16.3564 15.4261ZM17.0809 15.4261C17.0809 15.4261 17.5462 15.4027 17.593 15.3568C17.6399 15.311 17.4943 15.2144 17.2892 15.2662C17.0839 15.3181 17.0276 15.4245 17.0809 15.4261Z" fill="#33232A"/>
<path id="Vector_35" d="M17.5933 16.4334C17.6066 16.5125 17.5205 16.5928 17.401 16.613C17.2815 16.6331 17.1738 16.5854 17.1605 16.5064C17.1472 16.4275 17.2331 16.347 17.3528 16.3269C17.4722 16.3067 17.5799 16.3546 17.5933 16.4334ZM15.8099 16.4334C15.7967 16.5125 15.8827 16.5928 16.0023 16.613C16.1218 16.6331 16.2295 16.5854 16.2427 16.5064C16.256 16.4275 16.1701 16.347 16.0504 16.3269C15.9311 16.3067 15.8234 16.3546 15.8099 16.4334Z" fill="#EFAC8F"/>
<path id="Vector_36" d="M38.1492 37.4034C38.1492 37.4034 44.386 38.3091 45.1697 29.6846C45.1697 29.6846 36.8306 30.0324 38.1492 37.4034Z" fill="#D3C9CF"/>
<g id="Group" opacity="0.52">
<path id="Vector_37" d="M45.0698 29.7656L43.2106 31.5386C42.5945 32.1319 41.9798 32.7258 41.3809 33.3344C41.0798 33.637 40.782 33.9431 40.4914 34.2552C40.1985 34.5649 39.9128 34.8813 39.6346 35.2043C39.3588 35.5287 39.089 35.8584 38.8446 36.2063C38.5985 36.552 38.3742 36.9179 38.25 37.3293C38.2873 37.1187 38.3492 36.9085 38.4426 36.7139C38.5292 36.5159 38.6332 36.3261 38.7426 36.1399C38.9665 35.7706 39.2193 35.4202 39.4852 35.0815C40.0175 34.4039 40.603 33.7727 41.2047 33.1602C41.8108 32.5515 42.4354 31.9626 43.0802 31.3967C43.723 30.8287 44.3855 30.2831 45.0698 29.7656Z" fill="#EAEFEE"/>
</g>
<path id="Vector_38" d="M43.9476 35.2896C44.0767 34.9863 43.0314 35.1386 42.7543 35.1839C42.9984 34.9514 43.2396 34.7267 43.469 34.5203C43.4928 34.5296 44.4543 34.9004 44.5503 34.6016C44.6456 34.3048 43.5122 34.5117 43.4698 34.5195C43.6621 34.3466 43.846 34.1866 44.0162 34.0455C44.1351 34.0967 45.0719 34.4909 45.101 34.1885C45.1293 33.8928 44.185 34.0143 44.0268 34.0367C44.0653 34.0048 44.1031 33.9739 44.14 33.9442L44.1396 33.9568C44.1396 33.9568 44.1428 33.9496 44.1482 33.9378C44.3157 33.8032 44.4672 33.6907 44.5968 33.6069C44.8586 33.5379 45.9031 33.2344 45.8173 32.8083C45.7375 32.4119 44.9396 33.2003 44.646 33.5069L44.6453 33.5056C44.5191 33.5813 44.3679 33.6898 44.1986 33.8224C44.3344 33.5072 44.6426 32.7491 44.4381 32.8021C44.2261 32.8568 44.1608 33.6024 44.1444 33.8655C43.9594 34.013 43.7546 34.1877 43.5376 34.3807C43.6788 34.0896 43.9693 33.4339 43.7784 33.3274C43.569 33.2104 43.4912 34.1525 43.4725 34.4387C43.2296 34.6565 42.973 34.8951 42.7132 35.1426C42.8311 34.8991 43.3037 33.8834 43.0378 33.7656C42.7596 33.6424 42.6965 34.9563 42.6884 35.1663C42.4626 35.3816 42.2352 35.6031 42.0127 35.8224C42.2016 35.3834 42.6692 34.2272 42.378 34.1719C42.0682 34.1128 41.9666 35.5029 41.9442 35.8901C41.6373 36.1936 41.3412 36.4917 41.0756 36.7623C41.142 36.5781 41.8384 34.6272 41.5687 34.6042C41.2967 34.5808 41.0869 36.609 41.0711 36.7667C40.7984 37.0445 40.5274 37.324 40.2581 37.605C40.3248 37.3751 40.8672 35.4709 40.5349 35.3887C40.1975 35.3053 40.2458 37.4197 40.2509 37.6123C40.0639 37.8077 39.9516 37.9268 39.9453 37.9333L39.9832 37.9776C39.9896 37.9708 40.1136 37.8394 40.3184 37.6256C40.4389 37.6428 41.529 37.7864 41.6808 37.421C41.8308 37.06 40.5064 37.5488 40.3274 37.6163C40.5293 37.4058 40.808 37.1172 41.13 36.7895C41.3952 36.8408 42.4517 37.0229 42.4856 36.6703C42.518 36.3336 41.5117 36.633 41.177 36.7416C41.4133 36.5013 41.672 36.2411 41.9394 35.9762C41.9391 35.9842 41.9388 35.9896 41.9388 35.9896C41.9388 35.9896 41.9426 35.9811 41.9492 35.9664C41.9655 35.9503 41.9813 35.9344 41.9976 35.9183C42.1308 35.953 43.1548 36.2095 43.1682 35.9031C43.1815 35.6032 42.1799 35.8613 42.0085 35.9075C42.2444 35.6746 42.4864 35.4389 42.7261 35.2103C42.9239 35.2845 43.8156 35.6 43.9476 35.2896Z" fill="#EAEFEE"/>
<path id="Vector_39" d="M38.6954 38.2049C38.462 37.9481 38.2223 37.697 37.9766 37.4519C37.9922 37.1465 38.003 36.8468 38.0092 36.553C38.0135 36.5479 38.422 35.3436 38.8257 35.1077C39.2364 34.8636 39.615 35.3996 39.9466 35.4143C40.2846 35.4213 40.2769 34.8429 40.5266 34.8231C40.7823 34.7962 41.0094 35.434 41.2719 35.4292C41.5418 35.4165 41.3556 34.8794 41.8913 34.8628C42.4322 34.842 42.2479 35.2777 42.5703 35.5133C42.8694 35.7701 44.7342 34.6799 44.6636 35.6165C44.5537 36.5853 43.1025 36.3007 42.9962 36.4602C42.8847 36.6212 43.1826 37.0133 42.8198 37.3108C42.4615 37.6023 41.6897 37.0237 41.5908 37.1687C41.4953 37.3089 41.6415 37.5994 41.4316 37.8733C41.2238 38.1444 40.4242 37.5935 40.2694 37.7937C40.1967 37.8871 40.1958 37.9229 40.175 37.9745C40.1695 37.9881 40.1626 38.0028 40.1527 38.0197C40.1209 38.0749 40.0566 38.1562 39.9052 38.3061C39.5292 38.6791 38.697 38.2028 38.6954 38.2049Z" fill="#E2D7DE"/>
<path id="Vector_40" d="M41.3349 36.2889C41.6391 35.8681 41.9464 35.4443 42.2568 35.0171C41.9194 35.4534 41.5864 35.8851 41.2578 36.3123C41.1178 36.3548 40.9765 36.398 40.8311 36.443C40.4843 36.55 40.1544 36.6536 39.8555 36.7467C39.849 36.7488 39.8424 36.7507 39.8359 36.7528C39.8088 36.7614 39.7827 36.7694 39.7562 36.7777C39.8535 36.5478 40.5954 35.0393 40.5939 35.0411C40.4109 35.1811 40.0664 35.9397 39.8599 36.4139C39.7709 36.6187 39.7087 36.7696 39.7007 36.7886C39.7031 36.79 39.7055 36.7913 39.7079 36.7926C39.329 36.9107 39.0091 37.0096 38.7754 37.0816C38.7834 36.912 38.8152 36.0709 39.0037 35.5653C39.0655 35.4021 39.225 35.156 39.2251 35.1556C39.1168 35.2307 39.0349 35.3577 38.9719 35.5134C38.7573 36.0509 38.7375 36.9798 38.7307 37.0952C38.4989 37.1665 38.3637 37.2078 38.3594 37.2096C38.365 37.2254 38.3704 37.2413 38.3759 37.2571C38.3848 37.2541 38.5613 37.2001 38.8536 37.1104C39.2939 37.4036 39.7275 37.7067 40.1543 38.0193C40.1707 37.9932 38.916 37.0846 38.9096 37.0933C39.1578 37.0173 39.4799 36.9174 39.8536 36.8011C40.3792 37.1297 40.8962 37.4718 41.404 37.8273C40.9171 37.465 40.42 37.1166 39.9135 36.7824C40.3205 36.6558 40.7847 36.511 41.2695 36.3636C41.8071 36.6398 42.3391 36.9267 42.8651 37.2243C42.3631 36.9191 41.8542 36.6251 41.3391 36.3425C42.5819 35.9724 44.661 35.5934 44.6707 35.5888C44.1122 35.5084 42.924 35.803 41.3349 36.2889Z" fill="#EAEFEE"/>
<path id="Vector_41" d="M20.9025 38.4077C20.9025 38.4077 21.8082 32.1709 13.1836 31.3872C13.1836 31.3872 13.5314 39.7262 20.9025 38.4077Z" fill="#D3C9CF"/>
<g id="Group_2" opacity="0.52">
<path id="Vector_42" d="M13.2656 31.4858L15.0386 33.345C15.6319 33.9612 16.2258 34.5759 16.8344 35.1748C17.137 35.4759 17.4431 35.7737 17.7552 36.0641C18.065 36.3572 18.3816 36.643 18.7043 36.9209C19.0287 37.1967 19.3584 37.4665 19.7063 37.711C20.052 37.957 20.4179 38.1814 20.8293 38.3055C20.6187 38.2682 20.4085 38.2063 20.2139 38.1129C20.0159 38.0263 19.8261 37.9223 19.6399 37.8129C19.2706 37.589 18.9202 37.3362 18.5815 37.0703C17.9039 36.538 17.2727 35.9526 16.6602 35.3508C16.0515 34.7447 15.4626 34.1201 14.8967 33.4753C14.3287 32.8327 13.7831 32.1702 13.2656 31.4858Z" fill="#EAEFEE"/>
</g>
<path id="Vector_43" d="M18.7857 32.6064C18.4825 32.4772 18.6347 33.5225 18.68 33.7995C18.4475 33.5553 18.2228 33.3142 18.0164 33.0848C18.0257 33.0609 18.3966 32.0995 18.0977 32.0035C17.8009 31.9081 18.0078 33.0416 18.0156 33.084C17.8427 32.8916 17.6827 32.7078 17.5416 32.5376C17.5928 32.4187 17.987 31.4819 17.6846 31.4528C17.3889 31.4244 17.5104 32.3688 17.5328 32.527C17.5009 32.4884 17.47 32.4507 17.4403 32.4137L17.4529 32.4142C17.4529 32.4142 17.4457 32.411 17.4339 32.4056C17.2993 32.238 17.1868 32.0865 17.103 31.9569C17.034 31.6952 16.7305 30.6507 16.3044 30.7364C15.908 30.8163 16.6964 31.6142 17.003 31.9078L17.0017 31.9083C17.0774 32.0345 17.1859 32.1857 17.3185 32.355C17.0033 32.2192 16.2452 31.911 16.2982 32.1155C16.3529 32.3275 17.0985 32.3928 17.3616 32.4092C17.5091 32.5942 17.6838 32.799 17.8768 33.016C17.5857 32.8748 16.93 32.5843 16.8235 32.7752C16.7065 32.9846 17.6486 33.0624 17.9348 33.0811C18.1526 33.324 18.3912 33.5806 18.6387 33.8404C18.3952 33.7225 17.3795 33.2499 17.2617 33.5158C17.1385 33.794 18.4524 33.8571 18.6624 33.8652C18.8777 34.091 19.0992 34.3184 19.3185 34.5409C18.8795 34.352 17.7233 33.8844 17.668 34.1756C17.6089 34.4854 18.999 34.5872 19.3862 34.6094C19.6897 34.9163 19.9878 35.2124 20.2584 35.478C20.0742 35.4116 18.1233 34.7152 18.1003 34.9849C18.0769 35.2569 20.1051 35.4667 20.2628 35.4825C20.5992 35.8128 20.8926 36.0958 21.1011 36.2955C20.8712 36.2288 18.967 35.6864 18.8848 36.0187C18.8014 36.3561 20.9158 36.3078 21.1084 36.3027C21.3038 36.4897 21.4228 36.602 21.4294 36.6083L21.4737 36.5704C21.4668 36.564 21.3355 36.44 21.1217 36.2352C21.1388 36.1147 21.2825 35.0246 20.9171 34.8728C20.5561 34.7228 21.0449 36.0472 21.1124 36.2262C20.9019 36.0243 20.6132 35.7456 20.2856 35.4236C20.3369 35.1584 20.519 34.1019 20.1664 34.0681C19.8297 34.0358 20.1291 35.042 20.2377 35.3768C19.981 35.1243 19.7258 34.8701 19.4723 34.6144C19.4803 34.6147 19.4857 34.615 19.4857 34.615C19.4857 34.615 19.4772 34.6112 19.4625 34.6044C19.4464 34.5881 19.4305 34.5723 19.4144 34.556C19.4491 34.4228 19.7056 33.3988 19.3992 33.3854C19.0993 33.3721 19.3574 34.3737 19.4036 34.5451C19.1707 34.3092 18.935 34.0673 18.7064 33.8275C18.7806 33.63 19.0961 32.7384 18.7857 32.6064Z" fill="#EAEFEE"/>
<path id="Vector_44" d="M21.7029 37.8612C21.4461 38.0947 21.195 38.3344 20.9499 38.5801C20.6445 38.5644 20.3448 38.5537 20.0511 38.5475C20.0459 38.5433 18.8416 38.1347 18.6058 37.731C18.3616 37.3203 18.8976 36.9417 18.9123 36.61C18.9194 36.2721 18.341 36.2798 18.3211 36.03C18.2943 35.7743 18.932 35.5473 18.9272 35.2847C18.9146 35.0148 18.3775 35.2011 18.3608 34.6654C18.34 34.1244 18.7757 34.3087 19.0114 33.9863C19.2682 33.6873 18.1779 31.8225 19.1146 31.8931C20.0834 32.003 19.7987 33.4542 19.9581 33.5603C20.1191 33.6718 20.5112 33.3739 20.8087 33.7367C21.1002 34.095 20.5216 34.8668 20.6666 34.9657C20.8067 35.0612 21.0973 34.915 21.3712 35.1249C21.6423 35.3327 21.0914 36.1323 21.2915 36.2871C21.385 36.3598 21.4208 36.3607 21.4723 36.3815C21.4859 36.387 21.5007 36.3939 21.5176 36.4038C21.5728 36.4356 21.6541 36.4999 21.804 36.6513C22.1771 37.0275 21.7008 37.8596 21.7029 37.8612Z" fill="#E2D7DE"/>
<path id="Vector_45" d="M19.7875 35.2234C19.3667 34.9192 18.9428 34.6119 18.5156 34.3015C18.9519 34.6389 19.3836 34.9719 19.8108 35.3005C19.8534 35.4405 19.8966 35.5818 19.9415 35.7272C20.0486 36.0739 20.1521 36.4039 20.2452 36.7027C20.2473 36.7093 20.2492 36.7159 20.2513 36.7224C20.2599 36.7495 20.2679 36.7755 20.2763 36.8021C20.0463 36.7048 18.5379 35.9629 18.5396 35.9643C18.6796 36.1474 19.4382 36.4919 19.9124 36.6984C20.1172 36.7874 20.2681 36.8496 20.2871 36.8576C20.2886 36.8551 20.2899 36.8528 20.2911 36.8504C20.4092 37.2293 20.5081 37.5491 20.5801 37.7829C20.4105 37.7749 19.5694 37.7431 19.0638 37.5546C18.9006 37.4928 18.6545 37.3333 18.6542 37.3331C18.7292 37.4415 18.8563 37.5234 19.0119 37.5864C19.5494 37.801 20.4783 37.8208 20.5937 37.8275C20.6651 38.0594 20.7063 38.1946 20.7081 38.1991C20.7239 38.1935 20.7398 38.188 20.7556 38.1826C20.7526 38.1736 20.6987 37.9971 20.6089 37.7048C20.9022 37.2645 21.2052 36.8309 21.5179 36.4042C21.4918 36.3877 20.5831 37.6424 20.5918 37.6488C20.5158 37.4007 20.4159 37.0786 20.2996 36.7048C20.6283 36.1792 20.9703 35.6623 21.3259 35.1544C20.9636 35.6413 20.6151 36.1384 20.2809 36.645C20.1543 36.2379 20.0095 35.7738 19.8622 35.289C20.1383 34.7513 20.4252 34.2193 20.7228 33.6933C20.4176 34.1954 20.1236 34.7042 19.8411 35.2194C19.471 33.9765 19.0919 31.8975 19.0873 31.8877C19.0068 32.4461 19.3014 33.6344 19.7875 35.2234Z" fill="#EAEFEE"/>
<path id="Vector_46" opacity="0.55" d="M16.3242 9.61719H13.7618V8.59223H16.3242V9.61719Z" fill="#EAEFEE"/>
<path id="Vector_47" opacity="0.31" d="M14.9492 8.59424H12.3868V7.56928H14.9492V8.59424Z" fill="#EAEFEE"/>
<path id="Vector_48" opacity="0.5" d="M13.7461 7.56445H11.1837V6.53949H13.7461V7.56445Z" fill="#EAEFEE"/>
<path id="Vector_49" opacity="0.35" d="M16.3203 7.56738H13.7579V6.54242H16.3203V7.56738Z" fill="#EAEFEE"/>
<path id="Vector_50" opacity="0.55" d="M48.0117 28.2246H50.5741V29.2496H48.0117V28.2246Z" fill="#EAEFEE"/>
<path id="Vector_51" opacity="0.31" d="M49.3828 29.25H51.9452V30.275H49.3828V29.25Z" fill="#EAEFEE"/>
<path id="Vector_52" opacity="0.5" d="M50.5859 30.2812H53.1483V31.3062H50.5859V30.2812Z" fill="#EAEFEE"/>
<path id="Vector_53" opacity="0.35" d="M48.0117 30.2744H50.5741V31.2994H48.0117V30.2744Z" fill="#EAEFEE"/>
<path id="Vector_54" d="M40.4983 19.0475C40.4983 19.0475 40.3567 19.0817 40.3047 19.2837C40.2527 19.4856 40.2564 19.8025 40.1522 19.8334C40.0481 19.8643 39.8295 19.2139 39.8534 18.9331C39.8774 18.6523 40.3694 18.9496 40.4983 19.0475Z" fill="#EFAC8F"/>
<path id="Vector_55" d="M19.625 16.2117C19.625 16.2117 19.9404 16.9866 20.1496 16.9658C20.3589 16.9448 20.0712 16.2117 20.0712 16.2117H19.625Z" fill="#F4AF90"/>
<path id="Vector_56" d="M20 40.9338V8.59844C20 8.31108 20.233 8.07812 20.5203 8.07812H39.5414C39.8288 8.07812 40.0618 8.31108 40.0618 8.59844V40.9338C40.0618 41.2212 39.8288 41.4541 39.5414 41.4541H20.5202C20.233 41.454 20 41.221 20 40.9338Z" fill="#13277E"/>
<path id="Vector_57" d="M40.4976 19.0474C40.4976 19.0474 39.317 19.0999 39.2758 18.8242C39.2566 18.6954 39.3104 18.637 39.7027 18.608C39.2219 18.626 39.2238 18.5551 39.2689 18.4109C39.3037 18.3 39.348 18.2925 39.7369 18.2482C39.4675 18.2543 39.3211 18.2276 39.3046 18.1111C39.2838 17.9628 39.3944 17.9084 39.767 17.9023C39.545 17.8908 39.4114 17.8693 39.4126 17.7616C39.4138 17.6664 39.4915 17.5791 39.7329 17.5647C40.0061 17.5484 39.9971 17.509 40.1218 17.5319C40.2179 17.5495 40.3195 17.5572 40.3901 17.6095C40.7299 17.8615 40.7035 18.9397 40.4976 19.0474Z" fill="#FFBF9F"/>
<path id="Vector_58" d="M39.9939 18.5877C39.8022 18.5807 39.5568 18.6052 39.5446 18.6063C39.5364 18.6071 39.5305 18.6143 39.5313 18.6224C39.5321 18.6306 39.5393 18.6365 39.5475 18.6357C39.551 18.6354 39.9012 18.6004 40.0897 18.6247C40.0917 18.625 40.0936 18.6249 40.0955 18.6244C40.0974 18.6239 40.0992 18.623 40.1007 18.6218C40.1022 18.6206 40.1035 18.6191 40.1045 18.6174C40.1054 18.6157 40.106 18.6138 40.1062 18.6119C40.1065 18.61 40.1063 18.608 40.1058 18.6061C40.1053 18.6042 40.1044 18.6025 40.1032 18.601C40.1021 18.5994 40.1006 18.5981 40.0989 18.5972C40.0972 18.5962 40.0953 18.5956 40.0934 18.5954C40.0635 18.5914 40.0296 18.589 39.9939 18.5877ZM39.9478 18.2335C39.7774 18.2272 39.5966 18.2394 39.5944 18.2396C39.5862 18.24 39.5801 18.2472 39.5806 18.2552C39.5811 18.2634 39.588 18.2695 39.5963 18.269C39.5992 18.2688 39.8929 18.249 40.0817 18.2733C40.09 18.2743 40.0972 18.2687 40.0982 18.2605C40.0985 18.2586 40.0983 18.2566 40.0978 18.2548C40.0973 18.2529 40.0964 18.2511 40.0952 18.2496C40.0941 18.2481 40.0926 18.2468 40.0909 18.2458C40.0892 18.2449 40.0873 18.2443 40.0854 18.244C40.0433 18.2384 39.996 18.2352 39.9478 18.2335ZM39.9422 17.8821C39.7774 17.876 39.6092 17.8887 39.6072 17.8888C39.6052 17.889 39.6033 17.8895 39.6016 17.8904C39.5999 17.8912 39.5983 17.8925 39.5971 17.8939C39.5958 17.8954 39.5948 17.8971 39.5942 17.899C39.5936 17.9008 39.5934 17.9027 39.5936 17.9047C39.5942 17.9128 39.6014 17.9191 39.6094 17.9183C39.6121 17.9181 39.8851 17.8976 40.0736 17.9218C40.0817 17.9228 40.0891 17.9172 40.09 17.909C40.0903 17.9071 40.0902 17.9051 40.0897 17.9032C40.0891 17.9014 40.0883 17.8996 40.0871 17.8981C40.0859 17.8965 40.0844 17.8953 40.0827 17.8943C40.081 17.8934 40.0792 17.8927 40.0772 17.8925C40.0352 17.8871 39.9888 17.8839 39.9422 17.8821ZM40.4211 17.8028C40.4179 17.8026 40.4148 17.8035 40.4123 17.8053C40.4107 17.8064 40.4093 17.8078 40.4082 17.8094C40.4071 17.811 40.4064 17.8128 40.406 17.8147C40.4057 17.8166 40.4057 17.8186 40.406 17.8205C40.4064 17.8224 40.4072 17.8242 40.4083 17.8258C40.5931 18.1008 40.4678 18.3343 40.4665 18.3367C40.4646 18.3404 40.4641 18.3445 40.4654 18.3485C40.5443 18.5845 40.4064 18.7762 40.4049 18.7781C40.4001 18.7847 40.4016 18.794 40.4081 18.7988C40.4147 18.8036 40.424 18.8021 40.4288 18.7956C40.4348 18.7874 40.5752 18.593 40.4955 18.3448C40.5145 18.3052 40.611 18.0741 40.4329 17.8092C40.4316 17.8072 40.4298 17.8057 40.4278 17.8045C40.4257 17.8034 40.4234 17.8028 40.4211 17.8028Z" fill="#EFAC8F"/>
<path id="Vector_59" d="M38.8025 40.5573H21.2549C21.0558 40.5573 20.8945 40.3961 20.8945 40.197V9.33542C20.8945 9.13638 21.0558 8.9751 21.2549 8.9751H38.8025C39.0016 8.9751 39.1629 9.13638 39.1629 9.33542V40.1972C39.1629 40.3961 39.0014 40.5573 38.8025 40.5573Z" fill="#2B8AFC"/>
<path id="Vector_60" d="M33.834 42.2925L33.2891 42.1934L34.539 35.3193L35.3071 35.459L33.834 42.2925ZM39.6475 42.2925L40.1926 42.1934L38.9425 35.3193L38.1743 35.459L39.6475 42.2925Z" fill="#13277E"/>
<path id="Vector_61" opacity="0.2" d="M38.9116 37.7321C38.9182 37.6179 38.8729 37.5113 38.8323 37.4073C38.7907 37.3011 38.756 37.1947 38.7526 37.0798C38.747 36.8904 38.7702 36.6949 38.8614 36.5261C38.9222 36.4136 39.0113 36.3246 39.1115 36.2489L38.9424 35.3195L38.1744 35.4592L38.7571 38.1625C38.8388 38.0323 38.903 37.8825 38.9116 37.7321ZM34.7068 36.5984C34.8112 36.7633 34.8888 36.944 34.9465 37.1312L35.307 35.459L34.539 35.3193L34.375 36.2211C34.5057 36.3278 34.6163 36.4553 34.7068 36.5984Z" fill="#33232A"/>
<path id="Vector_62" d="M34.0078 34.8159H39.3969V35.8233H34.0078V34.8159Z" fill="#D6980D"/>
<path id="Vector_63" d="M32.5207 35.0677C32.5207 35.0677 37.6076 36.1757 39.7734 35.0677C41.9391 33.9597 41.8383 26.6566 41.1836 26.1529C40.5289 25.6493 39.0178 30.9376 38.9676 32.7005C38.9674 32.7005 29.7506 33.456 32.5207 35.0677ZM24.8618 19.1827C24.881 19.1323 24.8906 19.0707 24.8906 18.9982V18.9129C24.8906 18.7237 24.9212 18.4366 24.9826 18.0518C25.0401 17.6576 25.0689 17.3611 25.0689 17.1624V16.8169C25.0689 16.6529 25.0938 16.5078 25.1436 16.3817V16.3581C25.1551 16.3233 25.1609 16.2824 25.1609 16.235V16.1641C25.1609 16.1294 25.1474 16.1025 25.1206 16.0837C25.0937 16.0648 25.0574 16.0553 25.0113 16.0553C24.8962 16.0553 24.8388 16.0931 24.8388 16.1689C24.8388 16.1942 24.8446 16.2209 24.8561 16.2493C24.8561 16.3408 24.8426 16.459 24.8158 16.6041C24.785 16.7461 24.7698 16.8661 24.7698 16.9637C24.7698 17.5819 24.7334 18.1024 24.6606 18.5249C24.6298 18.3357 24.6031 18.1323 24.5801 17.9147C24.5494 17.6307 24.514 17.3841 24.4737 17.1742C24.4335 16.9645 24.3826 16.7713 24.3214 16.5947V16.5569C24.3214 16.5192 24.305 16.4899 24.2726 16.4694C24.2399 16.4489 24.1986 16.4387 24.1489 16.4387L23.9937 16.4955C23.9937 16.7321 23.9802 16.9718 23.9534 17.2147C23.9342 17.4323 23.9102 17.635 23.8815 17.8227C23.8527 18.0104 23.8191 18.2099 23.7809 18.4213L23.7521 18.5821C23.7406 18.3677 23.6946 18.0253 23.614 17.5553C23.5335 17.0822 23.4934 16.7227 23.4934 16.4766C23.4934 16.2685 23.4319 16.1645 23.3094 16.1645C23.2327 16.1645 23.177 16.1928 23.1426 16.2496C23.1809 16.3158 23.2135 16.4657 23.2404 16.6992C23.2748 16.98 23.3017 17.2432 23.3209 17.4893C23.3554 17.8678 23.3889 18.1808 23.4215 18.4285C23.454 18.6761 23.4953 18.8835 23.5452 19.0505C23.6028 19.2398 23.6697 19.3345 23.7465 19.3345C23.8385 19.3345 23.9209 19.1816 23.9937 18.8755C24.0588 18.6011 24.1066 18.3189 24.1374 18.0286C24.1681 17.7384 24.1834 17.5049 24.1834 17.3283C24.1834 17.24 24.1911 17.1502 24.2065 17.0585L24.2985 17.5553C24.3367 17.7416 24.3732 17.9261 24.4078 18.1089C24.4729 18.5158 24.5055 18.847 24.5055 19.1025C24.5055 19.1531 24.5218 19.1949 24.5545 19.228C24.587 19.2611 24.634 19.2776 24.6953 19.2776C24.7833 19.2773 24.8388 19.2457 24.8618 19.1827ZM25.822 18.227L25.8335 18.5297C25.845 18.6654 25.8508 18.7664 25.8508 18.8326C25.8508 18.8704 25.8527 18.9035 25.8566 18.932V19.1497C25.8604 19.1907 25.8825 19.2254 25.9226 19.2537C25.9628 19.2821 26.0079 19.2963 26.0578 19.2963H26.5466C26.6156 19.2963 26.674 19.2845 26.722 19.2608C26.7698 19.2371 26.7938 19.2032 26.7938 19.1592C26.7938 19.0835 26.7209 19.0456 26.5753 19.0456C26.4833 19.0456 26.4047 19.0472 26.3396 19.0504L26.1498 19.0552C26.1422 19.0552 26.1383 18.9669 26.1383 18.7902C26.1383 18.6955 26.1441 18.5521 26.1556 18.3597C26.1594 18.2336 26.1614 18.0917 26.1614 17.9339C26.1614 17.7763 26.1575 17.6563 26.1498 17.5744H26.2935C26.3318 17.5808 26.3855 17.5838 26.4545 17.5838C26.5081 17.5838 26.5522 17.572 26.5868 17.5483C26.6214 17.5246 26.6386 17.4955 26.6386 17.4608C26.6386 17.3725 26.5466 17.3283 26.3626 17.3283C26.3166 17.3283 26.2783 17.3299 26.2476 17.3331L26.1556 17.3379L26.1383 17.2622C26.1383 17.1865 26.1441 17.0729 26.1556 16.9216C26.1594 16.8206 26.1614 16.7072 26.1614 16.5809C26.1614 16.4926 26.1594 16.4248 26.1556 16.3776C26.2858 16.3934 26.4316 16.4249 26.5926 16.4721C26.6386 16.4565 26.6778 16.4352 26.7105 16.4083C26.743 16.3816 26.7594 16.3523 26.7594 16.3208C26.7594 16.264 26.6761 16.215 26.5092 16.1741C26.3425 16.1331 26.1959 16.1125 26.0694 16.1125C25.9084 16.1125 25.8278 16.2245 25.8278 16.4485C25.8278 16.4896 25.8335 16.5558 25.845 16.6472C25.8566 16.7355 25.8623 16.8017 25.8623 16.8459C25.8623 17.0321 25.8546 17.2624 25.8393 17.5366C25.8278 17.8422 25.822 18.0725 25.822 18.227ZM30.0196 18.5014C30.1385 18.1766 30.2534 17.8233 30.3646 17.4416C30.4758 17.0473 30.539 16.8297 30.5543 16.7886C30.5543 16.896 30.5505 16.9921 30.5428 17.0773L30.5313 17.3705C30.5313 17.4779 30.5465 17.675 30.5772 17.9619C30.6041 18.2174 30.6175 18.424 30.6175 18.5817V19.1873C30.6175 19.3829 30.6769 19.4806 30.7958 19.4806C30.8494 19.4806 30.8954 19.4601 30.9338 19.4192C30.9721 19.3781 30.9913 19.3309 30.9913 19.2773C30.9913 19.2584 30.9817 19.2285 30.9625 19.1873C30.9625 19.1841 30.9615 19.1747 30.9596 19.159C30.9577 19.1432 30.9548 19.1211 30.951 19.0928L30.9337 18.9272C30.9222 18.8515 30.9164 18.7947 30.9164 18.7568L30.9279 18.5061L30.9337 18.2553C30.9337 18.0219 30.9202 17.6939 30.8934 17.2712C30.8703 16.8169 30.8588 16.4763 30.8588 16.2491C30.8588 16.2113 30.8367 16.1805 30.7926 16.1569C30.7484 16.1333 30.6996 16.1214 30.646 16.1214C30.5886 16.1214 30.5252 16.1877 30.4562 16.3201C30.3873 16.443 30.3162 16.6134 30.2434 16.831C30.1207 17.1875 29.998 17.5865 29.8754 18.0281L29.841 18.1416C29.8218 18.2142 29.7969 18.2929 29.7663 18.3781C29.7279 18.211 29.6417 17.9397 29.5076 17.5643C29.3734 17.1889 29.2393 16.8531 29.105 16.5566C28.9708 16.2601 28.8788 16.1118 28.829 16.1118C28.7676 16.1118 28.715 16.1222 28.671 16.1427C28.6268 16.1632 28.6049 16.1923 28.6049 16.2302C28.6049 16.2619 28.6164 16.2917 28.6394 16.3201C28.6394 16.6417 28.6108 17.1245 28.5532 17.7678C28.4958 18.4113 28.467 18.8939 28.467 19.2157C28.467 19.244 28.4842 19.2701 28.5188 19.2937C28.5532 19.3174 28.5897 19.3293 28.6281 19.3293C28.7009 19.3293 28.7506 19.3158 28.7775 19.2889C28.8042 19.2621 28.8178 19.2219 28.8178 19.1683V19.1021C28.814 19.0801 28.8121 19.0565 28.8121 19.0312C28.8121 18.924 28.8159 18.7253 28.8236 18.435C28.8351 18.1353 28.8561 17.7601 28.8868 17.3089L28.9214 16.7742C29.0326 17.0613 29.1561 17.4304 29.2922 17.8814C29.4282 18.3325 29.4964 18.6273 29.4964 18.7662C29.4964 18.8293 29.5185 18.879 29.5626 18.9152C29.6066 18.9515 29.6652 18.9696 29.738 18.9696C29.8106 18.9697 29.9046 18.8136 30.0196 18.5014ZM33.1361 17.4273V17.3896C33.1361 17.2414 33.1246 17.1009 33.1015 16.9685C33.0785 16.8392 33.0402 16.7169 32.9865 16.6017C32.9327 16.4867 32.8676 16.3896 32.791 16.3107C32.7066 16.2288 32.6031 16.1649 32.4804 16.119C32.3577 16.0734 32.2198 16.0504 32.0663 16.0504C32.0126 16.0504 31.9647 16.0669 31.9226 16.1C31.8804 16.1331 31.846 16.1813 31.8191 16.2443C31.7502 16.3862 31.706 16.5329 31.6868 16.6843C31.6599 16.9051 31.6446 17.0661 31.6409 17.1669L31.6351 17.4981V17.5832C31.6388 17.5832 31.6409 17.5912 31.6409 17.6069V17.6921C31.637 17.7174 31.6351 17.7489 31.6351 17.7867C31.6351 17.9854 31.6524 18.1921 31.6868 18.4065C31.7135 18.6336 31.7826 18.8433 31.8938 19.0358C31.9474 19.1241 32.0166 19.1944 32.1009 19.2464C32.1852 19.2984 32.2772 19.3245 32.3769 19.3245C32.8905 19.3245 33.1474 18.8702 33.1474 17.9619L33.1417 17.6923C33.138 17.6134 33.1361 17.5251 33.1361 17.4273ZM32.8084 18.3499C32.793 18.5361 32.7489 18.7094 32.6761 18.8704C32.6454 18.9493 32.6014 19.0115 32.5439 19.0573C32.4863 19.103 32.4231 19.1259 32.3542 19.1259C32.2353 19.1259 32.1452 19.0093 32.0839 18.7758C32.0226 18.5518 31.9842 18.3216 31.9689 18.0851C31.9574 17.9179 31.9516 17.7491 31.9516 17.5789C31.9516 17.5 31.9554 17.4275 31.9631 17.3613L31.9746 17.1437V17.0158C31.9708 16.9749 31.9689 16.9245 31.9689 16.8645C31.9689 16.7099 31.9881 16.5838 32.0263 16.4859C32.0684 16.363 32.1546 16.3014 32.285 16.3014C32.4153 16.3014 32.5255 16.3456 32.6158 16.4339C32.7058 16.5222 32.7546 16.6264 32.7625 16.7462V16.8313C32.7625 16.9512 32.774 17.1326 32.797 17.3755C32.8238 17.6059 32.8372 17.7918 32.8372 17.9337C32.837 18.0504 32.8274 18.1891 32.8084 18.3499ZM34.9214 17.3043C34.9386 17.2254 34.974 17.1072 35.0278 16.9494C35.0929 16.7665 35.1418 16.6096 35.1745 16.4785C35.207 16.3477 35.2233 16.2254 35.2233 16.1118C35.2233 16.0835 35.2098 16.059 35.1831 16.0385C35.1562 16.0181 35.1257 16.0078 35.0911 16.0078H34.9646C34.9223 16.2129 34.8495 16.5961 34.746 17.1576C34.6194 17.8137 34.5159 18.3152 34.4354 18.6622C34.4239 18.6118 34.4105 18.5281 34.3953 18.4115L34.3263 17.9904L34.2918 17.8059C34.2265 17.4337 34.171 17.1577 34.125 16.9779C34.0751 16.7886 34.0292 16.6301 33.987 16.5024C33.9447 16.3745 33.8988 16.2728 33.8489 16.1971C33.7991 16.1182 33.7454 16.0789 33.6879 16.0789C33.6534 16.0789 33.6217 16.0901 33.593 16.112C33.5642 16.1341 33.5498 16.1593 33.5498 16.1877C33.5498 16.235 33.5844 16.347 33.6534 16.5237C33.6801 16.5899 33.6974 16.6389 33.7052 16.6702C33.8815 17.2318 34.0108 17.7064 34.0934 18.0944C34.1758 18.4824 34.217 18.8577 34.217 19.2205L34.3263 19.2913C34.4145 19.2913 34.493 19.2393 34.562 19.1352C34.631 19.0312 34.6865 18.8877 34.7287 18.7046C34.7938 18.4019 34.8417 18.0597 34.8724 17.6779C34.8878 17.5078 34.9042 17.3832 34.9214 17.3043ZM35.8271 18.227L35.8386 18.5297C35.8502 18.6654 35.8559 18.7664 35.8559 18.8326C35.8559 18.8704 35.8578 18.9035 35.8617 18.932V19.1497C35.8655 19.1907 35.8876 19.2254 35.9278 19.2537C35.9681 19.2821 36.013 19.2963 36.063 19.2963H36.5518C36.6207 19.2963 36.6791 19.2845 36.7271 19.2608C36.775 19.2371 36.799 19.2032 36.799 19.1592C36.799 19.0835 36.726 19.0456 36.5804 19.0456C36.4884 19.0456 36.4098 19.0472 36.3447 19.0504L36.155 19.0552C36.1473 19.0552 36.1434 18.9669 36.1434 18.7902C36.1434 18.6955 36.1492 18.5521 36.1607 18.3597C36.1646 18.2336 36.1665 18.0917 36.1665 17.9339C36.1665 17.7763 36.1626 17.6563 36.155 17.5744H36.2986C36.3369 17.5808 36.3906 17.5838 36.4596 17.5838C36.5132 17.5838 36.5574 17.572 36.5918 17.5483C36.6262 17.5246 36.6434 17.4955 36.6434 17.4608C36.6434 17.3725 36.5514 17.3283 36.3674 17.3283C36.3214 17.3283 36.2831 17.3299 36.2524 17.3331L36.1604 17.3379L36.1431 17.2622C36.1431 17.1865 36.1489 17.0729 36.1604 16.9216C36.1642 16.8206 36.1662 16.7072 36.1662 16.5809C36.1662 16.4926 36.1642 16.4248 36.1604 16.3776C36.2906 16.3934 36.4364 16.4249 36.5974 16.4721C36.6434 16.4565 36.6826 16.4352 36.7153 16.4083C36.7478 16.3816 36.7642 16.3523 36.7642 16.3208C36.7642 16.264 36.6809 16.215 36.514 16.1741C36.3473 16.1331 36.2007 16.1125 36.0742 16.1125C35.9132 16.1125 35.8326 16.2245 35.8326 16.4485C35.8326 16.4896 35.8383 16.5558 35.8498 16.6472C35.8614 16.7355 35.8671 16.8017 35.8671 16.8459C35.8671 17.0321 35.8594 17.2624 35.8441 17.5366C35.8327 17.8422 35.8271 18.0725 35.8271 18.227ZM23.9878 21.8133H23.8958C23.7807 21.8133 23.6503 21.8054 23.5047 21.7896C23.3514 21.7771 23.221 21.7707 23.1137 21.7707C23.0714 21.7707 23.0303 21.7811 22.99 21.8014C22.9497 21.8221 22.9297 21.8448 22.9297 21.8701C22.9297 21.9016 22.9506 21.9299 22.9929 21.9552C23.0542 21.9869 23.1961 22.0057 23.4185 22.012C23.4262 22.1981 23.4529 22.6192 23.499 23.2752C23.545 23.9313 23.5737 24.2768 23.5852 24.3113L23.5794 24.4723C23.5794 24.5385 23.5814 24.5985 23.5852 24.6521L23.591 24.8366L23.6945 24.8981C23.7442 24.8981 23.7894 24.8838 23.8297 24.8555C23.87 24.8272 23.89 24.7939 23.89 24.7561C23.89 24.4376 23.8593 23.9897 23.798 23.4125C23.7327 22.7974 23.7002 22.3496 23.7002 22.0688L23.706 22.0451L23.7118 22.0214L23.8268 22.0403C23.8919 22.0497 23.9418 22.0545 23.9762 22.0545C24.026 22.0545 24.0702 22.0427 24.1086 22.019C24.1468 21.9953 24.166 21.9646 24.166 21.9267C24.1662 21.8512 24.1066 21.8133 23.9878 21.8133ZM26.1844 23.6395L26.1786 23.3699C26.1748 23.291 26.1729 23.2027 26.1729 23.1049V23.0672C26.1729 22.919 26.1614 22.7785 26.1383 22.6461C26.1153 22.5168 26.077 22.3945 26.0233 22.2793C25.9695 22.1643 25.9044 22.0672 25.8278 21.9883C25.7434 21.9064 25.6399 21.8425 25.5172 21.7966C25.3945 21.751 25.2566 21.728 25.1031 21.728C25.0494 21.728 25.0015 21.7445 24.9593 21.7776C24.917 21.8107 24.8826 21.8589 24.8558 21.9219C24.7868 22.0638 24.7426 22.2105 24.7234 22.3619C24.6966 22.5827 24.6812 22.7437 24.6775 22.8445L24.6718 23.1757V23.2608C24.6756 23.2608 24.6775 23.2688 24.6775 23.2845V23.3697C24.6737 23.395 24.6718 23.4265 24.6718 23.4643C24.6718 23.663 24.689 23.8697 24.7234 24.0841C24.7503 24.3112 24.8193 24.5209 24.9305 24.7134C24.9841 24.8017 25.0532 24.872 25.1375 24.924C25.2218 24.976 25.3138 25.0021 25.4135 25.0021C25.9274 25.0021 26.1844 24.548 26.1844 23.6395ZM25.845 24.0275C25.8297 24.2137 25.7855 24.387 25.7127 24.548C25.682 24.6269 25.638 24.6891 25.5804 24.7349C25.5228 24.7806 25.4596 24.8035 25.3906 24.8035C25.2718 24.8035 25.1817 24.6869 25.1204 24.4534C25.0591 24.2294 25.0207 23.9992 25.0054 23.7625C24.9938 23.5953 24.9881 23.4265 24.9881 23.2563C24.9881 23.1774 24.9919 23.1049 24.9996 23.0387L25.0111 22.8211V22.6933C25.0073 22.6523 25.0054 22.6019 25.0054 22.5419C25.0054 22.3873 25.0246 22.2613 25.0628 22.1633C25.1049 22.0403 25.1911 21.9789 25.3215 21.9789C25.4518 21.9789 25.562 22.023 25.6522 22.1113C25.7423 22.1997 25.7911 22.3038 25.799 22.4237V22.5088C25.799 22.6286 25.8105 22.8101 25.8335 23.0529C25.8602 23.2833 25.8738 23.4693 25.8738 23.6112C25.8738 23.7278 25.8642 23.8665 25.845 24.0275ZM27.6391 24.9005C27.6774 24.9241 27.7196 24.936 27.7657 24.936C27.8154 24.936 27.8538 24.9217 27.8807 24.8934C27.9305 24.843 27.967 24.7405 27.99 24.5859C28.0322 24.3653 28.0647 24.2185 28.0878 24.1459L28.657 24.2168L28.6801 24.3161C28.7183 24.5432 28.7377 24.7041 28.7377 24.7987C28.7377 24.8587 28.7586 24.8997 28.8009 24.9217C28.843 24.9438 28.9082 24.9549 28.9964 24.9549C29.0577 24.936 29.0884 24.8918 29.0884 24.8224V24.8176C29.0884 24.7736 29.0711 24.6757 29.0367 24.5243C28.9983 24.3571 28.9793 24.2625 28.9793 24.2403C28.9793 24.2184 28.9697 24.171 28.9505 24.0984C28.9313 24.0195 28.9217 23.9705 28.9217 23.9517C28.9217 23.7561 28.8833 23.4155 28.8066 22.9296C28.7262 22.4565 28.686 22.1 28.686 21.8603C28.686 21.8225 28.6668 21.7933 28.6286 21.7728C28.5902 21.7523 28.5442 21.7421 28.4905 21.7421H28.295C28.2642 21.7768 28.2423 21.8288 28.2289 21.8982C28.2154 21.9677 28.203 22.0606 28.1914 22.1773C28.1876 22.2341 28.1838 22.2774 28.1799 22.3073C28.1761 22.3374 28.1742 22.3587 28.1742 22.3713C28.0438 23.1598 27.8522 23.9595 27.5991 24.7701L27.5934 24.7889L27.5818 24.8126C27.5815 24.8477 27.6007 24.8768 27.6391 24.9005ZM28.4498 22.2912L28.5073 22.7833C28.5686 23.2249 28.5993 23.5877 28.5993 23.8715C28.5993 23.9409 28.605 23.9993 28.6166 24.0465C28.3367 24.0277 28.1681 24.0024 28.1105 23.9709C28.1718 23.5923 28.285 23.0323 28.4498 22.2912ZM31.9252 24.716L31.9634 24.8157C31.9794 24.8821 32.005 24.9302 32.0414 24.9625C32.0812 24.9981 32.1361 25.016 32.2046 25.016C32.2294 25.016 32.2758 25.0112 32.4314 24.976L32.4639 24.9686L32.4838 24.9419C32.5313 24.8777 32.587 24.7077 32.6391 23.9342C32.6774 23.3678 32.7006 22.8345 32.7084 22.3478V21.9931C32.7084 21.9184 32.687 21.8547 32.6446 21.8033C32.6126 21.7648 32.5532 21.7189 32.4519 21.7189C32.3094 21.7189 32.2242 21.8054 32.2242 21.9504C32.2242 21.9749 32.2262 21.9984 32.23 22.0203V22.0734C32.23 22.8222 32.2042 23.4971 32.1534 24.0854C32.1332 24.0283 32.1114 23.9664 32.0884 23.8993L32.0308 23.7285C31.8892 23.3161 31.7737 22.9934 31.6874 22.7697C31.6006 22.5441 31.5014 22.3259 31.3926 22.1211C31.2535 21.8598 31.1377 21.7269 31.0236 21.7001V21.6051L30.8868 21.6896C30.7234 21.7904 30.6372 21.9379 30.6372 22.116C30.6372 22.2086 30.6314 22.355 30.6201 22.5507C30.6086 22.7441 30.6026 22.8939 30.6026 22.9961C30.6026 23.2968 30.6046 23.571 30.6084 23.8105L30.6142 24.619C30.6142 24.9481 30.7857 24.9974 30.8878 24.9974C30.9586 24.9974 31.0204 24.9763 31.0713 24.9344C31.1265 24.8889 31.1558 24.8289 31.1558 24.7609C31.1558 24.7261 31.1442 24.6923 31.1214 24.6608C31.1122 24.6483 31.106 24.6397 31.0994 24.6294L31.0924 24.6193V22.6539C31.2166 22.9163 31.3658 23.2485 31.5385 23.6469C31.8873 24.4515 31.9249 24.6344 31.9249 24.6758V24.716H31.9252ZM34.1711 24.6334C34.0775 24.6334 33.9975 24.6352 33.9332 24.6382L33.8258 24.6409C33.8247 24.6053 33.8239 24.5507 33.8239 24.4677C33.8239 24.3758 33.8297 24.2326 33.8412 24.0398C33.845 23.912 33.847 23.7678 33.847 23.6113C33.847 23.5054 33.8452 23.415 33.8417 23.3414H33.8825C33.9246 23.3478 33.9798 23.3509 34.0505 23.3509C34.1223 23.3509 34.1839 23.3336 34.2334 23.2997C34.3084 23.2483 34.3241 23.1835 34.3241 23.1382C34.3241 23.0369 34.2606 22.916 33.9585 22.916C33.9089 22.916 33.8682 22.9176 33.8388 22.9208L33.8239 22.9216C33.8247 22.8489 33.8305 22.7425 33.841 22.6022C33.8449 22.4993 33.8468 22.3837 33.8468 22.2581C33.8468 22.2221 33.8465 22.1891 33.8458 22.1593C33.9434 22.1765 34.0498 22.2019 34.1631 22.2352L34.1905 22.2432L34.2174 22.2341C34.2732 22.215 34.3223 22.1883 34.3633 22.1545C34.4306 22.099 34.4449 22.0387 34.4449 21.9979C34.4449 21.86 34.2746 21.8006 34.1265 21.7641C33.9532 21.7214 33.798 21.7 33.6652 21.7C33.5415 21.7 33.334 21.7552 33.334 22.1256C33.334 22.1705 33.3399 22.2392 33.3519 22.3358C33.3628 22.4198 33.3684 22.4829 33.3684 22.523C33.3684 22.7059 33.3607 22.9366 33.3455 23.2104C33.334 23.5158 33.3282 23.7493 33.3282 23.908L33.3401 24.2149C33.3513 24.3477 33.357 24.4472 33.357 24.5102C33.357 24.5499 33.359 24.5845 33.3628 24.6153L33.3631 24.8355C33.3674 24.8822 33.3889 24.9496 33.4668 25.0046C33.5223 25.0438 33.585 25.0635 33.6537 25.0635H34.1425C34.2249 25.0635 34.2972 25.0485 34.3575 25.0187C34.4636 24.9664 34.4794 24.8822 34.4794 24.8366C34.4793 24.7606 34.4393 24.6334 34.1711 24.6334ZM36.8678 21.6878C36.8257 21.6581 36.7714 21.643 36.7068 21.643C36.4636 21.643 36.4447 21.7987 36.4447 21.8462C36.4447 21.8773 36.4505 21.9096 36.4618 21.9425C36.4604 22.0259 36.4474 22.1342 36.4238 22.2627C36.3919 22.4101 36.3758 22.5373 36.3758 22.6413C36.3758 22.9345 36.3673 23.207 36.3506 23.4573C36.3231 23.2233 36.2918 23.0145 36.2574 22.8349C36.2177 22.6278 36.167 22.4334 36.1066 22.2573V22.2344C36.1066 22.1659 36.0745 22.108 36.0158 22.0709C35.9687 22.0414 35.9111 22.0264 35.8444 22.0264H35.8286L35.5994 22.1101V22.1728C35.5994 22.4043 35.5862 22.643 35.5596 22.8841C35.5406 23.0998 35.5166 23.3025 35.4884 23.4865C35.481 23.5344 35.4734 23.5833 35.4654 23.6334C35.4465 23.5077 35.4241 23.3689 35.3982 23.2177C35.319 22.7518 35.2786 22.3939 35.2786 22.1541C35.2786 21.8043 35.1071 21.7521 35.0049 21.7521C34.8682 21.7521 34.797 21.8219 34.7615 21.8803L34.734 21.9257L34.7606 21.9718C34.7785 22.003 34.8137 22.0982 34.847 22.3875C34.881 22.6653 34.9079 22.9297 34.9271 23.1749C34.9617 23.5539 34.9958 23.871 35.0281 24.1176C35.061 24.3685 35.1036 24.5824 35.1546 24.7537L35.1548 24.7542C35.2001 24.9033 35.2793 25.1017 35.4418 25.1017C35.5863 25.1017 35.6894 24.9389 35.7764 24.5739C35.842 24.2976 35.891 24.0088 35.922 23.7158C35.9318 23.6227 35.9401 23.535 35.9468 23.4529C35.9702 23.5702 35.9929 23.6864 36.0145 23.8009C36.0786 24.2013 36.1111 24.5307 36.1111 24.7803C36.1111 24.8539 36.137 24.919 36.1857 24.9685C36.2354 25.0192 36.3044 25.0449 36.3906 25.0449C36.5602 25.0449 36.6207 24.9488 36.6412 24.8925C36.6641 24.832 36.6758 24.7592 36.6758 24.6761V24.5909C36.6758 24.4069 36.7063 24.1219 36.7668 23.7427C36.8246 23.3461 36.854 23.0424 36.854 22.8403V22.4949C36.854 22.3429 36.877 22.2077 36.9225 22.0925L36.9287 22.0766V22.0493C36.9402 22.0089 36.946 21.9632 36.946 21.9128V21.8419C36.9462 21.7782 36.9183 21.7235 36.8678 21.6878ZM27.0215 27.4577V27.395L26.9071 27.3533C26.8479 27.3345 26.8015 27.3254 26.765 27.3254C26.6999 27.3254 26.6425 27.3432 26.5945 27.3779C26.5234 27.4294 26.5086 27.4934 26.5086 27.5381C26.5086 27.7137 26.5222 27.9443 26.549 28.2216C26.5702 28.4937 26.5815 28.7061 26.5831 28.8536H26.4487C26.3441 28.8536 26.2743 28.8496 26.2281 28.8445C26.2289 28.6576 26.2326 28.4854 26.2394 28.3299L26.251 27.7414C26.251 27.4163 26.0794 27.3678 25.9774 27.3678C25.909 27.3678 25.8482 27.3909 25.8015 27.4342C25.7526 27.4793 25.7268 27.5366 25.7268 27.5993C25.7268 27.7205 25.7326 27.9017 25.7441 28.1384C25.7554 28.3729 25.7612 28.5513 25.7614 28.663L25.7439 28.943V28.9667L25.7463 28.9872C25.7466 28.9888 25.7497 29.0053 25.7497 29.0662V29.2129C25.7497 29.3317 25.7478 29.4441 25.7439 29.5509L25.7324 29.9368C25.7324 30.136 25.7489 30.3011 25.7814 30.428C25.8338 30.628 25.9418 30.6699 26.0233 30.6699C26.0985 30.6699 26.1634 30.6414 26.2113 30.5875C26.2567 30.536 26.2798 30.4747 26.2798 30.4051C26.2798 30.3181 26.2738 30.1856 26.2623 30.0113C26.251 29.8369 26.2452 29.7085 26.2452 29.6291V29.1869C26.286 29.192 26.3126 29.1955 26.3242 29.1971C26.4271 29.2149 26.5105 29.2192 26.5703 29.2163C26.5695 29.2275 26.5684 29.2376 26.567 29.247L26.566 29.2536V29.3193L26.5545 29.8072V29.8091C26.5545 30.4192 26.6398 30.6795 26.8396 30.6795C26.9102 30.6795 26.9735 30.6622 27.0281 30.628C27.0942 30.5867 27.1305 30.5227 27.1305 30.444L27.0786 29.2462C27.0409 28.5043 27.0215 27.9025 27.0215 27.4577ZM29.2526 28.7824V28.7446C29.2526 28.5918 29.2406 28.4449 29.2167 28.3078C29.1926 28.1715 29.1514 28.0408 29.0948 27.9189C29.037 27.7952 28.9655 27.6889 28.8806 27.6014C28.7878 27.5112 28.6727 27.44 28.5388 27.3901C28.4063 27.3408 28.2566 27.3158 28.0935 27.3158C28.0194 27.3158 27.9526 27.3389 27.8943 27.3846C27.8402 27.4272 27.7964 27.4877 27.7657 27.5601C27.6926 27.7104 27.6454 27.8678 27.625 28.0285C27.5975 28.2545 27.5823 28.4147 27.5785 28.5203L27.5727 28.8531V29.0278H27.5785V29.0406C27.5746 29.0689 27.5727 29.1021 27.5727 29.1416C27.5727 29.3443 27.5905 29.5577 27.625 29.772C27.6532 30.0102 27.7266 30.2334 27.8444 30.4373C27.9052 30.5374 27.9847 30.6182 28.081 30.6776C28.1793 30.7382 28.2879 30.7689 28.4041 30.7689C28.9748 30.7689 29.2642 30.2803 29.2642 29.3147L29.2585 29.0425C29.2545 28.9669 29.2526 28.8792 29.2526 28.7824ZM28.0906 28.3624C28.0871 28.3248 28.0854 28.2766 28.0854 28.2193C28.0854 28.0768 28.1026 27.9603 28.138 27.8699C28.1678 27.783 28.2198 27.7461 28.3119 27.7461C28.4188 27.7461 28.5063 27.7809 28.5798 27.8529C28.6542 27.9259 28.6934 28.0091 28.6996 28.1013V28.1864C28.6996 28.3088 28.7113 28.4947 28.7348 28.7408C28.761 28.9672 28.7745 29.1517 28.7745 29.2888C28.7745 29.4011 28.765 29.5374 28.746 29.6977C28.7316 29.8726 28.6897 30.0377 28.6196 30.1929C28.5945 30.2574 28.5602 30.3062 28.5151 30.3422V30.3424C28.4737 30.3753 28.4298 30.3915 28.3812 30.3915C28.2862 30.3915 28.2255 30.2141 28.1974 30.1073C28.1378 29.8902 28.1002 29.6638 28.0854 29.4342C28.074 29.2701 28.0684 29.1017 28.0684 28.9341C28.0684 28.8584 28.0721 28.7886 28.0798 28.7211L28.0913 28.4987L28.0906 28.3624ZM31.2121 27.3481C31.167 27.311 31.1082 27.2923 31.0374 27.2923C30.9527 27.2923 30.8953 27.307 30.8567 27.3387C30.8273 27.3629 30.7924 27.4088 30.7924 27.4909C30.7924 27.5099 30.7943 27.5269 30.7982 27.5422V27.8361C30.7982 30.1736 30.5279 30.292 30.4738 30.292C30.2828 30.292 30.2012 30.2141 30.2012 30.0315C30.2012 29.9523 30.1879 29.7853 30.1602 29.5185C30.134 29.3153 30.1207 29.1504 30.1207 29.0286V27.7417C30.1207 27.6584 30.0975 27.58 30.0518 27.5086C29.9846 27.4041 29.9065 27.3822 29.8527 27.3822C29.7964 27.3822 29.7159 27.4078 29.6524 27.5299L29.6423 27.5493V27.5712C29.6423 27.5995 29.6462 27.6726 29.6538 27.7888C29.6538 27.8344 29.6558 27.8677 29.6598 27.8921L29.6654 28.2478C29.6654 28.739 29.6711 29.1601 29.6826 29.4968C29.6826 29.7035 29.6967 29.8843 29.7241 30.0315C29.7527 30.2112 29.8178 30.3749 29.9183 30.5195C29.9732 30.595 30.0452 30.6533 30.1321 30.6926C30.2162 30.7309 30.3119 30.7504 30.4164 30.7504C30.9759 30.7504 31.2479 30.0339 31.2479 28.56C31.2479 28.5411 31.246 28.523 31.2422 28.5059L31.242 28.4848L31.2529 28.2928C31.261 28.2321 31.2652 28.1629 31.2652 28.0869C31.2652 28.0261 31.2726 27.9513 31.2878 27.8595C31.2998 27.7451 31.3055 27.6632 31.3055 27.6089C31.3055 27.5293 31.3012 27.4987 31.2972 27.4789C31.2846 27.4283 31.2559 27.3843 31.2121 27.3481ZM32.5905 29.0888L32.3884 28.7753L32.2604 28.5841C32.2116 28.5152 32.1708 28.4369 32.1391 28.3517C32.1086 28.2691 32.093 28.1865 32.093 28.1061C32.093 28.0448 32.1124 27.9632 32.1494 27.8661C32.1799 27.7925 32.2153 27.7499 32.2545 27.7393C32.3479 27.7768 32.4569 27.7734 32.5318 27.7293C32.5863 27.6973 32.6164 27.6462 32.6164 27.5856C32.6164 27.5281 32.5935 27.4457 32.4842 27.3789C32.4106 27.3341 32.3302 27.3113 32.245 27.3113C32.1399 27.3113 32.0433 27.3392 31.9578 27.3942C31.8742 27.4481 31.8087 27.5192 31.7625 27.6064C31.6798 27.7697 31.6378 27.9297 31.6378 28.0822C31.6378 28.2155 31.663 28.3502 31.7122 28.4821C31.7487 28.5821 31.7938 28.6765 31.8463 28.7627C31.8966 28.8454 31.9594 28.9409 32.0337 29.047L32.0967 29.1366C32.2463 29.3505 32.322 29.5545 32.322 29.7429C32.322 29.8523 32.2983 29.9798 32.2518 30.1217C32.2297 30.1894 32.1974 30.2417 32.153 30.2821C32.1142 30.3173 32.0727 30.3344 32.0265 30.3344C32.0089 30.3344 31.974 30.3321 31.9161 30.3229C31.8574 30.308 31.8158 30.3013 31.785 30.3013H31.7415L31.6274 30.4464L31.6332 30.4848C31.6446 30.5601 31.687 30.624 31.7559 30.6693C31.8148 30.708 31.8863 30.7334 31.9684 30.7448L32.0703 30.7587V30.7265C32.1698 30.7158 32.2631 30.6869 32.3486 30.64C32.4598 30.579 32.5474 30.4966 32.6089 30.3957C32.7246 30.2085 32.7833 30.008 32.7833 29.7997C32.7833 29.6725 32.7657 29.5449 32.7311 29.4206C32.6961 29.2968 32.6494 29.1857 32.5905 29.0888ZM34.079 30.3109C33.9854 30.3109 33.9054 30.3126 33.841 30.3157L33.7337 30.3184C33.7326 30.2827 33.7318 30.2281 33.7318 30.1451C33.7318 30.0533 33.7375 29.9101 33.749 29.7173C33.7529 29.5894 33.7548 29.4453 33.7548 29.2888C33.7548 29.1829 33.753 29.0925 33.7495 29.0189H33.7903C33.8324 29.0253 33.8876 29.0283 33.9583 29.0283C34.0302 29.0283 34.0918 29.011 34.1412 28.9771C34.2161 28.9257 34.2319 28.8609 34.2319 28.8157C34.2319 28.7144 34.1684 28.5934 33.8663 28.5934C33.8167 28.5934 33.7761 28.595 33.7466 28.5982L33.7318 28.599C33.7326 28.5264 33.7383 28.42 33.7489 28.2797C33.7527 28.1768 33.7546 28.0611 33.7546 27.9355C33.7546 27.8995 33.7543 27.8665 33.7537 27.8368C33.8513 27.8539 33.9575 27.8793 34.071 27.9126L34.0982 27.9206L34.125 27.9115C34.1809 27.8925 34.23 27.8657 34.271 27.832C34.3383 27.7765 34.3526 27.7161 34.3526 27.6753C34.3526 27.5374 34.1823 27.4781 34.0342 27.4416C33.8609 27.3989 33.7057 27.3774 33.5729 27.3774C33.4492 27.3774 33.2417 27.4326 33.2417 27.803C33.2417 27.848 33.2476 27.9166 33.2596 28.0133C33.2705 28.0973 33.2761 28.1603 33.2761 28.2005C33.2761 28.3833 33.2684 28.6141 33.2532 28.8878C33.2417 29.1933 33.2359 29.4267 33.2359 29.5854L33.2478 29.8923C33.259 30.0251 33.2647 30.1246 33.2647 30.1877C33.2647 30.2273 33.2666 30.2619 33.2705 30.2928L33.2708 30.5129C33.2751 30.5597 33.2966 30.627 33.3745 30.6821C33.43 30.7213 33.4929 30.7409 33.5614 30.7409H34.0502C34.1326 30.7409 34.2049 30.7259 34.2652 30.6961C34.3713 30.6438 34.3871 30.5597 34.3871 30.5141C34.3873 30.4382 34.3473 30.3109 34.079 30.3109Z" fill="white"/>
<path id="Vector_64" d="M26.2852 35.7175L25.4378 36.3487H15.7773L16.2785 36.1148L16.8393 35.853L17.1297 35.7175H26.2852Z" fill="#D3C9CF"/>
<path id="Vector_65" d="M15.7773 36.3489H25.4375V42.8548H15.7773V36.3489Z" fill="#E2D7DE"/>
<g id="Group_3" opacity="0.5">
<path id="Vector_66" d="M17.0361 42.3725H16.3945V41.8965H17.0361V42.3725ZM16.4385 42.3285H16.9921V41.9406H16.4385V42.3285Z" fill="#493A41"/>
<path id="Vector_67" d="M16.7297 42.1336H16.9147C16.9147 42.1336 16.8835 41.9781 16.7151 41.9781C16.5671 41.9781 16.5156 42.1336 16.5156 42.1336H16.7006V42.2554H16.6572V42.2912H16.7719V42.2554H16.7299V42.1336H16.7297ZM17.7719 42.3725H17.1303V41.8965H17.7719V42.3725ZM17.1743 42.3285H17.7278V41.9406H17.1743V42.3285Z" fill="#493A41"/>
<path id="Vector_68" d="M17.5138 42.2912H17.3633V42.1406H17.5138V42.2912ZM17.4074 42.2472H17.4698V42.1848H17.4074V42.2472ZM17.6722 42.2912H17.5217V42.1406H17.6722V42.2912ZM17.5657 42.2472H17.6281V42.1848H17.5657V42.2472ZM18.5007 42.3725H17.8591V41.8965H18.5007V42.3725ZM17.9031 42.3285H18.4566V41.9406H17.9031V42.3285Z" fill="#493A41"/>
<path id="Vector_69" d="M18.2639 42.0181V42.1046C18.2635 42.1255 18.2549 42.1454 18.2399 42.1601C18.225 42.1747 18.205 42.1829 18.1841 42.1829C18.1631 42.1829 18.1431 42.1747 18.1282 42.1601C18.1132 42.1454 18.1046 42.1255 18.1042 42.1046V42.0181H18.0312V42.1112C18.0312 42.1518 18.0474 42.1907 18.0761 42.2193C18.1047 42.248 18.1436 42.2641 18.1842 42.2641C18.2248 42.2641 18.2637 42.248 18.2924 42.2193C18.3211 42.1907 18.3372 42.1518 18.3372 42.1112V42.0181H18.2639Z" fill="#493A41"/>
</g>
<path id="Vector_70" d="M20.0469 36.3027V37.6039L20.2243 37.4856L20.2802 37.6039L20.3426 37.5021L20.4707 37.6039L20.5594 37.5087L20.635 37.6039L20.773 37.5184L20.8618 37.6039L21.0621 37.4856L21.1674 37.6039V36.3027H20.0469Z" fill="#D3C9CF"/>
<path id="Vector_71" opacity="0.5" d="M21.1674 36.3487L21.505 36.1146L21.2968 36.1359L21.2717 36.1146L21.1827 36.1328L21.0811 36.1146L20.9677 36.1317L20.9168 36.1146L20.7566 36.1299L20.6901 36.1146L20.4589 36.1359L20.3845 36.1146L20.0469 36.3487H21.1674ZM20.9763 35.7178L20.6387 35.9519L20.8467 35.9306L20.872 35.9519L20.9608 35.9335L21.0626 35.9519L21.176 35.9347L21.2269 35.9519L21.387 35.9365L21.4536 35.9519L21.6846 35.9306L21.7592 35.9519L22.0968 35.7178H20.9763Z" fill="#493A41"/>
<path id="Vector_72" d="M21.1674 42.9149V41.6138L20.9899 41.732L20.9339 41.6138L20.8715 41.7155L20.7434 41.6138L20.6547 41.709L20.5792 41.6138L20.4411 41.699L20.3525 41.6138L20.152 41.732L20.0469 41.6138V42.9149H21.1674Z" fill="#D3C9CF"/>
<path id="Vector_73" d="M22.4805 37.0849H24.8069V38.386H22.4805V37.0849ZM16.4375 38.6883H24.8068V40.6598H16.4375V38.6883ZM25.4377 36.3489L26.2855 35.718V42.1414L25.4377 42.8547V36.3489Z" fill="#EAEFEE"/>
<path id="Vector_74" opacity="0.5" d="M25.7971 36.0834V36.6805L25.8416 36.6165L25.8563 36.6346L25.8809 36.5919L25.9056 36.6199L25.9336 36.5492L25.9582 36.5804L25.9813 36.5097C25.9813 36.5097 26.0025 36.5377 26.0025 36.5309C26.0025 36.5242 26.0272 36.4932 26.0272 36.4932L26.0584 36.4997V35.8889H25.2238L25.2497 35.9111L25.2104 35.9161L25.2276 35.9394L25.198 35.9457L25.203 35.9653L25.1636 35.9641L25.1699 35.9911L25.1379 35.9997L25.1638 36.0257L25.1219 36.033L25.1441 36.0564L25.1134 36.0687L25.148 36.0897L25.7971 36.0834ZM17.2377 35.9231L17.1489 35.946L17.167 35.969L17.0915 35.9903L17.1112 36.0165L17.0409 36.0274C17.0409 36.0274 17.0571 36.061 17.0504 36.061C17.0438 36.061 16.978 36.0709 16.978 36.0709L16.9683 36.1146H16.2812L16.842 35.853L17.2835 35.8639L17.2193 35.9087L17.2377 35.9231Z" fill="#493A41"/>
<path id="Vector_75" d="M34.3047 37.0627L34.9551 37.5474H42.3719L41.9871 37.3677L41.5565 37.1669L41.3336 37.0627H34.3047Z" fill="#D3C9CF"/>
<path id="Vector_76" d="M42.375 42.542H34.9587V37.5473H42.375V42.542Z" fill="#E2D7DE"/>
<g id="Group_4" opacity="0.5">
<path id="Vector_77" d="M41.4062 41.8066H41.8989V42.1721H41.4062V41.8066ZM41.865 41.8404H41.44V42.1382H41.865V41.8404Z" fill="#493A41"/>
<path id="Vector_78" d="M41.6437 41.9886H41.5017C41.5017 41.9886 41.5257 41.869 41.6548 41.869C41.7684 41.869 41.8079 41.9886 41.8079 41.9886H41.6658V42.082H41.6991V42.1095H41.6111V42.082H41.6434V41.9886H41.6437ZM40.8438 41.8066H41.3362V42.1721H40.8438V41.8066ZM41.3025 41.8404H40.8775V42.1382H41.3025V41.8404Z" fill="#493A41"/>
<path id="Vector_79" d="M41.0388 41.994H41.1544V42.1095H41.0388V41.994ZM41.1206 42.0278H41.0726V42.0758H41.1206V42.0278ZM40.9172 41.994H41.0328V42.1095H40.9172V41.994ZM40.999 42.0278H40.951V42.0758H40.999V42.0278ZM40.2812 41.8066H40.7737V42.1721H40.2812V41.8066ZM40.74 41.8404H40.315V42.1382H40.74V41.8404Z" fill="#493A41"/>
<path id="Vector_80" d="M40.4626 41.8999V41.9663C40.4626 41.9826 40.469 41.9981 40.4805 42.0096C40.492 42.0211 40.5076 42.0276 40.5238 42.0276C40.5401 42.0276 40.5557 42.0211 40.5672 42.0096C40.5787 41.9981 40.5851 41.9826 40.5851 41.9663V41.8999H40.6411V41.9714C40.6411 42.0362 40.5885 42.0889 40.5237 42.0889C40.4589 42.0889 40.4062 42.0362 40.4062 41.9714V41.8999H40.4626Z" fill="#493A41"/>
</g>
<path id="Vector_81" d="M39.0947 37.5122V38.5111L38.9584 38.4202L38.9155 38.5111L38.8677 38.4328L38.7693 38.5111L38.7011 38.438L38.643 38.5111L38.5371 38.4455L38.4691 38.5111L38.3152 38.4202L38.2344 38.5111V37.5122H39.0947Z" fill="#D3C9CF"/>
<path id="Vector_82" opacity="0.5" d="M38.237 37.5475L37.9778 37.3676L38.1377 37.3839L38.157 37.3676L38.2252 37.3817L38.3033 37.3676L38.3903 37.3808L38.4294 37.3676L38.5524 37.3795L38.6034 37.3676L38.7809 37.3839L38.838 37.3676L39.0972 37.5475H38.237ZM38.3838 37.063L38.643 37.2428L38.4831 37.2263L38.4638 37.2428L38.3956 37.2288L38.3175 37.2428L38.2305 37.2296L38.1914 37.2428L38.0684 37.231L38.0174 37.2428L37.8399 37.2263L37.7826 37.2428L37.5234 37.063H38.3838Z" fill="#493A41"/>
<path id="Vector_83" d="M38.2344 42.5882V41.5894L38.3707 41.6802L38.4136 41.5894L38.4614 41.6676L38.5598 41.5894L38.628 41.6625L38.6859 41.5894L38.792 41.655L38.86 41.5894L39.0139 41.6802L39.0947 41.5894V42.5882H38.2344Z" fill="#D3C9CF"/>
<path id="Vector_84" d="M37.2266 39.1113H35.4406V38.1124H37.2266V39.1113Z" fill="#EAEFEE"/>
<path id="Vector_85" d="M41.8672 40.8569H35.4419V39.3433H41.8672V40.8569Z" fill="#EAEFEE"/>
<path id="Vector_86" d="M34.9554 37.5473L34.3047 37.063V41.9943L34.9554 42.542V37.5473Z" fill="#EAEFEE"/>
<path id="Vector_87" opacity="0.5" d="M34.6849 37.3435V37.8019L34.6508 37.7527L34.6394 37.7667L34.6205 37.7339L34.6017 37.7553L34.5802 37.7011L34.5613 37.7251L34.5437 37.6708C34.5437 37.6708 34.5273 37.6923 34.5273 37.6871C34.5273 37.682 34.5084 37.6582 34.5084 37.6582L34.4844 37.6633V37.1943H35.1252L35.1053 37.2115L35.1356 37.2153L35.1223 37.2332L35.145 37.238L35.1412 37.2532L35.1714 37.2523L35.1666 37.2731L35.1913 37.2796L35.1714 37.2995L35.2036 37.3051L35.1866 37.323L35.2103 37.3324L35.1837 37.3486L34.6849 37.3435ZM41.2561 37.2204L41.3242 37.238L41.3103 37.2556L41.3684 37.2719L41.3532 37.2921L41.4071 37.3004C41.4071 37.3004 41.3948 37.3262 41.3999 37.3262C41.405 37.3262 41.4554 37.3337 41.4554 37.3337L41.4629 37.3673H41.9903L41.5597 37.1665L41.2209 37.1748L41.2701 37.2092L41.2561 37.2204Z" fill="#493A41"/>
<path id="Vector_88" d="M41.8057 18.9741L40.3655 21.8831L35.2238 21.129L34.9297 21.5141C34.9297 21.5141 39.3814 24.2525 40.7433 24.0407C42.1713 23.8186 43.1873 22.3738 43.2369 21.3396C43.2847 20.3383 42.8026 19.6791 41.8057 18.9741Z" fill="#FFBF9F"/>
<path id="Vector_89" d="M34.2442 21.4706C34.3738 21.5157 34.4914 21.5501 34.5543 21.5586C34.603 21.5652 34.6503 21.566 34.6943 21.5632C34.7321 21.561 34.7671 21.5562 34.7983 21.5504C34.8791 21.5359 34.9327 21.5144 34.9327 21.5144L35.8756 21.8943C35.9825 21.729 36.0383 21.4637 36.0454 21.4178C36.0454 21.4178 35.1476 21.1471 35.0586 20.9962C35.0575 20.9951 35.0567 20.9933 35.0561 20.992C35.0554 20.9896 35.055 20.9871 35.0545 20.9844C35.0447 20.9453 35.0066 20.8964 34.9556 20.8501C34.9182 20.8164 34.874 20.784 34.8298 20.7583C34.7217 20.6954 34.6972 20.3535 34.6209 20.3645C34.5444 20.376 34.5049 20.5783 34.5609 20.666C34.6164 20.7535 34.5374 20.8024 34.4441 20.7692L34.4148 20.7588C34.2286 20.6924 33.6516 20.49 33.6038 20.578C33.5726 20.6354 33.8034 20.7434 33.9858 20.8181C33.7594 20.7349 33.4305 20.6274 33.4297 20.7031C33.429 20.7613 33.7474 20.9106 33.926 20.9922C33.7985 20.9474 33.543 20.8682 33.5265 20.9116C33.491 21.005 33.7473 21.1111 33.9239 21.1719C33.8162 21.1428 33.6898 21.1212 33.6646 21.1688C33.634 21.2272 33.9668 21.3744 34.2442 21.4706Z" fill="#FFBF9F"/>
<path id="Vector_90" d="M34.2961 20.9426C34.2958 20.9424 34.2954 20.9427 34.2951 20.9426L34.0151 20.8208L34.3014 20.9269C34.3015 20.9269 34.3017 20.927 34.3018 20.927C34.3025 20.9274 34.3343 20.871 34.3542 20.8454C34.3314 20.8859 34.3132 20.9285 34.2966 20.9715C34.2905 20.9875 34.2847 21.0037 34.279 21.0198C34.279 21.0198 34.2922 20.9506 34.2961 20.9426ZM34.2311 21.124C34.231 21.124 34.2306 21.1242 34.2305 21.124L33.9505 21.0022L34.2348 21.1075C34.249 21.0638 34.2719 21.0402 34.2719 21.0402C34.265 21.0608 34.2585 21.0818 34.253 21.1027C34.2458 21.1282 34.2415 21.1542 34.2382 21.1806C34.2343 21.18 34.2276 21.1419 34.2311 21.124ZM34.2166 21.2792L33.9297 21.1749L34.2198 21.2626C34.2196 21.2542 34.2308 21.2011 34.2354 21.2019H34.2356C34.2343 21.2139 34.2334 21.2259 34.2324 21.2379C34.229 21.2837 34.2281 21.3298 34.2279 21.376C34.2231 21.3442 34.2178 21.2797 34.2166 21.2792Z" fill="#E8AD80"/>
<path id="Vector_91" opacity="0.2" d="M33.6205 20.5933C33.632 20.5707 33.7118 20.5789 33.7179 20.5854C33.7179 20.5854 33.6995 20.6478 33.6917 20.6571C33.6837 20.6664 33.6089 20.6158 33.6205 20.5933ZM33.4465 20.7021C33.4581 20.6795 33.5379 20.6877 33.544 20.6942C33.544 20.6942 33.5256 20.7566 33.5177 20.7659C33.5096 20.7752 33.4349 20.7246 33.4465 20.7021ZM33.5406 20.9344C33.5521 20.9118 33.632 20.92 33.6381 20.9265C33.6381 20.9265 33.6197 20.9891 33.6118 20.9982C33.6038 21.0075 33.5289 20.9569 33.5406 20.9344ZM33.699 21.1861C33.7105 21.1635 33.7904 21.1717 33.7965 21.1782C33.7965 21.1782 33.7781 21.2408 33.7702 21.2499C33.7621 21.2592 33.6873 21.2086 33.699 21.1861ZM34.6861 20.4808L34.6558 20.4971C34.6558 20.4971 34.6133 20.4033 34.6328 20.3832C34.6521 20.363 34.6861 20.4808 34.6861 20.4808Z" fill="white"/>
<path id="Vector_92" d="M43.2344 17.9683C42.3106 17.5556 40.8992 19.731 40.8829 20.1755C40.8666 20.6198 42.973 22.3668 43.2607 22.292C43.5483 22.2171 44.4943 18.531 43.2344 17.9683Z" fill="#2B8AFC"/>
<path id="Vector_93" d="M19.6012 16.3413C19.6012 16.3413 20.7819 16.3937 20.823 16.1181C20.8422 15.9892 20.7884 15.9309 20.3963 15.902C20.8771 15.9199 20.8752 15.849 20.83 15.7049C20.7953 15.594 20.7512 15.5865 20.362 15.5421C20.6315 15.5482 20.7779 15.5215 20.7944 15.405C20.8152 15.2567 20.7046 15.2023 20.332 15.1962C20.554 15.1847 20.6876 15.1633 20.6864 15.0556C20.6852 14.9604 20.6075 14.873 20.366 14.8586C20.0929 14.8423 20.1019 14.8029 19.9772 14.8258C19.8811 14.8434 19.7793 14.8511 19.7089 14.9034C19.3689 15.1554 19.3953 16.2337 19.6012 16.3413Z" fill="#FFBF9F"/>
<path id="Vector_94" d="M20.0996 15.8817C20.2913 15.8746 20.5367 15.8991 20.5489 15.9002C20.557 15.901 20.563 15.9082 20.5622 15.9164C20.5614 15.9245 20.5542 15.9305 20.546 15.9297C20.5425 15.9293 20.1922 15.8943 20.0038 15.9186C20.0018 15.9189 19.9999 15.9188 19.998 15.9183C19.9961 15.9178 19.9943 15.917 19.9928 15.9158C19.9912 15.9146 19.99 15.9131 19.989 15.9114C19.9881 15.9096 19.9875 15.9078 19.9873 15.9058C19.987 15.9039 19.9871 15.9019 19.9876 15.9001C19.9881 15.8982 19.989 15.8964 19.9902 15.8949C19.9914 15.8933 19.9929 15.8921 19.9946 15.8911C19.9963 15.8902 19.9982 15.8896 20.0001 15.8893C20.03 15.8853 20.0638 15.8829 20.0996 15.8817ZM20.1457 15.5274C20.3161 15.5212 20.4969 15.5333 20.4991 15.5335C20.5073 15.534 20.5134 15.5412 20.5129 15.5492C20.5128 15.5511 20.5123 15.553 20.5114 15.5547C20.5106 15.5565 20.5094 15.558 20.5079 15.5593C20.5065 15.5606 20.5048 15.5616 20.5029 15.5622C20.5011 15.5628 20.4991 15.5631 20.4972 15.5629C20.4943 15.5628 20.2006 15.5429 20.0118 15.5673C20.0098 15.5675 20.0079 15.5674 20.006 15.5669C20.0041 15.5664 20.0024 15.5655 20.0008 15.5643C19.9993 15.5631 19.998 15.5617 19.9971 15.56C19.9961 15.5583 19.9955 15.5564 19.9953 15.5545C19.995 15.5525 19.9951 15.5506 19.9956 15.5487C19.9961 15.5468 19.997 15.5451 19.9982 15.5435C19.9994 15.542 20.0009 15.5407 20.0026 15.5397C20.0043 15.5388 20.0062 15.5382 20.0081 15.538C20.0502 15.5324 20.0975 15.5292 20.1457 15.5274ZM20.1511 15.1761C20.3159 15.17 20.4841 15.1826 20.4863 15.1828C20.4945 15.1834 20.5006 15.1905 20.4999 15.1986C20.4993 15.2068 20.4921 15.213 20.4841 15.2122C20.4814 15.2121 20.2084 15.1916 20.0199 15.2157C20.018 15.216 20.016 15.2159 20.0142 15.2154C20.0123 15.2148 20.0105 15.214 20.009 15.2128C20.0075 15.2116 20.0062 15.2101 20.0052 15.2084C20.0043 15.2067 20.0037 15.2049 20.0034 15.2029C20.0025 15.1948 20.0081 15.1874 20.0162 15.1865C20.0583 15.181 20.1046 15.1778 20.1511 15.1761ZM19.6722 15.0967C19.6753 15.0965 19.6783 15.0973 19.681 15.0993C19.6878 15.1037 19.6897 15.113 19.685 15.1197C19.5002 15.3948 19.6255 15.6282 19.6268 15.6306C19.6287 15.6343 19.6292 15.6385 19.6279 15.6425C19.549 15.8785 19.687 16.0701 19.6884 16.0721C19.6932 16.0786 19.6918 16.0879 19.6852 16.0927C19.6786 16.0975 19.6694 16.0961 19.6646 16.0895C19.6585 16.0813 19.5182 15.8869 19.5978 15.6388C19.5788 15.5991 19.4823 15.3681 19.6604 15.1031C19.6618 15.1012 19.6635 15.0996 19.6656 15.0985C19.6676 15.0974 19.6699 15.0968 19.6722 15.0967Z" fill="#EFAC8F"/>
<path id="Vector_95" d="M28.6523 36.2139C28.0918 36.8263 27.3197 37.5995 27.2686 37.6515C27.2669 37.6524 27.2659 37.6532 27.2659 37.6532L27.0938 37.5743L28.5762 36.1143L29.2317 35.4688C29.2665 35.5171 29.0002 35.8345 28.6523 36.2139Z" fill="#E2D7DE"/>
<path id="Vector_96" d="M27.6465 37.2253C27.5969 37.2488 27.5509 37.26 27.4959 37.2592C27.4725 37.259 27.4492 37.2561 27.4265 37.2508L27.0977 37.5746L27.2698 37.6535C27.2698 37.6535 27.2708 37.6525 27.2725 37.6517C27.2961 37.6277 27.4741 37.4493 27.713 37.2048C27.6905 37.2087 27.6682 37.2149 27.6465 37.2253Z" fill="#D3C9CF"/>
<path id="Vector_97" d="M27.6962 35.6383C27.4686 36.4367 27.1234 37.4734 27.101 37.5428C27.0998 37.5444 27.0994 37.5457 27.0994 37.5457L26.9102 37.5521L27.5836 35.5834L27.8814 34.7129C27.9343 34.7406 27.8378 35.1436 27.6962 35.6383Z" fill="#E2D7DE"/>
<path id="Vector_98" d="M27.245 36.9944C27.2113 37.0376 27.1751 37.0682 27.1255 37.0921C27.1046 37.1021 27.0823 37.1103 27.0596 37.1156L26.9102 37.5522L27.0994 37.5458C27.0994 37.5458 27.0998 37.5445 27.101 37.5429C27.1114 37.5109 27.1908 37.2717 27.2954 36.9463C27.2769 36.96 27.2598 36.9754 27.245 36.9944Z" fill="#D3C9CF"/>
<path id="Vector_99" d="M25.6293 43.6972C24.8717 43.6972 24.112 43.6495 23.3713 43.5554C22.6429 43.4586 22.0945 42.8022 22.1179 42.0602L22.2166 38.8422C22.2397 38.1158 22.7814 37.4988 23.4768 37.4063C24.1952 37.315 24.9265 37.269 25.6561 37.269C26.8265 37.269 28.0168 37.3865 29.1942 37.6183C29.8613 37.7564 30.3757 38.3561 30.3993 39.015L30.4981 41.8706C30.5227 42.5599 30.0129 43.189 29.3123 43.3329C28.0819 43.5751 26.8453 43.6972 25.6293 43.6972Z" fill="#D3C9CF"/>
<path id="Vector_100" d="M28.6216 42.4548C26.7514 42.8229 24.8445 42.9037 22.9743 42.6661C22.7053 42.6304 22.4954 42.3676 22.5042 42.0889C22.537 41.0159 22.5699 39.9429 22.6027 38.87C22.6115 38.5914 22.8269 38.3298 23.0848 38.2954C24.8818 38.0671 26.7138 38.1447 28.5107 38.4984C28.7687 38.5519 28.984 38.8012 28.9928 39.0474C29.0256 39.9989 29.0586 40.9503 29.0914 41.9018C29.1005 42.1479 28.8906 42.3994 28.6216 42.4548ZM30.1251 39.2543C30.1251 39.4837 29.9391 39.6698 29.7096 39.6698C29.4802 39.6698 29.2941 39.4837 29.2941 39.2543C29.2941 39.0248 29.4802 38.8388 29.7096 38.8388C29.9392 38.8388 30.1251 39.0248 30.1251 39.2543ZM30.0093 39.9885C30.0093 40.042 29.8751 40.0853 29.7096 40.0853C29.5442 40.0853 29.4099 40.042 29.4099 39.9885C29.4099 39.9351 29.5442 39.8917 29.7096 39.8917C29.8752 39.8919 30.0093 39.9351 30.0093 39.9885ZM30.0093 40.3866C30.0093 40.44 29.8751 40.4834 29.7096 40.4834C29.5442 40.4834 29.4099 40.44 29.4099 40.3866C29.4099 40.3332 29.5442 40.2898 29.7096 40.2898C29.8752 40.2898 30.0093 40.3332 30.0093 40.3866ZM30.0093 40.7845C30.0093 40.838 29.8751 40.8813 29.7096 40.8813C29.5442 40.8813 29.4099 40.838 29.4099 40.7845C29.4099 40.7311 29.5442 40.6877 29.7096 40.6877C29.8752 40.6877 30.0093 40.7311 30.0093 40.7845ZM30.0093 41.1824C30.0093 41.2359 29.8751 41.2792 29.7096 41.2792C29.5442 41.2792 29.4099 41.2359 29.4099 41.1824C29.4099 41.129 29.5442 41.0857 29.7096 41.0857C29.8752 41.0857 30.0093 41.129 30.0093 41.1824Z" fill="#EAEFEE"/>
<path id="Vector_101" d="M46.6351 8.71777C45.8594 8.79713 48.5817 12.4583 48.79 11.381C48.9983 10.3037 48.1594 8.56193 46.6351 8.71777ZM45.4201 7.30513C44.5156 7.97265 47.2078 8.76641 47.2276 8.01873C47.2476 7.27105 45.6585 7.12929 45.4201 7.30513Z" fill="#F6F6F6"/>
<path id="Vector_102" d="M8.02664 16.598C8.03752 16.6143 9.44008 16.598 9.44008 16.598C9.44008 16.598 9.56024 16.3004 9.27128 16.1777C8.98232 16.0551 8.88792 16.2617 8.88792 16.2617C8.88792 16.2617 8.88504 16.1594 8.782 16.1388C8.67896 16.1182 8.73048 16.2687 8.73048 16.2687C8.73048 16.2687 8.65032 16.1321 8.5244 16.1182C8.39848 16.1041 8.3756 16.2442 8.44136 16.3878C8.44152 16.3879 7.88632 16.3879 8.02664 16.598Z" fill="#E2D7DE"/>
<path id="Vector_103" d="M8.2124 16.5995C8.22056 16.6117 9.27448 16.5995 9.27448 16.5995C9.27448 16.5995 9.36472 16.3758 9.1476 16.2837C8.93048 16.1915 8.85944 16.3469 8.85944 16.3469C8.85944 16.3469 8.85736 16.2701 8.77992 16.2545C8.70248 16.239 8.7412 16.3521 8.7412 16.3521C8.7412 16.3521 8.68104 16.2496 8.58648 16.239C8.49192 16.2285 8.47464 16.3337 8.52408 16.4416C8.52408 16.4416 8.10696 16.4416 8.2124 16.5995Z" fill="#EAEFEE"/>
<path id="Vector_104" d="M14.0085 16.598C13.9976 16.6143 12.5951 16.598 12.5951 16.598C12.5951 16.598 12.4749 16.3004 12.7639 16.1777C13.0528 16.0551 13.1472 16.2617 13.1472 16.2617C13.1472 16.2617 13.1501 16.1594 13.2532 16.1388C13.3562 16.1182 13.3047 16.2687 13.3047 16.2687C13.3047 16.2687 13.3848 16.1321 13.5108 16.1182C13.6367 16.1041 13.6596 16.2442 13.5938 16.3878C13.5936 16.3879 14.1487 16.3879 14.0085 16.598Z" fill="#E2D7DE"/>
<path id="Vector_105" d="M13.8229 16.5995C13.8147 16.6117 12.7608 16.5995 12.7608 16.5995C12.7608 16.5995 12.6705 16.3758 12.8877 16.2837C13.1048 16.1915 13.1758 16.3469 13.1758 16.3469C13.1758 16.3469 13.1779 16.2701 13.2553 16.2545C13.3328 16.239 13.2941 16.3521 13.2941 16.3521C13.2941 16.3521 13.3542 16.2496 13.4488 16.239C13.5433 16.2285 13.5606 16.3337 13.5112 16.4416C13.5112 16.4416 13.9281 16.4416 13.8229 16.5995Z" fill="#EAEFEE"/>
<path id="Vector_106" d="M8.73438 13.8218H13.3371V16.545H8.73438V13.8218Z" fill="#EAEFEE"/>
<path id="Vector_107" opacity="0.5" d="M13.3371 14.4533L8.73438 14.0386V13.8218H13.3371V14.4533Z" fill="#E8F0F0"/>
<path id="Vector_108" d="M13.3938 14.9201H8.6828C8.5948 14.9201 8.52344 14.9118 8.52344 14.9998H13.5534C13.5532 14.9117 13.4818 14.9201 13.3938 14.9201Z" fill="#D9E0DF"/>
<path id="Vector_109" d="M13.5585 13.8217H8.39062L8.82982 12.7402H13.1193L13.5585 13.8217Z" fill="#D3C9CF"/>
<path id="Vector_110" d="M11.9766 15.8545V15.1559H13.1657V15.8545H11.9766Z" fill="#D9E0DF"/>
<path id="Vector_111" d="M12.0117 15.8086V15.2016H13.1333V15.8086H12.0117Z" fill="#E8F0F0"/>
<path id="Vector_112" d="M12.6645 15.2017L13.1333 15.8087H12.9941L12.7572 15.5349L12.8527 15.8087H12.4975L12.0117 15.2017H12.3183L12.5332 15.5052L12.4138 15.2017H12.6645Z" fill="#F4F2EB"/>
<path id="Vector_113" d="M12.5586 15.8423V15.1676H12.5895V15.8423H12.5586Z" fill="#D9E0DF"/>
<path id="Vector_114" d="M8.89844 15.854V15.1554H10.0876V15.854H8.89844Z" fill="#D9E0DF"/>
<path id="Vector_115" d="M8.92969 15.8086V15.2016H10.0513V15.8086H8.92969Z" fill="#E8F0F0"/>
<path id="Vector_116" d="M9.58249 15.2017L10.0513 15.8087H9.91209L9.67497 15.5349L9.77065 15.8087H9.41529L8.92969 15.2017H9.23625L9.45113 15.5052L9.33177 15.2017H9.58249Z" fill="#F4F2EB"/>
<path id="Vector_117" d="M9.47266 15.8423V15.1676H9.50354V15.8423H9.47266Z" fill="#D9E0DF"/>
<path id="Vector_118" d="M10.5508 15.2856H11.5221V16.5578H10.5508V15.2856Z" fill="#D9E0DF"/>
<path id="Vector_119" d="M10.5898 15.3213H11.483V16.5578H10.5898V15.3213Z" fill="#E8F0F0"/>
<path id="Vector_120" d="M11.483 16.0008L10.5898 16.4888V16.344L10.9924 16.0973L10.5898 16.1966V15.8269L11.483 15.3213V15.6403L11.0364 15.8642L11.483 15.7398V16.0008Z" fill="#F4F2EB"/>
<path id="Vector_121" d="M11.0236 15.2949H11.049V16.558H11.0236V15.2949ZM11.0817 15.9517H11.153V15.9634H11.0817V15.9517ZM10.9102 15.9517H10.9815V15.9634H10.9102V15.9517Z" fill="#D9E0DF"/>
<path id="Vector_122" opacity="0.55" d="M9.36719 16.3054H9.20031V16.2387H9.36719V16.3054Z" fill="#D9E0DF"/>
<path id="Vector_123" opacity="0.31" d="M9.27734 16.2388H9.11046V16.172H9.27734V16.2388Z" fill="#D9E0DF"/>
<path id="Vector_124" opacity="0.5" d="M9.19922 16.1714H9.03234V16.1047H9.19922V16.1714Z" fill="#D9E0DF"/>
<path id="Vector_125" opacity="0.35" d="M9.36719 16.1719H9.20031V16.1052H9.36719V16.1719Z" fill="#D9E0DF"/>
<path id="Vector_126" opacity="0.55" d="M9.94531 14.3774H9.77843V14.3107H9.94531V14.3774Z" fill="#D9E0DF"/>
<path id="Vector_127" opacity="0.31" d="M9.85547 14.3105H9.68859V14.2438H9.85547V14.3105Z" fill="#D9E0DF"/>
<path id="Vector_128" opacity="0.5" d="M9.77734 14.2437H9.61046V14.1769H9.77734V14.2437Z" fill="#D9E0DF"/>
<path id="Vector_129" opacity="0.35" d="M9.94531 14.2439H9.77843V14.1772H9.94531V14.2439Z" fill="#D9E0DF"/>
<path id="Vector_130" opacity="0.31" d="M12.9336 16.2725H12.7667V16.2057H12.9336V16.2725Z" fill="#D9E0DF"/>
<path id="Vector_131" opacity="0.5" d="M12.8594 16.2051H12.6925V16.1384H12.8594V16.2051Z" fill="#D9E0DF"/>
<path id="Vector_132" opacity="0.35" d="M13.0234 16.2056H12.8566V16.1388H13.0234V16.2056Z" fill="#D9E0DF"/>
<path id="Vector_133" opacity="0.31" d="M12.3828 14.5049H12.5497V14.5716H12.3828V14.5049Z" fill="#D9E0DF"/>
<path id="Vector_134" opacity="0.5" d="M12.4609 14.5723H12.6278V14.639H12.4609V14.5723Z" fill="#D9E0DF"/>
<path id="Vector_135" opacity="0.35" d="M12.293 14.5718H12.4598V14.6385H12.293V14.5718Z" fill="#D9E0DF"/>
<path id="Vector_136" d="M10.1953 13.7437H10.414V13.9032H10.1953V13.7437ZM10.1953 13.9198H10.414V14.0793H10.1953V13.9198ZM10.1953 14.0958H10.414V14.2553H10.1953V14.0958ZM10.1953 14.272H10.414V14.4315H10.1953V14.272ZM10.1953 14.4481H10.414V14.6077H10.1953V14.4481ZM10.1953 14.6241H10.414V14.7837H10.1953V14.6241ZM10.1953 14.8003H10.414V14.9598H10.1953V14.8003ZM10.1953 14.9765H10.414V15.136H10.1953V14.9765ZM10.1953 15.1525H10.414V15.312H10.1953V15.1525ZM10.1953 15.3286H10.414V15.4881H10.1953V15.3286ZM10.1953 15.5048H10.414V15.6643H10.1953V15.5048ZM10.1953 15.6808H10.414V15.8403H10.1953V15.6808ZM10.1953 15.8569H10.414V16.0165H10.1953V15.8569ZM10.1953 16.0331H10.414V16.1926H10.1953V16.0331ZM10.1953 16.2093H10.414V16.3688H10.1953V16.2093ZM10.1953 16.3853H10.414V16.5448H10.1953V16.3853ZM11.6464 13.7437H11.8651V13.9032H11.6464V13.7437ZM11.6464 13.9198H11.8651V14.0793H11.6464V13.9198ZM11.6464 14.0958H11.8651V14.2553H11.6464V14.0958ZM11.6464 14.272H11.8651V14.4315H11.6464V14.272ZM11.6464 14.4481H11.8651V14.6077H11.6464V14.4481ZM11.6464 14.6241H11.8651V14.7837H11.6464V14.6241ZM11.6464 14.8003H11.8651V14.9598H11.6464V14.8003ZM11.6464 14.9765H11.8651V15.136H11.6464V14.9765ZM11.6464 15.1525H11.8651V15.312H11.6464V15.1525ZM11.6464 15.3286H11.8651V15.4881H11.6464V15.3286ZM11.6464 15.5048H11.8651V15.6643H11.6464V15.5048ZM11.6464 15.6808H11.8651V15.8403H11.6464V15.6808ZM11.6464 15.8569H11.8651V16.0165H11.6464V15.8569ZM11.6464 16.0331H11.8651V16.1926H11.6464V16.0331ZM11.6464 16.2093H11.8651V16.3688H11.6464V16.2093ZM11.6464 16.3853H11.8651V16.5448H11.6464V16.3853Z" fill="#E2D7DE"/>
<path id="Vector_137" d="M11.7557 15.1797H10.3047V13.6661L11.0348 13.2017L11.7557 13.6661V15.1797Z" fill="#EAEFEE"/>
<path id="Vector_138" d="M10.6641 14.2505H11.381V15.1895H10.6641V14.2505Z" fill="#D9E0DF"/>
<path id="Vector_139" d="M10.6914 14.2773H11.3506V15.1901H10.6914V14.2773Z" fill="#E8F0F0"/>
<path id="Vector_140" d="M11.3506 14.7789L10.6914 15.1391V15.0322L10.9885 14.85L10.6914 14.9234V14.6505L11.3506 14.2773V14.5129L11.021 14.678L11.3506 14.5863V14.7789Z" fill="#F4F2EB"/>
<path id="Vector_141" opacity="0.5" d="M11.7556 13.6661V13.9689L11.0346 13.5042L10.3047 13.9689V13.6661L11.0346 13.2017L11.7556 13.6661Z" fill="#E8F0F0"/>
<path id="Vector_142" opacity="0.5" d="M12.6988 13.822H12.0824L11.0368 13.2178L9.991 13.822H9.375L10.7289 13.0401L11.0368 12.8623L11.3449 13.0401L12.6988 13.822Z" fill="#E8F0F0"/>
<path id="Vector_143" d="M11.2413 13.1969L11.0361 13.0784L10.8309 13.1969L9.84766 13.7649L9.95022 13.9427L11.0361 13.3155L12.1219 13.9427L12.2245 13.7649L11.2413 13.1969Z" fill="#E2D7DE"/>
<path id="Vector_144" d="M10.1094 15.1426H11.9356V15.2173H10.1094V15.1426Z" fill="#D9E0DF"/>
<path id="Vector_145" d="M10.1289 14.8022H10.1785V15.1827H10.1289V14.8022Z" fill="#D9E0DF"/>
<path id="Vector_146" opacity="0.5" d="M10.1785 15.0054L10.1289 14.8602V14.8022H10.1785V15.0054Z" fill="#E8F0F0"/>
<path id="Vector_147" d="M10.4766 14.8022H10.5262V15.1827H10.4766V14.8022Z" fill="#D9E0DF"/>
<path id="Vector_148" opacity="0.5" d="M10.5262 15.0054L10.4766 14.8602V14.8022H10.5262V15.0054Z" fill="#E8F0F0"/>
<path id="Vector_149" d="M10.8203 14.8022H10.8699V15.1827H10.8203V14.8022Z" fill="#D9E0DF"/>
<path id="Vector_150" opacity="0.5" d="M10.8699 15.0054L10.8203 14.8602V14.8022H10.8699V15.0054Z" fill="#E8F0F0"/>
<path id="Vector_151" d="M11.1641 14.8022H11.2137V15.1827H11.1641V14.8022Z" fill="#D9E0DF"/>
<path id="Vector_152" opacity="0.5" d="M11.2138 15.0054L11.1641 14.8602V14.8022H11.2138V15.0054Z" fill="#E8F0F0"/>
<path id="Vector_153" d="M11.5078 14.8022H11.5574V15.1827H11.5078V14.8022Z" fill="#D9E0DF"/>
<path id="Vector_154" opacity="0.5" d="M11.5574 15.0054L11.5078 14.8602V14.8022H11.5574V15.0054Z" fill="#E8F0F0"/>
<path id="Vector_155" d="M11.8516 14.8022H11.9012V15.1827H11.8516V14.8022Z" fill="#D9E0DF"/>
<path id="Vector_156" opacity="0.5" d="M11.9012 15.0054L11.8516 14.8602V14.8022H11.9012V15.0054Z" fill="#E8F0F0"/>
<path id="Vector_157" d="M10.0859 14.7803H11.9573V14.8241H10.0859V14.7803Z" fill="#D9E0DF"/>
<path id="Vector_158" opacity="0.31" d="M11.0977 14.0767H10.9308V14.0099H11.0977V14.0767Z" fill="#D3C9CF"/>
<path id="Vector_159" opacity="0.5" d="M11.0195 14.0093H10.8527V13.9426H11.0195V14.0093Z" fill="#D3C9CF"/>
<path id="Vector_160" opacity="0.35" d="M11.1875 14.0098H11.0206V13.943H11.1875V14.0098Z" fill="#D3C9CF"/>
<path id="Vector_161" d="M13.3938 16.5451H8.6828C8.5948 16.5451 8.52344 16.5368 8.52344 16.6248H13.5534C13.5532 16.5368 13.4818 16.5451 13.3938 16.5451Z" fill="#D3C9CF"/>
</g>
</svg>
