<svg width="288" height="288" viewBox="0 0 288 288" fill="none" xmlns="http://www.w3.org/2000/svg">
<path d="M94.5 162C57.2208 162 27 131.779 27 94.5C27 57.2208 57.2208 27 94.5 27C131.779 27 162 57.2208 162 94.5C162 131.779 131.779 162 94.5 162Z" fill="#E0AEF8"/>
<path d="M191.25 129.375C191.25 149.879 207.871 166.5 228.375 166.5C248.879 166.5 265.5 149.879 265.5 129.375C265.5 108.871 248.879 92.25 228.375 92.25C207.871 92.25 191.25 108.871 191.25 129.375Z" fill="#E0AEF8"/>
<path d="M111.61 220.5C111.61 245.844 132.156 266.39 157.5 266.39C182.844 266.39 203.39 245.844 203.39 220.5C203.39 195.156 182.844 174.61 157.5 174.61C132.156 174.61 111.61 195.156 111.61 220.5Z" fill="#E0AEF8"/>
<path d="M27.0013 94.5C27.0013 126.253 48.9259 152.885 78.4625 160.083C63.6515 149.469 54.0013 132.111 54.0013 112.5C54.0013 80.1913 80.1926 54 112.501 54C132.113 54 149.47 63.6503 160.084 78.4612C152.886 48.9247 126.254 27 94.5013 27C57.222 27 27.0013 57.2208 27.0013 94.5Z" fill="#C4BBF9"/>
<path d="M112.502 220.5C112.502 234.493 118.889 246.995 128.907 255.248C127.026 250.017 126.001 244.378 126.001 238.5C126.001 211.162 148.163 189 175.501 189C181.38 189 187.019 190.025 192.25 191.905C183.997 181.887 171.495 175.5 157.502 175.5C132.649 175.5 112.502 195.647 112.502 220.5Z" fill="#C4BBF9"/>
<path d="M22.4989 94.5C22.4989 125.86 42.5477 152.537 70.527 162.413C49.9228 150.857 35.9988 128.804 35.9988 103.5C35.9988 66.2208 66.2196 36 103.499 36C128.804 36 150.856 49.9243 162.412 70.5289C152.536 42.5492 125.859 22.5 94.4989 22.5C54.7344 22.5 22.4989 54.7355 22.4989 94.5Z" fill="#AEDDFF"/>
<path d="M109.827 217.946C109.827 228.241 113.456 237.698 119.518 245.133C117.883 240.219 116.998 234.963 116.998 229.5C116.998 202.162 139.16 180 166.498 180C169.954 180 173.328 180.354 176.584 181.028C169.909 176.958 162.048 174.61 153.631 174.61C129.439 174.61 109.827 194.012 109.827 217.946Z" fill="#AEDDFF"/>
<path d="M22.5005 72.0022C19.8366 79.0625 18.5881 91.1205 18.1306 98.9983C19.1203 116.075 25.7116 131.65 36.0945 143.911C49.4236 155.197 66.6673 166.502 85.5005 166.502C87.0943 166.502 88.6767 165.221 90.2463 163.95C91.6756 162.792 93.0942 161.644 94.5012 161.479C56.4924 157.025 27.0006 124.708 27.0006 85.5025C27.0006 76.7942 28.4557 68.4257 31.136 60.627C27.0006 63.0022 24.6283 66.3628 22.5005 72.0022Z" fill="#FCD53F"/>
<path d="M189.062 132.749C189.112 124.436 192.12 115.766 195.788 112.553C194.306 116.761 193.5 121.288 193.5 126.003C193.5 146.849 209.25 164.017 229.5 166.256C228.804 166.333 228.188 166.702 227.571 167.072C226.879 167.487 226.187 167.902 225.382 167.902C215.344 167.902 206.414 164.571 198.701 156.803C191.57 149.622 189 142.869 189.062 132.749Z" fill="#FCD53F"/>
<path d="M115.681 198.505C115.246 199.19 114.826 199.829 114.421 200.445C112.746 202.992 111.338 205.134 110.295 208.389C108.986 212.474 108.251 218.281 108.051 222.751C108.572 234.394 113.115 244.99 120.324 253.183C129.042 260.851 140.945 267.249 153.468 267.249C154.257 267.249 154.916 266.76 155.575 266.27C156.186 265.817 156.797 265.363 157.512 265.298C132.277 263.03 112.501 241.824 112.501 215.999C112.501 209.841 113.625 203.945 115.681 198.505Z" fill="#FCD53F"/>
<path d="M18.1304 98.9982C18.044 97.5093 18.0002 96.0089 18.0002 94.4982C18.0002 72.3865 27.3815 52.4658 42.381 38.4993C54.6582 30.1067 69.506 25.1982 85.5002 25.1982C92.2594 25.1982 98.8139 26.0749 105.056 27.7206C101.606 27.2444 98.0817 26.9982 94.5002 26.9982C53.761 26.9982 20.4596 58.843 18.1304 98.9982Z" fill="#FF6DC6"/>
<path d="M189.001 130.499C189.001 131.252 189.021 132.001 189.062 132.744C190.191 112.17 206.676 95.6867 227.25 94.5602C226.889 94.5404 226.544 94.3503 226.198 94.1598C225.831 93.9577 225.463 93.7551 225.074 93.7551C210.044 94.5597 205.777 98.1509 198.701 104.199C192.653 111.275 189.001 120.46 189.001 130.499Z" fill="#FF6DC6"/>
<path d="M108.05 222.749C108.017 222.003 108 221.253 108 220.499C108 207.975 112.651 196.537 120.32 187.819C128.905 179.716 139.154 174.399 151.894 173.861C152.274 173.861 152.942 174.292 153.603 174.718C154.237 175.127 154.864 175.532 155.226 175.548C129.688 176.703 109.192 197.208 108.05 222.749Z" fill="#FF6DC6"/>
<path d="M153.001 265.498C140.476 265.498 129.038 260.846 120.319 253.176C129.391 263.49 142.686 269.998 157.5 269.998C170.558 269.998 182.435 264.942 191.28 256.681C202.501 241.814 204.605 232.289 202.501 215.998C202.501 243.336 180.339 265.498 153.001 265.498Z" fill="#FF6DC6"/>
<path d="M225.001 166.498C214.962 166.498 205.777 162.846 198.701 156.798C206.129 165.489 217.171 170.998 229.501 170.998C241.31 170.998 251.94 165.943 259.343 157.879C264.575 149.029 266.719 140.831 266.719 130.274C266.522 129.587 266.422 129.055 266.331 128.575C266.174 127.744 266.046 127.066 265.501 125.998C265.501 148.365 247.368 166.498 225.001 166.498Z" fill="#FF6DC6"/>
<path d="M143.909 152.905C130.58 164.192 113.335 170.998 94.5005 170.998C71.0845 170.998 50.1258 160.478 36.0932 143.906C49.4224 155.192 66.6666 161.998 85.5005 161.998C124.705 161.998 157.022 132.507 161.477 94.4985C161.642 95.9055 162.79 97.3239 163.948 98.7528C165.219 100.322 166.5 101.904 166.5 103.498C166.5 122.331 155.195 139.576 143.909 152.905Z" fill="#FF6DC6"/>
<path d="M63.2813 98.7164C61.0112 98.4114 58.7679 97.8589 56.5952 97.059C55.9256 96.8125 55.2627 96.5425 54.6077 96.2489C49.8591 84.822 52.1316 71.1662 61.4251 61.8726C70.9335 52.3642 85.0083 50.2053 96.5903 55.3958C97.6467 57.9379 98.3556 60.5903 98.7171 63.2804C89.3148 62.0171 79.4515 64.9985 72.2254 72.2245C64.9993 79.4506 62.018 89.314 63.2813 98.7164Z" fill="#EBCAFF"/>
<path d="M208.59 133.407C209.66 133.891 210.786 134.273 211.955 134.542C211.657 133.242 211.499 131.888 211.499 130.498C211.499 120.557 219.558 112.498 229.499 112.498C230.889 112.498 232.1 112.674 233.543 112.954C233.12 110.951 232.408 109.588 232.408 109.588C230.148 108.567 227.64 107.998 224.999 107.998C215.058 107.998 206.999 116.057 206.999 125.998C206.999 128.639 207.568 131.147 208.59 133.407Z" fill="#EBCAFF"/>
<path d="M143.461 224.947C140.939 224.31 138.681 223.282 136.705 221.954C135.175 213.292 139.655 205.354 146.278 200.825C152.901 196.296 163.809 194.397 170.521 198.928C170.833 200.388 170.999 201.918 170.999 203.51C170.999 204.338 170.953 205.155 170.865 205.959C169.651 205.771 168.407 205.674 167.141 205.674C155.468 205.674 145.728 213.946 143.461 224.947Z" fill="#EBCAFF"/>
<path d="M52.8769 52.8726C63.8737 41.8757 80.9786 40.7095 93.271 49.3738C94.7678 51.4967 95.9714 53.7632 96.8817 56.117C85.6057 51.7562 72.3257 54.1251 63.227 63.2238C54.1282 72.3225 51.7593 85.6027 56.1202 96.8787C53.7678 95.9689 51.5026 94.7663 49.3808 93.2707C40.7135 80.978 41.8788 63.8707 52.8769 52.8726Z" fill="#EFD5FF"/>
<path d="M205.723 131.777C206.623 132.404 207.582 132.951 208.592 133.408C207.57 131.148 207.001 128.639 207.001 125.998C207.001 116.057 215.06 107.998 225.001 107.998C227.642 107.998 230.151 108.567 232.41 109.589C231.821 108.42 231.329 107.541 230.779 106.719C227.865 104.689 224.388 102.7 220.567 102.7C216 102.7 210.493 103.917 207.32 106.719C203.585 110.017 201.491 115.871 201.491 121.246C201.491 125.067 203.692 128.863 205.723 131.777Z" fill="#EFD5FF"/>
<path d="M137.328 222.36C134.9 220.868 132.782 218.92 131.094 216.635C126.27 210.106 131.662 197.206 137.32 191.942C144.603 185.167 159.379 184.357 166.685 190.393C168.611 193.002 169.977 196.049 170.606 199.357C167.795 198.214 164.72 197.584 161.499 197.584C148.145 197.584 137.32 208.409 137.32 221.762C137.32 221.962 137.323 222.161 137.328 222.36Z" fill="#EFD5FF"/>
<path d="M45.2289 89.7739C46.7705 91.3155 48.4321 92.6639 50.1837 93.8191C42.1206 81.5936 43.4689 64.9861 54.2289 54.2261C64.9888 43.4662 81.5963 42.1178 93.8218 50.1809C92.6666 48.4294 91.3182 46.7677 89.7766 45.2261C77.4751 32.9246 57.5304 32.9246 45.2289 45.2261C32.9274 57.5277 32.9274 77.4724 45.2289 89.7739Z" fill="white"/>
<path d="M205.725 131.779C201.057 128.527 198.003 123.12 198.003 117C198.003 107.059 206.062 99 216.003 99C222.123 99 227.529 102.054 230.781 106.721C227.867 104.691 224.324 103.5 220.503 103.5C210.562 103.5 202.503 111.559 202.503 121.5C202.503 125.321 203.694 128.865 205.725 131.779Z" fill="white"/>
<path d="M131.736 217.456C128.641 213.652 126.786 208.799 126.786 203.513C126.786 191.302 136.684 181.404 148.894 181.404C156.381 181.404 162.999 185.126 166.998 190.82C163.53 188.897 159.539 187.802 155.292 187.802C141.939 187.802 131.114 198.627 131.114 211.98C131.114 213.863 131.329 215.697 131.736 217.456Z" fill="white"/>
<path d="M85.5 27C66.6662 27 49.422 33.806 36.0927 45.0927C50.1253 28.5205 71.084 18 94.5 18C136.75 18 171 52.2502 171 94.5C171 117.916 160.479 138.875 143.907 152.907C155.194 139.578 162 122.334 162 103.5C162 61.2502 127.75 27 85.5 27Z" fill="#26C9FC"/>
<path d="M198.7 104.2C205.776 98.1521 214.962 94.5 225 94.5C247.368 94.5 265.5 112.632 265.5 135C265.5 145.038 261.848 154.224 255.8 161.3C264.491 153.872 270 142.829 270 130.5C270 108.132 251.868 90 229.5 90C217.171 90 206.128 95.5092 198.7 104.2Z" fill="#26C9FC"/>
<path d="M120.32 187.82C129.038 180.151 140.476 175.5 153 175.5C180.338 175.5 202.5 197.662 202.5 225C202.5 237.524 197.849 248.962 190.18 257.68C200.492 248.608 207 235.314 207 220.5C207 193.162 184.838 171 157.5 171C142.686 171 129.392 177.508 120.32 187.82Z" fill="#26C9FC"/>
</svg>
