<svg width="262" height="519" viewBox="0 0 262 519" fill="none" xmlns="http://www.w3.org/2000/svg">
<path fill-rule="evenodd" clip-rule="evenodd" d="M2.9 59.8778C2.9 39.0499 2.9 28.6359 6.95456 20.6807C10.521 13.6831 16.2119 7.99384 23.2116 4.42838C31.1691 0.375 41.586 0.375 62.42 0.375H199.58C220.414 0.375 230.831 0.375 238.788 4.42838C245.788 7.99384 251.479 13.6831 255.045 20.6807C259.1 28.6359 259.1 39.0499 259.1 59.8778V119.74H260.3C260.963 119.74 261.5 120.278 261.5 120.94V179.123C261.5 179.786 260.963 180.323 260.3 180.323H259.1V459.122C259.1 479.95 259.1 490.364 255.045 498.319C251.479 505.317 245.788 511.006 238.788 514.572C230.831 518.625 220.414 518.625 199.58 518.625H62.42C41.586 518.625 31.1691 518.625 23.2116 514.572C16.2119 511.006 10.521 505.317 6.95456 498.319C2.9 490.364 2.9 479.95 2.9 459.122V191.72H1.7C1.03726 191.72 0.5 191.183 0.5 190.52V155.73C0.5 155.067 1.03726 154.53 1.7 154.53H2.9V144.333H1.7C1.03726 144.333 0.5 143.796 0.5 143.134V108.344C0.5 107.681 1.03726 107.144 1.7 107.144H2.9V90.349H1.7C1.03726 90.349 0.5 89.8119 0.5 89.1493V71.1545C0.5 70.492 1.03726 69.9549 1.7 69.9549H2.9V59.8778ZM18.5 50.5205C18.5 38.4268 18.5 32.38 20.8543 27.7609C22.9251 23.6978 26.2295 20.3943 30.2938 18.3241C34.9143 15.9705 40.9629 15.9705 53.06 15.9705H65.3C66.6255 15.9705 67.7 17.0447 67.7 18.3698V19.5694C67.7 27.1888 73.8785 33.3655 81.5 33.3655H180.5C188.122 33.3655 194.3 27.1888 194.3 19.5694V18.3698C194.3 17.0447 195.375 15.9705 196.7 15.9705H208.94C221.037 15.9705 227.086 15.9705 231.706 18.3241C235.771 20.3943 239.075 23.6978 241.146 27.7609C243.5 32.38 243.5 38.4269 243.5 50.5205V468.48C243.5 480.573 243.5 486.62 241.146 491.239C239.075 495.302 235.771 498.606 231.706 500.676C227.086 503.03 221.037 503.03 208.94 503.03H53.06C40.9629 503.03 34.9143 503.03 30.2938 500.676C26.2295 498.606 22.9251 495.302 20.8543 491.239C18.5 486.62 18.5 480.573 18.5 468.48V50.5205Z" fill="#232323"/>
</svg>
