<svg width="129" height="128" viewBox="0 0 129 128" fill="none" xmlns="http://www.w3.org/2000/svg">
<g id="Wrapped gift">
<path id="Shape" d="M100.052 120H28.9476C24.2634 120 20.5 116.282 20.5 111.655V60.0002L64.0084 47.7598L108.5 60.0002V111.655C108.5 116.243 104.737 120 100.052 120Z" fill="#FCD53F"/>
<path id="Shape_2" d="M108.5 23.3889C108.5 9.8515 92.3188 2.96267 82.634 12.3347L64.5 29.9173L46.366 12.3347C36.6812 2.92262 20.5 9.8515 20.5 23.3889C20.5 28.155 24.3262 32 29.0689 32L64.5 40.6782L99.9312 32C104.674 31.9599 108.5 28.115 108.5 23.3889Z" fill="#2B8AFC"/>
<path id="Shape_3" d="M111.146 32H17.8538C14.8972 32 12.5 34.4034 12.5 37.3677V54.6323C12.5 57.5966 14.8972 60 17.8538 60H111.146C114.103 60 116.5 57.5966 116.5 54.6323V37.3677C116.5 34.4034 114.103 32 111.146 32Z" fill="#FFB02E"/>
<path id="Shape_4" d="M65.5197 12C58.8772 12 53.5 17.4765 53.5 24.2416V120H77.4998V24.2416C77.5393 17.4765 72.1621 12 65.5197 12Z" fill="#2B8AFC"/>
</g>
</svg>
