<svg width="153" height="129" viewBox="0 0 153 129" fill="none" xmlns="http://www.w3.org/2000/svg">
<g id="parent-and-children" clipPath="url(#clip0_7047_12851)">
<path id="Vector" d="M136.651 55.525L132.826 39.25H87.3259L83.5009 55.525C82.4009 60.225 85.9759 64.75 90.8009 64.75H129.376C134.201 64.75 137.776 60.25 136.651 55.525Z" fill="#14294D"/>
<path id="Vector_2" d="M81.8281 127.25H141.578V87.15C141.578 76.975 134.728 68.05 124.903 65.425L118.703 63.775H107.703L101.078 65.35C89.8031 68.025 81.8281 78.1 81.8281 89.675V127.25Z" fill="#2B8AFC"/>
<path id="Vector_3" d="M79.7734 63.75L82.2734 71.25L90.7734 63.75V56.25H79.7734V63.75Z" fill="#FCF1E2"/>
<path id="Vector_4" d="M75.8281 127.25H16.0781V87.15C16.0781 76.975 22.9281 68.05 32.7531 65.425L38.9531 63.775H49.9531L56.5781 65.35C67.8531 68.025 75.8281 78.1 75.8281 89.675V127.25Z" fill="#1F3E75"/>
<path id="Vector_5" d="M49.9531 63.75C49.9531 68.5 43.8781 70.475 41.0781 66.65L38.9531 63.75V56.25H49.9531V63.75ZM110.078 27.25H132.828C136.153 27.25 138.828 29.925 138.828 33.25C138.828 36.575 136.153 39.25 132.828 39.25H110.078V27.25ZM110.078 39.25H87.3281C84.0031 39.25 81.3281 36.575 81.3281 33.25C81.3281 29.925 84.0031 27.25 87.3281 27.25H110.078V39.25ZM47.3281 39.25H24.5781C21.2531 39.25 18.5781 36.575 18.5781 33.25C18.5781 29.925 21.2531 27.25 24.5781 27.25H47.3281V39.25ZM47.3281 27.25H70.0781C73.4031 27.25 76.0781 29.925 76.0781 33.25C76.0781 36.575 73.4031 39.25 70.0781 39.25H47.3281V27.25Z" fill="#F8E1C2"/>
<path id="Vector_6" d="M47.3281 59.25C36.5531 59.25 27.8281 50.525 27.8281 39.75V9.25H66.8281V39.75C66.8281 50.525 58.1031 59.25 47.3281 59.25Z" fill="#F8E1C2"/>
<path id="Vector_7" d="M70.078 27.25H66.828V22.25L63.228 23.825C59.228 25.55 54.678 23.05 54.003 18.75C50.428 22.4 44.503 22.175 41.228 18.225L40.828 17.75C40.078 22.55 34.978 25.35 30.503 23.425L27.828 22.25V27.25H24.578L23.628 25.125C21.378 20.1 22.353 14.2 26.078 10.175L26.778 8.25C27.828 5.3 30.378 3.15 33.453 2.55C36.128 2.05 38.903 2.9 40.828 4.825C42.403 2.875 44.778 1.75 47.303 1.75H48.103C51.728 1.75 55.178 3.375 57.503 6.175L59.428 5.3C61.278 4.475 63.378 4.5 65.203 5.35C68.153 6.75 69.703 10 68.953 13.175L68.928 13.325C71.178 16.1 72.003 19.775 71.103 23.25L70.078 27.25Z" fill="#1F3E75"/>
<path id="Vector_8" d="M110.078 59.25C99.3031 59.25 90.5781 50.525 90.5781 39.75V9.25H129.578V39.75C129.578 50.525 120.853 59.25 110.078 59.25Z" fill="#F8E1C2"/>
<path id="Vector_9" fillRule="evenodd" clipRule="evenodd" d="M16.0781 101.25H29.0781V127.25H16.0781V101.25Z" fill="#FCF1E2"/>
<path id="Vector_10" fillRule="evenodd" clipRule="evenodd" d="M27.8281 90.25H30.3281V101.25H27.8281V90.25Z" fill="#A5D2E9"/>
<path id="Vector_11" fillRule="evenodd" clipRule="evenodd" d="M99.0781 29H105.078V31.5H99.0781V29Z" fill="#1F3E75"/>
<path id="Vector_12" d="M106.328 38.75H103.828V35.25H102.078V32.75H105.078C105.778 32.75 106.328 33.3 106.328 34V38.75Z" fill="#1F3E75"/>
<path id="Vector_13" fillRule="evenodd" clipRule="evenodd" d="M115.078 29H121.078V31.5H115.078V29Z" fill="#1F3E75"/>
<path id="Vector_14" d="M116.328 38.75H113.828V34C113.828 33.3 114.378 32.75 115.078 32.75H118.078V35.25H116.328V38.75Z" fill="#1F3E75"/>
<path id="Vector_15" d="M110.152 47.5C109.877 47.5 109.602 47.4 109.352 47.225L106.277 44.725L107.852 42.775L110.127 44.625L112.252 42.8L113.877 44.7L110.952 47.2C110.727 47.4 110.452 47.5 110.152 47.5Z" fill="#F79392"/>
<path id="Vector_16" fillRule="evenodd" clipRule="evenodd" d="M99.3984 90.25H101.898V127.25H99.3984V90.25Z" fill="#265E87"/>
<path id="Vector_17" fillRule="evenodd" clipRule="evenodd" d="M36.3281 29H42.3281V31.5H36.3281V29Z" fill="#1F3E75"/>
<path id="Vector_18" fillRule="evenodd" clipRule="evenodd" d="M41.0781 34H43.5781V38.75H41.0781V34Z" fill="#1F3E75"/>
<path id="Vector_19" fillRule="evenodd" clipRule="evenodd" d="M52.3281 29H58.3281V31.5H52.3281V29Z" fill="#1F3E75"/>
<path id="Vector_20" fillRule="evenodd" clipRule="evenodd" d="M51.0781 34H53.5781V38.75H51.0781V34Z" fill="#1F3E75"/>
<path id="Vector_21" d="M47.3281 47.075C45.2031 47.075 43.0781 46.275 41.4531 44.65L43.2281 42.875C45.5031 45.15 49.1781 45.15 51.4531 42.875L53.2281 44.65C51.5781 46.25 49.4531 47.075 47.3281 47.075Z" fill="#F79392"/>
<path id="Vector_22" d="M85.9518 21.4L87.3268 27.25H91.5768C95.7268 27.25 99.0768 23.9 99.0768 19.75V16.25L104.827 20.2C111.502 24.8 119.402 27.25 127.502 27.25H132.827L134.202 21.4C136.577 11.375 128.952 1.75 118.627 1.75H101.502C91.2018 1.75 83.5768 11.375 85.9518 21.4Z" fill="#1F3E75"/>
<path id="Vector_23" fillRule="evenodd" clipRule="evenodd" d="M16.0781 101.25H29.0781V108.75H16.0781V101.25Z" fill="#FCF1E2"/>
<path id="Vector_24" fillRule="evenodd" clipRule="evenodd" d="M6.10156 78.25H45.7016V106.25H6.10156V78.25Z" fill="#14294D"/>
<path id="Vector_25" fillRule="evenodd" clipRule="evenodd" d="M106.754 78.4636H146.354V106.464H106.754V78.4636Z" fill="#14294D"/>
<path id="Vector_26" d="M46.8984 127.25H4.89844V124.2C4.89844 118.725 8.44844 113.9 13.6734 112.275L20.8984 110.025H30.8984L38.1234 112.275C43.3484 113.9 46.8984 118.75 46.8984 124.2V127.25Z" fill="#3179AF"/>
<path id="Vector_27" d="M148.102 127.355H106.102V124.305C106.102 118.83 109.652 114.005 114.877 112.38L122.102 110.13H132.102L139.327 112.38C144.552 114.005 148.102 118.855 148.102 124.305V127.355Z" fill="#3179AF"/>
<path id="Vector_28" d="M30.8984 103H20.8984V110L17.3984 111.1C17.3984 114.35 20.0484 117 23.2984 117H28.4984C31.7484 117 34.3984 114.35 34.3984 111.1L30.8984 110V103ZM25.8984 88.75H6.09844C3.22344 88.75 0.898438 86.425 0.898438 83.55V83.475C0.898438 80.6 3.22344 78.275 6.09844 78.275H25.8984V88.75ZM25.8984 78.25H45.6984C48.5734 78.25 50.8984 80.575 50.8984 83.45V83.525C50.8984 86.4 48.5734 88.725 45.6984 88.725H25.8984V78.25Z" fill="#F8E1C2"/>
<path id="Vector_29" d="M132.102 103.104H122.102V110.104L118.602 111.204C118.602 114.454 121.252 117.104 124.502 117.104H129.702C132.952 117.104 135.602 114.454 135.602 111.204L132.102 110.104V103.104ZM127.102 88.8545H107.302C104.427 88.8545 102.102 86.5295 102.102 83.6545V83.5795C102.102 80.7045 104.427 78.3795 107.302 78.3795H127.102V88.8545ZM127.102 78.3545H146.902C149.777 78.3545 152.102 80.6795 152.102 83.5545V83.6295C152.102 86.5045 149.777 88.8295 146.902 88.8295H127.102V78.3545Z" fill="#F8E1C2"/>
<path id="Vector_30" d="M25.8984 106.25C16.4984 106.25 8.89844 98.65 8.89844 89.25V62.75H42.8984V89.25C42.8984 98.65 35.2984 106.25 25.8984 106.25Z" fill="#F8E1C2"/>
<path id="Vector_31" d="M127.102 106.354C117.702 106.354 110.102 98.7545 110.102 89.3545V62.8545H144.102V89.3545C144.102 98.7545 136.502 106.354 127.102 106.354Z" fill="#F8E1C2"/>
<path id="Vector_32" d="M22.8984 88.5H20.3984V85.5H19.1484V83H21.6484C22.3484 83 22.8984 83.55 22.8984 84.25V88.5ZM31.3984 88.5H28.8984V84.25C28.8984 83.55 29.4484 83 30.1484 83H32.6484V85.5H31.3984V88.5Z" fill="#1F3E75"/>
<path id="Vector_33" d="M124.102 88.6045H121.602V85.6045H120.352V83.1045H122.852C123.552 83.1045 124.102 83.6545 124.102 84.3545V88.6045ZM132.602 88.6045H130.102V84.3545C130.102 83.6545 130.652 83.1045 131.352 83.1045H133.852V85.6045H132.602V88.6045Z" fill="#1F3E75"/>
<path id="Vector_34" d="M25.8992 95.975C23.8992 95.975 21.9992 95.1 20.6992 93.575L22.5992 91.95C23.4242 92.925 24.6242 93.475 25.8992 93.475C27.1742 93.475 28.3742 92.925 29.1992 91.95L31.0992 93.575C29.7992 95.1 27.8992 95.975 25.8992 95.975Z" fill="#F79392"/>
<path id="Vector_35" d="M127.098 96.0796C125.098 96.0796 123.198 95.2046 121.898 93.6796L123.798 92.0546C124.623 93.0296 125.823 93.5796 127.098 93.5796C128.373 93.5796 129.573 93.0296 130.398 92.0546L132.298 93.6796C130.998 95.2046 129.098 96.0796 127.098 96.0796Z" fill="#F79392"/>
<path id="Vector_36" d="M6.10156 78.25V71.025C6.10156 62.875 12.7266 56.25 20.8766 56.25H30.9266C39.0766 56.25 45.7016 62.875 45.7016 71.025V78.25H40.5266C37.8266 78.25 35.6516 76.075 35.6516 73.375C35.6516 76.075 33.4766 78.25 30.7766 78.25C28.0766 78.25 25.9016 76.075 25.9016 73.375C25.9016 76.075 23.7266 78.25 21.0266 78.25C18.3266 78.25 16.1516 76.075 16.1516 73.375C16.1516 76.075 13.9766 78.25 11.2766 78.25H6.10156Z" fill="#1F3E75"/>
<path id="Vector_37" d="M107.301 78.3545V71.1295C107.301 62.9795 113.926 56.3545 122.076 56.3545H132.126C140.276 56.3545 146.901 62.9795 146.901 71.1295V78.3545H141.726C139.026 78.3545 136.851 76.1795 136.851 73.4795C136.851 76.1795 134.676 78.3545 131.976 78.3545C129.276 78.3545 127.101 76.1795 127.101 73.4795C127.101 76.1795 124.926 78.3545 122.226 78.3545C119.526 78.3545 117.351 76.1795 117.351 73.4795C117.351 76.1795 115.176 78.3545 112.476 78.3545H107.301Z" fill="#1F3E75"/>
<path id="Vector_38" d="M45.6484 72.225V71.025C45.6484 69.725 45.4984 68.45 45.1734 67.25C45.1234 67.25 45.0984 67.25 45.0484 67.25C43.7734 67.25 43.2234 66.725 42.0734 65.525C40.7484 64.15 38.9484 62.25 35.4734 62.25C31.9984 62.25 30.1984 64.15 28.8734 65.525C27.7234 66.725 27.1734 67.25 25.8984 67.25C24.6234 67.25 24.0734 66.725 22.9234 65.525C21.5984 64.15 19.7984 62.25 16.3234 62.25C12.8484 62.25 11.0484 64.15 9.72344 65.525C8.57344 66.725 8.02344 67.25 6.74844 67.25C6.69844 67.25 6.67344 67.25 6.62344 67.25C6.29844 68.45 6.14844 69.725 6.14844 71.025V72.225C6.39844 72.25 6.54844 72.25 6.74844 72.25C10.2234 72.25 12.0234 70.35 13.3234 68.975C14.4734 67.775 15.0234 67.25 16.2984 67.25C17.5734 67.25 18.1234 67.775 19.2734 68.975C20.5984 70.35 22.3984 72.25 25.8734 72.25C29.3484 72.25 31.1484 70.35 32.4734 68.975C33.6234 67.775 34.1734 67.25 35.4484 67.25C36.7234 67.25 37.2984 67.775 38.4234 68.975C39.7484 70.35 41.5484 72.25 44.9984 72.25C45.2484 72.25 45.3984 72.25 45.6484 72.225Z" fill="#2A539D"/>
<path id="Vector_39" d="M146.852 72.3295V71.1295C146.852 69.8295 146.702 68.5545 146.377 67.3545C146.327 67.3545 146.302 67.3545 146.252 67.3545C144.977 67.3545 144.427 66.8295 143.277 65.6295C141.952 64.2545 140.152 62.3545 136.677 62.3545C133.202 62.3545 131.402 64.2545 130.077 65.6295C128.927 66.8295 128.377 67.3545 127.102 67.3545C125.827 67.3545 125.277 66.8295 124.127 65.6295C122.802 64.2545 121.002 62.3545 117.527 62.3545C114.052 62.3545 112.252 64.2545 110.927 65.6295C109.777 66.8295 109.227 67.3545 107.952 67.3545C107.902 67.3545 107.877 67.3545 107.827 67.3545C107.502 68.5545 107.352 69.8295 107.352 71.1295V72.3295C107.602 72.3545 107.752 72.3545 107.952 72.3545C111.427 72.3545 113.227 70.4545 114.527 69.0795C115.677 67.8795 116.227 67.3545 117.502 67.3545C118.777 67.3545 119.327 67.8795 120.477 69.0795C121.802 70.4545 123.602 72.3545 127.077 72.3545C130.552 72.3545 132.352 70.4545 133.677 69.0795C134.827 67.8795 135.377 67.3545 136.652 67.3545C137.927 67.3545 138.502 67.8795 139.627 69.0795C140.952 70.4545 142.752 72.3545 146.202 72.3545C146.452 72.3545 146.602 72.3545 146.852 72.3295Z" fill="#2A539D"/>
<path id="Vector_40" d="M13.8984 90.625C13.8984 91.8 15.1234 92.75 16.6484 92.75C18.1734 92.75 19.3984 91.8 19.3984 90.625C19.3984 89.45 18.1734 88.5 16.6484 88.5C15.1234 88.5 13.8984 89.45 13.8984 90.625ZM37.8984 90.625C37.8984 91.8 36.6734 92.75 35.1484 92.75C33.6234 92.75 32.3984 91.8 32.3984 90.625C32.3984 89.45 33.6234 88.5 35.1484 88.5C36.6734 88.5 37.8984 89.45 37.8984 90.625ZM75.8984 88.75H56.0984C53.2234 88.75 50.8984 86.425 50.8984 83.55V83.475C50.8984 80.6 53.2234 78.275 56.0984 78.275H75.8984V88.75ZM75.8984 78.25H95.6984C98.5734 78.25 100.898 80.575 100.898 83.45V83.525C100.898 86.4 98.5734 88.725 95.6984 88.725H75.8984V78.25Z" fill="#F8E1C2"/>
<path id="Vector_41" d="M96.8984 127.25H54.8984V124.2C54.8984 118.725 58.4484 113.9 63.6734 112.275L70.8984 110.025H80.8984L88.1234 112.275C93.3484 113.9 96.8984 118.75 96.8984 124.2V127.25Z" fill="#1F3E75"/>
<path id="Vector_42" d="M80.8984 103H70.8984V110L67.3984 111.1C72.4984 114.65 79.2984 114.65 84.3984 111.1L80.8984 110V103Z" fill="#F8E1C2"/>
<path id="Vector_43" d="M75.8984 106.25C66.4984 106.25 58.8984 98.65 58.8984 89.25V62.75H92.8984V89.25C92.8984 98.65 85.2984 106.25 75.8984 106.25Z" fill="#F8E1C2"/>
<path id="Vector_44" fillRule="evenodd" clipRule="evenodd" d="M70.3984 84.25H72.8984V88.5H70.3984V84.25Z" fill="#1F3E75"/>
<path id="Vector_45" fillRule="evenodd" clipRule="evenodd" d="M78.8984 84.25H81.3984V88.5H78.8984V84.25Z" fill="#1F3E75"/>
<path id="Vector_46" d="M75.8992 95.975C73.8992 95.975 71.9992 95.1 70.6992 93.575L72.5992 91.95C73.4242 92.925 74.6242 93.475 75.8992 93.475C77.1742 93.475 78.3742 92.925 79.1992 91.95L81.0992 93.575C79.7992 95.1 77.8992 95.975 75.8992 95.975Z" fill="#F79392"/>
<path id="Vector_47" d="M95.5508 62.75L88.3258 56.25L82.1258 60.575L75.9258 56.25L69.7258 60.575L63.5258 56.25L56.3008 62.75V78.25H59.1258C61.9758 78.25 64.3008 75.925 64.3008 73.075V67.25L75.9508 69.65L87.6008 67.25V73.075C87.6008 75.925 89.9258 78.25 92.7758 78.25H95.6008L95.5508 62.75Z" fill="#1F3E75"/>
<path id="Vector_48" d="M63.8984 90.625C63.8984 91.8 65.1234 92.75 66.6484 92.75C68.1734 92.75 69.3984 91.8 69.3984 90.625C69.3984 89.45 68.1734 88.5 66.6484 88.5C65.1234 88.5 63.8984 89.45 63.8984 90.625ZM87.8984 90.625C87.8984 91.8 86.6734 92.75 85.1484 92.75C83.6234 92.75 82.3984 91.8 82.3984 90.625C82.3984 89.45 83.6234 88.5 85.1484 88.5C86.6734 88.5 87.8984 89.45 87.8984 90.625Z" fill="#FCF1E2"/>
</g>
<defs>
<clipPath id="clip0_7047_12851">
<rect width="151.273" height="128" fill="white" transform="translate(0.863281 0.5)"/>
</clipPath>
</defs>
</svg>
