<svg width="36" height="36" viewBox="0 0 36 36" fill="none" xmlns="http://www.w3.org/2000/svg">
<g id="typcn:plus">
<path id="Vector" d="M27 15H21V9C21 8.20435 20.6839 7.44129 20.1213 6.87868C19.5587 6.31607 18.7956 6 18 6C17.2044 6 16.4413 6.31607 15.8787 6.87868C15.3161 7.44129 15 8.20435 15 9L15.1065 15H9C8.20435 15 7.44129 15.3161 6.87868 15.8787C6.31607 16.4413 6 17.2044 6 18C6 18.7956 6.31607 19.5587 6.87868 20.1213C7.44129 20.6839 8.20435 21 9 21L15.1065 20.8935L15 27C15 27.7956 15.3161 28.5587 15.8787 29.1213C16.4413 29.6839 17.2044 30 18 30C18.7956 30 19.5587 29.6839 20.1213 29.1213C20.6839 28.5587 21 27.7956 21 27V20.8935L27 21C27.7956 21 28.5587 20.6839 29.1213 20.1213C29.6839 19.5587 30 18.7956 30 18C30 17.2044 29.6839 16.4413 29.1213 15.8787C28.5587 15.3161 27.7956 15 27 15Z" fill="#C6D3FF"/>
</g>
</svg>
