<svg width="129" height="129" viewBox="0 0 129 129" fill="none" xmlns="http://www.w3.org/2000/svg">
<g id="student">
<path id="Vector" d="M86.32 88.1309L82.6836 86.3127H46.32L42.6836 88.1309L64.5018 122.682L86.32 88.1309Z" fill="#E2E4E5"/>
<path id="Vector_2" d="M91.7743 46.3182C89.9561 46.3182 89.9561 48.3382 89.9561 48.3382V46.3182C89.9591 44.4618 89.9185 42.6055 89.8343 40.7509C82.4852 33.5928 64.5016 33.5909 64.5016 33.5909C64.5016 33.5909 46.5179 33.5928 39.1688 40.7509C39.0847 42.6055 39.044 44.4618 39.047 46.3182V60.8582L46.3198 79.04L55.6016 86.3055C56.1133 86.8798 56.7407 87.3394 57.4426 87.654C58.1445 87.9686 58.9051 88.1311 59.6743 88.1309H69.3288C70.8852 88.1309 72.367 87.4673 73.4016 86.3055L82.6834 79.04L88.5143 64.4637C93.6688 64.0928 95.4107 56.2746 95.4107 50.3582C95.4107 48.3382 93.5925 46.3182 91.7743 46.3182Z" fill="#F8E1C2"/>
<path id="Vector_3" d="M39.0444 46.3182V48.3382C39.0444 48.3382 39.0444 46.3182 37.2262 46.3182C35.408 46.3182 33.5898 48.3382 33.5898 50.3582C33.5898 56.2728 35.3317 64.0928 40.4862 64.4637L46.3171 79.04L55.5989 86.3055C56.1106 86.8798 56.738 87.3394 57.44 87.654C58.1419 87.9686 58.9025 88.1311 59.6717 88.1309H64.4989V33.5909C64.4989 33.5909 46.5153 33.5928 39.1662 40.7509C39.082 42.6055 39.0414 44.4618 39.0444 46.3182Z" fill="#F8E1C2"/>
<path id="Vector_4" d="M55.4102 68.1309H73.592C73.592 68.1309 73.592 73.5854 64.5011 73.5854C55.4102 73.5854 55.4102 68.1309 55.4102 68.1309Z" fill="#F79392"/>
<path id="Vector_5" d="M75.4095 50.54C77.5749 50.54 79.4967 51.0236 80.8295 51.7727C80.9586 50.7381 80.5167 49.6745 79.4695 48.8818C77.5967 47.4618 74.5567 47.4618 72.6822 48.8818C71.8386 49.5218 71.3931 50.3381 71.3131 51.1727C72.6353 50.7415 74.0188 50.5278 75.4095 50.54ZM53.5786 50.54C51.4131 50.54 49.4913 51.0236 48.1586 51.7727C48.0295 50.7381 48.4713 49.6745 49.5186 48.8818C51.3913 47.4618 54.4313 47.4618 56.3058 48.8818C57.1495 49.5218 57.5949 50.3381 57.6749 51.1727C56.3527 50.7415 54.9693 50.5278 53.5786 50.54Z" fill="#3E3E3F"/>
<path id="Vector_6" d="M69.3255 88.1309H59.671C58.9017 88.1312 58.1412 87.9686 57.4393 87.654C56.7373 87.3394 56.1099 86.8798 55.5982 86.3055L46.3164 79.04V87.2219C46.3164 87.2219 46.3164 100.858 64.4982 100.858C82.68 100.858 82.68 87.2219 82.68 87.2219V79.04L73.3982 86.3055C72.8865 86.8798 72.2591 87.3394 71.5572 87.654C70.8553 87.9686 70.0947 88.1312 69.3255 88.1309Z" fill="#F4D0A1"/>
<g id="Group">
<path id="Vector_7" d="M64.5014 33.5909C64.5014 33.5909 63.1232 33.5909 60.9778 33.7419V43.9691C67.7396 43.9691 71.836 39.0891 74.2032 34.4528C68.8832 33.5928 64.5014 33.5909 64.5014 33.5909ZM47.9905 36.0128C44.5414 37.0855 41.2796 38.6309 39.0469 40.8637C39.0469 47.3037 43.2705 50.4091 43.2705 50.4091C42.736 45.0346 42.7069 41.5328 47.9905 36.0128ZM49.7105 35.5219V43.9709C54.9196 43.9709 59.0723 36.6 60.4705 33.7819C57.6251 34.0019 53.6414 34.4819 49.7105 35.5219ZM85.1269 37.6V50.4091C89.6505 50.4091 89.9378 41.9346 89.9541 40.8637C88.6432 39.5509 86.976 38.48 85.1269 37.6ZM77.0778 34.9928V43.9709C83.176 43.9709 84.9414 38.2055 85.1105 37.5928C82.6251 36.4109 79.8123 35.5782 77.0778 34.9928Z" fill="#3E3E3F"/>
</g>
<path id="Vector_8" d="M55.5982 86.3055L46.3164 79.04V87.2219C46.3164 87.2219 46.3164 100.858 64.4982 100.858V88.1309H59.671C58.9017 88.1312 58.1412 87.9686 57.4393 87.654C56.7373 87.3394 56.1099 86.8798 55.5982 86.3055Z" fill="#F8E1C2"/>
<path id="Vector_9" d="M27.2108 61.6727V26C25.9959 25.5666 24.7837 25.1254 23.5744 24.6764V61.6727C18.829 64.8 21.7563 74.1273 21.7563 79.0455H29.029C29.029 74.1273 31.9581 64.8 27.2108 61.6727Z" fill="#FA5655"/>
<path id="Vector_10" d="M113.592 20.8637C113.592 19.0455 68.1374 6.31824 64.5011 6.31824C60.8647 6.31824 15.4102 19.0455 15.4102 20.8637C15.4102 22.0001 28.9229 26.6946 39.0465 30.051V40.8637C46.3192 33.591 64.5011 33.591 64.5011 33.591C64.5011 33.591 82.6829 33.591 89.9556 40.8637V30.051C100.079 26.6946 113.592 22.0001 113.592 20.8637Z" fill="#2B8AFC"/>
<path id="Vector_11" d="M86.2546 88.2437L86.3183 88.1364L82.6819 86.3182L64.5273 95.3746L75.0601 105.967L86.2546 88.2437Z" fill="white"/>
<path id="Vector_12" d="M71.772 122.682L66.6829 104.136L69.9538 100.867L64.4647 95.3691L59.0138 100.82L62.3193 104.124L57.2266 122.682H71.772Z" fill="#DF2C2C"/>
<path id="Vector_13" d="M64.4993 122.682V95.4037L64.4647 95.3691L59.0138 100.82L62.3193 104.124L57.2266 122.682H64.4993Z" fill="#FA5655"/>
<path id="Vector_14" d="M42.7472 88.2437L42.6836 88.1364L46.32 86.3182L64.4745 95.3746L53.9418 105.967L42.7472 88.2437Z" fill="white"/>
<path id="Vector_15" d="M6.31641 122.682L13.5891 102.682C14.7079 100.258 16.6763 98.3285 19.1219 97.2582L42.68 88.1364L64.4982 122.682H6.31641ZM122.68 122.682L115.407 102.682C114.289 100.258 112.32 98.3285 109.875 97.2582L86.3164 88.1364L64.4982 122.682H122.68Z" fill="#2B8AFC"/>
<path id="Vector_16" d="M64.4982 122.682L42.68 88.1364L26.3164 93.5909L57.2255 122.682H64.4982ZM64.4982 122.682L86.3164 88.1364L102.68 93.5909L71.771 122.682H64.4982Z" fill="#9E9FA0"/>
</g>
</svg>
