<svg width="498" height="315" viewBox="0 0 498 315" fill="none" xmlns="http://www.w3.org/2000/svg">
<g clipPath="url(#clip0_3746_33582)">
<g clipPath="url(#clip1_3746_33582)">
<rect width="498" height="315" fill="#2B8AFC"/>
<g clipPath="url(#clip2_3746_33582)">
<circle cx="436.5" cy="-99" r="162.75" fill="#13277E" stroke="#F9F9F9" stroke-width="46.5"/>
<circle cx="417.75" cy="330.75" r="68.25" fill="#13277E"/>
<circle opacity="0.9" cx="-63.75" cy="167.25" r="131.25" fill="#13277E"/>
</g>
</g>
<path d="M31.59 63C31.37 63 31.19 62.93 31.05 62.79C30.91 62.65 30.84 62.47 30.84 62.25V46.17H25.38C25.18 46.17 25.01 46.1 24.87 45.96C24.73 45.82 24.66 45.65 24.66 45.45V42.75C24.66 42.53 24.73 42.35 24.87 42.21C25.01 42.07 25.18 42 25.38 42H41.1C41.32 42 41.5 42.07 41.64 42.21C41.78 42.35 41.85 42.53 41.85 42.75V45.45C41.85 45.65 41.78 45.82 41.64 45.96C41.5 46.1 41.32 46.17 41.1 46.17H35.67V62.25C35.67 62.47 35.6 62.65 35.46 62.79C35.32 62.93 35.14 63 34.92 63H31.59ZM51.8756 54.18L47.4056 63H42.5156L49.6256 49.92V41.58H54.1256V49.77L61.2356 63H56.3156L51.8756 54.18ZM68.8263 63C68.6063 63 68.4263 62.93 68.2863 62.79C68.1463 62.65 68.0763 62.47 68.0763 62.25V46.17H62.6163C62.4163 46.17 62.2463 46.1 62.1063 45.96C61.9663 45.82 61.8963 45.65 61.8963 45.45V42.75C61.8963 42.53 61.9663 42.35 62.1063 42.21C62.2463 42.07 62.4163 42 62.6163 42H78.3363C78.5563 42 78.7363 42.07 78.8763 42.21C79.0163 42.35 79.0863 42.53 79.0863 42.75V45.45C79.0863 45.65 79.0163 45.82 78.8763 45.96C78.7363 46.1 78.5563 46.17 78.3363 46.17H72.9063V62.25C72.9063 62.47 72.8363 62.65 72.6963 62.79C72.5563 62.93 72.3763 63 72.1563 63H68.8263Z" fill="#F9F9F9"/>
<path d="M26.64 269.5C26.464 269.5 26.328 269.452 26.232 269.356C26.136 269.244 26.088 269.108 26.088 268.948V253.276C26.088 253.1 26.136 252.964 26.232 252.868C26.328 252.756 26.464 252.7 26.64 252.7H36.552C36.728 252.7 36.864 252.756 36.96 252.868C37.056 252.964 37.104 253.1 37.104 253.276V254.188C37.104 254.364 37.056 254.5 36.96 254.596C36.864 254.692 36.728 254.74 36.552 254.74H28.392V259.996H36.024C36.2 259.996 36.336 260.052 36.432 260.164C36.528 260.26 36.576 260.396 36.576 260.572V261.46C36.576 261.62 36.528 261.756 36.432 261.868C36.336 261.964 36.2 262.012 36.024 262.012H28.392V267.46H36.744C36.92 267.46 37.056 267.508 37.152 267.604C37.248 267.7 37.296 267.836 37.296 268.012V268.948C37.296 269.108 37.248 269.244 37.152 269.356C37.056 269.452 36.92 269.5 36.744 269.5H26.64ZM39.7547 269.5C39.6267 269.5 39.5067 269.452 39.3947 269.356C39.2987 269.26 39.2507 269.14 39.2507 268.996C39.2507 268.948 39.2587 268.892 39.2747 268.828C39.3067 268.748 39.3547 268.66 39.4187 268.564L43.5947 263.116L39.6827 257.956C39.6187 257.86 39.5707 257.78 39.5387 257.716C39.5227 257.652 39.5147 257.588 39.5147 257.524C39.5147 257.38 39.5627 257.26 39.6587 257.164C39.7547 257.068 39.8747 257.02 40.0187 257.02H41.2427C41.4187 257.02 41.5467 257.068 41.6267 257.164C41.7227 257.244 41.8027 257.324 41.8667 257.404L45.0587 261.556L48.2507 257.428C48.3147 257.348 48.3867 257.26 48.4667 257.164C48.5627 257.068 48.6987 257.02 48.8747 257.02H50.0507C50.1947 257.02 50.3147 257.068 50.4107 257.164C50.5067 257.26 50.5547 257.38 50.5547 257.524C50.5547 257.588 50.5387 257.652 50.5067 257.716C50.4907 257.78 50.4507 257.86 50.3867 257.956L46.4267 263.164L50.6027 268.564C50.6667 268.66 50.7067 268.74 50.7227 268.804C50.7547 268.868 50.7707 268.932 50.7707 268.996C50.7707 269.14 50.7227 269.26 50.6267 269.356C50.5307 269.452 50.4107 269.5 50.2667 269.5H48.9947C48.8347 269.5 48.7067 269.46 48.6107 269.38C48.5147 269.3 48.4347 269.22 48.3707 269.14L44.9867 264.748L41.6027 269.14C41.5387 269.204 41.4587 269.284 41.3627 269.38C41.2827 269.46 41.1547 269.5 40.9787 269.5H39.7547ZM53.8442 274.06C53.6842 274.06 53.5482 274.004 53.4362 273.892C53.3402 273.796 53.2922 273.668 53.2922 273.508V257.572C53.2922 257.412 53.3402 257.284 53.4362 257.188C53.5482 257.076 53.6842 257.02 53.8442 257.02H54.9482C55.1082 257.02 55.2362 257.076 55.3322 257.188C55.4442 257.284 55.5002 257.412 55.5002 257.572V258.628C55.8842 258.1 56.3962 257.66 57.0362 257.308C57.6762 256.956 58.4762 256.78 59.4362 256.78C60.3322 256.78 61.0922 256.932 61.7162 257.236C62.3562 257.54 62.8762 257.956 63.2762 258.484C63.6922 259.012 64.0042 259.612 64.2122 260.284C64.4202 260.956 64.5322 261.676 64.5482 262.444C64.5642 262.7 64.5722 262.972 64.5722 263.26C64.5722 263.548 64.5642 263.82 64.5482 264.076C64.5322 264.828 64.4202 265.548 64.2122 266.236C64.0042 266.908 63.6922 267.508 63.2762 268.036C62.8762 268.548 62.3562 268.964 61.7162 269.284C61.0922 269.588 60.3322 269.74 59.4362 269.74C58.5082 269.74 57.7242 269.572 57.0842 269.236C56.4602 268.884 55.9482 268.452 55.5482 267.94V273.508C55.5482 273.668 55.5002 273.796 55.4042 273.892C55.3082 274.004 55.1722 274.06 54.9962 274.06H53.8442ZM58.9322 267.796C59.7642 267.796 60.4122 267.62 60.8762 267.268C61.3562 266.9 61.7002 266.428 61.9082 265.852C62.1162 265.26 62.2362 264.628 62.2682 263.956C62.2842 263.492 62.2842 263.028 62.2682 262.564C62.2362 261.892 62.1162 261.268 61.9082 260.692C61.7002 260.1 61.3562 259.628 60.8762 259.276C60.4122 258.908 59.7642 258.724 58.9322 258.724C58.1482 258.724 57.5082 258.908 57.0122 259.276C56.5322 259.644 56.1722 260.116 55.9322 260.692C55.7082 261.252 55.5802 261.828 55.5482 262.42C55.5322 262.676 55.5242 262.98 55.5242 263.332C55.5242 263.684 55.5322 263.996 55.5482 264.268C55.5642 264.828 55.6922 265.38 55.9322 265.924C56.1882 266.468 56.5642 266.916 57.0602 267.268C57.5562 267.62 58.1802 267.796 58.9322 267.796Z" fill="#F9F9F9"/>
<path d="M105.9 252.929C110.37 252.929 114 256.499 114 260.999C114 265.439 110.37 269.054 105.9 269.054C103.725 269.054 101.7 268.214 100.17 266.699L96 263.009L91.755 266.774C90.3 268.229 88.26 269.069 86.1 269.069C81.63 269.069 78 265.439 78 260.999C78 256.559 81.63 252.929 86.1 252.929C88.26 252.929 90.3 253.769 91.83 255.299L96 258.989L100.245 255.224C101.7 253.769 103.74 252.929 105.9 252.929ZM89.7 264.584L93.75 260.999L89.76 257.474C88.74 256.454 87.465 255.929 86.1 255.929C83.295 255.929 81 258.194 81 260.999C81 263.804 83.295 266.069 86.1 266.069C87.465 266.069 88.74 265.544 89.7 264.584ZM102.3 257.414L98.25 260.999L102.24 264.524C103.26 265.544 104.55 266.069 105.9 266.069C108.705 266.069 111 263.804 111 260.999C111 258.194 108.705 255.929 105.9 255.929C104.535 255.929 103.26 256.454 102.3 257.414Z" fill="#F9F9F9"/>
<path d="M163.08 178.5C162.64 178.5 162.28 178.36 162 178.08C161.72 177.8 161.58 177.44 161.58 177V173.4C161.58 173.08 161.66 172.66 161.82 172.14C162.02 171.58 162.44 171.04 163.08 170.52L171 162.66C173.92 160.42 176.28 158.52 178.08 156.96C179.92 155.4 181.28 153.98 182.16 152.7C183.04 151.42 183.48 150.18 183.48 148.98C183.48 147.42 183.04 146.14 182.16 145.14C181.32 144.1 179.94 143.58 178.02 143.58C176.74 143.58 175.66 143.86 174.78 144.42C173.94 144.94 173.28 145.64 172.8 146.52C172.32 147.4 172 148.36 171.84 149.4C171.72 149.92 171.46 150.28 171.06 150.48C170.7 150.68 170.32 150.78 169.92 150.78H163.56C163.16 150.78 162.84 150.66 162.6 150.42C162.36 150.14 162.24 149.84 162.24 149.52C162.28 147.68 162.66 145.94 163.38 144.3C164.14 142.66 165.2 141.2 166.56 139.92C167.92 138.64 169.56 137.64 171.48 136.92C173.4 136.16 175.58 135.78 178.02 135.78C181.38 135.78 184.2 136.34 186.48 137.46C188.76 138.54 190.48 140.04 191.64 141.96C192.8 143.88 193.38 146.1 193.38 148.62C193.38 150.54 192.98 152.32 192.18 153.96C191.42 155.6 190.3 157.18 188.82 158.7C187.34 160.18 185.58 161.72 183.54 163.32L176.46 170.4H192.78C193.22 170.4 193.58 170.54 193.86 170.82C194.14 171.1 194.28 171.46 194.28 171.9V177C194.28 177.44 194.14 177.8 193.86 178.08C193.58 178.36 193.22 178.5 192.78 178.5H163.08ZM215.807 179.16C212.207 179.16 209.187 178.58 206.747 177.42C204.307 176.26 202.447 174.74 201.167 172.86C199.927 170.98 199.267 168.98 199.187 166.86C199.187 166.5 199.307 166.2 199.547 165.96C199.787 165.72 200.087 165.6 200.447 165.6H207.227C207.707 165.6 208.087 165.72 208.367 165.96C208.687 166.16 208.927 166.44 209.087 166.8C209.487 167.88 210.007 168.76 210.647 169.44C211.327 170.12 212.107 170.62 212.987 170.94C213.867 171.26 214.807 171.42 215.807 171.42C217.087 171.42 218.267 171.16 219.347 170.64C220.427 170.08 221.287 169.28 221.927 168.24C222.567 167.2 222.887 165.92 222.887 164.4C222.887 163.08 222.587 161.92 221.987 160.92C221.387 159.92 220.547 159.14 219.467 158.58C218.387 158.02 217.167 157.74 215.807 157.74C214.767 157.74 213.907 157.86 213.227 158.1C212.587 158.34 212.047 158.64 211.607 159C211.167 159.32 210.767 159.62 210.407 159.9C210.047 160.14 209.647 160.26 209.207 160.26H202.547C202.187 160.26 201.867 160.14 201.587 159.9C201.347 159.62 201.227 159.3 201.227 158.94L203.327 138.24C203.407 137.68 203.607 137.26 203.927 136.98C204.287 136.66 204.707 136.5 205.187 136.5H228.467C228.907 136.5 229.267 136.64 229.547 136.92C229.827 137.2 229.967 137.56 229.967 138V142.8C229.967 143.2 229.827 143.54 229.547 143.82C229.267 144.1 228.907 144.24 228.467 144.24H211.127L210.227 153.06C211.027 152.54 212.007 152.08 213.167 151.68C214.367 151.24 216.027 151.02 218.147 151.02C220.067 151.02 221.887 151.34 223.607 151.98C225.367 152.58 226.927 153.48 228.287 154.68C229.647 155.88 230.707 157.32 231.467 159C232.267 160.64 232.667 162.52 232.667 164.64C232.667 167.52 231.987 170.06 230.627 172.26C229.267 174.42 227.327 176.12 224.807 177.36C222.287 178.56 219.287 179.16 215.807 179.16ZM254.978 179.1C252.098 179.1 249.618 178.7 247.538 177.9C245.498 177.06 243.798 175.92 242.438 174.48C241.118 173 240.118 171.3 239.438 169.38C238.798 167.42 238.418 165.34 238.298 163.14C238.258 162.06 238.218 160.86 238.178 159.54C238.178 158.18 238.178 156.82 238.178 155.46C238.218 154.1 238.258 152.86 238.298 151.74C238.378 149.54 238.758 147.48 239.438 145.56C240.158 143.64 241.198 141.96 242.558 140.52C243.918 139.08 245.618 137.96 247.658 137.16C249.738 136.32 252.178 135.9 254.978 135.9C257.778 135.9 260.198 136.32 262.238 137.16C264.278 137.96 265.978 139.08 267.338 140.52C268.698 141.96 269.718 143.64 270.398 145.56C271.118 147.48 271.538 149.54 271.658 151.74C271.698 152.86 271.718 154.1 271.718 155.46C271.758 156.82 271.758 158.18 271.718 159.54C271.718 160.86 271.698 162.06 271.658 163.14C271.538 165.34 271.138 167.42 270.458 169.38C269.778 171.3 268.758 173 267.398 174.48C266.078 175.92 264.378 177.06 262.298 177.9C260.258 178.7 257.818 179.1 254.978 179.1ZM254.978 171.3C257.298 171.3 258.998 170.54 260.078 169.02C261.158 167.5 261.738 165.44 261.818 162.84C261.858 161.68 261.878 160.48 261.878 159.24C261.918 158 261.918 156.76 261.878 155.52C261.878 154.28 261.858 153.12 261.818 152.04C261.738 149.56 261.158 147.54 260.078 145.98C258.998 144.42 257.298 143.62 254.978 143.58C252.618 143.62 250.898 144.42 249.818 145.98C248.778 147.54 248.218 149.56 248.138 152.04C248.098 153.12 248.058 154.28 248.018 155.52C248.018 156.76 248.018 158 248.018 159.24C248.058 160.48 248.098 161.68 248.138 162.84C248.218 165.44 248.798 167.5 249.878 169.02C250.958 170.54 252.658 171.3 254.978 171.3ZM292.038 178.5C291.638 178.5 291.298 178.36 291.018 178.08C290.738 177.8 290.598 177.44 290.598 177V172.98C290.598 172.58 290.678 172.22 290.838 171.9C291.038 171.58 291.258 171.28 291.498 171L306.198 154.26H292.578C292.138 154.26 291.778 154.12 291.498 153.84C291.218 153.56 291.078 153.22 291.078 152.82V148.8C291.078 148.36 291.218 148 291.498 147.72C291.778 147.44 292.138 147.3 292.578 147.3H315.978C316.418 147.3 316.778 147.44 317.058 147.72C317.338 148 317.478 148.36 317.478 148.8V153.12C317.478 153.48 317.398 153.8 317.238 154.08C317.078 154.36 316.878 154.64 316.638 154.92L302.238 171.54H317.238C317.638 171.54 317.978 171.68 318.258 171.96C318.538 172.24 318.678 172.58 318.678 172.98V177C318.678 177.44 318.538 177.8 318.258 178.08C317.978 178.36 317.638 178.5 317.238 178.5H292.038ZM325.999 178.5C325.559 178.5 325.199 178.36 324.919 178.08C324.639 177.8 324.499 177.44 324.499 177V137.4C324.499 136.96 324.639 136.6 324.919 136.32C325.199 136.04 325.559 135.9 325.999 135.9H331.999C332.399 135.9 332.739 136.04 333.019 136.32C333.299 136.6 333.439 136.96 333.439 137.4V177C333.439 177.44 333.299 177.8 333.019 178.08C332.739 178.36 332.399 178.5 331.999 178.5H325.999Z" fill="#F9F9F9"/>
</g>
<defs>
<clipPath id="clip0_3746_33582">
<rect width="498" height="315" rx="12" fill="white"/>
</clipPath>
<clipPath id="clip1_3746_33582">
<rect width="498" height="315" rx="12" fill="white"/>
</clipPath>
<clipPath id="clip2_3746_33582">
<rect width="498" height="315" fill="white"/>
</clipPath>
</defs>
</svg>
