<svg width="498" height="315" viewBox="0 0 498 315" fill="none" xmlns="http://www.w3.org/2000/svg">
<g clipPath="url(#clip0_3746_33601)">
<g clipPath="url(#clip1_3746_33601)">
<rect width="498" height="315" fill="#2B8AFC"/>
<g clipPath="url(#clip2_3746_33601)">
<circle cx="436.5" cy="-99" r="162.75" fill="#13277E" stroke="#F9F9F9" stroke-width="46.5"/>
<circle cx="417.75" cy="330.75" r="68.25" fill="#13277E"/>
<circle opacity="0.9" cx="-63.75" cy="167.25" r="131.25" fill="#13277E"/>
</g>
</g>
<path d="M31.59 63C31.37 63 31.19 62.93 31.05 62.79C30.91 62.65 30.84 62.47 30.84 62.25V46.17H25.38C25.18 46.17 25.01 46.1 24.87 45.96C24.73 45.82 24.66 45.65 24.66 45.45V42.75C24.66 42.53 24.73 42.35 24.87 42.21C25.01 42.07 25.18 42 25.38 42H41.1C41.32 42 41.5 42.07 41.64 42.21C41.78 42.35 41.85 42.53 41.85 42.75V45.45C41.85 45.65 41.78 45.82 41.64 45.96C41.5 46.1 41.32 46.17 41.1 46.17H35.67V62.25C35.67 62.47 35.6 62.65 35.46 62.79C35.32 62.93 35.14 63 34.92 63H31.59ZM51.8756 54.18L47.4056 63H42.5156L49.6256 49.92V41.58H54.1256V49.77L61.2356 63H56.3156L51.8756 54.18ZM68.8263 63C68.6063 63 68.4263 62.93 68.2863 62.79C68.1463 62.65 68.0763 62.47 68.0763 62.25V46.17H62.6163C62.4163 46.17 62.2463 46.1 62.1063 45.96C61.9663 45.82 61.8963 45.65 61.8963 45.45V42.75C61.8963 42.53 61.9663 42.35 62.1063 42.21C62.2463 42.07 62.4163 42 62.6163 42H78.3363C78.5563 42 78.7363 42.07 78.8763 42.21C79.0163 42.35 79.0863 42.53 79.0863 42.75V45.45C79.0863 45.65 79.0163 45.82 78.8763 45.96C78.7363 46.1 78.5563 46.17 78.3363 46.17H72.9063V62.25C72.9063 62.47 72.8363 62.65 72.6963 62.79C72.5563 62.93 72.3763 63 72.1563 63H68.8263Z" fill="#F9F9F9"/>
<path d="M26.64 269.5C26.464 269.5 26.328 269.452 26.232 269.356C26.136 269.244 26.088 269.108 26.088 268.948V253.276C26.088 253.1 26.136 252.964 26.232 252.868C26.328 252.756 26.464 252.7 26.64 252.7H36.552C36.728 252.7 36.864 252.756 36.96 252.868C37.056 252.964 37.104 253.1 37.104 253.276V254.188C37.104 254.364 37.056 254.5 36.96 254.596C36.864 254.692 36.728 254.74 36.552 254.74H28.392V259.996H36.024C36.2 259.996 36.336 260.052 36.432 260.164C36.528 260.26 36.576 260.396 36.576 260.572V261.46C36.576 261.62 36.528 261.756 36.432 261.868C36.336 261.964 36.2 262.012 36.024 262.012H28.392V267.46H36.744C36.92 267.46 37.056 267.508 37.152 267.604C37.248 267.7 37.296 267.836 37.296 268.012V268.948C37.296 269.108 37.248 269.244 37.152 269.356C37.056 269.452 36.92 269.5 36.744 269.5H26.64ZM39.7547 269.5C39.6267 269.5 39.5067 269.452 39.3947 269.356C39.2987 269.26 39.2507 269.14 39.2507 268.996C39.2507 268.948 39.2587 268.892 39.2747 268.828C39.3067 268.748 39.3547 268.66 39.4187 268.564L43.5947 263.116L39.6827 257.956C39.6187 257.86 39.5707 257.78 39.5387 257.716C39.5227 257.652 39.5147 257.588 39.5147 257.524C39.5147 257.38 39.5627 257.26 39.6587 257.164C39.7547 257.068 39.8747 257.02 40.0187 257.02H41.2427C41.4187 257.02 41.5467 257.068 41.6267 257.164C41.7227 257.244 41.8027 257.324 41.8667 257.404L45.0587 261.556L48.2507 257.428C48.3147 257.348 48.3867 257.26 48.4667 257.164C48.5627 257.068 48.6987 257.02 48.8747 257.02H50.0507C50.1947 257.02 50.3147 257.068 50.4107 257.164C50.5067 257.26 50.5547 257.38 50.5547 257.524C50.5547 257.588 50.5387 257.652 50.5067 257.716C50.4907 257.78 50.4507 257.86 50.3867 257.956L46.4267 263.164L50.6027 268.564C50.6667 268.66 50.7067 268.74 50.7227 268.804C50.7547 268.868 50.7707 268.932 50.7707 268.996C50.7707 269.14 50.7227 269.26 50.6267 269.356C50.5307 269.452 50.4107 269.5 50.2667 269.5H48.9947C48.8347 269.5 48.7067 269.46 48.6107 269.38C48.5147 269.3 48.4347 269.22 48.3707 269.14L44.9867 264.748L41.6027 269.14C41.5387 269.204 41.4587 269.284 41.3627 269.38C41.2827 269.46 41.1547 269.5 40.9787 269.5H39.7547ZM53.8442 274.06C53.6842 274.06 53.5482 274.004 53.4362 273.892C53.3402 273.796 53.2922 273.668 53.2922 273.508V257.572C53.2922 257.412 53.3402 257.284 53.4362 257.188C53.5482 257.076 53.6842 257.02 53.8442 257.02H54.9482C55.1082 257.02 55.2362 257.076 55.3322 257.188C55.4442 257.284 55.5002 257.412 55.5002 257.572V258.628C55.8842 258.1 56.3962 257.66 57.0362 257.308C57.6762 256.956 58.4762 256.78 59.4362 256.78C60.3322 256.78 61.0922 256.932 61.7162 257.236C62.3562 257.54 62.8762 257.956 63.2762 258.484C63.6922 259.012 64.0042 259.612 64.2122 260.284C64.4202 260.956 64.5322 261.676 64.5482 262.444C64.5642 262.7 64.5722 262.972 64.5722 263.26C64.5722 263.548 64.5642 263.82 64.5482 264.076C64.5322 264.828 64.4202 265.548 64.2122 266.236C64.0042 266.908 63.6922 267.508 63.2762 268.036C62.8762 268.548 62.3562 268.964 61.7162 269.284C61.0922 269.588 60.3322 269.74 59.4362 269.74C58.5082 269.74 57.7242 269.572 57.0842 269.236C56.4602 268.884 55.9482 268.452 55.5482 267.94V273.508C55.5482 273.668 55.5002 273.796 55.4042 273.892C55.3082 274.004 55.1722 274.06 54.9962 274.06H53.8442ZM58.9322 267.796C59.7642 267.796 60.4122 267.62 60.8762 267.268C61.3562 266.9 61.7002 266.428 61.9082 265.852C62.1162 265.26 62.2362 264.628 62.2682 263.956C62.2842 263.492 62.2842 263.028 62.2682 262.564C62.2362 261.892 62.1162 261.268 61.9082 260.692C61.7002 260.1 61.3562 259.628 60.8762 259.276C60.4122 258.908 59.7642 258.724 58.9322 258.724C58.1482 258.724 57.5082 258.908 57.0122 259.276C56.5322 259.644 56.1722 260.116 55.9322 260.692C55.7082 261.252 55.5802 261.828 55.5482 262.42C55.5322 262.676 55.5242 262.98 55.5242 263.332C55.5242 263.684 55.5322 263.996 55.5482 264.268C55.5642 264.828 55.6922 265.38 55.9322 265.924C56.1882 266.468 56.5642 266.916 57.0602 267.268C57.5562 267.62 58.1802 267.796 58.9322 267.796Z" fill="#F9F9F9"/>
<path d="M105.9 252.929C110.37 252.929 114 256.499 114 260.999C114 265.439 110.37 269.054 105.9 269.054C103.725 269.054 101.7 268.214 100.17 266.699L96 263.009L91.755 266.774C90.3 268.229 88.26 269.069 86.1 269.069C81.63 269.069 78 265.439 78 260.999C78 256.559 81.63 252.929 86.1 252.929C88.26 252.929 90.3 253.769 91.83 255.299L96 258.989L100.245 255.224C101.7 253.769 103.74 252.929 105.9 252.929ZM89.7 264.584L93.75 260.999L89.76 257.474C88.74 256.454 87.465 255.929 86.1 255.929C83.295 255.929 81 258.194 81 260.999C81 263.804 83.295 266.069 86.1 266.069C87.465 266.069 88.74 265.544 89.7 264.584ZM102.3 257.414L98.25 260.999L102.24 264.524C103.26 265.544 104.55 266.069 105.9 266.069C108.705 266.069 111 263.804 111 260.999C111 258.194 108.705 255.929 105.9 255.929C104.535 255.929 103.26 256.454 102.3 257.414Z" fill="#F9F9F9"/>
<path d="M176.58 179.1C173.62 179.1 171.08 178.74 168.96 178.02C166.84 177.3 165.1 176.38 163.74 175.26C162.38 174.14 161.36 172.92 160.68 171.6C160 170.24 159.64 168.94 159.6 167.7C159.6 167.34 159.72 167.04 159.96 166.8C160.2 166.56 160.5 166.44 160.86 166.44H167.46C167.9 166.44 168.26 166.54 168.54 166.74C168.82 166.9 169.08 167.2 169.32 167.64C169.64 168.56 170.16 169.3 170.88 169.86C171.6 170.42 172.44 170.82 173.4 171.06C174.4 171.26 175.46 171.36 176.58 171.36C178.82 171.36 180.58 170.84 181.86 169.8C183.14 168.76 183.78 167.3 183.78 165.42C183.78 163.5 183.18 162.12 181.98 161.28C180.78 160.44 179.08 160.02 176.88 160.02H170.46C170.06 160.02 169.72 159.88 169.44 159.6C169.16 159.32 169.02 158.98 169.02 158.58V155.64C169.02 155.16 169.1 154.76 169.26 154.44C169.46 154.12 169.66 153.88 169.86 153.72L180.18 144.24H163.26C162.82 144.24 162.46 144.1 162.18 143.82C161.9 143.54 161.76 143.2 161.76 142.8V138C161.76 137.56 161.9 137.2 162.18 136.92C162.46 136.64 162.82 136.5 163.26 136.5H189.9C190.34 136.5 190.7 136.64 190.98 136.92C191.26 137.2 191.4 137.56 191.4 138V142.32C191.4 142.76 191.32 143.14 191.16 143.46C191 143.74 190.8 143.96 190.56 144.12L180.78 153.78L181.38 153.84C183.74 154.08 185.84 154.66 187.68 155.58C189.52 156.5 190.96 157.82 192 159.54C193.08 161.22 193.62 163.36 193.62 165.96C193.62 168.68 192.88 171.02 191.4 172.98C189.92 174.94 187.9 176.46 185.34 177.54C182.78 178.58 179.86 179.1 176.58 179.1ZM214.893 179.16C211.293 179.16 208.273 178.58 205.833 177.42C203.393 176.26 201.533 174.74 200.253 172.86C199.013 170.98 198.353 168.98 198.273 166.86C198.273 166.5 198.393 166.2 198.633 165.96C198.873 165.72 199.173 165.6 199.533 165.6H206.313C206.793 165.6 207.173 165.72 207.453 165.96C207.773 166.16 208.013 166.44 208.173 166.8C208.573 167.88 209.093 168.76 209.733 169.44C210.413 170.12 211.193 170.62 212.073 170.94C212.953 171.26 213.893 171.42 214.893 171.42C216.173 171.42 217.353 171.16 218.433 170.64C219.513 170.08 220.373 169.28 221.013 168.24C221.653 167.2 221.973 165.92 221.973 164.4C221.973 163.08 221.673 161.92 221.073 160.92C220.473 159.92 219.633 159.14 218.553 158.58C217.473 158.02 216.253 157.74 214.893 157.74C213.853 157.74 212.993 157.86 212.313 158.1C211.673 158.34 211.133 158.64 210.693 159C210.253 159.32 209.853 159.62 209.493 159.9C209.133 160.14 208.733 160.26 208.293 160.26H201.633C201.273 160.26 200.953 160.14 200.673 159.9C200.433 159.62 200.313 159.3 200.313 158.94L202.413 138.24C202.493 137.68 202.693 137.26 203.013 136.98C203.373 136.66 203.793 136.5 204.273 136.5H227.553C227.993 136.5 228.353 136.64 228.633 136.92C228.913 137.2 229.053 137.56 229.053 138V142.8C229.053 143.2 228.913 143.54 228.633 143.82C228.353 144.1 227.993 144.24 227.553 144.24H210.213L209.313 153.06C210.113 152.54 211.093 152.08 212.253 151.68C213.453 151.24 215.113 151.02 217.233 151.02C219.153 151.02 220.973 151.34 222.693 151.98C224.453 152.58 226.013 153.48 227.373 154.68C228.733 155.88 229.793 157.32 230.553 159C231.353 160.64 231.753 162.52 231.753 164.64C231.753 167.52 231.073 170.06 229.713 172.26C228.353 174.42 226.413 176.12 223.893 177.36C221.373 178.56 218.373 179.16 214.893 179.16ZM254.063 179.1C251.183 179.1 248.703 178.7 246.623 177.9C244.583 177.06 242.883 175.92 241.523 174.48C240.203 173 239.203 171.3 238.523 169.38C237.883 167.42 237.503 165.34 237.383 163.14C237.343 162.06 237.303 160.86 237.263 159.54C237.263 158.18 237.263 156.82 237.263 155.46C237.303 154.1 237.343 152.86 237.383 151.74C237.463 149.54 237.843 147.48 238.523 145.56C239.243 143.64 240.283 141.96 241.643 140.52C243.003 139.08 244.703 137.96 246.743 137.16C248.823 136.32 251.263 135.9 254.063 135.9C256.863 135.9 259.283 136.32 261.323 137.16C263.363 137.96 265.063 139.08 266.423 140.52C267.783 141.96 268.803 143.64 269.483 145.56C270.203 147.48 270.623 149.54 270.743 151.74C270.783 152.86 270.803 154.1 270.803 155.46C270.843 156.82 270.843 158.18 270.803 159.54C270.803 160.86 270.783 162.06 270.743 163.14C270.623 165.34 270.223 167.42 269.543 169.38C268.863 171.3 267.843 173 266.483 174.48C265.163 175.92 263.463 177.06 261.383 177.9C259.343 178.7 256.903 179.1 254.063 179.1ZM254.063 171.3C256.383 171.3 258.083 170.54 259.163 169.02C260.243 167.5 260.823 165.44 260.903 162.84C260.943 161.68 260.963 160.48 260.963 159.24C261.003 158 261.003 156.76 260.963 155.52C260.963 154.28 260.943 153.12 260.903 152.04C260.823 149.56 260.243 147.54 259.163 145.98C258.083 144.42 256.383 143.62 254.063 143.58C251.703 143.62 249.983 144.42 248.903 145.98C247.863 147.54 247.303 149.56 247.223 152.04C247.183 153.12 247.143 154.28 247.103 155.52C247.103 156.76 247.103 158 247.103 159.24C247.143 160.48 247.183 161.68 247.223 162.84C247.303 165.44 247.883 167.5 248.963 169.02C250.043 170.54 251.743 171.3 254.063 171.3ZM291.124 178.5C290.724 178.5 290.384 178.36 290.104 178.08C289.824 177.8 289.684 177.44 289.684 177V172.98C289.684 172.58 289.764 172.22 289.924 171.9C290.124 171.58 290.344 171.28 290.584 171L305.284 154.26H291.664C291.224 154.26 290.864 154.12 290.584 153.84C290.304 153.56 290.164 153.22 290.164 152.82V148.8C290.164 148.36 290.304 148 290.584 147.72C290.864 147.44 291.224 147.3 291.664 147.3H315.064C315.504 147.3 315.864 147.44 316.144 147.72C316.424 148 316.564 148.36 316.564 148.8V153.12C316.564 153.48 316.484 153.8 316.324 154.08C316.164 154.36 315.964 154.64 315.724 154.92L301.324 171.54H316.324C316.724 171.54 317.064 171.68 317.344 171.96C317.624 172.24 317.764 172.58 317.764 172.98V177C317.764 177.44 317.624 177.8 317.344 178.08C317.064 178.36 316.724 178.5 316.324 178.5H291.124ZM325.085 178.5C324.645 178.5 324.285 178.36 324.005 178.08C323.725 177.8 323.585 177.44 323.585 177V137.4C323.585 136.96 323.725 136.6 324.005 136.32C324.285 136.04 324.645 135.9 325.085 135.9H331.085C331.485 135.9 331.825 136.04 332.105 136.32C332.385 136.6 332.525 136.96 332.525 137.4V177C332.525 177.44 332.385 177.8 332.105 178.08C331.825 178.36 331.485 178.5 331.085 178.5H325.085Z" fill="#F9F9F9"/>
</g>
<defs>
<clipPath id="clip0_3746_33601">
<rect width="498" height="315" rx="12" fill="white"/>
</clipPath>
<clipPath id="clip1_3746_33601">
<rect width="498" height="315" rx="12" fill="white"/>
</clipPath>
<clipPath id="clip2_3746_33601">
<rect width="498" height="315" fill="white"/>
</clipPath>
</defs>
</svg>
