<svg width="498" height="315" viewBox="0 0 498 315" fill="none" xmlns="http://www.w3.org/2000/svg">
<g clipPath="url(#clip0_3746_33620)">
<g clipPath="url(#clip1_3746_33620)">
<rect width="498" height="315" fill="#2B8AFC"/>
<g clipPath="url(#clip2_3746_33620)">
<circle cx="436.5" cy="-99" r="162.75" fill="#13277E" stroke="#F9F9F9" stroke-width="46.5"/>
<circle cx="417.75" cy="330.75" r="68.25" fill="#13277E"/>
<circle opacity="0.9" cx="-63.75" cy="167.25" r="131.25" fill="#13277E"/>
</g>
</g>
<path d="M31.59 63C31.37 63 31.19 62.93 31.05 62.79C30.91 62.65 30.84 62.47 30.84 62.25V46.17H25.38C25.18 46.17 25.01 46.1 24.87 45.96C24.73 45.82 24.66 45.65 24.66 45.45V42.75C24.66 42.53 24.73 42.35 24.87 42.21C25.01 42.07 25.18 42 25.38 42H41.1C41.32 42 41.5 42.07 41.64 42.21C41.78 42.35 41.85 42.53 41.85 42.75V45.45C41.85 45.65 41.78 45.82 41.64 45.96C41.5 46.1 41.32 46.17 41.1 46.17H35.67V62.25C35.67 62.47 35.6 62.65 35.46 62.79C35.32 62.93 35.14 63 34.92 63H31.59ZM51.8756 54.18L47.4056 63H42.5156L49.6256 49.92V41.58H54.1256V49.77L61.2356 63H56.3156L51.8756 54.18ZM68.8263 63C68.6063 63 68.4263 62.93 68.2863 62.79C68.1463 62.65 68.0763 62.47 68.0763 62.25V46.17H62.6163C62.4163 46.17 62.2463 46.1 62.1063 45.96C61.9663 45.82 61.8963 45.65 61.8963 45.45V42.75C61.8963 42.53 61.9663 42.35 62.1063 42.21C62.2463 42.07 62.4163 42 62.6163 42H78.3363C78.5563 42 78.7363 42.07 78.8763 42.21C79.0163 42.35 79.0863 42.53 79.0863 42.75V45.45C79.0863 45.65 79.0163 45.82 78.8763 45.96C78.7363 46.1 78.5563 46.17 78.3363 46.17H72.9063V62.25C72.9063 62.47 72.8363 62.65 72.6963 62.79C72.5563 62.93 72.3763 63 72.1563 63H68.8263Z" fill="#F9F9F9"/>
<path d="M26.64 269.5C26.464 269.5 26.328 269.452 26.232 269.356C26.136 269.244 26.088 269.108 26.088 268.948V253.276C26.088 253.1 26.136 252.964 26.232 252.868C26.328 252.756 26.464 252.7 26.64 252.7H36.552C36.728 252.7 36.864 252.756 36.96 252.868C37.056 252.964 37.104 253.1 37.104 253.276V254.188C37.104 254.364 37.056 254.5 36.96 254.596C36.864 254.692 36.728 254.74 36.552 254.74H28.392V259.996H36.024C36.2 259.996 36.336 260.052 36.432 260.164C36.528 260.26 36.576 260.396 36.576 260.572V261.46C36.576 261.62 36.528 261.756 36.432 261.868C36.336 261.964 36.2 262.012 36.024 262.012H28.392V267.46H36.744C36.92 267.46 37.056 267.508 37.152 267.604C37.248 267.7 37.296 267.836 37.296 268.012V268.948C37.296 269.108 37.248 269.244 37.152 269.356C37.056 269.452 36.92 269.5 36.744 269.5H26.64ZM39.7547 269.5C39.6267 269.5 39.5067 269.452 39.3947 269.356C39.2987 269.26 39.2507 269.14 39.2507 268.996C39.2507 268.948 39.2587 268.892 39.2747 268.828C39.3067 268.748 39.3547 268.66 39.4187 268.564L43.5947 263.116L39.6827 257.956C39.6187 257.86 39.5707 257.78 39.5387 257.716C39.5227 257.652 39.5147 257.588 39.5147 257.524C39.5147 257.38 39.5627 257.26 39.6587 257.164C39.7547 257.068 39.8747 257.02 40.0187 257.02H41.2427C41.4187 257.02 41.5467 257.068 41.6267 257.164C41.7227 257.244 41.8027 257.324 41.8667 257.404L45.0587 261.556L48.2507 257.428C48.3147 257.348 48.3867 257.26 48.4667 257.164C48.5627 257.068 48.6987 257.02 48.8747 257.02H50.0507C50.1947 257.02 50.3147 257.068 50.4107 257.164C50.5067 257.26 50.5547 257.38 50.5547 257.524C50.5547 257.588 50.5387 257.652 50.5067 257.716C50.4907 257.78 50.4507 257.86 50.3867 257.956L46.4267 263.164L50.6027 268.564C50.6667 268.66 50.7067 268.74 50.7227 268.804C50.7547 268.868 50.7707 268.932 50.7707 268.996C50.7707 269.14 50.7227 269.26 50.6267 269.356C50.5307 269.452 50.4107 269.5 50.2667 269.5H48.9947C48.8347 269.5 48.7067 269.46 48.6107 269.38C48.5147 269.3 48.4347 269.22 48.3707 269.14L44.9867 264.748L41.6027 269.14C41.5387 269.204 41.4587 269.284 41.3627 269.38C41.2827 269.46 41.1547 269.5 40.9787 269.5H39.7547ZM53.8442 274.06C53.6842 274.06 53.5482 274.004 53.4362 273.892C53.3402 273.796 53.2922 273.668 53.2922 273.508V257.572C53.2922 257.412 53.3402 257.284 53.4362 257.188C53.5482 257.076 53.6842 257.02 53.8442 257.02H54.9482C55.1082 257.02 55.2362 257.076 55.3322 257.188C55.4442 257.284 55.5002 257.412 55.5002 257.572V258.628C55.8842 258.1 56.3962 257.66 57.0362 257.308C57.6762 256.956 58.4762 256.78 59.4362 256.78C60.3322 256.78 61.0922 256.932 61.7162 257.236C62.3562 257.54 62.8762 257.956 63.2762 258.484C63.6922 259.012 64.0042 259.612 64.2122 260.284C64.4202 260.956 64.5322 261.676 64.5482 262.444C64.5642 262.7 64.5722 262.972 64.5722 263.26C64.5722 263.548 64.5642 263.82 64.5482 264.076C64.5322 264.828 64.4202 265.548 64.2122 266.236C64.0042 266.908 63.6922 267.508 63.2762 268.036C62.8762 268.548 62.3562 268.964 61.7162 269.284C61.0922 269.588 60.3322 269.74 59.4362 269.74C58.5082 269.74 57.7242 269.572 57.0842 269.236C56.4602 268.884 55.9482 268.452 55.5482 267.94V273.508C55.5482 273.668 55.5002 273.796 55.4042 273.892C55.3082 274.004 55.1722 274.06 54.9962 274.06H53.8442ZM58.9322 267.796C59.7642 267.796 60.4122 267.62 60.8762 267.268C61.3562 266.9 61.7002 266.428 61.9082 265.852C62.1162 265.26 62.2362 264.628 62.2682 263.956C62.2842 263.492 62.2842 263.028 62.2682 262.564C62.2362 261.892 62.1162 261.268 61.9082 260.692C61.7002 260.1 61.3562 259.628 60.8762 259.276C60.4122 258.908 59.7642 258.724 58.9322 258.724C58.1482 258.724 57.5082 258.908 57.0122 259.276C56.5322 259.644 56.1722 260.116 55.9322 260.692C55.7082 261.252 55.5802 261.828 55.5482 262.42C55.5322 262.676 55.5242 262.98 55.5242 263.332C55.5242 263.684 55.5322 263.996 55.5482 264.268C55.5642 264.828 55.6922 265.38 55.9322 265.924C56.1882 266.468 56.5642 266.916 57.0602 267.268C57.5562 267.62 58.1802 267.796 58.9322 267.796Z" fill="#F9F9F9"/>
<path d="M105.9 252.929C110.37 252.929 114 256.499 114 260.999C114 265.439 110.37 269.054 105.9 269.054C103.725 269.054 101.7 268.214 100.17 266.699L96 263.009L91.755 266.774C90.3 268.229 88.26 269.069 86.1 269.069C81.63 269.069 78 265.439 78 260.999C78 256.559 81.63 252.929 86.1 252.929C88.26 252.929 90.3 253.769 91.83 255.299L96 258.989L100.245 255.224C101.7 253.769 103.74 252.929 105.9 252.929ZM89.7 264.584L93.75 260.999L89.76 257.474C88.74 256.454 87.465 255.929 86.1 255.929C83.295 255.929 81 258.194 81 260.999C81 263.804 83.295 266.069 86.1 266.069C87.465 266.069 88.74 265.544 89.7 264.584ZM102.3 257.414L98.25 260.999L102.24 264.524C103.26 265.544 104.55 266.069 105.9 266.069C108.705 266.069 111 263.804 111 260.999C111 258.194 108.705 255.929 105.9 255.929C104.535 255.929 103.26 256.454 102.3 257.414Z" fill="#F9F9F9"/>
<path d="M177.78 179.16C174.18 179.16 171.16 178.58 168.72 177.42C166.28 176.26 164.42 174.74 163.14 172.86C161.9 170.98 161.24 168.98 161.16 166.86C161.16 166.5 161.28 166.2 161.52 165.96C161.76 165.72 162.06 165.6 162.42 165.6H169.2C169.68 165.6 170.06 165.72 170.34 165.96C170.66 166.16 170.9 166.44 171.06 166.8C171.46 167.88 171.98 168.76 172.62 169.44C173.3 170.12 174.08 170.62 174.96 170.94C175.84 171.26 176.78 171.42 177.78 171.42C179.06 171.42 180.24 171.16 181.32 170.64C182.4 170.08 183.26 169.28 183.9 168.24C184.54 167.2 184.86 165.92 184.86 164.4C184.86 163.08 184.56 161.92 183.96 160.92C183.36 159.92 182.52 159.14 181.44 158.58C180.36 158.02 179.14 157.74 177.78 157.74C176.74 157.74 175.88 157.86 175.2 158.1C174.56 158.34 174.02 158.64 173.58 159C173.14 159.32 172.74 159.62 172.38 159.9C172.02 160.14 171.62 160.26 171.18 160.26H164.52C164.16 160.26 163.84 160.14 163.56 159.9C163.32 159.62 163.2 159.3 163.2 158.94L165.3 138.24C165.38 137.68 165.58 137.26 165.9 136.98C166.26 136.66 166.68 136.5 167.16 136.5H190.44C190.88 136.5 191.24 136.64 191.52 136.92C191.8 137.2 191.94 137.56 191.94 138V142.8C191.94 143.2 191.8 143.54 191.52 143.82C191.24 144.1 190.88 144.24 190.44 144.24H173.1L172.2 153.06C173 152.54 173.98 152.08 175.14 151.68C176.34 151.24 178 151.02 180.12 151.02C182.04 151.02 183.86 151.34 185.58 151.98C187.34 152.58 188.9 153.48 190.26 154.68C191.62 155.88 192.68 157.32 193.44 159C194.24 160.64 194.64 162.52 194.64 164.64C194.64 167.52 193.96 170.06 192.6 172.26C191.24 174.42 189.3 176.12 186.78 177.36C184.26 178.56 181.26 179.16 177.78 179.16ZM216.95 179.1C214.07 179.1 211.59 178.7 209.51 177.9C207.47 177.06 205.77 175.92 204.41 174.48C203.09 173 202.09 171.3 201.41 169.38C200.77 167.42 200.39 165.34 200.27 163.14C200.23 162.06 200.19 160.86 200.15 159.54C200.15 158.18 200.15 156.82 200.15 155.46C200.19 154.1 200.23 152.86 200.27 151.74C200.35 149.54 200.73 147.48 201.41 145.56C202.13 143.64 203.17 141.96 204.53 140.52C205.89 139.08 207.59 137.96 209.63 137.16C211.71 136.32 214.15 135.9 216.95 135.9C219.75 135.9 222.17 136.32 224.21 137.16C226.25 137.96 227.95 139.08 229.31 140.52C230.67 141.96 231.69 143.64 232.37 145.56C233.09 147.48 233.51 149.54 233.63 151.74C233.67 152.86 233.69 154.1 233.69 155.46C233.73 156.82 233.73 158.18 233.69 159.54C233.69 160.86 233.67 162.06 233.63 163.14C233.51 165.34 233.11 167.42 232.43 169.38C231.75 171.3 230.73 173 229.37 174.48C228.05 175.92 226.35 177.06 224.27 177.9C222.23 178.7 219.79 179.1 216.95 179.1ZM216.95 171.3C219.27 171.3 220.97 170.54 222.05 169.02C223.13 167.5 223.71 165.44 223.79 162.84C223.83 161.68 223.85 160.48 223.85 159.24C223.89 158 223.89 156.76 223.85 155.52C223.85 154.28 223.83 153.12 223.79 152.04C223.71 149.56 223.13 147.54 222.05 145.98C220.97 144.42 219.27 143.62 216.95 143.58C214.59 143.62 212.87 144.42 211.79 145.98C210.75 147.54 210.19 149.56 210.11 152.04C210.07 153.12 210.03 154.28 209.99 155.52C209.99 156.76 209.99 158 209.99 159.24C210.03 160.48 210.07 161.68 210.11 162.84C210.19 165.44 210.77 167.5 211.85 169.02C212.93 170.54 214.63 171.3 216.95 171.3ZM257.028 179.1C254.148 179.1 251.668 178.7 249.588 177.9C247.548 177.06 245.848 175.92 244.488 174.48C243.168 173 242.168 171.3 241.488 169.38C240.848 167.42 240.468 165.34 240.348 163.14C240.308 162.06 240.268 160.86 240.228 159.54C240.228 158.18 240.228 156.82 240.228 155.46C240.268 154.1 240.308 152.86 240.348 151.74C240.428 149.54 240.808 147.48 241.488 145.56C242.208 143.64 243.248 141.96 244.608 140.52C245.968 139.08 247.668 137.96 249.708 137.16C251.788 136.32 254.228 135.9 257.028 135.9C259.828 135.9 262.248 136.32 264.288 137.16C266.328 137.96 268.028 139.08 269.388 140.52C270.748 141.96 271.768 143.64 272.448 145.56C273.168 147.48 273.588 149.54 273.708 151.74C273.748 152.86 273.768 154.1 273.768 155.46C273.808 156.82 273.808 158.18 273.768 159.54C273.768 160.86 273.748 162.06 273.708 163.14C273.588 165.34 273.188 167.42 272.508 169.38C271.828 171.3 270.808 173 269.448 174.48C268.128 175.92 266.428 177.06 264.348 177.9C262.308 178.7 259.868 179.1 257.028 179.1ZM257.028 171.3C259.348 171.3 261.048 170.54 262.128 169.02C263.208 167.5 263.788 165.44 263.868 162.84C263.908 161.68 263.928 160.48 263.928 159.24C263.968 158 263.968 156.76 263.928 155.52C263.928 154.28 263.908 153.12 263.868 152.04C263.788 149.56 263.208 147.54 262.128 145.98C261.048 144.42 259.348 143.62 257.028 143.58C254.668 143.62 252.948 144.42 251.868 145.98C250.828 147.54 250.268 149.56 250.188 152.04C250.148 153.12 250.108 154.28 250.068 155.52C250.068 156.76 250.068 158 250.068 159.24C250.108 160.48 250.148 161.68 250.188 162.84C250.268 165.44 250.848 167.5 251.928 169.02C253.008 170.54 254.708 171.3 257.028 171.3ZM294.089 178.5C293.689 178.5 293.349 178.36 293.069 178.08C292.789 177.8 292.649 177.44 292.649 177V172.98C292.649 172.58 292.729 172.22 292.889 171.9C293.089 171.58 293.309 171.28 293.549 171L308.249 154.26H294.629C294.189 154.26 293.829 154.12 293.549 153.84C293.269 153.56 293.129 153.22 293.129 152.82V148.8C293.129 148.36 293.269 148 293.549 147.72C293.829 147.44 294.189 147.3 294.629 147.3H318.029C318.469 147.3 318.829 147.44 319.109 147.72C319.389 148 319.529 148.36 319.529 148.8V153.12C319.529 153.48 319.449 153.8 319.289 154.08C319.129 154.36 318.929 154.64 318.689 154.92L304.289 171.54H319.289C319.689 171.54 320.029 171.68 320.309 171.96C320.589 172.24 320.729 172.58 320.729 172.98V177C320.729 177.44 320.589 177.8 320.309 178.08C320.029 178.36 319.689 178.5 319.289 178.5H294.089ZM328.05 178.5C327.61 178.5 327.25 178.36 326.97 178.08C326.69 177.8 326.55 177.44 326.55 177V137.4C326.55 136.96 326.69 136.6 326.97 136.32C327.25 136.04 327.61 135.9 328.05 135.9H334.05C334.45 135.9 334.79 136.04 335.07 136.32C335.35 136.6 335.49 136.96 335.49 137.4V177C335.49 177.44 335.35 177.8 335.07 178.08C334.79 178.36 334.45 178.5 334.05 178.5H328.05Z" fill="#F9F9F9"/>
</g>
<defs>
<clipPath id="clip0_3746_33620">
<rect width="498" height="315" rx="12" fill="white"/>
</clipPath>
<clipPath id="clip1_3746_33620">
<rect width="498" height="315" rx="12" fill="white"/>
</clipPath>
<clipPath id="clip2_3746_33620">
<rect width="498" height="315" fill="white"/>
</clipPath>
</defs>
</svg>
