<svg width="61" height="60" viewBox="0 0 61 60" fill="none" xmlns="http://www.w3.org/2000/svg">
    <g clip-path="url(#clip0_10211_83464)">
        <mask id="mask0_10211_83464" style="mask-type:luminance" maskUnits="userSpaceOnUse" x="0" y="0" width="61" height="60">
            <path d="M0.5 -3.8147e-06H60.5V60H0.5V-3.8147e-06Z" fill="white"/>
        </mask>
        <g mask="url(#mask0_10211_83464)">
            <path d="M11.4601 51.6855C11.2422 44.3324 10.6596 39.054 9.97272 39.054C9.28588 39.054 8.70325 44.3324 8.48535 51.6855H11.4601Z" fill="#FFCC4D"/>
            <path d="M27.3412 31.8262C27.3412 39.792 23.8075 42.2109 19.4465 42.2109C15.087 42.2109 11.5518 39.792 11.5518 31.8262C11.5518 23.862 17.8675 12.2109 19.4465 12.2109C21.0254 12.2109 27.3412 23.862 27.3412 31.8262Z" fill="#A6D388"/>
            <path d="M17.8676 30.7336C17.8676 39.5346 14.3339 42.2109 9.97286 42.2109C5.61339 42.2109 2.07812 39.5346 2.07812 30.7336C2.07812 21.9278 8.39391 9.05304 9.97286 9.05304C11.5518 9.05304 17.8676 21.9278 17.8676 30.7336Z" fill="#77B255"/>
            <path d="M14.7095 24.8423L35.2358 4.31599L55.7621 24.8423V50.1055H14.7095V24.8423Z" fill="#FFE8B6"/>
            <path d="M36.8148 50.1055H35.2358V24.8423H36.8148V50.1055Z" fill="white"/>
            <path d="M16.2884 50.1055H14.7095V24.8423H16.2884V50.1055ZM54.1832 50.1055H55.7621V24.8423H54.1832V50.1055Z" fill="#FFCC4D"/>
            <path d="M55.7622 26.4219C55.5548 26.4221 55.3495 26.3813 55.1579 26.3019C54.9663 26.2225 54.7923 26.1061 54.6459 25.9592L35.2359 6.54924L15.8259 25.9592C15.6793 26.1058 15.5053 26.2221 15.3137 26.3015C15.1222 26.3808 14.9169 26.4216 14.7096 26.4216C14.5022 26.4216 14.297 26.3808 14.1054 26.3015C13.9139 26.2221 13.7399 26.1058 13.5933 25.9592C13.4467 25.8126 13.3304 25.6386 13.251 25.4471C13.1717 25.2555 13.1309 25.0502 13.1309 24.8429C13.1309 24.6356 13.1717 24.4303 13.251 24.2388C13.3304 24.0472 13.4467 23.8732 13.5933 23.7266L34.1196 3.20029C34.2661 3.05354 34.4401 2.93711 34.6316 2.85767C34.8232 2.77823 35.0285 2.73734 35.2359 2.73734C35.4433 2.73734 35.6486 2.77823 35.8401 2.85767C36.0317 2.93711 36.2057 3.05354 36.3522 3.20029L56.8785 23.7266C57.1 23.9471 57.2511 24.2285 57.3124 24.535C57.3737 24.8415 57.3426 25.1593 57.223 25.4481C57.1034 25.7369 56.9007 25.9836 56.6406 26.157C56.3805 26.3304 56.0748 26.4226 55.7622 26.4219Z" fill="#13277E"/>
            <path d="M35.2361 26.4219C34.9236 26.4226 34.6178 26.3304 34.3577 26.157C34.0976 25.9836 33.8949 25.7369 33.7753 25.4481C33.6557 25.1593 33.6246 24.8415 33.6859 24.535C33.7473 24.2285 33.8983 23.9471 34.1198 23.7266L44.383 13.4634C44.679 13.1674 45.0806 13.0011 45.4993 13.0011C45.918 13.0011 46.3195 13.1674 46.6156 13.4634C46.9117 13.7595 47.078 14.1611 47.078 14.5798C47.078 14.9985 46.9117 15.4 46.6156 15.6961L36.3524 25.9592C36.206 26.1061 36.032 26.2225 35.8404 26.3019C35.6489 26.3813 35.4435 26.4221 35.2361 26.4219Z" fill="#13277E"/>
            <path d="M28.9203 50.1055H22.6045V40.6318H28.9203V50.1055Z" fill="#C1694F"/>
            <path d="M47.8677 46.9473H43.1309V40.6315H47.8677V46.9473Z" fill="#2B8AFC"/>
            <path d="M41.5519 46.9473H44.7098V40.6315H41.5519V46.9473ZM49.4466 46.9473H46.2887V40.6315H49.4466V46.9473ZM28.9203 32.7367H22.6045V26.4209H28.9203V32.7367ZM49.4466 32.7367H41.5519V26.4209H49.4466V32.7367Z" fill="#2B8AFC"/>
            <path d="M58.9202 53.264C58.9202 54.1015 58.5875 54.9047 57.9953 55.4969C57.4031 56.0892 56.5999 56.4219 55.7623 56.4219H5.23602C4.39849 56.4219 3.59527 56.0892 3.00305 55.4969C2.41083 54.9047 2.07813 54.1015 2.07812 53.264C2.07813 52.4265 2.41083 51.6232 3.00305 51.031C3.59527 50.4388 4.39849 50.1061 5.23602 50.1061H55.7623C56.5999 50.1061 57.4031 50.4388 57.9953 51.031C58.5875 51.6232 58.9202 52.4265 58.9202 53.264Z" fill="#5C913B"/>
            <path d="M28.9203 56.4219H22.6045V50.1061H28.9203V56.4219Z" fill="white"/>
        </g>
    </g>
    <defs>
        <clipPath id="clip0_10211_83464">
            <rect width="60" height="60" fill="white" transform="translate(0.5)"/>
        </clipPath>
    </defs>
</svg>
