<svg width="97" height="96" viewBox="0 0 97 96" fill="none" xmlns="http://www.w3.org/2000/svg">
<g id="airbnb">
<path id="Vector" d="M81.8484 47.9999C81.8484 29.4431 66.8052 14.3999 48.2484 14.3999C29.6917 14.3999 14.6484 29.4431 14.6484 47.9999C14.6484 66.5567 29.6917 81.5999 48.2484 81.5999C66.8052 81.5999 81.8484 66.5567 81.8484 47.9999Z" fill="#FF5A5F"/>
<path id="Vector_2" d="M48.2429 56.8481C46.04 54.0771 44.7443 51.6483 44.3123 49.5701C43.8804 47.8816 44.0532 46.5394 44.7875 45.5436C45.565 44.3746 46.7312 43.8118 48.2429 43.8118C49.7547 43.8118 50.9209 44.3746 51.6984 45.5436C52.4327 46.5394 52.6055 47.8816 52.1736 49.5701C51.6984 51.6915 50.4026 54.1162 48.2429 56.8481ZM63.8875 58.7099C63.5853 60.7448 62.203 62.4333 60.3025 63.2559C56.631 64.8578 52.9985 62.3034 49.8886 58.8398C55.0329 52.3844 55.9831 47.362 53.776 44.1105C52.4802 42.2488 50.6229 41.3395 48.2429 41.3395C43.4485 41.3395 40.8094 45.4093 41.8461 50.1329C42.4507 52.6873 44.0488 55.5925 46.5972 58.8398C44.9991 60.6148 43.4874 61.8704 42.1483 62.6497C41.1118 63.2125 40.1183 63.5589 39.168 63.6456C34.8055 64.295 31.3889 60.052 32.9439 55.6748C33.1599 55.112 33.5918 54.0728 34.3261 52.4709L34.3692 52.3844C36.7449 47.1845 39.6432 41.2962 42.969 34.7543L43.0554 34.5377L44.0057 32.7194C44.74 31.3772 45.0423 30.771 46.2086 30.0351C46.77 29.6887 47.4612 29.5155 48.2386 29.5155C49.7936 29.5155 51.003 30.4247 51.5213 31.1607C51.7805 31.5504 52.0829 32.07 52.4715 32.7194L53.3786 34.4945L53.5082 34.7543C56.834 41.2962 59.7323 47.1845 62.108 52.3844L62.1512 52.4276L63.015 54.4193L63.5333 55.6748C63.9308 56.675 64.0172 57.6708 63.8875 58.7099ZM65.8744 54.8089C65.5721 53.8563 65.0537 52.7307 64.4059 51.3886V51.3452C61.3391 44.8032 58.4841 38.915 55.7629 33.6286L55.5901 33.3687C53.6464 29.3856 52.2643 27 48.2429 27C44.2692 27 42.5804 29.7709 40.8526 33.3687L40.723 33.6286C38.0018 38.915 35.1468 44.8032 32.0799 51.3452V51.4318L31.1729 53.4235C30.8274 54.2461 30.6546 54.679 30.6115 54.8089C28.4086 60.8747 32.9439 66.2 38.4337 66.2C38.477 66.2 38.6497 66.2 38.8657 66.1567H39.4704C42.3211 65.8104 45.2626 63.9919 48.2429 60.7404C51.2233 63.9876 54.1648 65.8104 57.0155 66.1567H57.6201C57.8362 66.2 58.0089 66.2 58.0522 66.2C63.542 66.2043 68.0773 60.8747 65.8744 54.8089Z" fill="white"/>
</g>
</svg>
