<svg width="97" height="96" viewBox="0 0 97 96" fill="none" xmlns="http://www.w3.org/2000/svg">
<g id="burning-time">
<path id="Vector" d="M75.2327 45.4964C76.6066 45.8083 78.033 45.8083 79.4069 45.4964C83.4251 44.5417 85.2213 41.0339 85.6682 41.3287C86.297 41.7435 83.8897 49.4438 77.3198 55.9156C74.0418 59.1447 70.6102 61.2102 71.0585 62.1671C71.4046 62.906 74.0429 62.3967 75.2327 62.1671C79.3683 61.369 81.089 59.7228 81.494 60.0833C82.5852 61.0545 76.054 78.3055 60.6229 85.0894C53.1437 88.144 44.8962 88.7819 37.0362 86.9134C29.1763 85.0449 22.0981 80.7638 16.7937 74.6702C3.04049 58.4131 7.19019 33.4861 20.968 20.4904C28.4471 13.8384 38.0911 10.1349 48.1003 10.0712C47.0025 11.9985 46.2934 14.1224 46.0132 16.3227C45.84 17.7065 45.84 19.1065 46.0132 20.4904C50.1352 16.9712 55.2312 14.7906 60.6229 14.2388C65.5945 13.8522 68.3015 15.3518 73.1456 14.2388C77.1596 13.2179 80.7872 11.0448 83.5812 7.9873C83.5331 14.294 82.8337 20.5789 81.4941 26.7419C80.0895 33.2009 77.9902 39.4891 75.2327 45.4964Z" fill="#FDD402"/>
<path id="Vector_2" d="M79.4068 45.4964C79.1314 45.5618 78.8658 45.5941 78.5991 45.6308C79.7272 45.7987 80.8769 45.7531 81.9882 45.4964C83.1476 45.2108 84.2377 44.6951 85.1939 43.98C85.7334 42.476 85.8831 41.4705 85.6682 41.3287C85.2213 41.0339 83.4251 44.5417 79.4068 45.4964ZM75.7269 14.2388C78.5746 13.5554 81.2335 12.2437 83.5088 10.3999C83.5359 9.58741 83.5753 8.74671 83.5811 7.9873C80.7871 11.0447 77.1596 13.2179 73.1456 14.2388C72.3132 14.4269 71.4669 14.5474 70.6151 14.5993C72.3274 14.7433 74.0517 14.6217 75.7269 14.2388ZM81.4939 60.0833C81.0889 59.7227 79.3682 61.3688 75.2326 62.1671C74.8846 62.2342 74.4096 62.3234 73.9073 62.4001C75.2114 62.5987 76.5427 62.5193 77.814 62.1671C79.0968 61.9238 80.3505 61.5461 81.5543 61.0403C81.6313 60.5416 81.6191 60.1945 81.4939 60.0833ZM48.5945 20.4902C52.7165 16.971 57.8125 14.7905 63.2043 14.2389C63.3743 14.2256 63.5227 14.2299 63.6876 14.2208C62.6669 14.1568 61.6429 14.1628 60.6229 14.2389C56.2531 14.6527 52.0661 16.1968 48.474 18.7193C48.4838 19.3113 48.524 19.9024 48.5945 20.4902ZM19.375 74.6702C5.6218 58.4131 9.77155 33.486 23.5493 20.4902C30.3116 14.3933 38.9411 10.7688 48.0289 10.2085C48.0519 10.1672 48.0778 10.111 48.1003 10.0711C38.0911 10.1349 28.4471 13.8383 20.9679 20.4902C7.19023 33.486 3.04045 58.4131 16.7937 74.6702C20.6072 79.0395 25.3496 82.5006 30.6737 84.8C35.9978 87.0994 41.7688 88.1789 47.5641 87.9594C42.2015 87.8162 36.9271 86.561 32.0748 84.2735C27.2224 81.986 22.8979 78.7158 19.375 74.6702Z" fill="#FBBF13"/>
<path id="Vector_3" d="M41.4056 78.3498C54.9492 78.3498 65.9284 67.3706 65.9284 53.827C65.9284 40.2834 54.9492 29.3042 41.4056 29.3042C27.8621 29.3042 16.8828 40.2834 16.8828 53.827C16.8828 67.3706 27.8621 78.3498 41.4056 78.3498Z" fill="#E5303E"/>
<path id="Vector_4" d="M60.7594 53.8322C60.7593 54.2636 60.7335 54.6946 60.6819 55.1229C60.4337 59.3564 58.77 63.3838 55.9581 66.5583C55.4134 67.232 54.7991 67.8464 54.1253 68.391C50.9508 71.2029 46.9235 72.8666 42.6899 73.1149C41.8326 73.2182 40.9659 73.2182 40.1086 73.1149C35.8739 72.8716 31.845 71.2073 28.6732 68.391C28.0182 67.8351 27.4056 67.2311 26.8404 66.5841C24.0339 63.396 22.3715 59.3626 22.1166 55.1229C22.0132 54.2655 22.0132 53.3989 22.1166 52.5415C22.3714 48.3018 24.0339 44.2684 26.8404 41.0803C27.4056 40.4333 28.0182 39.8293 28.6732 39.2734C31.8451 36.4572 35.8739 34.7929 40.1086 34.5495C40.9659 34.4464 41.8326 34.4464 42.6899 34.5495C46.9234 34.7979 50.9507 36.4615 54.1253 39.2734L55.9581 41.1062C58.77 44.2807 60.4336 48.308 60.6819 52.5415C60.7335 52.9698 60.7593 53.4008 60.7594 53.8322Z" fill="white"/>
<path id="Vector_5" d="M29.4218 66.5841C26.6153 63.396 24.9528 59.3626 24.6979 55.1229C24.5946 54.2655 24.5946 53.3989 24.6979 52.5415C24.9528 48.3018 26.6152 44.2684 29.4218 41.0803C29.9869 40.4333 30.5995 39.8293 31.2546 39.2734C34.4264 36.4572 38.4553 34.7929 42.6899 34.5495C41.8326 34.4464 40.9659 34.4464 40.1086 34.5495C35.8739 34.7929 31.8451 36.4572 28.6732 39.2734C28.0182 39.8293 27.4056 40.4333 26.8404 41.0803C24.0339 44.2684 22.3714 48.3018 22.1166 52.5415C22.0132 53.3989 22.0132 54.2655 22.1166 55.1229C22.3715 59.3626 24.0339 63.396 26.8404 66.5841C27.4056 67.2311 28.0182 67.8351 28.6732 68.391C31.845 71.2073 35.8739 72.8716 40.1086 73.1149C40.9659 73.2182 41.8326 73.2182 42.6899 73.1149C38.4553 72.8716 34.4264 71.2073 31.2546 68.391C30.5995 67.8351 29.9869 67.2311 29.4218 66.5841Z" fill="#E0E0E2"/>
<path id="Vector_6" d="M42.6892 31.968V37.0532C42.6882 37.3952 42.5519 37.723 42.3101 37.9648C42.0683 38.2066 41.7406 38.3429 41.3986 38.3439C41.0579 38.3385 40.7328 38.2008 40.4919 37.9599C40.251 37.719 40.1133 37.3939 40.1079 37.0532V31.968C40.9653 31.8648 41.8319 31.8648 42.6892 31.968ZM41.409 53.8264C41.2395 53.8265 41.0717 53.7931 40.915 53.7283C40.7584 53.6635 40.6161 53.5684 40.4962 53.4485C40.3763 53.3287 40.2812 53.1863 40.2164 53.0297C40.1516 52.8731 40.1183 52.7052 40.1184 52.5357V46.0823C40.1184 45.74 40.2544 45.4117 40.4964 45.1697C40.7385 44.9276 41.0667 44.7916 41.409 44.7916C41.7514 44.7916 42.0796 44.9276 42.3217 45.1697C42.5637 45.4117 42.6997 45.74 42.6997 46.0823V52.5357C42.6998 52.7052 42.6665 52.8731 42.6017 53.0297C42.5369 53.1863 42.4418 53.3287 42.3219 53.4485C42.202 53.5684 42.0597 53.6635 41.9031 53.7283C41.7464 53.7931 41.5786 53.8265 41.409 53.8264ZM42.6892 70.6108V75.696C41.8319 75.7994 40.9652 75.7994 40.1079 75.696V70.6108C40.1089 70.2688 40.2452 69.9411 40.487 69.6992C40.7289 69.4574 41.0566 69.3211 41.3986 69.3201C41.5685 69.3184 41.7371 69.3506 41.8945 69.4149C42.0518 69.4792 42.1948 69.5742 42.315 69.6944C42.4352 69.8146 42.5302 69.9575 42.5944 70.1149C42.6587 70.2722 42.6909 70.4408 42.6892 70.6108ZM63.34 53.832C63.34 54.2634 63.3141 54.6944 63.2626 55.1227H58.1773C57.8367 55.1173 57.5116 54.9795 57.2707 54.7387C57.0298 54.4978 56.8921 54.1726 56.8867 53.832C56.8877 53.49 57.024 53.1623 57.2658 52.9205C57.5076 52.6786 57.8353 52.5423 58.1773 52.5413H63.2626C63.3141 52.9696 63.34 53.4006 63.34 53.832ZM34.9557 61.5704C34.7004 61.5704 34.4509 61.4946 34.2387 61.3528C34.0265 61.211 33.8611 61.0094 33.7634 60.7736C33.6657 60.5378 33.6402 60.2783 33.69 60.028C33.7398 59.7776 33.8627 59.5477 34.0431 59.3672L38.6626 54.7466C38.9054 54.5086 39.2324 54.376 39.5724 54.3777C39.9124 54.3795 40.238 54.5153 40.4784 54.7557C40.7188 54.9962 40.8547 55.3217 40.8564 55.6618C40.8581 56.0018 40.7256 56.3287 40.4876 56.5716L35.8681 61.1922C35.7485 61.3122 35.6062 61.4074 35.4497 61.4723C35.2931 61.5373 35.1252 61.5706 34.9557 61.5704ZM25.9105 53.832C25.9095 54.174 25.7732 54.5017 25.5314 54.7436C25.2895 54.9854 24.9618 55.1217 24.6198 55.1227H19.5345C19.4312 54.2653 19.4312 53.3987 19.5345 52.5413H24.6198C24.7898 52.5396 24.9584 52.5719 25.1157 52.6361C25.2731 52.7004 25.416 52.7954 25.5362 52.9156C25.6564 53.0358 25.7514 53.1787 25.8157 53.3361C25.8799 53.4935 25.9122 53.662 25.9105 53.832ZM58.5387 38.5246L54.1762 42.8871C54.0559 43.0057 53.9134 43.0995 53.7568 43.1631C53.6002 43.2266 53.4326 43.2587 53.2636 43.2575C53.0947 43.2563 52.9276 43.2219 52.7719 43.1561C52.6162 43.0903 52.475 42.9945 52.3564 42.8742C52.2378 42.7538 52.144 42.6113 52.0804 42.4547C52.0168 42.2981 51.9847 42.1306 51.9859 41.9616C51.9871 41.7926 52.0216 41.6255 52.0874 41.4698C52.1532 41.3142 52.249 41.173 52.3693 41.0543L56.706 36.6919L58.5387 38.5246ZM30.4537 66.6097L26.0912 70.9722C25.4362 70.4163 24.8235 69.8123 24.2584 69.1652L28.6209 64.7769C28.8675 64.5408 29.1958 64.409 29.5373 64.409C29.8787 64.409 30.207 64.5408 30.4537 64.7769C30.5762 64.896 30.6736 65.0385 30.7401 65.1959C30.8067 65.3533 30.8409 65.5224 30.8409 65.6933C30.8409 65.8642 30.8067 66.0333 30.7401 66.1907C30.6736 66.3481 30.5762 66.4906 30.4537 66.6097ZM58.5387 69.1394C57.9941 69.8132 57.3797 70.4275 56.706 70.9722L52.3693 66.6097C52.2468 66.4906 52.1494 66.3481 52.0829 66.1907C52.0164 66.0333 51.9821 65.8642 51.9821 65.6933C51.9821 65.5224 52.0164 65.3533 52.0829 65.1959C52.1494 65.0385 52.2468 64.896 52.3693 64.7769C52.6109 64.5411 52.9352 64.4091 53.2728 64.4091C53.6104 64.4091 53.9346 64.5411 54.1762 64.7769L58.5387 69.1394ZM30.4537 42.8871C30.2086 43.1168 29.8861 43.2459 29.5502 43.2485C29.2066 43.2461 28.8758 43.1175 28.6209 42.8871L24.2584 38.4988C24.8235 37.8517 25.4362 37.2477 26.0912 36.6919L30.4537 41.0543C30.5762 41.1734 30.6736 41.3159 30.7401 41.4733C30.8067 41.6307 30.8409 41.7998 30.8409 41.9707C30.8409 42.1416 30.8067 42.3107 30.7401 42.4681C30.6736 42.6255 30.5762 42.768 30.4537 42.8871Z" fill="#3C3B41"/>
<path id="Vector_7" d="M41.4056 56.4083C42.8312 56.4083 43.9869 55.2526 43.9869 53.827C43.9869 52.4013 42.8312 51.2456 41.4056 51.2456C39.9799 51.2456 38.8242 52.4013 38.8242 53.827C38.8242 55.2526 39.9799 56.4083 41.4056 56.4083Z" fill="#F7991D"/>
<path id="Vector_8" d="M41.3978 29.3091C36.5477 29.3091 31.8064 30.7473 27.7737 33.4419C23.7409 36.1365 20.5978 39.9665 18.7417 44.4474C16.8856 48.9284 16.4 53.8591 17.3462 58.6161C18.2924 63.373 20.628 67.7426 24.0576 71.1721C27.4872 74.6017 31.8567 76.9373 36.6137 77.8835C41.3706 78.8297 46.3013 78.3441 50.7823 76.488C55.2633 74.6319 59.0932 71.4888 61.7878 67.456C64.4824 63.4233 65.9206 58.682 65.9206 53.8319C65.9191 47.3285 63.335 41.0919 58.7364 36.4933C54.1378 31.8947 47.9012 29.3106 41.3978 29.3091ZM55.9566 66.5579C55.412 67.2317 54.7976 67.8461 54.1239 68.3907C50.9493 71.2026 46.922 72.8663 42.6885 73.1146C41.8312 73.2179 40.9645 73.2179 40.1071 73.1146C35.8725 72.8712 31.8436 71.2069 28.6718 68.3907C28.0168 67.8348 27.4041 67.2308 26.839 66.5838C24.0325 63.3957 22.3701 59.3623 22.1151 55.1226C22.0118 54.2652 22.0118 53.3986 22.1151 52.5412C22.37 48.3015 24.0324 44.268 26.839 41.08C27.4041 40.433 28.0168 39.829 28.6718 39.2731C31.8436 36.4569 35.8725 34.7926 40.1071 34.5492C40.9645 34.4461 41.8311 34.4461 42.6885 34.5492C46.922 34.7976 50.9493 36.4612 54.1239 39.2731L55.9566 41.1058C58.7686 44.2804 60.4322 48.3077 60.6805 52.5412C60.7836 53.3986 60.7836 54.2652 60.6805 55.1226C60.4322 59.3561 58.7686 63.3834 55.9566 66.5579Z" fill="#8B8891"/>
<path id="Vector_9" d="M19.4563 53.8319C19.4608 47.5556 21.873 41.5203 26.1956 36.9699C30.5182 32.4194 36.4218 29.7007 42.6895 29.3742C42.2591 29.3518 41.8339 29.3091 41.3978 29.3091C34.894 29.3091 28.6565 31.8927 24.0576 36.4916C19.4586 41.0906 16.875 47.328 16.875 53.8319C16.875 60.3357 19.4586 66.5732 24.0576 71.1721C28.6565 75.7711 34.894 78.3547 41.3978 78.3547C41.8339 78.3547 42.2592 78.3119 42.6896 78.2893C36.4234 77.9585 30.5223 75.2386 26.2006 70.6891C21.8788 66.1397 19.4652 60.1068 19.4563 53.8319Z" fill="#58565D"/>
</g>
</svg>
