<svg width="97" height="96" viewBox="0 0 97 96" fill="none" xmlns="http://www.w3.org/2000/svg">
<path d="M80.9632 48.0001V55.4329H76.0084V48.0001C76.0409 46.6787 75.8087 45.3641 75.3255 44.1337C74.8422 42.9033 74.1177 41.782 73.1946 40.8359C72.2715 39.8898 71.1684 39.1379 69.9503 38.6245C68.7321 38.1112 67.4236 37.8467 66.1018 37.8467C64.7799 37.8467 63.4714 38.1112 62.2533 38.6245C61.0352 39.1379 59.9321 39.8898 59.0089 40.8359C58.0858 41.782 57.3613 42.9033 56.8781 44.1337C56.3948 45.3641 56.1626 46.6787 56.1952 48.0001V55.4329H51.2344V48.0001C51.2344 44.0579 52.8004 40.277 55.5881 37.4894C58.3757 34.7018 62.1565 33.1357 66.0988 33.1357C70.0411 33.1357 73.8219 34.7018 76.6095 37.4894C79.3971 40.277 80.9632 44.0579 80.9632 48.0001Z" fill="#DCDCDC"/>
<path d="M31.416 13.3196V47.9996L27.696 50.9516L23.9844 47.9996V13.3196C24.0298 12.3647 24.4411 11.4639 25.133 10.8042C25.8249 10.1444 26.7442 9.77637 27.7002 9.77637C28.6562 9.77637 29.5755 10.1444 30.2674 10.8042C30.9592 11.4639 31.3706 12.3647 31.416 13.3196Z" fill="#F8E883"/>
<path d="M82.2043 52.9546H49.9975C49.3409 52.9565 48.7117 53.2182 48.2474 53.6825C47.7831 54.1468 47.5214 54.776 47.5195 55.4326V60.3874C47.5217 61.0438 47.7836 61.6727 48.2478 62.1367C48.7121 62.6008 49.3411 62.8623 49.9975 62.8642H51.2359L53.2423 81.9598C53.372 83.1777 53.9471 84.3047 54.8573 85.1242C55.7674 85.9438 56.9484 86.3981 58.1731 86.3998H74.0287C75.2534 86.3983 76.4344 85.9441 77.3444 85.1245C78.2544 84.3048 78.8292 83.1777 78.9583 81.9598L80.9647 62.8642H82.2043C82.8606 62.8623 83.4895 62.6007 83.9536 62.1367C84.4177 61.6726 84.6792 61.0437 84.6811 60.3874V55.4326C84.6792 54.7762 84.4177 54.1472 83.9537 53.6829C83.4896 53.2186 82.8607 52.9568 82.2043 52.9546Z" fill="#7FB3FA"/>
<path d="M59.4367 81.9598L57.4267 62.8642H56.1883C55.5319 62.8623 54.9029 62.6008 54.4386 62.1367C53.9744 61.6727 53.7125 61.0438 53.7103 60.3874V55.4326C53.7122 54.776 53.9739 54.1468 54.4382 53.6825C54.9025 53.2182 55.5317 52.9565 56.1883 52.9546H49.9975C49.3409 52.9565 48.7117 53.2182 48.2474 53.6825C47.7831 54.1468 47.5214 54.776 47.5195 55.4326V60.3874C47.5217 61.0438 47.7836 61.6727 48.2478 62.1367C48.7121 62.6008 49.3411 62.8623 49.9975 62.8642H51.2359L53.2423 81.9598C53.372 83.1777 53.9471 84.3047 54.8573 85.1242C55.7674 85.9438 56.9484 86.3981 58.1731 86.3998H64.3639C63.1398 86.3972 61.9597 85.9425 61.0503 85.123C60.141 84.3036 59.5663 83.1771 59.4367 81.9598Z" fill="#64A6F4"/>
<path d="M84.6811 55.4326V60.3874C84.6792 61.0437 84.4177 61.6726 83.9536 62.1367C83.4895 62.6007 82.8606 62.8623 82.2043 62.8642H49.9975C49.3411 62.8623 48.7121 62.6008 48.2478 62.1367C47.7836 61.6727 47.5217 61.0438 47.5195 60.3874V55.4326C47.5214 54.776 47.7831 54.1468 48.2474 53.6825C48.7117 53.2182 49.3409 52.9565 49.9975 52.9546H82.2043C82.8607 52.9568 83.4896 53.2186 83.9537 53.6829C84.4177 54.1472 84.6792 54.7762 84.6811 55.4326Z" fill="#655E67"/>
<path d="M57.4267 59.148H56.1883C55.5319 59.1461 54.9029 58.8846 54.4386 58.4205C53.9744 57.9565 53.7125 57.3276 53.7103 56.6712V52.9512H49.9975C49.3409 52.9531 48.7117 53.2148 48.2474 53.6791C47.7831 54.1434 47.5214 54.7726 47.5195 55.4292V60.384C47.5217 61.0404 47.7836 61.6693 48.2478 62.1333C48.7121 62.5974 49.3411 62.8589 49.9975 62.8608H82.2043C82.8606 62.8589 83.4895 62.5973 83.9536 62.1332C84.4177 61.6692 84.6792 61.0403 84.6811 60.384V59.148H57.4267Z" fill="#544F56"/>
<path d="M42.5265 76.8744C42.6626 78.9557 42.2487 81.0361 41.3265 82.9068C39.7472 83.7743 38.0879 84.4876 36.3717 85.0368C35.5545 85.2972 34.7361 85.5168 33.8937 85.7064C32.2654 86.0766 30.6072 86.3003 28.9389 86.3748C28.5309 86.388 28.1097 86.4 27.7005 86.4C27.2913 86.4 26.8701 86.388 26.4621 86.3748C24.7939 86.3003 23.1357 86.0766 21.5073 85.7064C20.6673 85.5204 19.8465 85.2972 19.0293 85.0368C17.3144 84.4874 15.6563 83.7741 14.0781 82.9068C11.5965 79.1664 12.8349 65.4528 19.0281 57.972V52.9548C19.028 52.3041 19.156 51.6597 19.405 51.0585C19.6539 50.4573 20.0189 49.911 20.479 49.4509C20.9391 48.9908 21.4854 48.6258 22.0866 48.3768C22.6878 48.1279 23.3322 47.9998 23.9829 48H31.4157C32.0664 47.9998 32.7108 48.1279 33.312 48.3768C33.9132 48.6258 34.4595 48.9908 34.9196 49.4509C35.3798 49.911 35.7447 50.4573 35.9937 51.0585C36.2426 51.6597 36.3707 52.3041 36.3705 52.9548V57.972C40.6065 63.0876 42.5265 71.1024 42.5265 76.8744Z" fill="#DCDCDC"/>
<path d="M25.1165 57.972V52.44C25.1191 51.5892 25.3106 50.7496 25.677 49.9818C26.0435 49.214 26.5759 48.5371 27.2357 48H23.9849C23.3341 47.9997 22.6896 48.1276 22.0882 48.3765C21.4869 48.6254 20.9404 48.9903 20.4802 49.4505C20.0199 49.9106 19.6549 50.4569 19.4058 51.0582C19.1568 51.6595 19.0287 52.304 19.0289 52.9548V57.972C12.8357 65.4528 11.5973 79.1664 14.0765 82.9068C15.4509 83.6555 16.885 84.2889 18.3641 84.8004C16.9925 78.5208 18.9341 65.4372 25.1165 57.972Z" fill="#C7BDC0"/>
<path d="M36.3697 52.9548V57.972H19.0273V52.9548C19.0272 52.304 19.1553 51.6595 19.4043 51.0582C19.6533 50.4569 20.0184 49.9106 20.4786 49.4505C20.9389 48.9903 21.4853 48.6254 22.0867 48.3765C22.688 48.1276 23.3325 47.9997 23.9833 48H31.4149C32.0657 47.9998 32.71 48.1279 33.3112 48.3768C33.9125 48.6258 34.4587 48.9908 34.9189 49.4509C35.379 49.911 35.744 50.4573 35.9929 51.0585C36.2418 51.6597 36.3699 52.3041 36.3697 52.9548Z" fill="#FF6F7F"/>
<path d="M26.4604 55.4328C25.8033 55.4325 25.1732 55.1713 24.7086 54.7067C24.2439 54.242 23.9828 53.6119 23.9824 52.9548V50.4156C23.988 49.5672 24.2138 48.7349 24.6376 48H23.9872C22.673 48 21.4126 48.522 20.4833 49.4512C19.5539 50.3803 19.0316 51.6406 19.0312 52.9548V57.972H36.3724V55.4328H26.4604Z" fill="#ED5C79"/>
<path d="M27.6972 41.8069V9.6001C27.209 9.59994 26.7255 9.6961 26.2745 9.88308C25.8235 10.0701 25.4138 10.3442 25.0689 10.6897C24.724 11.0353 24.4507 11.4455 24.2646 11.8969C24.0785 12.3482 23.9833 12.8319 23.9844 13.3201V48.0001H31.416V44.2801H30.1752C29.5187 44.2804 28.889 44.0201 28.4243 43.5564C27.9597 43.0926 27.6981 42.4634 27.6972 41.8069Z" fill="#F2CB77"/>
<path d="M28.933 77.7286V86.3686C28.525 86.3818 28.1038 86.3938 27.6946 86.3938C27.2854 86.3938 26.8642 86.3818 26.4562 86.3686V77.7286C26.4562 77.4002 26.5867 77.0852 26.819 76.853C27.0512 76.6207 27.3662 76.4902 27.6946 76.4902C28.0231 76.4902 28.3381 76.6207 28.5703 76.853C28.8026 77.0852 28.933 77.4002 28.933 77.7286ZM36.3658 77.7286V85.0366C35.5486 85.297 34.7302 85.5166 33.8878 85.7062V77.7286C33.8979 77.4067 34.0328 77.1013 34.2641 76.8771C34.4953 76.653 34.8048 76.5276 35.1268 76.5276C35.4489 76.5276 35.7584 76.653 35.9896 76.8771C36.2209 77.1013 36.3558 77.4067 36.3658 77.7286ZM21.5014 77.7286V85.7062C20.6614 85.5202 19.8406 85.297 19.0234 85.0366V77.7286C19.0335 77.4067 19.1684 77.1013 19.3997 76.8771C19.6309 76.653 19.9404 76.5276 20.2624 76.5276C20.5845 76.5276 20.894 76.653 21.1252 76.8771C21.3565 77.1013 21.4914 77.4067 21.5014 77.7286Z" fill="#655E67"/>
</svg>
