<svg width="97" height="96" viewBox="0 0 97 96" fill="none" xmlns="http://www.w3.org/2000/svg">
<g id="Confetti">
<path id="Vector" d="M22.75 73.5L9.25 87" stroke="#CCCCCC" stroke-width="3" stroke-miterlimit="10" strokeLinecap="round"/>
<path id="Vector_2" d="M67.2277 58.7248C65.8177 59.2948 64.4077 59.8348 62.9827 60.3748L58.4827 62.1298L42.8677 68.2648L42.1027 68.5648L21.6277 76.5748C21.3551 76.6839 21.0565 76.7106 20.7689 76.6516C20.4813 76.5926 20.2173 76.4505 20.0097 76.2429C19.802 76.0353 19.6599 75.7713 19.6009 75.4837C19.5419 75.196 19.5686 74.8974 19.6777 74.6248L20.3977 72.7648L25.5877 59.5498L26.1727 58.0498L31.4677 44.5498L31.5577 44.3398L37.5577 29.0698L64.1527 55.6498L67.2277 58.7248Z" fill="#2B8AFC"/>
<path id="Vector_3" d="M64.1495 55.6498L60.1595 57.1498L55.7495 58.9498L40.0445 65.0848L39.2795 65.3848L20.3945 72.7648L25.5845 59.5498L26.1695 58.0498L31.4645 44.5498L31.5545 44.3398L37.5545 29.0698L64.1495 55.6498Z" fill="#2B8AFC"/>
<path id="Vector_4" d="M62.9809 60.3753L58.4809 62.1303L42.8659 68.2653L38.6059 66.1203L25.5859 59.5503L26.1709 58.0503L31.4509 44.5503L34.9159 46.2903L58.3609 58.0503L62.9809 60.3753Z" fill="#DB7407"/>
<path id="Vector_5" d="M58.7509 57.8853L58.3609 58.0503C56.9509 58.6053 55.5409 59.1903 54.1609 59.7603L38.6059 66.1203L25.5859 59.5503L26.1709 58.0503L31.4509 44.5503L34.9309 46.2453L58.7509 57.8853Z" fill="#F9C185"/>
<path id="Vector_6" d="M67.2234 58.725C66.1584 59.79 62.7234 58.29 58.4634 55.125C55.1841 52.6776 52.0952 49.9848 49.2234 47.07C41.0184 38.88 35.7234 30.795 37.5534 29.07C39.3834 27.345 47.3784 32.535 55.5534 40.74C58.5545 43.6982 61.318 46.888 63.8184 50.28C66.8484 54.435 68.2584 57.69 67.2234 58.725Z" fill="#DD7405"/>
<path id="Vector_7" d="M65.1384 56.6099C64.1484 57.5999 61.7184 56.9699 58.4634 55.1099C55.1841 52.6624 52.0952 49.9697 49.2234 47.0549C41.0184 38.8649 35.7234 30.7799 37.5534 29.0549C39.3834 27.3299 47.3784 32.5199 55.5534 40.7249C58.5545 43.6831 61.318 46.8729 63.8184 50.2649C65.5284 53.3399 66.0984 55.6499 65.1384 56.6099Z" fill="#F9C185"/>
<path id="Vector_8" d="M76.7641 19.4854L61.9141 34.3354" stroke="#2B8AFC" stroke-width="3" stroke-miterlimit="10" strokeLinecap="round"/>
<path id="Vector_9" d="M81.1467 15.105L81.0117 15.24" stroke="#595BD4" stroke-width="3" stroke-miterlimit="10" strokeLinecap="round"/>
<path id="Vector_10" d="M91.7483 42.6899L91.6133 42.8099" stroke="#595BD4" stroke-width="3" stroke-miterlimit="10" strokeLinecap="round"/>
<path id="Vector_11" d="M68.2891 45.0004L74.6491 38.6404L74.1241 39.1654C75.9524 37.3381 78.4316 36.3115 81.0166 36.3115C83.6015 36.3115 86.0807 37.3381 87.9091 39.1654" stroke="#2B8AFC" stroke-width="3" stroke-miterlimit="10" strokeLinecap="round"/>
<path id="Vector_12" d="M53.5614 4.5L53.4414 4.635" stroke="#595BD4" stroke-width="3" stroke-miterlimit="10" strokeLinecap="round"/>
<path id="Vector_13" d="M51.25 27.9598L57.61 21.5998L57.085 22.1248C58.9124 20.2965 59.9389 17.8173 59.9389 15.2323C59.9389 12.6474 58.9124 10.1682 57.085 8.33984" stroke="#2B8AFC" stroke-width="3" stroke-miterlimit="10" strokeLinecap="round"/>
<path id="Vector_14" d="M71.4716 12.0601L67.2266 16.3051" stroke="#167FFC" stroke-width="3" stroke-miterlimit="10" strokeLinecap="round"/>
<path id="Vector_15" d="M71.4716 16.3051L67.2266 12.0601" stroke="#167FFC" stroke-width="3" stroke-miterlimit="10" strokeLinecap="round"/>
<path id="Vector_16" d="M84.1903 24.7803L79.9453 29.0253" stroke="#167FFC" stroke-width="3" stroke-miterlimit="10" strokeLinecap="round"/>
<path id="Vector_17" d="M84.1903 29.0253L79.9453 24.7803" stroke="#167FFC" stroke-width="3" stroke-miterlimit="10" strokeLinecap="round"/>
<path id="Vector_18" d="M48.1306 14.1748L46.0156 16.3048" stroke="#53D86A" stroke-width="3" stroke-miterlimit="10"/>
<path id="Vector_19" d="M43.8845 18.4199L41.7695 20.5349" stroke="#53D86A" stroke-width="3" stroke-miterlimit="10"/>
<path id="Vector_20" d="M48.1306 20.5349L46.0156 18.4199" stroke="#53D86A" stroke-width="3" stroke-miterlimit="10"/>
<path id="Vector_21" d="M43.8845 16.3053L41.7695 14.1753" stroke="#53D86A" stroke-width="3" stroke-miterlimit="10"/>
<path id="Vector_22" d="M79.947 50.2354L77.832 52.3653" stroke="#53D86A" stroke-width="3" stroke-miterlimit="10"/>
<path id="Vector_23" d="M75.7159 54.4795L73.5859 56.6095" stroke="#53D86A" stroke-width="3" stroke-miterlimit="10"/>
<path id="Vector_24" d="M79.947 56.6095L77.832 54.4795" stroke="#53D86A" stroke-width="3" stroke-miterlimit="10"/>
<path id="Vector_25" d="M75.7159 52.3653L73.5859 50.2354" stroke="#53D86A" stroke-width="3" stroke-miterlimit="10"/>
<path id="Vector_26" d="M7.75 91.5C9.40685 91.5 10.75 90.1569 10.75 88.5C10.75 86.8431 9.40685 85.5 7.75 85.5C6.09315 85.5 4.75 86.8431 4.75 88.5C4.75 90.1569 6.09315 91.5 7.75 91.5Z" fill="#D38839"/>
<g id="Group">
<path id="Vector_27" d="M61.9131 35.8351C62.1105 35.8362 62.3062 35.7984 62.4889 35.7238C62.6717 35.6491 62.8379 35.5391 62.9781 35.4001L77.8281 20.5501C77.9851 20.4156 78.1126 20.2501 78.2027 20.0641C78.2927 19.878 78.3433 19.6753 78.3513 19.4687C78.3592 19.2621 78.3244 19.0561 78.249 18.8636C78.1736 18.6711 78.0592 18.4963 77.913 18.3501C77.7669 18.2039 77.592 18.0896 77.3996 18.0141C77.2071 17.9387 77.0011 17.9039 76.7945 17.9119C76.5879 17.9199 76.3852 17.9705 76.1991 18.0605C76.013 18.1505 75.8475 18.2781 75.7131 18.4351L60.8631 33.2851C60.6515 33.4949 60.5073 33.763 60.4486 34.0551C60.39 34.3472 60.4198 34.6502 60.534 34.9253C60.6483 35.2005 60.8419 35.4354 61.0901 35.6001C61.3384 35.7648 61.6301 35.8518 61.9281 35.8501L61.9131 35.8351ZM82.0731 16.3051L82.2081 16.1701C82.4905 15.8896 82.65 15.5084 82.6514 15.1104C82.6528 14.7124 82.496 14.3301 82.2156 14.0476C81.9351 13.7651 81.5539 13.6057 81.1559 13.6043C80.7578 13.6029 80.3755 13.7596 80.0931 14.0401L79.9581 14.1751C79.8182 14.314 79.7071 14.479 79.631 14.6609C79.5549 14.8427 79.5154 15.0377 79.5147 15.2348C79.5133 15.6328 79.6701 16.0151 79.9506 16.2976C80.0894 16.4375 80.2545 16.5486 80.4363 16.6247C80.6181 16.7007 80.8132 16.7402 81.0103 16.7409C81.4083 16.7423 81.7906 16.5856 82.0731 16.3051ZM90.6831 41.6251L90.5481 41.7601C90.4082 41.899 90.2971 42.064 90.221 42.2459C90.1449 42.4277 90.1054 42.6227 90.1047 42.8198C90.104 43.0169 90.1422 43.2122 90.2169 43.3945C90.2917 43.5769 90.4017 43.7427 90.5406 43.8826C90.6794 44.0225 90.8445 44.1336 91.0263 44.2097C91.2081 44.2857 91.4032 44.3252 91.6003 44.3259C91.7974 44.3266 91.9927 44.2885 92.175 44.2137C92.3574 44.1389 92.5232 44.029 92.6631 43.8901L92.7981 43.7551C93.0805 43.4746 93.24 43.0934 93.2414 42.6954C93.2428 42.2974 93.086 41.9151 92.8056 41.6326C92.5251 41.3501 92.1439 41.1907 91.7459 41.1893C91.3478 41.1879 90.9655 41.3446 90.6831 41.6251ZM86.8431 40.1701C86.9775 40.3271 87.143 40.4547 87.3291 40.5447C87.5152 40.6347 87.7179 40.6853 87.9245 40.6933C88.1311 40.7013 88.3371 40.6665 88.5296 40.5911C88.722 40.5156 88.8969 40.4013 89.043 40.2551C89.1892 40.1089 89.3036 39.9341 89.379 39.7416C89.4544 39.5491 89.4892 39.3431 89.4813 39.1365C89.4733 38.9299 89.4227 38.7272 89.3327 38.5411C89.2426 38.355 89.1151 38.1896 88.9581 38.0551C86.9439 36.0349 84.2383 34.8541 81.3874 34.7511C78.5366 34.6481 75.7528 35.6305 73.5981 37.5001L67.2381 43.8601C67.081 43.9946 66.9535 44.16 66.8635 44.3461C66.7734 44.5322 66.7228 44.7349 66.7149 44.9415C66.7069 45.1481 66.7417 45.3541 66.8171 45.5466C66.8925 45.7391 67.0069 45.9139 67.1531 46.0601C67.2993 46.2063 67.4741 46.3206 67.6666 46.3961C67.8591 46.4715 68.0651 46.5063 68.2716 46.4983C68.4782 46.4903 68.6809 46.4397 68.867 46.3497C69.0531 46.2596 69.2186 46.1321 69.3531 45.9751L75.2481 40.1551C76.7961 38.6355 78.8794 37.7854 81.0486 37.7882C83.2178 37.791 85.299 38.6465 86.8431 40.1701ZM54.4881 5.7001L54.6231 5.5651C54.7801 5.43063 54.9076 5.26515 54.9977 5.07905C55.0877 4.89295 55.1383 4.69026 55.1463 4.48368C55.1542 4.2771 55.1194 4.0711 55.044 3.87861C54.9686 3.68612 54.8542 3.5113 54.708 3.36512C54.5619 3.21894 54.387 3.10455 54.1945 3.02914C54.0021 2.95373 53.7961 2.91892 53.5895 2.9269C53.3829 2.93488 53.1802 2.98547 52.9941 3.07551C52.808 3.16554 52.6425 3.29307 52.5081 3.4501L52.3731 3.5851C52.216 3.71957 52.0885 3.88504 51.9985 4.07114C51.9084 4.25724 51.8578 4.45994 51.8499 4.66652C51.8419 4.8731 51.8767 5.07909 51.9521 5.27158C52.0275 5.46407 52.1419 5.63889 52.2881 5.78507C52.4343 5.93125 52.6091 6.04564 52.8016 6.12105C52.9941 6.19646 53.2001 6.23127 53.4066 6.22329C53.6132 6.21532 53.8159 6.16472 54.002 6.07468C54.1881 5.98465 54.3536 5.85712 54.4881 5.7001ZM58.2081 7.2901C57.9211 7.04436 57.552 6.91595 57.1745 6.93053C56.797 6.94511 56.4389 7.10161 56.1717 7.36875C55.9046 7.63589 55.7481 7.994 55.7335 8.37152C55.7189 8.74903 55.8473 9.11814 56.0931 9.4051C57.6365 10.9518 58.5033 13.0476 58.5033 15.2326C58.5033 17.4176 57.6365 19.5134 56.0931 21.0601L50.2431 26.9101C50.086 27.0446 49.9585 27.21 49.8685 27.3961C49.7784 27.5822 49.7278 27.7849 49.7199 27.9915C49.7119 28.1981 49.7467 28.4041 49.8221 28.5966C49.8975 28.7891 50.0119 28.9639 50.1581 29.1101C50.3043 29.2563 50.4791 29.3706 50.6716 29.4461C50.8641 29.5215 51.0701 29.5563 51.2766 29.5483C51.4832 29.5403 51.6859 29.4897 51.872 29.3997C52.0581 29.3096 52.2236 29.1821 52.3581 29.0251L58.7481 22.6651C60.6268 20.5175 61.6193 17.7363 61.5246 14.8844C61.4299 12.0326 60.2551 9.32333 58.2381 7.3051L58.2081 7.2901ZM66.1581 17.3551C66.4391 17.6345 66.8193 17.7913 67.2156 17.7913C67.6118 17.7913 67.992 17.6345 68.2731 17.3551L69.3381 16.2901L70.4031 17.3551C70.69 17.6008 71.0591 17.7292 71.4366 17.7147C71.8142 17.7001 72.1723 17.5436 72.4394 17.2764C72.7066 17.0093 72.8631 16.6512 72.8776 16.2737C72.8922 15.8962 72.7638 15.527 72.5181 15.2401L71.4531 14.1751L72.5181 13.1101C72.7638 12.8231 72.8922 12.454 72.8776 12.0765C72.8631 11.699 72.7066 11.3409 72.4394 11.0738C72.1723 10.8066 71.8142 10.6501 71.4366 10.6355C71.0591 10.6209 70.69 10.7494 70.4031 10.9951L69.3381 12.0001L68.2731 10.9351C67.9861 10.6894 67.617 10.5609 67.2395 10.5755C66.862 10.5901 66.5039 10.7466 66.2367 11.0138C65.9696 11.2809 65.8131 11.639 65.7985 12.0165C65.7839 12.394 65.9123 12.7631 66.1581 13.0501L67.2231 14.1151L66.1581 15.1801C66.0106 15.3202 65.8931 15.4889 65.8128 15.6759C65.7326 15.8628 65.6912 16.0641 65.6912 16.2676C65.6912 16.4711 65.7326 16.6724 65.8128 16.8593C65.8931 17.0463 66.0106 17.215 66.1581 17.3551ZM78.8931 30.0901C79.1741 30.3695 79.5543 30.5263 79.9506 30.5263C80.3468 30.5263 80.727 30.3695 81.0081 30.0901L82.0731 29.0251L83.1381 30.0901C83.425 30.3358 83.7941 30.4642 84.1716 30.4497C84.5492 30.4351 84.9073 30.2786 85.1744 30.0114C85.4416 29.7443 85.5981 29.3862 85.6126 29.0087C85.6272 28.6312 85.4988 28.262 85.2531 27.9751L84.2481 26.9101L85.3131 25.8451C85.5588 25.5581 85.6872 25.189 85.6726 24.8115C85.6581 24.434 85.5016 24.0759 85.2344 23.8088C84.9673 23.5416 84.6092 23.3851 84.2316 23.3705C83.8541 23.3559 83.485 23.4844 83.1981 23.7301L82.1331 24.7951L81.0681 23.7301C80.7811 23.4844 80.412 23.3559 80.0345 23.3705C79.657 23.3851 79.2989 23.5416 79.0317 23.8088C78.7646 24.0759 78.6081 24.434 78.5935 24.8115C78.5789 25.189 78.7073 25.5581 78.9531 25.8451L80.0181 26.9101L78.9531 27.9751C78.6656 28.2481 78.4979 28.6239 78.4866 29.0202C78.4754 29.4165 78.6215 29.8012 78.8931 30.0901Z" fill="black"/>
<path id="Vector_28" d="M47.0748 13.1193L44.9531 15.2402L47.0741 17.3619L49.1958 15.241L47.0748 13.1193Z" fill="black"/>
<path id="Vector_29" d="M42.8244 17.3743L40.7031 19.4956L42.8244 21.6169L44.9458 19.4956L42.8244 17.3743Z" fill="black"/>
<path id="Vector_30" d="M47.0663 17.3651L44.9453 19.4868L47.067 21.6078L49.188 19.4861L47.0663 17.3651Z" fill="black"/>
<path id="Vector_31" d="M42.8205 13.1292L40.6992 15.2505L42.8205 17.3718L44.9419 15.2505L42.8205 13.1292Z" fill="black"/>
<path id="Vector_32" d="M78.8869 49.179L76.7656 51.3003L78.8869 53.4216L81.0083 51.3003L78.8869 49.179Z" fill="black"/>
<path id="Vector_33" d="M74.6448 53.4265L72.5234 55.5479L74.6448 57.6692L76.7661 55.5479L74.6448 53.4265Z" fill="black"/>
<path id="Vector_34" d="M78.8909 53.4256L76.7695 55.5469L78.8909 57.6682L81.0122 55.5469L78.8909 53.4256Z" fill="black"/>
<path id="Vector_35" d="M74.6448 49.1799L72.5234 51.3013L74.6448 53.4226L76.7661 51.3013L74.6448 49.1799Z" fill="black"/>
<path id="Vector_36" d="M7.75 93C8.94347 93 10.0881 92.5259 10.932 91.6819C11.7759 90.838 12.25 89.6934 12.25 88.5C12.246 87.8295 12.0923 87.1684 11.8 86.565L20.305 78C20.5537 78.0728 20.8109 78.1132 21.07 78.12C21.4449 78.119 21.8163 78.0478 22.165 77.91L59.05 63.525L61.645 62.505L64.645 61.335L66.82 60.48C67.3827 60.4227 67.9104 60.18 68.32 59.79C69.82 58.29 69.205 55.62 66.415 51.315C63.5595 47.1028 60.288 43.1882 56.65 39.63C55.015 37.995 40.63 23.835 36.505 27.96C36.1195 28.371 35.882 28.8988 35.83 29.46L18.25 74.085C18.0529 74.6893 18.0529 75.3406 18.25 75.945L9.685 84.435C9.08038 84.1479 8.41932 83.9993 7.75 84C6.55653 84 5.41193 84.4741 4.56802 85.318C3.72411 86.1619 3.25 87.3065 3.25 88.5C3.25 89.6934 3.72411 90.838 4.56802 91.6819C5.41193 92.5259 6.55653 93 7.75 93ZM32.26 46.59L59.26 60.21L57.925 60.735L42.925 66.615L27.475 58.83L32.26 46.59ZM33.355 43.785L37.075 34.275C40.075 39.96 47.005 47.01 48.115 48.135C50.6705 50.6722 53.3647 53.0658 56.185 55.305L33.355 43.785ZM66.07 57.57C64.3 57.45 58.09 53.82 50.275 45.99C42.46 38.16 38.815 31.965 38.695 30.195C40.45 30.3 46.675 33.945 54.505 41.775C62.335 49.605 65.965 55.8 66.07 57.57ZM26.365 61.635L39.25 68.085L21.07 75.18L26.365 61.635ZM7.75 87C8.04667 87 8.33668 87.0879 8.58336 87.2528C8.83003 87.4176 9.02229 87.6519 9.13582 87.9259C9.24935 88.2 9.27906 88.5016 9.22118 88.7926C9.1633 89.0836 9.02044 89.3509 8.81066 89.5606C8.60088 89.7704 8.33361 89.9133 8.04264 89.9711C7.75166 90.029 7.45006 89.9993 7.17598 89.8858C6.90189 89.7723 6.66762 89.58 6.5028 89.3333C6.33797 89.0866 6.25 88.7966 6.25 88.5C6.25 88.1021 6.40804 87.7206 6.68934 87.4393C6.97064 87.158 7.35218 87 7.75 87Z" fill="black"/>
</g>
</g>
</svg>
