<svg width="97" height="96" viewBox="0 0 97 96" fill="none" xmlns="http://www.w3.org/2000/svg">
<g id="discount-email">
<path id="Vector" d="M20.125 47.9941L48.125 26.6611L76.125 47.9941L52.125 70.6604L20.125 47.9941Z" fill="#21257C"/>
<path id="Vector_2" d="M66.7969 21.3306H29.4635C27.9908 21.3306 26.7969 22.5245 26.7969 23.9972V66.6632C26.7969 68.1359 27.9908 69.3298 29.4635 69.3298H66.7969C68.2696 69.3298 69.4635 68.1359 69.4635 66.6632V23.9972C69.4635 22.5245 68.2696 21.3306 66.7969 21.3306Z" fill="#E6F3FF"/>
<path id="Vector_3" d="M77.4675 50.1856C77.4674 49.7078 77.339 49.2387 77.0957 48.8275C76.8523 48.4163 76.5029 48.078 76.084 47.8481C75.6651 47.6181 75.1922 47.505 74.7146 47.5204C74.237 47.5359 73.7723 47.6794 73.3691 47.9359L48.1341 63.9943L22.8991 47.9359C22.4959 47.6794 22.0313 47.5359 21.5537 47.5204C21.0761 47.505 20.6031 47.6181 20.1842 47.8481C19.7653 48.078 19.4159 48.4163 19.1726 48.8275C18.9292 49.2387 18.8008 49.7078 18.8008 50.1856V79.9941H77.4675V50.1856Z" fill="#E6F3FF"/>
<path id="Vector_4" d="M18.8008 79.9961V83.996C18.8008 84.7033 19.0817 85.3815 19.5818 85.8816C20.0819 86.3817 20.7602 86.6627 21.4674 86.6627H74.8008C75.508 86.6627 76.1863 86.3817 76.6864 85.8816C77.1865 85.3815 77.4675 84.7033 77.4675 83.996V79.9961H18.8008Z" fill="#4AA5FF"/>
<path id="Vector_5" d="M42.7917 34.6624C44.2644 34.6624 45.4583 33.4685 45.4583 31.9957C45.4583 30.523 44.2644 29.3291 42.7917 29.3291C41.3189 29.3291 40.125 30.523 40.125 31.9957C40.125 33.4685 41.3189 34.6624 42.7917 34.6624Z" fill="#E6F3FF"/>
<path id="Vector_6" d="M53.4635 47.9924C54.9363 47.9924 56.1302 46.7985 56.1302 45.3258C56.1302 43.8531 54.9363 42.6592 53.4635 42.6592C51.9908 42.6592 50.7969 43.8531 50.7969 45.3258C50.7969 46.7985 51.9908 47.9924 53.4635 47.9924Z" fill="#E6F3FF"/>
<path id="Vector_7" d="M54.7314 18.6847C54.9065 18.6849 55.08 18.6505 55.2417 18.5835C55.4035 18.5164 55.5505 18.4181 55.6741 18.2941L59.4449 14.5226C59.5687 14.3988 59.6669 14.2519 59.7339 14.0901C59.8009 13.9284 59.8354 13.755 59.8354 13.58C59.8354 13.4049 59.8009 13.2315 59.7339 13.0698C59.6669 12.908 59.5687 12.7611 59.4449 12.6373C59.3211 12.5135 59.1741 12.4153 59.0124 12.3483C58.8507 12.2813 58.6773 12.2468 58.5022 12.2468C58.3271 12.2468 58.1538 12.2813 57.992 12.3483C57.8303 12.4153 57.6833 12.5135 57.5595 12.6373L53.7887 16.4087C53.6065 16.5968 53.4832 16.834 53.4341 17.0912C53.3851 17.3485 53.4123 17.6144 53.5125 17.8563C53.6127 18.0983 53.7815 18.3056 53.9981 18.4528C54.2147 18.6 54.4696 18.6806 54.7314 18.6847ZM40.5882 18.2941C40.8399 18.536 41.1764 18.6696 41.5254 18.6661C41.8745 18.6626 42.2083 18.5224 42.4551 18.2756C42.7019 18.0287 42.8421 17.6949 42.8456 17.3459C42.849 16.9968 42.7154 16.6603 42.4735 16.4087L38.7028 12.6373C38.4511 12.3954 38.1146 12.2618 37.7655 12.2653C37.4165 12.2688 37.0827 12.409 36.8358 12.6558C36.589 12.9027 36.4488 13.2365 36.4454 13.5855C36.4419 13.9346 36.5755 14.2711 36.8174 14.5227L40.5882 18.2941ZM48.1312 15.951C48.3063 15.9511 48.4797 15.9166 48.6415 15.8496C48.8032 15.7827 48.9502 15.6844 49.0741 15.5606C49.1979 15.4368 49.2961 15.2898 49.3631 15.128C49.4301 14.9662 49.4645 14.7928 49.4645 14.6177V9.28448C49.4645 8.93087 49.324 8.59173 49.074 8.34169C48.8239 8.09165 48.4848 7.95117 48.1312 7.95117C47.7775 7.95117 47.4384 8.09165 47.1883 8.34169C46.9383 8.59173 46.7978 8.93087 46.7978 9.28448V14.6177C46.7978 14.7928 46.8322 14.9662 46.8992 15.128C46.9662 15.2898 47.0644 15.4368 47.1882 15.5606C47.3121 15.6844 47.4591 15.7827 47.6209 15.8496C47.7826 15.9166 47.956 15.9511 48.1312 15.951Z" fill="#4AA5FF"/>
<path id="Vector_8" d="M21.4575 87.9511H74.7908C75.8513 87.9499 76.8681 87.5281 77.618 86.7782C78.3679 86.0284 78.7897 85.0116 78.7908 83.9511V50.1431C78.8025 49.3817 78.589 48.6339 78.1772 47.9935C77.7653 47.353 77.1735 46.8485 76.476 46.5431L70.7908 42.211V23.9521C70.7897 22.8916 70.3679 21.8749 69.618 21.125C68.8681 20.3751 67.8513 19.9533 66.7908 19.9521H29.4575C28.397 19.9533 27.3802 20.3751 26.6303 21.125C25.8804 21.8749 25.4586 22.8916 25.4575 23.9521V42.211L19.7721 46.5433C19.0747 46.8487 18.483 47.3532 18.0712 47.9936C17.6594 48.634 17.4459 49.3818 17.4575 50.1431V83.9511C17.4586 85.0116 17.8804 86.0284 18.6303 86.7782C19.3802 87.5281 20.397 87.9499 21.4575 87.9511ZM74.7908 85.2845H21.4575C21.104 85.2841 20.765 85.1435 20.5151 84.8935C20.2651 84.6436 20.1245 84.3047 20.1241 83.9511V50.1431C20.1341 49.2759 20.6169 49.2541 21.1398 48.8546C21.3135 48.8034 21.4964 48.7915 21.6752 48.8197C21.854 48.848 22.0243 48.9158 22.1736 49.0181L47.408 65.0765C47.6222 65.2123 47.8705 65.2845 48.1241 65.2845C48.3778 65.2845 48.6261 65.2123 48.8403 65.0765L74.0747 49.0181C74.2252 48.9175 74.3957 48.8509 74.5746 48.8229C74.7534 48.7948 74.9362 48.8061 75.1102 48.8558C75.614 49.2458 76.1305 49.2877 76.1241 50.1431V73.2846H67.408C67.0544 73.2846 66.7152 73.4251 66.4652 73.6751C66.2151 73.9252 66.0747 74.2643 66.0747 74.6179C66.0747 74.9715 66.2151 75.3107 66.4652 75.5607C66.7152 75.8108 67.0544 75.9512 67.408 75.9512H76.1241V78.6179H61.4575C61.1039 78.6179 60.7647 78.7583 60.5147 79.0084C60.2646 79.2584 60.1241 79.5976 60.1241 79.9512C60.1241 80.3048 60.2646 80.6439 60.5147 80.894C60.7647 81.144 61.1039 81.2845 61.4575 81.2845H76.1241V83.9511C76.1238 84.3046 75.9832 84.6436 75.7332 84.8935C75.4833 85.1435 75.1443 85.2841 74.7908 85.2845ZM72.4943 46.8624L70.7908 47.9464V45.5644L72.4943 46.8624ZM29.4575 22.6188H66.7908C67.1443 22.6191 67.4833 22.7597 67.7332 23.0097C67.9832 23.2596 68.1238 23.5986 68.1241 23.9521V49.6434L48.1241 62.3707L28.1241 49.6434V23.9521C28.1245 23.5986 28.2651 23.2596 28.5151 23.0097C28.765 22.7597 29.104 22.6191 29.4575 22.6188ZM25.4575 47.9464L23.754 46.8624L25.4575 45.5644V47.9464Z" fill="#21257C"/>
<path id="Vector_9" d="M42.7834 35.951C43.8365 35.9392 44.8424 35.5125 45.5829 34.7637C46.3233 34.0148 46.7386 33.0042 46.7386 31.9511C46.7386 30.8979 46.3233 29.8873 45.5828 29.1385C44.8423 28.3896 43.8364 27.963 42.7833 27.9512C41.7302 27.963 40.7243 28.3897 39.9839 29.1386C39.2434 29.8874 38.8281 30.898 38.8281 31.9512C38.8281 33.0043 39.2435 34.0149 39.9839 34.7638C40.7244 35.5126 41.7304 35.9392 42.7834 35.951ZM42.7834 30.6178C43.1325 30.6246 43.4651 30.7681 43.7095 31.0174C43.954 31.2667 44.091 31.602 44.091 31.9511C44.091 32.3003 43.954 32.6356 43.7095 32.8849C43.465 33.1342 43.1325 33.2776 42.7833 33.2844C42.4342 33.2776 42.1017 33.1341 41.8572 32.8848C41.6127 32.6355 41.4758 32.3003 41.4758 31.9511C41.4758 31.6019 41.6128 31.2666 41.8573 31.0173C42.1018 30.768 42.4343 30.6246 42.7834 30.6178ZM49.4501 45.2842C49.462 46.3373 49.8886 47.3432 50.6375 48.0836C51.3864 48.8241 52.397 49.2394 53.4501 49.2393C54.5033 49.2393 55.5139 48.824 56.2628 48.0835C57.0116 47.3431 57.4382 46.3372 57.4501 45.2841C57.4382 44.2311 57.0116 43.2252 56.2627 42.4847C55.5138 41.7443 54.5032 41.329 53.45 41.329C52.3969 41.329 51.3862 41.7443 50.6374 42.4848C49.8886 43.2253 49.4619 44.2312 49.4501 45.2842ZM54.7834 45.2842C54.7766 45.6333 54.6331 45.9659 54.3838 46.2103C54.1345 46.4548 53.7992 46.5918 53.45 46.5918C53.1009 46.5918 52.7656 46.4548 52.5163 46.2103C52.267 45.9658 52.1235 45.6333 52.1168 45.2842C52.1236 44.935 52.267 44.6025 52.5164 44.358C52.7657 44.1136 53.1009 43.9766 53.4501 43.9766C53.7993 43.9766 54.1346 44.1136 54.3839 44.3581C54.6332 44.6026 54.7766 44.9351 54.7834 45.2842ZM39.8408 46.8936C39.9645 47.0174 40.1115 47.1157 40.2732 47.1827C40.435 47.2497 40.6084 47.2842 40.7835 47.2842C40.9585 47.2842 41.1319 47.2497 41.2937 47.1827C41.4554 47.1157 41.6024 47.0174 41.7262 46.8936L55.0595 33.5605C55.1833 33.4367 55.2815 33.2897 55.3485 33.1279C55.4155 32.9662 55.45 32.7928 55.45 32.6178C55.45 32.4427 55.4155 32.2693 55.3485 32.1076C55.2815 31.9458 55.1833 31.7989 55.0595 31.6751C54.9357 31.5513 54.7887 31.4531 54.627 31.3861C54.4652 31.3191 54.2919 31.2846 54.1168 31.2846C53.9417 31.2846 53.7684 31.3191 53.6066 31.3861C53.4449 31.4531 53.2979 31.5513 53.1741 31.6751L39.8408 45.0082C39.7169 45.132 39.6187 45.2789 39.5516 45.4407C39.4846 45.6024 39.4501 45.7758 39.4501 45.9509C39.4501 46.126 39.4846 46.2993 39.5516 46.4611C39.6187 46.6229 39.7169 46.7698 39.8408 46.8936Z" fill="#4AA5FF"/>
</g>
</svg>
