<svg width="97" height="96" viewBox="0 0 97 96" fill="none" xmlns="http://www.w3.org/2000/svg">
<g id="kitchen">
<path id="Vector" d="M86.6742 54.5991H53.0742V76.7991H86.6742V54.5991Z" fill="#2B8AFC"/>
<path id="Vector_2" d="M65.6766 54.5991H64.4766V76.7991H65.6766V54.5991Z" fill="#13277E"/>
<path id="Vector_3" d="M76.7742 54.5991H75.5742V76.7991H76.7742V54.5991Z" fill="#13277E"/>
<path id="Vector_4" d="M65.0766 62.3997H53.0766C52.7454 62.3997 52.4766 62.1309 52.4766 61.7997C52.4766 61.4685 52.7454 61.1997 53.0766 61.1997H65.0766C65.4078 61.1997 65.6766 61.4685 65.6766 61.7997C65.6766 62.1309 65.4078 62.3997 65.0766 62.3997ZM65.0766 70.1997H53.0766C52.7454 70.1997 52.4766 69.9309 52.4766 69.5997C52.4766 69.2685 52.7454 68.9997 53.0766 68.9997H65.0766C65.4078 68.9997 65.6766 69.2685 65.6766 69.5997C65.6766 69.9309 65.4078 70.1997 65.0766 70.1997Z" fill="#13277E"/>
<path id="Vector_5" d="M41.0766 52.8021H35.0766C34.7454 52.8021 34.4766 52.5333 34.4766 52.2021C34.4766 51.8709 34.7454 51.6021 35.0766 51.6021H41.0766C41.4078 51.6021 41.6766 51.8709 41.6766 52.2021C41.6766 52.5333 41.4078 52.8021 41.0766 52.8021ZM50.6766 52.8021H44.6766C44.3454 52.8021 44.0766 52.5333 44.0766 52.2021C44.0766 51.8709 44.3454 51.6021 44.6766 51.6021H50.6766C51.0078 51.6021 51.2766 51.8709 51.2766 52.2021C51.2766 52.5333 51.0078 52.8021 50.6766 52.8021Z" fill="#545C66"/>
<path id="Vector_6" d="M53.0758 52.1997H32.6758V78.5997H53.0758V52.1997Z" fill="#656D78"/>
<path id="Vector_7" d="M32.6742 34.7999C32.6742 35.1299 32.4042 35.3999 32.0742 35.3999H11.6742C11.3442 35.3999 11.0742 35.1299 11.0742 34.7999V17.9999C11.0742 17.6699 11.3442 17.3999 11.6742 17.3999H32.0742C32.4042 17.3999 32.6742 17.6699 32.6742 17.9999V34.7999Z" fill="#2B8AFC"/>
<path id="Vector_8" d="M32.6742 54.5991H11.0742V76.7991H32.6742V54.5991Z" fill="#2B8AFC"/>
<path id="Vector_9" d="M86.6742 34.7999C86.6742 35.1299 86.4042 35.3999 86.0742 35.3999H53.6742C53.3442 35.3999 53.0742 35.1299 53.0742 34.7999V17.9999C53.0742 17.6699 53.3442 17.3999 53.6742 17.3999H86.0742C86.4042 17.3999 86.6742 17.6699 86.6742 17.9999V34.7999Z" fill="#2B8AFC"/>
<path id="Vector_10" d="M32.6742 54.5997H11.0742V52.8021L11.673 52.1997H32.6742V54.5997Z" fill="#F9F9F9"/>
<path id="Vector_11" d="M86.6742 54.5997H53.0742V52.1997H86.073L86.6742 52.7997V54.5997Z" fill="#F9F9F9"/>
<path id="Vector_12" d="M32.6742 78.5993H11.673L11.0742 77.9993V76.7993H32.6742V78.5993Z" fill="#F9F9F9"/>
<path id="Vector_13" d="M86.073 78.5993H53.0742V76.7993H86.6742V77.9993L86.073 78.5993Z" fill="#F9F9F9"/>
<path id="Vector_14" d="M83.0758 49.7993H68.6758V52.1993H83.0758V49.7993Z" fill="#FFCE54"/>
<path id="Vector_15" d="M51.2778 76.1999C51.2778 76.5299 51.0078 76.7999 50.6778 76.7999H35.0766C34.7466 76.7999 34.4766 76.5299 34.4766 76.1999V59.9999C34.4766 59.6699 34.7466 59.3999 35.0766 59.3999H50.6778C51.0078 59.3999 51.2778 59.6699 51.2778 59.9999V76.1999Z" fill="#5D9CEC"/>
<path id="Vector_16" d="M45.875 17.3999H39.875V26.9987H45.875V17.3999Z" fill="#CCD1D9"/>
<path id="Vector_17" d="M49.4742 26.9976H36.2742C35.6106 26.9976 35.0742 27.534 35.0742 28.1976V29.9988L35.673 30.5988H50.0742L50.6742 29.9988V28.1976C50.6742 27.534 50.1378 26.9976 49.4742 26.9976Z" fill="#F9F9F9"/>
<path id="Vector_18" opacity="0.2" d="M83.0758 50.9995H68.6758V52.1995H83.0758V50.9995Z" fill="#F9F9F9"/>
<path id="Vector_19" d="M36.313 55.1995C35.9818 55.1995 35.707 54.9307 35.707 54.5995C35.707 54.2683 35.9698 53.9995 36.301 53.9995H36.3142C36.6442 53.9995 36.9142 54.2683 36.9142 54.5995C36.9142 54.9307 36.6442 55.1995 36.313 55.1995ZM49.513 55.1995C49.1818 55.1995 48.907 54.9307 48.907 54.5995C48.907 54.2683 49.1698 53.9995 49.501 53.9995H49.5142C49.8442 53.9995 50.1142 54.2683 50.1142 54.5995C50.1142 54.9307 49.8442 55.1995 49.513 55.1995ZM38.713 56.3995C38.3818 56.3995 38.107 56.1307 38.107 55.7995C38.107 55.4683 38.3698 55.1995 38.701 55.1995H38.7142C39.0442 55.1995 39.3142 55.4683 39.3142 55.7995C39.3142 56.1307 39.0442 56.3995 38.713 56.3995ZM47.113 56.3995C46.7818 56.3995 46.507 56.1307 46.507 55.7995C46.507 55.4683 46.7698 55.1995 47.101 55.1995H47.1142C47.4442 55.1995 47.7142 55.4683 47.7142 55.7995C47.7142 56.1307 47.4442 56.3995 47.113 56.3995Z" fill="#AAB2BD"/>
<path id="Vector_20" d="M60.2758 58.4997H57.8758C57.5446 58.4997 57.2758 58.2309 57.2758 57.8997C57.2758 57.5685 57.5446 57.2997 57.8758 57.2997H60.2758C60.607 57.2997 60.8758 57.5685 60.8758 57.8997C60.8758 58.2309 60.607 58.4997 60.2758 58.4997ZM28.4758 58.4997H26.0758C25.7446 58.4997 25.4758 58.2309 25.4758 57.8997C25.4758 57.5685 25.7446 57.2997 26.0758 57.2997H28.4758C28.807 57.2997 29.0758 57.5685 29.0758 57.8997C29.0758 58.2309 28.807 58.4997 28.4758 58.4997ZM17.6758 58.4997H15.2758C14.9446 58.4997 14.6758 58.2309 14.6758 57.8997C14.6758 57.5685 14.9446 57.2997 15.2758 57.2997H17.6758C18.007 57.2997 18.2758 57.5685 18.2758 57.8997C18.2758 58.2309 18.007 58.4997 17.6758 58.4997ZM71.8258 58.4997H69.4258C69.0946 58.4997 68.8258 58.2309 68.8258 57.8997C68.8258 57.5685 69.0946 57.2997 69.4258 57.2997H71.8258C72.157 57.2997 72.4258 57.5685 72.4258 57.8997C72.4258 58.2309 72.157 58.4997 71.8258 58.4997ZM62.3758 32.3997H59.9758C59.6446 32.3997 59.3758 32.1309 59.3758 31.7997C59.3758 31.4685 59.6446 31.1997 59.9758 31.1997H62.3758C62.707 31.1997 62.9758 31.4685 62.9758 31.7997C62.9758 32.1309 62.707 32.3997 62.3758 32.3997ZM79.7758 32.3997H77.3758C77.0446 32.3997 76.7758 32.1309 76.7758 31.7997C76.7758 31.4685 77.0446 31.1997 77.3758 31.1997H79.7758C80.107 31.1997 80.3758 31.4685 80.3758 31.7997C80.3758 32.1309 80.107 32.3997 79.7758 32.3997ZM23.0758 32.3997H20.6758C20.3446 32.3997 20.0758 32.1309 20.0758 31.7997C20.0758 31.4685 20.3446 31.1997 20.6758 31.1997H23.0758C23.407 31.1997 23.6758 31.4685 23.6758 31.7997C23.6758 32.1309 23.407 32.3997 23.0758 32.3997ZM82.9258 58.4997H80.5258C80.1946 58.4997 79.9258 58.2309 79.9258 57.8997C79.9258 57.5685 80.1946 57.2997 80.5258 57.2997H82.9258C83.257 57.2997 83.5258 57.5685 83.5258 57.8997C83.5258 58.2309 83.257 58.4997 82.9258 58.4997Z" fill="#F9F9F9"/>
<path id="Vector_21" d="M44.6766 56.3997H41.0766C40.7454 56.3997 40.4766 56.1309 40.4766 55.7997C40.4766 55.4685 40.7454 55.1997 41.0766 55.1997H44.6766C45.0078 55.1997 45.2766 55.4685 45.2766 55.7997C45.2766 56.1309 45.0078 56.3997 44.6766 56.3997Z" fill="#545C66"/>
<path id="Vector_22" d="M48.275 62.3997H37.475C37.1438 62.3997 36.875 62.1309 36.875 61.7997C36.875 61.4685 37.1438 61.1997 37.475 61.1997H48.275C48.6062 61.1997 48.875 61.4685 48.875 61.7997C48.875 62.1309 48.6062 62.3997 48.275 62.3997Z" fill="#4A89DC"/>
<path id="Vector_23" d="M68.6758 49.7993H83.0758" stroke="#3A3847" stroke-width="1.2" stroke-miterlimit="10" stroke-linecap="round" stroke-linejoin="round"/>
<path id="Vector_24" d="M68.6758 49.7993V50.9993" stroke="#3A3847" stroke-width="1.2" stroke-miterlimit="10" stroke-linecap="round" stroke-linejoin="round"/>
<path id="Vector_25" d="M83.0742 49.7993V50.9993" stroke="#3A3847" stroke-width="1.2" stroke-miterlimit="10" stroke-linecap="round" stroke-linejoin="round"/>
<path id="Vector_26" d="M75.875 48.5995V44.9995" stroke="#3A3847" stroke-width="1.2" stroke-miterlimit="10" stroke-linecap="round" stroke-linejoin="round"/>
<path id="Vector_27" d="M78.2734 49.7991V48.5991" stroke="#3A3847" stroke-width="1.2" stroke-miterlimit="10" stroke-linecap="round" stroke-linejoin="round"/>
<path id="Vector_28" d="M73.4766 49.7991V48.5991" stroke="#3A3847" stroke-width="1.2" stroke-miterlimit="10" stroke-linecap="round" stroke-linejoin="round"/>
<path id="Vector_29" d="M70.4734 17.3999H69.2734V35.3999H70.4734V17.3999Z" fill="#13277E"/>
<path id="Vector_30" d="M38.6742 35.8751C38.343 35.8751 38.0742 35.6063 38.0742 35.2751V32.9999C38.0742 32.6687 38.343 32.3999 38.6742 32.3999C39.0054 32.3999 39.2742 32.6687 39.2742 32.9999V35.2751C39.2742 35.6075 39.0054 35.8751 38.6742 35.8751ZM47.0742 35.8751C46.743 35.8751 46.4742 35.6063 46.4742 35.2751V32.9999C46.4742 32.6687 46.743 32.3999 47.0742 32.3999C47.4054 32.3999 47.6742 32.6687 47.6742 32.9999V35.2751C47.6742 35.6075 47.4054 35.8751 47.0742 35.8751ZM42.8742 38.2751C42.543 38.2751 42.2742 38.0063 42.2742 37.6751V32.9999C42.2742 32.6687 42.543 32.3999 42.8742 32.3999C43.2054 32.3999 43.4742 32.6687 43.4742 32.9999V37.6751C43.4742 38.0075 43.2054 38.2751 42.8742 38.2751ZM60.2742 66.2999H57.8742C57.543 66.2999 57.2742 66.0311 57.2742 65.6999C57.2742 65.3687 57.543 65.0999 57.8742 65.0999H60.2742C60.6054 65.0999 60.8742 65.3687 60.8742 65.6999C60.8742 66.0311 60.6054 66.2999 60.2742 66.2999ZM60.2742 74.0999H57.8742C57.543 74.0999 57.2742 73.8311 57.2742 73.4999C57.2742 73.1687 57.543 72.8999 57.8742 72.8999H60.2742C60.6054 72.8999 60.8742 73.1687 60.8742 73.4999C60.8742 73.8311 60.6054 74.0999 60.2742 74.0999Z" fill="#F9F9F9"/>
<path id="Vector_31" d="M22.4734 54.5991H21.2734V76.7991H22.4734V54.5991Z" fill="#13277E"/>
<path id="Vector_32" d="M35.6742 30.5999C36.0056 30.5999 36.2742 30.3313 36.2742 29.9999C36.2742 29.6685 36.0056 29.3999 35.6742 29.3999C35.3428 29.3999 35.0742 29.6685 35.0742 29.9999C35.0742 30.3313 35.3428 30.5999 35.6742 30.5999Z" fill="#F9F9F9"/>
<path id="Vector_33" d="M50.0766 30.5999C50.4079 30.5999 50.6766 30.3313 50.6766 29.9999C50.6766 29.6685 50.4079 29.3999 50.0766 29.3999C49.7452 29.3999 49.4766 29.6685 49.4766 29.9999C49.4766 30.3313 49.7452 30.5999 50.0766 30.5999Z" fill="#F9F9F9"/>
<path id="Vector_34" d="M86.0766 53.3997C86.4079 53.3997 86.6766 53.1311 86.6766 52.7997C86.6766 52.4683 86.4079 52.1997 86.0766 52.1997C85.7452 52.1997 85.4766 52.4683 85.4766 52.7997C85.4766 53.1311 85.7452 53.3997 86.0766 53.3997Z" fill="#F9F9F9"/>
<path id="Vector_35" d="M86.0766 78.5999C86.4079 78.5999 86.6766 78.3313 86.6766 77.9999C86.6766 77.6685 86.4079 77.3999 86.0766 77.3999C85.7452 77.3999 85.4766 77.6685 85.4766 77.9999C85.4766 78.3313 85.7452 78.5999 86.0766 78.5999Z" fill="#F9F9F9"/>
<path id="Vector_36" d="M11.6742 78.5999C12.0056 78.5999 12.2742 78.3313 12.2742 77.9999C12.2742 77.6685 12.0056 77.3999 11.6742 77.3999C11.3428 77.3999 11.0742 77.6685 11.0742 77.9999C11.0742 78.3313 11.3428 78.5999 11.6742 78.5999Z" fill="#F9F9F9"/>
<path id="Vector_37" d="M11.6742 53.4017C12.0056 53.4017 12.2742 53.133 12.2742 52.8017C12.2742 52.4703 12.0056 52.2017 11.6742 52.2017C11.3428 52.2017 11.0742 52.4703 11.0742 52.8017C11.0742 53.133 11.3428 53.4017 11.6742 53.4017Z" fill="#F9F9F9"/>
</g>
</svg>
