<svg width="97" height="96" viewBox="0 0 97 96" fill="none" xmlns="http://www.w3.org/2000/svg">
<g id="sofa">
<path id="Vector" d="M16.875 47.4112V28.5C16.875 25.3837 19.3837 22.875 22.5 22.875H31.5C34.6162 22.875 37.125 25.3837 37.125 28.5V47.4112M37.125 47.2987V28.5C37.125 25.3837 39.6337 22.875 42.75 22.875H51.75C54.8662 22.875 57.375 25.3837 57.375 28.5V47.2987M57.375 49.9695V28.5C57.375 25.3837 59.8837 22.875 63 22.875H72C75.1162 22.875 77.625 25.3837 77.625 28.5V49.9695" fill="#2B8AFC"/>
<path id="Vector_2" fillRule="evenodd" clipRule="evenodd" d="M21.375 53.2725V55.5225H73.125V53.2725H21.375Z" fill="black"/>
<path id="Vector_3" d="M82.125 50.1226V61.7686C82.125 63.9061 80.4128 65.6251 78.2865 65.6251H16.2113C15.7058 65.6251 15.2053 65.5252 14.7385 65.3311C14.2718 65.1371 13.848 64.8527 13.4915 64.4943C13.135 64.1359 12.8528 63.7106 12.6612 63.2428C12.4696 62.7751 12.3724 62.274 12.3751 61.7686V50.1248" fill="#2B8AFC"/>
<path id="Vector_4" d="M16.875 65.625H21.375V70.125H16.875V65.625ZM73.125 65.625H77.625V70.125H73.125V65.625Z" fill="#13277E"/>
<path id="Vector_5" fillRule="evenodd" clipRule="evenodd" d="M22.48 26.2501C22.182 26.2555 21.8983 26.3786 21.6911 26.5929C21.484 26.8072 21.3703 27.095 21.3751 27.393V29.607C21.3751 29.9054 21.4936 30.1915 21.7046 30.4024C21.9156 30.6134 22.2018 30.732 22.5001 30.732C22.7985 30.732 23.0847 30.6134 23.2957 30.4024C23.5067 30.1915 23.6251 29.9054 23.6251 29.607V27.393C23.6276 27.2422 23.5997 27.0925 23.5432 26.9527C23.4866 26.8129 23.4025 26.6861 23.2958 26.5795C23.1892 26.4728 23.0622 26.3886 22.9224 26.332C22.7827 26.2754 22.6307 26.2477 22.48 26.2501Z" fill="#13277E"/>
<path id="Vector_6" fillRule="evenodd" clipRule="evenodd" d="M21.3945 27.3751C21.0962 27.3751 20.8101 27.4935 20.5991 27.7045C20.3881 27.9154 20.2695 28.2018 20.2695 28.5001C20.2695 28.7985 20.3881 29.0846 20.5991 29.2956C20.8101 29.5065 21.0962 29.6251 21.3945 29.6251H23.6085C23.9069 29.6251 24.1931 29.5065 24.4041 29.2956C24.6151 29.0846 24.7335 28.7985 24.7335 28.5001C24.7335 28.2018 24.6151 27.9154 24.4041 27.7045C24.1931 27.4935 23.9069 27.3751 23.6085 27.3751H21.3945ZM31.4835 26.2501C31.3358 26.2525 31.19 26.2837 31.0544 26.3424C30.9188 26.4011 30.796 26.486 30.6932 26.5921C30.5904 26.6982 30.5096 26.8238 30.4552 26.9612C30.4009 27.0986 30.3742 27.2453 30.3765 27.393V29.607C30.3765 29.9054 30.495 30.1915 30.706 30.4024C30.917 30.6134 31.2032 30.732 31.5015 30.732C31.7999 30.732 32.0861 30.6134 32.2971 30.4024C32.5081 30.1915 32.6265 29.9054 32.6265 29.607V27.393C32.629 27.2422 32.6011 27.0925 32.5445 26.9527C32.488 26.8129 32.4038 26.6861 32.2972 26.5795C32.1906 26.4728 32.0636 26.3886 31.9238 26.332C31.784 26.2754 31.6343 26.2477 31.4835 26.2501Z" fill="#13277E"/>
<path id="Vector_7" fillRule="evenodd" clipRule="evenodd" d="M30.3931 27.375C30.0948 27.375 29.8087 27.4933 29.5977 27.7043C29.3867 27.9153 29.2681 28.2016 29.2681 28.5C29.2681 28.7984 29.3867 29.0844 29.5977 29.2954C29.8087 29.5064 30.0948 29.625 30.3931 29.625H32.6072C32.9055 29.625 33.1917 29.5064 33.4027 29.2954C33.6137 29.0844 33.7322 28.7984 33.7322 28.5C33.7322 28.2016 33.6137 27.9153 33.4027 27.7043C33.1917 27.4933 32.9055 27.375 32.6072 27.375H30.3931ZM26.9822 33C26.8344 33.0023 26.6886 33.0336 26.553 33.0923C26.4174 33.151 26.2946 33.2358 26.1918 33.3419C26.089 33.4481 26.0082 33.5737 25.9538 33.7111C25.8995 33.8485 25.8728 33.9951 25.8751 34.1429V36.3569C25.8751 36.6552 25.9936 36.9413 26.2046 37.1523C26.4156 37.3633 26.7018 37.4819 27.0001 37.4819C27.2985 37.4819 27.5847 37.3633 27.7957 37.1523C28.0067 36.9413 28.1251 36.6552 28.1251 36.3569V34.1429C28.1276 33.9921 28.0997 33.8423 28.0432 33.7026C27.9866 33.5628 27.9025 33.4359 27.7958 33.3293C27.6892 33.2227 27.5622 33.1384 27.4224 33.0818C27.2827 33.0253 27.1329 32.9976 26.9822 33Z" fill="#13277E"/>
<path id="Vector_8" fillRule="evenodd" clipRule="evenodd" d="M25.8945 34.125C25.5962 34.125 25.3101 34.2433 25.0991 34.4543C24.8881 34.6653 24.7695 34.9516 24.7695 35.25C24.7695 35.5484 24.8881 35.8344 25.0991 36.0454C25.3101 36.2564 25.5962 36.375 25.8945 36.375H28.1085C28.4069 36.375 28.6931 36.2564 28.9041 36.0454C29.1151 35.8344 29.2335 35.5484 29.2335 35.25C29.2335 34.9516 29.1151 34.6653 28.9041 34.4543C28.6931 34.2433 28.4069 34.125 28.1085 34.125H25.8945ZM31.4835 39.75C31.3358 39.7523 31.19 39.7836 31.0544 39.8423C30.9188 39.901 30.796 39.9858 30.6932 40.0919C30.5904 40.1981 30.5096 40.3237 30.4552 40.4611C30.4009 40.5985 30.3742 40.7451 30.3765 40.8929V43.1069C30.3765 43.4052 30.495 43.6913 30.706 43.9023C30.917 44.1133 31.2032 44.2319 31.5015 44.2319C31.7999 44.2319 32.0861 44.1133 32.2971 43.9023C32.5081 43.6913 32.6265 43.4052 32.6265 43.1069V40.8929C32.629 40.7421 32.6011 40.5923 32.5445 40.4526C32.488 40.3128 32.4038 40.1859 32.2972 40.0793C32.1906 39.9727 32.0636 39.8884 31.9238 39.8318C31.784 39.7753 31.6343 39.7476 31.4835 39.75Z" fill="#13277E"/>
<path id="Vector_9" fillRule="evenodd" clipRule="evenodd" d="M30.3931 40.8751C30.0948 40.8751 29.8087 40.9935 29.5977 41.2045C29.3867 41.4154 29.2681 41.7018 29.2681 42.0001C29.2681 42.2985 29.3867 42.5846 29.5977 42.7956C29.8087 43.0065 30.0948 43.1251 30.3931 43.1251H32.6071C32.9055 43.1251 33.1917 43.0065 33.4027 42.7956C33.6137 42.5846 33.7321 42.2985 33.7321 42.0001C33.7321 41.7018 33.6137 41.4154 33.4027 41.2045C33.1917 40.9935 32.9055 40.8751 32.6071 40.8751H30.3931ZM22.4822 39.7501C22.3344 39.7525 22.1886 39.7837 22.053 39.8424C21.9174 39.9011 21.7946 39.986 21.6918 40.0921C21.589 40.1982 21.5082 40.3238 21.4538 40.4612C21.3995 40.5986 21.3728 40.7453 21.3751 40.893V43.107C21.3751 43.4054 21.4936 43.6915 21.7046 43.9024C21.9156 44.1134 22.2018 44.232 22.5001 44.232C22.7985 44.232 23.0847 44.1134 23.2957 43.9024C23.5067 43.6915 23.6251 43.4054 23.6251 43.107V40.893C23.6276 40.7422 23.5997 40.5925 23.5432 40.4527C23.4866 40.3129 23.4025 40.1861 23.2958 40.0795C23.1892 39.9728 23.0622 39.8886 22.9224 39.832C22.7827 39.7754 22.6329 39.7477 22.4822 39.7501Z" fill="#13277E"/>
<path id="Vector_10" fillRule="evenodd" clipRule="evenodd" d="M21.3945 40.875C21.0962 40.875 20.8101 40.9933 20.5991 41.2043C20.3881 41.4153 20.2695 41.7016 20.2695 42C20.2695 42.2984 20.3881 42.5844 20.5991 42.7954C20.8101 43.0064 21.0962 43.125 21.3945 43.125H23.6085C23.9069 43.125 24.1931 43.0064 24.4041 42.7954C24.6151 42.5844 24.7335 42.2984 24.7335 42C24.7335 41.7016 24.6151 41.4153 24.4041 41.2043C24.1931 40.9933 23.9069 40.875 23.6085 40.875H21.3945Z" fill="#13277E"/>
<path id="Vector_11" d="M16.875 31.8774V36.3774C18.126 36.3774 19.125 37.365 19.125 38.7532V47.4113H23.625V38.7532C23.625 35.016 20.61 31.8774 16.875 31.8774Z" fill="#13277E"/>
<path id="Vector_12" fillRule="evenodd" clipRule="evenodd" d="M42.73 26.2501C42.432 26.2555 42.1483 26.3786 41.9411 26.5929C41.734 26.8072 41.6203 27.095 41.6251 27.393V29.607C41.6251 29.9054 41.7436 30.1915 41.9546 30.4024C42.1656 30.6134 42.4518 30.732 42.7501 30.732C43.0485 30.732 43.3347 30.6134 43.5457 30.4024C43.7567 30.1915 43.8751 29.9054 43.8751 29.607V27.393C43.8776 27.2422 43.8497 27.0925 43.7932 26.9527C43.7366 26.8129 43.6525 26.6861 43.5458 26.5795C43.4392 26.4728 43.3122 26.3886 43.1724 26.332C43.0327 26.2754 42.8807 26.2477 42.73 26.2501Z" fill="#13277E"/>
<path id="Vector_13" fillRule="evenodd" clipRule="evenodd" d="M41.6445 27.3751C41.3462 27.3751 41.0601 27.4935 40.8491 27.7045C40.6381 27.9154 40.5195 28.2018 40.5195 28.5001C40.5195 28.7985 40.6381 29.0846 40.8491 29.2956C41.0601 29.5065 41.3462 29.6251 41.6445 29.6251H43.8585C44.1569 29.6251 44.4431 29.5065 44.6541 29.2956C44.8651 29.0846 44.9835 28.7985 44.9835 28.5001C44.9835 28.2018 44.8651 27.9154 44.6541 27.7045C44.4431 27.4935 44.1569 27.3751 43.8585 27.3751H41.6445ZM51.7335 26.2501C51.5858 26.2525 51.44 26.2837 51.3044 26.3424C51.1688 26.4011 51.046 26.486 50.9432 26.5921C50.8404 26.6982 50.7596 26.8238 50.7052 26.9612C50.6509 27.0986 50.6242 27.2453 50.6265 27.393V29.607C50.6265 29.9054 50.745 30.1915 50.956 30.4024C51.167 30.6134 51.4532 30.732 51.7515 30.732C52.0499 30.732 52.3361 30.6134 52.5471 30.4024C52.7581 30.1915 52.8765 29.9054 52.8765 29.607V27.393C52.879 27.2422 52.8511 27.0925 52.7945 26.9527C52.738 26.8129 52.6538 26.6861 52.5472 26.5795C52.4406 26.4728 52.3136 26.3886 52.1738 26.332C52.034 26.2754 51.8843 26.2477 51.7335 26.2501Z" fill="#13277E"/>
<path id="Vector_14" fillRule="evenodd" clipRule="evenodd" d="M50.6431 27.375C50.3448 27.375 50.0587 27.4933 49.8477 27.7043C49.6367 27.9153 49.5181 28.2016 49.5181 28.5C49.5181 28.7984 49.6367 29.0844 49.8477 29.2954C50.0587 29.5064 50.3448 29.625 50.6431 29.625H52.8572C53.1555 29.625 53.4417 29.5064 53.6527 29.2954C53.8637 29.0844 53.9822 28.7984 53.9822 28.5C53.9822 28.2016 53.8637 27.9153 53.6527 27.7043C53.4417 27.4933 53.1555 27.375 52.8572 27.375H50.6431ZM47.2322 33C47.0844 33.0023 46.9386 33.0336 46.803 33.0923C46.6674 33.151 46.5446 33.2358 46.4418 33.3419C46.339 33.4481 46.2582 33.5737 46.2038 33.7111C46.1495 33.8485 46.1228 33.9951 46.1251 34.1429V36.3569C46.1251 36.6552 46.2436 36.9413 46.4546 37.1523C46.6656 37.3633 46.9518 37.4819 47.2501 37.4819C47.5485 37.4819 47.8347 37.3633 48.0457 37.1523C48.2567 36.9413 48.3751 36.6552 48.3751 36.3569V34.1429C48.3776 33.9921 48.3497 33.8423 48.2932 33.7026C48.2366 33.5628 48.1525 33.4359 48.0458 33.3293C47.9392 33.2227 47.8122 33.1384 47.6724 33.0818C47.5327 33.0253 47.3829 32.9976 47.2322 33Z" fill="#13277E"/>
<path id="Vector_15" fillRule="evenodd" clipRule="evenodd" d="M46.1445 34.125C45.8462 34.125 45.5601 34.2433 45.3491 34.4543C45.1381 34.6653 45.0195 34.9516 45.0195 35.25C45.0195 35.5484 45.1381 35.8344 45.3491 36.0454C45.5601 36.2564 45.8462 36.375 46.1445 36.375H48.3585C48.6569 36.375 48.9431 36.2564 49.1541 36.0454C49.3651 35.8344 49.4835 35.5484 49.4835 35.25C49.4835 34.9516 49.3651 34.6653 49.1541 34.4543C48.9431 34.2433 48.6569 34.125 48.3585 34.125H46.1445ZM51.7335 39.75C51.5858 39.7523 51.44 39.7836 51.3044 39.8423C51.1688 39.901 51.046 39.9858 50.9432 40.0919C50.8404 40.1981 50.7596 40.3237 50.7052 40.4611C50.6509 40.5985 50.6242 40.7451 50.6265 40.8929V43.1069C50.6265 43.4052 50.745 43.6913 50.956 43.9023C51.167 44.1133 51.4532 44.2319 51.7515 44.2319C52.0499 44.2319 52.3361 44.1133 52.5471 43.9023C52.7581 43.6913 52.8765 43.4052 52.8765 43.1069V40.8929C52.879 40.7421 52.8511 40.5923 52.7945 40.4526C52.738 40.3128 52.6538 40.1859 52.5472 40.0793C52.4406 39.9727 52.3136 39.8884 52.1738 39.8318C52.034 39.7753 51.8843 39.7476 51.7335 39.75Z" fill="#13277E"/>
<path id="Vector_16" fillRule="evenodd" clipRule="evenodd" d="M50.6431 40.8751C50.3448 40.8751 50.0587 40.9935 49.8477 41.2045C49.6367 41.4154 49.5181 41.7018 49.5181 42.0001C49.5181 42.2985 49.6367 42.5846 49.8477 42.7956C50.0587 43.0065 50.3448 43.1251 50.6431 43.1251H52.8571C53.1555 43.1251 53.4417 43.0065 53.6527 42.7956C53.8637 42.5846 53.9821 42.2985 53.9821 42.0001C53.9821 41.7018 53.8637 41.4154 53.6527 41.2045C53.4417 40.9935 53.1555 40.8751 52.8571 40.8751H50.6431ZM42.7322 39.7501C42.5844 39.7525 42.4386 39.7837 42.303 39.8424C42.1674 39.9011 42.0446 39.986 41.9418 40.0921C41.839 40.1982 41.7582 40.3238 41.7038 40.4612C41.6495 40.5986 41.6228 40.7453 41.6251 40.893V43.107C41.6251 43.4054 41.7436 43.6915 41.9546 43.9024C42.1656 44.1134 42.4518 44.232 42.7501 44.232C43.0485 44.232 43.3347 44.1134 43.5457 43.9024C43.7567 43.6915 43.8751 43.4054 43.8751 43.107V40.893C43.8776 40.7422 43.8497 40.5925 43.7932 40.4527C43.7366 40.3129 43.6525 40.1861 43.5458 40.0795C43.4392 39.9728 43.3122 39.8886 43.1724 39.832C43.0327 39.7754 42.8829 39.7477 42.7322 39.7501Z" fill="#13277E"/>
<path id="Vector_17" fillRule="evenodd" clipRule="evenodd" d="M41.6445 40.8751C41.3462 40.8751 41.0601 40.9935 40.8491 41.2045C40.6381 41.4154 40.5195 41.7018 40.5195 42.0001C40.5195 42.2985 40.6381 42.5846 40.8491 42.7956C41.0601 43.0065 41.3462 43.1251 41.6445 43.1251H43.8585C44.1569 43.1251 44.4431 43.0065 44.6541 42.7956C44.8651 42.5846 44.9835 42.2985 44.9835 42.0001C44.9835 41.7018 44.8651 41.4154 44.6541 41.2045C44.4431 40.9935 44.1569 40.8751 43.8585 40.8751H41.6445ZM62.9835 26.2501C62.8358 26.2525 62.69 26.2837 62.5544 26.3424C62.4188 26.4011 62.296 26.486 62.1932 26.5921C62.0904 26.6982 62.0096 26.8238 61.9552 26.9612C61.9009 27.0986 61.8741 27.2453 61.8765 27.393V29.607C61.8765 29.9054 61.995 30.1915 62.206 30.4024C62.417 30.6134 62.7032 30.732 63.0015 30.732C63.2999 30.732 63.5861 30.6134 63.7971 30.4024C64.0081 30.1915 64.1265 29.9054 64.1265 29.607V27.393C64.129 27.2422 64.1011 27.0925 64.0445 26.9527C63.988 26.8129 63.9038 26.6861 63.7972 26.5795C63.6906 26.4728 63.5636 26.3886 63.4238 26.332C63.284 26.2754 63.1343 26.2477 62.9835 26.2501Z" fill="#13277E"/>
<path id="Vector_18" fillRule="evenodd" clipRule="evenodd" d="M61.8945 27.3751C61.5962 27.3751 61.3101 27.4935 61.0991 27.7045C60.8881 27.9154 60.7695 28.2018 60.7695 28.5001C60.7695 28.7985 60.8881 29.0846 61.0991 29.2956C61.3101 29.5065 61.5962 29.6251 61.8945 29.6251H64.1085C64.4069 29.6251 64.6931 29.5065 64.9041 29.2956C65.1151 29.0846 65.2335 28.7985 65.2335 28.5001C65.2335 28.2018 65.1151 27.9154 64.9041 27.7045C64.6931 27.4935 64.4069 27.3751 64.1085 27.3751H61.8945ZM71.9835 26.2501C71.8358 26.2525 71.69 26.2837 71.5544 26.3424C71.4188 26.4011 71.296 26.486 71.1932 26.5921C71.0904 26.6982 71.0096 26.8238 70.9552 26.9612C70.9009 27.0986 70.8742 27.2453 70.8765 27.393V29.607C70.8765 29.9054 70.995 30.1915 71.206 30.4024C71.417 30.6134 71.7032 30.732 72.0015 30.732C72.2999 30.732 72.5861 30.6134 72.7971 30.4024C73.0081 30.1915 73.1265 29.9054 73.1265 29.607V27.393C73.129 27.2422 73.1011 27.0925 73.0445 26.9527C72.988 26.8129 72.9038 26.6861 72.7972 26.5795C72.6906 26.4728 72.5636 26.3886 72.4238 26.332C72.284 26.2754 72.1343 26.2477 71.9835 26.2501Z" fill="#13277E"/>
<path id="Vector_19" fillRule="evenodd" clipRule="evenodd" d="M70.8931 27.375C70.5948 27.375 70.3087 27.4933 70.0977 27.7043C69.8867 27.9153 69.7681 28.2016 69.7681 28.5C69.7681 28.7984 69.8867 29.0844 70.0977 29.2954C70.3087 29.5064 70.5948 29.625 70.8931 29.625H73.1072C73.4055 29.625 73.6917 29.5064 73.9027 29.2954C74.1137 29.0844 74.2322 28.7984 74.2322 28.5C74.2322 28.2016 74.1137 27.9153 73.9027 27.7043C73.6917 27.4933 73.4055 27.375 73.1072 27.375H70.8931ZM67.4822 33C67.3344 33.0023 67.1886 33.0336 67.053 33.0923C66.9174 33.151 66.7946 33.2358 66.6918 33.3419C66.589 33.4481 66.5082 33.5737 66.4538 33.7111C66.3995 33.8485 66.3728 33.9951 66.3751 34.1429V36.3569C66.3751 36.6552 66.4936 36.9413 66.7046 37.1523C66.9156 37.3633 67.2018 37.4819 67.5001 37.4819C67.7985 37.4819 68.0847 37.3633 68.2957 37.1523C68.5067 36.9413 68.6251 36.6552 68.6251 36.3569V34.1429C68.6276 33.9921 68.5997 33.8423 68.5432 33.7026C68.4866 33.5628 68.4025 33.4359 68.2958 33.3293C68.1892 33.2227 68.0622 33.1384 67.9224 33.0818C67.7827 33.0253 67.6329 32.9976 67.4822 33Z" fill="#13277E"/>
<path id="Vector_20" fillRule="evenodd" clipRule="evenodd" d="M66.3945 34.125C66.0962 34.125 65.8101 34.2433 65.5991 34.4543C65.3881 34.6653 65.2695 34.9516 65.2695 35.25C65.2695 35.5484 65.3881 35.8344 65.5991 36.0454C65.8101 36.2564 66.0962 36.375 66.3945 36.375H68.6085C68.9069 36.375 69.1931 36.2564 69.4041 36.0454C69.6151 35.8344 69.7335 35.5484 69.7335 35.25C69.7335 34.9516 69.6151 34.6653 69.4041 34.4543C69.1931 34.2433 68.9069 34.125 68.6085 34.125H66.3945ZM71.9835 39.75C71.8358 39.7523 71.69 39.7836 71.5544 39.8423C71.4188 39.901 71.296 39.9858 71.1932 40.0919C71.0904 40.1981 71.0096 40.3237 70.9552 40.4611C70.9009 40.5985 70.8742 40.7451 70.8765 40.8929V43.1069C70.8765 43.4052 70.995 43.6913 71.206 43.9023C71.417 44.1133 71.7032 44.2319 72.0015 44.2319C72.2999 44.2319 72.5861 44.1133 72.7971 43.9023C73.0081 43.6913 73.1265 43.4052 73.1265 43.1069V40.8929C73.129 40.7421 73.1011 40.5923 73.0445 40.4526C72.988 40.3128 72.9038 40.1859 72.7972 40.0793C72.6906 39.9727 72.5636 39.8884 72.4238 39.8318C72.284 39.7753 72.1343 39.7476 71.9835 39.75Z" fill="#13277E"/>
<path id="Vector_21" fillRule="evenodd" clipRule="evenodd" d="M70.8931 40.8751C70.5948 40.8751 70.3087 40.9935 70.0977 41.2045C69.8867 41.4154 69.7681 41.7018 69.7681 42.0001C69.7681 42.2985 69.8867 42.5846 70.0977 42.7956C70.3087 43.0065 70.5948 43.1251 70.8931 43.1251H73.1071C73.4055 43.1251 73.6917 43.0065 73.9027 42.7956C74.1137 42.5846 74.2321 42.2985 74.2321 42.0001C74.2321 41.7018 74.1137 41.4154 73.9027 41.2045C73.6917 40.9935 73.4055 40.8751 73.1071 40.8751H70.8931ZM62.9822 39.7501C62.8344 39.7525 62.6886 39.7837 62.553 39.8424C62.4174 39.9011 62.2946 39.986 62.1918 40.0921C62.089 40.1982 62.0082 40.3238 61.9538 40.4612C61.8995 40.5986 61.8728 40.7453 61.8751 40.893V43.107C61.8751 43.4054 61.9936 43.6915 62.2046 43.9024C62.4156 44.1134 62.7018 44.232 63.0001 44.232C63.2985 44.232 63.5847 44.1134 63.7957 43.9024C64.0067 43.6915 64.1251 43.4054 64.1251 43.107V40.893C64.1276 40.7422 64.0997 40.5925 64.0432 40.4527C63.9866 40.3129 63.9025 40.1861 63.7958 40.0795C63.6892 39.9728 63.5622 39.8886 63.4224 39.832C63.2827 39.7754 63.1329 39.7477 62.9822 39.7501Z" fill="#13277E"/>
<path id="Vector_22" fillRule="evenodd" clipRule="evenodd" d="M61.8945 40.875C61.5962 40.875 61.3101 40.9933 61.0991 41.2043C60.8881 41.4153 60.7695 41.7016 60.7695 42C60.7695 42.2984 60.8881 42.5844 61.0991 42.7954C61.3101 43.0064 61.5962 43.125 61.8945 43.125H64.1085C64.4069 43.125 64.6931 43.0064 64.9041 42.7954C65.1151 42.5844 65.2335 42.2984 65.2335 42C65.2335 41.7016 65.1151 41.4153 64.9041 41.2043C64.6931 40.9933 64.4069 40.875 64.1085 40.875H61.8945Z" fill="#13277E"/>
<path id="Vector_23" d="M12.375 54.9487V38.7533C12.375 36.1883 14.382 34.125 16.875 34.125C19.368 34.125 21.375 36.1883 21.375 38.7533V65.625" fill="#2B8AFC"/>
<path id="Vector_24" d="M77.625 31.875C73.89 31.875 70.875 35.016 70.875 38.7532V49.9695H75.375V38.7532C75.375 37.365 76.374 36.3773 77.625 36.3773V31.875Z" fill="#13277E"/>
<path id="Vector_25" d="M73.125 65.625V38.7533C73.125 36.1883 75.132 34.125 77.625 34.125C80.118 34.125 82.125 36.1883 82.125 38.7533V54.9487M21.375 46.5H73.125V53.25H21.375V46.5Z" fill="#2B8AFC"/>
<path id="Vector_26" d="M21.375 46.4976H73.125V48.7476H21.375V46.4976ZM12.375 59.5183V61.7683C12.375 63.9036 14.085 65.6248 16.2113 65.6248H78.2887C80.4127 65.6248 82.125 63.9013 82.125 61.7661V59.5161C82.125 61.6513 80.415 63.3748 78.2887 63.3748H16.2113C15.706 63.3742 15.2057 63.2739 14.7392 63.0797C14.2727 62.8854 13.8492 62.601 13.4928 62.2427C13.1364 61.8845 12.8542 61.4594 12.6624 60.9919C12.4706 60.5244 12.373 60.0236 12.375 59.5183Z" fill="#13277E"/>
</g>
</svg>
