<svg width="97" height="96" viewBox="0 0 97 96" fill="none" xmlns="http://www.w3.org/2000/svg">
<g id="we-move-to-new-house">
<path id="Vector" d="M13.2583 38.7548C17.1245 38.7548 20.2587 35.5789 20.2587 31.6611C20.2587 27.7433 17.1245 24.5674 13.2583 24.5674C9.39202 24.5674 6.25781 27.7433 6.25781 31.6611C6.25781 35.5789 9.39202 38.7548 13.2583 38.7548Z" fill="#F6F6F6"/>
<path id="Vector_2" d="M88.045 79.1901C87.8395 79.502 61.3085 79.1901 61.3085 79.1901C61.3085 79.1901 59.0354 73.4842 64.5016 71.1347C69.9679 68.7852 71.7542 72.7458 71.7542 72.7458C71.7542 72.7458 71.8082 70.7865 73.7567 70.39C75.705 69.9934 74.731 72.88 74.731 72.88C74.731 72.88 76.2464 70.2621 78.6279 69.9937C81.0093 69.7253 81.4421 72.4103 80.1976 75.1624C80.1973 75.1624 90.697 75.1624 88.045 79.1901Z" fill="#E2D7DE"/>
<path id="Vector_3" d="M80.0523 79.224C79.8979 79.4585 59.9615 79.224 59.9615 79.224C59.9615 79.224 58.2534 74.9366 62.3611 73.1712C66.4686 71.4057 67.8109 74.3816 67.8109 74.3816C67.8109 74.3816 67.8516 72.9094 69.3158 72.6116C70.7798 72.3138 70.048 74.4827 70.048 74.4827C70.048 74.4827 71.1868 72.5154 72.9762 72.3138C74.7656 72.1119 75.091 74.1296 74.1557 76.1978C74.1551 76.1975 82.0449 76.1975 80.0523 79.224Z" fill="#D3C9CF"/>
<path id="Vector_4" d="M8.85699 79.2263C9.00705 79.4544 28.4097 79.2263 28.4097 79.2263C28.4097 79.2263 30.0721 75.0534 26.0743 73.3355C22.0766 71.6173 20.7706 74.5137 20.7706 74.5137C20.7706 74.5137 20.7311 73.0809 19.3061 72.7909C17.8813 72.5009 18.5936 74.6119 18.5936 74.6119C18.5936 74.6119 17.4854 72.6973 15.7438 72.5009C14.0021 72.3045 13.6855 74.2681 14.5958 76.2809C14.5961 76.2809 6.91752 76.2809 8.85699 79.2263Z" fill="#E2D7DE"/>
<path id="Vector_5" d="M14.7086 79.253C14.8214 79.4243 29.401 79.253 29.401 79.253C29.401 79.253 30.6501 76.1175 27.6462 74.8264C24.6424 73.5353 23.6607 75.7117 23.6607 75.7117C23.6607 75.7117 23.6309 74.6349 22.5602 74.4172C21.4896 74.1995 22.0248 75.7855 22.0248 75.7855C22.0248 75.7855 21.192 74.3469 19.8832 74.1992C18.5744 74.0517 18.3365 75.5271 19.0206 77.0394C19.0212 77.0397 13.2514 77.0397 14.7086 79.253Z" fill="#D3C9CF"/>
<path id="Vector_6" d="M80.5984 43.1285C78.8487 50.7035 73.8804 55.8114 67.8338 58.4112C65.5888 59.38 63.1994 60.0125 60.6733 60.3555C56.3075 60.9513 51.5376 60.6861 46.4121 59.8158C43.2428 59.2519 40.1398 58.5486 37.1692 57.7445C32.5956 56.5046 28.3361 55.0258 24.6351 53.4452C18.5683 50.7426 14.0209 47.7641 13.0116 42.8451C12.0251 38.047 14.7951 31.7061 20.9114 25.6708C26.9668 19.7291 36.3688 14.0927 47.2474 12.8462C58.0853 11.4462 67.8813 15.0295 73.8904 21.1098C80.0024 27.1436 82.3252 35.6748 80.5984 43.1285Z" fill="#F6F6F6"/>
<path id="Vector_7" d="M69.6874 28.381C69.6874 28.381 67.9068 27.4988 66.6736 29.1709C65.634 30.581 67.8628 34.0871 67.2949 35.3145C66.7271 36.542 66.5 35.6599 65.7809 36.4268C65.0616 37.194 65.7809 39.572 68.8092 38.6516C71.8375 37.7312 70.172 37.9996 72.4432 38.1531C74.7143 38.3066 73.9572 35.6097 73.9572 35.6097C73.9572 35.6097 74.6916 34.8543 74.0783 33.6652C73.4649 32.476 71.6101 32.783 72.0265 31.2103C72.4432 29.6375 71.1304 27.6906 69.6874 28.381Z" fill="#33232A"/>
<path id="Vector_8" d="M69.3627 35.7325C72.4225 35.8955 77.0105 52.7887 62.6615 64.4365C56.3505 69.5595 59.2589 44.9822 59.2589 44.9822C59.2589 44.9822 62.9735 35.3918 69.3627 35.7325Z" fill="#3FC9BC"/>
<path id="Vector_9" d="M69.6008 33.7549L69.9226 36.4388C69.9226 36.4388 68.6402 37.1965 67.6406 36.6144L68.0993 33.7837L69.6008 33.7549Z" fill="#FFBF9F"/>
<path id="Vector_10" d="M68.1822 35.3415C68.295 35.423 68.2206 35.054 68.3294 34.9524C68.4153 34.8723 68.5295 34.8533 68.6423 34.8608C68.7674 34.8692 68.8879 34.9089 69.0135 34.9092C69.1252 34.9095 69.2363 34.8887 69.337 34.838C69.4927 34.7597 69.6047 34.6223 69.6919 34.472L69.6061 33.7549L68.1043 33.784C68.1043 33.7843 67.7883 35.0572 68.1822 35.3415Z" fill="#EFAC8F"/>
<path id="Vector_11" d="M71.1289 32.475C71.0838 31.9704 70.4534 32.1656 70.4534 32.1656C70.4534 32.1656 71.0931 31.6418 70.7353 30.5387C70.3775 29.4357 67.3884 28.8427 66.8376 30.3147C66.5855 30.9883 66.193 33.4219 67.4441 34.2476C68.6949 35.0733 68.9351 34.5918 69.6169 34.1664C70.2033 33.8003 70.2536 33.3588 70.2536 33.3588C70.2536 33.3588 71.2071 33.3493 71.1289 32.475Z" fill="#FFBF9F"/>
<path id="Vector_12" d="M66.3137 30.8664C66.3137 30.8664 66.5024 30.9096 66.7608 30.9393C66.8344 30.9476 66.9236 30.2288 67.4014 30.128C66.9978 30.4476 67.1254 30.9663 67.1914 30.9666C67.5375 30.9686 67.8968 30.9142 68.0827 30.7149C68.0827 30.7149 69.3861 31.2947 69.9289 30.9908C69.6828 32.0072 69.8516 32.5472 70.1637 32.5737C70.4757 32.6002 71.0027 31.6682 71.0027 31.6682C71.0027 31.6682 71.838 29.3256 69.3508 28.4783C66.8634 27.631 65.755 29.3789 66.3137 30.8664ZM70.8552 32.7067C70.8679 32.7067 70.8799 32.6989 70.8847 32.6863C70.9933 32.4052 70.7156 32.2387 70.7128 32.2373C70.6974 32.2281 70.6781 32.2338 70.6693 32.2491C70.6605 32.2643 70.6656 32.2842 70.6809 32.2931C70.6906 32.2989 70.914 32.434 70.8256 32.6629C70.8191 32.6796 70.8273 32.6984 70.8435 32.7047C70.8475 32.7058 70.8515 32.7067 70.8552 32.7067Z" fill="#33232A"/>
<path id="Vector_13" d="M69.6851 32.8115C69.705 32.9311 69.5766 33.0526 69.3984 33.0828C69.2202 33.1134 69.0593 33.0411 69.0397 32.9218C69.0198 32.8026 69.1483 32.6811 69.3265 32.6505C69.5047 32.62 69.6653 32.6923 69.6851 32.8115ZM68.6955 33.9244C68.7154 34.0439 68.5869 34.1654 68.4087 34.1957C68.2305 34.2262 68.0697 34.1539 68.0501 34.0347C68.0302 33.9152 68.1586 33.7939 68.3368 33.7634C68.515 33.7329 68.6756 33.8049 68.6955 33.9244ZM67.6553 32.9181C67.6752 33.0376 67.5467 33.1592 67.3685 33.1894C67.1903 33.2199 67.0295 33.1476 67.0098 33.0284C66.9899 32.9092 67.1184 32.7876 67.2966 32.7571C67.4748 32.7266 67.6354 32.7989 67.6553 32.9181Z" fill="#EFAC8F"/>
<path id="Vector_14" d="M68.1512 32.9719C68.1339 32.9719 68.1171 32.9693 68.1004 32.9647C67.9946 32.9336 67.95 32.8129 67.9483 32.808C67.9429 32.7931 67.9449 32.7764 67.9534 32.7631C68.1322 32.4849 68.0847 32.1093 68.0842 32.1056C68.0805 32.078 68.0995 32.0526 68.1268 32.0489C68.1549 32.0448 68.1791 32.0644 68.1828 32.0921C68.1851 32.1085 68.2331 32.4886 68.0515 32.7942C68.0657 32.8207 68.0924 32.8576 68.1285 32.8679C68.162 32.8774 68.2033 32.8642 68.2504 32.8276C68.2556 32.8236 68.2616 32.8206 68.2679 32.8189C68.2742 32.8172 68.2808 32.8168 68.2873 32.8177C68.2938 32.8186 68.3001 32.8207 68.3057 32.8241C68.3114 32.8274 68.3164 32.8318 68.3204 32.8371C68.3243 32.8424 68.3272 32.8484 68.3289 32.8548C68.3306 32.8612 68.331 32.8679 68.3301 32.8745C68.3293 32.8811 68.3271 32.8874 68.3238 32.8932C68.3206 32.8989 68.3162 32.9039 68.311 32.908C68.2556 32.9503 68.2021 32.9719 68.1512 32.9719Z" fill="#33232A"/>
<path id="Vector_15" d="M67.5859 33.63C67.5859 33.63 68.1544 33.8909 68.7913 33.5908C68.9357 33.8589 68.1811 34.5571 67.5859 33.63Z" fill="#EAEFEE"/>
<path id="Vector_16" d="M68.8149 31.9467C68.8149 32.1045 68.9005 32.2315 69.0068 32.2315C69.1131 32.2315 69.1986 32.1042 69.1986 31.9467C69.1986 31.7903 69.1131 31.6618 69.0068 31.6618C68.9596 31.6618 68.9164 31.6863 68.8826 31.7292C68.9201 31.739 68.9465 31.7722 68.9465 31.8113C68.9465 31.8591 68.909 31.8969 68.8621 31.8969C68.8465 31.8969 68.832 31.8931 68.8198 31.8848C68.8164 31.9038 68.8149 31.9259 68.8149 31.9467ZM68.4884 31.4712C68.4884 31.4712 69.3368 31.428 69.4223 31.3433C69.5076 31.2586 69.2421 31.0801 68.8681 31.176C68.4941 31.2716 68.3915 31.4683 68.4884 31.4712ZM67.2009 31.9467C67.2009 32.1045 67.2864 32.2315 67.3927 32.2315C67.499 32.2315 67.5846 32.1042 67.5846 31.9467C67.5846 31.7903 67.499 31.6618 67.3927 31.6618C67.3456 31.6618 67.3024 31.6863 67.2685 31.7292C67.3061 31.739 67.3325 31.7722 67.3325 31.8113C67.3325 31.8591 67.295 31.8969 67.2481 31.8969C67.2324 31.8969 67.2179 31.8931 67.2057 31.8848C67.202 31.9038 67.2009 31.9259 67.2009 31.9467ZM66.8743 31.4712C66.8743 31.4712 67.7227 31.428 67.8083 31.3433C67.8935 31.2586 67.6281 31.0801 67.254 31.176C66.8797 31.2716 66.7771 31.4683 66.8743 31.4712Z" fill="#33232A"/>
<path id="Vector_17" d="M23.3394 39.7108C23.9143 38.8177 27.2422 40.5273 26.7846 45.2343C26.5214 47.9404 24.495 50.1306 23.0716 50.5091C21.7321 50.8653 21.0122 49.5319 20.1491 48.1558C19.2092 46.6576 21.7361 42.2011 23.3394 39.7108Z" fill="#2B8AFC"/>
<path id="Vector_18" d="M20.6693 52.3238C20.6693 52.3238 23.6066 50.7533 23.4395 49.4239C23.2724 48.0945 21.4279 46.2067 20.183 46.9486C18.9382 47.6905 19.6444 51.0327 20.6693 52.3238Z" fill="#F4AF90"/>
<path id="Vector_19" d="M14.4727 41.7933C14.4727 41.7933 17.9182 53.1638 20.1058 52.5489C25.2264 51.1098 15.5734 40.9077 15.5734 40.9077L14.4727 41.7933Z" fill="#FFBF9F"/>
<path id="Vector_20" d="M13.1336 40.2456C13.1577 40.2917 13.1836 40.3309 13.2066 40.3597C13.2114 40.3657 13.2157 40.3709 13.22 40.3755C13.3257 40.4942 13.4371 40.6071 13.5437 40.7079C13.8293 40.98 14.0794 41.1698 14.0794 41.1698C14.0794 41.1698 15.2853 43.6866 15.4877 43.9084C15.7753 44.053 16.4452 42.977 16.4452 42.977C16.5248 42.7051 15.4394 40.6549 15.3115 40.2168C15.183 39.7785 15.8236 38.6164 15.4246 38.5804C15.2004 38.7768 14.8596 39.3476 14.8596 39.3476C14.8596 39.3476 14.0354 37.1436 13.5442 37.3334C13.3257 37.4178 13.8211 38.5009 13.9632 38.9349C13.9643 38.9387 13.9657 38.9418 13.9666 38.9456C13.9657 38.9447 13.7708 38.8773 13.6508 39.0245C13.592 39.0962 13.5903 39.1596 13.5903 39.1596C13.5903 39.1596 13.4675 39.1593 13.3973 39.2126C13.3265 39.2661 13.2484 39.3862 13.2646 39.4257C13.2632 39.4263 13.1546 39.4202 13.0924 39.5129C13.0301 39.6054 13.0602 39.771 13.0602 39.771L13.0611 39.7704C13.056 39.7903 13.0511 39.8099 13.0483 39.8295C13.0264 39.9792 13.0753 40.1336 13.1336 40.2456Z" fill="#FFBF9F"/>
<path id="Vector_21" opacity="0.2" d="M13.1334 40.2466C13.1419 40.2253 13.1541 40.2057 13.172 40.1899C13.2519 40.1199 13.3406 40.1789 13.3991 40.2359C13.4332 40.2691 13.4628 40.31 13.5009 40.339C13.5336 40.3647 13.5799 40.3785 13.6211 40.3863C13.9718 40.4574 14.4845 40.0986 14.3541 39.7198C14.3007 39.5646 14.231 39.4085 14.1566 39.2639C14.0943 39.143 14.0511 39.0508 13.9667 38.9463C13.9659 38.9454 13.7709 38.878 13.6509 39.0252C13.5921 39.0969 13.5904 39.1603 13.5904 39.1603C13.5904 39.1603 13.4676 39.16 13.3974 39.2133C13.3267 39.2668 13.2485 39.3869 13.2647 39.4264C13.2633 39.4269 13.1547 39.4209 13.0925 39.5136C13.0302 39.6061 13.0604 39.7717 13.0604 39.7717L13.0612 39.7711C13.0561 39.791 13.0513 39.8106 13.0484 39.8301C13.0262 39.9802 13.0751 40.1346 13.1334 40.2466ZM15.4924 38.9584C15.4924 38.9584 15.446 38.9739 15.4335 38.9094C15.4213 38.8449 15.5089 38.6626 15.5089 38.6626C15.5089 38.6626 15.595 38.7611 15.4924 38.9584Z" fill="white"/>
<path id="Vector_22" opacity="0.1" d="M13.3438 40.1726C13.5649 40.5225 13.7996 40.5303 13.8974 40.515C14.1185 40.3661 14.3084 40.1861 14.378 40.0447C14.4266 39.9462 14.3922 39.7743 14.3229 39.5908C14.3285 39.6003 14.3342 39.6095 14.3396 39.619C14.4303 39.7774 14.5255 39.9641 14.5076 40.1533C14.49 40.3399 14.3499 40.4735 14.1859 40.5415C14.0543 40.5959 13.9102 40.6167 13.7667 40.6201L13.7664 40.6204H13.7655L13.7254 40.6213C13.7286 40.6196 13.7314 40.6178 13.7345 40.6161C13.4938 40.572 13.3438 40.1726 13.3438 40.1726Z" fill="#231F20"/>
<path id="Vector_23" d="M13.8894 40.4691C13.7993 40.3738 13.7356 40.292 13.662 40.1849C13.5878 40.0748 13.5216 39.9573 13.4844 39.8295C13.5301 39.9542 13.6035 40.065 13.6839 40.1681C13.7652 40.2707 13.9439 40.4481 13.9439 40.4481C13.9854 40.432 14.1048 40.3297 14.154 40.2831C14.1565 40.2808 14.1588 40.2785 14.1611 40.2761C14.0778 40.1716 13.9988 40.0648 13.9249 39.9542C13.8504 39.8418 13.7791 39.7261 13.7285 39.6011C13.7873 39.7223 13.8658 39.8318 13.9471 39.938C14.0272 40.0417 14.1125 40.1422 14.2003 40.2384C14.233 40.2059 14.2651 40.173 14.2924 40.1368C14.368 40.0368 14.3933 39.968 14.3566 39.7681C14.3444 39.701 14.3231 39.6353 14.3012 39.5703C14.2807 39.5043 14.2557 39.4401 14.231 39.375C14.3012 39.4945 14.3583 39.6224 14.3973 39.7577C14.4163 39.8257 14.4302 39.8963 14.4254 39.9709C14.4228 39.9896 14.4226 40.0086 14.4152 40.0267L14.4064 40.0544L14.3941 40.0794C14.3865 40.0967 14.3768 40.112 14.3666 40.127C14.3569 40.1425 14.3464 40.1572 14.335 40.1707C14.2455 40.2819 14.1372 40.3706 14.0241 40.4507C13.911 40.5302 13.7865 40.5685 13.6188 40.4547C13.7231 40.5152 13.8658 40.4867 13.8894 40.4691Z" fill="#E8AD80"/>
<path id="Vector_24" opacity="0.1" d="M14.082 41.1467C14.2872 41.2155 14.6098 41.0761 14.8912 40.9183C15.1049 40.7985 15.2382 40.5943 15.3189 40.4111C15.3169 40.4563 15.3135 40.5019 15.3064 40.5476C15.2885 40.6666 15.2368 41.1864 14.946 41.3163C14.4916 41.5194 14.1988 41.1758 14.0914 41.1645C14.0883 41.1588 14.0852 41.1527 14.082 41.1467Z" fill="#231F20"/>
<path id="Vector_25" d="M30.5891 60.3396C30.5891 60.3396 23.0754 49.2778 23.0742 41.3809C23.0739 39.2693 23.9476 38.7745 25.2431 37.1162C28.5766 32.8492 34.7153 41.8875 34.7153 41.8875L30.5891 60.3396Z" fill="#3FC9BC"/>
<path id="Vector_26" d="M24.2791 38.509C24.5102 38.8641 25.3372 38.7247 26.1268 38.1974C26.9163 37.67 27.3688 36.9549 27.1377 36.5998C26.9067 36.2447 26.0796 36.3841 25.29 36.9114C24.5008 37.4385 24.048 38.1539 24.2791 38.509Z" fill="#2B8AFC"/>
<path id="Vector_27" d="M24.6656 38.1098C24.6656 38.1098 25.2255 38.212 25.8425 37.7999C26.4598 37.3878 26.6372 36.8201 26.6372 36.8201C26.6372 36.8201 26.1492 36.2655 25.7888 35.8551C25.5716 35.6054 25.3937 35.4012 25.3659 35.3672L23.8203 36.3994L24.1932 37.1548L24.6656 38.1098Z" fill="#FFBF9F"/>
<path id="Vector_28" d="M24.1935 37.1548C24.6062 37.2441 25.0097 37.2239 25.2437 37.0675C25.5276 36.878 25.7311 36.3798 25.7888 35.8551C25.5716 35.6054 25.3937 35.4012 25.3659 35.3672L23.8203 36.3994L24.1935 37.1548Z" fill="#EFAC8F"/>
<path id="Vector_29" d="M20.9607 32.3372C20.9607 32.3372 20.2726 32.0486 20.5002 31.0824C20.5002 31.0824 19.8798 30.6014 20.2868 29.7003C20.6935 28.7991 21.6172 29.2671 21.6172 29.2671C21.6172 29.2671 22.8822 27.0489 25.4336 28.4354C26.3562 28.9365 25.4336 29.3538 25.4336 29.3538C25.4336 29.3538 26.5469 29.3884 26.5293 30.7402C26.5159 31.7707 26.0509 31.9058 26.0509 31.9058C26.0509 31.9058 26.1399 32.9428 25.6192 33.1692C25.098 33.3953 20.8714 35.3531 20.9607 32.3372Z" fill="#33232A"/>
<path id="Vector_30" d="M26.6834 32.7868C26.4748 32.3747 26.096 32.4925 25.8814 32.6051C25.872 31.7224 25.7688 31.0487 25.7688 31.0487C25.7614 31.0012 25.7467 30.9566 25.7245 30.9139C25.2913 30.1208 22.1261 30.0908 21.4837 30.8218C21.4221 30.8892 21.3854 30.9664 21.3729 31.0487C21.3729 31.0487 21.2763 31.7255 21.274 32.6117C21.0617 32.4974 20.6723 32.3663 20.4597 32.7868C20.163 33.3735 20.8301 34.2464 21.3937 34.2225C21.6122 35.5182 22.1877 36.718 23.5707 36.718C24.9804 36.718 25.5585 35.5188 25.7714 34.2233C26.3301 34.2245 26.9765 33.366 26.6834 32.7868Z" fill="#FFBF9F"/>
<path id="Vector_31" d="M22.3212 31.1147C24.6492 32.2324 25.7732 31.2593 25.8016 31.2529C25.7863 31.123 25.7749 31.0487 25.7749 31.0487C25.7675 31.0012 25.7528 30.9566 25.7306 30.9139C25.2974 30.1208 22.1322 30.0908 21.4898 30.8218C21.4282 30.8892 21.3915 30.9664 21.379 31.0487C21.379 31.0487 21.3497 31.2964 21.3281 31.5268C21.5293 31.5608 22.0446 31.5104 22.3212 31.1147Z" fill="#EFAC8F"/>
<path id="Vector_32" d="M23.1289 35.1073C23.358 35.0457 23.4731 35.2159 23.7022 35.2133C23.9312 35.2156 24.1248 35.0319 24.3539 35.0938C24.1248 35.1557 23.9312 35.3671 23.7022 35.3694C23.4728 35.3668 23.358 35.169 23.1289 35.1073Z" fill="#33232A"/>
<path id="Vector_33" d="M23.5599 36.2235C23.3163 36.2235 23.174 36.0816 23.172 36.0796C23.1616 36.0686 23.156 36.0539 23.1563 36.0388C23.1566 36.0236 23.1628 36.0092 23.1736 35.9986C23.1845 35.988 23.199 35.9821 23.2142 35.9821C23.2293 35.9821 23.2439 35.988 23.2547 35.9986C23.2649 36.0089 23.5102 36.247 23.9251 35.9901C23.9524 35.9733 23.9879 35.9816 24.0047 36.0089C24.0215 36.0359 24.0132 36.0717 23.986 36.0885C23.8228 36.1893 23.6793 36.2235 23.5599 36.2235Z" fill="#EFAC8F"/>
<path id="Vector_34" d="M22.11 30.6735C22.11 30.6735 23.9804 31.6535 25.9182 31.259C27.8559 30.8641 23.1445 29.1399 22.0074 29.7118C20.8703 30.2838 21.0581 31.6095 21.0581 31.6095C21.0581 31.6095 21.9904 31.4407 22.11 30.6735ZM23.4688 34.1571C23.3921 33.9811 23.5049 33.7813 23.51 33.7729C23.5328 33.7337 23.5822 33.7205 23.6209 33.7433C23.6598 33.766 23.6729 33.8161 23.6504 33.8556C23.6283 33.8945 23.5828 34.012 23.6195 34.0949C23.6482 34.1548 23.7224 34.1937 23.84 34.2113C23.8844 34.2179 23.9153 34.2594 23.9085 34.3046C23.9053 34.3261 23.8939 34.3456 23.8766 34.3586C23.8594 34.3717 23.8377 34.3773 23.8164 34.3743C23.6419 34.3486 23.5262 34.2784 23.4728 34.166C23.4717 34.1629 23.4703 34.16 23.4688 34.1571ZM24.9899 33.0941C24.9899 33.2381 24.8925 33.3542 24.7725 33.3542C24.6526 33.3542 24.5551 33.2378 24.5551 33.0941C24.5551 32.9504 24.6526 32.8335 24.7725 32.8335C24.8061 32.8335 24.8379 32.8424 24.8663 32.8597C24.824 32.8726 24.7921 32.9187 24.7921 32.974C24.7921 33.0388 24.8365 33.0921 24.891 33.0921C24.9308 33.0921 24.9658 33.0633 24.9811 33.0221C24.9868 33.0454 24.9899 33.069 24.9899 33.0941ZM22.7555 33.061C22.7555 33.205 22.658 33.321 22.538 33.321C22.4184 33.321 22.3206 33.2047 22.3206 33.061C22.3206 32.9173 22.4181 32.8003 22.538 32.8003C22.5716 32.8003 22.6034 32.8093 22.6318 32.8266C22.5895 32.8395 22.5576 32.8856 22.5576 32.9409C22.5576 33.0057 22.602 33.059 22.6566 33.059C22.6966 33.059 22.7313 33.0302 22.7466 32.989C22.7523 33.0123 22.7555 33.0359 22.7555 33.061ZM26.5159 33.2983C26.5315 33.2983 26.5466 33.2888 26.5528 33.273C26.6878 32.9233 26.3425 32.7162 26.3388 32.7142C26.3343 32.7116 26.3294 32.7099 26.3242 32.7092C26.3191 32.7085 26.3138 32.7089 26.3088 32.7102C26.3038 32.7116 26.2991 32.714 26.295 32.7172C26.2909 32.7204 26.2874 32.7244 26.2848 32.7289C26.2822 32.7335 26.2805 32.7385 26.2799 32.7437C26.2792 32.7489 26.2795 32.7542 26.2809 32.7593C26.2822 32.7644 26.2845 32.7692 26.2877 32.7733C26.2909 32.7775 26.2948 32.781 26.2993 32.7836C26.3112 32.7906 26.5892 32.9587 26.4792 33.2436C26.4713 33.2643 26.4812 33.2874 26.5017 33.2954C26.5062 33.2974 26.5113 33.2983 26.5159 33.2983ZM20.5878 33.3018C20.5721 33.3018 20.5571 33.2922 20.5508 33.2764C20.4158 32.9268 20.7611 32.72 20.7648 32.7177C20.7739 32.7124 20.7847 32.7109 20.7948 32.7137C20.805 32.7165 20.8136 32.7232 20.8188 32.7324C20.8241 32.7416 20.8255 32.7525 20.8228 32.7628C20.8201 32.773 20.8134 32.7818 20.8043 32.7871C20.7924 32.794 20.5144 32.9622 20.6244 33.247C20.6324 33.2678 20.6224 33.2908 20.602 33.2989C20.5974 33.3009 20.5926 33.3018 20.5878 33.3018ZM23.04 32.5679C23.04 32.5679 22.2135 32.5259 22.1302 32.4432C22.0469 32.3609 22.3056 32.1869 22.6699 32.2802C23.0346 32.3735 23.1346 32.565 23.04 32.5679ZM24.3269 32.5679C24.3269 32.5679 25.1534 32.5259 25.2366 32.4432C25.3199 32.3609 25.0613 32.1869 24.6969 32.2802C24.3323 32.3735 24.2322 32.565 24.3269 32.5679Z" fill="#33232A"/>
<path id="Vector_35" d="M25.2366 34.3813C25.2602 34.5235 25.1073 34.6681 24.895 34.7044C24.6827 34.7407 24.4914 34.6549 24.4678 34.5126C24.4443 34.3706 24.5969 34.2257 24.8095 34.1895C25.0215 34.1532 25.2128 34.2393 25.2366 34.3813ZM22.0688 34.3813C22.0452 34.5235 22.1981 34.6681 22.4104 34.7044C22.6227 34.7407 22.814 34.6549 22.8376 34.5126C22.8612 34.3706 22.7086 34.2257 22.496 34.1895C22.284 34.1532 22.0927 34.2393 22.0688 34.3813Z" fill="#EFAC8F"/>
<path id="Vector_36" d="M61.7472 72.1269C61.7472 72.1269 72.8258 73.757 74.2179 58.2329C74.2179 58.2329 59.405 58.859 61.7472 72.1269Z" fill="#D3C9CF"/>
<g id="Group" opacity="0.52">
<path id="Vector_37" d="M74.044 58.3784L70.7414 61.5697C69.6469 62.6376 68.555 63.7067 67.4912 64.8022C66.9563 65.3469 66.4274 65.8978 65.9112 66.4597C65.3908 67.017 64.8833 67.5867 64.3893 68.1681C63.8993 68.7519 63.4201 69.3454 62.9858 69.9715C62.5487 70.5939 62.1502 71.2526 61.9297 71.993C61.9959 71.614 62.1059 71.2356 62.2719 70.8854C62.4256 70.5288 62.6104 70.1873 62.8048 69.852C63.2024 69.1873 63.6514 68.5566 64.1238 67.9469C65.0694 66.7272 66.1093 65.5911 67.1782 64.4886C68.2548 63.3931 69.3644 62.3329 70.5098 61.3143C71.6515 60.2919 72.8284 59.3098 74.044 58.3784Z" fill="#EAEFEE"/>
</g>
<path id="Vector_38" d="M72.0468 68.3239C72.2762 67.7778 70.4194 68.052 69.9271 68.1335C70.3609 67.715 70.7892 67.3107 71.1967 66.9392C71.2391 66.9559 72.9469 67.6232 73.1174 67.0855C73.2868 66.5512 71.2735 66.9236 71.1981 66.9377C71.5398 66.6264 71.8663 66.3384 72.1687 66.0844C72.3799 66.1765 74.044 66.8862 74.0957 66.3419C74.146 65.8096 72.4686 66.0282 72.1875 66.0685C72.256 66.0112 72.3231 65.9556 72.3887 65.9021L72.3879 65.9248C72.3879 65.9248 72.3935 65.9119 72.4032 65.8906C72.7008 65.6484 72.9699 65.4459 73.2001 65.295C73.6651 65.1708 75.5205 64.6245 75.3681 63.8576C75.2263 63.1439 73.8089 64.5632 73.2874 65.115L73.2863 65.1127C73.062 65.2489 72.7934 65.4442 72.4927 65.6829C72.734 65.1155 73.2814 63.751 72.9182 63.8463C72.5416 63.9448 72.4257 65.2869 72.3964 65.7604C72.0678 66.0259 71.704 66.3404 71.3187 66.6877C71.5693 66.1639 72.0855 64.9836 71.7464 64.7918C71.3744 64.5813 71.2362 66.277 71.203 66.7923C70.7715 67.1842 70.3157 67.6137 69.8541 68.0592C70.0636 67.6209 70.9031 65.7926 70.4308 65.5807C69.9365 65.3589 69.8245 67.724 69.8101 68.1018C69.409 68.4895 69.0052 68.8881 68.6098 69.2829C68.9455 68.4926 69.7759 66.4115 69.2587 66.3119C68.7084 66.2056 68.528 68.7078 68.4882 69.4047C67.9431 69.9511 67.417 70.4876 66.9452 70.9746C67.0631 70.6431 68.3003 67.1315 67.8211 67.0901C67.338 67.048 66.9654 70.6987 66.9372 70.9827C66.4529 71.4827 65.9715 71.9856 65.4931 72.4915C65.6117 72.0777 66.5751 68.6502 65.9848 68.5021C65.3854 68.3521 65.4713 72.158 65.4803 72.5048C65.1481 72.8564 64.9486 73.0707 64.9375 73.0825L65.0049 73.1623C65.0162 73.1499 65.2365 72.9134 65.6003 72.5287C65.8143 72.5595 67.7506 72.8181 68.0204 72.1603C68.2867 71.5106 65.9342 72.3904 65.6162 72.512C65.9749 72.1329 66.47 71.6134 67.0418 71.0236C67.513 71.116 69.3897 71.4438 69.45 70.809C69.5074 70.2031 67.72 70.7419 67.1254 70.9375C67.5452 70.5049 68.0047 70.0366 68.4797 69.5597C68.4791 69.5741 68.4785 69.5839 68.4785 69.5839C68.4785 69.5839 68.4853 69.5686 68.497 69.5421C68.526 69.513 68.5541 69.4845 68.5831 69.4554C68.8196 69.5179 70.6385 69.9796 70.6624 69.4281C70.686 68.8883 68.9068 69.3529 68.6024 69.4361C69.0214 69.0168 69.4514 68.5926 69.8771 68.181C70.2284 68.3146 71.8123 68.8826 72.0468 68.3239Z" fill="#EAEFEE"/>
<path id="Vector_39" d="M62.7184 73.5701C62.3037 73.1079 61.8779 72.656 61.4414 72.2148C61.4693 71.665 61.4883 71.1256 61.4994 70.5968C61.5071 70.5876 62.2327 68.4198 62.9497 67.9953C63.6793 67.5558 64.3518 68.5206 64.9409 68.5471C65.5412 68.5598 65.5275 67.5186 65.9712 67.4829C66.4254 67.4345 66.8287 68.5825 67.2951 68.5739C67.7745 68.5511 67.4437 67.5843 68.3953 67.5544C69.3562 67.5169 69.0288 68.3011 69.6014 68.7254C70.1326 69.1876 73.4451 67.2252 73.3198 68.9111C73.1246 70.655 70.5467 70.1426 70.358 70.4297C70.1599 70.7195 70.6891 71.4254 70.0445 71.9607C69.4082 72.4855 68.0371 71.4441 67.8615 71.705C67.6918 71.9573 67.9516 72.4803 67.5787 72.9734C67.2095 73.4612 65.7893 72.4697 65.5142 72.8299C65.3851 72.9981 65.3834 73.0626 65.3465 73.1554C65.3368 73.1799 65.3246 73.2063 65.307 73.2369C65.2504 73.3362 65.1362 73.4825 64.8673 73.7524C64.1994 74.4237 62.7212 73.5664 62.7184 73.5701Z" fill="#E2D7DE"/>
<path id="Vector_40" d="M67.4027 70.1223C67.943 69.3649 68.489 68.602 69.0403 67.833C68.4409 68.6184 67.8495 69.3954 67.2657 70.1644C67.017 70.241 66.7661 70.3187 66.5077 70.3997C65.8918 70.5923 65.3058 70.7787 64.7749 70.9463C64.7632 70.95 64.7516 70.9535 64.7399 70.9572C64.6919 70.9728 64.6455 70.9872 64.5984 71.0022C64.7712 70.5883 66.0891 67.873 66.0865 67.8762C65.7614 68.1282 65.1495 69.4936 64.7825 70.3472C64.6245 70.7159 64.514 70.9875 64.4997 71.0217C64.504 71.0243 64.5083 71.0266 64.5125 71.0289C63.8395 71.2415 63.2714 71.4195 62.8561 71.5491C62.8704 71.2438 62.9269 69.7298 63.2617 68.8197C63.3714 68.5259 63.6548 68.083 63.6551 68.0824C63.4627 68.2175 63.3171 68.4462 63.2052 68.7264C62.824 69.6938 62.7888 71.3659 62.7768 71.5735C62.365 71.702 62.1249 71.7763 62.1172 71.7795C62.1271 71.808 62.1368 71.8365 62.1465 71.865C62.1624 71.8595 62.4759 71.7625 62.9951 71.6009C63.7773 72.1288 64.5475 72.6743 65.3055 73.237C65.3348 73.1901 63.106 71.5545 63.0946 71.5701C63.5354 71.4333 64.1075 71.2536 64.7714 71.0442C65.7051 71.6358 66.6234 72.2515 67.5255 72.8914C66.6605 72.2393 65.7776 71.6121 64.8777 71.0105C65.6008 70.7827 66.4253 70.5221 67.2865 70.2568C68.2415 70.7538 69.1865 71.2703 70.1209 71.806C69.2291 71.2565 68.3252 70.7274 67.4101 70.2188C69.6179 69.5526 73.3109 68.8704 73.3283 68.862C72.3361 68.7175 70.2255 69.2477 67.4027 70.1223Z" fill="#EAEFEE"/>
<path id="Vector_41" d="M31.1136 73.9352C31.1136 73.9352 32.7226 62.709 17.4023 61.2983C17.4023 61.2983 18.0202 76.3086 31.1136 73.9352Z" fill="#D3C9CF"/>
<g id="Group_2" opacity="0.52">
<path id="Vector_42" d="M17.5469 61.4717L20.6962 64.8182C21.7501 65.9273 22.8051 67.0338 23.8862 68.1118C24.4237 68.6538 24.9674 69.1898 25.5219 69.7125C26.0721 70.2401 26.6346 70.7545 27.2078 71.2547C27.7839 71.7513 28.3697 72.2368 28.9876 72.6769C29.6018 73.1198 30.2518 73.5236 30.9825 73.7471C30.6085 73.68 30.235 73.5685 29.8894 73.4003C29.5375 73.2445 29.2005 73.0573 28.8696 72.8603C28.2137 72.4574 27.5912 72.0024 26.9896 71.5237C25.7859 70.5656 24.6647 69.5118 23.5767 68.4286C22.4956 67.3377 21.4494 66.2133 20.4441 65.0527C19.4352 63.8961 18.466 62.7035 17.5469 61.4717Z" fill="#EAEFEE"/>
</g>
<path id="Vector_43" d="M27.3553 63.492C26.8167 63.2596 27.087 65.1411 27.1675 65.6396C26.7545 65.2001 26.3555 64.7661 25.9888 64.3531C26.0053 64.3102 26.6641 62.5796 26.1332 62.4068C25.606 62.2352 25.9735 64.2754 25.9874 64.3517C25.6802 64.0055 25.396 63.6746 25.1453 63.3682C25.2362 63.1542 25.9365 61.468 25.3994 61.4155C24.8742 61.3646 25.0899 63.0643 25.1297 63.3492C25.0731 63.2798 25.0183 63.2118 24.9654 63.1453L24.9878 63.1461C24.9878 63.1461 24.975 63.1404 24.954 63.1306C24.715 62.829 24.5152 62.5563 24.3663 62.323C24.2438 61.8519 23.7046 59.9718 22.9478 60.1262C22.2435 60.2699 23.6441 61.7061 24.1886 62.2346L24.1864 62.2355C24.3208 62.4627 24.5135 62.7349 24.7491 63.0396C24.1892 62.7951 22.8426 62.2404 22.9367 62.6084C23.0339 62.99 24.3583 63.1075 24.8256 63.1372C25.0876 63.4701 25.398 63.8388 25.7407 64.2293C25.2237 63.9753 24.059 63.4523 23.8697 63.7959C23.662 64.1728 25.3354 64.3128 25.8439 64.3465C26.2307 64.7837 26.6545 65.2457 27.0941 65.7134C26.6616 65.5011 24.8574 64.6504 24.6482 65.129C24.4294 65.6298 26.7633 65.7433 27.1362 65.758C27.5188 66.1644 27.9121 66.5736 28.3018 66.9742C27.5219 66.6341 25.4682 65.7926 25.3698 66.3167C25.2649 66.8743 27.7342 67.0575 28.422 67.0975C28.9611 67.6499 29.4906 68.183 29.9712 68.661C29.6441 68.5415 26.1787 67.2879 26.1378 67.7734C26.0963 68.263 29.699 68.6406 29.9792 68.6691C30.5766 69.2635 31.0979 69.773 31.4682 70.1324C31.0598 70.0123 27.6773 69.036 27.5313 69.6342C27.3832 70.2416 31.1391 70.1546 31.4813 70.1454C31.8283 70.4821 32.0397 70.6842 32.0514 70.6955L32.1301 70.6272C32.1179 70.6157 31.8846 70.3925 31.5048 70.0238C31.5353 69.807 31.7905 67.8448 31.1413 67.5715C30.5002 67.3017 31.3684 69.6854 31.4884 70.0077C31.1143 69.6443 30.6016 69.1426 30.0195 68.5631C30.1108 68.0856 30.4342 66.184 29.8078 66.1232C29.2098 66.065 29.7416 67.8762 29.9346 68.4787C29.4785 68.0242 29.0252 67.5668 28.5749 67.1064C28.5891 67.107 28.5988 67.1076 28.5988 67.1076C28.5988 67.1076 28.5837 67.1007 28.5576 67.0886C28.5289 67.0592 28.5007 67.0307 28.472 67.0013C28.5337 66.7617 28.9893 64.9185 28.445 64.8943C27.9124 64.8704 28.3708 66.6733 28.453 66.9817C28.0392 66.5572 27.6205 66.1217 27.2144 65.69C27.3462 65.3346 27.9067 63.7296 27.3553 63.492Z" fill="#EAEFEE"/>
<path id="Vector_44" d="M32.5359 72.9493C32.0798 73.3696 31.6338 73.801 31.1984 74.2433C30.6559 74.2151 30.1235 74.1958 29.6017 74.1845C29.5926 74.1771 27.4534 73.4415 27.0344 72.7149C26.6007 71.9756 27.5528 71.2942 27.579 70.6972C27.5915 70.0889 26.5641 70.1027 26.5288 69.6532C26.4811 69.1929 27.6139 68.7843 27.6054 68.3117C27.583 67.8258 26.6289 68.161 26.5993 67.1968C26.5623 66.2231 27.3363 66.5549 27.7549 65.9745C28.2111 65.4363 26.2744 62.0796 27.9382 62.2066C29.6591 62.4045 29.1535 65.0167 29.4366 65.2076C29.7225 65.4083 30.4191 64.8721 30.9475 65.5253C31.4653 66.1701 30.4376 67.5594 30.6951 67.7374C30.9441 67.9093 31.4602 67.6461 31.9468 68.0239C32.4282 68.3981 31.4497 69.8372 31.8052 70.116C31.9712 70.2467 32.0349 70.2485 32.1264 70.2859C32.1505 70.2957 32.1767 70.3081 32.2068 70.3259C32.3049 70.3832 32.4493 70.499 32.7156 70.7715C33.3783 71.4485 32.5322 72.9464 32.5359 72.9493Z" fill="#E2D7DE"/>
<path id="Vector_45" d="M29.1342 68.2025C28.3867 67.655 27.6338 67.1017 26.875 66.543C27.65 67.1504 28.4169 67.7497 29.1757 68.3413C29.2513 68.5933 29.328 68.8476 29.4079 69.1094C29.598 69.7335 29.7819 70.3273 29.9473 70.8653C29.951 70.8771 29.9544 70.8889 29.9581 70.9007C29.9735 70.9494 29.9877 70.9963 30.0025 71.0442C29.5941 70.869 26.9145 69.5336 26.9176 69.5362C27.1663 69.8657 28.5138 70.4857 29.3562 70.8575C29.72 71.0177 29.988 71.1297 30.0218 71.1441C30.0244 71.1395 30.0266 71.1354 30.0289 71.1311C30.2387 71.8131 30.4143 72.3888 30.5422 72.8096C30.2409 72.7952 28.7468 72.7379 27.8487 72.3986C27.5588 72.2874 27.1217 72.0003 27.1211 72C27.2544 72.195 27.4801 72.3424 27.7566 72.4559C28.7113 72.8421 30.3614 72.8778 30.5664 72.8899C30.6931 73.3072 30.7664 73.5506 30.7696 73.5587C30.7977 73.5486 30.8258 73.5388 30.854 73.529C30.8486 73.5129 30.7528 73.1952 30.5934 72.669C31.1143 71.8765 31.6526 71.096 32.208 70.3279C32.1616 70.2982 30.5476 72.5567 30.5629 72.5682C30.4279 72.1216 30.2506 71.5418 30.044 70.869C30.6277 69.923 31.2354 68.9924 31.8669 68.0783C31.2234 68.9548 30.6044 69.8495 30.0107 70.7613C29.7859 70.0287 29.5287 69.1932 29.2669 68.3205C29.7574 67.3528 30.2671 66.3952 30.7957 65.4483C30.2535 66.352 29.7313 67.2679 29.2294 68.1953C28.572 65.9581 27.8987 62.2158 27.8905 62.1982C27.7475 63.2034 28.2708 65.3423 29.1342 68.2025Z" fill="#EAEFEE"/>
<path id="Vector_46" opacity="0.55" d="M22.9766 22.1108H18.4249V20.2659H22.9766V22.1108Z" fill="#EAEFEE"/>
<path id="Vector_47" opacity="0.31" d="M20.5391 20.2686H15.9874V18.4236H20.5391V20.2686Z" fill="#EAEFEE"/>
<path id="Vector_48" opacity="0.5" d="M18.3984 18.417H13.8468V16.5721H18.3984V18.417Z" fill="#EAEFEE"/>
<path id="Vector_49" opacity="0.35" d="M22.9688 18.4219H18.4171V16.5769H22.9688V18.4219Z" fill="#EAEFEE"/>
<path id="Vector_50" opacity="0.55" d="M79.2617 55.603H83.8134V57.448H79.2617V55.603Z" fill="#EAEFEE"/>
<path id="Vector_51" opacity="0.31" d="M81.6992 57.4502H86.2509V59.2951H81.6992V57.4502Z" fill="#EAEFEE"/>
<path id="Vector_52" opacity="0.5" d="M83.8359 59.3062H88.3876V61.1511H83.8359V59.3062Z" fill="#EAEFEE"/>
<path id="Vector_53" opacity="0.35" d="M79.2617 59.292H83.8134V61.1369H79.2617V59.292Z" fill="#EAEFEE"/>
<path id="Vector_54" d="M65.9184 39.0847C65.9184 39.0847 65.6669 39.1463 65.5745 39.5098C65.4821 39.8732 65.4887 40.4438 65.3036 40.4994C65.1186 40.5549 64.7304 39.3842 64.7727 38.8788C64.8154 38.3733 65.6893 38.9084 65.9184 39.0847Z" fill="#EFAC8F"/>
<path id="Vector_55" d="M28.8438 33.9795C28.8438 33.9795 29.4039 35.3743 29.7757 35.3368C30.1474 35.2991 29.6364 33.9795 29.6364 33.9795H28.8438Z" fill="#F4AF90"/>
<path id="Vector_56" d="M29.5078 78.481V20.2774C29.5078 19.7601 29.9216 19.3408 30.4321 19.3408H64.2199C64.7303 19.3408 65.1441 19.7601 65.1441 20.2774V78.481C65.1441 78.9982 64.7303 79.4175 64.2199 79.4175H30.4318C29.9216 79.4172 29.5078 78.9979 29.5078 78.481Z" fill="#13277E"/>
<path id="Vector_57" d="M65.9154 39.0872C65.9154 39.0872 63.8181 39.1816 63.7451 38.6854C63.711 38.4536 63.8065 38.3484 64.5034 38.2963C63.6493 38.3286 63.6527 38.201 63.7329 37.9415C63.7946 37.7419 63.8733 37.7284 64.5642 37.6486C64.0856 37.6596 63.8255 37.6115 63.7963 37.4018C63.7593 37.1348 63.9557 37.0369 64.6176 37.026C64.2232 37.0052 63.9858 36.9666 63.9881 36.7728C63.9901 36.6014 64.1282 36.4442 64.5571 36.4183C65.0422 36.3889 65.0263 36.318 65.2477 36.3592C65.4185 36.3909 65.599 36.4047 65.7244 36.4989C66.328 36.9525 66.2811 38.8933 65.9154 39.0872Z" fill="#FFBF9F"/>
<path id="Vector_58" d="M65.0288 38.2567C64.6883 38.244 64.2524 38.2881 64.2308 38.2901C64.2163 38.2916 64.2057 38.3045 64.2072 38.3192C64.2086 38.3339 64.2214 38.3446 64.2359 38.3431C64.2421 38.3425 64.8643 38.2795 65.1991 38.3232C65.2025 38.3238 65.206 38.3236 65.2093 38.3227C65.2127 38.3218 65.2158 38.3202 65.2186 38.3181C65.2213 38.3159 65.2236 38.3132 65.2253 38.3102C65.2269 38.3071 65.228 38.3037 65.2283 38.3002C65.2288 38.2967 65.2286 38.2932 65.2276 38.2898C65.2267 38.2865 65.2252 38.2833 65.2231 38.2806C65.221 38.2778 65.2183 38.2755 65.2153 38.2738C65.2123 38.2721 65.209 38.271 65.2056 38.2705C65.1524 38.2633 65.0922 38.259 65.0288 38.2567ZM64.947 37.6191C64.6443 37.6078 64.3231 37.6297 64.3191 37.63C64.3046 37.6309 64.2938 37.6438 64.2947 37.6582C64.2956 37.6729 64.3078 37.6839 64.3226 37.683C64.3277 37.6827 64.8495 37.647 65.1848 37.6908C65.1996 37.6925 65.2124 37.6824 65.2141 37.6678C65.2146 37.6643 65.2143 37.6608 65.2134 37.6574C65.2125 37.654 65.211 37.6509 65.2089 37.6481C65.2068 37.6454 65.2041 37.643 65.2011 37.6413C65.1981 37.6396 65.1948 37.6385 65.1914 37.6381C65.1166 37.628 65.0325 37.6222 64.947 37.6191ZM64.937 36.9866C64.6443 36.9757 64.3456 36.9984 64.3419 36.9987C64.3384 36.999 64.3351 36.9999 64.332 37.0015C64.3289 37.0031 64.3262 37.0052 64.3239 37.0079C64.3217 37.0105 64.32 37.0136 64.3189 37.0169C64.3179 37.0203 64.3174 37.0238 64.3177 37.0272C64.3189 37.0419 64.3316 37.0532 64.3459 37.0517C64.3507 37.0514 64.8356 37.0146 65.1704 37.0581C65.1848 37.0598 65.1979 37.0497 65.1996 37.035C65.2001 37.0316 65.1998 37.028 65.1989 37.0247C65.198 37.0213 65.1965 37.0181 65.1944 37.0154C65.1923 37.0126 65.1896 37.0103 65.1866 37.0086C65.1836 37.0069 65.1803 37.0058 65.1769 37.0054C65.1021 36.9956 65.0197 36.9898 64.937 36.9866ZM65.7877 36.8438C65.7821 36.8435 65.7766 36.8451 65.772 36.8484C65.7692 36.8503 65.7667 36.8528 65.7648 36.8557C65.7629 36.8586 65.7616 36.8619 65.7609 36.8653C65.7603 36.8688 65.7603 36.8723 65.761 36.8757C65.7617 36.8791 65.763 36.8824 65.7649 36.8853C66.0932 37.3803 65.8707 37.8005 65.8684 37.8048C65.865 37.8115 65.8641 37.819 65.8664 37.8262C66.0065 38.251 65.7615 38.596 65.759 38.5994C65.7504 38.6112 65.753 38.6279 65.7646 38.6366C65.7763 38.6452 65.7928 38.6426 65.8013 38.6308C65.8121 38.6161 66.0614 38.2662 65.9198 37.8195C65.9536 37.7481 66.125 37.3322 65.8087 36.8553C65.8063 36.8518 65.8032 36.849 65.7995 36.847C65.7959 36.845 65.7918 36.8439 65.7877 36.8438Z" fill="#EFAC8F"/>
<path id="Vector_59" d="M62.9082 77.8011H31.7377C31.3841 77.8011 31.0977 77.5108 31.0977 77.1525V21.6017C31.0977 21.2434 31.3841 20.9531 31.7377 20.9531H62.9082C63.2618 20.9531 63.5483 21.2434 63.5483 21.6017V77.1528C63.5483 77.5108 63.2615 77.8011 62.9082 77.8011Z" fill="#2B8AFC"/>
<path id="Vector_60" d="M54.0774 80.9281L53.1094 80.7498L55.3297 68.3765L56.6942 68.6279L54.0774 80.9281ZM64.404 80.9281L65.3723 80.7498L63.1518 68.3765L61.7873 68.6279L64.404 80.9281Z" fill="#13277E"/>
<path id="Vector_61" opacity="0.2" d="M63.1015 72.7195C63.1132 72.5139 63.0328 72.3221 62.9606 72.1349C62.8867 71.9436 62.825 71.7521 62.819 71.5453C62.8091 71.2043 62.8503 70.8524 63.0123 70.5486C63.1203 70.3461 63.2786 70.186 63.4565 70.0497L63.1561 68.3768L61.7919 68.6282L62.827 73.4942C62.9722 73.2598 63.0862 72.9902 63.1015 72.7195ZM55.6324 70.6787C55.8177 70.9757 55.9556 71.3008 56.0582 71.6378L56.6985 68.6279L55.3343 68.3765L55.043 69.9996C55.2752 70.1917 55.4716 70.4213 55.6324 70.6787Z" fill="#33232A"/>
<path id="Vector_62" d="M54.3906 67.4673H63.9635V69.2805H54.3906V67.4673Z" fill="#D6980D"/>
<path id="Vector_63" d="M51.7478 67.9219C51.7478 67.9219 60.7838 69.9163 64.6309 67.9219C68.478 65.9275 68.2989 52.7821 67.1359 51.8754C65.9729 50.9688 63.2888 60.4878 63.1996 63.661C63.1993 63.661 46.8272 65.0209 51.7478 67.9219ZM38.1431 39.329C38.1772 39.2383 38.1943 39.1274 38.1943 38.997V38.8435C38.1943 38.5028 38.2485 37.9861 38.3577 37.2935C38.4597 36.5838 38.5109 36.0502 38.5109 35.6925V35.0707C38.5109 34.7755 38.5552 34.5143 38.6436 34.2873V34.2447C38.6641 34.1822 38.6743 34.1085 38.6743 34.0232V33.8956C38.6743 33.8331 38.6504 33.7848 38.6027 33.7508C38.5549 33.7168 38.4904 33.6998 38.4085 33.6998C38.2042 33.6998 38.1022 33.7678 38.1022 33.9043C38.1022 33.9498 38.1124 33.9979 38.1329 34.0488C38.1329 34.2136 38.109 34.4264 38.0612 34.6876C38.0067 34.9431 37.9797 35.1591 37.9797 35.3348C37.9797 36.4476 37.9149 37.3845 37.7856 38.1451C37.731 37.8044 37.6835 37.4383 37.6426 37.0466C37.588 36.5354 37.5252 36.0916 37.4536 35.7138C37.3823 35.3362 37.2919 34.9886 37.183 34.6706V34.6027C37.183 34.5347 37.154 34.482 37.0963 34.4451C37.0384 34.4083 36.965 34.3898 36.8766 34.3898L36.601 34.4921C36.601 34.918 36.5771 35.3495 36.5293 35.7866C36.4952 36.1783 36.4526 36.5432 36.4017 36.881C36.3506 37.2189 36.2909 37.578 36.2229 37.9584L36.1718 38.2479C36.1513 37.862 36.0698 37.2456 35.9265 36.3998C35.7836 35.5482 35.7122 34.901 35.7122 34.4581C35.7122 34.0834 35.6031 33.8962 35.3854 33.8962C35.2492 33.8962 35.1503 33.9472 35.0892 34.0494C35.1572 34.1687 35.2151 34.4385 35.2629 34.8587C35.324 35.3641 35.3717 35.8379 35.4058 36.2808C35.4672 36.9623 35.5266 37.5256 35.5846 37.9714C35.6423 38.4172 35.7156 38.7905 35.8043 39.0911C35.9066 39.4319 36.0254 39.6023 36.1618 39.6023C36.3253 39.6023 36.4716 39.327 36.601 38.7761C36.7166 38.2822 36.8016 37.7741 36.8562 37.2517C36.9107 36.7293 36.938 36.3091 36.938 35.9911C36.938 35.8321 36.9517 35.6706 36.979 35.5056L37.1424 36.3998C37.2103 36.735 37.2751 37.0671 37.3365 37.3963C37.4522 38.1287 37.5102 38.7248 37.5102 39.1847C37.5102 39.2758 37.5391 39.3509 37.5971 39.4105C37.6548 39.4702 37.7384 39.4998 37.8472 39.4998C38.0035 39.4992 38.1022 39.4425 38.1431 39.329ZM39.8487 37.6088L39.8691 38.1537C39.8896 38.3979 39.8998 38.5797 39.8998 38.6989C39.8998 38.7669 39.9032 38.8265 39.91 38.8777V39.2697C39.9169 39.3434 39.9561 39.4059 40.0274 39.4569C40.0988 39.5079 40.1789 39.5335 40.2676 39.5335H41.1359C41.2584 39.5335 41.3621 39.5122 41.4474 39.4696C41.5323 39.427 41.575 39.3659 41.575 39.2867C41.575 39.1505 41.4454 39.0822 41.1867 39.0822C41.0233 39.0822 40.8838 39.0851 40.7681 39.0909L40.431 39.0995C40.4174 39.0995 40.4105 38.9405 40.4105 38.6226C40.4105 38.4521 40.4208 38.194 40.4412 37.8476C40.4481 37.6206 40.4515 37.3652 40.4515 37.0812C40.4515 36.7975 40.4446 36.5815 40.431 36.4341H40.6862C40.7542 36.4456 40.8497 36.4511 40.9721 36.4511C41.0674 36.4511 41.1458 36.4297 41.2072 36.3871C41.2686 36.3445 41.2993 36.2921 41.2993 36.2296C41.2993 36.0706 41.1359 35.9911 40.809 35.9911C40.7272 35.9911 40.6592 35.994 40.6047 35.9998L40.4412 36.0084L40.4105 35.8722C40.4105 35.736 40.4208 35.5315 40.4412 35.259C40.4481 35.0773 40.4515 34.8731 40.4515 34.6459C40.4515 34.4869 40.4481 34.3648 40.4412 34.2798C40.6726 34.3083 40.9315 34.3651 41.2174 34.45C41.2993 34.4218 41.3689 34.3835 41.4269 34.3351C41.4846 34.287 41.5139 34.2343 41.5139 34.1776C41.5139 34.0753 41.3658 33.9872 41.0694 33.9135C40.7732 33.8398 40.5129 33.8026 40.288 33.8026C40.0021 33.8026 39.8589 34.0042 39.8589 34.4074C39.8589 34.4814 39.8691 34.6007 39.8896 34.7651C39.91 34.9241 39.9203 35.0433 39.9203 35.1228C39.9203 35.458 39.9066 35.8725 39.8794 36.3661C39.8589 36.9162 39.8487 37.3306 39.8487 37.6088ZM47.305 38.1027C47.5162 37.5181 47.7202 36.8822 47.9177 36.195C48.1153 35.4854 48.2275 35.0937 48.2548 35.0197C48.2548 35.2129 48.248 35.386 48.2344 35.5392L48.2139 36.0672C48.2139 36.2604 48.2409 36.6152 48.2955 37.1316C48.3432 37.5915 48.3671 37.9633 48.3671 38.2473V39.3374C48.3671 39.6893 48.4725 39.8653 48.6837 39.8653C48.7789 39.8653 48.8608 39.8284 48.929 39.7547C48.9969 39.6807 49.031 39.5957 49.031 39.4992C49.031 39.4653 49.014 39.4114 48.9799 39.3374C48.9799 39.3316 48.9781 39.3146 48.9747 39.2864C48.9713 39.2579 48.9662 39.2182 48.9594 39.1672L48.9287 38.8691C48.9082 38.7329 48.898 38.6306 48.898 38.5624L48.9185 38.1111L48.9287 37.6598C48.9287 37.2396 48.9048 36.6492 48.8571 35.8883C48.8161 35.0707 48.7957 34.4575 48.7957 34.0486C48.7957 33.9806 48.7565 33.925 48.678 33.8827C48.5996 33.84 48.5129 33.8187 48.4177 33.8187C48.3156 33.8187 48.2031 33.938 48.0806 34.1764C47.9581 34.3976 47.8319 34.7043 47.7026 35.096C47.4846 35.7377 47.2666 36.456 47.0489 37.2508L46.9878 37.455C46.9537 37.5858 46.9094 37.7275 46.8551 37.8807C46.7869 37.58 46.6337 37.0916 46.3955 36.4159C46.157 35.7403 45.9189 35.1358 45.6804 34.6021C45.442 34.0684 45.2785 33.8015 45.1902 33.8015C45.081 33.8015 44.9875 33.8202 44.9094 33.857C44.8309 33.8939 44.792 33.9463 44.792 34.0146C44.792 34.0716 44.8124 34.1252 44.8534 34.1764C44.8534 34.7553 44.8025 35.6242 44.7002 36.7823C44.5981 37.9406 44.547 38.8092 44.547 39.3884C44.547 39.4393 44.5777 39.4863 44.6391 39.5289C44.7002 39.5715 44.765 39.5928 44.8332 39.5928C44.9625 39.5928 45.0509 39.5687 45.0986 39.5203C45.1461 39.4719 45.1703 39.3996 45.1703 39.3031V39.1839C45.1634 39.1444 45.16 39.1018 45.16 39.0563C45.16 38.8633 45.1669 38.5056 45.1805 37.9832C45.201 37.4438 45.2382 36.7684 45.2928 35.9563L45.3541 34.9938C45.5517 35.5104 45.7711 36.1749 46.013 36.9867C46.2545 37.7986 46.3756 38.3294 46.3756 38.5794C46.3756 38.6928 46.4148 38.7824 46.4933 38.8475C46.5714 38.9129 46.6755 38.9454 46.8048 38.9454C46.9338 38.9457 47.1006 38.6646 47.305 38.1027ZM52.8409 36.1694V36.1014C52.8409 35.8347 52.8204 35.5819 52.7795 35.3434C52.7386 35.1107 52.6706 34.8907 52.5751 34.6833C52.4797 34.4762 52.364 34.3014 52.2278 34.1594C52.0781 34.012 51.8942 33.8971 51.6762 33.8144C51.4582 33.7323 51.2132 33.6909 50.9406 33.6909C50.8451 33.6909 50.7602 33.7205 50.6854 33.7801C50.6104 33.8398 50.5493 33.9265 50.5015 34.0399C50.379 34.2954 50.3006 34.5595 50.2665 34.8319C50.2187 35.2294 50.1915 35.5191 50.1849 35.7005L50.1747 36.2967V36.4499C50.1812 36.4499 50.1849 36.4643 50.1849 36.4925V36.646C50.1781 36.6915 50.1747 36.7483 50.1747 36.8162C50.1747 37.1739 50.2054 37.546 50.2665 37.9319C50.3139 38.3406 50.4367 38.7182 50.6343 39.0646C50.7295 39.2236 50.8522 39.3501 51.002 39.4437C51.1518 39.5373 51.3152 39.5842 51.4923 39.5842C52.4046 39.5842 52.8611 38.7666 52.8611 37.1316L52.8508 36.6463C52.8443 36.5043 52.8409 36.3454 52.8409 36.1694ZM52.2588 37.83C52.2315 38.1652 52.1531 38.4771 52.0238 38.7669C51.9692 38.9088 51.891 39.0209 51.789 39.1032C51.6867 39.1856 51.5744 39.2268 51.4519 39.2268C51.2408 39.2268 51.0808 39.0168 50.9719 38.5967C50.863 38.1935 50.7948 37.779 50.7676 37.3534C50.7471 37.0524 50.7369 36.7486 50.7369 36.4421C50.7369 36.3001 50.7437 36.1697 50.7573 36.0504L50.7778 35.6588V35.4287C50.771 35.3549 50.7676 35.2642 50.7676 35.1562C50.7676 34.878 50.8017 34.6511 50.8696 34.4748C50.9443 34.2536 51.0975 34.1427 51.3292 34.1427C51.5605 34.1427 51.7563 34.2222 51.9166 34.3812C52.0766 34.5402 52.1633 34.7277 52.1772 34.9434V35.0966C52.1772 35.3123 52.1977 35.6389 52.2386 36.0761C52.2861 36.4908 52.31 36.8255 52.31 37.0809C52.3097 37.2909 52.2926 37.5406 52.2588 37.83ZM56.0121 35.9479C56.0428 35.8059 56.1056 35.5931 56.2011 35.3091C56.3168 34.98 56.4038 34.6974 56.4618 34.4616C56.5195 34.226 56.5484 34.0059 56.5484 33.8015C56.5484 33.7505 56.5246 33.7064 56.4771 33.6696C56.4294 33.6327 56.3751 33.6143 56.3137 33.6143H56.0889C56.0138 33.9835 55.8845 34.6732 55.7006 35.6838C55.4758 36.8649 55.2919 37.7675 55.149 38.3922C55.1285 38.3015 55.1046 38.1508 55.0776 37.9409L54.9551 37.1829L54.8938 36.8508C54.7778 36.1809 54.6792 35.6841 54.5976 35.3604C54.5089 35.0197 54.4274 34.7343 54.3523 34.5045C54.2773 34.2744 54.1957 34.0912 54.1071 33.955C54.0187 33.813 53.9232 33.7421 53.8211 33.7421C53.7597 33.7421 53.7035 33.7623 53.6526 33.8017C53.6014 33.8415 53.5759 33.887 53.5759 33.938C53.5759 34.0232 53.6373 34.2248 53.7597 34.5428C53.8072 34.662 53.8379 34.7501 53.8518 34.8066C54.165 35.8175 54.3947 36.6717 54.5413 37.3701C54.6877 38.0685 54.761 38.7441 54.761 39.397L54.9551 39.5246C55.1118 39.5246 55.2513 39.431 55.3738 39.2435C55.4963 39.0563 55.5949 38.798 55.6699 38.4685C55.7856 37.9236 55.8706 37.3076 55.9252 36.6204C55.9524 36.3143 55.9817 36.0899 56.0121 35.9479ZM57.6211 37.6088L57.6415 38.1537C57.662 38.3979 57.6722 38.5797 57.6722 38.6989C57.6722 38.7669 57.6756 38.8265 57.6825 38.8777V39.2697C57.6893 39.3434 57.7285 39.4059 57.7998 39.4569C57.8715 39.5079 57.9513 39.5335 58.04 39.5335H58.9083C59.0308 39.5335 59.1345 39.5122 59.2198 39.4696C59.3047 39.427 59.3474 39.3659 59.3474 39.2867C59.3474 39.1505 59.2178 39.0822 58.9591 39.0822C58.7957 39.0822 58.6562 39.0851 58.5405 39.0909L58.2034 39.0995C58.1898 39.0995 58.183 38.9405 58.183 38.6226C58.183 38.4521 58.1932 38.194 58.2136 37.8476C58.2205 37.6206 58.2239 37.3652 58.2239 37.0812C58.2239 36.7975 58.2171 36.5815 58.2034 36.4341H58.4586C58.5266 36.4456 58.6221 36.4511 58.7446 36.4511C58.8398 36.4511 58.9182 36.4297 58.9793 36.3871C59.0404 36.3445 59.0711 36.2921 59.0711 36.2296C59.0711 36.0706 58.9077 35.9911 58.5808 35.9911C58.499 35.9911 58.4311 35.994 58.3765 35.9998L58.2131 36.0084L58.1824 35.8722C58.1824 35.736 58.1926 35.5315 58.2131 35.259C58.2199 35.0773 58.2233 34.8731 58.2233 34.6459C58.2233 34.4869 58.2199 34.3648 58.2131 34.2798C58.4444 34.3083 58.7033 34.3651 58.9893 34.45C59.0711 34.4218 59.1407 34.3835 59.1987 34.3351C59.2564 34.287 59.2857 34.2343 59.2857 34.1776C59.2857 34.0753 59.1376 33.9872 58.8412 33.9135C58.545 33.8398 58.2847 33.8026 58.0599 33.8026C57.774 33.8026 57.6307 34.0042 57.6307 34.4074C57.6307 34.4814 57.641 34.6007 57.6614 34.7651C57.6819 34.9241 57.6921 35.0433 57.6921 35.1228C57.6921 35.458 57.6785 35.8725 57.6512 36.3661C57.631 36.9162 57.6211 37.3306 57.6211 37.6088ZM36.5904 44.064H36.427C36.2227 44.064 35.991 44.0499 35.7324 44.0214C35.4601 43.9989 35.2285 43.9874 35.0378 43.9874C34.9628 43.9874 34.8897 44.0061 34.8181 44.0427C34.7465 44.0799 34.7109 44.1208 34.7109 44.1663C34.7109 44.223 34.7482 44.274 34.8232 44.3195C34.9321 44.3765 35.1842 44.4105 35.5792 44.4217C35.5928 44.7567 35.6403 45.5147 35.7222 46.6955C35.804 47.8766 35.8549 48.4984 35.8754 48.5606L35.8651 48.8503C35.8651 48.9695 35.8685 49.0775 35.8754 49.174L35.8856 49.5061L36.0695 49.6167C36.1579 49.6167 36.238 49.591 36.3096 49.5401C36.3813 49.4891 36.4168 49.4292 36.4168 49.3612C36.4168 48.7878 36.3622 47.9817 36.2534 46.9426C36.1374 45.8355 36.0797 45.0294 36.0797 44.524L36.0899 44.4813L36.1002 44.4387L36.3045 44.4727C36.4202 44.4897 36.5089 44.4983 36.57 44.4983C36.6584 44.4983 36.7368 44.477 36.805 44.4344C36.8729 44.3918 36.907 44.3365 36.907 44.2682C36.9073 44.1323 36.8016 44.064 36.5904 44.064ZM40.4924 47.3513L40.4822 46.866C40.4753 46.724 40.4719 46.565 40.4719 46.3891V46.3211C40.4719 46.0544 40.4515 45.8015 40.4105 45.5631C40.3696 45.3304 40.3017 45.1103 40.2062 44.903C40.1107 44.6959 39.995 44.5211 39.8589 44.3791C39.7091 44.2317 39.5252 44.1167 39.3072 44.0341C39.0892 43.952 38.8442 43.9105 38.5717 43.9105C38.4762 43.9105 38.3912 43.9402 38.3162 43.9998C38.2411 44.0594 38.18 44.1461 38.1323 44.2596C38.0098 44.515 37.9314 44.7791 37.8972 45.0516C37.8495 45.449 37.8222 45.7388 37.8157 45.9202L37.8054 46.5164V46.6696C37.8123 46.6696 37.8157 46.684 37.8157 46.7122V46.8657C37.8089 46.9112 37.8054 46.9679 37.8054 47.0359C37.8054 47.3936 37.8361 47.7657 37.8972 48.1516C37.945 48.5603 38.0675 48.9379 38.265 49.2843C38.3602 49.4433 38.483 49.5697 38.6328 49.6633C38.7826 49.7569 38.946 49.8039 39.1231 49.8039C40.036 49.8039 40.4924 48.9865 40.4924 47.3513ZM39.8896 48.0497C39.8623 48.3849 39.7839 48.6968 39.6545 48.9865C39.6 49.1285 39.5218 49.2405 39.4195 49.3229C39.3172 49.4053 39.2049 49.4465 39.0824 49.4465C38.8712 49.4465 38.7112 49.2365 38.6024 48.8163C38.4935 48.4131 38.4253 47.9987 38.398 47.5727C38.3776 47.2718 38.3673 46.9679 38.3673 46.6615C38.3673 46.5195 38.3742 46.3891 38.3878 46.2698L38.4083 45.8781V45.648C38.4014 45.5743 38.398 45.4836 38.398 45.3756C38.398 45.0974 38.4321 44.8704 38.5001 44.6942C38.5748 44.4727 38.728 44.3621 38.9596 44.3621C39.191 44.3621 39.3868 44.4416 39.5471 44.6006C39.7071 44.7596 39.7938 44.947 39.8077 45.1628V45.316C39.8077 45.5317 39.8282 45.8583 39.8691 46.2955C39.9166 46.7102 39.9407 47.0448 39.9407 47.3003C39.9407 47.5102 39.9237 47.7599 39.8896 48.0497ZM43.0765 49.621C43.1444 49.6636 43.2194 49.6849 43.3013 49.6849C43.3897 49.6849 43.4579 49.6593 43.5056 49.6083C43.594 49.5176 43.6588 49.333 43.6997 49.0548C43.7748 48.6576 43.8325 48.3935 43.8734 48.2628L44.8846 48.3904L44.9256 48.5692C44.9935 48.9779 45.0279 49.2676 45.0279 49.4378C45.0279 49.5458 45.0651 49.6195 45.1401 49.6593C45.2149 49.699 45.3308 49.7189 45.4874 49.7189C45.5963 49.6849 45.6509 49.6054 45.6509 49.4804V49.4718C45.6509 49.3926 45.6202 49.2163 45.5591 48.9439C45.4909 48.6429 45.457 48.4727 45.457 48.4327C45.457 48.3932 45.44 48.308 45.4059 48.1772C45.3718 48.0353 45.3547 47.9471 45.3547 47.9131C45.3547 47.5612 45.2865 46.9481 45.1504 46.0734C45.0074 45.2218 44.9361 44.5801 44.9361 44.1487C44.9361 44.0807 44.902 44.028 44.834 43.9912C44.7658 43.9543 44.6843 43.9359 44.5888 43.9359H44.2415C44.1869 43.9984 44.1479 44.092 44.1241 44.217C44.1002 44.342 44.078 44.5093 44.0576 44.7192C44.0507 44.8215 44.0439 44.8995 44.0371 44.9534C44.0303 45.0075 44.0269 45.0458 44.0269 45.0686C43.7952 46.4878 43.455 47.9273 43.0054 49.3863L42.9952 49.4203L42.9747 49.4629C42.9741 49.5259 43.0083 49.5784 43.0765 49.621ZM44.5166 44.9243L44.6186 45.8102C44.7275 46.6051 44.782 47.2579 44.782 47.7689C44.782 47.8939 44.7923 47.999 44.8127 48.0839C44.3156 48.0499 44.0161 48.0044 43.9138 47.9477C44.0226 47.2663 44.2238 46.2583 44.5166 44.9243ZM50.69 49.2889L50.7579 49.4683C50.7863 49.5879 50.8318 49.6746 50.8963 49.7327C50.9671 49.7967 51.0646 49.8289 51.1862 49.8289C51.2302 49.8289 51.3127 49.8203 51.5892 49.7569L51.6469 49.7437L51.6821 49.6956C51.7666 49.5801 51.8655 49.2739 51.9581 47.8818C52.026 46.8622 52.0673 45.9023 52.0812 45.0262V44.3877C52.0812 44.2533 52.0431 44.1386 51.9678 44.0462C51.9109 43.9768 51.8055 43.8941 51.6256 43.8941C51.3724 43.8941 51.2212 44.0499 51.2212 44.3109C51.2212 44.3549 51.2246 44.3973 51.2314 44.4367V44.5323C51.2314 45.8802 51.1856 47.0949 51.0952 48.1539C51.0594 48.0511 51.0208 47.9396 50.9799 47.819L50.8775 47.5114C50.626 46.7692 50.4208 46.1883 50.2676 45.7857C50.1133 45.3796 49.9371 44.9868 49.7438 44.6181C49.4968 44.1478 49.2911 43.9085 49.0884 43.8604V43.6893L48.8454 43.8414C48.5552 44.0228 48.402 44.2884 48.402 44.6089C48.402 44.7757 48.3918 45.0392 48.3716 45.3914C48.3512 45.7396 48.3407 46.0092 48.3407 46.1932C48.3407 46.7344 48.3441 47.228 48.3509 47.6591L48.3611 49.1144C48.3611 49.7068 48.6658 49.7955 48.8471 49.7955C48.973 49.7955 49.0827 49.7575 49.1731 49.682C49.2712 49.6003 49.3232 49.4923 49.3232 49.3699C49.3232 49.3071 49.3027 49.2463 49.2621 49.1896C49.2459 49.1671 49.2348 49.1515 49.2231 49.1331L49.2106 49.115V45.5772C49.4312 46.0495 49.6964 46.6474 50.003 47.3645C50.6226 48.8129 50.6894 49.142 50.6894 49.2166V49.2889H50.69ZM54.6795 49.1403C54.5132 49.1403 54.3711 49.1435 54.2568 49.149L54.0661 49.1539C54.0641 49.0896 54.0627 48.9914 54.0627 48.8419C54.0627 48.6766 54.0729 48.4189 54.0934 48.0718C54.1002 47.8417 54.1036 47.5822 54.1036 47.3006C54.1036 47.1099 54.1005 46.9472 54.0943 46.8147H54.1667C54.2415 46.8262 54.3395 46.8317 54.4652 46.8317C54.5928 46.8317 54.7022 46.8006 54.79 46.7395C54.9233 46.6471 54.9512 46.5305 54.9512 46.449C54.9512 46.2667 54.8383 46.0489 54.3017 46.0489C54.2136 46.0489 54.1414 46.0518 54.0891 46.0576L54.0627 46.059C54.0641 45.9283 54.0744 45.7367 54.0931 45.4842C54.0999 45.299 54.1034 45.0908 54.1034 44.8647C54.1034 44.7999 54.1028 44.7405 54.1017 44.687C54.275 44.7178 54.464 44.7636 54.6652 44.8235L54.7139 44.8379L54.7616 44.8215C54.8608 44.7872 54.948 44.7391 55.0208 44.6783C55.1405 44.5784 55.1657 44.4698 55.1657 44.3964C55.1657 44.1481 54.8633 44.0413 54.6002 43.9756C54.2924 43.8987 54.0167 43.8601 53.7808 43.8601C53.5611 43.8601 53.1925 43.9595 53.1925 44.6262C53.1925 44.7071 53.203 44.8307 53.2243 45.0046C53.2436 45.1558 53.2536 45.2693 53.2536 45.3416C53.2536 45.6708 53.2399 46.0861 53.2129 46.5788C53.1925 47.1286 53.1822 47.5488 53.1822 47.8345L53.2033 48.3869C53.2232 48.6259 53.2334 48.8051 53.2334 48.9186C53.2334 48.99 53.2368 49.0522 53.2436 49.1078L53.2442 49.5041C53.2519 49.5882 53.2899 49.7094 53.4284 49.8085C53.527 49.879 53.6384 49.9145 53.7603 49.9145H54.6286C54.775 49.9145 54.9034 49.8874 55.0106 49.8338C55.199 49.7396 55.2271 49.5882 55.2271 49.5061C55.2269 49.3693 55.1558 49.1403 54.6795 49.1403ZM59.4696 43.8382C59.3948 43.7847 59.2985 43.7576 59.1837 43.7576C58.7517 43.7576 58.7181 44.0378 58.7181 44.1234C58.7181 44.1792 58.7284 44.2374 58.7485 44.2967C58.746 44.4468 58.723 44.6418 58.6809 44.873C58.6243 45.1383 58.5956 45.3672 58.5956 45.5544C58.5956 46.0823 58.5806 46.5728 58.551 47.0232C58.5021 46.6022 58.4464 46.2263 58.3853 45.9029C58.3148 45.5302 58.2247 45.1803 58.1176 44.8632V44.822C58.1176 44.6988 58.0605 44.5945 57.9561 44.5277C57.8726 44.4747 57.7703 44.4477 57.6518 44.4477H57.6236L57.2166 44.5983V44.7112C57.2166 45.1279 57.193 45.5576 57.1459 45.9916C57.112 46.3798 57.0694 46.7447 57.0194 47.0759C57.0063 47.162 56.9927 47.2502 56.9785 47.3403C56.9449 47.1139 56.9051 46.8643 56.8591 46.5921C56.7184 45.7534 56.6468 45.1092 56.6468 44.6775C56.6468 44.0479 56.3421 43.954 56.1605 43.954C55.9178 43.954 55.7913 44.0796 55.7282 44.1847L55.6793 44.2665L55.7265 44.3494C55.7583 44.4056 55.8209 44.577 55.88 45.0977C55.9405 45.5976 55.9883 46.0737 56.0224 46.5149C56.0838 47.1972 56.1443 47.768 56.2017 48.2118C56.2603 48.6634 56.3359 49.0484 56.4265 49.3569L56.4268 49.3578C56.5072 49.6262 56.6479 49.9833 56.9367 49.9833C57.1933 49.9833 57.3764 49.6901 57.531 49.0332C57.6475 48.5358 57.7345 48.016 57.7896 47.4886C57.8069 47.321 57.8217 47.1632 57.8337 47.0155C57.8751 47.2266 57.9155 47.4356 57.9539 47.6419C58.0679 48.3624 58.1255 48.9554 58.1255 49.4047C58.1255 49.5372 58.1716 49.6544 58.258 49.7434C58.3464 49.8347 58.4689 49.8811 58.6221 49.8811C58.9233 49.8811 59.0308 49.708 59.0671 49.6066C59.1078 49.4977 59.1285 49.3667 59.1285 49.2172V49.0637C59.1285 48.7325 59.1828 48.2196 59.2902 47.537C59.3928 46.8231 59.4451 46.2764 59.4451 45.9127V45.2909C59.4451 45.0173 59.4861 44.774 59.5668 44.5666L59.5779 44.5381V44.4888C59.5983 44.4163 59.6086 44.3339 59.6086 44.2432V44.1156C59.6089 44.001 59.5594 43.9025 59.4696 43.8382ZM41.9794 54.2241V54.1112L41.7762 54.036C41.671 54.0023 41.5886 53.9859 41.5238 53.9859C41.4081 53.9859 41.3061 54.0179 41.2208 54.0804C41.0946 54.1731 41.0682 54.2883 41.0682 54.3687C41.0682 54.6849 41.0924 55.0999 41.1401 55.599C41.1776 56.0889 41.1978 56.4711 41.2007 56.7366H40.9619C40.776 56.7366 40.6521 56.7294 40.57 56.7202C40.5714 56.3838 40.5779 56.0739 40.5902 55.794L40.6106 54.7347C40.6106 54.1495 40.306 54.0622 40.1246 54.0622C40.0033 54.0622 39.8953 54.1037 39.8123 54.1817C39.7253 54.263 39.6795 54.3661 39.6795 54.479C39.6795 54.697 39.6898 55.0233 39.7102 55.4492C39.7304 55.8714 39.7407 56.1926 39.7409 56.3936L39.71 56.8976V56.9402L39.7142 56.9771C39.7148 56.9799 39.7202 57.0096 39.7202 57.1193V57.3834C39.7202 57.5971 39.7168 57.7996 39.71 57.9917L39.6895 58.6863C39.6895 59.0449 39.7188 59.3421 39.7765 59.5705C39.8697 59.9305 40.0615 60.006 40.2062 60.006C40.3398 60.006 40.4552 59.9547 40.5401 59.8576C40.6209 59.7649 40.6618 59.6546 40.6618 59.5293C40.6618 59.3727 40.6513 59.1342 40.6308 58.8206C40.6106 58.5066 40.6004 58.2754 40.6004 58.1325V57.3365C40.6729 57.3457 40.7201 57.352 40.7408 57.3549C40.9235 57.3869 41.0716 57.3947 41.1779 57.3895C41.1765 57.4096 41.1745 57.4278 41.172 57.4448L41.1702 57.4566V57.575L41.1498 58.4531V58.4565C41.1498 59.5547 41.3013 60.0232 41.6563 60.0232C41.7816 60.0232 41.8941 59.9921 41.9911 59.9305C42.1084 59.8562 42.1729 59.741 42.1729 59.5993L42.0809 57.4433C42.0138 56.1079 41.9794 55.0247 41.9794 54.2241ZM45.9425 56.6084V56.5405C45.9425 56.2654 45.9212 56.001 45.8788 55.7542C45.8359 55.5088 45.7628 55.2736 45.6622 55.0541C45.5596 54.8315 45.4326 54.6402 45.2817 54.4827C45.1168 54.3203 44.9125 54.1921 44.6746 54.1023C44.4393 54.0136 44.1732 53.9686 43.8836 53.9686C43.752 53.9686 43.6332 54.0101 43.5298 54.0925C43.4337 54.1691 43.3558 54.2779 43.3013 54.4084C43.1714 54.6788 43.0875 54.9622 43.0515 55.2514C43.0026 55.6583 42.9756 55.9466 42.9687 56.1367L42.9585 56.7357V57.0502H42.9687V57.0733C42.9619 57.1242 42.9585 57.1839 42.9585 57.255C42.9585 57.6199 42.9901 58.0041 43.0515 58.3897C43.1015 58.8185 43.2319 59.2203 43.4411 59.5872C43.5491 59.7675 43.6904 59.9129 43.8615 60.0198C44.036 60.1289 44.2289 60.1842 44.4353 60.1842C45.4491 60.1842 45.9632 59.3047 45.9632 57.5666L45.953 57.0767C45.9459 56.9405 45.9425 56.7827 45.9425 56.6084ZM43.8785 55.8524C43.8723 55.7848 43.8691 55.6981 43.8691 55.595C43.8691 55.3384 43.8998 55.1287 43.9626 54.966C44.0155 54.8096 44.1079 54.7431 44.2716 54.7431C44.4614 54.7431 44.6169 54.8058 44.7473 54.9354C44.8795 55.0668 44.9491 55.2165 44.9602 55.3824V55.5356C44.9602 55.756 44.981 56.0906 45.0228 56.5336C45.0694 56.9411 45.0932 57.2731 45.0932 57.52C45.0932 57.7221 45.0765 57.9675 45.0426 58.2561C45.0171 58.5709 44.9426 58.8681 44.8181 59.1474C44.7735 59.2635 44.7127 59.3513 44.6325 59.4161V59.4164C44.5589 59.4758 44.481 59.5048 44.3946 59.5048C44.2258 59.5048 44.1181 59.1855 44.0681 58.9934C43.9624 58.6025 43.8956 58.195 43.8691 57.7817C43.849 57.4863 43.839 57.1833 43.839 56.8815C43.839 56.7452 43.8455 56.6197 43.8592 56.4981L43.8796 56.0978L43.8785 55.8524ZM49.4232 54.0268C49.3431 53.96 49.2388 53.9263 49.1129 53.9263C48.9625 53.9263 48.8605 53.9528 48.792 54.0098C48.7397 54.0533 48.6777 54.136 48.6777 54.2837C48.6777 54.318 48.6811 54.3485 48.688 54.3761V54.9052C48.688 59.1126 48.2079 59.3257 48.1119 59.3257C47.7725 59.3257 47.6276 59.1855 47.6276 58.8568C47.6276 58.7143 47.604 58.4136 47.5548 57.9335C47.5082 57.5678 47.4846 57.2708 47.4846 57.0517V54.7353C47.4846 54.5852 47.4434 54.4441 47.3621 54.3157C47.2427 54.1276 47.104 54.0881 47.0085 54.0881C46.9085 54.0881 46.7655 54.1342 46.6527 54.354L46.6348 54.3888V54.4283C46.6348 54.4792 46.6416 54.6109 46.6553 54.82C46.6553 54.902 46.6587 54.9619 46.6658 55.006L46.6757 55.6462C46.6757 56.5304 46.686 57.2884 46.7064 57.8944C46.7064 58.2664 46.7314 58.5919 46.78 58.8568C46.8309 59.1803 46.9466 59.4749 47.1251 59.7352C47.2226 59.8712 47.3505 59.976 47.5048 60.0469C47.6543 60.1157 47.8242 60.1508 48.0098 60.1508C49.0037 60.1508 49.4869 58.8612 49.4869 56.2081C49.4869 56.1741 49.4835 56.1416 49.4767 56.1108L49.4764 56.0728L49.4957 55.7272C49.5102 55.618 49.5176 55.4933 49.5176 55.3565C49.5176 55.2471 49.5307 55.1126 49.5577 54.9472C49.579 54.7413 49.5892 54.5939 49.5892 54.4962C49.5892 54.3528 49.5815 54.2978 49.5744 54.2621C49.552 54.1711 49.5011 54.0919 49.4232 54.0268ZM51.8717 57.16L51.5128 56.5958L51.2854 56.2516C51.1987 56.1275 51.1262 55.9866 51.07 55.8331C51.0157 55.6845 50.9881 55.5359 50.9881 55.3911C50.9881 55.2808 51.0225 55.1339 51.0881 54.9591C51.1424 54.8266 51.2052 54.75 51.2749 54.731C51.4409 54.7984 51.6344 54.7923 51.7674 54.7128C51.8643 54.6552 51.9178 54.5633 51.9178 54.4542C51.9178 54.3508 51.8771 54.2025 51.683 54.0821C51.5523 54.0015 51.4093 53.9606 51.2581 53.9606C51.0714 53.9606 50.8997 54.0107 50.7479 54.1097C50.5993 54.2068 50.4831 54.3347 50.4009 54.4916C50.254 54.7857 50.1795 55.0737 50.1795 55.3481C50.1795 55.588 50.2241 55.8305 50.3117 56.0679C50.3765 56.2479 50.4566 56.4178 50.5498 56.573C50.6391 56.7219 50.7508 56.8938 50.8827 57.0848L50.9946 57.2461C51.2604 57.6311 51.3948 57.9983 51.3948 58.3373C51.3948 58.5343 51.3527 58.7638 51.27 59.0193C51.2308 59.1411 51.1734 59.2353 51.0947 59.3079C51.0256 59.3712 50.952 59.402 50.8699 59.402C50.8386 59.402 50.7766 59.398 50.6738 59.3813C50.5695 59.3545 50.4956 59.3424 50.441 59.3424H50.3637L50.161 59.6036L50.1713 59.6727C50.1915 59.8084 50.2668 59.9233 50.3893 60.0048C50.4939 60.0745 50.6209 60.1203 50.7667 60.1407L50.9477 60.1658V60.1079C51.1245 60.0886 51.2902 60.0365 51.442 59.9521C51.6395 59.8424 51.7953 59.6941 51.9044 59.5123C52.1099 59.1754 52.2142 58.8145 52.2142 58.4395C52.2142 58.2106 52.1829 57.981 52.1215 57.7573C52.0593 57.5344 51.9763 57.3345 51.8717 57.16ZM54.5157 59.3597C54.3495 59.3597 54.2074 59.3629 54.0931 59.3683L53.9024 59.3732C53.9004 59.309 53.899 59.2108 53.899 59.0613C53.899 58.896 53.9092 58.6383 53.9297 58.2912C53.9365 58.0611 53.9399 57.8016 53.9399 57.52C53.9399 57.3293 53.9368 57.1666 53.9306 57.0341H54.003C54.0778 57.0456 54.1758 57.0511 54.3015 57.0511C54.4291 57.0511 54.5385 57.02 54.6263 56.9589C54.7593 56.8665 54.7875 56.7498 54.7875 56.6683C54.7875 56.486 54.6746 56.2683 54.138 56.2683C54.0499 56.2683 53.9777 56.2712 53.9254 56.2769L53.899 56.2784C53.9004 56.1476 53.9107 55.9561 53.9294 55.7035C53.9362 55.5184 53.9397 55.3101 53.9397 55.084C53.9397 55.0192 53.9391 54.9599 53.9379 54.9064C54.1113 54.9372 54.3 54.983 54.5015 55.0429L54.5499 55.0573L54.5976 55.0408C54.6968 55.0066 54.784 54.9585 54.8568 54.8977C54.9765 54.7978 55.0018 54.6892 55.0018 54.6158C55.0018 54.3675 54.6994 54.2607 54.4362 54.195C54.1284 54.1181 53.8527 54.0795 53.6168 54.0795C53.3971 54.0795 53.0285 54.1789 53.0285 54.8456C53.0285 54.9265 53.039 55.0501 53.0603 55.224C53.0796 55.3752 53.0896 55.4887 53.0896 55.561C53.0896 55.8902 53.0759 56.3055 53.0489 56.7982C53.0285 57.348 53.0182 57.7682 53.0182 58.0539L53.0393 58.6063C53.0592 58.8453 53.0694 59.0245 53.0694 59.1379C53.0694 59.2094 53.0728 59.2716 53.0796 59.3271L53.0802 59.7234C53.0879 59.8075 53.126 59.9288 53.2644 60.0279C53.363 60.0984 53.4747 60.1338 53.5963 60.1338H54.4646C54.611 60.1338 54.7394 60.1068 54.8466 60.0532C55.035 59.959 55.0631 59.8075 55.0631 59.7255C55.0634 59.5889 54.9924 59.3597 54.5157 59.3597Z" fill="white"/>
<path id="Vector_64" d="M40.6732 69.0938L39.168 70.2299H22.0078L22.898 69.8088L23.8941 69.3377L24.41 69.0938H40.6732Z" fill="#D3C9CF"/>
<path id="Vector_65" d="M22.0078 70.228H39.1675V81.9387H22.0078V70.228Z" fill="#E2D7DE"/>
<g id="Group_3" opacity="0.5">
<path id="Vector_66" d="M24.2413 81.0692H23.1016V80.2124H24.2413V81.0692ZM23.1797 80.99H24.1631V80.2919H23.1797V80.99Z" fill="#493A41"/>
<path id="Vector_67" d="M23.6967 80.6392H24.0252C24.0252 80.6392 23.9698 80.3593 23.6708 80.3593C23.4079 80.3593 23.3164 80.6392 23.3164 80.6392H23.645V80.8584H23.5679V80.9229H23.7717V80.8584H23.697V80.6392H23.6967ZM25.548 81.0692H24.4084V80.2124H25.548V81.0692ZM24.4865 80.99H25.4696V80.2919H24.4865V80.99Z" fill="#493A41"/>
<path id="Vector_68" d="M25.0878 80.9229H24.8203V80.6519H25.0878V80.9229ZM24.8988 80.8437H25.0096V80.7314H24.8988V80.8437ZM25.3691 80.9229H25.1017V80.6519H25.3691V80.9229ZM25.1798 80.8437H25.2907V80.7314H25.1798V80.8437ZM26.8408 81.0692H25.7011V80.2124H26.8408V81.0692ZM25.7792 80.99H26.7623V80.2919H25.7792V80.99Z" fill="#493A41"/>
<path id="Vector_69" d="M26.4172 80.4326V80.5884C26.4164 80.626 26.4011 80.6619 26.3746 80.6882C26.3481 80.7145 26.3125 80.7293 26.2753 80.7293C26.2382 80.7293 26.2026 80.7145 26.176 80.6882C26.1495 80.6619 26.1343 80.626 26.1335 80.5884V80.4326H26.0039V80.6002C26.0039 80.6733 26.0325 80.7433 26.0835 80.7949C26.1344 80.8466 26.2036 80.8756 26.2756 80.8756C26.3477 80.8756 26.4168 80.8466 26.4677 80.7949C26.5187 80.7433 26.5473 80.6733 26.5473 80.6002V80.4326H26.4172Z" fill="#493A41"/>
</g>
<path id="Vector_70" d="M29.5938 70.1436V72.4856L29.9089 72.2727L30.0081 72.4856L30.119 72.3024L30.3466 72.4856L30.5041 72.3142L30.6385 72.4856L30.8835 72.3318L31.0412 72.4856L31.3971 72.2727L31.5841 72.4856V70.1436H29.5938Z" fill="#D3C9CF"/>
<path id="Vector_71" opacity="0.5" d="M31.5841 70.2293L32.1838 69.808L31.814 69.8463L31.7694 69.808L31.6114 69.8408L31.4309 69.808L31.2294 69.8388L31.139 69.808L30.8545 69.8356L30.7363 69.808L30.3256 69.8463L30.1934 69.808L29.5938 70.2293H31.5841ZM31.2447 69.0938L30.6451 69.5151L31.0145 69.4768L31.0594 69.5151L31.2172 69.482L31.3979 69.5151L31.5994 69.4843L31.6898 69.5151L31.9743 69.4874L32.0926 69.5151L32.503 69.4768L32.6354 69.5151L33.2351 69.0938H31.2447Z" fill="#493A41"/>
<path id="Vector_72" d="M31.5841 82.0481V79.7061L31.2689 79.9189L31.1694 79.7061L31.0586 79.8892L30.8309 79.7061L30.6735 79.8774L30.5393 79.7061L30.2941 79.8596L30.1366 79.7061L29.7805 79.9189L29.5938 79.7061V82.0481H31.5841Z" fill="#D3C9CF"/>
<path id="Vector_73" d="M33.9141 71.5541H38.0466V73.8961H33.9141V71.5541ZM23.1797 74.4402H38.0463V77.9889H23.1797V74.4402ZM39.167 70.2293L40.673 69.0938V80.6558L39.167 81.9397V70.2293Z" fill="#EAEFEE"/>
<path id="Vector_74" opacity="0.5" d="M39.8017 69.7521V70.8269L39.8807 70.7117L39.9069 70.7443L39.9507 70.6674L39.9944 70.7178L40.0442 70.5905L40.0879 70.6466L40.1289 70.5194C40.1289 70.5194 40.1667 70.5697 40.1667 70.5577C40.1667 70.5456 40.2104 70.4897 40.2104 70.4897L40.2658 70.5015V69.4019H38.7834L38.8294 69.4419L38.7595 69.4509L38.7902 69.4929L38.7376 69.5042L38.7464 69.5396L38.6765 69.5373L38.6876 69.5859L38.6308 69.6015L38.6768 69.6482L38.6023 69.6614L38.6418 69.7034L38.5873 69.7256L38.6487 69.7634L39.8017 69.7521ZM24.5975 69.4635L24.4397 69.5047L24.4718 69.5462L24.3377 69.5845L24.3727 69.6317L24.2479 69.6513C24.2479 69.6513 24.2766 69.7118 24.2646 69.7118C24.253 69.7118 24.1362 69.7297 24.1362 69.7297L24.1188 69.8083H22.8984L23.8946 69.3374L24.6787 69.357L24.5648 69.4376L24.5975 69.4635Z" fill="#493A41"/>
<path id="Vector_75" d="M54.9219 71.5127L56.0772 72.385H69.2519L68.5684 72.0616L67.8035 71.7002L67.4076 71.5127H54.9219Z" fill="#D3C9CF"/>
<path id="Vector_76" d="M69.25 81.375H56.0762V72.3845H69.25V81.375Z" fill="#E2D7DE"/>
<g id="Group_4" opacity="0.5">
<path id="Vector_77" d="M67.5352 80.0532H68.4102V80.711H67.5352V80.0532ZM68.35 80.114H67.5951V80.65H68.35V80.114Z" fill="#493A41"/>
<path id="Vector_78" d="M67.9601 80.3807H67.7077C67.7077 80.3807 67.7504 80.1655 67.9797 80.1655C68.1815 80.1655 68.2517 80.3807 68.2517 80.3807H67.9993V80.5489H68.0585V80.5984H67.9021V80.5489H67.9596V80.3807H67.9601ZM66.5391 80.0532H67.4139V80.711H66.5391V80.0532ZM67.3539 80.114H66.599V80.65H67.3539V80.114Z" fill="#493A41"/>
<path id="Vector_79" d="M66.8848 80.3905H67.09V80.5984H66.8848V80.3905ZM67.03 80.4512H66.9448V80.5376H67.03V80.4512ZM66.6688 80.3905H66.874V80.5984H66.6688V80.3905ZM66.814 80.4512H66.7288V80.5376H66.814V80.4512ZM65.5391 80.0532H66.4139V80.711H65.5391V80.0532ZM66.3539 80.114H65.599V80.65H66.3539V80.114Z" fill="#493A41"/>
<path id="Vector_80" d="M65.8657 80.2222V80.3417C65.8657 80.3709 65.8771 80.399 65.8976 80.4197C65.918 80.4404 65.9456 80.452 65.9745 80.452C66.0034 80.452 66.0311 80.4404 66.0515 80.4197C66.0719 80.399 66.0834 80.3709 66.0834 80.3417V80.2222H66.1828V80.3509C66.1828 80.4675 66.0893 80.5623 65.9742 80.5623C65.8591 80.5623 65.7656 80.4675 65.7656 80.3509V80.2222H65.8657Z" fill="#493A41"/>
</g>
<path id="Vector_81" d="M63.4267 72.3232V74.1212L63.1845 73.9576L63.1083 74.1212L63.0233 73.9804L62.8486 74.1212L62.7275 73.9896L62.6243 74.1212L62.4362 74.0031L62.3154 74.1212L62.042 73.9576L61.8984 74.1212V72.3232H63.4267Z" fill="#D3C9CF"/>
<path id="Vector_82" opacity="0.5" d="M61.9004 72.3848L61.44 72.061L61.7239 72.0904L61.7583 72.061L61.8794 72.0864L62.0181 72.061L62.1727 72.0847L62.242 72.061L62.4606 72.0824L62.5513 72.061L62.8664 72.0904L62.9679 72.061L63.4283 72.3848H61.9004ZM62.161 71.5127L62.6215 71.8364L62.3375 71.8067L62.3031 71.8364L62.1821 71.8111L62.0434 71.8364L61.8887 71.8125L61.8194 71.8364L61.6008 71.8151L61.5102 71.8364L61.195 71.8067L61.0932 71.8364L60.6328 71.5127H62.161Z" fill="#493A41"/>
<path id="Vector_83" d="M61.8984 81.4572V79.6592L62.1406 79.8228L62.2168 79.6592L62.3017 79.8L62.4765 79.6592L62.5976 79.7908L62.7005 79.6592L62.8889 79.7773L63.0097 79.6592L63.2831 79.8228L63.4267 79.6592V81.4572H61.8984Z" fill="#D3C9CF"/>
<path id="Vector_84" d="M60.1133 75.2017H56.9409V73.4037H60.1133V75.2017Z" fill="#EAEFEE"/>
<path id="Vector_85" d="M68.3516 78.3423H56.9381V75.6178H68.3516V78.3423Z" fill="#EAEFEE"/>
<path id="Vector_86" d="M56.0778 72.3845L54.9219 71.5127V80.3891L56.0778 81.375V72.3845Z" fill="#EAEFEE"/>
<path id="Vector_87" opacity="0.5" d="M55.5905 72.0187V72.8438L55.53 72.7554L55.5098 72.7805L55.4762 72.7214L55.4427 72.76L55.4046 72.6624L55.3711 72.7056L55.3398 72.608C55.3398 72.608 55.3105 72.6466 55.3105 72.6373C55.3105 72.6281 55.277 72.5852 55.277 72.5852L55.2344 72.5944V71.7503H56.3726L56.3374 71.7811L56.3911 71.788L56.3675 71.8203L56.4079 71.8289L56.4011 71.8563L56.4548 71.8546L56.4463 71.892L56.49 71.9038L56.4548 71.9395L56.5119 71.9496L56.4818 71.9819L56.5238 71.9989L56.4767 72.0279L55.5905 72.0187ZM67.2631 71.7973L67.3842 71.8289L67.3595 71.8606L67.4626 71.89L67.4356 71.9263L67.5314 71.9413C67.5314 71.9413 67.5095 71.9876 67.5186 71.9876C67.5277 71.9876 67.6173 72.0012 67.6173 72.0012L67.6306 72.0616H68.5674L67.8026 71.7002L67.2006 71.7152L67.2881 71.7771L67.2631 71.7973Z" fill="#493A41"/>
<path id="Vector_88" d="M68.2453 38.9531L65.6871 44.1892L56.5536 42.8319L56.0312 43.5251C56.0312 43.5251 63.9389 48.4542 66.3581 48.0729C68.8947 47.6732 70.6995 45.0725 70.7876 43.2109C70.8726 41.4086 70.0162 40.2221 68.2453 38.9531Z" fill="#FFBF9F"/>
<path id="Vector_89" d="M54.8063 43.4475C55.0365 43.5287 55.2454 43.5906 55.3571 43.6059C55.4435 43.6177 55.5276 43.6191 55.6058 43.6142C55.6729 43.6102 55.7351 43.6015 55.7905 43.5912C55.9341 43.565 56.0293 43.5264 56.0293 43.5264L57.7041 44.2101C57.894 43.9126 57.9932 43.4351 58.0057 43.3524C58.0057 43.3524 56.411 42.8651 56.2529 42.5935C56.251 42.5915 56.2495 42.5884 56.2484 42.5861C56.2473 42.5817 56.2464 42.5771 56.2456 42.5722C56.2282 42.502 56.1606 42.4138 56.0699 42.3306C56.0034 42.2698 55.925 42.2117 55.8465 42.1653C55.6544 42.0521 55.6109 41.4367 55.4753 41.4565C55.3395 41.4773 55.2693 41.8413 55.3688 41.9991C55.4674 42.1567 55.327 42.2448 55.1613 42.1849L55.1093 42.1662C54.7784 42.0466 53.7536 41.6823 53.6686 41.8407C53.6132 41.9441 54.0233 42.1385 54.3473 42.273C53.9451 42.1232 53.3608 41.9297 53.3594 42.0659C53.3582 42.1708 53.9238 42.4395 54.241 42.5863C54.0145 42.5057 53.5606 42.3631 53.5313 42.4412C53.4682 42.6094 53.9235 42.8003 54.2373 42.9098C54.046 42.8574 53.8215 42.8185 53.7766 42.9043C53.7223 43.0094 54.3135 43.2744 54.8063 43.4475Z" fill="#FFBF9F"/>
<path id="Vector_90" d="M54.9008 42.4955C54.9003 42.4952 54.8997 42.4958 54.8991 42.4955L54.4018 42.2764L54.9102 42.4673C54.9105 42.4673 54.9108 42.4676 54.9111 42.4676C54.9122 42.4682 54.9688 42.3668 55.004 42.3207C54.9637 42.3936 54.9313 42.4702 54.9017 42.5477C54.8909 42.5765 54.8807 42.6055 54.8704 42.6346C54.8704 42.6346 54.894 42.5099 54.9008 42.4955ZM54.7855 42.8221C54.7852 42.8221 54.7846 42.8224 54.7843 42.8221L54.2869 42.603L54.792 42.7925C54.8173 42.7138 54.8579 42.6712 54.8579 42.6712C54.8457 42.7084 54.8341 42.7461 54.8244 42.7838C54.8116 42.8296 54.8039 42.8766 54.798 42.9241C54.7911 42.9229 54.7792 42.8544 54.7855 42.8221ZM54.7596 43.1015L54.25 42.9137L54.7653 43.0715C54.765 43.0566 54.7849 42.9609 54.7931 42.9624H54.7934C54.7911 42.984 54.7894 43.0056 54.7877 43.0272C54.7818 43.1095 54.7801 43.1925 54.7798 43.2757C54.7712 43.2184 54.7619 43.1023 54.7596 43.1015Z" fill="#E8AD80"/>
<path id="Vector_91" opacity="0.2" d="M53.7018 41.8667C53.7222 41.8261 53.864 41.8408 53.8748 41.8526C53.8748 41.8526 53.8422 41.9649 53.8282 41.9816C53.814 41.9983 53.6813 41.9073 53.7018 41.8667ZM53.3928 42.0625C53.4133 42.0219 53.5551 42.0366 53.5659 42.0484C53.5659 42.0484 53.5332 42.1607 53.5193 42.1775C53.5048 42.1942 53.3721 42.1031 53.3928 42.0625ZM53.5599 42.4807C53.5804 42.4401 53.7222 42.4548 53.733 42.4666C53.733 42.4666 53.7003 42.5792 53.6864 42.5956C53.6722 42.6123 53.5392 42.5213 53.5599 42.4807ZM53.8413 42.9337C53.8618 42.8931 54.0036 42.9078 54.0144 42.9196C54.0144 42.9196 53.9817 43.0322 53.9678 43.0486C53.9533 43.0654 53.8206 42.9743 53.8413 42.9337ZM55.5946 41.6642L55.5409 41.6936C55.5409 41.6936 55.4653 41.5248 55.5 41.4886C55.5344 41.4523 55.5946 41.6642 55.5946 41.6642Z" fill="white"/>
<path id="Vector_92" d="M70.7827 37.143C69.1417 36.4003 66.6346 40.3159 66.6056 41.116C66.5766 41.9157 70.3183 45.0604 70.8293 44.9256C71.3403 44.7908 73.0206 38.1559 70.7827 37.143Z" fill="#2B8AFC"/>
<path id="Vector_93" d="M28.8013 34.2122C28.8013 34.2122 30.8985 34.3063 30.9715 33.8104C31.0057 33.5783 30.9102 33.4734 30.2135 33.4213C31.0676 33.4536 31.0642 33.326 30.984 33.0665C30.9224 32.8669 30.8439 32.8534 30.1527 32.7736C30.6313 32.7846 30.8914 32.7365 30.9207 32.5268C30.9576 32.2598 30.7612 32.1619 30.0993 32.151C30.4938 32.1302 30.7311 32.0916 30.7288 31.8978C30.7268 31.7264 30.5887 31.5692 30.1598 31.5433C29.6747 31.5139 29.6906 31.443 29.4692 31.4842C29.2984 31.5159 29.1176 31.5297 28.9926 31.6239C28.3886 32.0775 28.4355 34.0183 28.8013 34.2122Z" fill="#FFBF9F"/>
<path id="Vector_94" d="M29.6906 33.3866C30.0311 33.3739 30.4671 33.418 30.4887 33.42C30.5032 33.4214 30.5137 33.4344 30.5123 33.4491C30.5109 33.4638 30.4981 33.4744 30.4836 33.473C30.4773 33.4724 29.8552 33.4093 29.5204 33.4531C29.5169 33.4536 29.5134 33.4535 29.5101 33.4526C29.5067 33.4517 29.5036 33.4501 29.5009 33.448C29.4981 33.4458 29.4958 33.4431 29.4942 33.44C29.4925 33.437 29.4914 33.4336 29.4911 33.4301C29.4906 33.4266 29.4908 33.4231 29.4917 33.4197C29.4926 33.4163 29.4942 33.4132 29.4963 33.4104C29.4984 33.4076 29.5011 33.4053 29.5041 33.4036C29.5071 33.4019 29.5104 33.4008 29.5138 33.4004C29.567 33.3932 29.627 33.3889 29.6906 33.3866ZM29.7725 32.749C30.0752 32.7377 30.3963 32.7596 30.4003 32.7599C30.4148 32.7608 30.4256 32.7737 30.4247 32.7881C30.4245 32.7916 30.4236 32.795 30.4221 32.7982C30.4206 32.8013 30.4185 32.8041 30.4159 32.8064C30.4133 32.8087 30.4103 32.8104 30.407 32.8116C30.4038 32.8127 30.4003 32.8131 30.3969 32.8129C30.3918 32.8126 29.87 32.7769 29.5346 32.8207C29.5312 32.8212 29.5277 32.8209 29.5243 32.82C29.521 32.8191 29.5179 32.8176 29.5152 32.8154C29.5124 32.8133 29.5102 32.8106 29.5085 32.8075C29.5068 32.8045 29.5057 32.8011 29.5053 32.7976C29.5048 32.7942 29.505 32.7906 29.5059 32.7873C29.5068 32.7839 29.5084 32.7807 29.5105 32.7779C29.5126 32.7752 29.5153 32.7729 29.5183 32.7712C29.5213 32.7694 29.5246 32.7684 29.528 32.768C29.6028 32.7579 29.6869 32.7521 29.7725 32.749ZM29.7821 32.1165C30.0749 32.1056 30.3736 32.1283 30.3776 32.1286C30.3921 32.1298 30.4029 32.1424 30.4017 32.1571C30.4006 32.1718 30.3878 32.183 30.3736 32.1816C30.3688 32.1813 29.8839 32.1445 29.5491 32.1879C29.5457 32.1884 29.5422 32.1882 29.5389 32.1872C29.5355 32.1863 29.5324 32.1848 29.5297 32.1826C29.527 32.1805 29.5247 32.1778 29.523 32.1748C29.5213 32.1717 29.5202 32.1684 29.5198 32.1649C29.5181 32.1502 29.528 32.137 29.5425 32.1352C29.6173 32.1254 29.6994 32.1197 29.7821 32.1165ZM28.9315 31.9737C28.9369 31.9734 28.9423 31.9748 28.9471 31.9783C28.9591 31.9863 28.9625 32.003 28.9542 32.0151C28.626 32.5102 28.8485 32.9304 28.8508 32.9347C28.8542 32.9413 28.855 32.9488 28.8528 32.956C28.7126 33.3808 28.9576 33.7259 28.9602 33.7293C28.9687 33.7411 28.9662 33.7578 28.9545 33.7665C28.9429 33.7751 28.9264 33.7725 28.9178 33.7607C28.907 33.746 28.6578 33.3961 28.7993 32.9494C28.7655 32.878 28.5941 32.4621 28.9105 31.9852C28.9129 31.9818 28.916 31.979 28.9197 31.977C28.9233 31.975 28.9273 31.9738 28.9315 31.9737Z" fill="#EFAC8F"/>
<path id="Vector_95" d="M44.8818 69.9848C43.8862 71.0872 42.5146 72.4788 42.4239 72.5724C42.4208 72.5742 42.4191 72.5756 42.4191 72.5756L42.1133 72.4336L44.7465 69.8056L45.9109 68.6436C45.9729 68.7305 45.4997 69.3019 44.8818 69.9848Z" fill="#E2D7DE"/>
<path id="Vector_96" d="M43.0881 71.8074C43 71.8497 42.9185 71.8699 42.8207 71.8684C42.7791 71.868 42.7378 71.8628 42.6973 71.8532L42.1133 72.4361L42.4191 72.5781C42.4191 72.5781 42.4208 72.5763 42.4239 72.5749C42.4657 72.5317 42.782 72.2106 43.2064 71.7705C43.1663 71.7774 43.1268 71.7887 43.0881 71.8074Z" fill="#D3C9CF"/>
<path id="Vector_97" d="M43.1815 68.95C42.7771 70.3871 42.164 72.253 42.1242 72.378C42.122 72.3809 42.1214 72.3832 42.1214 72.3832L41.7852 72.3947L42.9814 68.8512L43.5103 67.2842C43.6044 67.334 43.433 68.0595 43.1815 68.95Z" fill="#E2D7DE"/>
<path id="Vector_98" d="M42.38 71.3884C42.32 71.4662 42.2558 71.5212 42.1677 71.5641C42.1305 71.5823 42.091 71.597 42.0506 71.6065L41.7852 72.3924L42.1214 72.3809C42.1214 72.3809 42.1219 72.3786 42.1242 72.3757C42.1427 72.3181 42.2837 71.8875 42.4695 71.3018C42.4366 71.3265 42.4062 71.3542 42.38 71.3884Z" fill="#D3C9CF"/>
<path id="Vector_99" d="M39.5082 83.4535C38.1624 83.4535 36.813 83.3677 35.4973 83.1983C34.2033 83.0241 33.2293 81.8424 33.2708 80.507L33.4462 74.7144C33.4871 73.4069 34.4494 72.2964 35.6846 72.1299C36.9607 71.9655 38.2599 71.8828 39.5559 71.8828C41.6349 71.8828 43.7492 72.0942 45.8407 72.5115C47.0256 72.7601 47.9393 73.8395 47.9814 75.0255L48.1568 80.1657C48.2005 81.4064 47.295 82.5388 46.0504 82.7977C43.8648 83.2337 41.6682 83.4535 39.5082 83.4535Z" fill="#D3C9CF"/>
<path id="Vector_100" d="M44.8202 81.2197C41.498 81.8824 38.1108 82.0279 34.7886 81.6002C34.3109 81.536 33.938 81.0628 33.9536 80.5611C34.0119 78.6298 34.0704 76.6984 34.1287 74.7671C34.1443 74.2657 34.5269 73.7948 34.985 73.7329C38.177 73.3219 41.4312 73.4616 44.6232 74.0984C45.0814 74.1946 45.4639 74.6433 45.4796 75.0865C45.5378 76.7992 45.5964 78.5117 45.6546 80.2244C45.6708 80.6674 45.298 81.1201 44.8202 81.2197ZM47.491 75.4589C47.491 75.8719 47.1604 76.2068 46.7528 76.2068C46.3453 76.2068 46.0147 75.8719 46.0147 75.4589C46.0147 75.0459 46.3453 74.711 46.7528 74.711C47.1607 74.711 47.491 75.0459 47.491 75.4589ZM47.2852 76.7805C47.2852 76.8767 47.0467 76.9548 46.7528 76.9548C46.459 76.9548 46.2205 76.8767 46.2205 76.7805C46.2205 76.6843 46.459 76.6063 46.7528 76.6063C47.047 76.6066 47.2852 76.6843 47.2852 76.7805ZM47.2852 77.4971C47.2852 77.5933 47.0467 77.6713 46.7528 77.6713C46.459 77.6713 46.2205 77.5933 46.2205 77.4971C46.2205 77.4009 46.459 77.3228 46.7528 77.3228C47.047 77.3228 47.2852 77.4009 47.2852 77.4971ZM47.2852 78.2133C47.2852 78.3095 47.0467 78.3876 46.7528 78.3876C46.459 78.3876 46.2205 78.3095 46.2205 78.2133C46.2205 78.1171 46.459 78.0391 46.7528 78.0391C47.047 78.0391 47.2852 78.1171 47.2852 78.2133ZM47.2852 78.9296C47.2852 79.0258 47.0467 79.1038 46.7528 79.1038C46.459 79.1038 46.2205 79.0258 46.2205 78.9296C46.2205 78.8334 46.459 78.7553 46.7528 78.7553C47.047 78.7553 47.2852 78.8334 47.2852 78.9296Z" fill="#EAEFEE"/>
<path id="Vector_101" d="M76.8202 20.4915C75.4424 20.6343 80.278 27.2244 80.648 25.2852C81.0181 23.3461 79.5279 20.211 76.8202 20.4915ZM74.6619 17.9487C73.0553 19.1503 77.8374 20.579 77.8727 19.2332C77.9082 17.8874 75.0854 17.6322 74.6619 17.9487Z" fill="#F6F6F6"/>
<path id="Vector_102" d="M8.2396 34.6765C8.25892 34.7059 10.7503 34.6765 10.7503 34.6765C10.7503 34.6765 10.9638 34.1408 10.4505 33.9199C9.9372 33.6993 9.76952 34.0711 9.76952 34.0711C9.76952 34.0711 9.7644 33.8871 9.58137 33.8499C9.39833 33.8128 9.48985 34.0838 9.48985 34.0838C9.48985 34.0838 9.34746 33.8379 9.12378 33.8128C8.90011 33.7875 8.85947 34.0397 8.97628 34.2981C8.97656 34.2984 7.99034 34.2984 8.2396 34.6765Z" fill="#E2D7DE"/>
<path id="Vector_103" d="M8.57331 34.6814C8.58781 34.7033 10.4599 34.6814 10.4599 34.6814C10.4599 34.6814 10.6202 34.2788 10.2345 34.1129C9.84886 33.947 9.72267 34.2267 9.72267 34.2267C9.72267 34.2267 9.71898 34.0884 9.58142 34.0605C9.44386 34.0326 9.51264 34.2362 9.51264 34.2362C9.51264 34.2362 9.40577 34.0516 9.2378 34.0326C9.06983 34.0136 9.03914 34.2031 9.12696 34.3972C9.12696 34.3972 8.38602 34.3972 8.57331 34.6814Z" fill="#EAEFEE"/>
<path id="Vector_104" d="M18.8672 34.6765C18.8479 34.7059 16.3565 34.6765 16.3565 34.6765C16.3565 34.6765 16.1431 34.1408 16.6563 33.9199C17.1696 33.6993 17.3373 34.0711 17.3373 34.0711C17.3373 34.0711 17.3424 33.8871 17.5255 33.8499C17.7085 33.8128 17.617 34.0838 17.617 34.0838C17.617 34.0838 17.7594 33.8379 17.9831 33.8128C18.2067 33.7875 18.2474 34.0397 18.1306 34.2981C18.1303 34.2984 19.1162 34.2984 18.8672 34.6765Z" fill="#E2D7DE"/>
<path id="Vector_105" d="M18.5368 34.6814C18.5223 34.7033 16.6502 34.6814 16.6502 34.6814C16.6502 34.6814 16.4899 34.2788 16.8756 34.1129C17.2613 33.947 17.3875 34.2267 17.3875 34.2267C17.3875 34.2267 17.3912 34.0884 17.5287 34.0605C17.6663 34.0326 17.5975 34.2362 17.5975 34.2362C17.5975 34.2362 17.7044 34.0516 17.8723 34.0326C18.0403 34.0136 18.071 34.2031 17.9832 34.3972C17.9832 34.3972 18.7238 34.3972 18.5368 34.6814Z" fill="#EAEFEE"/>
<path id="Vector_106" d="M9.49219 29.6812H17.6681V34.5829H9.49219V29.6812Z" fill="#EAEFEE"/>
<path id="Vector_107" opacity="0.5" d="M17.6681 30.8179L9.49219 30.0714V29.6812H17.6681V30.8179Z" fill="#E8F0F0"/>
<path id="Vector_108" d="M17.7686 31.6552H9.40026C9.24395 31.6552 9.11719 31.6404 9.11719 31.7967H18.052C18.0517 31.6401 17.925 31.6552 17.7686 31.6552Z" fill="#D9E0DF"/>
<path id="Vector_109" d="M18.0626 29.678H8.88281L9.66298 27.7314H17.2824L18.0626 29.678Z" fill="#D3C9CF"/>
<path id="Vector_110" d="M15.2578 33.3374V32.08H17.3701V33.3374H15.2578Z" fill="#D9E0DF"/>
<path id="Vector_111" d="M15.3164 33.2529V32.1603H17.3087V33.2529H15.3164Z" fill="#E8F0F0"/>
<path id="Vector_112" d="M16.476 32.1611L17.3087 33.2538H17.0615L16.6406 32.761L16.8102 33.2538H16.1793L15.3164 32.1611H15.861L16.2427 32.7075L16.0306 32.1611H16.476Z" fill="#F4F2EB"/>
<path id="Vector_113" d="M16.2852 33.314V32.0995H16.34V33.314H16.2852Z" fill="#D9E0DF"/>
<path id="Vector_114" d="M9.78516 33.3374V32.08H11.8974V33.3374H9.78516Z" fill="#D9E0DF"/>
<path id="Vector_115" d="M9.83984 33.2529V32.1603H11.8322V33.2529H9.83984Z" fill="#E8F0F0"/>
<path id="Vector_116" d="M10.9994 32.1611L11.8322 33.2538H11.5849L11.1637 32.761L11.3337 33.2538H10.7024L9.83984 32.1611H10.3844L10.7661 32.7075L10.5541 32.1611H10.9994Z" fill="#F4F2EB"/>
<path id="Vector_117" d="M10.8125 33.314V32.0995H10.8674V33.314H10.8125Z" fill="#D9E0DF"/>
<path id="Vector_118" d="M12.7227 32.3154H14.4481V34.6053H12.7227V32.3154Z" fill="#D9E0DF"/>
<path id="Vector_119" d="M12.793 32.3765H14.3794V34.6021H12.793V32.3765Z" fill="#E8F0F0"/>
<path id="Vector_120" d="M14.3794 33.5996L12.793 34.478V34.2174L13.508 33.7733L12.793 33.9521V33.2865L14.3794 32.3765V32.9507L13.5862 33.3536L14.3794 33.1299V33.5996Z" fill="#F4F2EB"/>
<path id="Vector_121" d="M13.5609 32.3296H13.6061V34.6031H13.5609V32.3296ZM13.6641 33.5118H13.7908V33.5329H13.6641V33.5118ZM13.3594 33.5118H13.4861V33.5329H13.3594V33.5118Z" fill="#D9E0DF"/>
<path id="Vector_122" opacity="0.55" d="M10.625 34.1484H10.3286V34.0299H10.625V34.1484Z" fill="#D9E0DF"/>
<path id="Vector_123" opacity="0.31" d="M10.4609 34.0312H10.1645V33.9127H10.4609V34.0312Z" fill="#D9E0DF"/>
<path id="Vector_124" opacity="0.5" d="M10.3281 33.9092H10.0317V33.7907H10.3281V33.9092Z" fill="#D9E0DF"/>
<path id="Vector_125" opacity="0.35" d="M10.625 33.9092H10.3286V33.7907H10.625V33.9092Z" fill="#D9E0DF"/>
<path id="Vector_126" opacity="0.55" d="M11.6484 30.6797H11.352V30.5612H11.6484V30.6797Z" fill="#D9E0DF"/>
<path id="Vector_127" opacity="0.31" d="M11.4922 30.5576H11.1958V30.4391H11.4922V30.5576Z" fill="#D9E0DF"/>
<path id="Vector_128" opacity="0.5" d="M11.3516 30.4404H11.0551V30.3219H11.3516V30.4404Z" fill="#D9E0DF"/>
<path id="Vector_129" opacity="0.35" d="M11.6484 30.4404H11.352V30.3219H11.6484V30.4404Z" fill="#D9E0DF"/>
<path id="Vector_130" opacity="0.31" d="M16.9609 34.0923H16.6645V33.9738H16.9609V34.0923Z" fill="#D9E0DF"/>
<path id="Vector_131" opacity="0.5" d="M16.8164 33.9702H16.52V33.8517H16.8164V33.9702Z" fill="#D9E0DF"/>
<path id="Vector_132" opacity="0.35" d="M17.1172 33.9702H16.8208V33.8517H17.1172V33.9702Z" fill="#D9E0DF"/>
<path id="Vector_133" opacity="0.31" d="M15.9805 30.9092H16.2769V31.0277H15.9805V30.9092Z" fill="#D9E0DF"/>
<path id="Vector_134" opacity="0.5" d="M16.1172 31.0312H16.4136V31.1498H16.1172V31.0312Z" fill="#D9E0DF"/>
<path id="Vector_135" opacity="0.35" d="M15.8203 31.0312H16.1167V31.1498H15.8203V31.0312Z" fill="#D9E0DF"/>
<path id="Vector_136" d="M12.0898 29.5405H12.4784V29.8277H12.0898V29.5405ZM12.0898 29.8576H12.4784V30.1447H12.0898V29.8576ZM12.0898 30.1744H12.4784V30.4615H12.0898V30.1744ZM12.0898 30.4915H12.4784V30.7786H12.0898V30.4915ZM12.0898 30.8086H12.4784V31.0957H12.0898V30.8086ZM12.0898 31.1254H12.4784V31.4125H12.0898V31.1254ZM12.0898 31.4425H12.4784V31.7296H12.0898V31.4425ZM12.0898 31.7596H12.4784V32.0467H12.0898V31.7596ZM12.0898 32.0764H12.4784V32.3635H12.0898V32.0764ZM12.0898 32.3935H12.4784V32.6806H12.0898V32.3935ZM12.0898 32.7105H12.4784V32.9977H12.0898V32.7105ZM12.0898 33.0273H12.4784V33.3145H12.0898V33.0273ZM12.0898 33.3444H12.4784V33.6316H12.0898V33.3444ZM12.0898 33.6615H12.4784V33.9486H12.0898V33.6615ZM12.0898 33.9786H12.4784V34.2657H12.0898V33.9786ZM12.0898 34.2954H12.4784V34.5825H12.0898V34.2954ZM14.6674 29.5405H15.0559V29.8277H14.6674V29.5405ZM14.6674 29.8576H15.0559V30.1447H14.6674V29.8576ZM14.6674 30.1744H15.0559V30.4615H14.6674V30.1744ZM14.6674 30.4915H15.0559V30.7786H14.6674V30.4915ZM14.6674 30.8086H15.0559V31.0957H14.6674V30.8086ZM14.6674 31.1254H15.0559V31.4125H14.6674V31.1254ZM14.6674 31.4425H15.0559V31.7296H14.6674V31.4425ZM14.6674 31.7596H15.0559V32.0467H14.6674V31.7596ZM14.6674 32.0764H15.0559V32.3635H14.6674V32.0764ZM14.6674 32.3935H15.0559V32.6806H14.6674V32.3935ZM14.6674 32.7105H15.0559V32.9977H14.6674V32.7105ZM14.6674 33.0273H15.0559V33.3145H14.6674V33.0273ZM14.6674 33.3444H15.0559V33.6316H14.6674V33.3444ZM14.6674 33.6615H15.0559V33.9486H14.6674V33.6615ZM14.6674 33.9786H15.0559V34.2657H14.6674V33.9786ZM14.6674 34.2954H15.0559V34.5825H14.6674V34.2954Z" fill="#E2D7DE"/>
<path id="Vector_137" d="M14.8666 32.1216H12.2891V29.3971L13.5859 28.561L14.8666 29.3971V32.1216Z" fill="#EAEFEE"/>
<path id="Vector_138" d="M12.9219 30.4502H14.1954V32.1405H12.9219V30.4502Z" fill="#D9E0DF"/>
<path id="Vector_139" d="M12.9727 30.4971H14.1436V32.1401H12.9727V30.4971Z" fill="#E8F0F0"/>
<path id="Vector_140" d="M14.1436 31.3999L12.9727 32.0482V31.8559L13.5004 31.5278L12.9727 31.66V31.1687L14.1436 30.4971V30.921L13.5581 31.2182L14.1436 31.0532V31.3999Z" fill="#F4F2EB"/>
<path id="Vector_141" opacity="0.5" d="M14.8663 29.3971V29.942L13.5856 29.1056L12.2891 29.942V29.3971L13.5856 28.561L14.8663 29.3971Z" fill="#E8F0F0"/>
<path id="Vector_142" opacity="0.5" d="M16.5371 29.6791H15.442L13.5846 28.5916L11.727 29.6791H10.6328L13.0378 28.2716L13.5846 27.9517L14.132 28.2716L16.5371 29.6791Z" fill="#E8F0F0"/>
<path id="Vector_143" d="M13.9521 28.5542L13.5877 28.3408L13.2231 28.5542L11.4766 29.5766L11.6587 29.8966L13.5877 28.7676L15.5164 29.8966L15.6985 29.5766L13.9521 28.5542Z" fill="#E2D7DE"/>
<path id="Vector_144" d="M11.9375 32.0576H15.1815V32.1903H11.9375V32.0576Z" fill="#D9E0DF"/>
<path id="Vector_145" d="M11.9766 31.4438H12.0647V32.1287H11.9766V31.4438Z" fill="#D9E0DF"/>
<path id="Vector_146" opacity="0.5" d="M12.0647 31.8096L11.9766 31.5481V31.4438H12.0647V31.8096Z" fill="#E8F0F0"/>
<path id="Vector_147" d="M12.5859 31.4438H12.674V32.1287H12.5859V31.4438Z" fill="#D9E0DF"/>
<path id="Vector_148" opacity="0.5" d="M12.674 31.8096L12.5859 31.5481V31.4438H12.674V31.8096Z" fill="#E8F0F0"/>
<path id="Vector_149" d="M13.2031 31.4438H13.2912V32.1287H13.2031V31.4438Z" fill="#D9E0DF"/>
<path id="Vector_150" opacity="0.5" d="M13.2912 31.8096L13.2031 31.5481V31.4438H13.2912V31.8096Z" fill="#E8F0F0"/>
<path id="Vector_151" d="M13.8047 31.4438H13.8928V32.1287H13.8047V31.4438Z" fill="#D9E0DF"/>
<path id="Vector_152" opacity="0.5" d="M13.8931 31.8096L13.8047 31.5481V31.4438H13.8931V31.8096Z" fill="#E8F0F0"/>
<path id="Vector_153" d="M14.4258 31.4438H14.5139V32.1287H14.4258V31.4438Z" fill="#D9E0DF"/>
<path id="Vector_154" opacity="0.5" d="M14.5139 31.8096L14.4258 31.5481V31.4438H14.5139V31.8096Z" fill="#E8F0F0"/>
<path id="Vector_155" d="M15.0312 31.4438H15.1194V32.1287H15.0312V31.4438Z" fill="#D9E0DF"/>
<path id="Vector_156" opacity="0.5" d="M15.1194 31.8096L15.0312 31.5481V31.4438H15.1194V31.8096Z" fill="#E8F0F0"/>
<path id="Vector_157" d="M11.8945 31.4062H15.2187V31.4841H11.8945V31.4062Z" fill="#D9E0DF"/>
<path id="Vector_158" opacity="0.31" d="M13.6953 30.1357H13.3989V30.0172H13.6953V30.1357Z" fill="#D3C9CF"/>
<path id="Vector_159" opacity="0.5" d="M13.5586 30.0186H13.2622V29.9H13.5586V30.0186Z" fill="#D3C9CF"/>
<path id="Vector_160" opacity="0.35" d="M13.8516 30.0186H13.5551V29.9H13.8516V30.0186Z" fill="#D3C9CF"/>
<path id="Vector_161" d="M17.7686 34.58H9.40026C9.24395 34.58 9.11719 34.5652 9.11719 34.7215H18.052C18.0517 34.5652 17.925 34.58 17.7686 34.58Z" fill="#D3C9CF"/>
</g>
</svg>
