<svg width="48" height="49" viewBox="0 0 48 49" fill="none" xmlns="http://www.w3.org/2000/svg">
<g clipPath="url(#clip0_3967_147298)">
<path fill-rule="evenodd" clip-rule="evenodd" d="M40.7405 4.35104L38.7798 9.83711C38.7628 9.88667 38.7317 9.93018 38.6902 9.96226C38.6488 9.99434 38.5988 10.0136 38.5466 10.0177C38.4945 10.023 38.4419 10.013 38.3954 9.98891C38.3488 9.96477 38.3104 9.92755 38.2848 9.88183L37.4066 8.36092L27.8272 13.8915C27.566 14.0424 27.2298 13.9523 27.0789 13.691L25.6122 11.1506C25.4613 10.8895 25.5514 10.5533 25.8127 10.4024L35.392 4.87173L34.5139 3.35083C34.4872 3.30577 34.4741 3.25387 34.4765 3.20151C34.4789 3.14915 34.4965 3.09862 34.5273 3.05617C34.5569 3.01295 34.5985 2.97934 34.647 2.95948C34.6956 2.93962 34.7488 2.93439 34.8003 2.94442L40.5317 3.98945C40.5709 3.996 40.6082 4.01131 40.6408 4.03424C40.6733 4.05718 40.7003 4.08714 40.7197 4.12192C40.7614 4.19401 40.7686 4.27258 40.7405 4.35104Z" fill="#8AC9FE"/>
<path fill-rule="evenodd" clip-rule="evenodd" d="M40.7421 4.35114L38.7814 9.8372C38.7644 9.88677 38.7332 9.93027 38.6918 9.96235C38.6503 9.99443 38.6004 10.0137 38.5482 10.0178C38.496 10.0231 38.4434 10.0131 38.3969 9.989C38.3504 9.96487 38.3119 9.92764 38.2863 9.88192L38.0032 9.39151L39.8046 4.35114C39.8186 4.31384 39.8239 4.27388 39.8204 4.23421C39.8168 4.19455 39.8043 4.1562 39.7839 4.12201C39.7645 4.08725 39.7375 4.05729 39.705 4.03436C39.6724 4.01142 39.6352 3.99611 39.5959 3.98954L34.5233 3.06461L34.529 3.05617C34.5586 3.01295 34.6003 2.97934 34.6488 2.95948C34.6973 2.93962 34.7506 2.93439 34.802 2.94442L40.5334 3.98945C40.5727 3.996 40.61 4.01131 40.6425 4.03424C40.6751 4.05718 40.7021 4.08714 40.7215 4.12192C40.763 4.19411 40.7701 4.27267 40.7421 4.35114ZM37.4082 8.36101L37.1738 7.95508L27.125 13.7567C27.2906 13.9665 27.5908 14.029 27.8288 13.8916L37.4082 8.36101Z" fill="#60B7FF"/>
<path fill-rule="evenodd" clip-rule="evenodd" d="M32.1294 19.9014H27.8438C27.3274 19.9014 26.9062 20.3225 26.9062 20.8389V43.4414C26.9062 43.9578 27.3274 44.3789 27.8438 44.3789H32.1294C32.6458 44.3789 33.0669 43.9578 33.0669 43.4414V20.8389C33.0669 20.3225 32.6457 19.9014 32.1294 19.9014Z" fill="#B7E546"/>
<path fill-rule="evenodd" clip-rule="evenodd" d="M32.129 19.9014H30.2539C30.7703 19.9014 31.1914 20.3225 31.1914 20.8389V43.4414C31.1914 43.9578 30.7703 44.3789 30.2539 44.3789H32.129C32.6454 44.3789 33.0665 43.9578 33.0665 43.4414V20.8389C33.0665 20.3225 32.6453 19.9014 32.129 19.9014Z" fill="#ABD641"/>
<path fill-rule="evenodd" clip-rule="evenodd" d="M20.692 26.3677H16.4062C15.8899 26.3677 15.4688 26.7888 15.4688 27.3052V43.4416C15.4687 43.958 15.8899 44.3791 16.4062 44.3791H20.692C21.2084 44.3791 21.6295 43.9579 21.6295 43.4416V27.3052C21.6295 26.7888 21.2085 26.3677 20.692 26.3677Z" fill="#FFE177"/>
<path fill-rule="evenodd" clip-rule="evenodd" d="M20.6915 26.3677H18.8164C19.3328 26.3677 19.7539 26.7888 19.7539 27.3052V43.4416C19.7539 43.958 19.3328 44.3791 18.8164 44.3791H20.6915C21.2079 44.3791 21.629 43.9579 21.629 43.4416V27.3052C21.629 26.7888 21.208 26.3677 20.6915 26.3677Z" fill="#FFD064"/>
<path fill-rule="evenodd" clip-rule="evenodd" d="M39.2852 14.085H43.5709C44.0873 14.085 44.5084 14.5061 44.5084 15.0225V43.4417C44.5084 43.9581 44.0873 44.3792 43.5709 44.3792H39.2852C38.7688 44.3792 38.3477 43.9581 38.3477 43.4417V15.0224C38.3477 14.5061 38.7688 14.085 39.2852 14.085Z" fill="#8AC9FE"/>
<path fill-rule="evenodd" clip-rule="evenodd" d="M41.6953 14.085H43.5704C44.0868 14.085 44.5079 14.5061 44.5079 15.0225V43.4417C44.5079 43.9581 44.0868 44.3792 43.5704 44.3792H41.6953C42.2117 44.3792 42.6328 43.9581 42.6328 43.4417V15.0224C42.6328 14.5061 42.2117 14.085 41.6953 14.085Z" fill="#60B7FF"/>
<path fill-rule="evenodd" clip-rule="evenodd" d="M4.96484 32.5601H9.25053C9.76691 32.5601 10.188 32.9812 10.188 33.4976V43.4415C10.188 43.9579 9.76691 44.379 9.25053 44.379H4.96484C4.44856 44.379 4.02734 43.9579 4.02734 43.4415V33.4976C4.02734 32.9812 4.44847 32.5601 4.96484 32.5601Z" fill="#FE646F"/>
<path fill-rule="evenodd" clip-rule="evenodd" d="M7.375 32.5601H9.25009C9.76647 32.5601 10.1876 32.9812 10.1876 33.4976V43.4415C10.1876 43.9579 9.76647 44.379 9.25009 44.379H7.375C7.89138 44.379 8.3125 43.9579 8.3125 43.4415V33.4976C8.3125 32.9812 7.89128 32.5601 7.375 32.5601Z" fill="#FD4755"/>
<path fill-rule="evenodd" clip-rule="evenodd" d="M1.6875 43.7339H46.3125C46.8289 43.7339 47.25 44.155 47.25 44.6714V45.1227C47.25 45.6391 46.8289 46.0602 46.3125 46.0602H1.6875C1.17112 46.0602 0.75 45.6391 0.75 45.1227V44.6714C0.75 44.155 1.17112 43.7339 1.6875 43.7339Z" fill="#A79BA7"/>
<path fill-rule="evenodd" clip-rule="evenodd" d="M47.25 44.8975V45.1231C47.25 45.6395 46.8289 46.0606 46.3125 46.0606H1.6875C1.17112 46.0606 0.75 45.6395 0.75 45.1231V44.8975H47.25Z" fill="#837683"/>
<path d="M16.7547 20.2172C20.4158 16.5559 20.4157 10.62 16.7544 6.95891C13.0932 3.2978 7.1573 3.29791 3.4962 6.95914C-0.164903 10.6204 -0.1648 16.5563 3.49643 20.2174C7.15766 23.8785 13.0936 23.8784 16.7547 20.2172Z" fill="#2B8AFC"/>
<path fill-rule="evenodd" clip-rule="evenodd" d="M10.1273 4.21338C15.305 4.21338 19.5023 8.41066 19.5023 13.5884C19.5023 18.7661 15.305 22.9634 10.1273 22.9634C9.82603 22.9634 9.52828 22.9486 9.23438 22.9208C13.9931 22.4711 17.7165 18.4648 17.7165 13.5884C17.7165 8.71197 13.9932 4.70566 9.23438 4.25594C9.52828 4.22819 9.82603 4.21338 10.1273 4.21338Z" fill="#2B8AFC"/>
<path fill-rule="evenodd" clip-rule="evenodd" d="M8.93803 8.25224C9.92269 9.23615 9.92672 10.8313 8.94178 11.8169C7.95778 12.8016 6.36272 12.8055 5.37712 11.8207C4.39256 10.8367 4.38853 9.24159 5.37337 8.256C6.35728 7.27143 7.95253 7.26749 8.93803 8.25224ZM6.43397 9.31078C6.03497 9.70996 6.03169 10.3602 6.43191 10.7602C6.83119 11.1592 7.48134 11.1623 7.88128 10.7622C8.28028 10.3629 8.28356 9.71278 7.88334 9.31284C7.48406 8.91393 6.83381 8.91065 6.43397 9.31078ZM14.8731 15.356C15.8511 16.3332 15.8549 17.9419 14.8769 18.9206C13.893 19.9052 12.2977 19.9092 11.3122 18.9244C10.3276 17.9405 10.3237 16.3453 11.3084 15.3597C12.2923 14.3751 13.8876 14.3711 14.8731 15.356ZM13.8184 16.4165C13.4192 16.0176 12.7688 16.0143 12.369 16.4144C11.9701 16.8136 11.9668 17.4639 12.3669 17.8638C12.7661 18.2627 13.4165 18.266 13.8163 17.8658C14.2147 17.4672 14.2177 16.8157 13.8184 16.4165ZM7.43475 18.598C7.32362 18.7489 7.15746 18.8499 6.97232 18.8791C6.78719 18.9082 6.59804 18.8631 6.44594 18.7536C6.29383 18.6441 6.19106 18.4791 6.15993 18.2943C6.12879 18.1095 6.17182 17.9198 6.27966 17.7666L12.9233 8.51381C13.0345 8.3629 13.2006 8.26191 13.3858 8.23278C13.5709 8.20365 13.7601 8.24872 13.9122 8.3582C14.0643 8.46769 14.167 8.63276 14.1982 8.81756C14.2293 9.00237 14.1863 9.192 14.0784 9.34528L7.43475 18.598Z" fill="white"/>
</g>
<defs>
<clipPath id="clip0_3967_147298">
<rect width="48" height="48" fill="white" transform="translate(0 0.5)"/>
</clipPath>
</defs>
</svg>
