<svg width="48" height="49" viewBox="0 0 48 49" fill="none" xmlns="http://www.w3.org/2000/svg">
<path d="M40.0935 13.1L29.25 6.5V2H23.25V6.5C22.1063 7.18632 21.1599 8.15707 20.5027 9.31774C19.8455 10.4784 19.5001 11.7895 19.5 13.1232V44C19.5 44.7957 19.8161 45.5587 20.3787 46.1213C20.9413 46.6839 21.7044 47 22.5 47H43.5C44.2956 47 45.0587 46.6839 45.6213 46.1213C46.1839 45.5587 46.5 44.7957 46.5 44V24.5C46.5003 22.2097 45.911 19.958 44.789 17.9614C43.667 15.9648 42.0499 14.2906 40.0935 13.1ZM43.5 29.75H40.5C40.0245 29.75 39.5536 29.6564 39.1143 29.4744C38.6749 29.2925 38.2758 29.0257 37.9395 28.6895L33.3105 24.0605C32.9743 23.7242 32.7075 23.3251 32.5256 22.8857C32.3436 22.4464 32.25 21.9755 32.25 21.5V16.325C32.2505 15.9088 32.3626 15.5004 32.5748 15.1424C32.7869 14.7844 33.0912 14.4899 33.456 14.2896C33.8208 14.0893 34.2327 13.9906 34.6486 14.0038C35.0646 14.0169 35.4694 14.1415 35.8208 14.3645L38.4382 16.0303C39.9892 17.0173 41.2662 18.3797 42.151 19.9913C43.0357 21.6028 43.4997 23.4115 43.5 25.25V29.75Z" fill="#A27EDC"/>
<path d="M22.5 13.25V32.75H46.5V24.5C46.5003 22.2097 45.911 19.958 44.789 17.9614C43.667 15.9648 42.0499 14.2906 40.0935 13.1L29.25 6.5V2H26.25V7.25C23.925 8.64575 22.5 10.5372 22.5 13.25ZM32.25 16.325C32.2505 15.9088 32.3626 15.5004 32.5748 15.1424C32.7869 14.7844 33.0912 14.4899 33.456 14.2896C33.8208 14.0893 34.2327 13.9906 34.6486 14.0038C35.0646 14.0169 35.4694 14.1415 35.8208 14.3645L38.4382 16.0303C39.9892 17.0173 41.2662 18.3797 42.151 19.9913C43.0357 21.6028 43.4997 23.4115 43.5 25.25V29.75H40.5C40.0245 29.75 39.5536 29.6564 39.1143 29.4744C38.6749 29.2925 38.2758 29.0257 37.9395 28.6895L33.3105 24.0605C32.9743 23.7242 32.7075 23.3251 32.5256 22.8857C32.3436 22.4464 32.25 21.9755 32.25 21.5V16.325Z" fill="#AD91E2"/>
<path d="M46.5 32.75H19.5V43.25H46.5V32.75Z" fill="#E5796E"/>
<path d="M46.5017 43.25H22.918C23.179 43.7049 23.5552 44.083 24.0088 44.3463C24.4624 44.6096 24.9773 44.7489 25.5017 44.75H46.396C46.4629 44.5055 46.4985 44.2535 46.5017 44V43.25Z" fill="#AD91E2"/>
<path d="M22.5 41.75C22.5027 42.2781 22.6464 42.796 22.9163 43.25H46.5V32.75H22.5V41.75Z" fill="#F99893"/>
<path d="M16.5 20.75H9V23.75H16.5V20.75Z" fill="#B1E0C2"/>
<path d="M10.5 20.75L8.25 15.5H3.75V12.5H13.5L19.5 17L15 18.5V20.75H10.5Z" fill="#F4CD60"/>
<path d="M4.5 15.5C4.5 16.4315 4.28313 17.3501 3.86656 18.1833C3.45 19.0164 2.84518 19.7411 2.1 20.3L1.5 20.75H2.25C3.64239 20.75 4.97774 20.1969 5.96231 19.2123C6.94688 18.2277 7.5 16.8924 7.5 15.5H4.5ZM10.5 23.75V25.448C10.4999 25.6138 10.4537 25.7763 10.3665 25.9174C10.2794 26.0584 10.1547 26.1725 10.0065 26.2467C9.70401 26.3978 9.4496 26.6302 9.27182 26.9178C9.09404 27.2054 8.99991 27.5369 9 27.875C8.99991 28.2131 9.09404 28.5446 9.27182 28.8322C9.4496 29.1198 9.70401 29.3522 10.0065 29.5033C10.1547 29.5775 10.2794 29.6916 10.3665 29.8326C10.4537 29.9737 10.4999 30.1362 10.5 30.302C10.5001 30.5911 10.4253 30.8754 10.2828 31.127C10.1403 31.3786 9.93504 31.5889 9.687 31.7375L8.679 32.3428C8.09075 32.6959 7.60392 33.1953 7.26589 33.7924C6.92786 34.3895 6.75013 35.0639 6.75 35.75V47H19.5V34.6138C19.5 32.5962 19.1026 30.5983 18.3305 28.7343C17.5584 26.8703 16.4267 25.1766 15 23.75H10.5Z" fill="#66AE85"/>
<path d="M19.5 35.75H6.75V44H19.5V35.75Z" fill="#DDB44E"/>
<path d="M11.9704 23.75H16.5012V20.75H11.8984C12 21.7466 12.0241 22.7496 11.9704 23.75Z" fill="#92CCA9"/>
<path d="M11.8977 20.75H15.0005V18.5L19.5005 17L13.5005 12.5H9.57422L10.9055 16.2717C11.4124 17.7199 11.7455 19.2232 11.8977 20.75Z" fill="#F4D37D"/>
<path d="M11.5502 26.912C11.3594 27.7711 11.5055 28.6706 11.9583 29.4253C12.3855 30.1385 12.5397 30.9825 12.3921 31.8007C12.2446 32.619 11.8053 33.356 11.1557 33.875C10.5563 34.3566 10.12 35.0114 9.90625 35.75H19.5002V34.6138C19.5004 32.5961 19.103 30.5983 18.3309 28.7343C17.5588 26.8702 16.427 25.1766 15.0002 23.75H11.9695C11.9175 24.8138 11.7773 25.8714 11.5502 26.912Z" fill="#79BC94"/>
<path d="M9.75 36.8V41.15C9.75 41.9059 10.0503 42.6308 10.5847 43.1653C11.1192 43.6997 11.8441 44 12.6 44H19.5V35.75H9.906C9.80423 36.0908 9.7517 36.4444 9.75 36.8Z" fill="#F4CD60"/>
<path d="M14.25 41C16.7353 41 18.75 40.3284 18.75 39.5C18.75 38.6716 16.7353 38 14.25 38C11.7647 38 9.75 38.6716 9.75 39.5C9.75 40.3284 11.7647 41 14.25 41Z" fill="#FFE3A6"/>
<path d="M10.5938 12.5C10.95 13.5065 12.3488 14.5723 14.2043 15.1348C15.2371 15.471 16.3317 15.5735 17.409 15.4348L13.5008 12.5H10.5938Z" fill="#FFE3A6"/>
<path d="M16.4753 25.4937C16.1949 25.6805 15.9924 25.9634 15.9058 26.289C15.8192 26.6146 15.8545 26.9607 16.005 27.2622L16.992 29.2377C17.1607 29.5745 17.2485 29.9461 17.2485 30.3229C17.2487 30.9124 17.4641 31.4815 17.8542 31.9234C18.2443 32.3653 18.7824 32.6496 19.3673 32.7229C19.0413 30.1045 18.0452 27.6145 16.4753 25.4937Z" fill="#9DCEAA"/>
<path d="M26.25 20.75C27.9069 20.75 29.25 18.7353 29.25 16.25C29.25 13.7647 27.9069 11.75 26.25 11.75C24.5931 11.75 23.25 13.7647 23.25 16.25C23.25 18.7353 24.5931 20.75 26.25 20.75Z" fill="#EF9F5E"/>
<path d="M30.3651 9.86686C30.6179 10.1197 30.9195 10.3185 31.2516 10.4511L35.8956 12.3089C36.8943 12.7058 37.9972 12.7568 39.0283 12.4536L29.8566 6.87061C29.6212 7.36133 29.5437 7.91294 29.6348 8.44952C29.7258 8.9861 29.981 9.48126 30.3651 9.86686Z" fill="#CABDF2"/>
<path d="M29.25 2H23.25V6.5H29.25V2Z" fill="#66AE85"/>
<path d="M29.25 2H25.5V6.5H29.25V2Z" fill="#79BC94"/>
<path d="M27.375 20.4201C28.4105 20.4201 29.25 18.5531 29.25 16.2501C29.25 13.9471 28.4105 12.0801 27.375 12.0801C26.3395 12.0801 25.5 13.9471 25.5 16.2501C25.5 18.5531 26.3395 20.4201 27.375 20.4201Z" fill="#F7AF79"/>
<path d="M43.5 29.75H40.5C40.0245 29.75 39.5536 29.6564 39.1143 29.4744C38.6749 29.2925 38.2758 29.0258 37.9395 28.6895L33.3105 24.0605C32.9743 23.7243 32.7075 23.3251 32.5256 22.8857C32.3436 22.4464 32.25 21.9755 32.25 21.5V16.325C32.252 15.9773 32.3325 15.6345 32.4855 15.3223C31.9517 15.6847 31.5145 16.172 31.212 16.7419C30.9095 17.3119 30.7509 17.9471 30.75 18.5923V22.1098C30.75 22.6299 30.8525 23.1449 31.0515 23.6254C31.2506 24.1059 31.5424 24.5425 31.9103 24.9103L36.3263 29.3255C36.6983 29.6979 37.1401 29.9934 37.6265 30.1949C38.1128 30.3964 38.6341 30.5001 39.1605 30.5H44.25L43.5 29.375V29.75Z" fill="#A27EDC"/>
</svg>
