<svg width="48" height="49" viewBox="0 0 48 49" fill="none" xmlns="http://www.w3.org/2000/svg">
<mask id="mask0_8475_60085" style="mask-type:luminance" maskUnits="userSpaceOnUse" x="0" y="0" width="48" height="49">
<path d="M0 0.5H48V48.5H0V0.5Z" fill="white"/>
</mask>
<g mask="url(#mask0_8475_60085)">
<path d="M15.9488 11.2216C15.8085 11.3675 15.694 11.5362 15.6103 11.7205L15.6002 11.7104L1.43258 43.6241L1.44647 43.638C1.18373 44.147 1.62331 45.1828 2.52394 46.0847C3.42331 46.9841 4.4591 47.4237 4.96816 47.1609L4.98079 47.1736L36.897 33.0073L36.8869 32.9959C37.0738 32.9075 37.2431 32.8001 37.3858 32.6574C39.3589 30.6843 36.1593 24.2864 30.2402 18.3673C24.321 12.4468 17.9218 9.24852 15.9488 11.2216Z" fill="#DD2E44"/>
<path d="M17.6844 16.9207L1.78879 42.823L1.43258 43.6251L1.44647 43.6378C1.18373 44.1481 1.62331 45.1826 2.52394 46.0845C2.79478 46.3523 3.09525 46.5883 3.41952 46.7881L22.737 23.2365L17.6844 16.9207Z" fill="#EA596E"/>
<path d="M30.3307 18.2675C36.2297 24.169 39.5051 30.4595 37.6432 32.3201C35.7825 34.1807 29.492 30.9066 23.5893 25.0077C17.6891 19.1062 14.4149 12.8144 16.2756 10.9525C18.1375 9.09191 24.428 12.3673 30.3307 18.2675Z" fill="#A0041E"/>
<path d="M24.7455 18.955C24.6167 19.0595 24.4684 19.1373 24.3092 19.184C24.15 19.2306 23.9831 19.2451 23.8183 19.2266C22.7219 19.1079 21.7998 18.7264 21.1543 18.1239C20.4709 17.486 20.1337 16.6308 20.2259 15.7719C20.3876 14.2662 21.8983 12.8843 24.4739 13.1634C25.4756 13.2708 25.9227 12.9487 25.9366 12.7946C25.9543 12.6417 25.5867 12.2312 24.5863 12.1226C23.4886 12.0039 22.5678 11.6224 21.921 11.0199C21.2377 10.382 20.8992 9.52553 20.9926 8.66785C21.1568 7.16217 22.6663 5.78027 25.2394 6.05943C25.9695 6.13775 26.3535 5.98617 26.5164 5.8889C26.6478 5.80932 26.6996 5.73353 26.7046 5.69059C26.7185 5.53774 26.356 5.12722 25.3518 5.01859C25.0239 4.97641 24.7256 4.80737 24.5209 4.54775C24.3163 4.28812 24.2216 3.95861 24.2571 3.62993C24.2926 3.30126 24.4556 2.99961 24.7111 2.78975C24.9665 2.57989 25.294 2.47853 25.6234 2.50743C28.1964 2.78406 29.3787 4.45522 29.2158 5.96217C29.0528 7.46785 27.5434 8.84848 24.9678 8.57059C24.2377 8.49101 23.8549 8.64259 23.692 8.73985C23.5619 8.81943 23.5088 8.89648 23.5038 8.93817C23.4874 9.09227 23.8524 9.5028 24.8566 9.61143C27.4297 9.88806 28.612 11.5592 28.449 13.0662C28.2861 14.5719 26.7754 15.9537 24.2023 15.6746C23.4722 15.5963 23.0882 15.7466 22.924 15.8439C22.7939 15.9234 22.7434 16.0005 22.7383 16.0434C22.7219 16.1963 23.0869 16.6068 24.0899 16.7154C24.3388 16.7413 24.5744 16.8407 24.7667 17.0009C24.9589 17.1611 25.0992 17.375 25.1695 17.6152C25.2398 17.8553 25.237 18.111 25.1615 18.3496C25.086 18.5883 24.9412 18.799 24.7455 18.955Z" fill="#AA8DD8"/>
<path d="M39.9928 30.635C42.485 29.9314 44.2042 31.043 44.6134 32.502C45.0227 33.9596 44.136 35.8051 41.6463 36.5049C40.6736 36.7777 40.3818 37.2426 40.421 37.3916C40.464 37.5407 40.9578 37.7857 41.928 37.5104C44.4189 36.8106 46.1381 37.9222 46.5473 39.3798C46.9604 40.8388 46.0711 42.6817 43.5789 43.3841C42.6075 43.6569 42.3145 44.123 42.3574 44.2708C42.3991 44.4186 42.8917 44.6624 43.8631 44.3908C44.0243 44.341 44.1938 44.3239 44.3616 44.3407C44.5295 44.3574 44.6923 44.4076 44.8404 44.4883C44.9885 44.569 45.119 44.6785 45.2241 44.8105C45.3292 44.9424 45.4069 45.094 45.4524 45.2564C45.498 45.4188 45.5105 45.5887 45.4894 45.7561C45.4682 45.9234 45.4137 46.0848 45.3292 46.2308C45.2446 46.3768 45.1317 46.5043 44.9971 46.6059C44.8624 46.7075 44.7088 46.7811 44.5452 46.8224C42.0568 47.5234 40.3351 46.4144 39.9233 44.9542C39.5141 43.4965 40.4021 41.6535 42.8955 40.9512C43.8669 40.6771 44.16 40.2135 44.117 40.0645C44.0753 39.9167 43.584 39.6704 42.6126 39.9432C40.1204 40.6455 38.4012 39.5365 37.9907 38.0763C37.5802 36.6173 38.4682 34.7744 40.9616 34.0721C41.9305 33.8005 42.2235 33.3331 42.1818 33.1866C42.1389 33.0363 41.6488 32.7912 40.6762 33.0653C40.5145 33.1174 40.344 33.1362 40.1748 33.1209C40.0057 33.1055 39.8414 33.0562 39.6918 32.9758C39.5421 32.8955 39.4102 32.7858 39.3039 32.6533C39.1977 32.5209 39.1192 32.3683 39.0732 32.2048C39.0272 32.0413 39.0147 31.8702 39.0364 31.7018C39.058 31.5333 39.1134 31.371 39.1993 31.2244C39.2851 31.0779 39.3997 30.9502 39.536 30.8489C39.6723 30.7476 39.8277 30.6749 39.9928 30.635Z" fill="#77B255"/>
<path d="M30.3174 27.2285C30.0558 27.2282 29.8008 27.1467 29.5874 26.9953C29.3741 26.844 29.213 26.6302 29.1262 26.3834C29.0395 26.1366 29.0314 25.869 29.1031 25.6174C29.1748 25.3659 29.3228 25.1428 29.5266 24.9788C29.802 24.7578 36.3704 19.599 45.6534 20.9266C45.8175 20.95 45.9755 21.0055 46.1182 21.09C46.2609 21.1745 46.3856 21.2862 46.4851 21.4189C46.5845 21.5516 46.6569 21.7026 46.698 21.8632C46.7391 22.0239 46.7481 22.1911 46.7245 22.3553C46.7018 22.5198 46.6466 22.6783 46.5623 22.8214C46.4779 22.9645 46.366 23.0895 46.2331 23.1891C46.1001 23.2888 45.9487 23.361 45.7876 23.4017C45.6265 23.4425 45.459 23.4508 45.2946 23.4264C37.093 22.2618 31.1637 26.9051 31.1056 26.9519C30.8821 27.1314 30.604 27.229 30.3174 27.2285Z" fill="#AA8DD8"/>
<path d="M8.53223 21.9736C8.3352 21.9737 8.14088 21.9277 7.96481 21.8393C7.78875 21.7508 7.63581 21.6224 7.51822 21.4643C7.40063 21.3062 7.32166 21.1228 7.28761 20.9288C7.25356 20.7347 7.26538 20.5354 7.32212 20.3467C8.75328 15.5808 10.0505 7.97532 8.45644 5.99342C8.27707 5.76858 8.00928 5.54753 7.39286 5.59426C6.20675 5.68395 6.32044 8.185 6.3217 8.21027C6.33774 8.37761 6.32022 8.54647 6.27016 8.70696C6.2201 8.86744 6.13851 9.01632 6.03017 9.14487C5.92183 9.27341 5.78891 9.37904 5.63922 9.45555C5.48953 9.53207 5.32608 9.57793 5.15843 9.59046C4.99079 9.60299 4.82233 9.58193 4.66293 9.52851C4.50353 9.47509 4.3564 9.39039 4.23016 9.27937C4.10391 9.16836 4.0011 9.03326 3.92775 8.88199C3.85439 8.73073 3.81197 8.56635 3.80296 8.39848C3.67159 6.65658 4.21475 3.30163 7.20212 3.07553C8.53602 2.97448 9.6438 3.43806 10.427 4.41069C13.4219 8.13826 10.3815 18.9458 9.74107 21.0743C9.66291 21.3341 9.50314 21.5619 9.28542 21.7239C9.0677 21.8859 8.8036 21.9735 8.53223 21.9736Z" fill="#77B255"/>
<path d="M35.3689 13.7635C35.3688 14.0124 35.3197 14.2588 35.2243 14.4887C35.129 14.7187 34.9893 14.9276 34.8133 15.1035C34.6372 15.2795 34.4282 15.419 34.1982 15.5142C33.9682 15.6093 33.7218 15.6583 33.4729 15.6582C33.224 15.6581 32.9775 15.609 32.7476 15.5137C32.5177 15.4184 32.3088 15.2787 32.1328 15.1026C31.9569 14.9266 31.8173 14.7176 31.7222 14.4876C31.627 14.2576 31.578 14.0111 31.5781 13.7622C31.5783 13.2595 31.7781 12.7775 32.1337 12.4222C32.4893 12.0668 32.9714 11.8673 33.4741 11.8675C33.9768 11.8676 34.4588 12.0675 34.8142 12.4231C35.1695 12.7786 35.369 13.2608 35.3689 13.7635Z" fill="#5C913B"/>
<path d="M6.31561 24.5001C6.31553 24.8319 6.25009 25.1605 6.12302 25.467C5.99595 25.7736 5.80975 26.0521 5.57504 26.2867C5.34033 26.5213 5.06172 26.7073 4.7551 26.8343C4.44849 26.9612 4.11988 27.0265 3.78803 27.0264C3.45619 27.0263 3.12761 26.9608 2.82106 26.8338C2.51451 26.7067 2.23599 26.5205 2.0014 26.2858C1.76681 26.0511 1.58074 25.7725 1.45383 25.4659C1.32692 25.1592 1.26164 24.8306 1.26172 24.4988C1.26189 23.8286 1.52828 23.1859 2.00229 22.7122C2.4763 22.2384 3.11911 21.9723 3.7893 21.9725C4.45949 21.9726 5.10216 22.239 5.57593 22.713C6.04971 23.1871 6.31578 23.8299 6.31561 24.5001Z" fill="#9266CC"/>
<path d="M44.2087 26.3943C44.2086 26.6432 44.1595 26.8897 44.0642 27.1196C43.9689 27.3495 43.8292 27.5584 43.6531 27.7344C43.4771 27.9103 43.2681 28.0499 43.0381 28.145C42.8081 28.2402 42.5616 28.2891 42.3127 28.2891C42.0638 28.289 41.8174 28.2399 41.5874 28.1445C41.3575 28.0492 41.1486 27.9095 40.9727 27.7335C40.7967 27.5574 40.6572 27.3484 40.562 27.1184C40.4668 26.8884 40.4179 26.642 40.418 26.3931C40.4181 25.8904 40.618 25.4084 40.9736 25.053C41.3291 24.6977 41.8113 24.4982 42.314 24.4983C42.8167 24.4985 43.2987 24.6983 43.654 25.0539C44.0093 25.4095 44.2089 25.8916 44.2087 26.3943Z" fill="#5C913B"/>
<path d="M32.8415 41.5525C32.8414 41.8014 32.7923 42.0479 32.697 42.2778C32.6017 42.5077 32.462 42.7166 32.2859 42.8926C32.1099 43.0685 31.9009 43.2081 31.6709 43.3032C31.4409 43.3984 31.1944 43.4473 30.9455 43.4473C30.6966 43.4472 30.4502 43.3981 30.2202 43.3027C29.9903 43.2074 29.7814 43.0677 29.6055 42.8917C29.4295 42.7156 29.29 42.5066 29.1948 42.2766C29.0996 42.0467 29.0507 41.8002 29.0508 41.5513C29.0509 41.0486 29.2508 40.5666 29.6064 40.2112C29.9619 39.8559 30.4441 39.6564 30.9468 39.6565C31.4495 39.6567 31.9315 39.8565 32.2868 40.2121C32.6422 40.5677 32.8417 41.0498 32.8415 41.5525Z" fill="#5C913B"/>
<path d="M39.1594 6.81548C39.1593 7.14732 39.0938 7.4759 38.9668 7.78245C38.8397 8.08901 38.6535 8.36753 38.4188 8.60212C38.1841 8.83671 37.9055 9.02277 37.5989 9.14969C37.2922 9.2766 36.9636 9.34188 36.6318 9.3418C36.2999 9.34171 35.9714 9.27627 35.6648 9.1492C35.3583 9.02214 35.0797 8.83593 34.8451 8.60122C34.6106 8.36652 34.4245 8.0879 34.2976 7.78129C34.1707 7.47467 34.1054 7.14606 34.1055 6.81422C34.1056 6.14403 34.372 5.50136 34.846 5.02758C35.3201 4.55381 35.9629 4.28773 36.633 4.2879C37.3032 4.28807 37.9459 4.55446 38.4197 5.02847C38.8935 5.50249 39.1595 6.14529 39.1594 6.81548Z" fill="#FFCC4D"/>
<path d="M44.2087 12.4998C44.2086 12.7487 44.1595 12.9951 44.0642 13.2251C43.9689 13.455 43.8292 13.6639 43.6531 13.8398C43.4771 14.0158 43.2681 14.1553 43.0381 14.2505C42.8081 14.3457 42.5616 14.3946 42.3127 14.3945C42.0638 14.3944 41.8174 14.3453 41.5874 14.25C41.3575 14.1547 41.1486 14.015 40.9727 13.8389C40.7967 13.6629 40.6572 13.4539 40.562 13.2239C40.4668 12.9939 40.4179 12.7474 40.418 12.4985C40.4181 11.9958 40.618 11.5138 40.9736 11.1585C41.3291 10.8032 41.8113 10.6036 42.314 10.6038C42.8167 10.604 43.2987 10.8038 43.654 11.1594C44.0093 11.515 44.2089 11.9971 44.2087 12.4998Z" fill="#FFCC4D"/>
<path d="M40.4196 17.5525C40.4196 17.8014 40.3705 18.0479 40.2751 18.2778C40.1798 18.5077 40.0401 18.7166 39.8641 18.8926C39.688 19.0685 39.479 19.2081 39.249 19.3032C39.019 19.3984 38.7725 19.4473 38.5236 19.4473C38.2747 19.4472 38.0283 19.3981 37.7984 19.3027C37.5684 19.2074 37.3595 19.0677 37.1836 18.8917C37.0077 18.7156 36.8681 18.5066 36.7729 18.2766C36.6778 18.0467 36.6288 17.8002 36.6289 17.5513C36.6291 17.0486 36.8289 16.5666 37.1845 16.2112C37.5401 15.8559 38.0222 15.6564 38.5249 15.6565C39.0276 15.6567 39.5096 15.8565 39.8649 16.2121C40.2203 16.5677 40.4198 17.0498 40.4196 17.5525Z" fill="#FFCC4D"/>
<path d="M12.6306 31.4471C12.6305 31.696 12.5814 31.9424 12.4861 32.1723C12.3907 32.4023 12.2511 32.6112 12.075 32.7871C11.8989 32.963 11.6899 33.1026 11.46 33.1978C11.23 33.2929 10.9835 33.3419 10.7346 33.3418C10.4857 33.3417 10.2392 33.2926 10.0093 33.1973C9.77938 33.102 9.57048 32.9623 9.39454 32.7862C9.2186 32.6101 9.07905 32.4012 8.98388 32.1712C8.8887 31.9412 8.83976 31.6947 8.83984 31.4458C8.84001 30.9431 9.03986 30.4611 9.39543 30.1058C9.751 29.7504 10.2332 29.5509 10.7358 29.5511C11.2385 29.5512 11.7206 29.7511 12.0759 30.1066C12.4312 30.4622 12.6307 30.9444 12.6306 31.4471Z" fill="#FFCC4D"/>
</g>
</svg>
