<svg width="54" height="53" viewBox="0 0 54 53" fill="none" xmlns="http://www.w3.org/2000/svg">
<path d="M44.865 23.3503C44.8028 22.9939 44.69 22.6483 44.5299 22.3238C44.1902 21.6345 43.6512 21.0631 42.9827 20.6838C43.1795 20.155 43.257 19.5892 43.2098 19.0269C43.1626 18.4646 42.9919 17.9197 42.7098 17.431C42.4277 16.9423 42.0412 16.522 41.5778 16.1999C41.1145 15.8779 40.5858 15.6621 40.0295 15.568C40.0334 15.0038 39.9128 14.4457 39.6761 13.9336C39.4394 13.4214 39.0926 12.9679 38.6604 12.6053C38.2282 12.2426 37.7213 11.9799 37.1758 11.8359C36.6303 11.6918 36.0597 11.67 35.5048 11.7719C35.3157 11.2404 35.0115 10.7571 34.614 10.3567C34.2165 9.95622 33.7355 9.64851 33.2053 9.45549C32.6751 9.26247 32.1088 9.18892 31.5469 9.24007C30.985 9.29123 30.4413 9.46583 29.9546 9.75142C29.5951 9.31659 29.1439 8.96652 28.6334 8.72622C28.1229 8.48593 27.5656 8.36133 27.0013 8.36133C26.4371 8.36133 25.8798 8.48593 25.3693 8.72622C24.8588 8.96652 24.4076 9.31659 24.048 9.75142C23.5614 9.46583 23.0177 9.29123 22.4558 9.24007C21.8939 9.18892 21.3276 9.26247 20.7974 9.45549C20.2672 9.64851 19.7862 9.95622 19.3887 10.3567C18.9912 10.7571 18.687 11.2404 18.4979 11.7719C17.943 11.67 17.3724 11.6918 16.8269 11.8359C16.2814 11.9799 15.7745 12.2426 15.3423 12.6053C14.9101 12.9679 14.5633 13.4214 14.3266 13.9336C14.0899 14.4457 13.9693 15.0038 13.9732 15.568C13.4169 15.6621 12.8882 15.8779 12.4248 16.1999C11.9615 16.522 11.575 16.9423 11.2929 17.431C11.0108 17.9197 10.8401 18.4646 10.7929 19.0269C10.7457 19.5892 10.8232 20.155 11.0199 20.6838C10.3515 21.0631 9.81251 21.6345 9.47276 22.3238C9.1429 22.995 9.01653 23.748 9.10921 24.4901C9.20189 25.2321 9.50957 25.9309 9.99437 26.5004C9.62828 26.9296 9.3615 27.4344 9.21308 27.9787C9.06467 28.5229 9.03828 29.0933 9.13581 29.6489C9.23334 30.2046 9.45238 30.7319 9.77728 31.1931C10.1022 31.6543 10.5249 32.038 11.0153 32.3169C10.8808 32.6845 10.8026 33.0703 10.7833 33.4613C10.7367 34.399 11.0357 35.3212 11.6236 36.0532C12.2116 36.7851 13.0476 37.276 13.9732 37.4328C13.9693 37.9969 14.0899 38.555 14.3266 39.0671C14.5633 39.5793 14.9101 40.0329 15.3423 40.3955C15.7745 40.7581 16.2814 41.0208 16.8269 41.1649C17.3724 41.3089 17.943 41.3307 18.4979 41.2288C18.687 41.7604 18.9912 42.2436 19.3887 42.6441C19.7862 43.0445 20.2672 43.3522 20.7974 43.5452C21.3276 43.7383 21.8939 43.8118 22.4558 43.7607C23.0177 43.7095 23.5614 43.5349 24.048 43.2493C24.4076 43.6841 24.8588 44.0342 25.3693 44.2745C25.8798 44.5148 26.4371 44.6394 27.0013 44.6394C27.5656 44.6394 28.1229 44.5148 28.6334 44.2745C29.1439 44.0342 29.5951 43.6841 29.9546 43.2493C30.4413 43.5349 30.985 43.7095 31.5469 43.7607C32.1088 43.8118 32.6751 43.7383 33.2053 43.5452C33.7355 43.3522 34.2165 43.0445 34.614 42.6441C35.0115 42.2436 35.3157 41.7604 35.5048 41.2288C36.0597 41.3307 36.6303 41.3089 37.1758 41.1649C37.7213 41.0208 38.2282 40.7581 38.6604 40.3955C39.0926 40.0329 39.4394 39.5793 39.6761 39.0671C39.9128 38.555 40.0334 37.9969 40.0295 37.4328C40.9551 37.276 41.7911 36.7851 42.3791 36.0532C42.967 35.3212 43.266 34.399 43.2194 33.4613C43.1987 33.0701 43.1189 32.6843 42.9827 32.3169C43.4735 32.0384 43.8967 31.655 44.222 31.194C44.5474 30.733 44.7669 30.2058 44.8649 29.6501C44.9628 29.0944 44.9369 28.5239 44.7888 27.9794C44.6407 27.435 44.3742 26.9299 44.0083 26.5004C44.3747 26.071 44.6415 25.5659 44.7896 25.0213C44.9377 24.4767 44.9635 23.9061 44.865 23.3503Z" fill="#2B8AFC"/>
<path d="M37.4002 33.4613C38.4834 31.8416 39.174 29.9915 39.417 28.0581C39.6599 26.1246 39.4486 24.1612 38.7998 22.3238H44.5356C44.1958 21.6345 43.6568 21.0631 42.9884 20.6838C43.1851 20.155 43.2627 19.5892 43.2155 19.0269C43.1683 18.4646 42.9976 17.9197 42.7155 17.431C42.4333 16.9423 42.0468 16.522 41.5835 16.1999C41.1202 15.8779 40.5915 15.6621 40.0351 15.568C40.0391 15.0038 39.9184 14.4457 39.6818 13.9336C39.4451 13.4214 39.0983 12.9679 38.6661 12.6053C38.2339 12.2426 37.7269 11.9799 37.1814 11.8359C36.636 11.6918 36.0654 11.67 35.5105 11.7719C35.3214 11.2404 35.0172 10.7571 34.6197 10.3567C34.2221 9.95622 33.7411 9.64851 33.2109 9.45549C32.6807 9.26247 32.1144 9.18892 31.5525 9.24007C30.9906 9.29123 30.4469 9.46583 29.9603 9.75142C29.6007 9.31659 29.1496 8.96652 28.6391 8.72622C28.1285 8.48593 27.5713 8.36133 27.007 8.36133C26.4428 8.36133 25.8855 8.48593 25.375 8.72622C24.8644 8.96652 24.4133 9.31659 24.0537 9.75142C23.5671 9.46583 23.0234 9.29123 22.4615 9.24007C21.8996 9.18892 21.3333 9.26247 20.8031 9.45549C20.2729 9.64851 19.7919 9.95622 19.3944 10.3567C18.9968 10.7571 18.6926 11.2404 18.5035 11.7719C17.9486 11.67 17.3781 11.6918 16.8326 11.8359C16.2871 11.9799 15.7802 12.2426 15.3479 12.6053C14.9157 12.9679 14.5689 13.4214 14.3323 13.9336C14.0956 14.4457 13.9749 15.0038 13.9789 15.568C13.4225 15.6621 12.8938 15.8779 12.4305 16.1999C11.9672 16.522 11.5807 16.9423 11.2986 17.431C11.0165 17.9197 10.8457 18.4646 10.7985 19.0269C10.7514 19.5892 10.8289 20.155 11.0256 20.6838C10.3565 21.0628 9.81681 21.6342 9.47656 22.3238H15.2124C14.5633 24.1611 14.3517 26.1244 14.5943 28.0578C14.8369 29.9912 15.5272 31.8414 16.6101 33.4613H10.7871C10.7405 34.399 11.0395 35.3212 11.6274 36.0532C12.2154 36.7851 13.0514 37.276 13.977 37.4328C13.9731 37.9969 14.0937 38.555 14.3304 39.0671C14.5671 39.5793 14.9139 40.0329 15.3461 40.3955C15.7783 40.7581 16.2852 41.0208 16.8307 41.1649C17.3762 41.3089 17.9468 41.3307 18.5017 41.2288C18.6908 41.7604 18.995 42.2436 19.3925 42.6441C19.79 43.0445 20.271 43.3522 20.8012 43.5452C21.3314 43.7383 21.8977 43.8118 22.4596 43.7607C23.0215 43.7095 23.5652 43.5349 24.0519 43.2493C24.4114 43.6841 24.8626 44.0342 25.3731 44.2745C25.8836 44.5148 26.4409 44.6394 27.0052 44.6394C27.5694 44.6394 28.1267 44.5148 28.6372 44.2745C29.1477 44.0342 29.5989 43.6841 29.9584 43.2493C30.4451 43.5349 30.9888 43.7095 31.5507 43.7607C32.1126 43.8118 32.6789 43.7383 33.2091 43.5452C33.7393 43.3522 34.2203 43.0445 34.6178 42.6441C35.0153 42.2436 35.3195 41.7604 35.5086 41.2288C36.0635 41.3307 36.6341 41.3089 37.1796 41.1649C37.7251 41.0208 38.232 40.7581 38.6642 40.3955C39.0964 40.0329 39.4432 39.5793 39.6799 39.0671C39.9166 38.555 40.0372 37.9969 40.0333 37.4328C40.9589 37.276 41.7949 36.7851 42.3829 36.0532C42.9708 35.3212 43.2698 34.399 43.2232 33.4613H37.4002Z" fill="#2B8AFC"/>
<path d="M39.5121 26.4997C39.5093 29.6298 38.3319 32.645 36.2127 34.9487C34.0935 37.2524 31.187 38.6769 28.0679 38.9404C24.9488 39.2039 21.8445 38.2873 19.3688 36.3718C16.8931 34.4563 15.2265 31.6814 14.6986 28.5961C14.1707 25.5108 14.8199 22.3397 16.5178 19.71C18.2157 17.0804 20.8387 15.1837 23.8679 14.3952C26.8972 13.6067 30.112 13.9837 32.8766 15.4518C35.6412 16.9198 37.7541 19.3719 38.7975 22.3231C39.2726 23.6642 39.5144 25.0769 39.5121 26.4997Z" fill="#F9C630"/>
<path d="M44.0115 26.5008C44.3774 26.9303 44.6439 27.4354 44.792 27.9799C44.94 28.5243 44.966 29.0948 44.868 29.6505C44.77 30.2062 44.5505 30.7334 44.2252 31.1944C43.8998 31.6554 43.4767 32.0388 42.9859 32.3173C43.122 32.6847 43.2018 33.0705 43.2226 33.4617L39.5101 32.0695L37.3995 33.4617H16.6095L14.2892 32.0695L10.7864 33.4617C10.8072 33.0705 10.887 32.6847 11.0231 32.3173C10.5327 32.0384 10.11 31.6547 9.78509 31.1935C9.46019 30.7323 9.24116 30.205 9.14363 29.6494C9.0461 29.0937 9.07248 28.5234 9.22089 27.9791C9.36931 27.4348 9.63609 26.93 10.0022 26.5008C9.51738 25.9313 9.2097 25.2326 9.11702 24.4905C9.02434 23.7484 9.15071 22.9954 9.48057 22.3242H44.5331C44.863 22.9954 44.9893 23.7484 44.8967 24.4905C44.804 25.2326 44.4963 25.9313 44.0115 26.5008Z" fill="#F9C630"/>
<path d="M44.0115 26.5008C44.3774 26.9303 44.6439 27.4354 44.792 27.9799C44.94 28.5243 44.966 29.0948 44.868 29.6505C44.77 30.2062 44.5505 30.7334 44.2252 31.1944C43.8998 31.6554 43.4767 32.0388 42.9859 32.3173C43.122 32.6847 43.2018 33.0705 43.2226 33.4617H37.3995C38.4828 31.842 39.1734 29.9919 39.4163 28.0585C39.6593 26.1251 39.448 24.1616 38.7991 22.3242H44.535C44.8648 22.9954 44.9912 23.7484 44.8985 24.4905C44.8058 25.2326 44.4982 25.9313 44.0134 26.5008H44.0115ZM10.7864 33.4617C10.8072 33.0705 10.887 32.6847 11.0231 32.3173C10.5327 32.0384 10.11 31.6547 9.78509 31.1935C9.46019 30.7323 9.24116 30.205 9.14363 29.6494C9.0461 29.0937 9.07248 28.5234 9.22089 27.9791C9.36931 27.4348 9.63609 26.93 10.0022 26.5008C9.51738 25.9313 9.2097 25.2326 9.11702 24.4905C9.02434 23.7484 9.15071 22.9954 9.48057 22.3242H15.2164C14.5666 24.1611 14.3542 26.1243 14.5961 28.0577C14.8379 29.9911 15.5273 31.8414 16.6095 33.4617H10.7864Z" fill="#1067AE"/>
<path d="M39.5092 26.5008C39.5139 28.9797 38.7783 31.4035 37.3968 33.4617H16.6068C15.5235 31.842 14.8329 29.9919 14.59 28.0585C14.347 26.1251 14.5583 24.1616 15.2072 22.3242H38.7945C39.2692 23.6655 39.511 25.078 39.5092 26.5008Z" fill="#F9C630"/>
<path d="M50.0654 32.0691H3.9375L5.32969 26.4809L3.9375 20.9316H50.0654L48.6732 26.4809L50.0654 32.0691Z" fill="#2B8AFC"/>
<path d="M8.20782 25.8043C8.07014 25.8043 7.93556 25.8451 7.82109 25.9216C7.70662 25.9981 7.6174 26.1068 7.56471 26.234C7.51202 26.3612 7.49824 26.5011 7.5251 26.6362C7.55196 26.7712 7.61825 26.8952 7.7156 26.9926C7.81296 27.0899 7.93699 27.1562 8.07202 27.1831C8.20705 27.2099 8.34701 27.1961 8.4742 27.1435C8.6014 27.0908 8.71011 27.0016 8.7866 26.8871C8.86309 26.7726 8.90391 26.638 8.90391 26.5004C8.90391 26.3157 8.83057 26.1387 8.70003 26.0081C8.56949 25.8776 8.39243 25.8043 8.20782 25.8043ZM45.7969 25.8043C45.6593 25.8043 45.5247 25.8451 45.4102 25.9216C45.2957 25.9981 45.2065 26.1068 45.1538 26.234C45.1011 26.3612 45.0873 26.5011 45.1142 26.6362C45.1411 26.7712 45.2074 26.8952 45.3047 26.9926C45.4021 27.0899 45.5261 27.1562 45.6611 27.1831C45.7962 27.2099 45.9361 27.1961 46.0633 27.1435C46.1905 27.0908 46.2992 27.0016 46.3757 26.8871C46.4522 26.7726 46.493 26.638 46.493 26.5004C46.493 26.3157 46.4197 26.1387 46.2891 26.0081C46.1586 25.8776 45.9815 25.8043 45.7969 25.8043ZM43.2446 24.064H40.2569C40.0286 24.064 39.9312 24.3146 39.9312 24.5439C39.9312 24.8084 40.049 25.0386 40.2569 25.0386H41.212V28.8207C41.212 29.0434 41.4821 29.1548 41.7522 29.1548C42.0222 29.1548 42.2923 29.0434 42.2923 28.8207V25.0386H43.2446C43.4525 25.0386 43.5694 24.8084 43.5694 24.5439C43.5731 24.3146 43.4766 24.064 43.2446 24.064ZM50.7383 31.9011L49.3916 26.4818L50.7411 21.0987C50.7669 20.996 50.769 20.8888 50.7471 20.7853C50.7253 20.6817 50.6801 20.5845 50.6151 20.501C50.55 20.4175 50.4668 20.3499 50.3717 20.3034C50.2766 20.257 50.1721 20.2328 50.0663 20.2327H43.8321C44.0537 19.1276 43.8551 17.9796 43.2751 17.0132C42.6951 16.0468 41.7754 15.3316 40.6959 15.0074C40.5605 13.8617 39.993 12.8108 39.1092 12.0692C38.2255 11.3275 37.0921 10.951 35.9402 11.0164C35.4215 9.98586 34.529 9.19218 33.4448 8.7975C32.3607 8.40283 31.1668 8.43695 30.107 8.8929C29.2668 8.10172 28.1564 7.66113 27.0024 7.66113C25.8484 7.66113 24.7379 8.10172 23.8978 8.8929C22.8375 8.43746 21.6433 8.404 20.5592 8.79936C19.475 9.19472 18.5827 9.98907 18.0645 11.0202C16.9126 10.9543 15.7789 11.3306 14.8951 12.0724C14.0112 12.8141 13.4438 13.8652 13.3088 15.0111C12.2297 15.3358 11.3104 16.0512 10.7305 17.0174C10.1506 17.9837 9.95166 19.1314 10.1727 20.2364H3.93844C3.83259 20.2365 3.72815 20.2607 3.63306 20.3072C3.53796 20.3536 3.45472 20.4212 3.38966 20.5047C3.3246 20.5882 3.27944 20.6854 3.25762 20.789C3.23579 20.8925 3.23786 20.9997 3.26369 21.1024L4.61319 26.4855L3.26276 31.9011C3.23725 32.0037 3.23544 32.1108 3.25747 32.2142C3.27951 32.3176 3.32481 32.4146 3.38993 32.4979C3.45506 32.5812 3.5383 32.6485 3.63333 32.6948C3.72837 32.7412 3.83271 32.7652 3.93844 32.7652H10.1727C9.95101 33.8703 10.1496 35.0183 10.7296 35.9847C11.3096 36.9511 12.2293 37.6664 13.3088 37.9905C13.4443 39.1363 14.0118 40.1871 14.8955 40.9288C15.7793 41.6704 16.9127 42.0469 18.0645 41.9815C18.5832 43.0121 19.4758 43.8057 20.5599 44.2004C21.644 44.5951 22.838 44.561 23.8978 44.105C24.7379 44.8962 25.8484 45.3368 27.0024 45.3368C28.1564 45.3368 29.2668 44.8962 30.107 44.105C31.1668 44.5607 32.3606 44.5947 33.4447 44.2001C34.5288 43.8054 35.4214 43.0119 35.9402 41.9815C37.0922 42.0473 38.2258 41.671 39.1097 40.9293C39.9935 40.1876 40.5609 39.1364 40.6959 37.9905C41.7751 37.6658 42.6944 36.9505 43.2743 35.9842C43.8542 35.018 44.0531 33.8702 43.8321 32.7652H50.0663C50.172 32.7652 50.2764 32.7412 50.3714 32.6948C50.4664 32.6485 50.5497 32.5812 50.6148 32.4979C50.6799 32.4146 50.7252 32.3176 50.7473 32.2142C50.7693 32.1108 50.7675 32.0037 50.742 31.9011H50.7383ZM11.8971 17.776C12.1277 17.3757 12.444 17.0314 12.8234 16.7678C13.2027 16.5041 13.6357 16.3277 14.0912 16.2511C14.254 16.2235 14.4017 16.1389 14.5078 16.0124C14.614 15.8858 14.6716 15.7257 14.6704 15.5605C14.6674 15.0993 14.7663 14.6431 14.96 14.2244C15.1537 13.8058 15.4373 13.435 15.7908 13.1386C16.1442 12.8421 16.5587 12.6274 17.0046 12.5095C17.4506 12.3917 17.9171 12.3737 18.3708 12.4569C18.5332 12.4863 18.7009 12.4571 18.8438 12.3745C18.9868 12.2919 19.0957 12.1613 19.1514 12.0058C19.306 11.5702 19.555 11.1742 19.8806 10.846C20.2061 10.5179 20.6002 10.2657 21.0345 10.1076C21.4689 9.94949 21.9328 9.88932 22.3932 9.93139C22.8535 9.97346 23.2988 10.1167 23.6973 10.351C23.8401 10.4356 24.0085 10.4664 24.1721 10.4379C24.3357 10.4093 24.4836 10.3231 24.5892 10.1951C24.8834 9.83907 25.2526 9.55246 25.6704 9.35571C26.0882 9.15897 26.5443 9.05695 27.0061 9.05695C27.4679 9.05695 27.924 9.15897 28.3418 9.35571C28.7596 9.55246 29.1288 9.83907 29.4229 10.1951C29.5281 10.3215 29.6747 10.4065 29.8366 10.435C29.9986 10.4636 30.1654 10.4338 30.3074 10.351C30.7058 10.1172 31.1508 9.97433 31.6108 9.93247C32.0707 9.89061 32.5342 9.95083 32.9682 10.1088C33.4022 10.2668 33.796 10.5187 34.1214 10.8464C34.4468 11.1742 34.6958 11.5698 34.8506 12.0049C34.9061 12.1605 35.015 12.2912 35.158 12.3739C35.301 12.4565 35.4687 12.4856 35.6312 12.456C36.0853 12.3725 36.5522 12.3903 36.9987 12.5081C37.4452 12.626 37.8601 12.8409 38.2138 13.1377C38.5676 13.4344 38.8515 13.8056 39.0452 14.2248C39.2389 14.6439 39.3376 15.1007 39.3344 15.5624C39.3332 15.7275 39.3908 15.8877 39.4969 16.0142C39.603 16.1408 39.7507 16.2254 39.9135 16.2529C40.351 16.3266 40.7679 16.4923 41.1366 16.7391C41.5053 16.9858 41.8174 17.308 42.0524 17.6844C42.2873 18.0607 42.4397 18.4827 42.4995 18.9223C42.5592 19.3619 42.525 19.8092 42.3991 20.2346H38.6272C37.4965 18.1362 35.8188 16.383 33.7722 15.161C31.7257 13.939 29.3865 13.2938 27.0028 13.2938C24.6192 13.2938 22.28 13.939 20.2334 15.161C18.1868 16.383 16.5092 18.1362 15.3785 20.2346H11.6057C11.484 19.8266 11.447 19.398 11.4971 18.9751C11.5472 18.5523 11.6834 18.1442 11.8971 17.776ZM37.0178 20.2355H16.9879C18.0501 18.5376 19.5264 17.1377 21.2783 16.1672C23.0302 15.1967 25.0001 14.6875 27.0028 14.6875C29.0056 14.6875 30.9754 15.1967 32.7273 16.1672C34.4792 17.1377 35.9556 18.5376 37.0178 20.2355ZM42.1076 35.2247C41.877 35.625 41.5607 35.9693 41.1814 36.2329C40.8021 36.4966 40.3691 36.673 39.9135 36.7496C39.7507 36.7772 39.603 36.8618 39.4969 36.9883C39.3908 37.1149 39.3332 37.275 39.3344 37.4402C39.3373 37.9014 39.2384 38.3577 39.0447 38.7763C38.8511 39.195 38.5674 39.5657 38.214 39.8621C37.8606 40.1586 37.4461 40.3734 37.0001 40.4912C36.5541 40.609 36.0877 40.627 35.6339 40.5438C35.4715 40.5142 35.3038 40.5433 35.1608 40.6259C35.0178 40.7085 34.9088 40.8393 34.8534 40.9949C34.6987 41.4305 34.4497 41.8265 34.1242 42.1547C33.7986 42.4828 33.4046 42.735 32.9702 42.8931C32.5358 43.0512 32.0719 43.1114 31.6116 43.0693C31.1513 43.0272 30.7059 42.884 30.3074 42.6497C30.1648 42.5662 29.9972 42.5361 29.8345 42.5648C29.6717 42.5936 29.5246 42.6793 29.4192 42.8066C29.125 43.1626 28.7559 43.4492 28.3381 43.6459C27.9203 43.8427 27.4642 43.9447 27.0024 43.9447C26.5406 43.9447 26.0845 43.8427 25.6667 43.6459C25.2489 43.4492 24.8797 43.1626 24.5855 42.8066C24.4802 42.6793 24.333 42.5936 24.1703 42.5648C24.0075 42.5361 23.8399 42.5662 23.6973 42.6497C23.299 42.8835 22.8539 43.0264 22.394 43.0682C21.934 43.1101 21.4705 43.0499 21.0365 42.8919C20.6025 42.7339 20.2088 42.482 19.8834 42.1543C19.558 41.8265 19.309 41.4309 19.1541 40.9958C19.0987 40.8403 18.9897 40.7095 18.8467 40.6269C18.7038 40.5442 18.536 40.5151 18.3736 40.5447C17.9195 40.6282 17.4525 40.6104 17.006 40.4926C16.5596 40.3748 16.1447 40.1598 15.7909 39.863C15.4371 39.5663 15.1533 39.1951 14.9596 38.7759C14.7659 38.3568 14.6671 37.9 14.6704 37.4383C14.6716 37.2732 14.614 37.113 14.5078 36.9865C14.4017 36.86 14.254 36.7753 14.0912 36.7478C13.6537 36.6741 13.2368 36.5084 12.8681 36.2616C12.4994 36.0149 12.1873 35.6927 11.9524 35.3163C11.7174 34.94 11.565 34.5181 11.5053 34.0784C11.4455 33.6388 11.4797 33.1915 11.6057 32.7661H15.3785C16.5092 34.8645 18.1868 36.6177 20.2334 37.8397C22.28 39.0617 24.6192 39.707 27.0028 39.707C29.3865 39.707 31.7257 39.0617 33.7722 37.8397C35.8188 36.6177 37.4965 34.8645 38.6272 32.7661H42.3991C42.5208 33.1741 42.5577 33.6027 42.5076 34.0256C42.4575 34.4484 42.3214 34.8565 42.1076 35.2247ZM16.9879 32.7652H37.0178C35.9558 34.4633 34.4794 35.8635 32.7275 36.8341C30.9756 37.8048 29.0057 38.314 27.0028 38.314C25 38.314 23.03 37.8048 21.2781 36.8341C19.5262 35.8635 18.0499 34.4633 16.9879 32.7652ZM4.82944 31.373L6.0063 26.6489C6.03416 26.538 6.03416 26.4219 6.0063 26.311L4.83037 21.6277H49.1744L47.9994 26.3147C47.9715 26.4256 47.9715 26.5417 47.9994 26.6526L49.1762 31.3767L4.82944 31.373ZM18.5156 25.3588C18.5156 25.1425 18.7161 24.9411 19.208 24.9411C19.776 24.9411 19.9078 25.2047 20.1565 25.2047C20.4609 25.2047 20.5862 24.8223 20.5862 24.6348C20.5862 24.0919 19.5746 24.0223 19.208 24.0223C18.343 24.0223 17.4352 24.4186 17.4352 25.4627C17.4352 27.0916 19.6303 26.9477 19.6303 27.7877C19.6303 28.1218 19.2776 28.2471 18.9592 28.2471C18.3151 28.2471 18.1072 27.732 17.7814 27.732C17.5188 27.732 17.3109 28.08 17.3109 28.3167C17.3109 28.7761 18.0729 29.2216 18.9815 29.2216C19.9857 29.2216 20.7125 28.6787 20.7125 27.6763C20.7106 25.9221 18.5156 26.0549 18.5156 25.3588ZM12.2971 24.064H11.0729C10.7889 24.064 10.6015 24.2172 10.6015 24.3907V28.8207C10.6015 28.9952 10.7871 29.1483 11.0729 29.1483H12.2981C13.2531 29.1483 14.0012 28.7028 14.0012 27.5055V25.7068C14.0012 24.5095 13.2531 24.064 12.2981 24.064H12.2971ZM12.9199 27.5092C12.9199 27.9826 12.6851 28.2053 12.2971 28.2053H11.6818V25.0154H12.2981C12.686 25.0154 12.9208 25.2381 12.9208 25.7114L12.9199 27.5092ZM27.8136 24.064C26.8585 24.064 26.1169 24.5095 26.1169 25.7068V27.551C26.1169 28.7483 26.8594 29.1938 27.8136 29.1938C28.7677 29.1938 29.5167 28.7483 29.5167 27.551V25.7068C29.5176 24.5095 28.7705 24.064 27.8145 24.064H27.8136ZM28.4363 27.551C28.4363 28.0308 28.2015 28.2471 27.8136 28.2471C27.4256 28.2471 27.1973 28.0308 27.1973 27.551V25.7068C27.1973 25.226 27.4256 25.0107 27.8136 25.0107C28.2015 25.0107 28.4363 25.226 28.4363 25.7068V27.551ZM23.4105 25.0154C23.999 25.0154 24.0203 25.4609 24.0268 25.6418C24.0407 25.8924 24.2765 25.9685 24.567 25.9685C24.9382 25.9685 25.1071 25.8711 25.1071 25.4534C25.1071 24.5699 24.36 24.0687 23.3697 24.0687C22.462 24.0687 21.7074 24.5142 21.7074 25.7114V27.5556C21.7074 28.7529 22.462 29.1984 23.3697 29.1984C24.36 29.1984 25.1071 28.6694 25.1071 27.7431C25.1071 27.3255 24.9345 27.228 24.5605 27.228C24.282 27.228 24.0481 27.2976 24.0268 27.5556C24.0055 27.8137 23.972 28.2517 23.4179 28.2517C23.0161 28.2517 22.7878 28.029 22.7878 27.5556V25.7068C22.7878 25.2335 23.0161 25.0154 23.4105 25.0154ZM38.4462 24.0687C38.1761 24.0687 37.9069 24.1661 37.9069 24.3954V26.7621L36.7811 24.607C36.5184 24.0984 36.3727 24.064 35.9848 24.064C35.7147 24.064 35.4446 24.168 35.4446 24.3982V28.8207C35.4446 29.0434 35.7147 29.1548 35.9848 29.1548C36.2549 29.1548 36.5249 29.0434 36.5249 28.8207V26.4539L37.8401 28.8671C37.9719 29.1102 38.1937 29.1594 38.4425 29.1594C38.7125 29.1594 38.9826 29.0481 38.9826 28.8253V24.3982C38.9826 24.1615 38.7125 24.064 38.4425 24.064L38.4462 24.0687ZM15.7498 24.0687C15.4797 24.0687 15.2096 24.1661 15.2096 24.3954V28.8207C15.2096 29.0434 15.4797 29.1548 15.7498 29.1548C16.0199 29.1548 16.2899 29.0434 16.2899 28.8207V24.3935C16.2862 24.1615 16.0161 24.064 15.7461 24.064L15.7498 24.0687ZM33.6626 24.0687C33.3842 24.0687 33.1234 24.1661 33.1234 24.3954V27.551C33.1234 28.0243 32.8737 28.2471 32.4579 28.2471C32.0421 28.2471 31.7934 28.0243 31.7934 27.551V24.3954C31.7934 24.1661 31.5149 24.0687 31.2532 24.0687C30.9915 24.0687 30.7139 24.1661 30.7139 24.3954V27.551C30.7139 28.7483 31.475 29.1938 32.4579 29.1938C33.4408 29.1938 34.2028 28.7483 34.2028 27.551V24.3954C34.1981 24.1615 33.9215 24.064 33.658 24.064L33.6626 24.0687Z" fill="#1B3764"/>
</svg>
