<svg width="46" height="51" viewBox="0 0 46 51" fill="none" xmlns="http://www.w3.org/2000/svg">
<path d="M19.1269 36.594C28.6528 36.594 36.375 28.8722 36.375 19.3468C36.375 9.82144 28.6528 2.09961 19.1269 2.09961C9.60112 2.09961 1.87891 9.82144 1.87891 19.3468C1.87891 28.8722 9.60112 36.594 19.1269 36.594Z" fill="#CDF6F9"/>
<path d="M17.5034 27.5158C17.5034 28.4104 18.2289 29.1358 19.1235 29.1358C20.0181 29.1358 20.7435 28.4104 20.7435 27.5158V26.6734C24.1312 25.7086 24.628 23.4587 24.6568 22.3733C24.7144 20.1144 22.972 18.5646 19.4781 17.769C17.0534 17.2182 16.8284 16.6261 16.8446 16.3975C16.9328 15.0907 19.5609 14.8531 20.7795 14.8873C20.7795 15.7819 21.5049 16.5073 22.3996 16.5073C23.2942 16.5073 24.0196 15.7819 24.0196 14.8873C24.0196 13.9927 23.6506 13.1233 23.0062 12.5023C22.3906 11.9084 21.6129 11.579 20.7435 11.5862V11.1776C20.7435 10.283 20.0181 9.55762 19.1235 9.55762C18.2289 9.55762 17.5034 10.283 17.5034 11.1776V12.0254C14.3822 12.9127 13.6981 14.8945 13.6117 16.1761C13.4515 18.516 15.185 20.1144 18.7599 20.9262C21.3627 21.5183 21.4203 22.2095 21.4185 22.2869C21.3825 23.6729 18.1928 23.8583 17.4836 23.8583H17.4818C17.4602 23.8385 17.4602 23.8205 17.4602 23.8097C17.4602 22.9151 16.7348 22.1915 15.8402 22.1915C14.9456 22.1915 14.2201 22.9169 14.2201 23.8115C14.2201 24.7151 14.5784 25.561 15.23 26.1892C15.8384 26.7778 16.661 27.1072 17.5052 27.118V27.5158H17.5034Z" fill="#2B8AFC"/>
<path d="M12.838 33.6465C7.16248 31.1607 3.49399 25.5467 3.49399 19.344C3.49399 10.7294 10.5106 3.72039 19.1364 3.72039C27.1862 3.72039 33.868 9.75025 34.6798 17.7439C34.7698 18.633 35.5618 19.2756 36.4546 19.1928C37.3457 19.1028 37.9937 18.3073 37.9037 17.4181C36.9226 7.7613 28.8548 0.480469 19.1364 0.480469C8.72492 0.480469 0.253906 8.94207 0.253906 19.344C0.253906 26.8337 4.68202 33.6123 11.5384 36.6128C11.749 36.7064 11.9704 36.7496 12.1864 36.7496C12.811 36.7496 13.405 36.386 13.6714 35.7776C14.0315 34.9605 13.6588 34.0047 12.838 33.6465Z" fill="#2B8AFC"/>
<path d="M38.9253 48.8988H29.4787C28.6614 48.8988 27.882 48.5478 27.342 47.934L19.8268 39.4022C18.916 38.3691 18.8674 36.8337 19.7098 35.7447C20.6098 34.5801 22.2461 34.2831 23.4989 35.0571L27.6408 37.6221V25.9817C27.6408 24.3492 28.9638 23.0244 30.5983 23.0244C32.2309 23.0244 33.5558 24.3474 33.5558 25.9817V33.3562L41.0188 34.2705C43.1788 34.5351 44.59 36.6681 43.9888 38.7596L41.6632 46.8397C41.3104 48.0582 40.1943 48.8988 38.9253 48.8988Z" fill="white"/>
<path d="M44.8938 34.9362C44.0603 33.6745 42.7193 32.8465 41.2181 32.6611L35.1771 31.9213V25.9796C35.1771 23.4561 33.1233 21.4023 30.6014 21.4023C28.0795 21.4023 26.0257 23.4561 26.0257 25.9796V34.7112L24.3552 33.6781C22.3914 32.4595 19.8461 32.9239 18.4313 34.7526C17.119 36.4536 17.1946 38.8583 18.6149 40.4711L26.1301 49.0047C26.9779 49.9659 28.2001 50.5185 29.4818 50.5185H38.9284C40.9084 50.5185 42.6725 49.1901 43.2215 47.2875L45.5472 39.2075C45.9648 37.7532 45.7272 36.1962 44.8938 34.9362ZM42.4331 38.3093L40.1074 46.3894C39.9562 46.9131 39.472 47.2785 38.9284 47.2785H29.4818C29.1289 47.2785 28.7941 47.1273 28.5601 46.8627L21.0449 38.3309C20.6471 37.881 20.6273 37.2078 20.9945 36.7344C21.2411 36.4158 21.6102 36.2448 21.9864 36.2448C22.2114 36.2448 22.4418 36.306 22.647 36.4338L26.7889 38.9987C27.2893 39.3083 27.9175 39.3245 28.4305 39.0365C28.9435 38.7503 29.2622 38.2104 29.2622 37.6218V25.9814C29.2622 25.2435 29.8616 24.6441 30.5996 24.6441C31.3376 24.6441 31.937 25.2435 31.937 25.9814V33.3559C31.937 34.1748 32.5472 34.8642 33.3609 34.965L40.8238 35.8794C41.3891 35.9478 41.8751 36.2484 42.1901 36.7254C42.5051 37.1988 42.5915 37.7622 42.4331 38.3093Z" fill="#2B8AFC"/>
</svg>
