<svg width="49" height="49" viewBox="0 0 49 49" fill="none" xmlns="http://www.w3.org/2000/svg">
<path fill-rule="evenodd" clip-rule="evenodd" d="M11.2656 19.394L11.2848 42.8084H14.8673C17.1427 42.8084 18.5682 45.0654 20.8718 45.1055H39.3719C41.2541 45.1055 43.0352 43.7103 43.0352 41.7426C43.0352 39.893 41.3867 38.3798 39.3719 38.3798H36.8479H42.8692C44.7514 38.3798 46.5325 36.9845 46.5325 35.0169C46.5325 33.1673 44.884 31.654 42.8692 31.654C44.7515 31.654 46.5325 30.2587 46.5325 28.2911C46.5325 26.4415 44.884 24.9282 42.8692 24.9282C44.7515 24.9282 46.5325 23.533 46.5325 21.5653C46.5325 19.7157 44.884 18.2024 42.8692 18.2024H30.2017C31.1338 13.8395 32.5119 10.7434 30.5621 6.41321C29.5269 4.11418 27.7533 2.2388 25.3278 2.90152C23.1854 3.48689 23.5559 9.7569 21.742 13.6336C21.0496 15.1137 18.1573 19.3658 16.2583 19.3735L11.2656 19.394Z" fill="#FFDDCE"/>
<path fill-rule="evenodd" clip-rule="evenodd" d="M42.867 24.9286C44.7493 24.9286 46.5303 23.5334 46.5303 21.5657H34.4546C33.5298 21.5657 32.7732 22.3223 32.7732 23.2471C32.7732 24.1719 33.5298 24.9285 34.4546 24.9285H42.867V24.9286ZM26.9549 6.4137C28.6361 10.1475 27.8431 12.9637 26.9951 16.4657C26.8902 16.899 26.981 17.3157 27.2567 17.6661C27.5324 18.0166 27.916 18.2029 28.3619 18.2029H30.1995C31.1315 13.84 32.5097 10.7439 30.5598 6.4137C29.5247 4.11466 27.7511 2.23929 25.3255 2.90201C25.0551 2.97588 24.8248 3.14032 24.625 3.37901C25.6107 4.03863 26.392 5.16354 26.9549 6.4137ZM31.642 45.1059H39.3696C41.2518 45.1059 43.0329 43.7107 43.0329 41.743H31.642C30.7173 41.743 29.9606 42.4997 29.9606 43.4244C29.9606 44.3493 30.7172 45.1059 31.642 45.1059ZM39.3696 38.3801H36.8457H42.867C44.7492 38.3801 46.5302 36.9848 46.5303 35.0172H34.4546C33.5298 35.0172 32.7732 35.7739 32.7732 36.6986C32.7732 37.6234 33.5298 38.38 34.4546 38.38H39.3696V38.3801ZM42.867 31.6544C44.7493 31.6544 46.5302 30.2591 46.5303 28.2915H34.4546C33.5298 28.2915 32.7732 29.0481 32.7732 29.9729C32.7732 30.8977 33.5298 31.6543 34.4546 31.6543H42.867V31.6544Z" fill="#FFBA9B"/>
<path fill-rule="evenodd" clip-rule="evenodd" d="M5.14503 15.3008H8.60712C10.0791 15.3008 11.2834 16.5052 11.2834 17.9772V43.5567C11.2834 45.0287 10.0791 46.233 8.60712 46.233H5.14503C3.67306 46.233 2.46875 45.0287 2.46875 43.5567V17.9772C2.46875 16.5051 3.67306 15.3008 5.14503 15.3008Z" fill="#2B8AFC"/>
<path fill-rule="evenodd" clip-rule="evenodd" d="M9.31166 15.396C10.444 15.7077 11.282 16.7492 11.282 17.9771V43.5566C11.282 45.0287 10.0777 46.233 8.60572 46.233H5.14353C3.91569 46.233 2.87431 45.395 2.5625 44.2627C2.78759 44.3246 3.02431 44.3579 3.26844 44.3579H6.73053C8.2025 44.3579 9.40681 43.1535 9.40681 41.6815V16.102C9.40691 15.8579 9.37363 15.6212 9.31166 15.396Z" fill="#8C9BA6"/>
</svg>
