<svg width="48" height="49" viewBox="0 0 48 49" fill="none" xmlns="http://www.w3.org/2000/svg">
<g id="Money bag">
<path id="Shape" fillRule="evenodd" clipRule="evenodd" d="M26.2684 4.72762C26.7857 5.32327 27.6635 5.433 28.3062 4.97842C29.5602 4.08495 31.1904 5.433 30.5477 6.81239L26.7543 11.1544H20.6881L16.8634 6.76537C16.2207 5.3703 17.8509 4.02225 19.1049 4.91572L19.2146 4.9941C19.8573 5.44867 20.7351 5.32327 21.2367 4.72762L22.6004 3.09743C23.1961 2.37638 24.309 2.37638 24.9047 3.09743L26.2684 4.72762ZM5.20117 32.6916C5.20117 22.4402 13.5089 14.1324 23.7604 14.1324C34.0119 14.1324 42.3197 22.4402 42.304 32.6916C42.304 40.2626 36.1594 46.4072 28.5884 46.4072H18.9168C11.3458 46.4072 5.20117 40.2626 5.20117 32.6916Z" fill="#F3C07B"/>
<path id="Shape_2" fillRule="evenodd" clipRule="evenodd" d="M21.0642 11.123H26.4564C27.4126 11.123 28.1963 11.9068 28.1963 12.863C28.1963 13.8191 27.4126 14.6029 26.4564 14.6029H21.0642C20.108 14.6029 19.3242 13.8191 19.3242 12.863C19.3242 11.9068 20.108 11.123 21.0642 11.123ZM23.7604 29.745H23.8701C26.2213 29.8077 28.1024 31.72 28.1024 34.0712C28.1024 36.0776 26.7386 37.7549 24.889 38.2565V40.0121C24.889 40.6391 24.3874 41.1407 23.7604 41.1407C23.1334 41.1407 22.6318 40.6391 22.6318 40.0121V38.2565C20.7821 37.7549 19.4184 36.0776 19.4184 34.0712C19.4184 33.4443 19.92 32.9427 20.547 32.9427C21.174 32.9427 21.6756 33.4443 21.6756 34.0712C21.6756 35.2312 22.6004 36.156 23.7447 36.156C24.889 36.156 25.8295 35.2155 25.8295 34.0712C25.8295 32.927 24.889 31.9865 23.7447 31.9865H23.635C21.2994 31.9238 19.4184 30.0114 19.4184 27.6602C19.4184 25.6538 20.7821 23.9766 22.6318 23.475V21.7194C22.6318 21.0924 23.1334 20.5908 23.7604 20.5908C24.3874 20.5908 24.889 21.0924 24.889 21.7194V23.475C26.7386 23.9766 28.1024 25.6538 28.1024 27.6602C28.1024 28.2872 27.6008 28.7888 26.9738 28.7888C26.3467 28.7888 25.8451 28.2872 25.8451 27.6602C25.8451 26.5159 24.9046 25.5754 23.7604 25.5754C22.6161 25.5754 21.6756 26.5159 21.6756 27.6602C21.6756 28.8045 22.6161 29.745 23.7604 29.745Z" fill="#2B8AFC"/>
</g>
</svg>
