<svg width="48" height="48" viewBox="0 0 48 48" fill="none" xmlns="http://www.w3.org/2000/svg">
<path d="M24.0911 11.2494L27.6425 11.0428C27.862 11.0301 28.076 10.9692 28.2694 10.8645C28.4627 10.7598 28.6307 10.614 28.7615 10.4372L30.155 8.55257L24.0911 3.74937L27.2012 2.25704C27.4552 2.13515 27.7383 2.08726 28.0183 2.11882C28.2982 2.15039 28.5636 2.26015 28.7841 2.43554L33.8097 6.4341C34.4207 6.92024 34.8181 7.62544 34.9174 8.3999C35.0168 9.17436 34.8103 9.95705 34.3418 10.5817L30.2411 16.0494C29.6569 16.8283 29.3411 17.7757 29.3411 18.7494V47.2494H25.5273L22.5911 33.7494L19.5592 47.2494H15.8411L16.5911 30.3907H16.0547C15.6489 30.3907 15.2473 30.3084 14.8743 30.1487C14.5012 29.989 14.1644 29.7553 13.8843 29.4617C13.6041 29.1682 13.3865 28.8208 13.2444 28.4407C13.1024 28.0605 13.039 27.6555 13.058 27.2502L13.493 17.9724C13.5374 17.0252 13.8434 16.1089 14.377 15.3251C14.9218 14.5249 15.6819 13.8952 16.5694 13.5086L20.9593 11.5967L22.6787 11.5054L24.1948 11.4249L24.0911 11.2494Z" fill="#F7991D"/>
<path d="M22.6785 11.5078L20.9592 11.5991L16.5693 13.511C15.6909 13.8936 14.9372 14.5145 14.3934 15.3034C13.8497 16.0923 13.5377 17.0177 13.4928 17.9747L13.058 27.2525C13.039 27.6579 13.1024 28.0628 13.2444 28.443C13.3864 28.8231 13.6041 29.1705 13.8843 29.4641C14.1644 29.7576 14.5012 29.9913 14.8742 30.151C15.2473 30.3107 15.6489 30.393 16.0547 30.393H16.5911L15.841 47.2517H17.341L18.0911 30.393H17.5547C17.1489 30.393 16.7473 30.3107 16.3742 30.151C16.0012 29.9913 15.6644 29.7576 15.3843 29.4641C15.1041 29.1705 14.8864 28.8231 14.7444 28.443C14.6024 28.0628 14.539 27.6579 14.558 27.2525L14.9929 17.9747C15.0378 17.0177 15.3498 16.0923 15.8935 15.3034C16.4372 14.5145 17.191 13.8936 18.0694 13.511L22.4592 11.5991" fill="#E37626"/>
<path d="M23.332 37.143L25.5295 47.25H27.0295L24.094 33.75L23.332 37.143Z" fill="#E37626"/>
<path d="M24.4688 9.76562V11.2056C24.4688 11.7029 24.2712 12.1798 23.9196 12.5315C23.5679 12.8831 23.091 13.0806 22.5938 13.0806C22.0965 13.0806 21.6196 12.8831 21.2679 12.5315C20.9163 12.1798 20.7188 11.7029 20.7188 11.2056V9.82562L24.4688 9.76562Z" fill="#FFDAA7"/>
<path d="M25.8614 2.11502L22.7564 3.60002L23.0864 3.85502C22.9226 3.87991 22.7569 3.88995 22.5914 3.88502C22.2604 3.88524 21.9298 3.8652 21.6014 3.82502C21.1975 3.77913 20.7968 3.709 20.4014 3.61502L18.9464 5.07002L18.8714 2.28002C18.8676 2.08058 18.9036 1.88239 18.9772 1.69701C19.0509 1.51164 19.1608 1.3428 19.3004 1.20036C19.4401 1.05792 19.6067 0.944735 19.7906 0.867413C19.9744 0.79009 20.1719 0.750182 20.3714 0.750019H24.8114C25.1622 0.748259 25.5024 0.87083 25.7715 1.09599C26.0406 1.32115 26.2212 1.63435 26.2814 1.98002C26.1367 2.00909 25.9958 2.05437 25.8614 2.11502Z" fill="#606060"/>
<path d="M20.3793 2.28561C20.3746 2.08569 20.4098 1.88683 20.4831 1.70073C20.5563 1.51464 20.666 1.34507 20.8057 1.20199C20.9454 1.05891 21.1123 0.945217 21.2966 0.867595C21.4809 0.789974 21.6789 0.749991 21.8789 0.75H20.3789C20.1789 0.749991 19.9809 0.789974 19.7966 0.867595C19.6123 0.945217 19.4454 1.05891 19.3057 1.20199C19.166 1.34507 19.0563 1.51464 18.9831 1.70073C18.9098 1.88683 18.8746 2.08569 18.8793 2.28561L18.9452 5.064L20.4043 3.6105L20.4108 3.6117L20.3793 2.28561Z" fill="#58565D"/>
<path d="M24.4688 9.91016V11.2902C24.2964 11.4244 24.1104 11.5401 23.9138 11.6352L23.2387 11.9652C23.0368 12.0686 22.8132 12.1226 22.5862 12.1226C22.3593 12.1226 22.1357 12.0686 21.9337 11.9652L21.2737 11.6352C21.0752 11.5435 20.8888 11.4277 20.7188 11.2902V9.97016L24.4688 9.91016Z" fill="#FDC475"/>
<path d="M26.2392 5.07156L26.1042 6.25656L25.8642 8.41656C25.7509 8.95859 25.5166 9.46805 25.179 9.90697C24.8414 10.3459 24.409 10.703 23.9142 10.9516L23.2392 11.2816C23.0373 11.3851 22.8136 11.4391 22.5867 11.4391C22.3598 11.4391 22.1361 11.3851 21.9342 11.2816L21.2742 10.9516C20.7794 10.7029 20.3471 10.3459 20.0095 9.90695C19.6718 9.46804 19.4376 8.95859 19.3242 8.41656L18.9492 5.07156L20.4042 3.61656V3.60156C20.7995 3.70008 21.2001 3.77521 21.6042 3.82656C21.9327 3.86675 22.2633 3.88678 22.5942 3.88656C22.7598 3.8915 22.9255 3.88146 23.0892 3.85656C23.6612 3.83817 24.2296 3.7577 24.7842 3.61656L26.2392 5.07156Z" fill="#FFDAA7"/>
<path d="M22.7709 10.9441C22.2747 10.6973 21.8414 10.3405 21.5042 9.90068C21.1671 9.46089 20.9349 8.94984 20.8254 8.40658L20.505 5.55785C20.4876 5.40316 20.5052 5.24653 20.5566 5.09956C20.6079 4.9526 20.6917 4.81907 20.8016 4.70885L21.6773 3.83105C21.2474 3.7862 20.8214 3.71081 20.4023 3.60547L18.9492 5.06207L19.3254 8.40658C19.4349 8.94984 19.667 9.46089 20.0042 9.90068C20.3414 10.3405 20.7747 10.6973 21.2709 10.9441L21.9408 11.2778C22.1435 11.3787 22.3669 11.4312 22.5933 11.4312C22.8198 11.4312 23.0431 11.3787 23.2458 11.2778L23.3433 11.2292L22.7709 10.9441Z" fill="#FDC475"/>
<path d="M26.3128 2.28047L26.2378 5.07047L24.7828 3.61547C24.2282 3.75661 23.6598 3.83708 23.0878 3.85547L22.7578 3.60047L25.8628 2.11547C25.9973 2.05482 26.1382 2.00954 26.2828 1.98047C26.3084 2.0783 26.3185 2.17952 26.3128 2.28047Z" fill="#58565D"/>
<path d="M26.2398 5.06828L26.1048 6.25328L25.0998 5.45828L23.0898 3.85328C23.6619 3.83489 24.2302 3.75442 24.7848 3.61328L26.2398 5.06828Z" fill="#FDC475"/>
<path d="M30.7388 3.97443C30.7431 4.10487 30.7136 4.23421 30.6532 4.34986C30.5927 4.46552 30.5033 4.56356 30.3937 4.63443L27.5737 6.43443C27.5572 6.45025 27.5363 6.4607 27.5137 6.46443L26.4337 5.60943L24.0938 3.74943L27.1987 2.26443C27.453 2.14179 27.7364 2.09227 28.0172 2.12141C28.2979 2.15055 28.5651 2.2572 28.7887 2.42943L29.8538 3.26943L30.7388 3.97443Z" fill="#FFDAA7"/>
<path d="M17.0288 30.1488C16.8305 30.143 16.6425 30.0589 16.5061 29.9148C16.3697 29.7707 16.296 29.5784 16.301 29.3801L16.5247 20.481C16.5271 20.3825 16.549 20.2855 16.5889 20.1954C16.6289 20.1054 16.6862 20.0241 16.7576 19.9562C16.829 19.8884 16.9131 19.8353 17.0051 19.7999C17.097 19.7646 17.195 19.7477 17.2935 19.7503L17.2964 19.7503C17.4948 19.7561 17.6827 19.8403 17.8191 19.9844C17.9555 20.1285 18.0293 20.3207 18.0242 20.5191L17.8005 29.4182C17.7981 29.5167 17.7763 29.6137 17.7363 29.7037C17.6963 29.7938 17.639 29.8751 17.5676 29.9429C17.4962 30.0108 17.4121 30.0639 17.3202 30.0992C17.2282 30.1346 17.1302 30.1515 17.0317 30.1489L17.0288 30.1488Z" fill="#E2881B"/>
<path d="M16.2991 30.39H16.0664C15.6602 30.39 15.2581 30.3075 14.8847 30.1475C14.5113 29.9874 14.1743 29.7533 13.8941 29.4591C13.6139 29.1649 13.3964 28.8169 13.2547 28.4362C13.1131 28.0554 13.0502 27.6499 13.07 27.2441L13.0818 27H16.2989L16.2991 30.39Z" fill="#FFDAA7"/>
<path d="M29.3438 28.5V47.25H25.5337L22.5938 33.75L19.5637 47.25H15.8438L16.3012 28.5H29.3438Z" fill="#3F6DB4"/>
<path d="M16.3012 28.5L15.8438 47.25H17.3438L17.8012 28.5H16.3012Z" fill="#1F53A4"/>
<path d="M24.9531 44.25H27.9531C28.7488 44.25 29.5118 44.5661 30.0744 45.1287C30.6371 45.6913 30.9531 46.4544 30.9531 47.25H24.9531V44.25Z" fill="#8B8891"/>
<path d="M20.1836 47.25H14.1836C14.1836 46.4544 14.4997 45.6913 15.0623 45.1287C15.6249 44.5661 16.3879 44.25 17.1836 44.25H20.1836V47.25Z" fill="#8B8891"/>
<path d="M18.6836 44.25H17.1836C16.3879 44.25 15.6249 44.5661 15.0623 45.1287C14.4997 45.6913 14.1836 46.4544 14.1836 47.25H15.6836C15.6836 46.4544 15.9997 45.6913 16.5623 45.1287C17.1249 44.5661 17.8879 44.25 18.6836 44.25Z" fill="#58565D"/>
</svg>
