<svg width="48" height="48" viewBox="0 0 48 48" fill="none" xmlns="http://www.w3.org/2000/svg">
<path d="M32.6805 35.799C34.3249 35.4362 36.0036 35.2521 37.6875 35.25H43.3125C44.3568 35.25 45.3583 35.6648 46.0967 36.4033C46.8352 37.1417 47.25 38.1432 47.25 39.1875V45.75C47.25 46.1478 47.092 46.5294 46.8107 46.8107C46.5294 47.092 46.1478 47.25 45.75 47.25H32.25L32.6805 35.799Z" fill="#82C8EC"/>
<path d="M15.75 47.25H2.25C1.85218 47.25 1.47064 47.092 1.18934 46.8107C0.908035 46.5294 0.75 46.1478 0.75 45.75V39.1875C0.75 38.1432 1.16484 37.1417 1.90327 36.4033C2.64169 35.6648 3.64321 35.25 4.6875 35.25H10.3125C11.998 35.2523 13.6784 35.4374 15.324 35.802L15.75 47.25Z" fill="#FBDE53"/>
<path d="M26.8721 30C29.4138 30 31.8514 31.0097 33.6486 32.8069C35.4459 34.6042 36.4556 37.0418 36.4556 39.5835V43.416C36.4556 44.4326 36.0518 45.4075 35.3331 46.1265C34.6145 46.8455 33.6396 47.2496 32.6231 47.25H15.3731C14.3562 47.25 13.381 46.8461 12.662 46.127C11.943 45.408 11.5391 44.4328 11.5391 43.416V39.5835C11.5391 38.3249 11.787 37.0785 12.2687 35.9157C12.7504 34.7529 13.4565 33.6963 14.3465 32.8064C15.2366 31.9165 16.2933 31.2106 17.4562 30.7291C18.6191 30.2475 19.8654 29.9998 21.1241 30H26.8721Z" fill="#ED456A"/>
<path d="M26.876 26.1641V29.0396C26.876 29.8022 26.573 30.5336 26.0338 31.0728C25.4945 31.6121 24.7631 31.9151 24.0005 31.9151C23.6229 31.9151 23.249 31.8407 22.9001 31.6962C22.5512 31.5517 22.2342 31.3399 21.9672 31.0728C21.7002 30.8058 21.4884 30.4888 21.3439 30.14C21.1994 29.7911 21.125 29.4172 21.125 29.0396V26.1641H26.876Z" fill="#FDC47B"/>
<path d="M24.001 27.666C27.7057 27.666 30.709 24.6627 30.709 20.958C30.709 17.2533 27.7057 14.25 24.001 14.25C20.2962 14.25 17.293 17.2533 17.293 20.958C17.293 24.6627 20.2962 27.666 24.001 27.666Z" fill="#57565D"/>
<path d="M30.4885 20.2093L23.992 18.3643C23.3509 18.1821 22.6675 18.2185 22.0495 18.4678L17.731 20.2093L17.344 20.4463C17.3305 20.6188 17.293 20.7823 17.293 20.9578C17.293 21.8387 17.4665 22.711 17.8036 23.5249C18.1407 24.3387 18.6348 25.0782 19.2577 25.7011C19.8806 26.324 20.6201 26.8181 21.4339 27.1552C22.2478 27.4923 23.1201 27.6658 24.001 27.6658C24.8819 27.6658 25.7542 27.4923 26.568 27.1552C27.3819 26.8181 28.1213 26.324 28.7442 25.7011C29.3671 25.0782 29.8612 24.3387 30.1984 23.5249C30.5355 22.711 30.709 21.8387 30.709 20.9578C30.6978 20.7298 30.6748 20.5025 30.64 20.2768L30.4885 20.2093Z" fill="#FFD9AA"/>
<path d="M42.75 32.25V34.5C42.75 35.0967 42.5129 35.669 42.091 36.091C41.669 36.5129 41.0967 36.75 40.5 36.75C39.9033 36.75 39.331 36.5129 38.909 36.091C38.4871 35.669 38.25 35.0967 38.25 34.5V32.25H42.75Z" fill="#FDC47B"/>
<path d="M40.5 33.75C43.3995 33.75 45.75 31.3995 45.75 28.5C45.75 25.6005 43.3995 23.25 40.5 23.25C37.6005 23.25 35.25 25.6005 35.25 28.5C35.25 31.3995 37.6005 33.75 40.5 33.75Z" fill="#57565D"/>
<path d="M45.2148 27.8118L40.7148 26.5323C40.0738 26.3501 39.3903 26.3865 38.7723 26.6358L35.6868 27.8808L35.3043 28.0308C35.2908 28.1808 35.2578 28.3398 35.2578 28.5003C35.2578 29.8927 35.8109 31.228 36.7955 32.2126C37.7801 33.1972 39.1154 33.7503 40.5078 33.7503C41.9002 33.7503 43.2356 33.1972 44.2201 32.2126C45.2047 31.228 45.7578 29.8927 45.7578 28.5003C45.7578 28.3263 45.7233 28.1628 45.7068 27.9933L45.2148 27.8118Z" fill="#FFD9AA"/>
<path d="M9.75 32.25V34.5C9.75 35.0967 9.51295 35.669 9.09099 36.091C8.66903 36.5129 8.09674 36.75 7.5 36.75C6.90326 36.75 6.33097 36.5129 5.90901 36.091C5.48705 35.669 5.25 35.0967 5.25 34.5V32.25H9.75Z" fill="#FCC37A"/>
<path d="M4.5 26.25C6.15685 26.25 7.5 24.9069 7.5 23.25C7.5 21.5931 6.15685 20.25 4.5 20.25C2.84315 20.25 1.5 21.5931 1.5 23.25C1.5 24.9069 2.84315 26.25 4.5 26.25Z" fill="#4C4C51"/>
<path d="M7.5 33.75C10.3995 33.75 12.75 31.3995 12.75 28.5C12.75 25.6005 10.3995 23.25 7.5 23.25C4.60051 23.25 2.25 25.6005 2.25 28.5C2.25 31.3995 4.60051 33.75 7.5 33.75Z" fill="#57565D"/>
<path d="M8.25 27.1367C6.36549 27.9703 4.32402 28.3898 2.2635 28.3667C2.2635 28.4132 2.25 28.4552 2.25 28.5017C2.25 29.8941 2.80312 31.2295 3.78769 32.214C4.77226 33.1986 6.10761 33.7517 7.5 33.7517C8.89239 33.7517 10.2277 33.1986 11.2123 32.214C12.1969 31.2295 12.75 29.8941 12.75 28.5017C12.75 28.4162 12.729 28.3367 12.7245 28.2512C11.1769 28.1598 9.65969 27.7819 8.25 27.1367Z" fill="#FFD9AA"/>
</svg>
