<svg width="48" height="48" viewBox="0 0 48 48" fill="none" xmlns="http://www.w3.org/2000/svg">
<path d="M27.2421 38.5806C33.5048 38.5806 38.5818 33.5035 38.5818 27.2405C38.5818 20.9775 33.5048 15.9004 27.2421 15.9004C20.9793 15.9004 15.9023 20.9775 15.9023 27.2405C15.9023 33.5035 20.9793 38.5806 27.2421 38.5806Z" fill="#2B8AFC"/>
<path d="M27.2383 46.6802C24.4428 46.6809 21.6801 46.0786 19.1385 44.9144C18.7476 44.7339 18.4443 44.4056 18.2954 44.0015C18.1466 43.5974 18.1643 43.1507 18.3447 42.7598C18.5252 42.3688 18.8536 42.0655 19.2576 41.9166C19.6617 41.7678 20.1083 41.7855 20.4993 41.966C23.3202 43.2584 26.453 43.7135 29.5251 43.2771C32.5971 42.8407 35.4792 41.5312 37.8286 39.5042C40.1781 37.4773 41.896 34.8182 42.778 31.8432C43.6601 28.8682 43.6692 25.7025 42.8044 22.7224C41.9395 19.7424 40.237 17.0735 37.8993 15.033C35.5616 12.9925 32.6871 11.6664 29.6176 11.2122C26.5481 10.7581 23.4128 11.1951 20.5844 12.4712C17.7561 13.7474 15.3537 15.809 13.6631 18.4109C13.5461 18.5896 13.395 18.7435 13.2185 18.8639C13.042 18.9842 12.8436 19.0686 12.6345 19.1122C12.4254 19.1558 12.2097 19.1578 11.9999 19.1181C11.79 19.0784 11.59 18.9977 11.4113 18.8807C11.2326 18.7637 11.0787 18.6126 10.9584 18.4362C10.8381 18.2597 10.7537 18.0612 10.7101 17.8521C10.6664 17.643 10.6644 17.4274 10.7041 17.2175C10.7439 17.0076 10.8245 16.8076 10.9415 16.6289C12.7797 13.807 15.3194 11.5111 18.3118 9.96616C21.3042 8.42117 24.6467 7.68009 28.0116 7.81554C31.3766 7.95098 34.6486 8.9583 37.5072 10.7388C40.3657 12.5193 42.7127 15.0119 44.3182 17.9724C45.9236 20.9328 46.7325 24.2596 46.6655 27.6267C46.5985 30.9939 45.6579 34.2858 43.936 37.1801C42.2141 40.0743 39.7698 42.4716 36.8427 44.137C33.9156 45.8024 30.606 46.6787 27.2383 46.6802Z" fill="#13277E"/>
<path d="M28.8597 1.31934H25.6197C24.3308 1.31934 23.0947 1.83138 22.1833 2.74281C21.2719 3.65425 20.7599 4.89042 20.7599 6.17939V9.41942C20.7599 9.84907 20.9305 10.2611 21.2343 10.5649C21.5381 10.8688 21.9502 11.0394 22.3798 11.0394H32.0996C32.5292 11.0394 32.9413 10.8688 33.2451 10.5649C33.5489 10.2611 33.7196 9.84907 33.7196 9.41942V6.17939C33.7196 4.89042 33.2075 3.65425 32.2961 2.74281C31.3847 1.83138 30.1486 1.31934 28.8597 1.31934ZM36.6031 19.7551C36.3358 19.4213 35.9474 19.2067 35.5225 19.1582C35.0977 19.1096 34.6708 19.231 34.3351 19.4959L29.783 23.1248C29.0247 22.6366 28.1416 22.3778 27.2397 22.3796C26.2785 22.3796 25.3389 22.6646 24.5397 23.1986C23.7405 23.7326 23.1176 24.4917 22.7498 25.3797C22.3819 26.2678 22.2857 27.245 22.4732 28.1878C22.6607 29.1305 23.1236 29.9965 23.8032 30.6762C24.4829 31.3559 25.3489 31.8187 26.2916 32.0063C27.2343 32.1938 28.2115 32.0975 29.0995 31.7297C29.9875 31.3619 30.7465 30.7389 31.2806 29.9397C31.8146 29.1405 32.0996 28.2008 32.0996 27.2396C32.0975 26.6867 31.9988 26.1385 31.808 25.6196L36.3439 21.9907C36.6684 21.7243 36.8767 21.3423 36.9251 20.9253C36.9734 20.5083 36.858 20.0887 36.6031 19.7551ZM15.9 22.3796H6.1802C5.75056 22.3796 5.33851 22.5502 5.03471 22.854C4.73091 23.1579 4.56024 23.5699 4.56024 23.9996C4.56024 24.4292 4.73091 24.8413 5.03471 25.1451C5.33851 25.4489 5.75056 25.6196 6.1802 25.6196H15.9C16.3296 25.6196 16.7417 25.4489 17.0455 25.1451C17.3493 24.8413 17.5199 24.4292 17.5199 23.9996C17.5199 23.5699 17.3493 23.1579 17.0455 22.854C16.7417 22.5502 16.3296 22.3796 15.9 22.3796ZM15.9 28.8596H2.94027C2.51063 28.8596 2.09859 29.0303 1.79479 29.3341C1.49099 29.6379 1.32031 30.05 1.32031 30.4796C1.32031 30.9093 1.49099 31.3214 1.79479 31.6252C2.09859 31.929 2.51063 32.0997 2.94027 32.0997H15.9C16.3296 32.0997 16.7417 31.929 17.0455 31.6252C17.3493 31.3214 17.5199 30.9093 17.5199 30.4796C17.5199 30.05 17.3493 29.6379 17.0455 29.3341C16.7417 29.0303 16.3296 28.8596 15.9 28.8596ZM15.9 35.3397H6.1802C5.75056 35.3397 5.33851 35.5104 5.03471 35.8142C4.73091 36.118 4.56024 36.53 4.56024 36.9597C4.56024 37.3894 4.73091 37.8014 5.03471 38.1052C5.33851 38.409 5.75056 38.5797 6.1802 38.5797H15.9C16.3296 38.5797 16.7417 38.409 17.0455 38.1052C17.3493 37.8014 17.5199 37.3894 17.5199 36.9597C17.5199 36.53 17.3493 36.118 17.0455 35.8142C16.7417 35.5104 16.3296 35.3397 15.9 35.3397Z" fill="#13277E"/>
</svg>
