<svg width="49" height="49" viewBox="0 0 49 49" fill="none" xmlns="http://www.w3.org/2000/svg">
<g clip-path="url(#clip0_5526_31026)">
<path d="M47.2354 44.7109H1.76172V47.2373H47.2354V44.7109Z" fill="#939598"/>
<mask id="mask0_5526_31026" style="mask-type:luminance" maskUnits="userSpaceOnUse" x="0" y="0" width="49" height="49">
<path d="M0.5 0.5H48.5V48.5H0.5V0.5Z" fill="white"/>
</mask>
<g mask="url(#mask0_5526_31026)">
<path d="M14.3914 42.1842C14.3914 41.1791 13.9922 40.2153 13.2815 39.5046C12.5709 38.7939 11.607 38.3947 10.602 38.3947C9.59694 38.3947 8.63308 38.7939 7.92241 39.5046C7.21175 40.2153 6.8125 41.1791 6.8125 42.1842C6.8125 43.1892 7.21175 44.1531 7.92241 44.8637C8.63308 45.5744 9.59694 45.9736 10.602 45.9736C11.607 45.9736 12.5709 45.5744 13.2815 44.8637C13.9922 44.1531 14.3914 43.1892 14.3914 42.1842Z" fill="#58595B"/>
<path d="M13.1308 42.1846C13.1308 41.5146 12.8646 40.872 12.3908 40.3982C11.917 39.9245 11.2745 39.6583 10.6044 39.6583C9.93442 39.6583 9.29184 39.9245 8.81807 40.3982C8.34429 40.872 8.07813 41.5146 8.07812 42.1846C8.07812 42.8546 8.34429 43.4972 8.81807 43.971C9.29184 44.4448 9.93442 44.7109 10.6044 44.7109C11.2745 44.7109 11.917 44.4448 12.3908 43.971C12.8646 43.4972 13.1308 42.8546 13.1308 42.1846Z" fill="#292F33"/>
<path d="M42.1844 42.1842C42.1844 41.1791 41.7852 40.2153 41.0745 39.5046C40.3638 38.7939 39.4 38.3947 38.3949 38.3947C37.3899 38.3947 36.426 38.7939 35.7154 39.5046C35.0047 40.2153 34.6055 41.1791 34.6055 42.1842C34.6055 43.1892 35.0047 44.1531 35.7154 44.8637C36.426 45.5744 37.3899 45.9736 38.3949 45.9736C39.4 45.9736 40.3638 45.5744 41.0745 44.8637C41.7852 44.1531 42.1844 43.1892 42.1844 42.1842Z" fill="#58595B"/>
<path d="M40.9198 42.1846C40.9198 41.5146 40.6537 40.872 40.1799 40.3982C39.7061 39.9245 39.0635 39.6583 38.3935 39.6583C37.7235 39.6583 37.0809 39.9245 36.6071 40.3982C36.1334 40.872 35.8672 41.5146 35.8672 42.1846C35.8672 42.8546 36.1334 43.4972 36.6071 43.971C37.0809 44.4448 37.7235 44.7109 38.3935 44.7109C39.0635 44.7109 39.7061 44.4448 40.1799 43.971C40.6537 43.4972 40.9198 42.8546 40.9198 42.1846Z" fill="#292F33"/>
<path d="M44.7076 4.28906H4.2866C3.95159 4.28906 3.6303 4.15598 3.39341 3.91909C3.15652 3.68221 3.02344 3.36091 3.02344 3.0259C3.02344 2.69089 3.15652 2.3696 3.39341 2.13272C3.6303 1.89583 3.95159 1.76275 4.2866 1.76275H44.7076C45.0427 1.76275 45.3639 1.89583 45.6008 2.13272C45.8377 2.3696 45.9708 2.69089 45.9708 3.0259C45.9708 3.36091 45.8377 3.68221 45.6008 3.91909C45.3639 4.15598 45.0427 4.28906 44.7076 4.28906Z" fill="#E6E7E8"/>
<path d="M23.8675 11.9754L20.0742 8.18213L23.8675 5.14676L27.6607 8.18213L23.8675 11.9754ZM30.8136 8.00781C30.8036 7.83037 30.7563 7.65702 30.6749 7.49903C30.5935 7.34103 30.4798 7.20193 30.3412 7.09076L25.6902 3.37076C25.7507 3.17927 25.7636 2.97595 25.728 2.77833C25.6923 2.58072 25.6091 2.39474 25.4856 2.23645C25.2954 2.00183 25.0266 1.84421 24.729 1.79287C24.4314 1.74153 24.1253 1.79995 23.8675 1.95729C23.6097 1.79995 23.3036 1.74153 23.006 1.79287C22.7084 1.84421 22.4395 2.00183 22.2494 2.23645C22.1258 2.39474 22.0426 2.58072 22.007 2.77833C21.9713 2.97595 21.9843 3.17927 22.0447 3.37076L17.3938 7.09076C17.2556 7.20212 17.1424 7.34128 17.0614 7.49921C16.9804 7.65713 16.9336 7.8303 16.9238 8.00751C16.914 8.18471 16.9416 8.36198 17.0047 8.52785C17.0678 8.69371 17.1651 8.84447 17.2902 8.97034L22.1332 13.8146C22.0309 14.0051 21.9799 14.219 21.985 14.4352C21.9901 14.6514 22.0511 14.8626 22.1622 15.0481C22.2733 15.2337 22.4307 15.3872 22.6188 15.4938C22.807 15.6004 23.0196 15.6564 23.2359 15.6562C23.4582 15.6562 23.6704 15.5767 23.8675 15.4604C24.0567 15.5811 24.2748 15.6488 24.4991 15.6562C24.7156 15.6573 24.9288 15.6018 25.1174 15.4954C25.306 15.389 25.4637 15.2353 25.5749 15.0494C25.6861 14.8636 25.7469 14.6519 25.7514 14.4354C25.7559 14.2189 25.7039 14.0049 25.6005 13.8146L30.446 8.97034C30.5716 8.84484 30.6693 8.69422 30.7326 8.52835C30.796 8.36247 30.8236 8.18509 30.8136 8.00781Z" fill="#66757F"/>
<path d="M39.6556 14.3946C39.6556 15.0646 39.3895 15.7072 38.9157 16.181C38.4419 16.6547 37.7993 16.9209 37.1293 16.9209H11.8662C11.1961 16.9209 10.5536 16.6547 10.0798 16.181C9.60601 15.7072 9.33984 15.0646 9.33984 14.3946C9.33984 13.7246 9.60601 13.082 10.0798 12.6082C10.5536 12.1344 11.1961 11.8683 11.8662 11.8683H37.1293C37.7993 11.8683 38.4419 12.1344 38.9157 12.6082C39.3895 13.082 39.6556 13.7246 39.6556 14.3946Z" fill="#BCBEC0"/>
<path d="M47.2354 29.553C47.2354 30.893 46.7031 32.1782 45.7555 33.1257C44.808 34.0733 43.5228 34.6056 42.1828 34.6056H6.81435C5.47431 34.6056 4.18915 34.0733 3.2416 33.1257C2.29405 32.1782 1.76172 30.893 1.76172 29.553V19.4477C1.76172 18.1077 2.29405 16.8225 3.2416 15.875C4.18915 14.9274 5.47431 14.3951 6.81435 14.3951H42.1828C43.5228 14.3951 44.808 14.9274 45.7555 15.875C46.7031 16.8225 47.2354 18.1077 47.2354 19.4477V29.553ZM47.2354 37.1319H1.76172V42.1846H47.2354V37.1319Z" fill="#E6E7E8"/>
<path d="M47.2354 19.4476H1.76172V37.1318H47.2354V19.4476Z" fill="#BE1931"/>
<path d="M47.2354 19.4477H1.76172V32.0793H9.34067V39.6582H18.1828V32.0793H30.8144V39.6582H39.6565V32.0793H47.2354V19.4477Z" fill="#DD2E44"/>
<path d="M4.28803 21.9739H1.76172V34.6055H4.28803C4.95806 34.6055 5.60063 34.3393 6.07441 33.8655C6.54819 33.3918 6.81435 32.7492 6.81435 32.0792V24.5002C6.81435 23.8302 6.54819 23.1876 6.07441 22.7138C5.60063 22.2401 4.95806 21.9739 4.28803 21.9739ZM47.2354 21.9739H44.7091C44.0391 21.9739 43.3965 22.2401 42.9227 22.7138C42.4489 23.1876 42.1828 23.8302 42.1828 24.5002V32.0792C42.1828 32.7492 42.4489 33.3918 42.9227 33.8655C43.3965 34.3393 44.0391 34.6055 44.7091 34.6055H47.2354V21.9739ZM28.288 29.5528C28.288 29.8878 28.155 30.2091 27.9181 30.446C27.6812 30.6829 27.3599 30.816 27.0249 30.816H21.9722C21.6372 30.816 21.3159 30.6829 21.0791 30.446C20.8422 30.2091 20.7091 29.8878 20.7091 29.5528V24.5002C20.7091 24.1652 20.8422 23.8439 21.0791 23.607C21.3159 23.3701 21.6372 23.237 21.9722 23.237H27.0249C27.3599 23.237 27.6812 23.3701 27.9181 23.607C28.155 23.8439 28.288 24.1652 28.288 24.5002V29.5528ZM16.9196 30.816C16.9196 31.151 16.7865 31.4723 16.5496 31.7092C16.3128 31.9461 15.9915 32.0792 15.6565 32.0792H11.867C11.532 32.0792 11.2107 31.9461 10.9738 31.7092C10.7369 31.4723 10.6038 31.151 10.6038 30.816V24.5002C10.6038 24.1652 10.7369 23.8439 10.9738 23.607C11.2107 23.3701 11.532 23.237 11.867 23.237H15.6565C15.9915 23.237 16.3128 23.3701 16.5496 23.607C16.7865 23.8439 16.9196 24.1652 16.9196 24.5002V30.816ZM38.3933 30.816C38.3933 31.151 38.2602 31.4723 38.0233 31.7092C37.7864 31.9461 37.4651 32.0792 37.1301 32.0792H33.3407C33.0057 32.0792 32.6844 31.9461 32.4475 31.7092C32.2106 31.4723 32.0775 31.151 32.0775 30.816V24.5002C32.0775 24.1652 32.2106 23.8439 32.4475 23.607C32.6844 23.3701 33.0057 23.237 33.3407 23.237H37.1301C37.4651 23.237 37.7864 23.3701 38.0233 23.607C38.2602 23.8439 38.3933 24.1652 38.3933 24.5002V30.816Z" fill="#55ACEE"/>
<path d="M47.2354 39.6582H1.76172V37.1319H47.2354V39.6582Z" fill="#A0041E"/>
</g>
</g>
<defs>
<clipPath id="clip0_5526_31026">
<rect width="48" height="48" fill="white" transform="translate(0.5 0.5)"/>
</clipPath>
</defs>
</svg>
