<svg width="105" height="105" viewBox="0 0 105 105" fill="none" xmlns="http://www.w3.org/2000/svg">
<g id="ozone-layer">
<g id="36. Ozon">
<path id="Vector" d="M75.055 55.7276C75.055 61.8193 72.6351 67.6615 68.3276 71.969C64.0202 76.2764 58.178 78.6964 52.0863 78.6964C30.4629 78.6964 20.9144 51.4784 37.5832 37.9432C40.9495 35.202 45.0237 33.471 49.3336 32.9507C53.6435 32.4304 58.0126 33.1422 61.9345 35.0036C65.8564 36.865 69.1705 39.7997 71.4927 43.4676C73.8149 47.1355 75.0501 51.3864 75.055 55.7276Z" fill="#2B8AFC"/>
<path id="Vector_2" d="M75.0625 55.7285C75.0625 84.5379 32.4062 80.1903 32.4062 52.4473C32.4062 23.5722 75.0625 27.8379 75.0625 55.7285Z" fill="#2B8AFC"/>
<path id="Vector_3" d="M53.092 38.7461C51.0904 41.7484 48.1701 38.7461 46.1029 39.7469C44.0357 40.7477 46.5459 43.0281 47.1037 45.7352C48.1045 50.7391 43.1006 48.7375 41.099 49.7383C38.5724 50.9852 40.6396 55.4641 38.1131 56.7274C33.9951 58.811 31.2717 54.2336 30.1232 49.7383C29.3849 47.6383 36.3576 32.8563 51.9599 32.7578C52.4685 32.7578 54.6342 36.4164 53.092 38.7461Z" fill="#9DCC6B"/>
<path id="Vector_4" d="M51.4486 35.4633C49.447 38.4656 46.5267 35.4633 44.4595 36.4641C42.3923 37.4648 44.9025 39.7453 45.4603 42.4524C46.4611 47.4563 41.4572 45.4547 39.4556 46.4555C36.929 47.7024 38.9962 52.1813 36.4697 53.4446C36.0238 53.6717 35.5253 53.7755 35.0259 53.7451C34.5264 53.7148 34.0441 53.5514 33.6291 53.2719C33.214 52.9924 32.8813 52.607 32.6653 52.1556C32.4494 51.7042 32.3581 51.2033 32.4009 50.7047C32.8603 44.7 36.0431 39.2203 37.7822 37.7109C41.8052 34.5435 46.7713 32.8112 51.8915 32.7891C52.09 33.7043 51.9316 34.6609 51.4486 35.4633Z" fill="#B5E08C"/>
<path id="Vector_5" d="M44.1034 60.647C45.7309 61.1816 47.1376 62.2366 48.1065 63.6493C49.0909 65.6509 52.1588 63.6493 53.0284 65.6509C53.8979 67.6525 52.4542 68.8501 50.4526 69.2111C49.7287 69.3704 49.0801 69.77 48.6124 70.345C48.1447 70.92 47.8854 71.6364 47.8768 72.3775C47.7784 73.2798 46.2362 74.297 45.0549 70.7369C44.0542 67.7345 40.9534 67.4556 40.1331 65.815C39.3128 64.1743 40.1167 59.7118 44.1034 60.647Z" fill="#9DCC6B"/>
<path id="Vector_6" d="M50.4472 69.2125C49.7314 69.3874 49.0923 69.7914 48.6273 70.363C48.1623 70.9346 47.8969 71.6425 47.8714 72.3789C47.773 73.3141 46.2308 74.2329 45.0496 70.7383C44.0488 67.736 40.948 67.4571 40.1277 65.8164C39.7323 64.9943 39.644 64.0579 39.8787 63.1763C40.1133 62.2947 40.6556 61.5261 41.4074 61.0094C43.6714 59.7953 47.2152 62.0266 48.1175 63.8149C49.0199 65.6032 52.1699 63.8149 53.0394 65.7672C53.0722 66.0625 54.68 68.2938 50.4472 69.2125ZM69.0683 55.4641C68.3628 57.5805 70.0691 62.4532 68.0675 65.4555C66.9355 67.0961 64.1792 68.2446 63.1456 67.0961C62.7107 66.4041 62.4705 65.6075 62.4503 64.7904C62.4301 63.9733 62.6306 63.1659 63.0308 62.4532C63.8511 60.386 64.0152 57.5313 61.0292 56.4649C58.0433 55.3985 55.041 57.4656 54.0402 52.4781C53.4167 49.3774 56.4519 48.0649 58.0269 46.4734C61.0292 43.4875 58.0269 42.4867 59.0277 39.4844C59.6347 37.6797 62.0464 36.5969 63.8675 36.0391C66.5457 37.6498 68.867 39.79 70.6894 42.3289C72.5118 44.8679 73.7968 47.7519 74.466 50.8047C73.282 51.143 72.1858 51.735 71.2537 52.5396C70.3216 53.3443 69.5759 54.3422 69.0683 55.4641Z" fill="#9DCC6B"/>
<path id="Vector_7" d="M74.5187 50.8039C73.322 51.1433 72.2141 51.7407 71.2731 52.5542C70.332 53.3677 69.5807 54.3775 69.0718 55.5125C68.4648 57.3336 69.646 61.2055 68.7109 64.1586C65.7906 65.1102 65.2163 62.0586 66.3648 59.2367C67.1851 57.1696 67.3491 54.3149 64.3632 53.2485C61.3773 52.1821 58.3749 54.2492 57.3742 49.2617C56.8656 46.7024 58.2601 46.9156 59.1624 45.111C59.1624 44.9469 60.4093 44.2414 61.3609 43.257C64.1991 40.4352 61.6726 39.3852 62.2468 36.6945C62.779 36.4453 63.3271 36.2316 63.8874 36.0547C66.57 37.6602 68.8965 39.7965 70.7246 42.3326C72.5526 44.8687 73.8437 47.7514 74.5187 50.8039Z" fill="#B5E08C"/>
<path id="Vector_8" d="M52.0938 88.5391C45.6041 88.5391 39.2601 86.6147 33.8641 83.0092C28.4681 79.4037 24.2625 74.2791 21.779 68.2834C19.2955 62.2877 18.6457 55.6902 19.9117 49.3252C21.1778 42.9602 24.3029 37.1136 28.8918 32.5246C33.4807 27.9357 39.3274 24.8106 45.6924 23.5446C52.0574 22.2785 58.6549 22.9283 64.6505 25.4118C70.6462 27.8953 75.7708 32.1009 79.3763 37.4969C82.9818 42.8929 84.9062 49.2369 84.9062 55.7266C84.9062 64.429 81.4492 72.775 75.2957 78.9286C69.1421 85.0821 60.7962 88.5391 52.0938 88.5391ZM52.0938 26.1953C46.253 26.1953 40.5435 27.9273 35.6871 31.1722C30.8307 34.4172 27.0456 39.0293 24.8104 44.4255C22.5753 49.8216 21.9905 55.7594 23.1299 61.4879C24.2694 67.2164 27.082 72.4783 31.212 76.6084C35.342 80.7384 40.604 83.551 46.3325 84.6905C52.061 85.8299 57.9987 85.2451 63.3949 83.01C68.791 80.7748 73.4031 76.9897 76.6481 72.1333C79.893 67.2769 81.625 61.5673 81.625 55.7266C81.625 47.8944 78.5137 40.383 72.9755 34.8448C67.4373 29.3067 59.9259 26.1953 52.0938 26.1953Z" fill="#2B8AFC"/>
<path id="Vector_9" d="M50.4492 69.2103C49.1531 69.4728 47.9883 71.2939 46.6922 67.422C45.4945 63.8291 41.4422 64.4361 41.3438 60.8595C42.2011 60.4374 43.1879 60.3611 44.1 60.6462C47.8406 61.8931 47.7094 63.7634 48.825 64.4033C49.9406 65.0431 50.9414 64.5181 51.9586 64.7478C53.468 65.1744 54.8297 68.2588 50.4492 69.2103Z" fill="#B5E08C"/>
<path id="Vector_10" d="M76.0798 50.3117C67.8603 20.8296 27.4845 27.6218 27.4845 55.7258C27.4719 59.1949 28.193 62.6276 29.6003 65.7985C31.0077 68.9694 33.0695 71.8069 35.6507 74.1249C38.2318 76.4429 41.2738 78.189 44.5773 79.2486C47.8807 80.3082 51.3708 80.6574 54.8186 80.2733C58.2665 79.8891 61.5942 78.7804 64.5834 77.0197C67.5726 75.259 70.1558 72.8862 72.1634 70.057C74.1711 67.2277 75.5579 64.006 76.2329 60.6031C76.9078 57.2002 76.8557 53.693 76.0798 50.3117ZM72.5689 49.7867C63.6931 54.0523 69.2877 60.6804 66.7119 64.5523C66.147 65.3005 65.3099 65.7957 64.3822 65.9305C63.3322 64.2898 66.4166 61.1726 64.7431 57.5961C63.6111 55.1351 61.183 54.5609 58.5087 54.4625C56.6548 54.4625 56.1462 54.3804 55.7033 52.1492C55.0306 48.8679 62.6103 48.2445 60.7564 41.9773C60.2478 40.3367 60.3298 39.0898 63.6931 37.8593C67.9865 40.6419 71.1366 44.875 72.5689 49.7867ZM51.2572 34.3976C51.7494 35.2343 52.4384 36.7273 51.733 37.7937C50.5517 39.5492 48.0744 36.875 45.3673 38.2367C42.6603 39.5984 43.9072 42.2398 44.5963 43.6671C47.5494 49.8359 43.7431 46.5382 40.3798 48.2117C37.0166 49.8851 38.5423 54.6758 37.3283 55.25C34.408 56.7265 32.5213 52.6578 31.6845 49.3929C32.9928 45.1745 35.5784 41.4664 39.0844 38.7803C42.5903 36.0943 46.8437 34.5629 51.2572 34.3976ZM52.0939 77.0539C49.2778 77.054 46.4896 76.4964 43.8901 75.4133C41.2906 74.3302 38.9314 72.743 36.9485 70.7434C34.9656 68.7437 33.3984 66.3712 32.3372 63.7626C31.276 61.1541 30.742 58.3613 30.7658 55.5453C33.0134 58.8265 36.2619 59.4828 38.8213 58.1867C40.9213 57.1531 41.1017 54.9054 41.233 53.3633C41.4298 50.9843 41.4791 51.0828 43.5134 51.0172C47.5002 50.8859 49.4689 49.3765 48.6978 45.4226C48.2799 43.9597 47.7308 42.5376 47.0572 41.1734C48.4353 41.1734 52.0611 43.2406 54.4564 39.664C54.9224 38.9164 55.2079 38.0706 55.2905 37.1936C55.3731 36.3165 55.2504 35.4323 54.9322 34.6109C56.7068 34.8376 58.4442 35.2954 60.1002 35.9726C58.9008 36.6172 57.9824 37.6828 57.522 38.9642C57.0616 40.2455 57.0916 41.6519 57.6064 42.9125C58.0166 44.2578 57.9017 44.5531 55.8017 46.1937C54.1611 47.457 51.815 49.3437 52.5205 52.7562C53.472 57.5304 56.458 57.6781 58.4267 57.6781C66.2853 57.957 58.1642 63.6008 61.9869 68.0961C63.8572 70.3109 67.8767 68.7031 69.4681 66.2914C71.0595 63.8797 70.8134 61.0414 70.6494 58.6789C70.4853 56.3164 70.19 54.9218 73.2744 53.0679C73.6516 56.0712 73.3852 59.1203 72.493 62.0126C71.6008 64.9049 70.1032 67.5742 68.0997 69.8431C66.0962 72.1119 63.6328 73.9284 60.8731 75.1716C58.1134 76.4149 55.1207 77.0565 52.0939 77.0539Z" fill="#13277E"/>
<path id="Vector_11" d="M49.5622 62.9773C48.4089 61.176 46.6711 59.8262 44.6404 59.1546C43.6725 58.8427 42.6333 58.829 41.6575 59.1153C40.6818 59.4017 39.8148 59.9748 39.169 60.7604C38.5233 61.5459 38.1287 62.5074 38.0365 63.5201C37.9443 64.5328 38.1588 65.5498 38.6521 66.439C39.259 67.4695 40.1467 68.306 41.2115 68.8507C44.3287 70.8031 42.8521 70.8851 44.7388 73.6906C45.0451 74.1437 45.483 74.4921 45.9935 74.6886C46.5039 74.8852 47.0624 74.9205 47.5935 74.7898C50.3662 74.1171 48.824 71.2624 50.8747 70.8359C54.8122 69.9663 55.7966 67.5546 54.6154 65.0445C53.4341 62.5343 50.1037 63.3218 49.5622 62.9773ZM46.7404 70.4913C45.1982 66.3898 42.1302 66.1273 41.5724 65.028C41.0146 63.9288 41.3755 62.2882 42.9013 62.2882C43.6432 62.3869 44.3568 62.6374 44.9975 63.0241C45.6383 63.4108 46.1925 63.9255 46.6255 64.5359C47.9216 67.1281 51.0388 66.1765 51.5474 66.4718C52.4169 68.1616 48.4466 66.521 46.7404 70.4913Z" fill="#13277E"/>
<path id="Vector_12" d="M84.9068 55.725C84.9068 49.2353 82.9824 42.8913 79.3769 37.4953C75.7714 32.0993 70.6468 27.8937 64.6511 25.4102C58.6554 22.9267 52.0579 22.2769 45.6929 23.5429C39.3279 24.809 33.4813 27.9341 28.8924 32.523C24.3035 37.112 21.1784 42.9586 19.9123 49.3236C18.6463 55.6886 19.2961 62.2861 21.7796 68.2818C24.2631 74.2775 28.4687 79.4021 33.8647 83.0076C39.2607 86.6131 45.6046 88.5375 52.0943 88.5375C60.7968 88.5375 69.1427 85.0805 75.2963 78.927C81.4498 72.7734 84.9068 64.4274 84.9068 55.725ZM52.0943 85.2563C46.2536 85.2563 40.5441 83.5243 35.6877 80.2794C30.8313 77.0344 27.0462 72.4223 24.811 67.0261C22.5759 61.63 21.9911 55.6922 23.1305 49.9637C24.27 44.2352 27.0826 38.9733 31.2126 34.8432C35.3426 30.7132 40.6046 27.9006 46.3331 26.7612C52.0616 25.6217 57.9993 26.2065 63.3955 28.4417C68.7916 30.6768 73.4037 34.4619 76.6487 39.3183C79.8936 44.1747 81.6256 49.8843 81.6256 55.725C81.6256 63.5572 78.5143 71.0686 72.9761 76.6068C67.4379 82.145 59.9265 85.2563 52.0943 85.2563ZM32.1279 25.6523C32.4913 25.4108 32.7438 25.0349 32.8299 24.6072C32.9161 24.1795 32.8288 23.7352 32.5873 23.3718C32.3458 23.0085 31.9699 22.756 31.5422 22.6699C31.1146 22.5837 30.6702 22.671 30.3069 22.9125C28.3709 24.225 25.8444 25.5867 27.2061 27.3093C28.5678 29.032 30.2904 26.8664 32.1279 25.6523ZM17.3459 40.9594C17.7377 41.1453 18.1872 41.1686 18.5961 41.0241C19.0049 40.8796 19.34 40.5791 19.528 40.1883C20.9061 37.2844 21.5131 37.1039 21.1686 36.0867C21.088 35.7721 20.9159 35.4886 20.6741 35.2719C20.4322 35.0552 20.1315 34.9152 19.81 34.8695C19.4886 34.8238 19.1607 34.8746 18.8681 35.0153C18.5755 35.1561 18.3312 35.3805 18.1662 35.6601C17.1162 37.5469 15.3608 39.9586 17.3459 40.9594ZM43.5795 20.5992C44.0225 20.5992 44.7608 20.3039 47.1397 19.9757C47.5748 19.917 47.9687 19.6878 48.2349 19.3386C48.501 18.9894 48.6175 18.5488 48.5588 18.1136C48.5001 17.6785 48.2709 17.2845 47.9217 17.0184C47.5724 16.7523 47.1318 16.6357 46.6967 16.6945C43.4154 17.1703 42.6608 17.3343 42.2014 18.0562C42.0381 18.3041 41.9452 18.5917 41.9324 18.8883C41.9197 19.1848 41.9877 19.4793 42.1291 19.7403C42.2706 20.0013 42.4802 20.219 42.7356 20.3702C42.991 20.5215 43.2827 20.6006 43.5795 20.5992ZM17.2639 46.193C17.3604 45.7787 17.2922 45.3431 17.0738 44.9781C16.8553 44.6131 16.5036 44.3472 16.0929 44.2366C15.6821 44.1259 15.2445 44.1791 14.8722 44.3849C14.4999 44.5908 14.2222 44.9331 14.0975 45.3398C14.001 45.7541 14.0691 46.1897 14.2876 46.5547C14.5061 46.9197 14.8578 47.1856 15.2685 47.2962C15.6792 47.4069 16.1169 47.3537 16.4892 47.1479C16.8614 46.942 17.1392 46.5997 17.2639 46.193ZM23.6131 32.6086C23.9499 32.612 24.2796 32.5117 24.5574 32.3212C24.8352 32.1308 25.0476 31.8595 25.1659 31.5441C25.2842 31.2287 25.3025 30.8846 25.2184 30.5585C25.1343 30.2323 24.9519 29.9399 24.6959 29.7211C24.3673 29.4363 23.9391 29.2936 23.5053 29.3243C23.0716 29.3551 22.6678 29.5568 22.3826 29.8851C22.1745 30.122 22.0391 30.4138 21.9925 30.7256C21.946 31.0375 21.9903 31.3561 22.1201 31.6434C22.2499 31.9308 22.4597 32.1746 22.7245 32.3458C22.9893 32.5169 23.2978 32.6082 23.6131 32.6086ZM38.674 20.4023C38.5 20.002 38.174 19.6872 37.7679 19.5272C37.3618 19.3672 36.9087 19.3751 36.5084 19.5492C36.1081 19.7232 35.7933 20.0492 35.6333 20.4553C35.4733 20.8614 35.4812 21.3145 35.6553 21.7148C35.8293 22.1151 36.1553 22.4299 36.5614 22.5899C36.9675 22.7499 37.4206 22.742 37.8209 22.5679C38.2212 22.3939 38.536 22.0679 38.696 21.6618C38.856 21.2557 38.8481 20.8026 38.674 20.4023ZM55.3756 18.089C55.3821 17.8736 55.346 17.659 55.2695 17.4574C55.1931 17.2559 55.0776 17.0714 54.9299 16.9145C54.6314 16.5976 54.2193 16.4122 53.7842 16.3992C53.3491 16.3861 52.9266 16.5465 52.6097 16.8449C52.2928 17.1433 52.1074 17.5555 52.0943 17.9906C52.0813 18.4257 52.2416 18.8482 52.5401 19.1651C52.8385 19.482 53.2506 19.6674 53.6857 19.6804C54.1209 19.6935 54.5434 19.5332 54.8603 19.2347C55.1772 18.9363 55.3625 18.5241 55.3756 18.089ZM83.8732 32.4609C83.7461 32.2864 83.5859 32.1386 83.4017 32.026C83.2174 31.9135 83.0128 31.8383 82.7996 31.8047C82.5863 31.7712 82.3685 31.7801 82.1586 31.8307C81.9487 31.8814 81.7509 31.9729 81.5764 32.1C81.4019 32.2271 81.2541 32.3873 81.1415 32.5716C81.0289 32.7558 80.9537 32.9604 80.9202 33.1737C80.8867 33.3869 80.8955 33.6047 80.9462 33.8146C80.9968 34.0245 81.0883 34.2223 81.2154 34.3969C81.4721 34.7493 81.8584 34.9853 82.2891 35.053C82.7199 35.1207 83.1599 35.0145 83.5123 34.7578C83.8648 34.5011 84.1008 34.1149 84.1685 33.6841C84.2362 33.2534 84.13 32.8134 83.8732 32.4609ZM85.842 42.9117C85.9965 43.3185 86.3062 43.6474 86.7031 43.8258C87.1 44.0043 87.5516 44.0177 87.9584 43.8633C88.3652 43.7088 88.694 43.399 88.8725 43.0021C89.0509 42.6052 89.0644 42.1537 88.91 41.7469C88.4834 40.6148 88.0076 39.532 87.5154 38.4656C87.4239 38.2686 87.2941 38.0917 87.1337 37.9452C86.9733 37.7988 86.7853 37.6856 86.5808 37.6124C86.3763 37.5391 86.1592 37.5072 85.9423 37.5185C85.7253 37.5298 85.5128 37.584 85.317 37.6781C83.4303 38.6789 84.9068 40.4016 85.842 42.9117ZM87.5811 49.1625C87.6594 49.5976 87.9073 49.9838 88.2704 50.2361C88.6335 50.4884 89.0819 50.5861 89.517 50.5078C89.9521 50.4295 90.3383 50.1815 90.5906 49.8185C90.8429 49.4554 90.9406 49.007 90.8623 48.5719C90.8235 48.3564 90.7427 48.1507 90.6244 47.9665C90.5061 47.7823 90.3527 47.6232 90.173 47.4983C89.8099 47.246 89.3615 47.1482 88.9264 47.2266C88.4912 47.3049 88.105 47.5528 87.8528 47.9159C87.6005 48.279 87.5027 48.7274 87.5811 49.1625Z" fill="#13277E"/>
</g>
</g>
</svg>
