<svg width="520" height="337" viewBox="0 0 520 337" fill="none" xmlns="http://www.w3.org/2000/svg">
    <path d="M86.3865 298C84.0476 298 82.134 297.256 80.6456 295.767C79.1572 294.279 78.4131 292.365 78.4131 290.027V119.076H20.3664C18.2402 119.076 16.4329 118.332 14.9445 116.844C13.4561 115.355 12.7119 113.548 12.7119 111.422V82.7172C12.7119 80.3783 13.4561 78.4647 14.9445 76.9763C16.4329 75.488 18.2402 74.7438 20.3664 74.7438H187.49C189.829 74.7438 191.742 75.488 193.231 76.9763C194.719 78.4647 195.463 80.3783 195.463 82.7172V111.422C195.463 113.548 194.719 115.355 193.231 116.844C191.742 118.332 189.829 119.076 187.49 119.076H129.762V290.027C129.762 292.365 129.018 294.279 127.529 295.767C126.041 297.256 124.127 298 121.789 298H86.3865Z" fill="url(#paint0_radial_11263_34177)"/>
    <path d="M395.846 298C393.508 298 391.594 297.256 390.106 295.767C388.617 294.279 387.873 292.365 387.873 290.027V119.076H329.826C327.7 119.076 325.893 118.332 324.404 116.844C322.916 115.355 322.172 113.548 322.172 111.422V82.7172C322.172 80.3783 322.916 78.4647 324.404 76.9763C325.893 75.488 327.7 74.7438 329.826 74.7438H496.95C499.289 74.7438 501.202 75.488 502.69 76.9763C504.179 78.4647 504.923 80.3783 504.923 82.7172V111.422C504.923 113.548 504.179 115.355 502.69 116.844C501.202 118.332 499.289 119.076 496.95 119.076H439.222V290.027C439.222 292.365 438.478 294.279 436.989 295.767C435.501 297.256 433.587 298 431.249 298H395.846Z" fill="url(#paint1_radial_11263_34177)"/>
    <path d="M274.879 74.9609C277.217 74.9609 279.131 75.7051 280.619 77.1935C282.108 78.6819 282.852 80.5955 282.852 82.9344L282.852 153.101L357.483 288.011C357.696 288.649 357.909 289.181 358.121 289.606C358.334 290.244 358.44 290.882 358.44 291.519C358.44 293.22 357.802 294.709 356.527 295.985C355.038 297.473 353.443 298.217 351.742 298.217L317.935 298.217C314.958 298.217 312.619 297.473 310.918 295.985C309.217 294.496 308.048 293.114 307.41 291.838L257.337 204.131L207.264 291.838C206.626 293.114 205.457 294.496 203.756 295.985C202.055 297.473 199.716 298.217 196.739 298.217L162.932 298.217C161.231 298.217 159.742 297.473 158.466 295.985C156.978 294.709 156.234 293.22 156.234 291.519C156.234 290.882 156.34 290.244 156.553 289.606C156.765 289.181 156.978 288.649 157.191 288.011L231.822 153.101L231.822 82.9344C231.822 80.5955 232.566 78.6819 234.055 77.1935C235.543 75.7051 237.457 74.9609 239.795 74.9609L274.879 74.9609Z" fill="url(#paint2_radial_11263_34177)"/>
    <defs>
        <radialGradient id="paint0_radial_11263_34177" cx="0" cy="0" r="1" gradientUnits="userSpaceOnUse" gradientTransform="translate(104.195 189) rotate(90) scale(189 98.5)">
            <stop stop-color="#13277E"/>
            <stop offset="1" stop-color="#2247E4"/>
        </radialGradient>
        <radialGradient id="paint1_radial_11263_34177" cx="0" cy="0" r="1" gradientUnits="userSpaceOnUse" gradientTransform="translate(413.655 189) rotate(90) scale(189 98.5)">
            <stop stop-color="#13277E"/>
            <stop offset="1" stop-color="#2247E4"/>
        </radialGradient>
        <radialGradient id="paint2_radial_11263_34177" cx="0" cy="0" r="1" gradientUnits="userSpaceOnUse" gradientTransform="translate(257 183.961) rotate(-90) scale(189 107.5)">
            <stop stop-color="#13277E"/>
            <stop offset="1" stop-color="#2247E4"/>
        </radialGradient>
    </defs>
</svg>
