<svg width="260" height="169" viewBox="0 0 260 169" fill="none" xmlns="http://www.w3.org/2000/svg">
    <path d="M43.6932 149C42.5238 149 41.567 148.628 40.8228 147.884C40.0786 147.14 39.7065 146.183 39.7065 145.013V59.538H10.6832C9.62009 59.538 8.71644 59.1659 7.97225 58.4218C7.22806 57.6776 6.85597 56.7739 6.85597 55.7108V41.3586C6.85597 40.1892 7.22806 39.2324 7.97225 38.4882C8.71644 37.744 9.62009 37.3719 10.6832 37.3719H94.2448C95.4143 37.3719 96.3711 37.744 97.1153 38.4882C97.8595 39.2324 98.2315 40.1892 98.2315 41.3586V55.7108C98.2315 56.7739 97.8595 57.6776 97.1153 58.4218C96.3711 59.1659 95.4143 59.538 94.2448 59.538H65.381V145.013C65.381 146.183 65.0089 147.14 64.2647 147.884C63.5205 148.628 62.5637 149 61.3943 149H43.6932Z" fill="url(#paint0_radial_11263_34185)"/>
    <path d="M198.423 149C197.254 149 196.297 148.628 195.553 147.884C194.809 147.14 194.437 146.183 194.437 145.013V59.538H165.413C164.35 59.538 163.446 59.1659 162.702 58.4218C161.958 57.6776 161.586 56.7739 161.586 55.7108V41.3586C161.586 40.1892 161.958 39.2324 162.702 38.4882C163.446 37.744 164.35 37.3719 165.413 37.3719H248.975C250.144 37.3719 251.101 37.744 251.845 38.4882C252.589 39.2324 252.962 40.1892 252.962 41.3586V55.7108C252.962 56.7739 252.589 57.6776 251.845 58.4218C251.101 59.1659 250.144 59.538 248.975 59.538H220.111V145.013C220.111 146.183 219.739 147.14 218.995 147.884C218.251 148.628 217.294 149 216.124 149H198.423Z" fill="url(#paint1_radial_11263_34185)"/>
    <path d="M137.939 37.4805C139.109 37.4805 140.066 37.8526 140.81 38.5968C141.554 39.3409 141.926 40.2978 141.926 41.4672L141.926 76.5503L179.242 144.006C179.348 144.325 179.454 144.59 179.561 144.803C179.667 145.122 179.72 145.441 179.72 145.76C179.72 146.61 179.401 147.354 178.763 147.992C178.019 148.736 177.222 149.109 176.371 149.109L159.468 149.109C157.979 149.109 156.81 148.736 155.959 147.992C155.109 147.248 154.524 146.557 154.205 145.919L129.168 102.065L104.132 145.919C103.813 146.557 103.228 147.248 102.378 147.992C101.527 148.736 100.358 149.109 98.8694 149.109L81.9658 149.109C81.1153 149.109 80.3711 148.736 79.7332 147.992C78.989 147.354 78.6169 146.61 78.6169 145.76C78.6169 145.441 78.6701 145.122 78.7764 144.803C78.8827 144.59 78.989 144.325 79.0953 144.006L116.411 76.5503L116.411 41.4672C116.411 40.2978 116.783 39.3409 117.527 38.5968C118.271 37.8526 119.228 37.4805 120.398 37.4805L137.939 37.4805Z" fill="url(#paint2_radial_11263_34185)"/>
    <defs>
        <radialGradient id="paint0_radial_11263_34185" cx="0" cy="0" r="1" gradientUnits="userSpaceOnUse" gradientTransform="translate(52.8477 94.5) rotate(90) scale(94.5 49.5)">
            <stop stop-color="#13277E"/>
            <stop offset="1" stop-color="#2247E4"/>
        </radialGradient>
        <radialGradient id="paint1_radial_11263_34185" cx="0" cy="0" r="1" gradientUnits="userSpaceOnUse" gradientTransform="translate(207.578 94.5) rotate(90) scale(94.5 49.5)">
            <stop stop-color="#13277E"/>
            <stop offset="1" stop-color="#2247E4"/>
        </radialGradient>
        <radialGradient id="paint2_radial_11263_34185" cx="0" cy="0" r="1" gradientUnits="userSpaceOnUse" gradientTransform="translate(128.75 91.9805) rotate(-90) scale(94.5 54)">
            <stop stop-color="#13277E"/>
            <stop offset="1" stop-color="#2247E4"/>
        </radialGradient>
    </defs>
</svg>
