<svg width="80" height="80" viewBox="0 0 80 80" fill="none" xmlns="http://www.w3.org/2000/svg">
<g id="Broom">
<path id="BroomHead" d="M37.4896 50.4505C37.4896 50.4505 39.1522 49.94 40.9604 50.2463L47.0417 53.8484C48.4417 55.4817 48.4417 57.5379 48.4417 57.5379C48.6167 60.9941 47.1292 65.0774 46.575 66.9878C45.0438 71.7274 41.4418 73.769 37.4896 73.8711L17.4961 74.0024C16.3293 74.0607 13.7482 72.6315 16.4315 69.9774C19.3336 67.1775 29.1189 58.6171 32.2543 54.5046C32.2543 54.5046 33.9314 51.6901 37.4896 50.4505Z" fill="#FFB02E"/>
<path id="Vector 121 (Stroke)" d="M70.4559 5.77156C72.1012 6.71884 72.667 8.8205 71.7197 10.4658L47.9697 51.7158L42.0117 48.2854L65.7617 7.03539C66.709 5.39012 68.8107 4.82429 70.4559 5.77156Z" fill="#7D4533"/>
<path id="Vector 122" d="M48.4516 50.8571L42.5043 47.4977C42.5043 47.4977 41.1858 47.2145 40.5512 48.2203C39.5648 49.9098 40.7367 50.486 40.7367 50.486L46.7328 53.9625C47.5531 54.4215 49.9652 53.318 48.4516 50.8571Z" fill="#9B9B9B"/>
<g id="Union">
<path d="M33.2367 52.9486C32.781 52.7027 32.2123 52.8727 31.9664 53.3283C31.7204 53.7839 31.8904 54.3526 32.346 54.5986L47.5974 62.8318C48.053 63.0777 48.6217 62.9078 48.8677 62.4521C49.1137 61.9965 48.9437 61.4278 48.4881 61.1818L33.2367 52.9486Z" fill="#F8312F"/>
<path d="M30.7355 56.0961C30.279 55.8518 29.7109 56.0239 29.4666 56.4804C29.2223 56.9369 29.3943 57.505 29.8508 57.7493L46.507 66.6625C46.9636 66.9068 47.5317 66.7348 47.776 66.2783C48.0203 65.8218 47.8482 65.2536 47.3917 65.0094L30.7355 56.0961Z" fill="#F8312F"/>
</g>
</g>
</svg>
