<svg width="80" height="80" viewBox="0 0 80 80" fill="none" xmlns="http://www.w3.org/2000/svg">
<g id="shield-check 1">
<path id="Vector" fill-rule="evenodd" clip-rule="evenodd" d="M44.1203 57.9405C49.7667 55.1172 53.3333 49.3462 53.3333 43.0332V6.36719L64.9503 9.26349C67.918 10.0054 70 12.672 70 15.7311V43.7272C70 55.2042 63.5157 65.6962 53.2503 70.8288L42.9813 75.9632C42.043 76.4325 41.021 76.6672 40 76.6672V64.1208C40 61.5953 41.4267 59.2872 43.6853 58.1578L44.1203 57.9405Z" fill="#C4E6FF"/>
<path id="Vector_2" fill-rule="evenodd" clip-rule="evenodd" d="M55.6891 27.6404C56.9907 28.9421 56.9907 31.0528 55.6891 32.3544L39.0224 49.0211C37.7207 50.3228 35.6101 50.3228 34.3084 49.0211L24.3084 39.0211C23.0066 37.7194 23.0066 35.6088 24.3084 34.3071C25.6101 33.0053 27.7206 33.0053 29.0224 34.3071L36.6654 41.9498L50.9751 27.6404C52.2767 26.3386 54.3874 26.3386 55.6891 27.6404Z" fill="#2B8AFC"/>
<path id="Vector_3" fill-rule="evenodd" clip-rule="evenodd" d="M40 10.0026C39.7283 10.0026 39.457 10.0358 39.1917 10.1021L16.6667 15.7333V43.7293C16.6667 52.6813 21.7243 60.8649 29.7312 64.8683L40 70.0026L50.269 64.8683C58.2757 60.8649 63.3333 52.6813 63.3333 43.7293V15.7333L40.8083 10.1021C40.543 10.0358 40.2717 10.0026 40 10.0026ZM37.5747 3.6345C38.371 3.43547 39.1853 3.33594 40 3.33594C40.8147 3.33594 41.629 3.43547 42.4253 3.6345L64.9503 9.26574C67.918 10.0077 70 12.6742 70 15.7333V43.7293C70 55.2063 63.5157 65.6983 53.2503 70.8309L42.9813 75.9656C42.043 76.4346 41.021 76.6693 40 76.6693C38.979 76.6693 37.957 76.4346 37.0187 75.9656L26.7497 70.8309C16.4844 65.6983 10 55.2063 10 43.7293V15.7333C10 12.6742 12.082 10.0077 15.0498 9.26574L37.5747 3.6345Z" fill="#13277E"/>
</g>
</svg>
