<svg width="80" height="80" viewBox="0 0 80 80" fill="none" xmlns="http://www.w3.org/2000/svg">
<g id="Soap">
<path id="Rectangle 247" d="M35.357 9.5848C41.2148 3.72694 50.7123 3.72694 56.5702 9.5848L70.7123 23.7269C76.5702 29.5848 76.5702 39.0823 70.7123 44.9401L45.9636 69.6889C40.1057 75.5467 30.6082 75.5467 24.7504 69.6889L10.6082 55.5467C4.75038 49.6889 4.75038 40.1914 10.6082 34.3335L16.2425 26.771L23.432 21.5098L35.357 9.5848Z" fill="#FF6DC6"/>
<path id="Rectangle 248 (Stroke)" d="M64.8 32.9802C65.7763 33.9565 65.7763 35.5394 64.8 36.5158L36.5158 64.8C35.5394 65.7763 33.9565 65.7763 32.9802 64.8L15.3025 47.1224C14.3262 46.146 14.3262 44.5631 15.3025 43.5868L43.5868 15.3025C44.5631 14.3262 46.146 14.3262 47.1224 15.3025L64.8 32.9802ZM48.8901 13.5348C46.9375 11.5822 43.7717 11.5822 41.8191 13.5348L13.5348 41.819C11.5822 43.7717 11.5822 46.9375 13.5348 48.8901L31.2125 66.5678C33.1651 68.5204 36.3309 68.5204 38.2835 66.5678L66.5678 38.2835C68.5204 36.3309 68.5204 33.1651 66.5678 31.2124L48.8901 13.5348Z" fill="#FFB2FF"/>
<g id="Union">
<path d="M11.25 17.5C13.3211 17.5 15 15.8211 15 13.75C15 11.6789 13.3211 10 11.25 10C9.17893 10 7.5 11.6789 7.5 13.75C7.5 15.8211 9.17893 17.5 11.25 17.5Z" fill="#F3EEF8"/>
<path d="M23.5046 21.4338C22.6023 20.547 21.365 20 20 20C17.2386 20 15 22.2386 15 25C15 26.365 15.547 27.6023 16.4338 28.5046L23.5046 21.4338Z" fill="#F3EEF8"/>
<path d="M60 66.25C60 69.7018 57.2018 72.5 53.75 72.5C50.2982 72.5 47.5 69.7018 47.5 66.25C47.5 62.7982 50.2982 60 53.75 60C57.2018 60 60 62.7982 60 66.25Z" fill="#F3EEF8"/>
</g>
<g id="Union_2">
<path d="M13.75 42.5C18.5825 42.5 22.5 38.5825 22.5 33.75C22.5 28.9175 18.5825 25 13.75 25C8.91751 25 5 28.9175 5 33.75C5 38.5825 8.91751 42.5 13.75 42.5Z" fill="#E1D8EC"/>
<path d="M63.75 67.5C69.9632 67.5 75 62.4632 75 56.25C75 50.0368 69.9632 45 63.75 45C57.5368 45 52.5 50.0368 52.5 56.25C52.5 62.4632 57.5368 67.5 63.75 67.5Z" fill="#E1D8EC"/>
</g>
</g>
</svg>
